<svg width="144" height="144" viewBox="0 0 144 144" fill="none" xmlns="http://www.w3.org/2000/svg">
<g clip-path="url(#clip0_78_0)">
<path d="M121.681 121.677C149.118 94.2405 149.118 49.7572 121.681 22.3207C94.2446 -5.11585 49.7612 -5.11586 22.3247 22.3206C-5.11183 49.7572 -5.11182 94.2405 22.3247 121.677C49.7612 149.114 94.2445 149.114 121.681 121.677Z" fill="#FAB505"/>
<path d="M84.2388 10.9446C84.2388 10.9446 99.7075 13.954 104.826 16.4852C109.945 19.0165 112.083 21.7446 115.12 24.4165C118.158 27.0884 120.886 29.254 123.051 32.3477C125.189 35.4415 127.804 42.6415 127.804 42.6415C127.804 42.6415 123.051 39.2102 120.689 37.1009C118.326 34.9915 116.583 32.7696 113.573 29.9852C110.564 27.2009 107.329 23.7696 102.492 20.479C97.5981 17.1884 84.2388 10.9446 84.2388 10.9446Z" fill="white" stroke="#FFFEFE"/>
<path d="M119.374 119.37C145.537 93.2077 145.537 50.79 119.374 24.6276C93.2117 -1.53487 50.794 -1.53487 24.6315 24.6276C-1.5309 50.79 -1.5309 93.2077 24.6315 119.37C50.794 145.533 93.2117 145.533 119.374 119.37Z" fill="white"/>
<path d="M89.5542 14.0383C89.5542 14.0383 102.07 16.4852 106.204 18.5102C110.339 20.5633 112.082 22.7571 114.529 24.9227C116.976 27.0883 119.198 28.8321 120.942 31.3352C122.685 33.8383 124.795 39.6602 124.795 39.6602C124.795 39.6602 120.97 36.8758 119.029 35.1883C117.089 33.4727 115.71 31.6727 113.264 29.4227C110.817 27.1727 108.229 24.3883 104.292 21.7446C100.382 19.0727 89.5542 14.0383 89.5542 14.0383Z" fill="white" stroke="#FFFEFE"/>
<path d="M84.9417 131.404C84.9417 131.404 72.8198 133.71 67.2792 134.104C61.7386 134.498 56.7886 132.838 52.9636 131.741C49.1104 130.616 45.7355 128.845 42.4448 127.016C39.1542 125.188 33.5854 119.901 33.5854 119.901C33.5854 119.901 38.3105 122.207 41.348 123.107C44.3855 124.007 49.5605 127.438 53.4417 127.691C57.3511 127.973 59.0667 129.435 64.7761 130.363C70.4855 131.291 84.9417 131.404 84.9417 131.404Z" fill="white" stroke="#FFFEFE" stroke-width="0.7979"/>
<path d="M65.3626 120.319C62.3532 120.319 60.5813 119.475 60.1595 117.787V117.759V117.731C60.1313 117.647 59.822 115.706 60.4407 113.737C58.5563 113.428 53.3532 112.472 50.4282 110.925C49.7251 110.559 48.9095 110.137 48.0938 109.772C45.1688 108.478 38.5876 104.625 40.5563 97.0031C40.5845 96.8625 41.4845 93.0656 44.5782 91.4906L45.8157 90.8718L45.3657 92.1937C44.8032 93.8812 43.5938 98.6906 44.9157 100.772C45.2813 101.362 45.7876 101.672 46.5188 101.784H46.5751H46.6313C46.6313 101.784 47.447 102.037 48.6001 102.037C50.6813 102.037 53.5501 101.25 55.3501 97.425C56.1938 95.625 57.122 94.1062 58.1626 92.7843C61.9876 87.975 70.7626 79.9312 86.4563 79.9312C87.6939 79.9312 88.9876 79.9875 90.2814 80.0718C90.8157 80.0718 98.7189 80.3531 103.05 84.4593C103.078 84.4875 103.894 85.2468 105.328 85.2468C106.819 85.2468 109.266 84.375 112.275 80.1562C112.359 80.0437 120.656 67.7531 115.763 48.9937C114.103 49.8656 109.519 52.0031 104.456 52.0031C100.659 52.0031 97.4251 50.7937 94.8095 48.4312C92.5314 46.3781 91.2938 43.3968 91.5189 40.5C91.772 37.2937 93.7407 33.1031 101.728 31.3031C101.813 31.275 104.231 30.7125 107.522 30.7125C113.063 30.7125 120.403 32.3156 123.919 39.9937C123.975 40.0781 128.475 49.8656 128.7 64.5468C128.7 64.7718 128.081 86.2312 114.975 98.4937C114.638 98.8593 110.222 103.584 105.722 106.144L104.738 113.287V113.316C104.484 114.3 103.331 116.184 100.688 116.381C100.659 116.381 100.238 116.409 99.647 116.409C98.1845 116.409 97.0595 116.241 96.2439 115.903C96.0751 117 95.5407 118.716 94.0782 118.912C93.6845 119.025 91.5188 119.7 89.2407 119.7C86.7938 119.7 85.1063 118.912 84.2345 117.394L84.1501 117.225L84.6282 113.991H84.4876C84.2063 114.891 83.222 116.859 80.3532 117.337C79.9314 117.394 79.5095 117.45 79.0313 117.45C78.722 117.45 78.4126 117.45 78.0188 117.394H77.8501C76.6688 117.309 74.4751 117.141 72.8438 114.862L72.3376 114.834C72.3657 115.875 72.1689 117.844 70.7626 119.222C70.4532 119.503 70.0876 119.7 69.6657 119.784C68.7938 120.037 67.0782 120.319 65.3626 120.319Z" fill="#03CEFE"/>
<path d="M107.438 31.3594C112.584 31.3594 119.869 32.8219 123.328 40.3031C123.328 40.3031 127.856 49.8938 128.081 64.6313C128.081 64.6313 127.631 85.9219 114.525 98.1844C114.525 98.1844 109.772 103.331 105.159 105.862L104.147 113.259C104.147 113.259 103.528 115.678 100.603 115.903C100.603 115.903 100.181 115.931 99.6188 115.931C98.4376 115.931 96.5532 115.819 95.7657 115.059C95.7657 115.059 95.6532 118.266 93.9657 118.434C93.9657 118.434 91.6313 119.222 89.2688 119.222C87.4688 119.222 85.6407 118.772 84.7688 117.197L85.3313 113.456L84.0938 113.513C84.0938 113.513 83.6438 116.269 80.2969 116.859C79.8751 116.916 79.4813 116.944 79.0876 116.944C78.7782 116.944 78.4407 116.916 78.1313 116.916C76.9219 116.831 74.7844 116.775 73.2094 114.384L71.8032 114.328C71.8032 114.328 72.1969 117.197 70.4532 118.912C70.2282 119.137 69.9469 119.278 69.6376 119.334C68.8501 119.475 67.1626 119.756 65.4751 119.756C63.3657 119.756 61.2563 119.306 60.8063 117.647C60.8063 117.647 60.4126 115.341 61.3126 113.287C61.3126 113.287 54.2813 112.275 50.7938 110.447C50.0063 110.025 49.2188 109.631 48.4313 109.266C45.5626 108 39.3751 104.344 41.2032 97.1437C41.2032 97.1437 42.0469 93.4594 44.9438 91.9969C44.9438 91.9969 41.6813 101.644 46.5188 102.319C46.5188 102.319 47.3907 102.6 48.6563 102.6C50.7657 102.6 53.9719 101.812 55.9126 97.65C56.6719 96.0469 57.5438 94.5 58.6688 93.1219C62.3813 88.4531 71.0157 80.4656 86.5126 80.4656C87.7219 80.4656 88.9876 80.5219 90.3094 80.6063C90.3094 80.6063 98.4376 80.775 102.741 84.8531C102.741 84.8531 103.697 85.8094 105.384 85.8094C107.156 85.8094 109.716 84.7688 112.781 80.4656C112.781 80.4656 121.584 67.8094 116.156 48.15C116.156 48.15 110.644 51.4406 104.484 51.4406C101.363 51.4406 98.0438 50.5969 95.2032 48.0375C93.0938 46.125 91.8844 43.3969 92.1094 40.5844C92.3626 37.4344 94.3313 33.5813 101.869 31.8938C101.756 31.95 104.175 31.3594 107.438 31.3594ZM107.438 30.2344C104.147 30.2344 101.728 30.7969 101.503 30.8531C93.2063 32.7094 91.1251 37.1531 90.8719 40.5562C90.6469 43.6219 91.9407 46.7437 94.3313 48.9375C97.0594 51.3844 100.434 52.65 104.344 52.65C108.984 52.65 113.231 50.9062 115.284 49.8937C117.563 59.1187 116.578 66.6281 115.284 71.3531C113.85 76.6688 111.797 79.7625 111.684 79.9031C108.816 83.925 106.566 84.7687 105.216 84.7687C104.034 84.7687 103.359 84.15 103.359 84.15C98.9157 79.9313 90.9001 79.6219 90.2251 79.5938C88.9313 79.4813 87.6376 79.4531 86.3719 79.4531C70.4251 79.4531 61.5376 87.6375 57.6563 92.5312C56.5876 93.8812 55.6313 95.4281 54.7594 97.2844C53.1001 100.828 50.4563 101.559 48.5157 101.559C47.4751 101.559 46.7157 101.334 46.7157 101.334L46.6313 101.306H46.5469C45.9844 101.222 45.6188 100.997 45.3657 100.547C44.1844 98.6344 45.3657 93.9375 45.8719 92.4469L46.7719 89.8312L44.2969 91.0969C41.0626 92.7562 40.0782 96.6375 39.9938 96.975C39.1219 100.406 39.8251 103.612 42.0751 106.256C43.8469 108.337 46.2094 109.659 47.8407 110.391C48.6563 110.756 49.4157 111.15 50.1469 111.544C52.8469 112.978 57.4594 113.906 59.7094 114.3C59.2876 116.156 59.5407 117.844 59.5688 117.928V117.984V118.041C59.9063 119.391 61.2001 120.994 65.3063 120.994C67.0782 120.994 68.8219 120.713 69.6938 120.544C70.2282 120.431 70.7063 120.178 71.1001 119.812C72.2813 118.659 72.6751 117.112 72.7876 115.959C74.5032 117.9 76.5563 118.041 77.7376 118.125H77.9063C78.3001 118.153 78.6376 118.181 78.9469 118.181C79.4532 118.181 79.9032 118.153 80.3532 118.069C81.8719 117.816 82.9126 117.169 83.6157 116.466L83.5032 117.141L83.4469 117.506L83.6438 117.844C84.2907 119.025 85.7813 120.459 89.1282 120.459C91.3782 120.459 93.5719 119.812 94.0782 119.644C95.5688 119.419 96.2157 118.012 96.5251 116.831C97.3126 117.056 98.3251 117.169 99.5063 117.169C100.125 117.169 100.575 117.141 100.575 117.141C104.259 116.859 105.103 113.766 105.131 113.653L105.159 113.597V113.541L106.088 106.706C110.503 104.119 114.806 99.5906 115.228 99.1125C122.175 92.5875 125.578 83.6156 127.209 77.2313C128.981 70.3406 129.094 65.025 129.094 64.8V64.7719V64.7437C128.869 49.9219 124.425 40.3313 124.256 39.9375C122.597 36.3375 119.953 33.6937 116.381 32.1187C113.878 30.825 110.841 30.2344 107.438 30.2344Z" fill="white"/>
<path d="M97.1438 49.1344C97.1438 49.1344 101.897 50.4 104.428 46.5187" stroke="white" stroke-miterlimit="10"/>
<path d="M95.9346 44.1844C96.2452 44.1844 96.4971 43.9325 96.4971 43.6219C96.4971 43.3112 96.2452 43.0594 95.9346 43.0594C95.6239 43.0594 95.3721 43.3112 95.3721 43.6219C95.3721 43.9325 95.6239 44.1844 95.9346 44.1844Z" fill="white"/>
<path d="M108.028 42.4125C110.545 42.4125 112.584 40.3726 112.584 37.8562C112.584 35.3399 110.545 33.3 108.028 33.3C105.512 33.3 103.472 35.3399 103.472 37.8562C103.472 40.3726 105.512 42.4125 108.028 42.4125Z" fill="white" stroke="black" stroke-miterlimit="10"/>
<path d="M107.156 41.7656C108.989 41.7656 110.475 40.2798 110.475 38.4469C110.475 36.614 108.989 35.1281 107.156 35.1281C105.323 35.1281 103.838 36.614 103.838 38.4469C103.838 40.2798 105.323 41.7656 107.156 41.7656Z" fill="black"/>
<path d="M105.975 37.8563C106.519 37.8563 106.959 37.4155 106.959 36.8719C106.959 36.3282 106.519 35.8875 105.975 35.8875C105.431 35.8875 104.991 36.3282 104.991 36.8719C104.991 37.4155 105.431 37.8563 105.975 37.8563Z" fill="white"/>
<path d="M107.325 40.0782C107.496 40.0782 107.634 39.9397 107.634 39.7688C107.634 39.5979 107.496 39.4594 107.325 39.4594C107.154 39.4594 107.016 39.5979 107.016 39.7688C107.016 39.9397 107.154 40.0782 107.325 40.0782Z" fill="white"/>
<path d="M72.225 109.631C72.225 109.631 80.5781 109.744 86.0625 108.675L85.4437 113.484C85.4437 113.484 74.1375 114.75 71.7188 114.328L72.225 109.631Z" fill="#007AAA"/>
<path d="M50.4282 110.306L62.6907 109.463L61.2001 113.316C61.2282 113.316 53.6063 112.359 50.4282 110.306Z" fill="#007AAA"/>
<path d="M92.053 81.9562C92.8405 82.2094 94.2749 81.9562 94.0499 83.2219C93.853 84.2062 92.503 84.2062 91.5749 84.2062C90.5624 84.1781 88.9312 84.375 88.8468 83.1656C88.7624 82.0687 90.3937 82.2375 91.3218 82.0125C91.5468 81.9562 91.7718 81.9844 91.9968 81.9562C91.9687 81.9844 92.0249 81.9562 92.053 81.9562Z" fill="#007AAA"/>
<path d="M79.4531 87.8906C78.8906 87.8906 78.6656 87.9187 78.4406 87.8906C77.625 87.8625 76.725 87.8062 76.5 86.9063C76.275 85.9781 77.1187 85.5281 77.8218 85.1906C79.2843 84.4313 80.8593 83.9813 82.5187 84.2625C83.1093 84.375 83.8125 84.4594 83.9812 85.1906C84.1218 85.8375 83.5593 86.2031 83.1656 86.5406C82.0125 87.5813 80.6343 87.8906 79.4531 87.8906Z" fill="#007AAA"/>
<path d="M67.3031 92.475C68.175 92.5313 69.1594 92.3625 69.4125 93.2907C69.6656 94.275 68.7656 94.7532 68.0344 95.1188C66.9094 95.6813 65.7 95.9625 64.4625 95.8781C63.8719 95.85 63.1687 95.9063 62.9719 95.0907C62.775 94.3594 63.2812 93.8813 63.7875 93.5719C64.8562 92.8688 66.0656 92.5032 67.3031 92.475Z" fill="#007AAA"/>
<path d="M79.6219 92.3063C80.4657 92.3906 81.5625 92.1938 81.45 93.3469C81.3375 94.6125 80.1 94.7531 79.1438 94.8094C78.4407 94.8375 77.1188 94.9781 77.2594 93.7688C77.3719 92.475 78.6657 92.4469 79.6219 92.3063Z" fill="#007AAA"/>
<path d="M122.428 66.825C122.315 67.5281 122.062 68.5125 120.994 68.5969C120.178 68.6531 120.122 67.8375 120.178 67.2188C120.262 66.2906 120.515 65.3062 121.584 65.2219C122.287 65.1656 122.484 65.925 122.428 66.825Z" fill="#007AAA"/>
<path d="M69.1312 88.3688C68.625 88.3688 67.8937 88.3688 68.0625 88.0031C68.5687 86.6813 69.9468 86.7938 71.0718 86.5688C71.4937 86.4844 72.1125 86.625 71.8875 87.0188C71.2969 88.1156 70.0875 88.2 69.1312 88.3688Z" fill="#007AAA"/>
<path d="M121.247 77.3438C121.05 77.9906 120.769 78.6938 119.869 78.8625C119.334 78.975 118.997 78.6656 119.025 78.1031C119.081 77.175 119.559 76.5 120.487 76.3313C120.994 76.2469 121.247 76.6688 121.247 77.3438Z" fill="#007AAA"/>
<path d="M103.106 87.5812C103.753 87.6656 104.681 87.6094 104.681 88.425C104.681 89.2125 103.753 89.2406 103.078 89.2406C102.459 89.2406 101.672 89.2969 101.616 88.4812C101.559 87.5531 102.459 87.7219 103.106 87.5812Z" fill="#007AAA"/>
<path d="M93.9657 86.7938C94.6126 86.8781 95.3438 86.9625 95.2876 87.7781C95.2313 88.5375 94.472 88.6219 93.8532 88.65C93.2063 88.6781 92.5032 88.425 92.5313 87.6938C92.5595 86.9063 93.3751 86.9344 93.9657 86.7938Z" fill="#007AAA"/>
<path d="M121.781 54.8719C122.456 54.8719 122.653 55.35 122.653 55.8563C122.653 56.5594 122.625 57.375 121.669 57.5156C121.022 57.6 120.825 57.1219 120.769 56.5594C120.712 55.7719 120.994 55.1813 121.781 54.8719Z" fill="#007AAA"/>
<path d="M89.0718 93.4875C88.3125 93.4875 87.4968 93.375 87.4406 92.6157C87.3843 91.8282 88.2562 91.8563 88.8468 91.8282C89.4093 91.8282 90.1968 91.575 90.2812 92.5032C90.3656 93.4032 89.6343 93.4032 89.0718 93.4875Z" fill="#007AAA"/>
<path d="M114.216 82.8C114.131 83.475 113.569 83.9531 112.725 84.0375C112.275 84.0937 111.966 83.6719 112.05 83.2781C112.219 82.4906 112.613 81.7875 113.513 81.675C114.131 81.6188 114.272 82.0688 114.216 82.8Z" fill="#007AAA"/>
<path d="M60.9189 118.856C60.9189 118.856 62.4658 116.662 63.5064 118.856C63.5064 118.856 65.4189 117.169 66.3471 119.222C66.3471 119.222 68.2033 117 69.9752 119.25C69.9752 119.25 65.5033 121.866 60.9189 118.856Z" fill="#007AAA"/>
<path d="M85.1345 118.041C85.1345 118.041 87.6095 116.156 88.5376 118.378C88.5376 118.378 90.2251 116.156 91.2939 118.603C91.2939 118.603 92.3345 116.184 94.922 118.209C94.922 118.209 89.1001 121.725 85.1345 118.041Z" fill="#007AAA"/>
<path d="M126.169 49.3312C126.169 49.3312 133.285 90.7312 97.1439 104.962L96.4971 110.278C96.4971 110.278 116.269 103.612 124.031 84.1219C124.228 83.6437 124.397 83.1656 124.594 82.6875C125.888 79.6219 131.175 64.7719 126.169 49.3312Z" fill="#007AAA"/>
<path d="M23.8781 48.5719C23.8781 48.3469 23.9062 48.1781 23.9344 48.0938C23.9625 47.9813 23.9906 47.925 23.9906 47.8688C23.9906 47.5875 23.9906 47.3625 23.9906 47.1656C23.9906 46.9969 23.9906 46.8281 24.0188 46.7156C24.0188 46.6031 24.0469 46.4906 24.0469 46.4344C24.0469 46.3781 24.075 46.2656 24.075 46.1813C24.075 46.0969 24.075 46.0125 24.1031 45.9281C24.1031 45.8438 24.1031 45.7031 24.1031 45.5344C24.1031 44.9438 24.075 44.3531 24.0469 43.7625C24.0188 43.1719 23.9625 42.5531 23.9344 41.9625C23.8781 41.3438 23.85 40.725 23.8219 40.1063C23.7937 39.4875 23.7656 38.8688 23.7656 38.2219C23.7656 37.6875 23.7656 37.2656 23.7937 36.9C23.7937 36.5344 23.8219 36.2531 23.8781 36.0563C23.9344 35.8313 24.0188 35.6906 24.1313 35.6063C24.2438 35.5219 24.3844 35.4656 24.6094 35.4656C24.75 35.4656 24.8625 35.4938 25.0031 35.55C25.1438 35.6063 25.2281 35.6906 25.3406 35.8031C25.425 35.9156 25.5094 36.0281 25.5656 36.1688C25.6219 36.3094 25.65 36.45 25.65 36.5906C25.65 36.8438 25.65 37.125 25.6219 37.4063C25.6219 37.6875 25.5938 37.9406 25.5938 38.1938C25.5938 38.8969 25.5938 39.6281 25.6219 40.3313C25.65 41.0344 25.6781 41.7656 25.7063 42.4969C25.7344 43.2281 25.7625 43.9594 25.7906 44.7188C25.8187 45.4781 25.8469 46.2375 25.8469 47.025C25.8469 47.1375 25.8469 47.1938 25.875 47.2219C25.9031 47.25 25.9594 47.25 26.1 47.25C26.2688 47.25 26.5219 47.2781 26.8313 47.2781C27.1406 47.2781 27.5063 47.3063 27.9281 47.3063C28.35 47.3063 28.8281 47.3344 29.3344 47.3344C29.8688 47.3344 30.4313 47.3625 31.0219 47.3625C31.275 47.3625 31.5281 47.3344 31.7813 47.2781C32.0344 47.2219 32.3156 47.1938 32.5688 47.1938C32.7094 47.1938 32.8219 47.2219 32.9344 47.2781C33.0469 47.3344 33.1594 47.4188 33.2438 47.5031C33.3281 47.5875 33.4125 47.7 33.4406 47.8406C33.4969 47.9531 33.525 48.0938 33.525 48.2344C33.525 48.3469 33.4969 48.4875 33.4125 48.6C33.3563 48.7406 33.2719 48.8531 33.1594 48.9375C33.0469 49.05 32.9344 49.1344 32.7938 49.1906C32.6531 49.2469 32.5406 49.3031 32.4 49.3031C32.2031 49.3031 32.0344 49.275 31.8938 49.2469C31.7531 49.2188 31.6125 49.1906 31.4438 49.1344C31.275 49.1062 31.1063 49.05 30.9094 49.0219C30.7125 48.9938 30.4875 48.9656 30.2063 48.9656C29.5313 48.9656 28.8563 48.9938 28.1813 49.0781C27.5062 49.1344 26.8313 49.1906 26.1563 49.1906C25.9313 49.1906 25.7062 49.1625 25.4812 49.1344C25.2562 49.0781 25.0312 49.0781 24.7781 49.0781C24.75 49.0781 24.6656 49.0781 24.5813 49.1063C24.4969 49.1063 24.3844 49.1344 24.3 49.1344C24.1594 49.1344 24.075 49.1062 23.9625 49.05C23.9062 48.9375 23.8781 48.7969 23.8781 48.5719Z" fill="#8DB600"/>
<path d="M37.4626 36.0281C37.3501 36.0281 37.1813 36 36.9845 35.9438C36.7876 35.8875 36.5626 35.8031 36.3657 35.6906C36.1688 35.5781 35.972 35.4375 35.8313 35.2688C35.6907 35.1 35.6063 34.9031 35.6063 34.65C35.6063 34.5375 35.6344 34.425 35.6626 34.3125C35.7188 34.2 35.7751 34.0875 35.8594 33.975C35.9438 33.8625 36.0563 33.8063 36.1688 33.7219C36.2813 33.6656 36.422 33.6375 36.5626 33.6375C36.7032 33.6375 36.8438 33.6938 37.0407 33.7781C37.2376 33.8906 37.4063 34.0031 37.5751 34.1719C37.7438 34.3406 37.9126 34.5094 38.0251 34.7063C38.1657 34.9031 38.222 35.0719 38.222 35.2688C38.222 35.325 38.1938 35.3813 38.1657 35.4656C38.1376 35.55 38.0813 35.6344 38.0251 35.7188C37.9688 35.8031 37.8845 35.8875 37.772 35.9438C37.7157 36 37.6032 36.0281 37.4626 36.0281ZM36.0845 48.4594C36.0845 48.4031 36.0563 48.2906 36.0282 48.15C36.0001 48.0094 36.0001 47.7563 35.972 47.3906C35.9438 47.025 35.9438 46.5469 35.9438 45.9563C35.9438 45.3656 35.9157 44.5781 35.9157 43.6219C35.9157 42.8625 35.9719 42.1031 36.0563 41.3156C36.1407 40.5281 36.2532 39.7969 36.3938 39.0938C36.3938 39.0375 36.422 38.9531 36.4782 38.8406C36.5345 38.7281 36.5907 38.6438 36.647 38.5313C36.7313 38.4188 36.8157 38.3344 36.9282 38.25C37.0407 38.1656 37.1532 38.1375 37.2938 38.1375C37.4345 38.1375 37.547 38.1656 37.6595 38.2219C37.7438 38.2781 37.8282 38.3344 37.8845 38.4188C37.9407 38.5031 37.9688 38.6156 37.997 38.7281C38.0251 38.8406 38.0251 38.9531 38.0251 39.0938C38.0251 39.4594 38.0251 39.825 37.997 40.2469C37.9688 40.6688 37.9407 41.0906 37.9126 41.5406C37.8845 41.9906 37.8563 42.4125 37.8282 42.8344C37.8001 43.2563 37.8001 43.6219 37.8001 43.9875C37.8001 44.2969 37.8282 44.6344 37.8563 45C37.9126 45.3938 37.9407 45.7594 37.997 46.1813C38.0532 46.575 38.1095 46.9688 38.1376 47.3625C38.1938 47.7563 38.1938 48.0938 38.1938 48.4031C38.1938 48.7406 38.1095 48.9938 37.9407 49.1625C37.772 49.3313 37.5751 49.4156 37.3782 49.4156C36.9845 49.4156 36.6751 49.3313 36.4782 49.1906C36.2813 49.0781 36.1688 48.825 36.0845 48.4594Z" fill="#8DB600"/>
<path d="M47.2781 49.3031C46.6312 49.3031 46.0687 49.1625 45.6468 48.9094C45.2249 48.6562 44.8593 48.2906 44.6062 47.8406C44.3531 47.3906 44.1281 46.8844 44.0156 46.3219C43.8749 45.7594 43.7906 45.1687 43.7343 44.55C43.6781 43.9312 43.6499 43.3125 43.6499 42.6937C43.6499 42.075 43.6218 41.5125 43.6218 41.0062C43.4531 41.0062 43.2843 41.0062 43.1437 41.0062C43.0031 41.0062 42.8624 41.0062 42.7218 41.0062C42.6374 41.0062 42.5812 41.0062 42.4968 41.0344C42.4406 41.0344 42.3562 41.0344 42.2718 41.0344C42.1874 41.0344 42.1031 41.0344 42.0187 41.0344C41.9343 41.0344 41.7937 41.0344 41.6531 41.0344C41.5687 41.0344 41.4562 41.0062 41.3437 40.9781C41.2031 40.95 41.0906 40.8937 40.9499 40.8094C40.8093 40.725 40.6968 40.6406 40.6124 40.5281C40.5281 40.4156 40.4718 40.3031 40.4718 40.1625C40.4718 40.0219 40.4999 39.8812 40.5562 39.7687C40.6124 39.6562 40.6968 39.5437 40.8093 39.4594C40.9218 39.375 41.0343 39.3187 41.1749 39.2625C41.3156 39.2062 41.4562 39.2062 41.6249 39.2062L43.7343 39.2625C43.7624 39.0937 43.7624 38.925 43.7906 38.7562C43.8187 38.5875 43.8187 38.4187 43.8468 38.2781C43.8749 38.0812 43.8749 37.9125 43.8749 37.7437C43.8749 37.575 43.9031 37.4062 43.9031 37.2656C43.9031 37.0969 43.9312 36.9562 43.9593 36.7875C43.9874 36.6187 44.0156 36.4781 44.0437 36.2812C44.0718 36.1687 44.0999 36.0562 44.1843 35.9437C44.2687 35.8312 44.3531 35.7469 44.4374 35.6625C44.5218 35.5781 44.6343 35.4937 44.7468 35.4656C44.8593 35.4093 44.9718 35.3812 45.0562 35.3812C45.1406 35.3812 45.2249 35.4093 45.3093 35.4375C45.3937 35.4656 45.4781 35.55 45.5624 35.6062C45.6468 35.6906 45.7031 35.775 45.7593 35.8875C45.8156 36 45.8437 36.1125 45.8437 36.225C45.8437 36.4781 45.8437 36.7031 45.8437 36.9C45.8437 37.0687 45.8437 37.2375 45.8156 37.35C45.8156 37.4906 45.7874 37.575 45.7874 37.6875C45.7874 37.7719 45.7593 37.8844 45.7593 37.9687C45.7593 38.0531 45.7312 38.1094 45.7312 38.1937C45.7312 38.2781 45.7031 38.3625 45.7031 38.475C45.7031 38.5875 45.6749 38.7 45.6749 38.8406C45.6749 38.9812 45.6468 39.15 45.6187 39.3187C46.0124 39.3187 46.3499 39.2906 46.7156 39.2906C47.0531 39.2906 47.3906 39.2625 47.7281 39.2625C48.0656 39.2625 48.4031 39.2344 48.7406 39.2344C49.0781 39.2344 49.4437 39.2344 49.8374 39.2344C49.9781 39.2344 50.0906 39.2625 50.2031 39.3469C50.3156 39.4031 50.3999 39.5156 50.4562 39.6C50.5124 39.7125 50.5687 39.7969 50.6249 39.9094C50.6531 40.0219 50.6812 40.1062 50.6812 40.1906C50.6812 40.3312 50.653 40.4437 50.5968 40.5562C50.5405 40.6687 50.4562 40.7531 50.3718 40.8375C50.2874 40.9219 50.1749 40.9781 50.0906 41.0062C49.9781 41.0344 49.8937 41.0625 49.8093 41.0625L45.7031 41.0062C45.6749 41.0344 45.6749 41.0625 45.6749 41.0906C45.6749 41.4562 45.6749 41.85 45.6468 42.3C45.6468 42.75 45.6187 43.2281 45.6468 43.7062C45.6468 44.1844 45.6749 44.6344 45.7312 45.1125C45.7874 45.5625 45.8718 45.9844 45.9843 46.3219C46.0968 46.6875 46.2656 46.9687 46.4906 47.1937C46.7156 47.4187 46.9968 47.5312 47.3343 47.5312C47.4468 47.5312 47.5874 47.5031 47.7281 47.475C47.8968 47.4187 48.0374 47.3906 48.2062 47.3062C48.3468 47.25 48.5155 47.1656 48.628 47.1094C48.7687 47.025 48.8531 46.9687 48.9374 46.9125C49.0218 46.8562 49.1062 46.7719 49.2187 46.7437C49.3312 46.6875 49.4437 46.6594 49.5281 46.6594C49.7812 46.6594 49.9499 46.7156 50.0062 46.8562C50.0624 46.9687 50.1187 47.1375 50.1187 47.3625C50.1187 47.4469 50.0906 47.5312 50.0624 47.6156C50.0343 47.7281 49.9781 47.8125 49.9218 47.8687C49.7812 48.0375 49.6406 48.2062 49.4156 48.375C49.2187 48.5437 48.9937 48.7125 48.7687 48.8531C48.5437 48.9937 48.2906 49.1062 48.0656 49.2187C47.6999 49.275 47.4749 49.3031 47.2781 49.3031Z" fill="#8DB600"/>
<path d="M58.9219 49.3031C58.275 49.3031 57.7125 49.1625 57.2906 48.9094C56.8687 48.6562 56.5031 48.2906 56.25 47.8406C55.9969 47.3906 55.7719 46.8844 55.6594 46.3219C55.5187 45.7594 55.4344 45.1687 55.3781 44.55C55.3219 43.9312 55.2937 43.3125 55.2937 42.6937C55.2937 42.075 55.2656 41.5125 55.2656 41.0062C55.0969 41.0062 54.9281 41.0062 54.7875 41.0062C54.6469 41.0062 54.5062 41.0062 54.3656 41.0062C54.2812 41.0062 54.225 41.0062 54.1406 41.0344C54.0844 41.0344 54 41.0344 53.9156 41.0344C53.8312 41.0344 53.7469 41.0344 53.6625 41.0344C53.5781 41.0344 53.4375 41.0344 53.2969 41.0344C53.2125 41.0344 53.1 41.0062 52.9875 40.9781C52.8468 40.95 52.7344 40.8937 52.5937 40.8094C52.4531 40.725 52.3406 40.6406 52.2562 40.5281C52.1719 40.4156 52.1156 40.3031 52.1156 40.1625C52.1156 40.0219 52.1437 39.8812 52.2 39.7687C52.2562 39.6562 52.3406 39.5437 52.4531 39.4594C52.5656 39.375 52.6781 39.3187 52.8187 39.2625C52.9594 39.2062 53.1 39.2062 53.2687 39.2062L55.3781 39.2625C55.4062 39.0937 55.4062 38.925 55.4344 38.7562C55.4625 38.5875 55.4625 38.4187 55.4906 38.2781C55.5187 38.0812 55.5187 37.9125 55.5187 37.7437C55.5187 37.575 55.5469 37.4062 55.5469 37.2656C55.5469 37.0969 55.575 36.9562 55.6031 36.7875C55.6312 36.6187 55.6594 36.4781 55.6875 36.2812C55.7156 36.1687 55.7437 36.0562 55.8281 35.9437C55.9125 35.8312 55.9969 35.7469 56.0812 35.6625C56.1656 35.5781 56.2781 35.4937 56.3906 35.4656C56.5031 35.4093 56.6156 35.3812 56.7 35.3812C56.7844 35.3812 56.8687 35.4093 56.9531 35.4375C57.0375 35.4656 57.1219 35.55 57.2062 35.6062C57.2906 35.6906 57.3469 35.775 57.4031 35.8875C57.4594 36 57.4875 36.1125 57.4875 36.225C57.4875 36.4781 57.4875 36.7031 57.4875 36.9C57.4875 37.0687 57.4875 37.2375 57.4594 37.35C57.4594 37.4906 57.4312 37.575 57.4312 37.6875C57.4312 37.7719 57.4031 37.8844 57.4031 37.9687C57.4031 38.0531 57.375 38.1094 57.375 38.1937C57.375 38.2781 57.3469 38.3625 57.3469 38.475C57.3469 38.5875 57.3187 38.7 57.3187 38.8406C57.3187 38.9812 57.2906 39.15 57.2625 39.3187C57.6562 39.3187 57.9937 39.2906 58.3594 39.2906C58.6969 39.2906 59.0344 39.2625 59.3719 39.2625C59.7094 39.2625 60.0469 39.2344 60.3844 39.2344C60.7219 39.2344 61.0875 39.2344 61.4812 39.2344C61.6219 39.2344 61.7344 39.2625 61.8469 39.3469C61.9594 39.4031 62.0437 39.5156 62.1 39.6C62.1562 39.7125 62.2125 39.7969 62.2687 39.9094C62.2969 40.0219 62.325 40.1062 62.325 40.1906C62.325 40.3312 62.2969 40.4437 62.2406 40.5562C62.1844 40.6687 62.1 40.7531 62.0156 40.8375C61.9312 40.9219 61.8187 40.9781 61.7344 41.0062C61.6219 41.0344 61.5375 41.0625 61.4531 41.0625L57.3469 41.0062C57.3187 41.0344 57.3187 41.0625 57.3187 41.0906C57.3187 41.4562 57.3187 41.85 57.2906 42.3C57.2906 42.75 57.2625 43.2281 57.2906 43.7062C57.2906 44.1844 57.3187 44.6344 57.375 45.1125C57.4312 45.5625 57.5156 45.9844 57.6281 46.3219C57.7406 46.6875 57.9094 46.9687 58.1344 47.1937C58.3594 47.4187 58.6406 47.5312 58.9781 47.5312C59.0906 47.5312 59.2312 47.5031 59.3719 47.475C59.5406 47.4187 59.6812 47.3906 59.85 47.3062C59.9906 47.25 60.1594 47.1656 60.2719 47.1094C60.4125 47.025 60.4969 46.9687 60.5812 46.9125C60.6656 46.8562 60.75 46.7719 60.8625 46.7437C60.975 46.6875 61.0875 46.6594 61.1719 46.6594C61.425 46.6594 61.5937 46.7156 61.65 46.8562C61.7062 46.9687 61.7625 47.1375 61.7625 47.3625C61.7625 47.4469 61.7344 47.5312 61.7062 47.6156C61.6781 47.7281 61.6219 47.8125 61.5656 47.8687C61.425 48.0375 61.2844 48.2062 61.0594 48.375C60.8625 48.5437 60.6375 48.7125 60.4125 48.8531C60.1875 48.9937 59.9344 49.1062 59.7094 49.2187C59.3437 49.275 59.1187 49.3031 58.9219 49.3031Z" fill="#8DB600"/>
<path d="M65.4188 47.3906C65.3907 47.25 65.3625 47.0813 65.3625 46.8844C65.3625 46.7156 65.3625 46.5188 65.3625 46.35C65.3625 45.9 65.3625 45.45 65.3344 45.0281C65.3063 44.5781 65.3063 44.1563 65.2782 43.7344C65.25 43.3125 65.2219 42.8625 65.2219 42.4125C65.1938 41.9625 65.1938 41.5125 65.2219 41.0625L65.3063 35.8313C65.3063 35.3813 65.3625 35.0438 65.5031 34.7625C65.6438 34.4813 65.8688 34.3406 66.2344 34.3406C66.375 34.3406 66.4875 34.3688 66.5719 34.425C66.6844 34.4813 66.7688 34.5375 66.825 34.6219C66.9094 34.7063 66.9657 34.7906 66.9938 34.9031C67.0219 35.0156 67.05 35.1 67.05 35.1844V42.525C67.05 43.2563 67.0782 43.9875 67.1063 44.7188C67.1344 45.45 67.2188 46.1813 67.3594 46.9406C67.3875 47.0531 67.4157 47.1656 67.4438 47.2219C67.5 47.3063 67.5282 47.3625 67.5844 47.3906C67.6407 47.4469 67.6969 47.475 67.7813 47.475C67.8375 47.475 67.9219 47.5031 67.9782 47.5031C68.0907 47.5031 68.175 47.475 68.2313 47.4469C68.2875 47.3906 68.3438 47.3625 68.3719 47.3344C68.4 47.2781 68.4563 47.25 68.4844 47.1938C68.5407 47.1375 68.5688 47.1094 68.625 47.0813C68.6813 47.0531 68.7375 47.025 68.8219 46.9969C68.9063 46.9688 68.9907 46.9688 69.1032 46.9688C69.2157 46.9688 69.3282 46.9969 69.4125 47.0531C69.4969 47.1094 69.5813 47.1656 69.6375 47.25C69.6938 47.3344 69.75 47.4188 69.7782 47.5313C69.8063 47.6438 69.8344 47.7281 69.8344 47.8406C69.8344 48.0375 69.7782 48.2344 69.6375 48.4031C69.525 48.5719 69.3563 48.7125 69.1594 48.825C68.9625 48.9375 68.7657 49.05 68.5407 49.1063C68.3157 49.1625 68.1188 49.2188 67.9219 49.2188C67.2188 49.2188 66.6563 49.0781 66.2344 48.7688C65.8407 48.4594 65.5594 48.0094 65.4188 47.3906Z" fill="#8DB600"/>
<path d="M71.325 44.4094C71.325 43.4532 71.4656 42.6094 71.7468 41.85C72.0281 41.0907 72.4218 40.4157 72.9562 39.8813C73.4906 39.3469 74.1375 38.925 74.925 38.6438C75.7125 38.3625 76.5843 38.1938 77.625 38.1938C77.9625 38.1938 78.3281 38.2219 78.6937 38.3063C79.0593 38.3907 79.3968 38.475 79.7625 38.6157C80.1281 38.7563 80.4375 38.925 80.7187 39.15C81.0281 39.3469 81.2812 39.6 81.5062 39.8532C81.7312 40.1344 81.9 40.4157 82.0406 40.7532C82.1812 41.0907 82.2375 41.4282 82.2375 41.8219C82.2375 42.1313 82.1812 42.3282 82.0406 42.4688C81.9 42.6094 81.7312 42.6938 81.5062 42.75C81.3093 42.8063 81.0843 42.8625 80.8312 42.8907C80.5781 42.9469 80.2968 43.0032 79.9593 43.1157L73.2656 45.1969C73.35 45.5907 73.4906 45.9563 73.6875 46.2375C73.8843 46.5188 74.1093 46.7719 74.3906 46.9688C74.6437 47.1657 74.9531 47.3063 75.2625 47.4188C75.5718 47.5313 75.8812 47.6157 76.1906 47.6719C76.5 47.7282 76.8093 47.7563 77.1187 47.7844C77.4281 47.8125 77.6812 47.8125 77.9343 47.8125C78.3281 47.8125 78.6937 47.7563 79.0593 47.6719C79.425 47.5875 79.7625 47.475 80.1 47.3907C80.4093 47.2782 80.6906 47.1938 80.9156 47.1094C81.1406 47.025 81.3375 46.9688 81.4218 46.9688C81.7875 46.9688 82.0406 47.0532 82.2093 47.2219C82.3781 47.3907 82.4625 47.6438 82.4625 47.9813C82.4625 48.2063 82.35 48.4032 82.125 48.5438C81.9 48.7125 81.6187 48.825 81.2531 48.9375C80.8875 49.05 80.4937 49.1344 80.0718 49.1907C79.65 49.2469 79.2281 49.3032 78.8062 49.3313C78.3843 49.3594 78.0187 49.3875 77.6812 49.3875C77.3437 49.3875 77.0906 49.4157 76.9218 49.4157C76.4718 49.4157 75.9937 49.3594 75.5437 49.2469C75.0937 49.1344 74.6437 48.9657 74.25 48.7407C73.8281 48.5157 73.4625 48.2625 73.0968 47.9532C72.7593 47.6438 72.45 47.3063 72.1968 46.9407C71.9437 46.575 71.7468 46.1813 71.6062 45.7313C71.4093 45.3375 71.325 44.8875 71.325 44.4094ZM73.2093 43.6219C73.5187 43.5375 73.8843 43.425 74.2781 43.3125C74.6718 43.2 75.1218 43.0594 75.5718 42.9188C76.0218 42.7782 76.4718 42.6375 76.95 42.4969C77.4 42.3563 77.85 42.2157 78.3 42.075C78.75 41.9344 79.1156 41.7938 79.4812 41.6532C79.8468 41.5125 80.1562 41.4 80.4093 41.2875C80.325 41.0344 80.2125 40.8094 80.0437 40.6407C79.875 40.4438 79.65 40.3032 79.3968 40.1907C79.1437 40.0782 78.8343 39.9938 78.4687 39.9375C78.1312 39.8813 77.7375 39.8532 77.3156 39.8532C77.1187 39.8532 76.8937 39.8813 76.6406 39.9375C76.3875 39.9938 76.1062 40.0782 75.825 40.1907C75.5437 40.3032 75.2625 40.4719 74.9531 40.6688C74.6718 40.8657 74.3906 41.0907 74.1656 41.3719C73.9125 41.6532 73.7156 41.9907 73.5468 42.3563C73.3781 42.7219 73.2656 43.1438 73.2093 43.6219Z" fill="#8DB600"/>
<path d="M24.8906 79.7907C24.3 79.7907 23.8219 79.5938 23.4563 79.1719C23.1188 78.8063 22.8656 78.3282 22.6687 77.7938C22.5 77.2594 22.3875 76.6969 22.3031 76.1063C22.2469 75.5157 22.2188 74.9532 22.2188 74.4469L22.3313 56.025C22.3313 55.2375 22.4719 54.5906 22.725 54.1125C22.9781 53.6063 23.3156 53.2125 23.7094 52.9313C24.1031 52.65 24.525 52.4813 25.0031 52.3688C25.4531 52.2844 25.9031 52.2281 26.3531 52.2281H30.1781C31.3031 52.2281 32.5125 52.3688 33.7781 52.65C35.0437 52.9313 36.3094 53.3532 37.5469 53.8875C38.7844 54.4219 39.9938 55.125 41.1469 55.9125C42.3 56.7282 43.3125 57.6563 44.1844 58.725C45.0563 59.7938 45.7875 60.975 46.2938 62.2688C46.8281 63.5625 47.0812 64.9969 47.0812 66.5438C47.0812 68.1469 46.8281 69.6094 46.3219 70.875C45.8156 72.1407 45.1406 73.2657 44.2969 74.2219C43.4531 75.1782 42.4688 75.9938 41.3438 76.6407C40.2469 77.2875 39.0656 77.85 37.8563 78.2438C36.6469 78.6657 35.4375 78.9469 34.2 79.1438C32.9625 79.3125 31.8094 79.425 30.7125 79.425C30.4312 79.425 30.0937 79.425 29.7 79.425C29.3062 79.425 28.8844 79.3969 28.4906 79.3969C28.0688 79.3688 27.675 79.3407 27.2812 79.3125C26.9437 79.2844 26.6344 79.2282 26.3813 79.2C26.1563 79.3407 25.9031 79.4532 25.65 79.5657C25.3125 79.7344 25.0875 79.7907 24.8906 79.7907ZM27 75.2625C27.0844 75.2907 27.225 75.3188 27.3656 75.3469C27.5344 75.375 27.7031 75.4032 27.9 75.4032C28.0969 75.4313 28.2938 75.4313 28.4906 75.4313H31.6125C32.3438 75.4313 33.1313 75.3469 34.0031 75.1782C34.8469 75.0094 35.7188 74.7563 36.5625 74.4469C37.4062 74.1375 38.2219 73.7157 39.0094 73.2375C39.7687 72.7594 40.4719 72.225 41.0625 71.6344C41.6531 71.0438 42.1313 70.3688 42.4688 69.6375C42.8062 68.9344 43.0031 68.1469 43.0031 67.3032C43.0031 66.2625 42.8344 65.25 42.4969 64.2938C42.1594 63.3375 41.6813 62.4375 41.0906 61.5938C40.5 60.75 39.7969 59.9907 39.0094 59.3157C38.2219 58.6407 37.35 58.05 36.45 57.5438C35.55 57.0657 34.5938 56.6719 33.6375 56.4188C32.6812 56.1657 31.725 56.025 30.7969 56.025C30.5437 56.025 30.1781 56.025 29.7563 56.025C29.3063 56.025 28.8844 56.0532 28.4344 56.0813C27.9844 56.1094 27.5906 56.1375 27.225 56.1657C26.9438 56.1938 26.8031 56.2219 26.7188 56.25C26.6344 56.6438 26.5781 57.0657 26.5219 57.4313C26.4656 57.8532 26.4375 58.3032 26.4375 58.7532C26.4094 59.2032 26.4094 59.6532 26.4094 60.1032V61.5938C26.4094 62.1282 26.4094 62.775 26.4094 63.4782C26.4094 64.2094 26.4375 64.9688 26.4375 65.7844C26.4375 66.5719 26.4656 67.4438 26.4937 68.2875C26.5219 69.1594 26.55 70.0032 26.6062 70.8469C26.6344 71.6907 26.6906 72.5063 26.7469 73.2375C26.8031 73.9407 26.8594 74.5875 26.9438 75.15C26.9438 75.2344 26.9719 75.2625 27 75.2625Z" fill="#F9648B"/>
<path d="M30.1781 52.5656C31.3031 52.5656 32.4844 52.7062 33.7219 52.9875C34.9594 53.2687 36.225 53.6625 37.4344 54.225C38.6719 54.7594 39.8531 55.4344 40.9781 56.2219C42.1031 57.0094 43.0875 57.9375 43.9594 58.9781C44.8313 60.0187 45.5063 61.1719 46.0125 62.4375C46.5188 63.7031 46.7719 65.1094 46.7719 66.6C46.7719 68.175 46.5187 69.5812 46.0406 70.8187C45.5625 72.0562 44.8875 73.1531 44.0719 74.0812C43.2562 75.0094 42.2719 75.7969 41.2031 76.4719C40.1063 77.1187 38.9813 77.6531 37.7719 78.075C36.5906 78.4687 35.3813 78.7781 34.1719 78.9469C32.9625 79.1156 31.8094 79.2281 30.7125 79.2281C30.4312 79.2281 30.0938 79.2281 29.7 79.2281C29.3062 79.2281 28.9125 79.2 28.4906 79.2C28.0688 79.1719 27.675 79.1437 27.3094 79.1156C26.9156 79.0875 26.6062 79.0312 26.325 78.975C26.0719 79.1156 25.8188 79.2562 25.5375 79.3687C25.2563 79.4812 25.0594 79.5375 24.9187 79.5375C24.4125 79.5375 24.0188 79.3687 23.7094 79.0312C23.4 78.6937 23.1469 78.2719 22.9781 77.7656C22.8094 77.2594 22.6969 76.725 22.6406 76.1344C22.5844 75.5437 22.5562 75.0094 22.5562 74.5031L22.6687 56.0812C22.6687 55.35 22.7813 54.7594 23.0063 54.2812C23.2313 53.8031 23.5406 53.4656 23.8781 53.2125C24.2438 52.9594 24.6375 52.7906 25.0594 52.7062C25.4812 52.6219 25.9312 52.5937 26.3531 52.5937H30.1781V52.5656ZM28.4906 75.7125H31.6125C32.3719 75.7125 33.1875 75.6281 34.0594 75.4594C34.9312 75.2906 35.8031 75.0375 36.675 74.7C37.5469 74.3625 38.3625 73.9687 39.1781 73.4906C39.9656 73.0125 40.6688 72.45 41.2875 71.8312C41.9062 71.2125 42.3844 70.5094 42.75 69.7781C43.1156 69.0187 43.3125 68.2031 43.3125 67.3312C43.3125 66.2625 43.1438 65.2219 42.7781 64.2375C42.4125 63.2531 41.9344 62.325 41.3438 61.4812C40.725 60.6375 40.0219 59.85 39.2062 59.1469C38.3906 58.4437 37.5188 57.8531 36.5906 57.3469C35.6625 56.8406 34.7063 56.475 33.7219 56.1937C32.7375 55.9125 31.7531 55.8 30.7969 55.8C30.5437 55.8 30.1781 55.8 29.7563 55.8C29.3063 55.8 28.8844 55.8281 28.4344 55.8562C27.9844 55.8844 27.5906 55.9125 27.225 55.9406C26.8594 55.9687 26.6344 56.025 26.4937 56.1094C26.3812 56.5875 26.325 57.0375 26.2688 57.4594C26.2125 57.9094 26.1844 58.3312 26.1844 58.7812C26.1562 59.2312 26.1562 59.6812 26.1562 60.1594C26.1562 60.6375 26.1562 61.1156 26.1562 61.65C26.1562 62.1844 26.1562 62.8312 26.1562 63.5344C26.1562 64.2656 26.1844 65.025 26.1844 65.8406C26.1844 66.6562 26.2125 67.5 26.2406 68.3719C26.2688 69.2437 26.2969 70.0875 26.3531 70.9312C26.3812 71.775 26.4375 72.5625 26.5219 73.35C26.5781 74.1094 26.6625 74.8125 26.7469 75.4031C26.775 75.4312 26.8594 75.4875 26.9719 75.5156C27.0844 75.5719 27.225 75.6 27.3938 75.6281C27.5625 75.6562 27.7594 75.6844 27.9563 75.6844C28.0688 75.7125 28.2656 75.7125 28.4906 75.7125ZM30.1781 52.0031H26.3531C25.9031 52.0031 25.425 52.0594 24.9469 52.1437C24.4406 52.2562 23.9625 52.4531 23.5406 52.7344C23.1187 53.0437 22.7531 53.4656 22.4719 54C22.1906 54.5344 22.05 55.2375 22.05 56.0531L21.9375 74.475C21.9375 74.9812 21.9656 75.5437 22.0219 76.1625C22.0781 76.7812 22.2187 77.3719 22.3875 77.9344C22.5844 78.4969 22.8656 79.0031 23.2312 79.3968C23.6531 79.8468 24.2156 80.1 24.8625 80.1C25.0875 80.1 25.3406 80.0437 25.7063 79.875C25.9313 79.7906 26.1563 79.6781 26.3813 79.5656C26.6344 79.5937 26.8875 79.65 27.1969 79.6781C27.5906 79.7062 28.0125 79.7344 28.4344 79.7625C28.8562 79.7906 29.25 79.7906 29.6719 79.7906C30.0656 79.7906 30.4031 79.7906 30.7125 79.7906C31.8094 79.7906 33.0188 79.7062 34.2563 79.5094C35.4938 79.3125 36.7594 79.0312 37.9688 78.6094C39.1781 78.1875 40.3875 77.6531 41.5125 76.9781C42.6375 76.3031 43.65 75.4594 44.5219 74.5031C45.3938 73.5187 46.0969 72.3656 46.6031 71.0719C47.1094 69.7781 47.3906 68.2875 47.3906 66.6281C47.3906 65.0531 47.1094 63.5906 46.575 62.2687C46.0406 60.9469 45.3094 59.7375 44.4094 58.6406C43.5094 57.5719 42.4687 56.6156 41.3156 55.7719C40.1625 54.9562 38.9531 54.2531 37.6875 53.7187C36.4219 53.1562 35.1281 52.7344 33.8625 52.4531C32.5406 52.1437 31.3313 52.0031 30.1781 52.0031ZM26.9156 56.5312C27 56.5312 27.0844 56.5031 27.1969 56.5031C27.5344 56.475 27.9281 56.4469 28.3781 56.4187C28.8 56.3906 29.25 56.3906 29.6719 56.3625C30.0938 56.3625 30.4594 56.3625 30.7125 56.3625C31.6125 56.3625 32.5406 56.5031 33.4969 56.7562C34.4531 57.0094 35.3812 57.375 36.2531 57.8531C37.1531 58.3312 37.9969 58.9219 38.7844 59.5687C39.5719 60.2437 40.2469 60.975 40.8375 61.7906C41.4 62.6062 41.8781 63.4781 42.2156 64.4062C42.5531 65.3344 42.7219 66.3187 42.7219 67.3031C42.7219 68.0906 42.5531 68.8219 42.2156 69.525C41.8781 70.2281 41.4281 70.875 40.8656 71.4375C40.3031 72.0281 39.6281 72.5625 38.8687 73.0125C38.1094 73.4906 37.2937 73.8844 36.4781 74.1937C35.6344 74.5031 34.7906 74.7562 33.975 74.925C33.1313 75.0937 32.3438 75.1781 31.6406 75.1781H28.5188C28.3219 75.1781 28.1531 75.1781 27.9563 75.15C27.7594 75.1219 27.5906 75.1219 27.45 75.0937C27.3656 75.0937 27.2813 75.0656 27.225 75.0375C27.1688 74.5031 27.1125 73.9406 27.0562 73.2937C27 72.5344 26.9437 71.7469 26.9156 70.9031C26.8875 70.0312 26.8313 69.1875 26.8031 68.3437C26.775 67.4719 26.7469 66.6281 26.7469 65.8406C26.7469 65.025 26.7188 64.2656 26.7188 63.5344C26.7188 62.8312 26.7188 62.1844 26.7188 61.65V60.1594C26.7188 59.7094 26.7187 59.2594 26.7469 58.8094C26.775 58.3875 26.8031 57.9375 26.8313 57.5156C26.8031 57.2062 26.8312 56.8687 26.9156 56.5312Z" fill="white"/>
<path d="M56.3344 79.875C55.4907 79.875 54.8719 79.7344 54.4219 79.3969C53.9719 79.0875 53.6626 78.525 53.5219 77.7656C53.4938 77.6531 53.4657 77.4562 53.4376 77.1469C53.4094 76.8375 53.3813 76.3312 53.3251 75.6562C53.2969 74.9813 53.2688 74.025 53.2407 72.8719C53.2126 71.7188 53.2126 70.1719 53.2126 68.3438C53.2126 66.8813 53.2969 65.3906 53.4657 63.8719C53.6344 62.3531 53.8594 60.8906 54.1126 59.5406C54.1126 59.4281 54.1688 59.2313 54.2813 59.0063C54.3657 58.7813 54.5063 58.5562 54.6751 58.3594C54.8438 58.1344 55.0407 57.9375 55.2657 57.7687C55.5188 57.5719 55.8282 57.4875 56.1376 57.4875C56.4751 57.4875 56.7563 57.5437 56.9813 57.6562C57.2063 57.7688 57.3751 57.9656 57.5157 58.1625C57.6282 58.3594 57.7126 58.5844 57.7407 58.8656C57.7688 59.1188 57.7969 59.3719 57.7969 59.625C57.7969 60.3 57.7688 61.0875 57.7126 61.9031C57.6563 62.7188 57.6001 63.5625 57.5438 64.4062C57.4876 65.25 57.4313 66.0937 57.3751 66.9094C57.3188 67.6969 57.3188 68.4562 57.3188 69.1031C57.3188 69.6656 57.3469 70.3406 57.4313 71.0438C57.5157 71.775 57.6001 72.5344 57.7126 73.2938C57.8251 74.0813 57.9094 74.8406 57.9938 75.5719C58.0782 76.3313 58.1344 77.0063 58.1344 77.625C58.1344 78.3281 57.9376 78.8906 57.5719 79.2844C57.2626 79.6781 56.8126 79.875 56.3344 79.875ZM56.5032 53.9156C56.2501 53.9156 55.9126 53.8594 55.4907 53.7469C55.0688 53.6344 54.6469 53.4656 54.2251 53.2125C53.8032 52.9875 53.4376 52.6781 53.1282 52.3125C52.7907 51.9188 52.6219 51.4688 52.6219 50.9344C52.6219 50.6813 52.6782 50.4281 52.7907 50.1469C52.9032 49.8938 53.0438 49.6406 53.2126 49.4156C53.4094 49.1906 53.6344 49.0219 53.8876 48.8813C54.1688 48.7406 54.4782 48.6562 54.7876 48.6562C55.0688 48.6562 55.4344 48.7688 55.8282 48.9656C56.2219 49.1625 56.5876 49.4437 56.9532 49.7531C57.3188 50.0625 57.6282 50.4281 57.8813 50.8219C58.1626 51.2437 58.3032 51.6375 58.3032 52.0594C58.3032 52.1719 58.2751 52.3406 58.1907 52.5375C58.1344 52.7344 58.0219 52.9312 57.8813 53.1281C57.7407 53.325 57.5719 53.4937 57.3469 53.6344C57.0938 53.8312 56.8126 53.9156 56.5032 53.9156Z" fill="#F9648B"/>
<path d="M54.7594 48.9656C55.0125 48.9656 55.3219 49.05 55.6875 49.2469C56.0531 49.4438 56.4188 49.6969 56.7563 50.0063C57.0938 50.3156 57.375 50.6531 57.6281 51.0188C57.8812 51.3844 57.9937 51.75 57.9937 52.0875C57.9937 52.1719 57.9656 52.3125 57.9094 52.4813C57.8531 52.65 57.7687 52.8188 57.6281 52.9875C57.5156 53.1563 57.3469 53.2969 57.15 53.4375C56.9531 53.5781 56.7281 53.6344 56.475 53.6344C56.25 53.6344 55.9406 53.5781 55.5469 53.4656C55.1531 53.3531 54.7312 53.1844 54.3375 52.9594C53.9437 52.7344 53.6063 52.4531 53.2969 52.1156C53.0156 51.7781 52.8469 51.3844 52.8469 50.9344C52.8469 50.7094 52.9031 50.4844 52.9875 50.2594C53.0719 50.0344 53.2125 49.8094 53.3531 49.6125C53.5219 49.4156 53.7188 49.2469 53.9438 49.1344C54.225 49.0219 54.4781 48.9656 54.7594 48.9656ZM56.1656 57.7125C56.4469 57.7125 56.6719 57.7688 56.8687 57.8531C57.0375 57.9375 57.1781 58.0781 57.2906 58.2469C57.4031 58.4156 57.4594 58.6125 57.4875 58.8375C57.5156 59.0625 57.5438 59.2875 57.5438 59.5406C57.5438 60.2156 57.5156 60.975 57.4594 61.7906C57.4031 62.6063 57.3469 63.45 57.2906 64.2938C57.2344 65.1375 57.1781 65.9813 57.1219 66.7969C57.0656 67.6125 57.0656 68.3438 57.0656 69.0188C57.0656 69.6094 57.0938 70.2563 57.1781 70.9875C57.2625 71.7188 57.3469 72.4781 57.4594 73.2656C57.5719 74.0531 57.6563 74.8125 57.7406 75.5438C57.825 76.275 57.8531 76.95 57.8531 77.5688C57.8531 78.2156 57.6844 78.6938 57.375 79.0313C57.0375 79.3688 56.7 79.5375 56.2781 79.5375C55.4906 79.5375 54.9281 79.3969 54.5344 79.1156C54.1406 78.8344 53.8875 78.3563 53.7469 77.6531C53.7188 77.5406 53.6906 77.3438 53.6625 77.0625C53.6344 76.7531 53.6063 76.275 53.5781 75.6C53.55 74.925 53.5219 73.9969 53.4937 72.8156C53.4656 71.6344 53.4656 70.1438 53.4656 68.2875C53.4656 66.8531 53.55 65.3625 53.7188 63.8438C53.8875 62.325 54.1125 60.8906 54.3656 59.5406C54.3656 59.4281 54.4219 59.2594 54.5063 59.0625C54.5906 58.8656 54.7031 58.6688 54.8438 58.4719C54.9844 58.275 55.1812 58.1063 55.3781 57.9375C55.6594 57.7969 55.8844 57.7125 56.1656 57.7125ZM54.7594 48.4031C54.3937 48.4031 54.0281 48.4875 53.7188 48.6563C53.4094 48.825 53.1563 49.0219 52.9594 49.275C52.7625 49.5281 52.5938 49.7813 52.4813 50.0625C52.3688 50.3719 52.3125 50.6531 52.3125 50.9344C52.3125 51.525 52.5094 52.0594 52.875 52.4813C53.2125 52.875 53.6062 53.1844 54.0562 53.4375C54.4781 53.6906 54.9281 53.8594 55.3781 53.9719C55.8281 54.0844 56.1938 54.1688 56.475 54.1688C56.8406 54.1688 57.1781 54.0563 57.4594 53.8875C57.6844 53.7188 57.9094 53.5219 58.05 53.2969C58.1906 53.0719 58.3313 52.875 58.3875 52.65C58.4719 52.425 58.5 52.2281 58.5 52.0875C58.5 51.6375 58.3312 51.1594 58.05 50.7094C57.7687 50.3156 57.4594 49.9219 57.0938 49.5844C56.7281 49.2469 56.3344 48.9656 55.9125 48.7688C55.4906 48.5156 55.125 48.4031 54.7594 48.4031ZM56.1656 57.15C55.7719 57.15 55.4344 57.2625 55.125 57.4875C54.8719 57.6844 54.6469 57.8813 54.4781 58.1344C54.3094 58.3594 54.1687 58.6125 54.0562 58.8656C53.9437 59.1188 53.8875 59.3156 53.8594 59.4844C53.6063 60.8344 53.3812 62.2969 53.2125 63.8156C53.0437 65.3625 52.9594 66.8813 52.9594 68.3438C52.9594 70.2 52.9594 71.7188 52.9875 72.8719C53.0156 74.0531 53.0437 74.9813 53.0719 75.6844C53.1 76.3875 53.1281 76.8938 53.1844 77.2031C53.2406 77.625 53.2687 77.7938 53.2687 77.8781C53.4375 78.7219 53.775 79.3125 54.2812 79.6781C54.7594 80.0156 55.4625 80.2125 56.3625 80.2125C56.925 80.2125 57.4312 79.9875 57.8531 79.5094C58.275 79.0594 58.5 78.4406 58.5 77.6531C58.5 77.0344 58.4437 76.3313 58.3594 75.5719C58.275 74.8406 58.1625 74.0531 58.0781 73.2656C57.9656 72.5063 57.8812 71.7469 57.7969 71.0156C57.7125 70.3125 57.6844 69.6656 57.6844 69.1031C57.6844 68.4563 57.7125 67.725 57.7406 66.9094C57.7969 66.1219 57.825 65.2781 57.9094 64.4344C57.9656 63.5906 58.0219 62.7469 58.0781 61.9313C58.1344 61.0875 58.1625 60.3281 58.1625 59.625C58.1625 59.3438 58.1344 59.0906 58.1063 58.8094C58.05 58.5281 57.9656 58.2469 57.8531 58.0219C57.7125 57.7406 57.4875 57.5438 57.2062 57.4031C56.8687 57.2344 56.5594 57.15 56.1656 57.15Z" fill="white"/>
<path d="M83.925 80.4094C83.6156 80.4094 83.3343 80.3813 83.0812 80.3531C82.8 80.2969 82.5187 80.1844 82.2937 80.0156C82.0687 79.8188 81.8718 79.5656 81.7593 79.2C81.6468 78.8625 81.5906 78.4125 81.5906 77.8219C81.5906 77.2875 81.6468 76.7531 81.7593 76.1906C81.8718 75.6281 81.9843 75.0656 82.0968 74.5313C82.2093 73.9969 82.3218 73.4344 82.4343 72.8719C82.5468 72.3375 82.575 71.8031 82.575 71.2688C82.575 70.6781 82.5468 70.0594 82.5187 69.4688C82.4906 68.8781 82.4062 68.2875 82.3218 67.725C82.2093 67.1625 82.0687 66.6 81.9 66.0656C81.7312 65.5313 81.4781 65.025 81.1687 64.5469C80.9156 64.125 80.6343 63.7313 80.3812 63.3375C80.1281 62.9719 79.7906 62.6344 79.425 62.3531C79.0593 62.0719 78.6093 61.8188 78.075 61.65C77.5406 61.4813 76.8937 61.3969 76.1062 61.3969C75.5718 61.3969 74.9812 61.5094 74.2781 61.7344C73.6031 61.9594 72.9 62.2688 72.1968 62.6906C71.4937 63.1125 70.8187 63.5906 70.2 64.1813C69.5812 64.7438 69.075 65.3625 68.6531 66.0094V70.9031C68.6531 71.0719 68.6531 71.2688 68.6812 71.5219C68.7093 71.775 68.7375 72.0844 68.7656 72.3938C68.7937 72.7031 68.85 73.0688 68.9062 73.4063C68.9625 73.7719 69.0187 74.1094 69.1031 74.475C69.2156 75.0094 69.3281 75.5156 69.4687 75.9938C69.6093 76.5 69.6937 77.0063 69.6937 77.4563C69.6937 77.7656 69.6937 78.0469 69.6656 78.3281C69.6375 78.6375 69.5531 78.9188 69.4406 79.1438C69.2999 79.3969 69.1031 79.5938 68.7937 79.7344C68.5125 79.875 68.1468 79.9313 67.6968 79.9313C67.4156 79.9313 67.1062 79.9031 66.825 79.8469C66.4875 79.7906 66.2062 79.6781 65.9249 79.5094C65.6437 79.3406 65.4187 79.0594 65.2499 78.7219C65.0812 78.3844 64.9968 77.9344 64.9968 77.3719C64.9968 77.175 64.9968 76.8938 65.0249 76.5563C65.0249 76.2188 65.0531 75.7688 65.0531 75.2344C65.0531 74.3625 65.0249 73.4344 64.9687 72.4781C64.9124 71.4938 64.8562 70.4813 64.7999 69.4406C64.7437 68.4 64.6875 67.3031 64.6312 66.1781C64.575 65.0531 64.575 63.9 64.575 62.7188C64.575 62.2688 64.6031 61.7344 64.6312 61.1719C64.6593 60.5813 64.7437 60.0469 64.8843 59.5406C64.9968 59.0344 65.1937 58.5844 65.4187 58.2188C65.7 57.825 66.0656 57.6 66.5437 57.6C67.0218 57.6 67.4156 57.7688 67.6968 58.0781C67.9499 58.3594 68.1468 58.725 68.2593 59.1469C68.3718 59.5688 68.4562 60.0469 68.4562 60.5531C68.4562 60.7781 68.4843 61.0313 68.4843 61.2563C68.85 60.8344 69.2718 60.4125 69.7781 60.0469C70.4812 59.5125 71.2687 59.0344 72.0843 58.6406C72.9 58.2469 73.7156 57.9657 74.5593 57.7407C75.4031 57.5157 76.1906 57.4313 76.8937 57.4313C78.1875 57.4313 79.3406 57.6281 80.3531 57.9938C81.3375 58.3594 82.2093 58.8938 82.9406 59.5406C83.6718 60.1875 84.2906 60.9469 84.7687 61.8188C85.2468 62.6625 85.6406 63.5625 85.9218 64.5188C86.2031 65.475 86.4281 66.4313 86.5406 67.4156C86.6531 68.4 86.7375 69.3563 86.7375 70.2844V73.575C86.7375 74.4188 86.6812 75.2625 86.5687 76.05C86.4562 76.8375 86.2875 77.5688 86.0906 78.1875C85.8656 78.8063 85.6125 79.3406 85.275 79.7344C84.825 80.1844 84.4031 80.4094 83.925 80.4094Z" fill="#F9648B"/>
<path d="M76.8094 57.7125C78.075 57.7125 79.2 57.9094 80.1563 58.275C81.1125 58.6406 81.9562 59.1469 82.6594 59.7656C83.3625 60.4125 83.9531 61.1438 84.4313 61.9594C84.9094 62.8031 85.275 63.675 85.5563 64.6031C85.8375 65.5313 86.0344 66.4875 86.175 67.4719C86.2875 68.4563 86.3719 69.3844 86.3719 70.2844V73.575C86.3719 74.4188 86.3156 75.2344 86.2031 76.0219C86.0906 76.8094 85.9219 77.4844 85.725 78.1031C85.5281 78.6938 85.275 79.2 84.9656 79.5656C84.6563 79.9313 84.3188 80.1281 83.925 80.1281C83.6438 80.1281 83.3625 80.1 83.1375 80.0719C82.8844 80.0438 82.6875 79.9313 82.4906 79.7906C82.2937 79.65 82.1531 79.425 82.0406 79.1156C81.9281 78.8063 81.8719 78.3844 81.8719 77.8219C81.8719 77.3156 81.9281 76.7813 82.0406 76.2469C82.1531 75.6844 82.2656 75.15 82.3781 74.5875C82.4906 74.025 82.6031 73.4625 82.7156 72.9281C82.8281 72.3656 82.8844 71.8313 82.8844 71.2688C82.8844 70.65 82.8563 70.0594 82.8281 69.4688C82.8 68.8781 82.7156 68.2875 82.6312 67.6969C82.5187 67.1063 82.3781 66.5438 82.1813 66.0094C81.9844 65.4469 81.7313 64.9406 81.4219 64.4344C81.1688 64.0125 80.8875 63.6188 80.6063 63.225C80.325 62.8313 79.9875 62.4656 79.5938 62.1563C79.2 61.8469 78.7219 61.5938 78.1594 61.3969C77.5969 61.2 76.9219 61.1156 76.1063 61.1156C75.5438 61.1156 74.925 61.2281 74.1937 61.4531C73.4906 61.6781 72.7594 62.0156 72.0563 62.4375C71.325 62.8594 70.65 63.3656 70.0031 63.9563C69.3562 64.5469 68.7938 65.1938 68.3719 65.925V70.9031C68.3719 71.0719 68.3719 71.2969 68.4 71.55C68.4281 71.8031 68.4563 72.1125 68.4844 72.4219C68.5125 72.7594 68.5688 73.0969 68.625 73.4625C68.6813 73.8281 68.7375 74.1938 68.8219 74.5313C68.9344 75.0656 69.0469 75.6 69.1875 76.0781C69.3281 76.5563 69.4125 77.0344 69.4125 77.4563C69.4125 77.7656 69.4125 78.0469 69.3844 78.3C69.3562 78.5813 69.3 78.8063 69.1875 79.0031C69.075 79.2 68.9062 79.3688 68.6812 79.4813C68.4562 79.5938 68.1188 79.65 67.725 79.65C67.4438 79.65 67.1625 79.6219 66.8813 79.5938C66.6 79.5375 66.3469 79.4531 66.0938 79.2844C65.8406 79.1156 65.6437 78.8906 65.5031 78.6094C65.3344 78.3 65.2781 77.9063 65.2781 77.3719C65.2781 77.175 65.2781 76.9219 65.3062 76.5844C65.3062 76.2469 65.3344 75.7969 65.3344 75.2625C65.3344 74.3906 65.3063 73.4625 65.25 72.4781C65.1938 71.4938 65.1375 70.4813 65.0812 69.4406C65.025 68.4 64.9688 67.3031 64.9125 66.1781C64.8563 65.0531 64.8563 63.9 64.8563 62.7469C64.8563 62.2969 64.8844 61.7906 64.9125 61.2281C64.9406 60.6656 65.025 60.1313 65.1375 59.6532C65.25 59.175 65.4187 58.7531 65.6437 58.4438C65.8687 58.1063 66.15 57.9375 66.5438 57.9375C66.9375 57.9375 67.2469 58.05 67.4719 58.3032C67.6969 58.5563 67.8656 58.8656 67.9781 59.2594C68.0906 59.6531 68.1469 60.1031 68.175 60.6094C68.2031 61.1156 68.2031 61.6219 68.2031 62.1C68.6531 61.4531 69.2438 60.8344 69.9188 60.3C70.6219 59.7656 71.3531 59.3156 72.1688 58.9219C72.9563 58.5563 73.7719 58.2469 74.5875 58.05C75.3469 57.825 76.1063 57.7125 76.8094 57.7125ZM76.8094 57.15C76.0781 57.15 75.2625 57.2625 74.3906 57.4875C73.5469 57.7125 72.7031 58.0219 71.8875 58.3875C71.0719 58.7813 70.2844 59.2594 69.5531 59.8219C69.2438 60.0469 68.9625 60.3 68.7094 60.5531V60.525C68.6813 59.9906 68.625 59.4844 68.4844 59.0625C68.3438 58.5844 68.1469 58.1907 67.8656 57.8813C67.5281 57.5157 67.05 57.3188 66.5156 57.3188C65.9531 57.3188 65.475 57.5719 65.1656 58.05C64.9125 58.4438 64.7156 58.8938 64.575 59.4563C64.4625 59.9625 64.3781 60.525 64.3219 61.1156C64.2937 61.6781 64.2656 62.2125 64.2656 62.6906C64.2656 63.8719 64.2937 65.0531 64.3219 66.15C64.3781 67.275 64.4063 68.3719 64.4906 69.4125C64.5469 70.4531 64.6031 71.4938 64.6594 72.45C64.7156 73.4063 64.7437 74.3344 64.7437 75.2063C64.7437 75.7406 64.7438 76.1625 64.7156 76.5C64.7156 76.8375 64.6875 77.1188 64.6875 77.3156C64.6875 77.9344 64.7719 78.4125 64.9688 78.8063C65.1656 79.2 65.4469 79.5094 65.7563 79.7063C66.0656 79.9031 66.4031 80.0438 66.7687 80.1C67.0781 80.1563 67.3875 80.1844 67.6969 80.1844C68.2031 80.1844 68.5969 80.1 68.9063 79.9594C69.2438 79.7906 69.4969 79.5656 69.6656 79.2563C69.8062 78.975 69.8906 78.6656 69.9469 78.3281C69.975 78.0469 69.975 77.7375 69.975 77.4281C69.975 76.95 69.8906 76.4438 69.75 75.8813C69.6094 75.4031 69.4969 74.8969 69.3844 74.3906C69.3281 74.0531 69.2719 73.7156 69.2156 73.35C69.1594 73.0125 69.1031 72.675 69.075 72.3375C69.0469 72.0281 69.0188 71.7469 68.9906 71.4938C68.9625 71.2406 68.9625 71.0438 68.9625 70.875V66.0656C69.3562 65.4469 69.8344 64.8563 70.425 64.35C71.0437 63.7875 71.7187 63.3094 72.3937 62.9156C73.0687 62.5219 73.7438 62.2125 74.4188 61.9875C75.0656 61.7906 75.6562 61.6781 76.1625 61.6781C76.9219 61.6781 77.5406 61.7625 78.0469 61.9313C78.5531 62.1 78.975 62.325 79.3125 62.5781C79.65 62.8594 79.9594 63.1688 80.2125 63.5063C80.4938 63.9 80.7469 64.2938 81 64.6875C81.3094 65.1656 81.5344 65.6438 81.7031 66.15C81.8719 66.6844 82.0125 67.2188 82.125 67.7531C82.2375 68.3156 82.2938 68.8781 82.3219 69.4688C82.35 70.0594 82.3781 70.65 82.3781 71.2406C82.3781 71.7469 82.3219 72.2813 82.2375 72.7875C82.125 73.35 82.0125 73.8844 81.9 74.4469C81.7875 75.0094 81.675 75.5719 81.5625 76.1344C81.45 76.725 81.3937 77.2875 81.3937 77.8219C81.3937 78.4406 81.45 78.9188 81.5906 79.2844C81.7313 79.7063 81.9281 80.0156 82.2094 80.2406C82.4625 80.4375 82.7719 80.5781 83.1094 80.6344C83.3906 80.6906 83.6719 80.6906 83.9813 80.6906C84.375 80.6906 84.9375 80.55 85.4437 79.9313C85.7812 79.5094 86.0906 78.975 86.3156 78.3C86.5406 77.6531 86.7094 76.9219 86.8219 76.1063C86.9344 75.2906 86.9906 74.4469 86.9906 73.6031V70.3125C86.9906 69.3844 86.9344 68.4281 86.7938 67.4156C86.6813 66.4031 86.4563 65.4188 86.175 64.4625C85.8656 63.5063 85.4719 62.5781 84.9938 61.7063C84.4875 60.8344 83.8688 60.0469 83.1094 59.3719C82.35 58.6969 81.45 58.1625 80.4375 57.7688C79.3406 57.3469 78.1313 57.15 76.8094 57.15Z" fill="white"/>
<path d="M102.712 79.875C101.7 79.875 100.716 79.7062 99.7593 79.3968C98.803 79.0875 97.903 78.6656 97.0874 78.1031C96.2718 77.5687 95.4843 76.9218 94.8093 76.2187C94.1062 75.5156 93.5155 74.7281 93.0374 73.9125C92.5311 73.0968 92.1655 72.2531 91.8843 71.3812C91.603 70.5093 91.4624 69.6375 91.4624 68.7656C91.4624 66.7406 91.7999 64.9687 92.4468 63.5343C93.1218 62.1 93.9936 60.9187 95.0624 60.0187C96.1311 59.1187 97.3686 58.4718 98.7468 58.05C100.097 57.6562 101.503 57.4594 102.937 57.4594C104.597 57.4594 106.087 57.7406 107.409 58.275C108.731 58.8093 109.856 59.625 110.784 60.6375C111.684 61.65 112.416 62.9156 112.894 64.35C113.372 65.7843 113.625 67.4156 113.625 69.2156C113.625 70.2562 113.484 71.2687 113.203 72.1968C112.922 73.125 112.528 73.9968 112.05 74.7843C111.572 75.5718 110.953 76.275 110.278 76.9218C109.603 77.5406 108.844 78.075 108.028 78.525C107.212 78.975 106.369 79.3125 105.469 79.5375C104.569 79.7625 103.641 79.875 102.712 79.875ZM103.669 61.2562C102.684 61.2562 101.7 61.425 100.716 61.7062C99.7311 62.0156 98.8311 62.4656 98.0436 63.0562C97.2561 63.6468 96.6093 64.3781 96.103 65.25C95.6249 66.0937 95.3718 67.1062 95.3718 68.2593C95.3718 69.1875 95.5687 70.1156 95.9624 71.0156C96.3562 71.9437 96.8905 72.7875 97.5655 73.5468C98.2124 74.3062 98.9718 74.925 99.8155 75.375C100.631 75.825 101.503 76.0781 102.347 76.0781C103.303 76.0781 104.231 75.9093 105.103 75.6C106.003 75.2906 106.791 74.8125 107.466 74.1937C108.141 73.575 108.675 72.8156 109.097 71.9156C109.519 71.0156 109.716 70.0031 109.716 68.85C109.716 67.725 109.547 66.6843 109.266 65.7562C108.956 64.8281 108.534 64.0125 108 63.3375C107.466 62.6625 106.819 62.1562 106.087 61.7906C105.328 61.4531 104.512 61.2562 103.669 61.2562Z" fill="#F9648B"/>
<path d="M102.937 57.7687C104.541 57.7687 106.003 58.0219 107.297 58.5562C108.591 59.0906 109.687 59.85 110.559 60.8344C111.459 61.8187 112.134 63.0281 112.612 64.4625C113.091 65.8687 113.344 67.4719 113.344 69.2156C113.344 70.2281 113.203 71.2125 112.95 72.1125C112.669 73.0125 112.303 73.8562 111.825 74.6156C111.347 75.375 110.784 76.0781 110.109 76.6687C109.434 77.2875 108.703 77.7937 107.916 78.2437C107.128 78.6656 106.284 79.0031 105.412 79.2281C104.541 79.4531 103.641 79.5656 102.741 79.5656C101.756 79.5656 100.8 79.425 99.8718 79.1156C98.9437 78.8062 98.0718 78.3844 97.2562 77.8781C96.4406 77.3437 95.6812 76.725 95.0062 76.0219C94.3312 75.3187 93.7406 74.5594 93.2625 73.7719C92.7843 72.9562 92.3906 72.1406 92.1375 71.2969C91.8562 70.4531 91.7437 69.6094 91.7437 68.7656C91.7437 66.7687 92.0531 65.0531 92.7 63.675C93.3468 62.2687 94.1906 61.1437 95.2593 60.2719C96.3 59.4 97.5093 58.7531 98.8593 58.3594C100.153 57.9656 101.531 57.7687 102.937 57.7687ZM102.319 76.3875C103.303 76.3875 104.259 76.2187 105.187 75.8812C106.116 75.5437 106.931 75.0656 107.634 74.4187C108.337 73.7719 108.9 72.9844 109.322 72.0562C109.744 71.1281 109.969 70.0594 109.969 68.8781C109.969 67.725 109.8 66.6562 109.491 65.7C109.181 64.7437 108.731 63.9 108.169 63.1969C107.606 62.4937 106.959 61.9594 106.172 61.5656C105.384 61.1719 104.569 61.0031 103.641 61.0031C102.628 61.0031 101.616 61.1719 100.603 61.4812C99.5906 61.7906 98.6624 62.2687 97.8468 62.8875C97.0312 63.5062 96.3562 64.2656 95.8499 65.1656C95.3437 66.0656 95.0624 67.1062 95.0624 68.3156C95.0624 69.2719 95.2593 70.2281 95.6812 71.1844C96.1031 72.1406 96.6374 73.0125 97.3124 73.8C97.9874 74.5875 98.7749 75.2062 99.6468 75.6844C100.547 76.1344 101.419 76.3875 102.319 76.3875ZM102.937 57.2062C101.503 57.2062 100.069 57.4031 98.6624 57.825C97.2562 58.2469 95.9906 58.9219 94.8656 59.8219C93.7406 60.75 92.8406 61.9594 92.1656 63.4219C91.4906 64.8844 91.1531 66.6844 91.1531 68.7656C91.1531 69.6375 91.2937 70.5656 91.575 71.4656C91.8562 72.3656 92.2499 73.2375 92.7562 74.0812C93.2624 74.925 93.8812 75.7125 94.5843 76.4437C95.2874 77.175 96.075 77.8219 96.9187 78.3844C97.7625 78.9469 98.6906 79.3687 99.6468 79.7062C100.631 80.0156 101.644 80.1844 102.684 80.1844C103.641 80.1844 104.569 80.0719 105.497 79.8187C106.425 79.5937 107.297 79.2281 108.141 78.7781C108.956 78.3281 109.744 77.7656 110.419 77.1469C111.122 76.5 111.741 75.7687 112.247 74.9531C112.753 74.1375 113.147 73.2656 113.428 72.3094C113.709 71.3531 113.85 70.3406 113.85 69.2437C113.85 67.4437 113.597 65.7562 113.091 64.2937C112.584 62.8031 111.853 61.5375 110.925 60.4687C109.969 59.4 108.816 58.5844 107.437 58.0219C106.144 57.4875 104.625 57.2062 102.937 57.2062ZM102.319 75.825C101.503 75.825 100.716 75.6 99.9281 75.1781C99.1124 74.7281 98.3812 74.1375 97.7625 73.4062C97.1156 72.675 96.6093 71.8594 96.2156 70.9312C95.8218 70.0312 95.6531 69.1594 95.6531 68.2594C95.6531 67.1625 95.8781 66.2062 96.3562 65.3906C96.8343 64.5469 97.4531 63.8437 98.2125 63.2812C98.9718 62.7187 99.8437 62.2687 100.8 61.9594C101.756 61.65 102.741 61.5094 103.669 61.5094C104.484 61.5094 105.244 61.6781 105.947 62.0156C106.65 62.3531 107.241 62.8594 107.747 63.4781C108.253 64.125 108.675 64.9125 108.956 65.7844C109.266 66.6844 109.406 67.6969 109.406 68.7937C109.406 69.8906 109.209 70.875 108.816 71.7469C108.422 72.6187 107.887 73.35 107.241 73.9406C106.594 74.5312 105.834 74.9812 104.991 75.2906C104.147 75.6562 103.247 75.825 102.319 75.825Z" fill="white"/>
<path d="M65.3626 120.319C62.3532 120.319 60.5813 119.475 60.1595 117.787V117.759V117.731C60.1313 117.647 59.822 115.706 60.4407 113.737C58.5563 113.428 53.3532 112.472 50.4282 110.925C49.7251 110.559 48.9095 110.137 48.0938 109.772C45.1688 108.478 38.5876 104.625 40.5563 97.0031C40.5845 96.8625 41.4845 93.0656 44.5782 91.4906L45.8157 90.8718L45.3657 92.1937C44.8032 93.8812 43.5938 98.6906 44.9157 100.772C45.2813 101.362 45.7876 101.672 46.5188 101.784H46.5751H46.6313C46.6313 101.784 47.447 102.037 48.6001 102.037C50.6813 102.037 53.5501 101.25 55.3501 97.425C56.1938 95.625 57.122 94.1062 58.1626 92.7843C61.9876 87.975 70.7626 79.9312 86.4563 79.9312C87.6939 79.9312 88.9876 79.9875 90.2814 80.0718C90.8157 80.0718 98.7189 80.3531 103.05 84.4593C103.078 84.4875 103.894 85.2468 105.328 85.2468C106.819 85.2468 109.266 84.375 112.275 80.1562C112.359 80.0437 120.656 67.7531 115.763 48.9937C114.103 49.8656 109.519 52.0031 104.456 52.0031C100.659 52.0031 97.4251 50.7937 94.8095 48.4312C92.5314 46.3781 91.2938 43.3968 91.5189 40.5C91.772 37.2937 93.7407 33.1031 101.728 31.3031C101.813 31.275 104.231 30.7125 107.522 30.7125C113.063 30.7125 120.403 32.3156 123.919 39.9937C123.975 40.0781 128.475 49.8656 128.7 64.5468C128.7 64.7718 128.081 86.2312 114.975 98.4937C114.638 98.8593 110.222 103.584 105.722 106.144L104.738 113.287V113.316C104.484 114.3 103.331 116.184 100.688 116.381C100.659 116.381 100.238 116.409 99.647 116.409C98.1845 116.409 97.0595 116.241 96.2439 115.903C96.0751 117 95.5407 118.716 94.0782 118.912C93.6845 119.025 91.5188 119.7 89.2407 119.7C86.7938 119.7 85.1063 118.912 84.2345 117.394L84.1501 117.225L84.6282 113.991H84.4876C84.2063 114.891 83.222 116.859 80.3532 117.337C79.9314 117.394 79.5095 117.45 79.0313 117.45C78.722 117.45 78.4126 117.45 78.0188 117.394H77.8501C76.6688 117.309 74.4751 117.141 72.8438 114.862L72.3376 114.834C72.3657 115.875 72.1689 117.844 70.7626 119.222C70.4532 119.503 70.0876 119.7 69.6657 119.784C68.7938 120.037 67.0782 120.319 65.3626 120.319Z" fill="#03CEFE"/>
<path d="M107.438 31.3594C112.584 31.3594 119.869 32.8219 123.328 40.3031C123.328 40.3031 127.856 49.8938 128.081 64.6313C128.081 64.6313 127.631 85.9219 114.525 98.1844C114.525 98.1844 109.772 103.331 105.159 105.862L104.147 113.259C104.147 113.259 103.528 115.678 100.603 115.903C100.603 115.903 100.181 115.931 99.6188 115.931C98.4376 115.931 96.5532 115.819 95.7657 115.059C95.7657 115.059 95.6532 118.266 93.9657 118.434C93.9657 118.434 91.6313 119.222 89.2688 119.222C87.4688 119.222 85.6407 118.772 84.7688 117.197L85.3313 113.456L84.0938 113.513C84.0938 113.513 83.6438 116.269 80.2969 116.859C79.8751 116.916 79.4813 116.944 79.0876 116.944C78.7782 116.944 78.4407 116.916 78.1313 116.916C76.9219 116.831 74.7844 116.775 73.2094 114.384L71.8032 114.328C71.8032 114.328 72.1969 117.197 70.4532 118.912C70.2282 119.137 69.9469 119.278 69.6376 119.334C68.8501 119.475 67.1626 119.756 65.4751 119.756C63.3657 119.756 61.2563 119.306 60.8063 117.647C60.8063 117.647 60.4126 115.341 61.3126 113.287C61.3126 113.287 54.2813 112.275 50.7938 110.447C50.0063 110.025 49.2188 109.631 48.4313 109.266C45.5626 108 39.3751 104.344 41.2032 97.1437C41.2032 97.1437 42.0469 93.4594 44.9438 91.9969C44.9438 91.9969 41.6813 101.644 46.5188 102.319C46.5188 102.319 47.3907 102.6 48.6563 102.6C50.7657 102.6 53.9719 101.812 55.9126 97.65C56.6719 96.0469 57.5438 94.5 58.6688 93.1219C62.3813 88.4531 71.0157 80.4656 86.5126 80.4656C87.7219 80.4656 88.9876 80.5219 90.3094 80.6063C90.3094 80.6063 98.4376 80.775 102.741 84.8531C102.741 84.8531 103.697 85.8094 105.384 85.8094C107.156 85.8094 109.716 84.7688 112.781 80.4656C112.781 80.4656 121.584 67.8094 116.156 48.15C116.156 48.15 110.644 51.4406 104.484 51.4406C101.363 51.4406 98.0438 50.5969 95.2032 48.0375C93.0938 46.125 91.8844 43.3969 92.1094 40.5844C92.3626 37.4344 94.3313 33.5813 101.869 31.8938C101.756 31.95 104.175 31.3594 107.438 31.3594ZM107.438 30.2344C104.147 30.2344 101.728 30.7969 101.503 30.8531C93.2063 32.7094 91.1251 37.1531 90.8719 40.5562C90.6469 43.6219 91.9407 46.7437 94.3313 48.9375C97.0594 51.3844 100.434 52.65 104.344 52.65C108.984 52.65 113.231 50.9062 115.284 49.8937C117.563 59.1187 116.578 66.6281 115.284 71.3531C113.85 76.6688 111.797 79.7625 111.684 79.9031C108.816 83.925 106.566 84.7687 105.216 84.7687C104.034 84.7687 103.359 84.15 103.359 84.15C98.9157 79.9313 90.9001 79.6219 90.2251 79.5938C88.9313 79.4813 87.6376 79.4531 86.3719 79.4531C70.4251 79.4531 61.5376 87.6375 57.6563 92.5312C56.5876 93.8812 55.6313 95.4281 54.7594 97.2844C53.1001 100.828 50.4563 101.559 48.5157 101.559C47.4751 101.559 46.7157 101.334 46.7157 101.334L46.6313 101.306H46.5469C45.9844 101.222 45.6188 100.997 45.3657 100.547C44.1844 98.6344 45.3657 93.9375 45.8719 92.4469L46.7719 89.8312L44.2969 91.0969C41.0626 92.7562 40.0782 96.6375 39.9938 96.975C39.1219 100.406 39.8251 103.612 42.0751 106.256C43.8469 108.337 46.2094 109.659 47.8407 110.391C48.6563 110.756 49.4157 111.15 50.1469 111.544C52.8469 112.978 57.4594 113.906 59.7094 114.3C59.2876 116.156 59.5407 117.844 59.5688 117.928V117.984V118.041C59.9063 119.391 61.2001 120.994 65.3063 120.994C67.0782 120.994 68.8219 120.713 69.6938 120.544C70.2282 120.431 70.7063 120.178 71.1001 119.812C72.2813 118.659 72.6751 117.112 72.7876 115.959C74.5032 117.9 76.5563 118.041 77.7376 118.125H77.9063C78.3001 118.153 78.6376 118.181 78.9469 118.181C79.4532 118.181 79.9032 118.153 80.3532 118.069C81.8719 117.816 82.9126 117.169 83.6157 116.466L83.5032 117.141L83.4469 117.506L83.6438 117.844C84.2907 119.025 85.7813 120.459 89.1282 120.459C91.3782 120.459 93.5719 119.812 94.0782 119.644C95.5688 119.419 96.2157 118.012 96.5251 116.831C97.3126 117.056 98.3251 117.169 99.5063 117.169C100.125 117.169 100.575 117.141 100.575 117.141C104.259 116.859 105.103 113.766 105.131 113.653L105.159 113.597V113.541L106.088 106.706C110.503 104.119 114.806 99.5906 115.228 99.1125C122.175 92.5875 125.578 83.6156 127.209 77.2313C128.981 70.3406 129.094 65.025 129.094 64.8V64.7719V64.7437C128.869 49.9219 124.425 40.3313 124.256 39.9375C122.597 36.3375 119.953 33.6937 116.381 32.1187C113.878 30.825 110.841 30.2344 107.438 30.2344Z" fill="white"/>
<path d="M97.1438 49.1344C97.1438 49.1344 101.897 50.4 104.428 46.5187" stroke="white" stroke-miterlimit="10"/>
<path d="M95.9346 44.1844C96.2452 44.1844 96.4971 43.9325 96.4971 43.6219C96.4971 43.3112 96.2452 43.0594 95.9346 43.0594C95.6239 43.0594 95.3721 43.3112 95.3721 43.6219C95.3721 43.9325 95.6239 44.1844 95.9346 44.1844Z" fill="white"/>
<path d="M108.028 42.4125C110.545 42.4125 112.584 40.3726 112.584 37.8562C112.584 35.3399 110.545 33.3 108.028 33.3C105.512 33.3 103.472 35.3399 103.472 37.8562C103.472 40.3726 105.512 42.4125 108.028 42.4125Z" fill="white" stroke="black" stroke-miterlimit="10"/>
<path d="M107.156 41.7656C108.989 41.7656 110.475 40.2798 110.475 38.4469C110.475 36.614 108.989 35.1281 107.156 35.1281C105.323 35.1281 103.838 36.614 103.838 38.4469C103.838 40.2798 105.323 41.7656 107.156 41.7656Z" fill="black"/>
<path d="M105.975 37.8563C106.519 37.8563 106.959 37.4155 106.959 36.8719C106.959 36.3282 106.519 35.8875 105.975 35.8875C105.431 35.8875 104.991 36.3282 104.991 36.8719C104.991 37.4155 105.431 37.8563 105.975 37.8563Z" fill="white"/>
<path d="M107.325 40.0782C107.496 40.0782 107.634 39.9397 107.634 39.7688C107.634 39.5979 107.496 39.4594 107.325 39.4594C107.154 39.4594 107.016 39.5979 107.016 39.7688C107.016 39.9397 107.154 40.0782 107.325 40.0782Z" fill="white"/>
<path d="M72.225 109.631C72.225 109.631 80.5781 109.744 86.0625 108.675L85.4437 113.484C85.4437 113.484 74.1375 114.75 71.7188 114.328L72.225 109.631Z" fill="#007AAA"/>
<path d="M50.4282 110.306L62.6907 109.463L61.2001 113.316C61.2282 113.316 53.6063 112.359 50.4282 110.306Z" fill="#007AAA"/>
<path d="M92.053 81.9562C92.8405 82.2094 94.2749 81.9562 94.0499 83.2219C93.853 84.2062 92.503 84.2062 91.5749 84.2062C90.5624 84.1781 88.9312 84.375 88.8468 83.1656C88.7624 82.0687 90.3937 82.2375 91.3218 82.0125C91.5468 81.9562 91.7718 81.9844 91.9968 81.9562C91.9687 81.9844 92.0249 81.9562 92.053 81.9562Z" fill="#007AAA"/>
<path d="M79.4531 87.8906C78.8906 87.8906 78.6656 87.9187 78.4406 87.8906C77.625 87.8625 76.725 87.8062 76.5 86.9063C76.275 85.9781 77.1187 85.5281 77.8218 85.1906C79.2843 84.4313 80.8593 83.9813 82.5187 84.2625C83.1093 84.375 83.8125 84.4594 83.9812 85.1906C84.1218 85.8375 83.5593 86.2031 83.1656 86.5406C82.0125 87.5813 80.6343 87.8906 79.4531 87.8906Z" fill="#007AAA"/>
<path d="M67.3031 92.475C68.175 92.5313 69.1594 92.3625 69.4125 93.2907C69.6656 94.275 68.7656 94.7532 68.0344 95.1188C66.9094 95.6813 65.7 95.9625 64.4625 95.8781C63.8719 95.85 63.1687 95.9063 62.9719 95.0907C62.775 94.3594 63.2812 93.8813 63.7875 93.5719C64.8562 92.8688 66.0656 92.5032 67.3031 92.475Z" fill="#007AAA"/>
<path d="M79.6219 92.3063C80.4657 92.3906 81.5625 92.1938 81.45 93.3469C81.3375 94.6125 80.1 94.7531 79.1438 94.8094C78.4407 94.8375 77.1188 94.9781 77.2594 93.7688C77.3719 92.475 78.6657 92.4469 79.6219 92.3063Z" fill="#007AAA"/>
<path d="M122.428 66.825C122.315 67.5281 122.062 68.5125 120.994 68.5969C120.178 68.6531 120.122 67.8375 120.178 67.2188C120.262 66.2906 120.515 65.3062 121.584 65.2219C122.287 65.1656 122.484 65.925 122.428 66.825Z" fill="#007AAA"/>
<path d="M69.1312 88.3688C68.625 88.3688 67.8937 88.3688 68.0625 88.0031C68.5687 86.6813 69.9468 86.7938 71.0718 86.5688C71.4937 86.4844 72.1125 86.625 71.8875 87.0188C71.2969 88.1156 70.0875 88.2 69.1312 88.3688Z" fill="#007AAA"/>
<path d="M121.247 77.3438C121.05 77.9906 120.769 78.6938 119.869 78.8625C119.334 78.975 118.997 78.6656 119.025 78.1031C119.081 77.175 119.559 76.5 120.487 76.3313C120.994 76.2469 121.247 76.6688 121.247 77.3438Z" fill="#007AAA"/>
<path d="M103.106 87.5812C103.753 87.6656 104.681 87.6094 104.681 88.425C104.681 89.2125 103.753 89.2406 103.078 89.2406C102.459 89.2406 101.672 89.2969 101.616 88.4812C101.559 87.5531 102.459 87.7219 103.106 87.5812Z" fill="#007AAA"/>
<path d="M93.9657 86.7938C94.6126 86.8781 95.3438 86.9625 95.2876 87.7781C95.2313 88.5375 94.472 88.6219 93.8532 88.65C93.2063 88.6781 92.5032 88.425 92.5313 87.6938C92.5595 86.9063 93.3751 86.9344 93.9657 86.7938Z" fill="#007AAA"/>
<path d="M121.781 54.8719C122.456 54.8719 122.653 55.35 122.653 55.8563C122.653 56.5594 122.625 57.375 121.669 57.5156C121.022 57.6 120.825 57.1219 120.769 56.5594C120.712 55.7719 120.994 55.1813 121.781 54.8719Z" fill="#007AAA"/>
<path d="M89.0718 93.4875C88.3125 93.4875 87.4968 93.375 87.4406 92.6157C87.3843 91.8282 88.2562 91.8563 88.8468 91.8282C89.4093 91.8282 90.1968 91.575 90.2812 92.5032C90.3656 93.4032 89.6343 93.4032 89.0718 93.4875Z" fill="#007AAA"/>
<path d="M114.216 82.8C114.131 83.475 113.569 83.9531 112.725 84.0375C112.275 84.0937 111.966 83.6719 112.05 83.2781C112.219 82.4906 112.613 81.7875 113.513 81.675C114.131 81.6188 114.272 82.0688 114.216 82.8Z" fill="#007AAA"/>
<path d="M60.9189 118.856C60.9189 118.856 62.4658 116.662 63.5064 118.856C63.5064 118.856 65.4189 117.169 66.3471 119.222C66.3471 119.222 68.2033 117 69.9752 119.25C69.9752 119.25 65.5033 121.866 60.9189 118.856Z" fill="#007AAA"/>
<path d="M85.1345 118.041C85.1345 118.041 87.6095 116.156 88.5376 118.378C88.5376 118.378 90.2251 116.156 91.2939 118.603C91.2939 118.603 92.3345 116.184 94.922 118.209C94.922 118.209 89.1001 121.725 85.1345 118.041Z" fill="#007AAA"/>
<path d="M126.45 49.3312C126.45 49.3312 133.566 90.7312 97.4252 104.962L96.7783 110.278C96.7783 110.278 116.55 103.612 124.313 84.1219C124.51 83.6437 124.678 83.1656 124.875 82.6875C126.169 79.6219 131.456 64.7719 126.45 49.3312Z" fill="#007AAA"/>
</g>
<defs>
<clipPath id="clip0_78_0">
<rect width="144" height="144" fill="white"/>
</clipPath>
</defs>
</svg>
