<?xml version="1.0" encoding="utf-8"?>
<!-- Generator: Adobe Illustrator 25.0.0, SVG Export Plug-In . SVG Version: 6.00 Build 0)  -->
<svg version="1.1" id="Layer_1" xmlns="http://www.w3.org/2000/svg" xmlns:xlink="http://www.w3.org/1999/xlink" x="0px" y="0px"
	 viewBox="0 0 139 72.7" style="enable-background:new 0 0 139 72.7;" xml:space="preserve">
<style type="text/css">
	.st0{fill:#FFFFFF;}
</style>
<path class="st0" d="M136.2,22c-1.6-2.5-4.5-4-6.9-5.3c-2.8-1.4-5.8-2.4-8.8-2.9c-2.2-0.4-4.3-0.1-6.4,0.4c-1-3.5-3.3-6.8-5.6-8.7
	c-4.9-3.9-11.1-5.1-17-3.9c-3.4,0.7-6.6,2.3-9.1,4.8c-0.6-0.7-1.3-1.3-2-1.8C76.5,1.8,71.7,0,67.1,0C59.7,0,54.7,5.9,52,13.1
	c-5.2-5-13.8-6.4-19.7-2.9c-3.9,2.3-7,6.6-8.5,11.3c-0.8-0.3-1.6-0.5-2.4-0.7c-2.9-0.7-6.1-0.8-9-0.1C6.3,22.1,1.6,27.9,0.3,34.5
	C-1.3,42.6,4.8,47.6,11,49.5c2.4,0.7,5,1,7.5,0.9c1.4,3.8,4,7.2,6.7,9.5c4.9,4.3,11.8,5.9,17.8,6.7c6.9,0.9,14.9,0,21.4-3.6
	c1.6,1.5,3.6,2.8,5.1,3.9c5.7,4.2,12.7,6.2,19.5,5.8c6-0.3,12.2-2.8,17-6.9c1.2,0.1,2.5,0.1,3.5,0c5.9-0.4,11.3-1.4,16.6-4.5
	c4.3-2.5,7.6-6.5,8.7-11.8c0.6-2.7,0.1-5.1-0.9-7.3c1.4-1.2,2.7-2.6,3.7-4.3C140.2,33.1,138.9,26.3,136.2,22z"/>
</svg>
