<svg width="58" height="19" viewBox="0 0 58 19" fill="none" xmlns="http://www.w3.org/2000/svg">
<path d="M56.8395 4.36908C56.5253 3.72383 56.0623 3.17397 55.4618 2.73352C54.8725 2.30148 54.171 1.99008 53.3825 1.81053C52.5996 1.62818 51.5334 1.54121 50.1247 1.54963L45.5481 1.57488C44.6221 1.58049 43.9487 1.76284 43.4829 2.13316C42.9834 2.52872 42.7309 3.15714 42.7337 3.99876L42.7982 15.4112C42.801 16.1631 43.0311 16.755 43.4801 17.1702C43.9178 17.5742 44.4846 17.7762 45.1693 17.7734C45.8259 17.7706 46.3843 17.5602 46.8248 17.1506C47.2794 16.727 47.5067 16.1266 47.5011 15.3663L47.4814 11.7417L50.1809 11.7277C52.4762 11.7137 54.2468 11.2788 55.4365 10.4288C56.6908 9.53667 57.3222 8.22093 57.3138 6.52645C57.3138 5.73252 57.1538 5.00591 56.8395 4.36908ZM52.0272 7.19414C52.03 7.46066 51.9402 7.66545 51.7606 7.81975C51.5642 7.98527 51.2612 8.10871 50.8599 8.19007C50.3997 8.28265 49.8105 8.33034 49.1033 8.33315L47.4618 8.34156L47.4506 6.11125L49.0921 6.10283C50.7898 6.09442 51.3818 6.30483 51.5754 6.42546C51.8757 6.62184 52.0272 6.87152 52.0272 7.19414Z" fill="#8DB600" stroke="#221F1F" stroke-width="0.5" stroke-miterlimit="10" stroke-linecap="round" stroke-linejoin="round"/>
<path d="M50.5849 5.86437C49.6084 5.83351 48.5533 5.76898 47.6049 6.06635C47.6217 6.08038 47.6414 6.09721 47.661 6.11124L49.0921 6.10282C50.7897 6.09441 51.3818 6.30482 51.5754 6.42545C51.8756 6.62183 52.0244 6.87432 52.0272 7.19694C52.03 7.46346 51.9402 7.66825 51.7606 7.82255C51.5642 7.98807 51.2611 8.11151 50.8599 8.19287C50.3997 8.28544 49.8104 8.33314 49.1033 8.33594L47.4618 8.34436C47.3131 8.45377 47.1587 8.55757 47.0016 8.66137C47.776 8.79323 48.6768 8.75956 49.4119 8.75676C50.3323 8.75676 51.668 8.80445 52.4116 8.1592C53.8006 6.95567 52.3583 5.92047 50.5849 5.86437Z" fill="#8DB600"/>
<path d="M56.8396 4.36905C56.5253 3.7238 56.0623 3.17393 55.4618 2.73348C55.1896 2.5343 54.8922 2.36317 54.5751 2.21729C56.1352 3.64525 57.0612 5.68198 56.3513 7.83374C55.748 9.66288 53.6575 10.1763 52.0244 10.468C51.1798 10.6195 50.0911 10.7402 49.2352 10.7514C48.4355 10.7626 47.5348 10.7794 46.7351 10.6784C46.7491 12.0194 46.7884 13.972 46.7323 15.0156C46.6846 15.8993 46.2216 16.6793 45.3994 17.0243C44.3528 17.462 43.3959 16.6456 42.8235 15.6749C42.874 16.3005 43.0901 16.8083 43.4829 17.1702C43.9206 17.5742 44.4875 17.7762 45.1721 17.7734C45.8287 17.7706 46.3871 17.5602 46.8277 17.1506C47.2823 16.7269 47.5095 16.1266 47.5039 15.3663L47.4843 11.7417L50.1837 11.7277C52.479 11.7136 54.2496 11.2788 55.4394 10.4288C56.6936 9.53664 57.325 8.22089 57.3166 6.52642C57.3138 5.73248 57.1538 5.00588 56.8396 4.36905Z" fill="#8DB600"/>
<path d="M44.4061 2.31833C42.9835 2.9271 43.4128 5.34819 43.4072 6.50683C43.396 8.84656 43.2613 11.2312 43.438 13.5625C43.4549 13.8009 43.8309 13.6551 43.8337 13.4671C43.8505 11.7081 43.8393 9.94348 43.8 8.18448C43.7776 7.24746 43.8197 6.29923 43.8309 5.35941C43.8449 4.48693 43.5812 2.98321 44.4426 2.43335C44.4987 2.39969 44.4903 2.28186 44.4061 2.31833Z" fill="white"/>
<path d="M43.7663 14.6482C43.7663 14.6426 43.7663 14.6398 43.7663 14.637C43.7663 14.6286 43.7663 14.6173 43.7663 14.6089C43.7634 14.4799 43.7662 14.3536 43.755 14.2246C43.7466 14.1152 43.6708 14.0899 43.5923 14.1124C43.4913 14.1236 43.3818 14.2021 43.3734 14.3172C43.3622 14.4602 43.3622 14.6005 43.3622 14.7436C43.3622 14.7492 43.365 14.7492 43.365 14.7548C43.365 14.7688 43.3622 14.78 43.3622 14.7941C43.3622 14.8277 43.3762 14.853 43.3959 14.8726C43.3959 14.8754 43.3959 14.8754 43.3959 14.8782C43.4239 15.0802 43.6989 14.9652 43.7326 14.8053C43.755 14.7744 43.7691 14.738 43.7691 14.6987C43.7662 14.6819 43.7663 14.665 43.7663 14.6482Z" fill="white"/>
<path d="M54.9399 3.48814C53.6491 1.8666 51.3145 1.95357 49.4289 2.0714C49.4036 2.0714 49.384 2.11628 49.4148 2.1247C51.3173 2.55393 53.318 2.04615 54.7856 3.63963C54.8613 3.72099 55.01 3.57511 54.9399 3.48814Z" fill="white"/>
<path d="M38.8902 17.4195C39.3195 17.0267 39.5327 16.46 39.5299 15.739L39.4626 3.77951C39.4598 3.05851 39.2409 2.49462 38.8116 2.10747C38.3991 1.73435 37.8632 1.54358 37.2234 1.54919C36.5752 1.552 36.0477 1.75118 35.6492 2.14114C35.2452 2.5339 35.0431 3.09498 35.0459 3.80476L35.1133 15.7643C35.1161 16.46 35.3293 17.0155 35.7474 17.4111C36.1571 17.8038 36.6846 18.0002 37.316 17.9946C37.9473 17.9918 38.4777 17.7982 38.8902 17.4195Z" fill="#8DB600" stroke="#221F1F" stroke-width="0.5" stroke-miterlimit="10" stroke-linecap="round" stroke-linejoin="round"/>
<path d="M39.4626 3.77951C39.4598 3.05851 39.2409 2.49462 38.8116 2.10747C38.3991 1.73435 37.8632 1.54358 37.2234 1.54919C36.5752 1.552 36.0477 1.75118 35.6492 2.14114C35.2452 2.5339 35.0431 3.09498 35.0459 3.80476L35.1133 15.7643C35.1161 16.46 35.3293 17.0155 35.7474 17.4111C36.1571 17.8038 36.6846 18.0002 37.316 17.9946C37.9473 17.9918 38.4777 17.7982 38.8902 17.4195C39.3195 17.0267 39.5327 16.46 39.5299 15.739L39.4626 3.77951ZM37.953 16.5133C37.6948 16.8444 37.3609 17.0155 36.9624 17.0183C36.564 17.0211 36.2329 16.8472 35.9719 16.5021C35.7081 16.1514 35.5735 15.6633 35.5707 15.0489L35.5117 4.51453C35.5089 3.88892 35.6352 3.39516 35.8905 3.05009C36.1403 2.70783 36.4742 2.5339 36.8811 2.53109C37.2851 2.52829 37.6218 2.69661 37.8828 3.02485C38.1522 3.36711 38.2925 3.86367 38.2953 4.4977L38.3542 15.0321C38.357 15.6717 38.2251 16.1683 37.953 16.5133Z" fill="#8DB600"/>
<path d="M36.1039 5.73492C36.1235 5.03076 36.0337 4.07691 36.2133 3.40922C36.2245 3.36994 36.174 3.36153 36.16 3.39239C35.624 4.40795 35.7138 5.7237 35.7082 6.84867C35.7026 8.57401 35.551 10.3863 35.7447 12.1004C35.7671 12.2968 36.0421 12.165 36.059 12.0247C36.1965 10.7482 36.0954 9.41844 36.0954 8.13356C36.0926 7.33401 36.0814 6.53446 36.1039 5.73492Z" fill="white"/>
<path d="M35.9243 12.8803C35.8682 12.8298 35.7812 12.8915 35.7727 12.956C35.7587 13.085 35.7166 13.1973 35.7082 13.3291C35.697 13.4862 35.6998 13.6461 35.7082 13.806C35.711 13.8397 35.7363 13.8818 35.7699 13.8958C36.16 14.0361 36.1039 13.0486 35.9243 12.8803Z" fill="white"/>
<path d="M29.8897 17.5288C31.0262 17.6887 32.4853 17.1894 32.6789 15.8147C32.8557 14.5635 32.1149 13.6685 31.1581 13.057C30.7933 12.8241 30.4257 12.5969 30.0609 12.3668C29.7045 12.1424 29.351 11.918 29.0002 11.6879C28.1107 11.1016 27.224 10.5181 26.3345 9.93453C26.3036 9.91208 25.8238 9.5586 25.7957 9.58104L31.4892 5.15689C32.1261 4.61263 32.446 4.02349 32.4432 3.4063C32.4404 2.87046 32.2131 2.39915 31.7838 2.04286C31.3853 1.71182 30.8747 1.5463 30.2685 1.54911C29.7999 1.55191 29.4071 1.65291 29.1012 1.84929C28.8515 2.0092 28.5597 2.24485 28.2117 2.57028L22.4987 7.91743L22.4762 3.97861C22.4734 3.2015 22.2517 2.60114 21.8168 2.19155C21.3987 1.79879 20.86 1.60241 20.2174 1.60522C19.5608 1.60802 19.0248 1.81843 18.6263 2.22522C18.2223 2.64042 18.0174 3.23798 18.0231 4.00105L18.0848 15.0095C18.0876 15.5061 18.1016 15.8792 18.1269 16.1429C18.1606 16.4768 18.2504 16.777 18.4131 17.0575C18.6123 17.3689 18.8929 17.6186 19.2465 17.7953C19.586 17.9637 19.9424 18.0506 20.3128 18.0478C20.9469 18.045 21.4801 17.843 21.8954 17.4447C22.3303 17.0323 22.5464 16.4235 22.5436 15.638L22.5267 12.8494L22.653 12.9167C23.1272 13.273 24.9511 14.4625 26.082 15.3434C26.8087 15.9073 27.5271 16.4403 28.2763 16.9341C28.7898 17.2202 29.3257 17.4503 29.8897 17.5288Z" fill="#8DB600" stroke="#221F1F" stroke-width="0.5" stroke-miterlimit="10" stroke-linecap="round" stroke-linejoin="round"/>
<path d="M22.4959 12.6614C22.4201 12.5997 22.3415 12.5408 22.2602 12.4875C22.0553 12.3528 21.8477 12.2266 21.6569 12.0779L21.6625 12.4931C21.6709 12.7147 21.6821 12.9448 21.6849 13.1664C21.699 14.196 21.8645 15.4079 21.5615 16.4067C21.2696 17.3549 20.5317 17.9468 19.7488 17.9861C19.9312 18.031 20.1164 18.0534 20.3072 18.0506C20.9414 18.0478 21.4745 17.8458 21.8898 17.4475C22.3247 17.0351 22.5408 16.4263 22.538 15.6408L22.5211 12.8522L22.5688 12.8774C22.5464 12.8073 22.5211 12.7315 22.4959 12.6614Z" fill="#8DB600"/>
<path d="M20.0379 2.06534C20.1529 2.09339 20.2708 2.12425 20.3942 2.17195C20.7366 2.301 20.9723 2.58715 21.1294 2.921C21.2613 3.10615 21.3735 3.31095 21.4549 3.53258C21.8337 4.56217 21.6738 5.90036 21.7102 6.98044C21.7271 7.46298 21.5868 8.80958 22.322 8.02406C22.3837 7.95954 22.4398 7.89221 22.4987 7.82488L22.4763 3.97303C22.4735 3.19593 22.2518 2.59557 21.8169 2.18597C21.3988 1.79321 20.86 1.59683 20.2175 1.59964C19.645 1.60244 19.1708 1.77077 18.792 2.08217C19.2101 1.91385 19.6394 1.92226 20.0379 2.06534Z" fill="#8DB600"/>
<path d="M31.158 13.057C30.7933 12.8241 30.4257 12.5969 30.0609 12.3668C29.7045 12.1424 29.351 11.918 29.0002 11.6879C28.1107 11.1016 27.224 10.5181 26.3345 9.93453C26.3036 9.91208 25.8238 9.5586 25.7957 9.58104L31.4891 5.15688C32.1261 4.61263 32.446 4.02349 32.4432 3.4063C32.4404 2.87046 32.2131 2.39915 31.7838 2.04286C31.3853 1.71182 30.8746 1.5463 30.2685 1.54911C29.9178 1.55191 29.6063 1.60802 29.3453 1.72024C30.4172 1.46775 31.4414 1.57716 31.447 2.80033C31.4555 4.36856 29.8027 5.4206 28.7505 6.33517C27.4625 7.45733 26.1549 8.55706 24.8669 9.67923C25.4927 10.1141 26.1745 10.4479 26.8031 10.8912C27.6252 11.4691 28.4642 12.0162 29.2892 12.5913C30.2545 13.2618 31.5453 14.1202 31.6407 15.4219C31.7248 16.575 30.8859 17.4783 29.6905 17.3437C29.2135 17.2904 28.7645 17.1529 28.3352 16.9733C28.8347 17.2427 29.351 17.4587 29.8897 17.5344C31.0261 17.6943 32.4853 17.195 32.6789 15.8203C32.8557 14.5635 32.1149 13.6685 31.158 13.057Z" fill="#8DB600"/>
<path d="M19.6394 2.33742C18.3571 3.1566 18.5198 4.82863 18.5956 6.16682C18.7078 8.14745 18.5927 10.1365 18.7134 12.1143C18.7302 12.3836 19.1371 12.2125 19.1483 12.0105C19.2325 10.5573 19.1147 9.07324 19.0754 7.62003C19.0333 6.01814 18.6404 3.7261 19.7151 2.41877C19.7628 2.35986 19.6955 2.30095 19.6394 2.33742Z" fill="white"/>
<path d="M19.1231 13.6629C19.1175 13.5114 19.1315 13.3515 19.0698 13.2085C19.0024 13.0514 18.7808 13.1748 18.7443 13.287C18.6769 13.4834 18.6882 13.7134 18.705 13.9379C18.705 14.0641 18.7106 14.1903 18.7274 14.3082C18.7443 14.4204 18.8565 14.4569 18.9547 14.4232C19.0698 14.3811 19.1315 14.2773 19.1315 14.1623C19.1315 13.994 19.1287 13.8284 19.1231 13.6629Z" fill="white"/>
<path d="M29.8897 2.38513C29.1686 2.32341 28.6635 2.8901 28.1809 3.36422C27.2156 4.31807 26.2924 5.30558 25.271 6.1977C25.0718 6.37164 25.3019 6.60449 25.5011 6.43055C26.9911 5.12603 28.2257 3.5073 29.8897 2.43843C29.9037 2.43002 29.9206 2.38793 29.8897 2.38513Z" fill="white"/>
<path d="M26.7498 14.6645C25.7902 13.806 24.6088 13.0458 23.4668 12.451C23.4331 12.4342 23.3938 12.4819 23.4163 12.5127C23.7474 12.9448 24.2777 13.2057 24.7239 13.5002C25.3665 13.9239 26.0063 14.3755 26.6741 14.7571C26.7218 14.7795 26.7919 14.7038 26.7498 14.6645Z" fill="white"/>
<path d="M15.5605 9.94975C15.1929 9.36061 14.6794 8.86966 14.0368 8.49093C13.4503 8.14586 12.8134 7.88776 12.1652 7.68296C10.9614 7.30142 9.7969 6.83572 8.57628 6.49346C7.98702 6.32794 6.54472 5.70233 7.3725 4.89998C7.93931 4.35012 8.97474 4.60261 9.60048 4.9084C10.3553 5.27591 10.7173 6.03618 11.3627 6.53554C12.2971 7.25654 13.8151 7.37717 14.7018 6.52152C15.1143 6.12315 15.322 5.66025 15.3191 5.14405C15.3163 4.6531 15.1676 4.15373 14.873 3.65717C14.5924 3.18305 14.1518 2.73139 13.5654 2.31338C12.9902 1.90659 12.269 1.57835 11.4216 1.34269C10.5826 1.10704 9.58645 0.992014 8.45843 1.00043C7.04981 1.00885 5.80113 1.19681 4.74606 1.56152C3.65171 1.94025 2.79868 2.49573 2.20661 3.20831C1.59771 3.94614 1.29185 4.80179 1.29746 5.75003C1.30308 6.74315 1.60613 7.58758 2.201 8.26369C3.57034 9.8207 5.67205 10.1349 7.56611 10.6651C8.27884 10.8643 9.05892 11.0411 9.65941 11.5012C10.6163 12.2334 10.0551 13.4874 9.04208 13.7988C8.27323 14.0373 7.4679 13.8577 6.80007 13.4425C6.00316 12.9459 5.6945 12.0117 4.99861 11.4142C4.07262 10.6231 2.6191 10.3453 1.6398 11.201C1.2189 11.5685 0.99722 12.0426 1.00003 12.57C1.00564 13.3191 1.30027 14.0821 1.87831 14.8396C2.4339 15.5662 3.16066 16.1554 4.04456 16.5846C5.25115 17.1653 6.78324 17.4571 8.59873 17.4459C10.1112 17.4374 11.444 17.213 12.558 16.781C13.7085 16.3349 14.598 15.7037 15.2041 14.9041C16.2479 13.5323 16.4893 11.445 15.5605 9.94975Z" fill="#8DB600" stroke="#221F1F" stroke-width="0.5" stroke-miterlimit="10" stroke-linecap="round" stroke-linejoin="round"/>
<path d="M9.04492 13.796C8.27607 14.0344 7.47074 13.8549 6.8029 13.4397C6.69347 13.3724 6.59526 13.2938 6.50266 13.2124C6.58965 13.3303 6.68225 13.4425 6.78607 13.5463C7.58017 14.329 9.42934 14.6292 10.2992 13.7511C11.2785 12.7608 10.6528 11.3384 9.57526 10.7297C8.67733 10.2219 7.69242 10.0143 6.71311 9.72531C5.05475 9.23997 3.12421 8.66486 2.08037 7.17237C1.75767 6.71228 1.46585 6.18206 1.30591 5.62378C1.30591 5.66586 1.30029 5.70514 1.30029 5.74722C1.30591 6.74034 1.60896 7.58477 2.20383 8.26088C3.57317 9.81789 5.67488 10.1321 7.56895 10.6623C8.28168 10.8615 9.06175 11.0382 9.66224 11.4983C10.6191 12.2306 10.0579 13.4818 9.04492 13.796Z" fill="#8DB600"/>
<path d="M15.5605 9.94982C15.1929 9.36068 14.6794 8.86972 14.0368 8.49099C13.4504 8.14592 12.8134 7.88782 12.1652 7.68303C10.9614 7.30149 9.79692 6.83579 8.5763 6.49353C7.98704 6.32801 6.54474 5.7024 7.37252 4.90005C7.93933 4.35019 8.97476 4.60267 9.6005 4.90846C10.3553 5.27598 10.7173 6.03624 11.3627 6.53561C12.2971 7.2566 13.8151 7.37724 14.7018 6.52158C15.1143 6.12321 15.322 5.66032 15.3192 5.14412C15.3192 4.94213 15.2855 4.73733 15.235 4.53254C15.2041 4.74295 15.148 4.94493 15.0526 5.1329C14.5026 6.23543 13.2259 6.74882 12.1119 6.11479C10.8015 5.36855 9.84743 3.79471 8.24239 3.66005C7.74011 3.61797 7.13401 3.61796 6.70469 3.93778C6.13507 4.3614 5.64682 5.21706 6.18557 5.87633C6.65418 6.44864 7.33604 6.78529 8.0151 7.0462C10.7173 8.0814 15.1508 8.75189 15.2602 12.4887C15.322 14.5788 14.1182 15.9422 12.516 16.7951C12.53 16.7894 12.544 16.7866 12.558 16.781C13.7085 16.335 14.598 15.7037 15.2041 14.9042C16.248 13.5323 16.4893 11.4451 15.5605 9.94982Z" fill="#8DB600"/>
<path d="M5.72259 1.78591C4.31677 2.14781 3.12982 2.87161 2.40587 4.1621C1.81099 5.22255 1.92604 6.82726 2.97829 7.54825C3.0765 7.61559 3.19436 7.44445 3.13543 7.36029C1.36764 4.87748 3.47777 2.82672 5.72819 1.82238C5.74503 1.81396 5.75065 1.78029 5.72259 1.78591Z" fill="white"/>
<path d="M9.42092 16.6828C7.70083 16.7838 6.16594 16.5622 4.60579 15.8019C3.13544 15.0837 0.694199 12.7749 2.71173 11.2908C2.74259 11.2683 2.7426 11.2066 2.69209 11.2235C0.733486 11.9248 1.68753 14.2253 2.96988 15.1314C4.7966 16.4219 7.15085 17.415 9.42092 16.8006C9.47985 16.7838 9.49949 16.6772 9.42092 16.6828Z" fill="white"/>
<path d="M3.68538 8.03643C3.67977 8.03082 3.62645 7.98594 3.6012 7.9663C3.6012 7.9663 3.6012 7.96349 3.6012 7.96068C3.59839 7.94105 3.59278 7.92422 3.58156 7.91019C3.53105 7.82322 3.39636 7.89336 3.39075 7.98032C3.39075 7.99716 3.39636 8.01119 3.39916 8.02802H3.39636C3.39636 8.03082 3.39916 8.03082 3.39916 8.03363C3.42161 8.10376 3.49738 8.15146 3.55911 8.19354C3.55911 8.19073 3.56192 8.18793 3.56192 8.18793C3.63768 8.22159 3.74992 8.10938 3.68538 8.03643Z" fill="white"/>
</svg>
