<svg width="139" height="24" viewBox="0 0 139 24" fill="none" xmlns="http://www.w3.org/2000/svg">
<path d="M33.75 18.12C33.1 18.12 32.525 18.025 32.025 17.835C31.525 17.645 31.135 17.415 30.855 17.145C30.575 16.865 30.435 16.6 30.435 16.35C30.435 16.23 30.465 16.105 30.525 15.975C30.595 15.845 30.68 15.735 30.78 15.645C30.89 15.545 31.005 15.495 31.125 15.495C31.265 15.495 31.395 15.555 31.515 15.675C31.645 15.785 31.8 15.92 31.98 16.08C32.16 16.24 32.385 16.38 32.655 16.5C32.925 16.62 33.27 16.68 33.69 16.68C34.05 16.68 34.37 16.625 34.65 16.515C34.94 16.395 35.165 16.22 35.325 15.99C35.495 15.75 35.58 15.45 35.58 15.09C35.58 14.71 35.49 14.395 35.31 14.145C35.14 13.895 34.905 13.685 34.605 13.515C34.315 13.345 34 13.19 33.66 13.05C33.32 12.91 32.975 12.76 32.625 12.6C32.275 12.44 31.955 12.25 31.665 12.03C31.375 11.8 31.14 11.515 30.96 11.175C30.79 10.825 30.705 10.39 30.705 9.87C30.705 9.32 30.805 8.86 31.005 8.49C31.215 8.12 31.49 7.825 31.83 7.605C32.17 7.385 32.545 7.23 32.955 7.14C33.365 7.04 33.77 6.99 34.17 6.99C34.42 6.99 34.695 7.01 34.995 7.05C35.305 7.08 35.605 7.14 35.895 7.23C36.185 7.31 36.425 7.42 36.615 7.56C36.805 7.7 36.9 7.87 36.9 8.07C36.9 8.17 36.875 8.29 36.825 8.43C36.775 8.56 36.7 8.675 36.6 8.775C36.51 8.875 36.39 8.925 36.24 8.925C36.11 8.925 35.965 8.88 35.805 8.79C35.645 8.69 35.435 8.595 35.175 8.505C34.925 8.405 34.59 8.355 34.17 8.355C33.81 8.355 33.485 8.405 33.195 8.505C32.915 8.605 32.695 8.755 32.535 8.955C32.375 9.145 32.295 9.4 32.295 9.72C32.295 10.04 32.38 10.305 32.55 10.515C32.73 10.715 32.965 10.89 33.255 11.04C33.545 11.18 33.86 11.315 34.2 11.445C34.55 11.575 34.895 11.73 35.235 11.91C35.585 12.08 35.905 12.29 36.195 12.54C36.495 12.79 36.73 13.11 36.9 13.5C37.08 13.88 37.17 14.355 37.17 14.925C37.17 15.645 37.02 16.245 36.72 16.725C36.43 17.195 36.025 17.545 35.505 17.775C34.995 18.005 34.41 18.12 33.75 18.12ZM39.2661 18C39.0361 18 38.8461 17.945 38.6961 17.835C38.5561 17.725 38.4861 17.605 38.4861 17.475V11.4C38.4861 11.25 38.5561 11.13 38.6961 11.04C38.8461 10.94 39.0361 10.89 39.2661 10.89C39.4861 10.89 39.6711 10.94 39.8211 11.04C39.9811 11.13 40.0611 11.25 40.0611 11.4V17.475C40.0611 17.605 39.9811 17.725 39.8211 17.835C39.6711 17.945 39.4861 18 39.2661 18ZM39.2661 9.105C39.0061 9.105 38.7861 9.02 38.6061 8.85C38.4261 8.68 38.3361 8.49 38.3361 8.28C38.3361 8.05 38.4261 7.855 38.6061 7.695C38.7861 7.535 39.0061 7.455 39.2661 7.455C39.5161 7.455 39.7261 7.535 39.8961 7.695C40.0761 7.855 40.1661 8.05 40.1661 8.28C40.1661 8.49 40.0761 8.68 39.8961 8.85C39.7261 9.02 39.5161 9.105 39.2661 9.105ZM44.3791 21.375C43.7991 21.375 43.2641 21.29 42.7741 21.12C42.2841 20.96 41.8941 20.725 41.6041 20.415C41.3141 20.105 41.1691 19.735 41.1691 19.305C41.1691 18.905 41.2841 18.57 41.5141 18.3C41.7441 18.04 42.0141 17.84 42.3241 17.7C42.1241 17.61 41.9591 17.49 41.8291 17.34C41.6991 17.19 41.6341 16.98 41.6341 16.71C41.6341 16.43 41.7041 16.205 41.8441 16.035C41.9841 15.865 42.1641 15.71 42.3841 15.57C42.1041 15.35 41.8841 15.08 41.7241 14.76C41.5741 14.43 41.4991 14.07 41.4991 13.68V13.26C41.4991 12.78 41.6141 12.355 41.8441 11.985C42.0741 11.615 42.3991 11.325 42.8191 11.115C43.2491 10.905 43.7391 10.8 44.2891 10.8C44.6291 10.8 44.9441 10.845 45.2341 10.935C45.5341 11.025 45.7991 11.15 46.0291 11.31C46.1891 10.94 46.3491 10.68 46.5091 10.53C46.6791 10.38 46.8391 10.305 46.9891 10.305C47.1991 10.305 47.3591 10.365 47.4691 10.485C47.5791 10.605 47.6341 10.725 47.6341 10.845C47.6341 10.925 47.6091 11 47.5591 11.07C47.5191 11.13 47.4591 11.18 47.3791 11.22C47.2791 11.27 47.1591 11.34 47.0191 11.43C46.8891 11.51 46.7591 11.64 46.6291 11.82C46.7991 12.01 46.9241 12.23 47.0041 12.48C47.0841 12.73 47.1241 12.99 47.1241 13.26V13.68C47.1241 14.15 47.0041 14.575 46.7641 14.955C46.5241 15.335 46.1891 15.635 45.7591 15.855C45.3291 16.065 44.8391 16.17 44.2891 16.17C43.8991 16.17 43.5541 16.11 43.2541 15.99C43.1741 16.04 43.1041 16.1 43.0441 16.17C42.9941 16.23 42.9691 16.31 42.9691 16.41C42.9691 16.59 43.0791 16.72 43.2991 16.8C43.5191 16.88 43.7991 16.94 44.1391 16.98C44.4891 17.02 44.8591 17.07 45.2491 17.13C45.6391 17.19 46.0041 17.29 46.3441 17.43C46.6941 17.56 46.9791 17.755 47.1991 18.015C47.4191 18.285 47.5291 18.65 47.5291 19.11C47.5291 19.63 47.3841 20.055 47.0941 20.385C46.8041 20.725 46.4191 20.975 45.9391 21.135C45.4691 21.295 44.9491 21.375 44.3791 21.375ZM44.3491 20.325C44.8391 20.325 45.2341 20.215 45.5341 19.995C45.8441 19.785 45.9991 19.505 45.9991 19.155C45.9991 18.905 45.9241 18.71 45.7741 18.57C45.6241 18.43 45.4291 18.325 45.1891 18.255C44.9491 18.185 44.6941 18.135 44.4241 18.105C44.1641 18.075 43.9141 18.045 43.6741 18.015C43.3941 18.115 43.1541 18.255 42.9541 18.435C42.7641 18.625 42.6691 18.86 42.6691 19.14C42.6691 19.51 42.8241 19.8 43.1341 20.01C43.4541 20.22 43.8591 20.325 44.3491 20.325ZM44.3191 15.165C44.7191 15.165 45.0291 15.025 45.2491 14.745C45.4791 14.465 45.5941 14.11 45.5941 13.68V13.26C45.5941 12.85 45.4791 12.505 45.2491 12.225C45.0291 11.945 44.7141 11.805 44.3041 11.805C43.8941 11.805 43.5791 11.945 43.3591 12.225C43.1391 12.505 43.0291 12.85 43.0291 13.26V13.665C43.0291 14.085 43.1391 14.44 43.3591 14.73C43.5791 15.02 43.8991 15.165 44.3191 15.165ZM49.4468 18C49.2168 18 49.0268 17.945 48.8768 17.835C48.7368 17.725 48.6668 17.605 48.6668 17.475V11.4C48.6668 11.25 48.7368 11.13 48.8768 11.04C49.0268 10.94 49.2168 10.89 49.4468 10.89C49.6368 10.89 49.8018 10.94 49.9418 11.04C50.0818 11.13 50.1518 11.25 50.1518 11.4V11.94C50.3018 11.65 50.5468 11.39 50.8868 11.16C51.2368 10.92 51.6618 10.8 52.1618 10.8C52.6318 10.8 53.0618 10.935 53.4518 11.205C53.8518 11.465 54.1718 11.82 54.4118 12.27C54.6518 12.71 54.7718 13.205 54.7718 13.755V17.475C54.7718 17.645 54.6868 17.775 54.5168 17.865C54.3568 17.955 54.1768 18 53.9768 18C53.7968 18 53.6218 17.955 53.4518 17.865C53.2818 17.775 53.1968 17.645 53.1968 17.475V13.755C53.1968 13.495 53.1268 13.245 52.9868 13.005C52.8568 12.765 52.6768 12.57 52.4468 12.42C52.2168 12.27 51.9618 12.195 51.6818 12.195C51.4418 12.195 51.2118 12.26 50.9918 12.39C50.7718 12.51 50.5918 12.685 50.4518 12.915C50.3118 13.145 50.2418 13.425 50.2418 13.755V17.475C50.2418 17.605 50.1618 17.725 50.0018 17.835C49.8518 17.945 49.6668 18 49.4468 18ZM60.3055 18C60.1055 18 59.9205 17.955 59.7505 17.865C59.5905 17.775 59.5105 17.645 59.5105 17.475V7.545C59.5105 7.365 59.5905 7.235 59.7505 7.155C59.9205 7.075 60.1055 7.035 60.3055 7.035C60.5055 7.035 60.6855 7.075 60.8455 7.155C61.0155 7.235 61.1005 7.365 61.1005 7.545V17.475C61.1005 17.645 61.0155 17.775 60.8455 17.865C60.6855 17.955 60.5055 18 60.3055 18ZM63.6558 18C63.4258 18 63.2358 17.945 63.0858 17.835C62.9458 17.725 62.8758 17.605 62.8758 17.475V11.4C62.8758 11.25 62.9458 11.13 63.0858 11.04C63.2358 10.94 63.4258 10.89 63.6558 10.89C63.8458 10.89 64.0108 10.94 64.1508 11.04C64.2908 11.13 64.3608 11.25 64.3608 11.4V11.94C64.5108 11.65 64.7558 11.39 65.0958 11.16C65.4458 10.92 65.8708 10.8 66.3708 10.8C66.8408 10.8 67.2708 10.935 67.6608 11.205C68.0608 11.465 68.3808 11.82 68.6208 12.27C68.8608 12.71 68.9808 13.205 68.9808 13.755V17.475C68.9808 17.645 68.8958 17.775 68.7258 17.865C68.5658 17.955 68.3858 18 68.1858 18C68.0058 18 67.8308 17.955 67.6608 17.865C67.4908 17.775 67.4058 17.645 67.4058 17.475V13.755C67.4058 13.495 67.3358 13.245 67.1958 13.005C67.0658 12.765 66.8858 12.57 66.6558 12.42C66.4258 12.27 66.1708 12.195 65.8908 12.195C65.6508 12.195 65.4208 12.26 65.2008 12.39C64.9808 12.51 64.8008 12.685 64.6608 12.915C64.5208 13.145 64.4508 13.425 64.4508 13.755V17.475C64.4508 17.605 64.3708 17.725 64.2108 17.835C64.0608 17.945 63.8758 18 63.6558 18ZM76.9295 18.09C76.7095 18.09 76.4995 18.045 76.2995 17.955C76.0995 17.865 75.9695 17.73 75.9095 17.55L72.9395 7.83C72.9295 7.78 72.9245 7.73 72.9245 7.68C72.9245 7.55 72.9745 7.44 73.0745 7.35C73.1745 7.25 73.2995 7.175 73.4495 7.125C73.6095 7.065 73.7645 7.035 73.9145 7.035C74.0445 7.035 74.1595 7.06 74.2595 7.11C74.3695 7.16 74.4395 7.245 74.4695 7.365L76.9145 15.915L78.2795 10.545C78.3195 10.385 78.4145 10.27 78.5645 10.2C78.7245 10.12 78.8895 10.08 79.0595 10.08C79.2495 10.08 79.4195 10.12 79.5695 10.2C79.7195 10.27 79.8145 10.385 79.8545 10.545L81.2195 15.915L83.6645 7.365C83.7045 7.245 83.7745 7.16 83.8745 7.11C83.9745 7.06 84.0895 7.035 84.2195 7.035C84.3695 7.035 84.5195 7.065 84.6695 7.125C84.8195 7.175 84.9445 7.25 85.0445 7.35C85.1545 7.44 85.2095 7.55 85.2095 7.68C85.2095 7.73 85.1995 7.78 85.1795 7.83L82.2245 17.55C82.1645 17.73 82.0345 17.865 81.8345 17.955C81.6445 18.045 81.4345 18.09 81.2045 18.09C80.9845 18.09 80.7745 18.045 80.5745 17.955C80.3745 17.865 80.2545 17.73 80.2145 17.55L79.0595 13.02L77.9345 17.55C77.8845 17.73 77.7595 17.865 77.5595 17.955C77.3695 18.045 77.1595 18.09 76.9295 18.09ZM87.0054 18C86.7754 18 86.5854 17.945 86.4354 17.835C86.2954 17.725 86.2254 17.605 86.2254 17.475V11.4C86.2254 11.25 86.2954 11.13 86.4354 11.04C86.5854 10.94 86.7754 10.89 87.0054 10.89C87.2254 10.89 87.4104 10.94 87.5604 11.04C87.7204 11.13 87.8004 11.25 87.8004 11.4V17.475C87.8004 17.605 87.7204 17.725 87.5604 17.835C87.4104 17.945 87.2254 18 87.0054 18ZM87.0054 9.105C86.7454 9.105 86.5254 9.02 86.3454 8.85C86.1654 8.68 86.0754 8.49 86.0754 8.28C86.0754 8.05 86.1654 7.855 86.3454 7.695C86.5254 7.535 86.7454 7.455 87.0054 7.455C87.2554 7.455 87.4654 7.535 87.6354 7.695C87.8154 7.855 87.9054 8.05 87.9054 8.28C87.9054 8.49 87.8154 8.68 87.6354 8.85C87.4654 9.02 87.2554 9.105 87.0054 9.105ZM92.0284 18C91.1784 18 90.5284 17.815 90.0784 17.445C89.6284 17.065 89.4034 16.47 89.4034 15.66V8.145C89.4034 7.995 89.4834 7.875 89.6434 7.785C89.8134 7.685 89.9934 7.635 90.1834 7.635C90.3734 7.635 90.5534 7.685 90.7234 7.785C90.8934 7.875 90.9784 7.995 90.9784 8.145V10.89H92.8084C92.9484 10.89 93.0534 10.95 93.1234 11.07C93.2034 11.19 93.2434 11.325 93.2434 11.475C93.2434 11.625 93.2034 11.76 93.1234 11.88C93.0534 12 92.9484 12.06 92.8084 12.06H90.9784V15.66C90.9784 16.02 91.0534 16.275 91.2034 16.425C91.3634 16.575 91.6384 16.65 92.0284 16.65H92.5384C92.7684 16.65 92.9384 16.72 93.0484 16.86C93.1684 16.99 93.2284 17.145 93.2284 17.325C93.2284 17.495 93.1684 17.65 93.0484 17.79C92.9384 17.93 92.7684 18 92.5384 18H92.0284ZM95.121 18C94.891 18 94.701 17.945 94.551 17.835C94.411 17.725 94.341 17.605 94.341 17.475V7.17C94.341 7.02 94.411 6.9 94.551 6.81C94.701 6.71 94.891 6.66 95.121 6.66C95.341 6.66 95.526 6.71 95.676 6.81C95.836 6.9 95.916 7.02 95.916 7.17V11.94C96.066 11.65 96.301 11.39 96.621 11.16C96.951 10.92 97.356 10.8 97.836 10.8C98.306 10.8 98.736 10.935 99.126 11.205C99.526 11.465 99.846 11.82 100.086 12.27C100.326 12.71 100.446 13.205 100.446 13.755V17.475C100.446 17.645 100.361 17.775 100.191 17.865C100.031 17.955 99.851 18 99.651 18C99.471 18 99.296 17.955 99.126 17.865C98.956 17.775 98.871 17.645 98.871 17.475V13.755C98.871 13.495 98.801 13.245 98.661 13.005C98.521 12.765 98.336 12.57 98.106 12.42C97.886 12.27 97.636 12.195 97.356 12.195C97.116 12.195 96.886 12.26 96.666 12.39C96.446 12.51 96.266 12.685 96.126 12.915C95.986 13.145 95.916 13.425 95.916 13.755V17.475C95.916 17.605 95.836 17.725 95.676 17.835C95.526 17.945 95.341 18 95.121 18ZM105.379 18C105.239 18 105.089 17.97 104.929 17.91C104.769 17.85 104.639 17.775 104.539 17.685C104.439 17.585 104.389 17.47 104.389 17.34C104.389 17.31 104.394 17.265 104.404 17.205L107.389 7.485C107.449 7.305 107.574 7.17 107.764 7.08C107.964 6.99 108.174 6.945 108.394 6.945C108.624 6.945 108.834 6.99 109.024 7.08C109.224 7.17 109.354 7.305 109.414 7.485L112.384 17.205C112.404 17.265 112.414 17.31 112.414 17.34C112.414 17.46 112.359 17.57 112.249 17.67C112.149 17.77 112.019 17.85 111.859 17.91C111.709 17.97 111.559 18 111.409 18C111.279 18 111.164 17.975 111.064 17.925C110.974 17.875 110.909 17.79 110.869 17.67L110.254 15.54H106.534L105.934 17.67C105.904 17.79 105.834 17.875 105.724 17.925C105.624 17.975 105.509 18 105.379 18ZM106.894 14.265H109.894L108.394 9.12L106.894 14.265ZM114.208 21.375C113.988 21.375 113.803 21.32 113.653 21.21C113.513 21.1 113.443 20.98 113.443 20.85V11.4C113.443 11.25 113.513 11.13 113.653 11.04C113.803 10.94 113.983 10.89 114.193 10.89C114.403 10.89 114.578 10.94 114.718 11.04C114.858 11.13 114.928 11.25 114.928 11.4V11.94C115.098 11.65 115.353 11.39 115.693 11.16C116.043 10.92 116.458 10.8 116.938 10.8C117.438 10.8 117.893 10.935 118.303 11.205C118.713 11.465 119.038 11.82 119.278 12.27C119.518 12.71 119.638 13.205 119.638 13.755V15.135C119.638 15.655 119.513 16.145 119.263 16.605C119.023 17.055 118.703 17.42 118.303 17.7C117.903 17.98 117.468 18.12 116.998 18.12C116.548 18.12 116.143 18.005 115.783 17.775C115.423 17.535 115.168 17.26 115.018 16.95V20.85C115.018 20.98 114.938 21.1 114.778 21.21C114.628 21.32 114.438 21.375 114.208 21.375ZM116.533 16.725C116.803 16.725 117.053 16.65 117.283 16.5C117.513 16.35 117.698 16.15 117.838 15.9C117.988 15.65 118.063 15.395 118.063 15.135V13.755C118.063 13.495 117.993 13.245 117.853 13.005C117.713 12.765 117.523 12.57 117.283 12.42C117.053 12.27 116.793 12.195 116.503 12.195C116.263 12.195 116.028 12.26 115.798 12.39C115.568 12.51 115.378 12.685 115.228 12.915C115.088 13.145 115.018 13.425 115.018 13.755V15.48C115.018 15.6 115.083 15.76 115.213 15.96C115.343 16.15 115.523 16.325 115.753 16.485C115.983 16.645 116.243 16.725 116.533 16.725ZM121.795 21.375C121.575 21.375 121.39 21.32 121.24 21.21C121.1 21.1 121.03 20.98 121.03 20.85V11.4C121.03 11.25 121.1 11.13 121.24 11.04C121.39 10.94 121.57 10.89 121.78 10.89C121.99 10.89 122.165 10.94 122.305 11.04C122.445 11.13 122.515 11.25 122.515 11.4V11.94C122.685 11.65 122.94 11.39 123.28 11.16C123.63 10.92 124.045 10.8 124.525 10.8C125.025 10.8 125.48 10.935 125.89 11.205C126.3 11.465 126.625 11.82 126.865 12.27C127.105 12.71 127.225 13.205 127.225 13.755V15.135C127.225 15.655 127.1 16.145 126.85 16.605C126.61 17.055 126.29 17.42 125.89 17.7C125.49 17.98 125.055 18.12 124.585 18.12C124.135 18.12 123.73 18.005 123.37 17.775C123.01 17.535 122.755 17.26 122.605 16.95V20.85C122.605 20.98 122.525 21.1 122.365 21.21C122.215 21.32 122.025 21.375 121.795 21.375ZM124.12 16.725C124.39 16.725 124.64 16.65 124.87 16.5C125.1 16.35 125.285 16.15 125.425 15.9C125.575 15.65 125.65 15.395 125.65 15.135V13.755C125.65 13.495 125.58 13.245 125.44 13.005C125.3 12.765 125.11 12.57 124.87 12.42C124.64 12.27 124.38 12.195 124.09 12.195C123.85 12.195 123.615 12.26 123.385 12.39C123.155 12.51 122.965 12.685 122.815 12.915C122.675 13.145 122.605 13.425 122.605 13.755V15.48C122.605 15.6 122.67 15.76 122.8 15.96C122.93 16.15 123.11 16.325 123.34 16.485C123.57 16.645 123.83 16.725 124.12 16.725ZM129.518 18C129.288 18 129.098 17.945 128.948 17.835C128.808 17.725 128.738 17.605 128.738 17.475V7.17C128.738 7.02 128.808 6.9 128.948 6.81C129.098 6.71 129.288 6.66 129.518 6.66C129.738 6.66 129.923 6.71 130.073 6.81C130.233 6.9 130.313 7.02 130.313 7.17V17.475C130.313 17.605 130.233 17.725 130.073 17.835C129.923 17.945 129.738 18 129.518 18ZM135.3 18.12C134.62 18.12 134.02 17.995 133.5 17.745C132.98 17.495 132.57 17.15 132.27 16.71C131.97 16.26 131.82 15.735 131.82 15.135V13.71C131.82 13.18 131.96 12.695 132.24 12.255C132.53 11.815 132.91 11.465 133.38 11.205C133.85 10.935 134.37 10.8 134.94 10.8C135.48 10.8 135.975 10.92 136.425 11.16C136.875 11.39 137.235 11.715 137.505 12.135C137.785 12.555 137.925 13.035 137.925 13.575C137.925 13.995 137.86 14.295 137.73 14.475C137.6 14.655 137.43 14.765 137.22 14.805C137.01 14.845 136.79 14.865 136.56 14.865H133.395V15.21C133.395 15.71 133.575 16.11 133.935 16.41C134.305 16.7 134.775 16.845 135.345 16.845C135.695 16.845 135.98 16.795 136.2 16.695C136.42 16.595 136.605 16.5 136.755 16.41C136.905 16.32 137.045 16.275 137.175 16.275C137.305 16.275 137.415 16.315 137.505 16.395C137.595 16.475 137.665 16.57 137.715 16.68C137.765 16.79 137.79 16.89 137.79 16.98C137.79 17.13 137.685 17.295 137.475 17.475C137.275 17.655 136.99 17.81 136.62 17.94C136.25 18.06 135.81 18.12 135.3 18.12ZM133.395 13.89H135.885C136.105 13.89 136.25 13.86 136.32 13.8C136.4 13.74 136.44 13.62 136.44 13.44C136.44 13.18 136.375 12.94 136.245 12.72C136.115 12.49 135.935 12.315 135.705 12.195C135.475 12.065 135.215 12 134.925 12C134.645 12 134.39 12.06 134.16 12.18C133.93 12.3 133.745 12.465 133.605 12.675C133.465 12.885 133.395 13.13 133.395 13.41V13.89Z" fill="black"/>
<path d="M8.68377 24C5.11185 23.9794 2.15723 16.6879 2.15723 12.9745C2.15723 6.90873 6.70762 5.58077 8.4613 5.58077C9.25162 5.58077 10.0955 5.89112 10.8398 6.16577C11.3603 6.35734 11.8986 6.55511 12.198 6.55511C12.3772 6.55511 12.7995 6.38687 13.1724 6.23927C13.9675 5.92272 14.957 5.5293 16.1091 5.5293C16.1112 5.5293 16.114 5.5293 16.116 5.5293C16.9763 5.5293 19.5849 5.71811 21.1532 8.0733L21.5206 8.62534L20.9919 9.0243C20.2366 9.5942 18.8585 10.6338 18.8585 12.6931C18.8585 15.132 20.4192 16.07 21.169 16.5211C21.5 16.7202 21.8426 16.9255 21.8426 17.3746C21.8426 17.6678 19.5025 23.9636 16.1043 23.9636C15.2728 23.9636 14.685 23.7137 14.1666 23.4933C13.642 23.2701 13.1895 23.0779 12.4417 23.0779C12.0627 23.0779 11.5834 23.2571 11.076 23.4473C10.3826 23.7061 9.59769 24 8.70712 24H8.68377Z" fill="black"/>
<path d="M16.4692 0C16.5577 3.19106 14.2756 5.40488 11.9961 5.26603C11.6205 2.71945 14.2753 0 16.4692 0Z" fill="black"/>
</svg>
