<svg width="157" height="24" viewBox="0 0 157 24" fill="none" xmlns="http://www.w3.org/2000/svg">
<path d="M30.495 15.425C30.495 15.265 30.55 15.11 30.66 14.96C30.78 14.81 30.91 14.735 31.05 14.735C31.14 14.735 31.255 14.8 31.395 14.93C31.535 15.05 31.68 15.19 31.83 15.35C31.98 15.5 32.215 15.64 32.535 15.77C32.855 15.89 33.215 15.95 33.615 15.95C34.265 15.95 34.775 15.795 35.145 15.485C35.515 15.165 35.7 14.7 35.7 14.09C35.7 13.54 35.53 13.095 35.19 12.755C34.85 12.405 34.44 12.14 33.96 11.96C33.48 11.78 32.995 11.59 32.505 11.39C32.025 11.18 31.615 10.865 31.275 10.445C30.935 10.015 30.765 9.465 30.765 8.795C30.765 8.275 30.865 7.825 31.065 7.445C31.265 7.055 31.53 6.765 31.86 6.575C32.2 6.375 32.55 6.23 32.91 6.14C33.27 6.05 33.655 6.005 34.065 6.005C34.685 6.005 35.275 6.095 35.835 6.275C36.405 6.445 36.69 6.685 36.69 6.995C36.69 7.135 36.64 7.285 36.54 7.445C36.44 7.605 36.31 7.685 36.15 7.685C36.11 7.685 35.88 7.59 35.46 7.4C35.04 7.21 34.575 7.115 34.065 7.115C33.455 7.115 32.96 7.24 32.58 7.49C32.21 7.74 32.025 8.135 32.025 8.675C32.025 9.135 32.195 9.51 32.535 9.8C32.875 10.08 33.285 10.305 33.765 10.475C34.255 10.645 34.74 10.84 35.22 11.06C35.7 11.28 36.11 11.635 36.45 12.125C36.79 12.605 36.96 13.22 36.96 13.97C36.96 15.01 36.66 15.795 36.06 16.325C35.46 16.855 34.665 17.12 33.675 17.12C32.785 17.12 32.03 16.93 31.41 16.55C30.8 16.17 30.495 15.795 30.495 15.425ZM38.4743 7.73C38.3243 7.58 38.2493 7.41 38.2493 7.22C38.2493 7.03 38.3243 6.865 38.4743 6.725C38.6243 6.585 38.8093 6.515 39.0293 6.515C39.2393 6.515 39.4193 6.585 39.5693 6.725C39.7193 6.865 39.7943 7.03 39.7943 7.22C39.7943 7.41 39.7193 7.58 39.5693 7.73C39.4193 7.87 39.2393 7.94 39.0293 7.94C38.8193 7.94 38.6343 7.87 38.4743 7.73ZM38.4143 16.55V10.325C38.4143 10.195 38.4743 10.09 38.5943 10.01C38.7143 9.93 38.8593 9.89 39.0293 9.89C39.2093 9.89 39.3593 9.93 39.4793 10.01C39.5993 10.09 39.6593 10.195 39.6593 10.325V16.55C39.6593 16.66 39.5943 16.765 39.4643 16.865C39.3443 16.955 39.1993 17 39.0293 17C38.8593 17 38.7143 16.955 38.5943 16.865C38.4743 16.775 38.4143 16.67 38.4143 16.55ZM40.8769 18.41C40.8769 17.68 41.2819 17.135 42.0919 16.775C41.5819 16.585 41.3269 16.25 41.3269 15.77C41.3269 15.31 41.5769 14.94 42.0769 14.66C41.5069 14.2 41.2219 13.57 41.2219 12.77V12.275C41.2219 11.545 41.4669 10.95 41.9569 10.49C42.4469 10.03 43.0919 9.8 43.8919 9.8C44.5719 9.8 45.1569 9.995 45.6469 10.385C45.9469 9.735 46.2869 9.41 46.6669 9.41C46.8269 9.41 46.9569 9.46 47.0569 9.56C47.1569 9.65 47.2069 9.755 47.2069 9.875C47.2069 10.025 47.1219 10.14 46.9519 10.22C46.6119 10.31 46.3419 10.52 46.1419 10.85C46.4519 11.22 46.6069 11.695 46.6069 12.275V12.77C46.6069 13.49 46.3519 14.085 45.8419 14.555C45.3319 15.025 44.6819 15.26 43.8919 15.26C43.4819 15.26 43.1119 15.185 42.7819 15.035C42.5319 15.185 42.4069 15.355 42.4069 15.545C42.4069 15.735 42.5219 15.885 42.7519 15.995C42.9819 16.095 43.2669 16.16 43.6069 16.19C43.9469 16.21 44.3169 16.255 44.7169 16.325C45.1169 16.395 45.4869 16.485 45.8269 16.595C46.1669 16.705 46.4519 16.9 46.6819 17.18C46.9119 17.46 47.0269 17.815 47.0269 18.245C47.0269 18.955 46.7419 19.495 46.1719 19.865C45.6119 20.245 44.8819 20.435 43.9819 20.435C43.0819 20.435 42.3369 20.25 41.7469 19.88C41.1669 19.52 40.8769 19.03 40.8769 18.41ZM42.0619 18.275C42.0619 18.665 42.2319 18.975 42.5719 19.205C42.9219 19.445 43.3869 19.565 43.9669 19.565C44.5269 19.565 44.9719 19.445 45.3019 19.205C45.6419 18.975 45.8119 18.665 45.8119 18.275C45.8119 18.115 45.7819 17.975 45.7219 17.855C45.6719 17.735 45.5869 17.635 45.4669 17.555C45.3469 17.475 45.2269 17.405 45.1069 17.345C44.9869 17.295 44.8319 17.25 44.6419 17.21C44.4519 17.18 44.2919 17.155 44.1619 17.135C44.0419 17.125 43.8769 17.11 43.6669 17.09C43.4669 17.07 43.3269 17.055 43.2469 17.045C42.4569 17.305 42.0619 17.715 42.0619 18.275ZM42.4369 12.755C42.4369 13.235 42.5669 13.63 42.8269 13.94C43.0969 14.25 43.4619 14.405 43.9219 14.405C44.3619 14.405 44.7169 14.255 44.9869 13.955C45.2569 13.645 45.3919 13.25 45.3919 12.77V12.275C45.3919 11.815 45.2569 11.43 44.9869 11.12C44.7169 10.81 44.3569 10.655 43.9069 10.655C43.4469 10.655 43.0869 10.81 42.8269 11.12C42.5669 11.42 42.4369 11.805 42.4369 12.275V12.755ZM48.2873 16.55V10.325C48.2873 10.195 48.3423 10.09 48.4523 10.01C48.5723 9.93 48.7223 9.89 48.9023 9.89C49.0523 9.89 49.1823 9.935 49.2923 10.025C49.4123 10.105 49.4723 10.205 49.4723 10.325V10.94C49.6323 10.62 49.8873 10.35 50.2373 10.13C50.5973 9.91 51.0123 9.8 51.4823 9.8C52.1923 9.8 52.8073 10.085 53.3273 10.655C53.8573 11.215 54.1223 11.89 54.1223 12.68V16.55C54.1223 16.69 54.0573 16.8 53.9273 16.88C53.8073 16.96 53.6623 17 53.4923 17C53.3323 17 53.1873 16.96 53.0573 16.88C52.9373 16.8 52.8773 16.69 52.8773 16.55V12.68C52.8773 12.23 52.7073 11.825 52.3673 11.465C52.0273 11.105 51.6273 10.925 51.1673 10.925C50.7373 10.925 50.3573 11.09 50.0273 11.42C49.6973 11.74 49.5323 12.16 49.5323 12.68V16.55C49.5323 16.66 49.4673 16.765 49.3373 16.865C49.2073 16.955 49.0623 17 48.9023 17C48.7323 17 48.5873 16.955 48.4673 16.865C48.3473 16.775 48.2873 16.67 48.2873 16.55ZM59.0142 16.55V6.47C59.0142 6.33 59.0742 6.225 59.1942 6.155C59.3242 6.075 59.4742 6.035 59.6442 6.035C59.8142 6.035 59.9592 6.075 60.0792 6.155C60.2092 6.225 60.2742 6.33 60.2742 6.47V16.55C60.2742 16.69 60.2092 16.8 60.0792 16.88C59.9592 16.96 59.8142 17 59.6442 17C59.4742 17 59.3242 16.96 59.1942 16.88C59.0742 16.8 59.0142 16.69 59.0142 16.55ZM62.1448 16.55V10.325C62.1448 10.195 62.1998 10.09 62.3098 10.01C62.4298 9.93 62.5798 9.89 62.7598 9.89C62.9098 9.89 63.0398 9.935 63.1498 10.025C63.2698 10.105 63.3298 10.205 63.3298 10.325V10.94C63.4898 10.62 63.7448 10.35 64.0948 10.13C64.4548 9.91 64.8698 9.8 65.3398 9.8C66.0498 9.8 66.6648 10.085 67.1848 10.655C67.7148 11.215 67.9798 11.89 67.9798 12.68V16.55C67.9798 16.69 67.9148 16.8 67.7848 16.88C67.6648 16.96 67.5198 17 67.3498 17C67.1898 17 67.0448 16.96 66.9148 16.88C66.7948 16.8 66.7348 16.69 66.7348 16.55V12.68C66.7348 12.23 66.5648 11.825 66.2248 11.465C65.8848 11.105 65.4848 10.925 65.0248 10.925C64.5948 10.925 64.2148 11.09 63.8848 11.42C63.5548 11.74 63.3898 12.16 63.3898 12.68V16.55C63.3898 16.66 63.3248 16.765 63.1948 16.865C63.0648 16.955 62.9198 17 62.7598 17C62.5898 17 62.4448 16.955 62.3248 16.865C62.2048 16.775 62.1448 16.67 62.1448 16.55ZM72.0616 6.545C72.0616 6.405 72.1416 6.285 72.3016 6.185C72.4716 6.085 72.6466 6.035 72.8266 6.035C73.0766 6.035 73.2316 6.13 73.2916 6.32L75.8266 15.23L77.2516 9.74C77.3216 9.48 77.5416 9.35 77.9116 9.35C78.2616 9.35 78.4716 9.48 78.5416 9.74L79.9816 15.23L82.5016 6.32C82.5616 6.13 82.7216 6.035 82.9816 6.035C83.1616 6.035 83.3316 6.085 83.4916 6.185C83.6516 6.285 83.7316 6.405 83.7316 6.545C83.7316 6.605 83.7266 6.65 83.7166 6.68L80.7616 16.655C80.6716 16.945 80.4116 17.09 79.9816 17.09C79.5316 17.09 79.2716 16.945 79.2016 16.655L77.9116 11.705L76.6066 16.655C76.5266 16.945 76.2716 17.09 75.8416 17.09C75.4116 17.09 75.1516 16.945 75.0616 16.655L72.0916 6.68C72.0716 6.62 72.0616 6.575 72.0616 6.545ZM84.9538 7.73C84.8038 7.58 84.7288 7.41 84.7288 7.22C84.7288 7.03 84.8038 6.865 84.9538 6.725C85.1038 6.585 85.2888 6.515 85.5088 6.515C85.7188 6.515 85.8988 6.585 86.0488 6.725C86.1988 6.865 86.2738 7.03 86.2738 7.22C86.2738 7.41 86.1988 7.58 86.0488 7.73C85.8988 7.87 85.7188 7.94 85.5088 7.94C85.2988 7.94 85.1138 7.87 84.9538 7.73ZM84.8938 16.55V10.325C84.8938 10.195 84.9538 10.09 85.0738 10.01C85.1938 9.93 85.3388 9.89 85.5088 9.89C85.6888 9.89 85.8388 9.93 85.9588 10.01C86.0788 10.09 86.1388 10.195 86.1388 10.325V16.55C86.1388 16.66 86.0738 16.765 85.9438 16.865C85.8238 16.955 85.6788 17 85.5088 17C85.3388 17 85.1938 16.955 85.0738 16.865C84.9538 16.775 84.8938 16.67 84.8938 16.55ZM87.8814 14.735V7.01C87.8814 6.89 87.9464 6.79 88.0764 6.71C88.2064 6.62 88.3464 6.575 88.4964 6.575C88.6564 6.575 88.8014 6.62 88.9314 6.71C89.0614 6.79 89.1264 6.89 89.1264 7.01V9.89H91.0164C91.1264 9.89 91.2164 9.94 91.2864 10.04C91.3564 10.14 91.3914 10.255 91.3914 10.385C91.3914 10.515 91.3564 10.63 91.2864 10.73C91.2164 10.82 91.1264 10.865 91.0164 10.865H89.1264V14.735C89.1264 15.165 89.2164 15.47 89.3964 15.65C89.5864 15.82 89.9114 15.905 90.3714 15.905H90.8364C91.0064 15.905 91.1364 15.96 91.2264 16.07C91.3264 16.17 91.3764 16.295 91.3764 16.445C91.3764 16.595 91.3264 16.725 91.2264 16.835C91.1264 16.945 90.9964 17 90.8364 17H90.3714C88.7114 17 87.8814 16.245 87.8814 14.735ZM92.5699 16.55V6.035C92.5699 5.905 92.6249 5.8 92.7349 5.72C92.8549 5.64 93.0049 5.6 93.1849 5.6C93.3649 5.6 93.5149 5.64 93.6349 5.72C93.7549 5.8 93.8149 5.905 93.8149 6.035V10.94C93.9849 10.62 94.2349 10.35 94.5649 10.13C94.9049 9.91 95.3049 9.8 95.7649 9.8C96.4749 9.8 97.0899 10.085 97.6099 10.655C98.1399 11.215 98.4049 11.89 98.4049 12.68V16.55C98.4049 16.69 98.3399 16.8 98.2099 16.88C98.0899 16.96 97.9449 17 97.7749 17C97.6149 17 97.4699 16.96 97.3399 16.88C97.2199 16.8 97.1599 16.69 97.1599 16.55V12.68C97.1599 12.23 96.9899 11.825 96.6499 11.465C96.3099 11.105 95.9099 10.925 95.4499 10.925C95.0199 10.925 94.6399 11.09 94.3099 11.42C93.9799 11.74 93.8149 12.16 93.8149 12.68V16.55C93.8149 16.66 93.7499 16.765 93.6199 16.865C93.4999 16.955 93.3549 17 93.1849 17C93.0149 17 92.8699 16.955 92.7499 16.865C92.6299 16.775 92.5699 16.67 92.5699 16.55ZM103.296 16.565V6.485C103.296 6.345 103.351 6.235 103.461 6.155C103.581 6.075 103.716 6.035 103.866 6.035H109.146C109.286 6.035 109.391 6.09 109.461 6.2C109.541 6.31 109.581 6.44 109.581 6.59C109.581 6.76 109.541 6.9 109.461 7.01C109.391 7.12 109.286 7.175 109.146 7.175H104.556V10.985H106.896C107.036 10.985 107.141 11.04 107.211 11.15C107.291 11.25 107.331 11.375 107.331 11.525C107.331 11.655 107.291 11.775 107.211 11.885C107.141 11.985 107.036 12.035 106.896 12.035H104.556V16.565C104.556 16.705 104.491 16.815 104.361 16.895C104.241 16.965 104.096 17 103.926 17C103.756 17 103.606 16.965 103.476 16.895C103.356 16.815 103.296 16.705 103.296 16.565ZM108.496 15.125C108.496 14.345 108.796 13.805 109.396 13.505C109.996 13.195 110.866 13.04 112.006 13.04H112.726V12.725C112.726 12.225 112.586 11.79 112.306 11.42C112.036 11.05 111.626 10.865 111.076 10.865C110.656 10.865 110.286 10.94 109.966 11.09C109.646 11.23 109.471 11.3 109.441 11.3C109.301 11.3 109.186 11.235 109.096 11.105C109.016 10.965 108.976 10.82 108.976 10.67C108.976 10.44 109.201 10.24 109.651 10.07C110.111 9.89 110.596 9.8 111.106 9.8C112.086 9.8 112.806 10.08 113.266 10.64C113.736 11.19 113.971 11.88 113.971 12.71V16.55C113.971 16.68 113.911 16.79 113.791 16.88C113.681 16.96 113.536 17 113.356 17C113.196 17 113.061 16.96 112.951 16.88C112.841 16.79 112.786 16.68 112.786 16.55V15.95C112.106 16.73 111.351 17.12 110.521 17.12C109.921 17.12 109.431 16.95 109.051 16.61C108.681 16.27 108.496 15.775 108.496 15.125ZM109.756 14.99C109.756 15.36 109.861 15.64 110.071 15.83C110.281 16.02 110.561 16.115 110.911 16.115C111.331 16.115 111.736 15.95 112.126 15.62C112.526 15.28 112.726 14.935 112.726 14.585V13.805H112.201C111.911 13.805 111.661 13.815 111.451 13.835C111.241 13.845 111.021 13.875 110.791 13.925C110.571 13.965 110.386 14.03 110.236 14.12C110.096 14.2 109.981 14.315 109.891 14.465C109.801 14.605 109.756 14.78 109.756 14.99ZM115.43 14.21V12.71C115.43 11.85 115.68 11.15 116.18 10.61C116.69 10.07 117.435 9.8 118.415 9.8C119.035 9.8 119.555 9.91 119.975 10.13C120.405 10.35 120.62 10.585 120.62 10.835C120.62 10.975 120.565 11.115 120.455 11.255C120.355 11.385 120.235 11.45 120.095 11.45C120.055 11.45 119.88 11.365 119.57 11.195C119.27 11.015 118.915 10.925 118.505 10.925C117.905 10.925 117.45 11.08 117.14 11.39C116.83 11.7 116.675 12.14 116.675 12.71V14.21C116.675 15.4 117.29 15.995 118.52 15.995C118.94 15.995 119.305 15.905 119.615 15.725C119.925 15.545 120.105 15.455 120.155 15.455C120.315 15.455 120.445 15.52 120.545 15.65C120.655 15.78 120.71 15.915 120.71 16.055C120.71 16.305 120.49 16.545 120.05 16.775C119.61 17.005 119.07 17.12 118.43 17.12C117.44 17.12 116.69 16.855 116.18 16.325C115.68 15.785 115.43 15.08 115.43 14.21ZM121.596 14.21V12.635C121.596 11.865 121.886 11.2 122.466 10.64C123.056 10.08 123.761 9.8 124.581 9.8C125.361 9.8 126.036 10.065 126.606 10.595C127.176 11.115 127.461 11.77 127.461 12.56C127.461 12.85 127.426 13.085 127.356 13.265C127.286 13.435 127.176 13.56 127.026 13.64C126.886 13.71 126.751 13.755 126.621 13.775C126.501 13.795 126.336 13.805 126.126 13.805H122.841V14.255C122.841 14.805 123.036 15.245 123.426 15.575C123.826 15.905 124.341 16.07 124.971 16.07C125.301 16.07 125.586 16.02 125.826 15.92C126.076 15.82 126.276 15.725 126.426 15.635C126.576 15.535 126.696 15.485 126.786 15.485C126.926 15.485 127.046 15.55 127.146 15.68C127.246 15.8 127.296 15.925 127.296 16.055C127.296 16.285 127.066 16.52 126.606 16.76C126.156 17 125.596 17.12 124.926 17.12C123.946 17.12 123.146 16.855 122.526 16.325C121.906 15.785 121.596 15.08 121.596 14.21ZM122.841 12.965H125.616C125.876 12.965 126.051 12.935 126.141 12.875C126.231 12.805 126.276 12.675 126.276 12.485C126.276 12.035 126.111 11.64 125.781 11.3C125.451 10.96 125.046 10.79 124.566 10.79C124.096 10.79 123.691 10.95 123.351 11.27C123.011 11.58 122.841 11.965 122.841 12.425V12.965ZM128.854 16.55V6.035C128.854 5.905 128.909 5.8 129.019 5.72C129.139 5.64 129.289 5.6 129.469 5.6C129.649 5.6 129.799 5.64 129.919 5.72C130.039 5.8 130.099 5.905 130.099 6.035V10.94C130.279 10.62 130.539 10.35 130.879 10.13C131.219 9.91 131.614 9.8 132.064 9.8C132.794 9.8 133.424 10.085 133.954 10.655C134.484 11.215 134.749 11.89 134.749 12.68V14.21C134.749 14.97 134.484 15.645 133.954 16.235C133.424 16.825 132.809 17.12 132.109 17.12C131.659 17.12 131.244 17.005 130.864 16.775C130.484 16.545 130.209 16.27 130.039 15.95V16.55C130.039 16.67 129.979 16.775 129.859 16.865C129.749 16.955 129.619 17 129.469 17C129.299 17 129.154 16.955 129.034 16.865C128.914 16.775 128.854 16.67 128.854 16.55ZM130.099 14.615C130.099 14.865 130.274 15.16 130.624 15.5C130.974 15.83 131.369 15.995 131.809 15.995C132.259 15.995 132.654 15.815 132.994 15.455C133.334 15.085 133.504 14.67 133.504 14.21V12.68C133.504 12.23 133.334 11.825 132.994 11.465C132.654 11.105 132.254 10.925 131.794 10.925C131.344 10.925 130.949 11.09 130.609 11.42C130.269 11.74 130.099 12.16 130.099 12.68V14.615ZM135.981 14.21V12.68C135.981 11.91 136.271 11.24 136.851 10.67C137.441 10.09 138.136 9.8 138.936 9.8C139.736 9.8 140.431 10.085 141.021 10.655C141.611 11.225 141.906 11.9 141.906 12.68V14.21C141.906 14.97 141.606 15.645 141.006 16.235C140.416 16.825 139.726 17.12 138.936 17.12C138.146 17.12 137.456 16.83 136.866 16.25C136.276 15.66 135.981 14.98 135.981 14.21ZM137.226 14.21C137.226 14.68 137.396 15.095 137.736 15.455C138.076 15.815 138.476 15.995 138.936 15.995C139.406 15.995 139.811 15.815 140.151 15.455C140.491 15.085 140.661 14.67 140.661 14.21V12.68C140.661 12.23 140.491 11.825 140.151 11.465C139.811 11.105 139.406 10.925 138.936 10.925C138.466 10.925 138.061 11.105 137.721 11.465C137.391 11.825 137.226 12.23 137.226 12.68V14.21ZM143.13 14.21V12.68C143.13 11.91 143.42 11.24 144 10.67C144.59 10.09 145.285 9.8 146.085 9.8C146.885 9.8 147.58 10.085 148.17 10.655C148.76 11.225 149.055 11.9 149.055 12.68V14.21C149.055 14.97 148.755 15.645 148.155 16.235C147.565 16.825 146.875 17.12 146.085 17.12C145.295 17.12 144.605 16.83 144.015 16.25C143.425 15.66 143.13 14.98 143.13 14.21ZM144.375 14.21C144.375 14.68 144.545 15.095 144.885 15.455C145.225 15.815 145.625 15.995 146.085 15.995C146.555 15.995 146.96 15.815 147.3 15.455C147.64 15.085 147.81 14.67 147.81 14.21V12.68C147.81 12.23 147.64 11.825 147.3 11.465C146.96 11.105 146.555 10.925 146.085 10.925C145.615 10.925 145.21 11.105 144.87 11.465C144.54 11.825 144.375 12.23 144.375 12.68V14.21ZM150.563 16.55V6.035C150.563 5.905 150.618 5.8 150.728 5.72C150.848 5.64 150.998 5.6 151.178 5.6C151.358 5.6 151.508 5.64 151.628 5.72C151.748 5.8 151.808 5.905 151.808 6.035V13.055L155.228 9.965C155.318 9.895 155.408 9.86 155.498 9.86C155.648 9.86 155.788 9.92 155.918 10.04C156.058 10.16 156.128 10.295 156.128 10.445C156.128 10.565 156.083 10.665 155.993 10.745L153.908 12.59L156.398 16.205C156.448 16.285 156.473 16.36 156.473 16.43C156.473 16.58 156.398 16.725 156.248 16.865C156.098 16.995 155.943 17.06 155.783 17.06C155.643 17.06 155.528 16.995 155.438 16.865L153.053 13.37L151.808 14.48V16.55C151.808 16.66 151.743 16.765 151.613 16.865C151.493 16.955 151.348 17 151.178 17C151.008 17 150.863 16.955 150.743 16.865C150.623 16.775 150.563 16.67 150.563 16.55Z" fill="#396AB1"/>
<g clip-path="url(#clip0_12_16)">
<path d="M17.3279 13.0181H13.7676V24.4707H8.49417V13.0181H5.98682V8.53428H8.49417V5.63432C8.49417 3.55973 9.48016 0.311768 13.8167 0.311768L17.725 0.329614V4.67956H14.8919C14.4279 4.67956 13.7721 4.91156 13.7721 5.90201V8.53875H17.7919L17.3279 13.0181Z" fill="#396AB1"/>
</g>
<defs>
<clipPath id="clip0_12_16">
<rect width="24" height="24" fill="white"/>
</clipPath>
</defs>
</svg>
