<svg width="30" height="30" viewBox="0 0 30 30" fill="none" xmlns="http://www.w3.org/2000/svg">
<g clip-path="url(#clip0_80_28)">
<path d="M25.0491 12.1371C25.1253 11.3686 25.0371 10.5927 24.7904 9.8609C24.5437 9.12911 24.144 8.4582 23.618 7.89274C23.092 7.32729 22.4517 6.88025 21.7397 6.58131C21.0276 6.28237 20.2601 6.13838 19.4881 6.15891C18.5154 6.18215 17.5669 6.46654 16.7419 6.98227C16.1212 5.8587 15.1237 4.99033 13.9254 4.53022C12.727 4.07012 11.4047 4.04784 10.1915 4.46729C8.97837 4.88675 7.95222 5.72102 7.29398 6.82303C6.63573 7.92505 6.38765 9.22407 6.59347 10.4911C6.5766 10.4911 6.56019 10.4911 6.54332 10.4911C5.48576 10.5171 4.4507 10.802 3.52878 11.3208C2.60686 11.8396 1.8262 12.5765 1.25516 13.4671C0.684124 14.3576 0.340124 15.3745 0.253285 16.4288C0.166447 17.4831 0.339418 18.5427 0.757054 19.5146C1.17469 20.4866 1.82425 21.3413 2.64885 22.004C3.47346 22.6666 4.44796 23.117 5.48701 23.3157C6.52606 23.5144 7.59798 23.4553 8.6089 23.1436C9.61982 22.8319 10.5389 22.2771 11.2857 21.5278C11.7859 22.2986 12.4729 22.9304 13.2828 23.3644C14.0927 23.7985 14.9992 24.0208 15.918 24.0106C16.8368 24.0004 17.7382 23.7581 18.5382 23.3062C19.3383 22.8543 20.0112 22.2075 20.4943 21.4259C21.11 22.0309 21.8605 22.481 22.6842 22.7392C23.5079 22.9973 24.3811 23.0562 25.232 22.9109C26.0829 22.7656 26.8871 22.4203 27.5784 21.9034C28.2697 21.3865 28.8284 20.7128 29.2084 19.9377C29.5885 19.1627 29.779 18.3085 29.7643 17.4454C29.7497 16.5823 29.5302 15.7351 29.1241 14.9734C28.7179 14.2117 28.1367 13.5574 27.4282 13.0643C26.7197 12.5712 25.9042 12.2534 25.0489 12.1371H25.0491Z" fill="#F0F5F9"/>
<path d="M24.4509 22.9882C23.7202 23.0072 22.9932 22.8787 22.3132 22.6105C21.6333 22.3422 21.0144 21.9396 20.4935 21.4268C20.0104 22.2082 19.3377 22.8548 18.5378 23.3066C17.7379 23.7584 16.8367 24.0006 15.9181 24.0108C14.9995 24.021 14.0932 23.7988 13.2835 23.3649C12.4738 22.931 11.7868 22.2995 11.2865 21.529C10.3222 22.4942 9.07755 23.13 7.73033 23.3456C6.3831 23.5612 5.0022 23.3456 3.7848 22.7296C2.5674 22.1136 1.57576 21.1287 0.951485 19.9155C0.327212 18.7024 0.102228 17.323 0.30866 15.9743C0.488041 17.1584 0.992636 18.2695 1.76624 19.1838C2.53983 20.0981 3.55206 20.7796 4.69017 21.1526C5.82827 21.5255 7.04756 21.5752 8.21222 21.296C9.37687 21.0168 10.4412 20.4198 11.2865 19.5715C11.7868 20.342 12.4738 20.9735 13.2835 21.4074C14.0932 21.8413 14.9995 22.0635 15.9181 22.0533C16.8367 22.0431 17.7379 21.8009 18.5378 21.3491C19.3377 20.8973 20.0104 20.2507 20.4935 19.4693C21.1997 20.1633 22.0816 20.6518 23.0445 20.8825C24.0074 21.1131 25.0149 21.0771 25.9589 20.7783C26.9029 20.4795 27.7476 19.9293 28.4025 19.1866C29.0573 18.444 29.4975 17.537 29.6758 16.5631C29.7277 16.84 29.7568 17.1207 29.7628 17.4024C29.7811 18.118 29.6581 18.8302 29.401 19.4983C29.1439 20.1664 28.7576 20.7772 28.2643 21.296C27.771 21.8147 27.1803 22.2312 26.526 22.5216C25.8717 22.8119 25.1666 22.9705 24.4509 22.9882Z" fill="#D9E2E9"/>
<path d="M8.27513 11.4738C8.23006 11.4738 8.18595 11.4608 8.14809 11.4363C7.64308 11.1056 7.08518 10.8638 6.49856 10.7213C6.43824 10.7087 6.38529 10.6729 6.35119 10.6215C6.31708 10.5702 6.30456 10.5075 6.31633 10.4471C6.3281 10.3866 6.36322 10.3332 6.41408 10.2984C6.46494 10.2636 6.52746 10.2502 6.58809 10.2612C7.23404 10.4134 7.84822 10.6778 8.40263 11.0426C8.44515 11.0701 8.47763 11.1106 8.49523 11.158C8.51282 11.2055 8.51457 11.2574 8.50021 11.3059C8.48586 11.3545 8.45618 11.3971 8.41561 11.4273C8.37503 11.4576 8.32575 11.4739 8.27513 11.4738Z" fill="#2F3A5A"/>
<path d="M22.1311 6.85803C22.1311 6.85803 25.4616 9.26811 22.7217 12.5489C22.7515 12.5741 22.7793 12.6015 22.8049 12.6309C23.5981 12.1141 23.8071 12.0698 24.9206 12.1364C24.9206 12.1364 25.6995 8.3203 22.1311 6.85803Z" fill="#D9E2E9"/>
<path d="M15.8543 24.2452C14.9546 24.2476 14.0673 24.035 13.2665 23.625C12.4656 23.2151 11.7742 22.6197 11.25 21.8885C10.4596 22.6173 9.5055 23.1453 8.46822 23.4279C7.43095 23.7106 6.3409 23.7397 5.29003 23.5127C4.23916 23.2858 3.25827 22.8094 2.43011 22.1239C1.60195 21.4383 0.950793 20.5636 0.531572 19.5736C0.112351 18.5836 -0.0626439 17.5073 0.021347 16.4355C0.105338 15.3637 0.445851 14.3278 1.01417 13.4152C1.58248 12.5026 2.36193 11.74 3.28678 11.1918C4.21162 10.6436 5.25473 10.3259 6.32813 10.2654C6.30868 10.0976 6.29696 9.93118 6.29274 9.76852C6.26218 8.51801 6.64486 7.29232 7.3815 6.28134C8.11814 5.27036 9.16761 4.53053 10.3673 4.17645C11.5671 3.82237 12.8501 3.87381 14.0176 4.32281C15.1851 4.77181 16.172 5.59329 16.8253 6.66001C17.6798 6.17624 18.6451 5.92205 19.627 5.92218C20.6089 5.92232 21.5741 6.17677 22.4284 6.66077C23.2828 7.14476 23.9973 7.84179 24.5022 8.68395C25.0071 9.52611 25.2853 10.4847 25.3097 11.4663C25.3137 11.6196 25.3097 11.7776 25.301 11.9386C26.1668 12.091 26.9854 12.442 27.6926 12.9641C28.3998 13.4863 28.9763 14.1652 29.3768 14.9478C29.7773 15.7303 29.9909 16.595 30.0009 17.474C30.0108 18.353 29.8168 19.2223 29.434 20.0137C29.0513 20.8051 28.4903 21.4969 27.7951 22.0349C27.0999 22.5729 26.2894 22.9423 25.4273 23.1142C24.5652 23.2861 23.675 23.2557 22.8266 23.0255C21.9782 22.7953 21.1948 22.3716 20.5378 21.7875C20.0297 22.5265 19.3535 23.1344 18.5648 23.5613C17.7761 23.9882 16.8974 24.2219 16.0008 24.2433C15.952 24.2445 15.9031 24.2452 15.8543 24.2452ZM11.3245 21.1573L11.4825 21.4001C11.9613 22.1376 12.6188 22.7422 13.3938 23.1575C14.1689 23.5729 15.0363 23.7856 15.9156 23.7758C16.7949 23.7661 17.6574 23.5343 18.4231 23.1019C19.1887 22.6695 19.8326 22.0505 20.295 21.3026L20.4492 21.0534L20.6585 21.2588C21.2477 21.8377 21.966 22.2684 22.7543 22.5155C23.5425 22.7625 24.3781 22.8188 25.1924 22.6798C26.0066 22.5407 26.7762 22.2103 27.4378 21.7157C28.0994 21.221 28.634 20.5764 28.9977 19.8347C29.3614 19.0931 29.5438 18.2756 29.5298 17.4497C29.5159 16.6238 29.3059 15.813 28.9173 15.0841C28.5287 14.3551 27.9726 13.7289 27.2947 13.257C26.6167 12.785 25.8364 12.4808 25.0179 12.3694L24.7943 12.3391L24.8159 12.1146C24.8364 11.9031 24.8442 11.6905 24.8393 11.4781C24.8163 10.5589 24.5508 9.66212 24.0696 8.87862C23.5884 8.09512 22.9087 7.45273 22.0993 7.01651C21.2899 6.5803 20.3796 6.36577 19.4606 6.39466C18.5415 6.42355 17.6465 6.69483 16.8661 7.18102L16.6568 7.3118L16.537 7.09618C15.9709 6.07534 15.0788 5.27386 14.0033 4.81995C12.9279 4.36604 11.7313 4.28593 10.6049 4.59242C9.47856 4.89892 8.48754 5.57432 7.79037 6.51057C7.09321 7.44683 6.73019 8.58986 6.75938 9.7568C6.76591 9.99041 6.78784 10.2233 6.82501 10.4541L6.86743 10.7201L6.56696 10.7255C5.54702 10.7478 4.54813 11.02 3.65786 11.5182C2.7676 12.0164 2.01317 12.7254 1.46071 13.583C0.908257 14.4407 0.574653 15.4208 0.489154 16.4374C0.403655 17.454 0.568872 18.476 0.970318 19.4139C1.37176 20.3518 1.99718 21.1768 2.79172 21.8167C3.58626 22.4566 4.52566 22.8918 5.52755 23.0842C6.52944 23.2765 7.56322 23.2201 8.53823 22.9199C9.51325 22.6197 10.3997 22.0849 11.1199 21.3623L11.3245 21.1573Z" fill="#2F3A5A"/>
<path d="M22.8047 12.7833C22.75 12.7834 22.6971 12.7644 22.6549 12.7296C22.6128 12.6948 22.5841 12.6464 22.5739 12.5927C22.5637 12.539 22.5726 12.4834 22.599 12.4356C22.6255 12.3878 22.6678 12.3507 22.7187 12.3307C23.4649 12.0455 24.2574 11.9005 25.0563 11.903C25.1185 11.905 25.1773 11.9316 25.2198 11.9769C25.2624 12.0223 25.2852 12.0827 25.2832 12.1449C25.2812 12.207 25.2546 12.2658 25.2092 12.3084C25.1639 12.3509 25.1035 12.3737 25.0413 12.3717C24.3063 12.373 23.5776 12.5069 22.8902 12.7671C22.863 12.7779 22.834 12.7834 22.8047 12.7833Z" fill="#2F3A5A"/>
</g>
<g clip-path="url(#clip1_80_28)">
<path d="M18.7328 17.8522H11.3446L10.3383 14.597H19.7269L18.7328 17.8522Z" fill="#CAC5CB"/>
<path d="M16.1243 22.8714L19.0464 24.553C20.3774 25.3189 21.1979 26.7376 21.1979 28.2733V29.4195C21.1979 29.5771 21.0701 29.705 20.9124 29.705H9.04812C8.8905 29.705 8.7627 29.5771 8.7627 29.4195V28.2733C8.7627 26.7376 9.58314 25.3189 10.9142 24.553L13.8363 22.8714L14.5427 22.5189H15.47L16.1243 22.8714Z" fill="#FAB505"/>
<path d="M11.3608 18.5241C10.9453 18.5241 10.6084 18.1873 10.6084 17.7717C10.6084 17.3562 10.9453 17.0193 11.3608 17.0193H13.1904V18.5241H11.3608V18.5241Z" fill="#FFD1C2"/>
<path d="M18.1732 18.5241H18.6391C19.0547 18.5241 19.3916 18.1873 19.3916 17.7717C19.3916 17.3562 19.0547 17.0193 18.6391 17.0193H18.1732H16.5958V18.5241H18.1732V18.5241Z" fill="#FFD1C2"/>
<path d="M16.3594 23.0067L16.1242 22.8714L15.47 22.5189H14.5427L13.8363 22.8714L10.9142 24.553C9.58314 25.319 8.7627 26.7377 8.7627 28.2734V29.4196C8.7627 29.5772 8.8905 29.705 9.04812 29.705H10.3363V28.7612C10.3363 27.2255 11.1568 25.8068 12.4878 25.0408L13.2384 24.6089C13.4964 24.4604 13.8146 24.4676 14.0672 24.625C14.3324 24.7904 14.6453 24.886 14.9803 24.886C15.917 24.886 16.682 24.1394 16.7128 23.21L16.3594 23.0067Z" fill="#E5AE5C"/>
<path d="M16.1243 23.1521C16.1243 23.7839 15.6121 24.296 14.9803 24.296C14.3485 24.296 13.8363 23.7839 13.8363 23.1521V20.5273H16.1242V23.1521H16.1243Z" fill="#FFD1C2"/>
<path d="M18.1732 19.0683C18.1732 20.8209 16.7525 22.2415 15 22.2415C13.2475 22.2415 11.8268 20.8209 11.8268 19.0683V13.9731H18.1732V19.0683Z" fill="#FFE0D1"/>
<path d="M18.1732 13.9731H11.8268V16.744C11.8905 16.732 11.9538 16.7176 12.0164 16.7002L13.0197 16.4218C13.1362 16.3896 13.2565 16.3732 13.3773 16.3732C13.4858 16.3732 13.5941 16.3864 13.6994 16.4125L14.433 16.5945C14.662 16.6513 14.8978 16.6801 15.1338 16.6801C15.5126 16.6801 15.8825 16.6076 16.2332 16.4645C16.3944 16.3988 16.5643 16.3654 16.7383 16.3654C16.79 16.3654 16.8422 16.3685 16.8935 16.3745L18.1732 16.524V13.9731H18.1732Z" fill="#FFD1C2"/>
<path d="M11.1731 12.6461L10.3821 13.3682C9.83658 13.8664 9.7308 14.6857 10.1319 15.3061C10.4909 15.8613 11.169 16.1189 11.806 15.9421L12.8094 15.6637C13.1619 15.5659 13.5337 15.5608 13.8888 15.6489L14.6223 15.8309C15.0593 15.9392 15.5193 15.906 15.9361 15.736C16.268 15.6006 16.6288 15.5515 16.9849 15.593L18.6031 15.7821C19.2266 15.8549 19.816 15.4811 20.0158 14.886C20.2127 14.2996 19.9786 13.6548 19.4512 13.3315L18.752 12.9027L18.7083 12.7569C18.394 11.7075 17.4045 11.0077 16.3102 11.0609C16.1887 11.0668 16.0675 11.0425 15.9576 10.9902L15.0621 10.5637C13.4326 9.78755 11.511 10.7731 11.1905 12.5494L11.1731 12.6461Z" fill="#84879C"/>
<path d="M10.0163 24.837C9.03218 25.7073 8.46777 26.9598 8.46777 28.2734V29.705C8.46777 29.868 8.59987 30 8.7628 30C8.92573 30 9.05782 29.868 9.05782 29.705V28.2734C9.05782 27.1287 9.54961 26.0373 10.4071 25.279C10.5292 25.1711 10.5406 24.9847 10.4327 24.8626C10.3247 24.7406 10.1383 24.7291 10.0163 24.837Z" fill="#2F3A5A"/>
<path d="M19.1936 24.2973L16.4194 22.7008V22.2333C16.7642 22.0784 17.0845 21.8664 17.3671 21.6023C17.4862 21.491 17.4925 21.3043 17.3812 21.1853C17.27 21.0662 17.0833 21.0599 16.9642 21.1712C16.4291 21.6712 15.7316 21.9466 15 21.9466C13.413 21.9466 12.1219 20.6554 12.1219 19.0684V16.1607L12.8883 15.9481C13.1913 15.8641 13.5127 15.8596 13.8178 15.9353L14.5514 16.1173C15.0523 16.2416 15.5697 16.2042 16.0476 16.0093C16.3326 15.893 16.6449 15.8506 16.9507 15.8861L17.8782 15.9945V19.0684C17.8782 19.4762 17.7938 19.8713 17.6276 20.2428C17.561 20.3914 17.6276 20.566 17.7763 20.6325C17.8154 20.6501 17.8564 20.6584 17.8967 20.6584C18.0094 20.6584 18.1171 20.5934 18.1661 20.4838C18.3666 20.0361 18.4683 19.5599 18.4683 19.0684V18.8192H18.6392C19.2167 18.8192 19.6866 18.3493 19.6866 17.7717C19.6866 17.442 19.5333 17.1476 19.2944 16.9554L19.5882 15.8544C19.9123 15.6607 20.1693 15.3559 20.2956 14.98C20.5377 14.2589 20.254 13.4777 19.6055 13.08L19.0024 12.7101L18.9911 12.6723C18.637 11.49 17.5291 10.706 16.296 10.7663C16.2237 10.7701 16.1503 10.7552 16.0846 10.7239L15.1891 10.2974C14.3287 9.88754 13.3489 9.9019 12.5009 10.3369C11.6534 10.7716 11.0701 11.5583 10.9006 12.4955L10.1833 13.1504C9.52875 13.748 9.40299 14.722 9.88427 15.4663C10.0356 15.7003 10.2329 15.8894 10.4582 16.0277L10.7057 16.9554C10.4668 17.1476 10.3135 17.442 10.3135 17.7717C10.3135 18.3493 10.7834 18.8192 11.361 18.8192H11.5318V19.0684C11.5318 20.46 12.3558 21.6626 13.5414 22.2145V22.7008L11.1723 24.0641C11.0311 24.1453 10.9825 24.3257 11.0637 24.467C11.1183 24.5618 11.2176 24.6149 11.3197 24.6149C11.3696 24.6149 11.4202 24.6022 11.4666 24.5755L13.5582 23.3719C13.6644 24.0614 14.2617 24.591 14.9804 24.591C15.6991 24.591 16.2964 24.0614 16.4025 23.3719L18.8993 24.8087C20.1352 25.5199 20.9029 26.8475 20.9029 28.2734V29.705C20.9029 29.868 21.035 30 21.1979 30C21.3609 30 21.4929 29.868 21.4929 29.705V28.2734C21.493 26.637 20.612 25.1135 19.1936 24.2973ZM18.6392 18.2292H18.4683V17.3143H18.6392C18.8914 17.3143 19.0966 17.5195 19.0966 17.7717C19.0966 18.024 18.8914 18.2292 18.6392 18.2292ZM18.744 16.7296C18.7095 16.7261 18.6746 16.7243 18.6392 16.7243H18.4683V16.0634L18.569 16.0752C18.6867 16.0889 18.8035 16.0894 18.918 16.0777L18.744 16.7296ZM10.5812 13.5862L11.3721 12.864C11.4199 12.8203 11.4521 12.7622 11.4636 12.6985L11.481 12.6018C11.6172 11.8464 12.0872 11.2122 12.7702 10.862C13.1226 10.6812 13.5032 10.5906 13.8843 10.5906C14.2419 10.5906 14.5999 10.6704 14.9354 10.8302L15.8309 11.2567C15.9843 11.3297 16.1553 11.3641 16.3247 11.3557C17.2859 11.3089 18.1498 11.92 18.4258 12.8417L18.4695 12.9874C18.4903 13.057 18.536 13.1163 18.5979 13.1543L19.2971 13.5831C19.7098 13.8362 19.8904 14.3333 19.7363 14.7922C19.5818 15.2524 19.1199 15.5456 18.6375 15.4892L17.0193 15.3001C16.6148 15.2528 16.2018 15.3091 15.8248 15.463C15.4635 15.6103 15.0724 15.6386 14.6936 15.5446L13.96 15.3627C13.5565 15.2626 13.1314 15.2684 12.7307 15.3796L11.7274 15.658C11.2119 15.8008 10.6703 15.5952 10.3799 15.1459C10.0556 14.6446 10.1403 13.9887 10.5812 13.5862ZM11.1343 16.2731C11.221 16.2859 11.3087 16.2932 11.3974 16.2932C11.442 16.2932 11.4869 16.2911 11.5318 16.2878V16.7243H11.361C11.3256 16.7243 11.2906 16.7261 11.2561 16.7296L11.1343 16.2731ZM11.361 18.2292C11.1087 18.2292 10.9036 18.024 10.9036 17.7717C10.9036 17.5195 11.1087 17.3143 11.361 17.3143H11.5318V18.2292H11.361ZM14.9804 24.001C14.5123 24.001 14.1314 23.6201 14.1314 23.1521V22.4264C14.4091 22.4983 14.7002 22.5366 15.0001 22.5366C15.2824 22.5366 15.5605 22.5022 15.8294 22.4361V23.152C15.8294 23.6202 15.4485 24.001 14.9804 24.001Z" fill="#2F3A5A"/>
</g>
<defs>
<clipPath id="clip0_80_28">
<rect width="30" height="30" fill="white"/>
</clipPath>
<clipPath id="clip1_80_28">
<rect width="20" height="20" fill="white" transform="translate(5 10)"/>
</clipPath>
</defs>
</svg>
