<svg width="375" height="344" viewBox="0 0 375 344" fill="none" xmlns="http://www.w3.org/2000/svg">
<path opacity="0.1" d="M20.3008 111.1C55.9008 111.1 84.8008 139.3 84.8008 174C84.8008 177.2 84.6008 180.3 84.1008 183.3C86.2008 183 88.4008 182.8 90.6008 182.8C113.201 182.8 131.701 199.9 133.201 221.6C143.101 215.5 154.901 212 167.501 212C196.201 212 220.501 230.3 228.901 255.5C232.201 253.1 236.301 251.7 240.801 251.7C251.101 251.7 259.501 259.2 260.701 268.9C272.501 254 290.901 244.5 311.701 244.5C347.301 244.5 376.201 272.7 376.201 307.4C376.401 317 373.701 327.7 369.701 338.1C359.201 365.5 339.701 391.1 339.701 391.1H-8.99922V230V136.5V121C-8.99922 112.7 20.3008 111.1 20.3008 111.1Z" fill="white"/>
<path opacity="0.1" d="M-14.0992 0C32.1008 0 69.6008 36.5 69.6008 81.6C69.6008 85.7 69.3008 89.7 68.7008 93.7C71.4008 93.3 74.2008 93.1 77.1008 93.1C106.401 93.1 130.401 115.3 132.401 143.4C145.301 135.5 160.601 130.9 176.901 130.9C214.101 130.9 245.601 154.6 256.501 187.3C260.801 184.2 266.201 182.3 272.001 182.3C285.301 182.3 296.301 192.1 297.901 204.7C313.201 185.4 337.201 173 364.101 173C410.301 173 447.801 209.5 447.801 254.6C448.101 267.1 444.601 280.9 439.401 294.4C425.801 330 400.501 363.2 400.501 363.2H-51.9992V154.2V32.9V12.8C-52.1992 1.99999 -14.0992 0 -14.0992 0Z" fill="white"/>
<path opacity="0.1" d="M-6.29919 149C20.4008 149 42.1008 170.1 42.1008 196.2C42.1008 198.6 41.9008 200.9 41.6008 203.2C43.2009 203 44.8008 202.8 46.4008 202.8C63.4008 202.8 77.2008 215.7 78.4008 231.9C85.9008 227.3 94.7009 224.7 104.101 224.7C125.601 224.7 143.901 238.4 150.201 257.3C152.701 255.5 155.801 254.4 159.101 254.4C166.801 254.4 173.201 260.1 174.101 267.3C183.001 256.2 196.801 249 212.401 249C239.101 249 260.801 270.1 260.801 296.2C260.901 303.4 258.901 311.4 256.001 319.2C248.101 339.8 233.501 359 233.501 359H-28.2992V238.3V168.1V156.5C-28.2992 150.2 -6.29919 149 -6.29919 149Z" fill="white"/>
<path opacity="0.1" d="M-0.299194 214.4C17.0008 214.4 31.0008 228.1 31.0008 244.9C31.0008 246.4 30.9008 247.9 30.7008 249.4C31.7008 249.2 32.8008 249.2 33.8008 249.2C44.8008 249.2 53.8008 257.5 54.5008 268C59.3008 265 65.0008 263.3 71.2008 263.3C85.1008 263.3 96.9008 272.2 101.001 284.4C102.601 283.2 104.601 282.5 106.801 282.5C111.801 282.5 115.901 286.2 116.501 290.9C122.201 283.7 131.201 279 141.301 279C158.601 279 172.601 292.7 172.601 309.5C172.701 314.2 171.401 319.4 169.501 324.4C164.401 337.7 154.901 350.2 154.901 350.2H-14.3992V272V226.6V219.1C-14.4992 215.1 -0.299194 214.4 -0.299194 214.4Z" fill="white"/>
</svg>
