<svg width="34" height="34" viewBox="0 0 34 34" fill="none" xmlns="http://www.w3.org/2000/svg">
<path d="M2.87791 14.1221H24.1736L20.664 10.6124C19.542 9.49035 19.5419 7.66445 20.664 6.54218C21.2076 5.99858 21.9303 5.69922 22.6991 5.69922C23.4678 5.69922 24.1906 5.99858 24.7342 6.54218L33.1568 14.9648C33.7006 15.5084 34 16.2311 34 17.0001C34 17.7691 33.7006 18.4919 33.157 19.0353L24.7342 27.4582C24.1906 28.0017 23.4679 28.301 22.6991 28.301C21.9303 28.301 21.2075 28.0017 20.664 27.4581C20.1209 26.9151 19.8218 26.1924 19.8218 25.4229C19.8218 24.6535 20.1209 23.9308 20.664 23.3878L24.1736 19.8781H2.87798C1.29114 19.8782 0 18.5871 0 17.0001C0 15.4131 1.29107 14.122 2.87791 14.1221ZM2.87811 18.5236H25.8089C26.0828 18.5236 26.3297 18.6887 26.4345 18.9417C26.5394 19.1948 26.4814 19.4861 26.2878 19.6798L21.6218 24.3457C21.3347 24.6328 21.1765 25.0155 21.1765 25.4229C21.1765 25.8304 21.3347 26.213 21.6218 26.5002H21.6219C21.9096 26.7879 22.2921 26.9464 22.6991 26.9464C23.1061 26.9464 23.4886 26.7878 23.7764 26.5002L32.1992 18.0773C32.4869 17.7896 32.6454 17.4071 32.6454 17.0001C32.6454 16.5931 32.4869 16.2106 32.1991 15.9229L23.7763 7.50002C23.4885 7.21222 23.1061 7.05377 22.6991 7.05377C22.2922 7.05377 21.9095 7.21229 21.6218 7.49989C21.0278 8.09403 21.0278 9.0605 21.6218 9.65451L26.2877 14.3204C26.4814 14.5141 26.5393 14.8054 26.4345 15.0585C26.3297 15.3115 26.0828 15.4766 25.8088 15.4766H2.87798C2.03801 15.4766 1.35456 16.16 1.35456 17.0001C1.35456 17.8402 2.03801 18.5237 2.87811 18.5236Z" fill="#FAB505"/>
<path d="M25.7339 21.704L25.8681 21.5697C26.1328 21.3052 26.5615 21.3052 26.826 21.5697C27.0905 21.8342 27.0905 22.2631 26.826 22.5276L26.6917 22.6619C26.5594 22.7941 26.3862 22.8603 26.2128 22.8603C26.0395 22.8603 25.8661 22.7941 25.7338 22.6619C25.4694 22.3973 25.4694 21.9684 25.7339 21.704Z" fill="#FAB505"/>
<path d="M27.1796 20.2583L30.7175 16.7205C30.9821 16.4561 31.4108 16.4561 31.6754 16.7205C31.9399 16.9851 31.9399 17.414 31.6754 17.6785L28.1375 21.2162C28.0053 21.3485 27.832 21.4146 27.6586 21.4146C27.4853 21.4146 27.312 21.3485 27.1796 21.2162C26.9151 20.9516 26.9151 20.5228 27.1796 20.2583Z" fill="#FAB505"/>
</svg>
