<svg width="149" height="157" viewBox="0 0 149 157" fill="none" xmlns="http://www.w3.org/2000/svg">
<path d="M19.8059 103.315C20.1267 103.601 20.073 103.966 20.0863 104.335C20.0412 106.375 20.4397 108.306 21.4849 110.104C22.1307 111.212 22.9888 112.129 24.0612 112.825C24.1264 112.862 24.1917 112.899 24.2551 112.969C24.7401 113.331 24.7198 113.698 24.1646 114.002C23.5758 114.305 23.0522 114.644 22.5585 115.052C20.8297 116.497 19.8525 118.352 19.3657 120.468C19.2319 121.064 19.1317 121.661 19.0968 122.295C19.0931 122.362 19.0912 122.395 19.0876 122.462C19.0301 122.894 18.8159 123.117 18.5157 123.067C18.1485 123.013 18.0607 122.774 18.0455 122.438C18.017 121.734 18.0575 120.999 17.9619 120.291C17.5795 117.457 16.3978 115.081 13.9622 113.474C13.3784 113.073 13.3986 112.706 14.0564 112.374C17.0377 110.797 18.46 108.197 18.9385 105.008C19.0369 104.445 18.9358 103.836 19.3343 103.322C19.4704 103.296 19.6381 103.306 19.8059 103.315ZM18.805 118.428C18.8422 118.364 18.9148 118.267 18.9539 118.169C19.7298 116.303 20.9254 114.761 22.6376 113.617C22.9525 113.4 22.8238 113.292 22.6317 113.114C21.1525 111.861 20.1298 110.264 19.5581 108.424C19.5001 108.254 19.4776 108.052 19.3154 107.942C19.2391 108.106 19.1292 108.267 19.0529 108.43C18.2862 110.129 17.1986 111.543 15.6578 112.63C15.1679 112.971 15.166 113.004 15.6155 113.397C16.994 114.645 17.9533 116.172 18.5287 117.944C18.5549 118.08 18.6165 118.184 18.6427 118.319C18.6744 118.354 18.6689 118.454 18.805 118.428Z" fill="#8DB600"/>
<path d="M73.9547 0C83.7003 0.133736 92.2698 3.54402 99.4613 10.2643C105.443 15.8478 109.073 22.7352 110.484 30.7594C111.055 34.0025 111.492 37.2456 111.963 40.4887C112.601 44.6345 113.24 48.7804 113.845 52.9262C114.181 55.2331 114.55 57.5067 114.886 59.8136C115.021 60.8166 115.021 60.8166 116.062 60.6829C117.642 60.4489 119.188 60.2148 120.767 59.9808C120.935 59.9473 121.07 59.9139 121.238 59.9139C121.91 59.847 122.044 59.9473 122.145 60.5826C122.313 61.5522 122.448 62.5218 122.616 63.5248C123.321 68.0718 123.993 72.6189 124.699 77.1659C125.539 82.6491 126.346 88.0989 127.186 93.582C127.858 98.0288 128.53 102.442 129.236 106.889C129.975 111.67 130.681 116.451 131.387 121.232C132.059 125.645 132.731 130.059 133.403 134.472C133.806 137.046 134.176 139.587 134.579 142.162C134.613 142.329 134.613 142.496 134.613 142.63C134.68 143.299 134.613 143.432 133.907 143.533C132.193 143.8 130.446 144.068 128.732 144.335C124.632 144.937 120.566 145.572 116.466 146.174C112.736 146.742 108.972 147.311 105.242 147.879C101.142 148.514 97.0081 149.116 92.9083 149.718C88.8084 150.32 84.6749 150.955 80.575 151.557C76.4751 152.192 72.3417 152.794 68.2418 153.429C63.8731 154.098 59.4707 154.733 55.102 155.402C52.7496 155.736 50.4308 156.104 48.0785 156.438C47.2047 156.572 47.1039 156.505 46.9695 155.669C46.5662 153.028 46.1629 150.387 45.7597 147.745C45.1548 143.666 44.5163 139.554 43.9114 135.475C43.3401 131.73 42.7688 127.986 42.1975 124.208C41.5926 120.162 40.9541 116.117 40.3492 112.071C39.7107 107.992 39.1058 103.88 38.4673 99.8008C37.8288 95.7218 37.2239 91.6095 36.5854 87.5305C35.9805 83.4515 35.3419 79.406 34.737 75.327C34.6698 74.8255 34.569 74.324 34.5018 73.8225C34.401 73.1538 34.4682 73.0201 35.1403 72.8863C36.8542 72.6189 38.5345 72.3514 40.2484 72.1174C41.3573 71.9502 41.3573 71.9502 41.1893 70.8803C40.5844 66.8013 39.9459 62.6889 39.3074 58.61C38.7025 54.5645 38.064 50.5189 37.4927 46.4734C37.1903 44.4005 36.8206 42.361 36.619 40.2881C36.1821 35.2395 36.7198 30.2913 38.3665 25.5102C41.559 16.2155 47.4736 9.12751 56.1774 4.41331C60.5461 2.03948 65.2509 0.702118 70.1909 0.200607C71.3671 0.0668702 72.5769 0.100302 73.9547 0Z" fill="#2F3A5A"/>
<path d="M78.32 127.855C77.904 129.122 79.1867 129.087 79.88 128.911L96 126.27V125.214L88.5 98L91.84 93.5293C93.504 90.9945 92.88 86.1362 92.36 84.0238C89.5 80 86.58 77.5281 84.5 77C79.508 74.8877 74.9067 78.3877 73 80.5L72 82C71.168 82.4225 70.1733 85.6081 70 87.1923V89L70.52 90.8889L71.5 93.5L73 96L77.5 99.5L78.32 127.855Z" fill="#FEF4EF"/>
<path d="M49.9266 37.3794C49.9266 38.0815 49.9938 39.0845 50.1619 40.0875C50.4979 42.3276 50.834 44.5677 51.17 46.8078C52.3126 54.297 53.4216 61.7528 54.5642 69.2421C54.665 69.9107 54.665 69.9442 55.3707 69.8439C57.6223 69.5095 59.8739 69.1418 62.1255 68.8074C65.8221 68.239 69.5187 67.7041 73.1817 67.1357C77.2816 66.5339 81.3478 65.8986 85.4477 65.2968C89.2115 64.7285 92.9754 64.1601 96.7728 63.5917C98.2178 63.3577 99.6965 63.157 101.142 62.923C101.679 62.8561 101.713 62.8227 101.646 62.2543C101.612 61.92 101.545 61.6191 101.511 61.3182C100.906 57.2392 100.268 53.1937 99.6629 49.1147C99.0244 45.0023 98.4195 40.8899 97.781 36.7441C97.4785 34.7715 97.2433 32.7654 96.7056 30.8263C93.4122 18.8569 81.2806 11.4679 69.1826 13.8083C58.3616 15.9481 49.9938 25.5102 49.9266 37.3794Z" fill="#FEF4EF"/>
<path d="M37.4927 37.279C37.5599 38.1818 37.5263 39.4188 37.6943 40.589C38.2992 44.9689 38.9713 49.3153 39.6098 53.6617C40.2819 58.1419 40.954 62.5886 41.6598 67.0688C41.8614 68.4731 42.0966 69.8773 42.2983 71.2815C42.3655 71.7162 42.4999 71.8165 42.9368 71.7162C43.4409 71.6159 43.9449 71.549 44.449 71.4821C47.3391 71.0475 50.2292 70.6128 53.1193 70.1782C53.4889 70.1113 53.6234 69.9776 53.5561 69.6098C53.3209 68.1721 53.0857 66.701 52.884 65.2634C52.2791 61.2179 51.6406 57.1723 51.0357 53.1268C50.4644 49.3487 49.8931 45.5707 49.3218 41.7926C48.9186 39.2851 48.7841 36.811 49.053 34.27C49.7251 28.4524 52.1783 23.4373 56.4126 19.3918C62.428 13.6411 69.6532 11.401 77.8866 12.7384C85.4478 13.9755 91.1944 18.0544 95.1934 24.5406C97.1762 27.7837 98.1171 31.3278 98.6212 35.0724C99.1253 38.817 99.7302 42.5282 100.301 46.2394C100.974 50.7195 101.646 55.1663 102.318 59.6464C102.452 60.5157 102.587 61.385 102.721 62.2543C102.755 62.5887 102.923 62.7224 103.259 62.6555C103.427 62.6221 103.561 62.5887 103.729 62.5887C105.309 62.3546 106.922 62.1206 108.501 61.8865C110.114 61.6525 111.727 61.4185 113.374 61.151C114.013 61.0507 114.013 61.1844 113.945 60.382C113.878 59.6799 113.744 59.0112 113.643 58.3091C113.072 54.5645 112.5 50.8198 111.929 47.0418C111.324 42.9628 110.686 38.9173 110.081 34.8383C109.745 32.5648 109.442 30.2913 108.871 28.0512C106.653 19.7596 102.083 13.0059 95.0926 7.99076C86.2544 1.67172 76.4415 -0.367763 65.8222 1.93919C58.6642 3.47716 52.548 6.95431 47.5407 12.2703C40.9877 19.2581 37.6607 27.5163 37.4927 37.279Z" fill="#CCD6DA"/>
<path d="M125.27 18.4222C125.506 18.4557 125.707 18.5894 125.741 18.8569C125.774 19.0909 125.808 19.325 125.808 19.559C126.01 21.7991 127.152 23.4039 129.068 24.4738C129.236 24.5741 129.404 24.641 129.572 24.7413C130.009 25.0088 130.009 25.41 129.572 25.6775C129.471 25.7443 129.337 25.7778 129.202 25.8446C127.186 26.9145 126.01 28.5528 125.774 30.8263C125.741 31.0603 125.741 31.2944 125.707 31.5284C125.674 31.7959 125.506 31.9631 125.203 31.9631C124.934 31.9631 124.766 31.7959 124.699 31.5284C124.665 31.3947 124.665 31.2609 124.665 31.1272C124.531 28.72 123.321 26.9479 121.204 25.8112C121.07 25.7443 120.902 25.6774 120.767 25.5771C120.431 25.3097 120.431 24.9753 120.767 24.7079C120.868 24.641 121.002 24.5741 121.137 24.5407C123.355 23.4039 124.531 21.5985 124.665 19.1244C124.766 18.6563 124.934 18.4222 125.27 18.4222ZM122.38 25.1759C122.447 25.2428 122.447 25.3097 122.515 25.3431C122.548 25.3765 122.582 25.41 122.649 25.4434C123.691 26.179 124.531 27.0817 125.102 28.2519C125.203 28.419 125.304 28.5862 125.472 28.2853C126.043 27.1151 126.883 26.179 127.992 25.4434C128.228 25.2762 128.16 25.1759 127.959 25.0422C126.883 24.3066 126.043 23.3705 125.472 22.1669C125.371 21.9328 125.237 21.9663 125.169 22.1669C124.598 23.3705 123.724 24.3401 122.615 25.0756C122.481 25.0756 122.447 25.1425 122.38 25.1759Z" fill="#8DB600"/>
<path d="M11.604 82.5792C11.2343 82.5124 11.1335 82.2783 11.0999 81.944C11.0663 81.5762 11.0663 81.2084 10.9991 80.8407C10.6294 78.868 9.52042 77.4304 7.77293 76.4942C7.67211 76.4274 7.53769 76.3605 7.40327 76.3271C7.16803 76.2268 7 76.093 7 75.7921C7 75.5247 7.16803 75.3575 7.40327 75.2572C7.90736 75.0566 8.34422 74.7557 8.7811 74.4213C10.1925 73.2846 10.9655 71.8135 11.0999 70.0081C11.0999 69.8075 11.0999 69.5734 11.1335 69.3728C11.2007 69.1053 11.4023 68.9716 11.6712 69.005C11.9064 69.0385 12.0745 69.1722 12.1417 69.3728C12.1753 69.54 12.1753 69.7406 12.1753 69.9412C12.3433 72.315 13.5195 73.9867 15.5694 75.1235C15.7039 75.1903 15.8047 75.2238 15.9391 75.2906C16.4096 75.5581 16.4096 75.9927 15.9391 76.2936C15.8383 76.3605 15.7039 76.3939 15.5694 76.4608C13.4859 77.5641 12.3433 79.3027 12.1753 81.6431C12.1753 81.8437 12.1753 82.0108 12.1417 82.2115C12.0745 82.4789 11.8728 82.5792 11.604 82.5792ZM11.6376 79.0687C11.6712 79.0352 11.7384 79.0018 11.7384 78.9349C12.3433 77.7313 13.217 76.7283 14.3596 75.9593C14.5613 75.8256 14.4269 75.6918 14.2924 75.5915C13.2171 74.856 12.3769 73.8864 11.8056 72.7162C11.7048 72.5156 11.604 72.4822 11.5031 72.7162C10.9319 73.8864 10.0917 74.856 8.98272 75.5915C8.78109 75.7253 8.78109 75.859 8.98272 76.0262C10.0581 76.7617 10.8982 77.7313 11.5031 78.9015C11.5368 78.9349 11.5704 79.0018 11.6376 79.0687Z" fill="#8DB600"/>
<path d="M21.5548 57.0151C20.1433 57.0485 19.0343 55.9786 19.0007 54.5744C18.9671 53.1702 20.1097 52 21.5212 52C22.899 52 24.0416 53.1033 24.0416 54.4741C24.0416 55.8449 22.9326 56.9817 21.5548 57.0151ZM22.9662 54.5075C22.9662 53.7051 22.2605 53.0365 21.4539 53.0699C20.6474 53.0699 20.0425 53.7386 20.0425 54.5075C20.0425 55.31 20.681 55.9452 21.4539 55.9786C22.2269 56.0121 22.9662 55.2765 22.9662 54.5075Z" fill="#8DB600"/>
<path d="M10.5548 98.0151C9.14332 98.0485 8.03433 96.9786 8.00072 95.5744C7.96712 94.1702 9.10971 93 10.5212 93C11.899 93 13.0416 94.1033 13.0416 95.4741C13.0416 96.8449 11.9326 97.9817 10.5548 98.0151ZM11.9662 95.5075C11.9662 94.7051 11.2605 94.0365 10.4539 94.0699C9.6474 94.0699 9.0425 94.7386 9.0425 95.5075C9.0425 96.31 9.68101 96.9452 10.4539 96.9786C11.2269 97.0121 11.9662 96.2765 11.9662 95.5075Z" fill="#8DB600"/>
<path d="M142.644 40.6224C142.678 42.0266 141.569 43.1299 140.191 43.1634C138.813 43.1968 137.637 42.0935 137.604 40.7227C137.57 39.285 138.679 38.1482 140.09 38.1148C141.502 38.1482 142.611 39.2181 142.644 40.6224ZM140.158 39.2181C139.351 39.2181 138.645 39.8868 138.645 40.6558C138.645 41.3914 139.351 42.0935 140.09 42.1269C140.897 42.1604 141.569 41.4582 141.569 40.6558C141.603 39.8534 140.931 39.2181 140.158 39.2181Z" fill="#8DB600"/>
<path d="M143.922 20.9298C143.922 19.5255 144.997 18.4222 146.408 18.3888C147.82 18.3553 148.962 19.5255 148.962 20.9298C148.962 22.3006 147.82 23.4373 146.442 23.4039C145.031 23.4373 143.922 22.334 143.922 20.9298ZM146.442 22.3674C147.249 22.3674 147.921 21.6653 147.887 20.8629C147.853 20.0939 147.215 19.4587 146.408 19.4587C145.636 19.4587 144.963 20.0939 144.93 20.8629C144.93 21.6653 145.636 22.4008 146.442 22.3674Z" fill="#8DB600"/>
<path d="M140.124 6.08504C140.124 6.75372 139.552 7.3221 138.88 7.28866C138.242 7.25523 137.704 6.72029 137.738 6.08504C137.738 5.44979 138.242 4.91484 138.914 4.88141C139.586 4.88141 140.124 5.41636 140.124 6.08504ZM139.015 6.08504C138.981 6.08504 138.914 6.0516 138.88 6.0516C138.813 6.08504 138.813 6.11847 138.88 6.1519C138.914 6.1519 138.948 6.18534 138.948 6.1519C138.981 6.11847 139.015 6.08504 139.015 6.08504Z" fill="#8DB600"/>
<path d="M2.41962 61.1718C2.41962 61.8404 1.81472 62.4088 1.1426 62.3754C0.470484 62.3419 0 61.8404 0 61.1718C0 60.4696 0.537692 59.9681 1.24341 60.0016C1.88192 60.0016 2.41962 60.5365 2.41962 61.1718ZM1.27702 61.1718C1.27702 61.1049 1.20981 61.1049 1.1762 61.1383C1.1426 61.1383 1.1426 61.1718 1.10899 61.1718C1.1426 61.2052 1.1762 61.2386 1.1762 61.2386C1.24341 61.2386 1.24342 61.1718 1.27702 61.1718Z" fill="#8DB600"/>
<path d="M26.1443 92C26.85 92 27.3541 92.4681 27.3541 93.2036C27.3541 93.8389 26.8164 94.3738 26.1779 94.3738C25.5394 94.3738 25.0017 93.8723 25.0017 93.2036C24.9681 92.5015 25.4386 92 26.1443 92ZM26.2451 93.2371C26.2451 93.2036 26.2115 93.1368 26.2115 93.1033C26.1779 93.1368 26.1107 93.1368 26.0771 93.1702C26.0099 93.2036 26.0435 93.2705 26.1107 93.2705C26.1779 93.2705 26.2115 93.2371 26.2451 93.2371Z" fill="#8DB600"/>
<path d="M41.2227 28.3187C42.2981 28.3187 43.071 29.1545 43.0038 30.2578C42.9702 30.7594 42.8358 31.2609 42.735 31.7624C42.0965 35.2061 42.0293 38.6498 42.567 42.1269C43.2055 46.2059 43.8104 50.3183 44.4153 54.3973C45.0202 58.4428 45.6587 62.4883 46.2636 66.5338C46.3308 66.9351 46.398 67.3363 46.4316 67.7375C46.5324 68.6736 45.8939 69.5095 44.9865 69.6767C44.0792 69.8773 43.1382 69.3423 42.9366 68.4396C42.735 67.5703 42.6342 66.701 42.4997 65.8317C41.6932 60.5826 40.8867 55.3334 40.1137 50.0508C39.6769 47.1755 39.2064 44.3002 38.8367 41.3914C38.3662 37.513 38.5679 33.6681 39.4416 29.8232C39.6433 28.8536 40.3154 28.3187 41.2227 28.3187Z" fill="#2F3A5A"/>
<path d="M39.6434 37.4127C39.6434 38.4492 39.677 39.5525 39.8115 40.6893C40.1811 43.9658 40.7524 47.2424 41.2565 50.5189C42.0294 55.7346 42.836 60.9838 43.6425 66.1995C43.7433 66.8013 43.8105 67.4031 43.945 68.0049C44.0458 68.4396 44.3482 68.6402 44.7515 68.6068C45.1548 68.5733 45.39 68.2724 45.39 67.8043C45.39 67.6037 45.3564 67.4366 45.3228 67.236C44.7515 63.5248 44.1802 59.847 43.6425 56.1358C43.004 51.99 42.4327 47.8442 41.727 43.6983C40.9877 39.3185 40.9205 34.9386 41.8614 30.5587C42.0294 29.8232 41.8614 29.422 41.3573 29.3551C40.8532 29.2548 40.5508 29.5557 40.3828 30.2913C39.9123 32.6316 39.6434 34.972 39.6434 37.4127Z" fill="white"/>
<path d="M108.636 32.3642C108.636 33.4007 107.997 34.1697 107.124 34.27C106.082 34.3703 105.275 33.8019 105.074 32.7654C104.872 31.5618 104.637 30.3582 104.301 29.1546C102.083 21.3644 97.546 15.2794 90.7241 10.8995C90.4217 10.6989 90.0856 10.5318 89.7832 10.2977C89.0102 9.72933 88.8086 8.75975 89.2791 7.92389C89.716 7.15491 90.7241 6.82057 91.5979 7.22178C91.8331 7.32208 92.0347 7.45582 92.2364 7.58955C97.6469 10.8995 101.848 15.3463 104.872 20.8963C106.72 24.3066 107.93 27.9509 108.602 31.7624C108.602 31.9965 108.636 32.2305 108.636 32.3642Z" fill="#2F3A5A"/>
<path d="M107.594 32.3977C107.493 31.9296 107.426 31.4615 107.325 30.9935C105.309 21.2641 100.066 13.7749 91.5977 8.49232C91.4297 8.39202 91.2952 8.29171 91.0936 8.22484C90.6903 8.05767 90.3543 8.19141 90.119 8.55919C89.9174 8.89353 89.9846 9.19443 90.3207 9.46191C90.4551 9.59564 90.6231 9.66251 90.7911 9.76281C98.9237 14.8782 103.931 22.1 105.846 31.495C105.947 31.9296 105.981 32.3308 106.115 32.7655C106.216 33.1332 106.552 33.3338 106.922 33.267C107.359 33.1332 107.628 32.7989 107.594 32.3977Z" fill="white"/>
<path d="M51.6069 14.3767C50.8676 14.3767 50.2963 14.0758 49.9938 13.4071C49.6914 12.7384 49.725 12.0363 50.2291 11.4679C50.5315 11.1001 50.9348 10.7992 51.3045 10.4983C56.2445 6.41935 61.9238 3.91179 68.2417 2.84189C68.645 2.77503 69.0482 2.74159 69.4179 2.87533C70.1908 3.1428 70.6613 3.87835 70.5941 4.68077C70.5269 5.48319 69.9892 6.15187 69.1826 6.28561C67.8384 6.51965 66.4942 6.78712 65.1836 7.1549C60.6468 8.45883 56.6141 10.632 53.052 13.708C52.4135 14.2764 52.1782 14.3767 51.6069 14.3767Z" fill="#2F3A5A"/>
<path d="M69.5523 4.54706C69.5187 4.11242 69.1826 3.81151 68.645 3.87838C67.9392 3.94525 67.2671 4.07899 66.595 4.24616C60.9157 5.44978 55.9085 7.95734 51.5061 11.7354C51.3381 11.9026 51.1365 12.0363 51.0021 12.2369C50.8004 12.5378 50.834 12.8721 51.1029 13.1062C51.3381 13.3737 51.6406 13.474 51.9766 13.2399C52.1783 13.1062 52.3463 12.939 52.5479 12.8053C56.4125 9.4953 60.8149 7.22179 65.7885 5.98473C66.763 5.75069 67.7712 5.51665 68.7794 5.38291C69.2835 5.28261 69.5859 4.94827 69.5523 4.54706Z" fill="white"/>
<rect x="35.5241" y="73.3781" width="87.3733" height="82.9639" rx="1" transform="rotate(-8.30056 35.5241 73.3781)" fill="#FAB505" stroke="#2F3A5A" stroke-width="2"/>
<path d="M95.195 99.7609L95.1949 99.7607C94.8777 97.6513 93.9945 95.6672 92.6385 94.0156C91.2826 92.3641 89.5041 91.1062 87.4895 90.3722L87.1471 91.3118L87.4895 90.3722C85.4749 89.6382 83.2978 89.4548 81.1852 89.8405C79.0727 90.2263 77.1013 91.1671 75.4771 92.5656C73.8528 93.9642 72.635 95.7694 71.9521 97.7934C71.2692 99.8175 71.1465 101.985 71.5974 104.07C72.0483 106.155 73.056 108.08 74.5144 109.643C75.8264 111.049 77.4596 112.116 79.2722 112.757L81.7771 129.195L81.9277 130.184L82.9163 130.033L92.1883 128.62L93.1769 128.47L93.0263 127.481L90.5214 111.043C92.1611 109.822 93.4628 108.202 94.2966 106.335C95.2182 104.272 95.5301 101.991 95.195 99.7609Z" fill="#FEF4EF" stroke="#2F3A5A" stroke-width="2"/>
</svg>
