<svg width="75" height="81" viewBox="0 0 75 81" fill="none" xmlns="http://www.w3.org/2000/svg">
<g filter="url(#filter0_d_138_240)">
<path d="M55.4752 21.8699H51.3639C51.3639 14.4601 45.3405 8.43667 37.9307 8.43667C30.5209 8.43667 24.4975 14.4601 24.4975 21.8699H20.3862C20.3862 12.2133 28.2741 4.32544 37.9307 4.32544C47.5873 4.32544 55.4752 12.2133 55.4752 21.8699Z" fill="#909090"/>
<path d="M51.6508 17.0416C50.3123 12.787 45.723 6.95477 38.0264 6.95477C30.7122 6.95477 26.1707 12.2133 24.1629 15.9899C22.9199 18.3802 21.677 18.7626 20.9121 17.7587C20.6253 19.0494 20.4341 20.4358 20.4341 21.8221H24.5453C24.5453 14.4124 30.5688 8.38893 37.9785 8.38893C45.3883 8.38893 51.4118 14.4124 51.4118 21.8221H55.523C55.523 20.866 55.4274 19.9578 55.284 19.0495C54.3279 20.2446 52.5591 20.0055 51.6508 17.0416Z" fill="#6B6B6A"/>
<path d="M51.842 20.6747C45.0059 20.6747 39.3171 25.3596 37.6917 31.6699C36.0664 25.3596 30.3298 20.6747 23.5414 20.6747C15.4624 20.6747 8.91309 27.224 8.91309 35.3031C8.91309 58.7754 37.7395 68.9101 37.7395 68.9101C37.7395 68.9101 66.566 56.1939 66.566 35.3031C66.4704 27.224 59.9211 20.6747 51.842 20.6747Z" fill="#F9B233"/>
<path opacity="0.2" d="M21.5814 20.8182C14.4106 21.7743 8.86523 27.8934 8.86523 35.351C8.86523 58.8233 37.6917 68.9579 37.6917 68.9579C37.6917 68.9579 59.1084 59.4925 65.0362 43.5257C38.8868 76.5112 14.554 45.3422 21.5814 20.8182Z" fill="white"/>
<path d="M63.1242 31.9089C62.0725 33.6777 58.3915 33.4865 54.9017 31.4309C51.4119 29.3752 49.4519 26.2679 50.5036 24.4991C51.5553 22.7303 55.2363 22.9216 58.7261 24.9772C62.1681 27.0328 64.1759 30.1401 63.1242 31.9089Z" fill="#FAC15C"/>
<path d="M42.2713 41.3743C42.2713 43.6008 40.4444 45.4277 38.2179 45.4277C35.9914 45.4277 34.1646 43.6008 34.1646 41.3743C34.1646 39.1478 35.9914 37.3209 38.2179 37.3209C40.4444 37.3209 42.2713 39.1478 42.2713 41.3743Z" fill="#ED9800"/>
<path d="M41.3587 51.3079H35.3643L36.6202 43.715H40.1027L41.3587 51.3079Z" fill="#ED9800"/>
</g>
<defs>
<filter id="filter0_d_138_240" x="0.865234" y="0.325439" width="73.7007" height="80.6325" filterUnits="userSpaceOnUse" color-interpolation-filters="sRGB">
<feFlood flood-opacity="0" result="BackgroundImageFix"/>
<feColorMatrix in="SourceAlpha" type="matrix" values="0 0 0 0 0 0 0 0 0 0 0 0 0 0 0 0 0 0 127 0" result="hardAlpha"/>
<feOffset dy="4"/>
<feGaussianBlur stdDeviation="4"/>
<feColorMatrix type="matrix" values="0 0 0 0 0.976471 0 0 0 0 0.698039 0 0 0 0 0.2 0 0 0 0.3 0"/>
<feBlend mode="normal" in2="BackgroundImageFix" result="effect1_dropShadow_138_240"/>
<feBlend mode="normal" in="SourceGraphic" in2="effect1_dropShadow_138_240" result="shape"/>
</filter>
</defs>
</svg>
