<svg width="22" height="23" viewBox="0 0 22 23" fill="none" xmlns="http://www.w3.org/2000/svg">
<g clip-path="url(#clip0_107_79)">
<path opacity="0.5" d="M11.1566 11.3853C9.70074 11.3853 8.44005 10.8631 7.40997 9.8329C6.3799 8.80282 5.85773 7.54247 5.85773 6.0864C5.85773 4.63084 6.3799 3.37032 7.41014 2.33991C8.44038 1.31001 9.70091 0.787842 11.1566 0.787842C12.6127 0.787842 13.8731 1.31001 14.9032 2.34008C15.9332 3.37015 16.4556 4.63068 16.4556 6.0864C16.4556 7.54247 15.9332 8.80299 14.903 9.83306C13.8727 10.863 12.6122 11.3853 11.1566 11.3853Z" fill="white"/>
<path d="M1.88509 17.7047C1.91479 17.276 1.97488 16.8084 2.06334 16.3146C2.15263 15.8171 2.26761 15.3468 2.40524 14.9169C2.54741 14.4727 2.74077 14.0339 2.97978 13.6135C3.22786 13.1771 3.51924 12.7971 3.84621 12.4844C4.18811 12.1572 4.60672 11.8942 5.09079 11.7024C5.57318 11.5115 6.10777 11.4148 6.67963 11.4148C6.90421 11.4148 7.1214 11.507 7.54085 11.7801C7.799 11.9484 8.10095 12.1431 8.43799 12.3585C8.72618 12.5421 9.11659 12.7141 9.59882 12.8699C10.0693 13.0221 10.547 13.0993 11.0185 13.0993C11.4899 13.0993 11.9675 13.0221 12.4384 12.8699C12.9202 12.7143 13.3106 12.5423 13.5984 12.3586C13.9323 12.1453 14.2344 11.9506 14.4964 11.7799C14.9154 11.5068 15.1327 11.4147 15.3573 11.4147C15.9293 11.4147 16.4637 11.5115 16.946 11.7025C17.4297 11.894 17.8485 12.1571 18.1907 12.4845C18.5175 12.7974 18.8091 13.1772 19.0568 13.6135C19.2957 14.0339 19.489 14.4725 19.6313 14.9171C19.7688 15.347 19.8838 15.8171 19.9731 16.3146C20.0615 16.8077 20.1216 17.2755 20.1513 17.7052C20.1805 18.1262 20.1953 18.5631 20.1953 19.0043C20.1953 20.1527 19.8302 21.0824 19.1104 21.7681C18.3994 22.4447 17.4586 22.7879 16.3145 22.7879H5.72139C4.57735 22.7879 3.6369 22.4448 2.92574 21.7681C2.20567 21.0829 1.84061 20.1531 1.84061 19.0042C1.84077 18.5609 1.85571 18.1236 1.88509 17.7047Z" fill="white"/>
</g>
<defs>
<clipPath id="clip0_107_79">
<rect width="22" height="22" fill="white" transform="matrix(-1 0 0 1 22 0.787842)"/>
</clipPath>
</defs>
</svg>
