<svg width="74" height="82" viewBox="0 0 74 82" fill="none" xmlns="http://www.w3.org/2000/svg">
<g filter="url(#filter0_d_138_149)">
<path d="M54.9092 22.5283H50.798C50.798 15.1185 44.7746 9.09505 37.3648 9.09505C29.955 9.09505 23.9315 15.1185 23.9315 22.5283H19.8203C19.8203 12.8717 27.7082 4.98383 37.3648 4.98383C47.0214 4.98383 54.9092 12.8717 54.9092 22.5283Z" fill="#909090"/>
<path d="M51.0849 17.7C49.7463 13.4454 45.1571 7.61316 37.4604 7.61316C30.1463 7.61316 25.6048 12.8717 23.597 16.6483C22.354 19.0386 21.1111 19.421 20.3462 18.4171C20.0594 19.7078 19.8682 21.0942 19.8682 22.4805H23.9794C23.9794 15.0707 30.0028 9.04731 37.4126 9.04731C44.8224 9.04731 50.8459 15.0707 50.8459 22.4805H54.9571C54.9571 21.5244 54.8615 20.6161 54.7181 19.7078C53.762 20.903 51.9932 20.6639 51.0849 17.7Z" fill="#6B6B6A"/>
<path d="M51.2761 21.3331C44.44 21.3331 38.7512 26.018 37.1258 32.3283C35.5005 26.018 29.7638 21.3331 22.9755 21.3331C14.8965 21.3331 8.34717 27.8824 8.34717 35.9615C8.34717 59.4338 37.1736 69.5685 37.1736 69.5685C37.1736 69.5685 66.0001 56.8523 66.0001 35.9615C65.9045 27.8824 59.3552 21.3331 51.2761 21.3331Z" fill="#5FCFFF"/>
<path opacity="0.2" d="M21.0155 21.4766C13.8447 22.4327 8.29932 28.5517 8.29932 36.0093C8.29932 59.4816 37.1258 69.6163 37.1258 69.6163C37.1258 69.6163 58.5425 60.1509 64.4703 44.184C38.3209 77.1695 13.9881 46.0006 21.0155 21.4766Z" fill="white"/>
<path d="M62.5582 32.5673C61.5065 34.3361 57.8255 34.1449 54.3358 32.0893C50.846 30.0336 48.886 26.9263 49.9377 25.1575C50.9894 23.3887 54.6704 23.5799 58.1602 25.6356C61.6021 27.6912 63.61 30.7985 62.5582 32.5673Z" fill="#7FD9FF"/>
<path d="M41.7054 42.0327C41.7054 44.2592 39.8785 46.086 37.652 46.086C35.4255 46.086 33.5986 44.2592 33.5986 42.0327C33.5986 39.8062 35.4255 37.9793 37.652 37.9793C39.8785 37.9793 41.7054 39.8062 41.7054 42.0327Z" fill="#24BDFF"/>
<path d="M40.7928 51.9663H34.7983L36.0543 44.3734H39.5368L40.7928 51.9663Z" fill="#24BDFF"/>
</g>
<defs>
<filter id="filter0_d_138_149" x="0.299316" y="0.983826" width="73.7007" height="80.6324" filterUnits="userSpaceOnUse" color-interpolation-filters="sRGB">
<feFlood flood-opacity="0" result="BackgroundImageFix"/>
<feColorMatrix in="SourceAlpha" type="matrix" values="0 0 0 0 0 0 0 0 0 0 0 0 0 0 0 0 0 0 127 0" result="hardAlpha"/>
<feOffset dy="4"/>
<feGaussianBlur stdDeviation="4"/>
<feColorMatrix type="matrix" values="0 0 0 0 0.372549 0 0 0 0 0.811765 0 0 0 0 1 0 0 0 0.3 0"/>
<feBlend mode="normal" in2="BackgroundImageFix" result="effect1_dropShadow_138_149"/>
<feBlend mode="normal" in="SourceGraphic" in2="effect1_dropShadow_138_149" result="shape"/>
</filter>
</defs>
</svg>
