<svg width="228" height="228" viewBox="0 0 228 228" fill="none" xmlns="http://www.w3.org/2000/svg">
<g clip-path="url(#clip0_125_563)">
<path d="M69.4826 87.7174C72.6155 84.2994 75.8985 81.2237 79.5133 78.3681C79.9384 78.0325 80.5505 78.4344 80.4082 78.957C78.382 86.4039 74.842 93.7634 69.3849 99.2344C69.1397 95.4044 69.1361 91.5423 69.4826 87.7174Z" fill="#FAB505"/>
<path d="M69.3854 99.2372C66.2347 95.435 63.5271 91.5039 61.0877 87.2598C60.8088 86.7746 60.0668 86.9476 60.0384 87.5068C59.5983 96.2005 62.92 106.373 71.0127 110.476C70.2063 106.779 69.6252 103.016 69.3854 99.2372Z" fill="#FAB505"/>
<path d="M71.0122 110.473C72.995 106.393 75.2146 102.597 77.8161 98.9178C78.1247 98.4814 78.817 98.6814 78.8394 99.2156C79.1562 106.725 77.8677 114.664 74.2694 121.256C72.9355 117.747 71.8104 114.143 71.0122 110.473Z" fill="#FAB505"/>
<path d="M74.27 121.259C70.1788 118.629 66.4415 115.755 62.8567 112.525C62.4431 112.153 61.7945 112.542 61.9345 113.08C64.0942 121.384 70.2703 129.906 79.0633 131.411C77.2354 128.147 75.598 124.759 74.27 121.259Z" fill="#FAB505"/>
<path d="M79.062 131.408C79.7787 126.957 80.8038 122.712 82.2308 118.467C82.4004 117.962 83.1174 117.952 83.2953 118.454C85.7909 125.5 86.8018 133.448 85.2962 140.753C83.0073 137.791 80.8899 134.678 79.062 131.408Z" fill="#FAB505"/>
<path d="M85.2976 140.756C80.634 139.434 76.228 137.782 71.8646 135.757C71.3605 135.523 70.8552 136.084 71.1458 136.557C75.6322 143.874 84.0318 150.208 92.8786 149.116C90.1628 146.515 87.5965 143.735 85.2976 140.756Z" fill="#FAB505"/>
<path d="M92.8764 149.115C92.2401 144.63 91.9697 140.257 92.0947 135.761C92.1094 135.228 92.7931 135.009 93.1097 135.438C97.5781 141.496 100.912 148.855 101.709 156.316C98.6022 154.132 95.6188 151.746 92.8764 149.115Z" fill="#FAB505"/>
<path d="M182.517 87.7174C179.384 84.2994 176.101 81.2237 172.487 78.3681C172.062 78.0325 171.449 78.4344 171.592 78.957C173.618 86.4039 177.158 93.7634 182.615 99.2344C182.86 95.4044 182.864 91.5423 182.517 87.7174Z" fill="#FAB505"/>
<path d="M182.615 99.2372C185.765 95.435 188.473 91.5039 190.912 87.2598C191.191 86.7746 191.933 86.9476 191.962 87.5068C192.402 96.2005 189.08 106.373 180.987 110.476C181.794 106.779 182.375 103.016 182.615 99.2372Z" fill="#FAB505"/>
<path d="M180.988 110.473C179.005 106.393 176.785 102.597 174.184 98.9178C173.875 98.4814 173.183 98.6814 173.161 99.2156C172.844 106.725 174.132 114.664 177.73 121.256C179.064 117.747 180.19 114.143 180.988 110.473Z" fill="#FAB505"/>
<path d="M177.73 121.259C181.821 118.629 185.558 115.755 189.143 112.525C189.557 112.153 190.205 112.542 190.065 113.08C187.906 121.384 181.729 129.906 172.937 131.411C174.764 128.147 176.402 124.759 177.73 121.259Z" fill="#FAB505"/>
<path d="M172.938 131.408C172.221 126.957 171.196 122.712 169.769 118.467C169.599 117.962 168.882 117.952 168.705 118.454C166.209 125.5 165.198 133.448 166.704 140.753C168.993 137.791 171.11 134.678 172.938 131.408Z" fill="#FAB505"/>
<path d="M166.702 140.756C171.366 139.434 175.772 137.782 180.135 135.757C180.639 135.523 181.144 136.084 180.854 136.557C176.367 143.874 167.968 150.208 159.121 149.116C161.837 146.515 164.403 143.735 166.702 140.756Z" fill="#FAB505"/>
<path d="M159.123 149.115C159.76 144.63 160.03 140.257 159.905 135.761C159.89 135.228 159.207 135.009 158.89 135.438C154.422 141.496 151.088 148.855 150.291 156.316C153.398 154.132 156.381 151.746 159.123 149.115Z" fill="#FAB505"/>
<path d="M112.62 160.408C109.05 158.648 105.786 156.732 102.92 154.715C102.919 154.715 102.918 154.715 102.918 154.714C102.917 154.714 102.917 154.713 102.916 154.713C99.717 152.465 96.8326 150.114 94.3422 147.725C94.3416 147.724 94.3411 147.723 94.3406 147.723C91.5451 145.045 89.0681 142.314 86.9777 139.605C86.9772 139.604 86.9765 139.603 86.9759 139.602C86.9757 139.602 86.9757 139.602 86.9754 139.602C84.6175 136.55 82.58 133.496 80.9197 130.526C80.9189 130.524 80.9179 130.523 80.9171 130.521C79.034 127.158 77.4683 123.843 76.2638 120.667C76.2633 120.666 76.2628 120.665 76.2623 120.664V120.664C74.8866 117.044 73.8221 113.521 73.0979 110.192C73.0979 110.191 73.0976 110.191 73.0976 110.191C72.2662 106.379 71.7343 102.708 71.517 99.2818C71.517 99.28 71.5165 99.2785 71.5165 99.2769C71.2638 95.3306 71.2953 91.5691 71.6101 88.0971C71.6139 88.0551 71.6139 88.0133 71.615 87.9716C72.0305 82.6026 73.0244 77.2208 74.5739 71.9725C74.8853 70.9173 74.2823 69.8095 73.2271 69.498C72.1723 69.1863 71.064 69.7891 70.7526 70.8448C69.1075 76.4174 68.0558 82.1355 67.6271 87.8401C67.6243 87.879 67.625 87.9172 67.6243 87.9556C67.3092 91.5706 67.2796 95.4631 67.5402 99.5321C67.5402 99.5329 67.5402 99.5334 67.5402 99.5342C67.7702 103.158 68.3294 107.025 69.2026 111.029C69.2034 111.032 69.2036 111.035 69.2041 111.039C69.9701 114.56 71.0916 118.275 72.5377 122.079C72.5379 122.08 72.5379 122.08 72.5382 122.081C73.8125 125.439 75.462 128.935 77.441 132.469C77.4413 132.47 77.4415 132.47 77.4418 132.471C77.4425 132.472 77.4431 132.473 77.4438 132.474C77.4438 132.474 77.4438 132.474 77.4441 132.474C79.2001 135.614 81.3458 138.832 83.8224 142.037C83.8234 142.039 83.8244 142.039 83.8252 142.041C86.0349 144.904 88.6437 147.783 91.5794 150.595C91.5802 150.596 91.5807 150.597 91.5815 150.597C94.2176 153.127 97.2606 155.608 100.626 157.973C100.627 157.973 100.627 157.974 100.627 157.974C103.661 160.109 107.104 162.13 110.858 163.982C111.142 164.121 111.442 164.188 111.738 164.188C112.472 164.188 113.179 163.78 113.526 163.076C114.012 162.089 113.607 160.895 112.62 160.408Z" fill="#F7BC14"/>
<path d="M184.376 87.9556C184.375 87.9172 184.376 87.8793 184.373 87.8406C183.944 82.1349 182.893 76.4167 181.248 70.8451C180.936 69.7901 179.829 69.1884 178.773 69.4985C177.718 69.81 177.115 70.918 177.426 71.9733C178.976 77.2203 179.969 82.6018 180.385 87.9713C180.387 88.0133 180.387 88.0553 180.39 88.0976C180.705 91.5683 180.737 95.33 180.484 99.2779C180.484 99.2787 180.484 99.2795 180.484 99.28C180.484 99.2808 180.484 99.2813 180.484 99.2821C180.266 102.707 179.735 106.377 178.903 110.191C178.903 110.191 178.903 110.192 178.903 110.192C178.179 113.521 177.114 117.044 175.738 120.664C175.738 120.664 175.738 120.665 175.738 120.665C175.737 120.666 175.737 120.667 175.736 120.668C174.532 123.843 172.966 127.159 171.081 130.525C171.081 130.525 171.081 130.526 171.081 130.526C169.421 133.496 167.383 136.549 165.025 139.602C165.024 139.603 165.024 139.603 165.023 139.604C165.023 139.604 165.023 139.604 165.023 139.605C162.933 142.313 160.455 145.044 157.66 147.723C157.659 147.723 157.659 147.724 157.658 147.725C155.169 150.113 152.284 152.464 149.084 154.713C149.083 154.714 149.082 154.714 149.081 154.715C149.081 154.715 149.081 154.715 149.08 154.715C146.214 156.732 142.95 158.648 139.38 160.408C138.393 160.895 137.987 162.089 138.474 163.076C138.821 163.78 139.527 164.187 140.262 164.187C140.558 164.187 140.858 164.121 141.142 163.981C144.896 162.13 148.337 160.109 151.371 157.975C151.372 157.974 151.373 157.974 151.374 157.973C154.74 155.607 157.783 153.126 160.419 150.597C160.42 150.596 160.42 150.596 160.421 150.595C163.358 147.78 165.967 144.902 168.177 142.038C168.177 142.038 168.177 142.038 168.177 142.038C168.177 142.038 168.178 142.037 168.178 142.037C170.656 138.829 172.803 135.611 174.558 132.47C174.56 132.468 174.561 132.466 174.562 132.464C176.54 128.93 178.189 125.436 179.462 122.081C179.462 122.08 179.462 122.08 179.462 122.08C179.462 122.08 179.462 122.08 179.462 122.079C180.907 118.277 182.028 114.565 182.794 111.044C182.794 111.044 182.795 111.043 182.795 111.042C183.67 107.032 184.23 103.16 184.46 99.5339C184.46 99.5311 184.46 99.5285 184.46 99.5259C184.72 95.4577 184.691 91.5673 184.376 87.9556Z" fill="#F7BC14"/>
<path d="M114.68 127.316C108.937 127.316 103.339 125.281 98.8851 121.491C93.39 116.814 90.2383 109.995 90.2383 102.782V96.0457C90.2383 95.2672 90.542 94.535 91.0932 93.9851C91.6426 93.4372 92.3722 93.1356 93.1477 93.1356C93.1503 93.1356 93.1528 93.1356 93.1554 93.1356L110.792 93.1742C111.892 93.1766 112.782 94.0704 112.78 95.1707C112.777 96.2693 111.886 97.1585 110.788 97.1585C110.786 97.1585 110.785 97.1585 110.783 97.1585L94.2225 97.1221L94.2223 102.782C94.2223 108.825 96.8628 114.538 101.467 118.456C106.035 122.344 112.042 124.025 117.942 123.068C118.147 123.035 118.353 123 118.561 122.964C119.646 122.776 120.677 123.499 120.867 124.582C121.057 125.666 120.332 126.698 119.248 126.888C119.024 126.927 118.801 126.965 118.58 127.001C117.281 127.212 115.976 127.316 114.68 127.316Z" fill="#FFB125"/>
<path d="M137.32 127.316C136.023 127.316 134.72 127.212 133.42 127.001C133.199 126.965 132.976 126.928 132.751 126.888C131.667 126.699 130.943 125.666 131.133 124.582C131.322 123.499 132.356 122.775 133.439 122.964C133.646 123.001 133.853 123.035 134.057 123.068C139.959 124.025 145.964 122.344 150.533 118.456C155.137 114.538 157.777 108.825 157.777 102.782V97.1224L141.217 97.1587C141.215 97.1587 141.214 97.1587 141.212 97.1587C140.114 97.1587 139.223 96.2698 139.22 95.171C139.218 94.0706 140.108 93.1768 141.208 93.1745L158.845 93.1358C158.848 93.1358 158.85 93.1358 158.853 93.1358C159.628 93.1358 160.357 93.4372 160.907 93.9853C161.458 94.5355 161.762 95.2671 161.762 96.046V102.782C161.762 109.995 158.61 116.815 153.115 121.491C148.661 125.281 143.063 127.316 137.32 127.316Z" fill="#FFB125"/>
<path d="M112.902 156.186H139.098C128.247 142.425 129.379 122.594 129.379 122.594H126H122.621C122.621 122.594 123.753 142.425 112.902 156.186Z" fill="#FED130"/>
<path d="M129.379 122.594H126H122.621C122.621 122.594 122.796 125.673 122.345 130.246C121.486 138.963 123.648 147.756 128.75 154.877C129.066 155.318 129.394 155.755 129.734 156.186H139.098C128.247 142.425 129.379 122.594 129.379 122.594Z" fill="#F7BC14"/>
<path d="M106.239 87.4271V104.807C106.239 115.089 111.126 124.759 119.404 130.857C123.327 133.747 128.673 133.747 132.595 130.857C140.874 124.759 145.76 115.089 145.76 104.807V87.4271H106.239Z" fill="#FED130"/>
<path d="M136.352 87.4271V104.807C136.352 115.089 131.465 124.759 123.187 130.857C122.586 131.3 121.952 131.674 121.295 131.98C124.93 133.679 129.273 133.305 132.595 130.857C140.873 124.759 145.76 115.089 145.76 104.807V87.4271H136.352Z" fill="#F7BC14"/>
<path d="M147.176 90.1419H104.824C104.185 90.1419 103.668 89.6245 103.668 88.9861V84.1965C103.668 83.5581 104.185 83.0407 104.824 83.0407H147.176C147.814 83.0407 148.332 83.5581 148.332 84.1965V88.9861C148.332 89.6245 147.814 90.1419 147.176 90.1419Z" fill="#FFB125"/>
<path d="M147.176 83.0409H138.923V90.1418H147.176C147.815 90.1418 148.332 89.6244 148.332 88.986V84.1964C148.332 83.5583 147.815 83.0409 147.176 83.0409Z" fill="#FAB505"/>
<path d="M148.472 164.584H103.706C103.057 164.584 102.606 163.938 102.831 163.329L106.156 154.321C106.291 153.955 106.64 153.712 107.03 153.712H145.148C145.538 153.712 145.887 153.955 146.022 154.321L149.347 163.329C149.571 163.938 149.121 164.584 148.472 164.584Z" fill="#FFB125"/>
<path d="M149.347 163.329L146.022 154.321C145.887 153.955 145.538 153.712 145.148 153.712H136.056L140.068 164.584H148.472C149.121 164.584 149.571 163.938 149.347 163.329Z" fill="#FAB505"/>
</g>
<path d="M73.9636 43.4112L74.9668 45.2352L76.7908 46.2384L74.9668 47.2416L73.9636 49.0656L72.9148 47.2416L71.0908 46.2384L72.9148 45.2352L73.9636 43.4112Z" fill="white"/>
<path d="M220.294 44.916L221.297 46.74L223.121 47.7432L221.297 48.7464L220.294 50.5704L219.291 48.7464L217.421 47.7432L219.291 46.74L220.294 44.916Z" fill="white"/>
<path d="M217.421 98.9976L218.47 100.822L220.294 101.825L218.47 102.828L217.421 104.652L216.418 102.828L214.594 101.825L216.418 100.822L217.421 98.9976Z" fill="white"/>
<path d="M54.5835 171L55.5867 172.824L57.4563 173.827L55.5867 174.83L54.5835 176.7L53.5803 174.83L51.7563 173.827L53.5803 172.824L54.5835 171Z" fill="white"/>
<path d="M77.794 82.7184L78.7972 84.5424L80.6212 85.5456L78.7972 86.5488L77.794 88.3728L76.7908 86.5488L74.9668 85.5456L76.7908 84.5424L77.794 82.7184Z" fill="white"/>
<path d="M103.695 201.552L104.698 203.376L106.522 204.379L104.698 205.382L103.695 207.252L102.692 205.382L100.822 204.379L102.692 203.376L103.695 201.552Z" fill="white"/>
<path d="M132.97 54.7656L133.973 56.5896L135.843 57.5928L133.973 58.596L132.97 60.4656L131.967 58.596L130.143 57.5928L131.967 56.5896L132.97 54.7656Z" fill="white"/>
<path d="M42.3174 75.8784L43.3206 77.7024L45.1446 78.7056L43.3206 79.7088L42.3174 81.5784L41.3142 79.7088L39.4902 78.7056L41.3142 77.7024L42.3174 75.8784Z" fill="white"/>
<path d="M201.233 166.896L202.236 168.72L204.06 169.723L202.236 170.726L201.233 172.596L200.23 170.726L198.36 169.723L200.23 168.72L201.233 166.896Z" fill="white"/>
<path d="M114.411 22.8912L113.864 21.8424C116.783 18.8784 116.327 16.3248 116.327 16.3248L117.193 17.8752C117.421 19.5624 114.411 22.8912 114.411 22.8912Z" fill="#F9DD4D"/>
<path d="M120.247 21.5688C120.247 21.5688 120.339 23.8944 118.423 27.6336C118.423 27.6336 117.922 27.2688 117.603 26.4936C117.603 26.4936 119.655 21.66 119.199 20.5656C119.199 20.52 119.974 20.7024 120.247 21.5688Z" fill="#F9DD4D"/>
<path d="M121.342 31.692C121.342 31.692 121.023 29.8224 122.938 26.0832C122.938 26.0832 123.667 25.8552 124.032 26.6304C124.032 26.6304 121.935 31.6008 122.436 32.6952C122.391 32.7408 121.615 32.5584 121.342 31.692Z" fill="#F9DD4D"/>
<path d="M114.411 22.8912L113.864 21.8424C116.783 18.8784 116.327 16.3248 116.327 16.3248L117.193 17.8752C117.421 19.5624 114.411 22.8912 114.411 22.8912Z" fill="#F9DD4D"/>
<path d="M120.247 21.5688C120.247 21.5688 120.339 23.8944 118.423 27.6336C118.423 27.6336 117.922 27.2688 117.603 26.4936C117.603 26.4936 119.655 21.66 119.199 20.5656C119.199 20.52 119.974 20.7024 120.247 21.5688Z" fill="#F9DD4D"/>
<path d="M121.342 31.692C121.342 31.692 121.023 29.8224 122.938 26.0832C122.938 26.0832 123.667 25.8552 124.032 26.6304C124.032 26.6304 121.935 31.6008 122.436 32.6952C122.391 32.7408 121.615 32.5584 121.342 31.692Z" fill="#F9DD4D"/>
<path d="M114.411 22.8912L113.864 21.8424C116.783 18.8784 116.327 16.3248 116.327 16.3248L117.193 17.8752C117.421 19.5624 114.411 22.8912 114.411 22.8912Z" fill="#F9DD4D"/>
<path d="M120.247 21.5688C120.247 21.5688 120.339 23.8944 118.423 27.6336C118.423 27.6336 117.922 27.2688 117.603 26.4936C117.603 26.4936 119.655 21.66 119.199 20.5656C119.199 20.52 119.974 20.7024 120.247 21.5688Z" fill="#F9DD4D"/>
<path d="M121.342 31.692C121.342 31.692 121.023 29.8224 122.938 26.0832C122.938 26.0832 123.667 25.8552 124.032 26.6304C124.032 26.6304 121.935 31.6008 122.436 32.6952C122.391 32.7408 121.615 32.5584 121.342 31.692Z" fill="#F9DD4D"/>
<path d="M114.411 22.8912L113.864 21.8424C116.783 18.8784 116.327 16.3248 116.327 16.3248L117.193 17.8752C117.421 19.5624 114.411 22.8912 114.411 22.8912Z" fill="#F9DD4D"/>
<path d="M120.247 21.5688C120.247 21.5688 120.339 23.8944 118.423 27.6336C118.423 27.6336 117.922 27.2688 117.603 26.4936C117.603 26.4936 119.655 21.66 119.199 20.5656C119.199 20.52 119.974 20.7024 120.247 21.5688Z" fill="#F9DD4D"/>
<path d="M121.342 31.692C121.342 31.692 121.023 29.8224 122.938 26.0832C122.938 26.0832 123.667 25.8552 124.032 26.6304C124.032 26.6304 121.935 31.6008 122.436 32.6952C122.391 32.7408 121.615 32.5584 121.342 31.692Z" fill="#F9DD4D"/>
<path d="M127.68 31.236L127.133 30.324C127.133 30.324 123.713 32.4672 121.342 31.7376C121.342 31.692 121.798 34.6104 127.68 31.236Z" fill="#F9DD4D"/>
<path d="M120.247 21.5688C120.247 21.5688 119.153 19.8816 114.411 22.8912C114.411 22.8912 113.818 22.3896 113.863 21.8424C113.863 21.8424 119.199 18.24 120.247 21.5688Z" fill="#F9DD4D"/>
<path d="M117.603 26.4479C117.603 26.4479 118.56 28.2263 123.531 25.5359C123.531 25.5359 124.078 26.0831 124.032 26.6303C123.987 26.6759 118.378 29.8223 117.603 26.4479Z" fill="#F9DD4D"/>
<path d="M117.147 17.8296C117.147 17.8296 115.642 15.9144 114.183 15.5496L114.502 14.5008C114.502 14.5008 116.964 15.4128 117.147 17.8296Z" fill="#F9DD4D"/>
<path d="M42.91 130.416L42.3628 129.367C45.2812 126.403 44.8252 123.85 44.8252 123.85L45.6916 125.4C45.874 127.087 42.91 130.416 42.91 130.416Z" fill="#F9DD4D"/>
<path d="M48.701 129.094C48.701 129.094 48.7922 131.419 46.877 135.158C46.877 135.158 46.3754 134.794 46.0562 134.018C46.0562 134.018 48.1082 129.185 47.6522 128.09C47.6522 128.045 48.4274 128.227 48.701 129.094Z" fill="#F9DD4D"/>
<path d="M49.7953 139.217C49.7953 139.217 49.4761 137.347 51.3913 133.608C51.3913 133.608 52.1209 133.38 52.4857 134.155C52.4857 134.155 50.3881 139.126 50.8897 140.22C50.8441 140.266 50.0689 140.083 49.7953 139.217Z" fill="#F9DD4D"/>
<path d="M42.91 130.416L42.3628 129.367C45.2812 126.403 44.8252 123.85 44.8252 123.85L45.6916 125.4C45.874 127.087 42.91 130.416 42.91 130.416Z" fill="#F9DD4D"/>
<path d="M48.701 129.094C48.701 129.094 48.7922 131.419 46.877 135.158C46.877 135.158 46.3754 134.794 46.0562 134.018C46.0562 134.018 48.1082 129.185 47.6522 128.09C47.6522 128.045 48.4274 128.227 48.701 129.094Z" fill="#F9DD4D"/>
<path d="M49.7953 139.217C49.7953 139.217 49.4761 137.347 51.3913 133.608C51.3913 133.608 52.1209 133.38 52.4857 134.155C52.4857 134.155 50.3881 139.126 50.8897 140.22C50.8441 140.266 50.0689 140.083 49.7953 139.217Z" fill="#F9DD4D"/>
<path d="M42.91 130.416L42.3628 129.367C45.2812 126.403 44.8252 123.85 44.8252 123.85L45.6916 125.4C45.874 127.087 42.91 130.416 42.91 130.416Z" fill="#F9DD4D"/>
<path d="M48.701 129.094C48.701 129.094 48.7922 131.419 46.877 135.158C46.877 135.158 46.3754 134.794 46.0562 134.018C46.0562 134.018 48.1082 129.185 47.6522 128.09C47.6522 128.045 48.4274 128.227 48.701 129.094Z" fill="#F9DD4D"/>
<path d="M49.7953 139.217C49.7953 139.217 49.4761 137.347 51.3913 133.608C51.3913 133.608 52.1209 133.38 52.4857 134.155C52.4857 134.155 50.3881 139.126 50.8897 140.22C50.8441 140.266 50.0689 140.083 49.7953 139.217Z" fill="#F9DD4D"/>
<path d="M42.91 130.416L42.3628 129.367C45.2812 126.403 44.8252 123.85 44.8252 123.85L45.6916 125.4C45.874 127.087 42.91 130.416 42.91 130.416Z" fill="#F9DD4D"/>
<path d="M48.701 129.094C48.701 129.094 48.7922 131.419 46.877 135.158C46.877 135.158 46.3754 134.794 46.0562 134.018C46.0562 134.018 48.1082 129.185 47.6522 128.09C47.6522 128.045 48.4274 128.227 48.701 129.094Z" fill="#F9DD4D"/>
<path d="M49.7953 139.217C49.7953 139.217 49.4761 137.347 51.3913 133.608C51.3913 133.608 52.1209 133.38 52.4857 134.155C52.4857 134.155 50.3881 139.126 50.8897 140.22C50.8441 140.266 50.0689 140.083 49.7953 139.217Z" fill="#F9DD4D"/>
<path d="M56.1338 138.761L55.5866 137.849C55.5866 137.849 52.1666 139.992 49.7954 139.262C49.7954 139.217 50.2514 142.135 56.1338 138.761Z" fill="#F9DD4D"/>
<path d="M48.701 129.094C48.701 129.094 47.6066 127.406 42.8642 130.416C42.8642 130.416 42.2714 129.914 42.317 129.367C42.317 129.367 47.6522 125.765 48.701 129.094Z" fill="#F9DD4D"/>
<path d="M46.0562 133.973C46.0562 133.973 47.0138 135.751 51.9842 133.061C51.9842 133.061 52.5314 133.608 52.4858 134.155C52.4402 134.201 46.877 137.347 46.0562 133.973Z" fill="#F9DD4D"/>
<path d="M45.6002 125.354C45.6002 125.354 44.0954 123.439 42.6362 123.074L42.9554 122.026C42.9554 122.026 45.4634 122.938 45.6002 125.354Z" fill="#F9DD4D"/>
<path d="M77.4292 60.1464L78.022 58.6416C83.6308 59.0976 85.8652 56.4528 85.8652 56.4528L84.9988 58.6416C83.4484 60.42 77.4292 60.1464 77.4292 60.1464Z" fill="#8FD45D"/>
<path d="M83.7676 65.0712C83.7676 65.0712 81.3052 67.1688 75.7876 68.4C75.7876 68.4 75.8332 66.9864 76.5172 66.576C76.5172 66.576 83.1748 64.5696 83.95 63.1104C83.95 63.0648 84.4516 64.0224 83.7676 65.0712Z" fill="#8FD45D"/>
<path d="M77.4292 60.1464L78.022 58.6416C83.6308 59.0976 85.8652 56.4528 85.8652 56.4528L84.9988 58.6416C83.4484 60.42 77.4292 60.1464 77.4292 60.1464Z" fill="#8FD45D"/>
<path d="M83.7676 65.0712C83.7676 65.0712 81.3052 67.1688 75.7876 68.4C75.7876 68.4 75.8332 66.9864 76.5172 66.576C76.5172 66.576 83.1748 64.5696 83.95 63.1104C83.95 63.0648 84.4516 64.0224 83.7676 65.0712Z" fill="#8FD45D"/>
<path d="M77.4292 60.1464L78.022 58.6416C83.6308 59.0976 85.8652 56.4528 85.8652 56.4528L84.9988 58.6416C83.4484 60.42 77.4292 60.1464 77.4292 60.1464Z" fill="#8FD45D"/>
<path d="M83.7676 65.0712C83.7676 65.0712 81.3052 67.1688 75.7876 68.4C75.7876 68.4 75.8332 66.9864 76.5172 66.576C76.5172 66.576 83.1748 64.5696 83.95 63.1104C83.95 63.0648 84.4516 64.0224 83.7676 65.0712Z" fill="#8FD45D"/>
<path d="M77.4292 60.1464L78.022 58.6416C83.6308 59.0976 85.8652 56.4528 85.8652 56.4528L84.9988 58.6416C83.4484 60.42 77.4292 60.1464 77.4292 60.1464Z" fill="#8FD45D"/>
<path d="M83.7676 65.0712C83.7676 65.0712 81.3052 67.1688 75.7876 68.4C75.7876 68.4 75.8332 66.9864 76.5172 66.576C76.5172 66.576 83.1748 64.5696 83.95 63.1104C83.95 63.0648 84.4516 64.0224 83.7676 65.0712Z" fill="#8FD45D"/>
<path d="M77.2926 75.0576L78.5238 74.328C78.5238 74.328 75.5598 69.768 76.5174 66.5304C76.5174 66.5304 73.3254 67.2144 77.2926 75.0576Z" fill="#8FD45D"/>
<path d="M83.7678 65.0712C83.7678 65.0712 84.5886 62.472 77.3838 60.1464C77.3838 60.1464 77.3838 59.0976 77.9766 58.6416C78.0222 58.6416 86.3214 61.1496 83.7678 65.0712Z" fill="#8FD45D"/>
<path d="M84.9991 58.6416C84.9991 58.6416 85.6831 55.4496 84.8623 53.58L86.2303 53.0328C86.1847 53.0328 87.3703 56.4072 84.9991 58.6416Z" fill="#8FD45D"/>
<path d="M188.009 127.68L188.602 126.175C194.21 126.631 196.445 123.986 196.445 123.986L195.578 126.175C194.028 127.954 188.009 127.68 188.009 127.68Z" fill="#8FD45D"/>
<path d="M194.347 132.605C194.347 132.605 191.885 134.702 186.367 135.934C186.367 135.934 186.413 134.52 187.097 134.11C187.097 134.11 193.754 132.103 194.53 130.644C194.53 130.598 195.031 131.556 194.347 132.605Z" fill="#8FD45D"/>
<path d="M188.009 127.68L188.602 126.175C194.21 126.631 196.445 123.986 196.445 123.986L195.578 126.175C194.028 127.954 188.009 127.68 188.009 127.68Z" fill="#8FD45D"/>
<path d="M194.347 132.605C194.347 132.605 191.885 134.702 186.367 135.934C186.367 135.934 186.413 134.52 187.097 134.11C187.097 134.11 193.754 132.103 194.53 130.644C194.53 130.598 195.031 131.556 194.347 132.605Z" fill="#8FD45D"/>
<path d="M188.009 127.68L188.602 126.175C194.21 126.631 196.445 123.986 196.445 123.986L195.578 126.175C194.028 127.954 188.009 127.68 188.009 127.68Z" fill="#8FD45D"/>
<path d="M194.347 132.605C194.347 132.605 191.885 134.702 186.367 135.934C186.367 135.934 186.413 134.52 187.097 134.11C187.097 134.11 193.754 132.103 194.53 130.644C194.53 130.598 195.031 131.556 194.347 132.605Z" fill="#8FD45D"/>
<path d="M188.009 127.68L188.602 126.175C194.21 126.631 196.445 123.986 196.445 123.986L195.578 126.175C194.028 127.954 188.009 127.68 188.009 127.68Z" fill="#8FD45D"/>
<path d="M194.347 132.605C194.347 132.605 191.885 134.702 186.367 135.934C186.367 135.934 186.413 134.52 187.097 134.11C187.097 134.11 193.754 132.103 194.53 130.644C194.53 130.598 195.031 131.556 194.347 132.605Z" fill="#8FD45D"/>
<path d="M187.872 142.591L189.103 141.862C189.103 141.862 186.139 137.302 187.097 134.064C187.097 134.064 183.905 134.748 187.872 142.591Z" fill="#8FD45D"/>
<path d="M194.347 132.605C194.347 132.605 195.168 130.006 187.963 127.68C187.963 127.68 187.963 126.631 188.556 126.175C188.602 126.175 196.901 128.683 194.347 132.605Z" fill="#8FD45D"/>
<path d="M195.579 126.175C195.579 126.175 196.263 122.983 195.442 121.114L196.81 120.566C196.764 120.566 197.95 123.941 195.579 126.175Z" fill="#8FD45D"/>
<path d="M164.297 170.909C164.297 170.909 169.769 167.671 167.9 164.342L166.577 163.02C166.577 163.02 168.082 166.486 163.613 169.13L164.115 169.997L164.297 170.909Z" fill="#94305A"/>
<path d="M166.44 180.485C166.44 180.485 171.684 178.205 173.144 175.104C173.144 175.104 173.372 174.192 172.368 173.006C172.368 173.006 172.46 175.378 166.577 178.022L166.714 179.254L166.44 180.485Z" fill="#94305A"/>
<path d="M172.368 182.993L172.596 180.667C172.596 180.667 168.903 180.211 166.623 177.977L166.44 180.485C166.44 180.485 168.356 182.674 172.368 182.993Z" fill="#E44A8A"/>
<path d="M160.33 163.75L161.516 165.756C161.516 165.756 164.708 163.886 167.9 164.342L166.532 162.245C166.532 162.245 163.75 161.606 160.33 163.75Z" fill="#E44A8A"/>
<path d="M173.19 175.104C173.19 175.104 172.278 171.593 164.298 170.954C164.298 170.954 163.842 170.27 163.659 169.13C163.659 169.13 169.222 168.355 172.506 171.958C172.46 171.958 173.874 173.69 173.19 175.104Z" fill="#E44A8A"/>
<path d="M75.0127 196.126C75.0127 196.126 80.1199 193.116 78.3871 189.97L77.1559 188.738C77.1559 188.738 78.5239 191.976 74.4199 194.438L74.8759 195.259L75.0127 196.126Z" fill="#94305A"/>
<path d="M77.0645 205.063C77.0645 205.063 81.9436 202.92 83.3572 200.002C83.3572 200.002 83.5852 199.135 82.6276 198.041C82.6276 198.041 82.7188 200.275 77.2013 202.692L77.3381 203.832L77.0645 205.063Z" fill="#94305A"/>
<path d="M82.5821 207.434L82.8101 205.246C82.8101 205.246 79.39 204.835 77.2469 202.738L77.0645 205.063C77.0645 205.063 78.7973 207.115 82.5821 207.434Z" fill="#E44A8A"/>
<path d="M71.3188 189.422L72.4588 191.292C72.4588 191.292 75.4684 189.559 78.4324 189.97L77.1556 188.009C77.1556 188.009 74.5108 187.416 71.3188 189.422Z" fill="#E44A8A"/>
<path d="M83.3575 200.002C83.3575 200.002 82.4911 196.718 75.0583 196.126C75.0583 196.126 74.6479 195.487 74.4199 194.438C74.4199 194.438 79.6183 193.754 82.6735 197.083C82.6735 197.083 83.9959 198.679 83.3575 200.002Z" fill="#E44A8A"/>
<path d="M211.858 140.266C211.858 140.266 217.513 141.041 218.06 137.621L217.878 135.934C217.878 135.934 217.011 139.171 212.406 138.578L212.269 139.49L211.858 140.266Z" fill="#E8631C"/>
<path d="M208.073 148.246C208.073 148.246 213.044 149.522 215.825 148.154C215.825 148.154 216.509 147.653 216.464 146.239C216.464 146.239 215.232 147.972 209.624 146.558L209.031 147.516L208.073 148.246Z" fill="#E8631C"/>
<path d="M210.855 153.262L212.314 151.757C212.314 151.757 209.988 149.386 209.578 146.558L208.073 148.2C208.073 148.246 208.21 150.799 210.855 153.262Z" fill="#FE7F2D"/>
<path d="M213.044 133.061L212.77 135.158C212.77 135.158 216.053 135.66 218.06 137.712L218.288 135.478C218.288 135.432 216.646 133.426 213.044 133.061Z" fill="#FE7F2D"/>
<path d="M215.825 148.154C215.825 148.154 217.148 145.19 211.904 140.311C211.904 140.311 211.949 139.582 212.451 138.67C212.451 138.67 216.783 141.223 217.102 145.555C217.057 145.555 217.102 147.562 215.825 148.154Z" fill="#FE7F2D"/>
<path d="M34.6107 110.261C34.6107 110.99 34.0179 111.538 33.3339 111.538C32.6043 111.538 32.0571 110.945 32.0571 110.261C32.0571 109.531 32.6499 108.984 33.3339 108.984C34.0635 108.984 34.6107 109.577 34.6107 110.261Z" fill="white"/>
<path d="M222.939 120.384C222.939 121.114 222.346 121.661 221.662 121.661C220.932 121.661 220.385 121.068 220.385 120.384C220.385 119.654 220.978 119.107 221.662 119.107C222.346 119.107 222.939 119.7 222.939 120.384Z" fill="white"/>
<path d="M104.972 42.1344C104.972 42.864 104.379 43.4112 103.695 43.4112C102.965 43.4112 102.418 42.8184 102.418 42.1344C102.418 41.4048 103.011 40.8576 103.695 40.8576C104.379 40.812 104.972 41.4048 104.972 42.1344Z" fill="white"/>
<path d="M77.0643 158.642C77.0643 159.372 76.4715 159.919 75.7875 159.919C75.1035 159.919 74.5107 159.326 74.5107 158.642C74.5107 157.913 75.1035 157.366 75.7875 157.366C76.4715 157.366 77.0643 157.913 77.0643 158.642Z" fill="white"/>
<path d="M170.909 194.119C170.909 194.849 170.316 195.396 169.632 195.396C168.948 195.396 168.355 194.803 168.355 194.119C168.355 193.39 168.948 192.842 169.632 192.842C170.316 192.842 170.909 193.435 170.909 194.119Z" fill="white"/>
<path d="M207.936 85.5456C207.936 86.2752 207.344 86.8224 206.66 86.8224C205.93 86.8224 205.383 86.2296 205.383 85.5456C205.383 84.816 205.976 84.2688 206.66 84.2688C207.389 84.2688 207.936 84.816 207.936 85.5456Z" fill="white"/>
<path d="M148.884 40.812C148.884 41.5416 148.291 42.0888 147.607 42.0888C146.878 42.0888 146.331 41.496 146.331 40.812C146.331 40.0824 146.923 39.5352 147.607 39.5352C148.291 39.5352 148.884 40.128 148.884 40.812Z" fill="white"/>
<path d="M40.7665 153.854C40.7665 154.584 40.1737 155.131 39.4897 155.131C38.7601 155.131 38.2129 154.538 38.2129 153.854C38.2129 153.125 38.8057 152.578 39.4897 152.578C40.1737 152.578 40.7665 153.17 40.7665 153.854Z" fill="white"/>
<path d="M150.161 204.379C150.161 205.109 149.568 205.656 148.884 205.656C148.155 205.656 147.607 205.063 147.607 204.379C147.607 203.65 148.2 203.102 148.884 203.102C149.568 203.102 150.161 203.695 150.161 204.379Z" fill="white"/>
<path d="M97.4476 21.5232C97.4476 22.2528 96.8548 22.8 96.1708 22.8C95.4868 22.8 94.894 22.2072 94.894 21.5232C94.894 20.7936 95.4868 20.2464 96.1708 20.2464C96.8548 20.2464 97.4476 20.7936 97.4476 21.5232Z" fill="white"/>
<path d="M114.274 55.7688C114.274 55.7688 114.183 59.0064 117.512 59.3256L114.274 61.6056C114.274 61.6056 111.994 60.42 111.812 55.8144H114.274V55.7688Z" fill="#E44A8A"/>
<path d="M200.869 107.251C200.869 107.251 200.777 110.489 204.106 110.808L200.869 113.088C200.869 113.088 198.589 111.902 198.406 107.297H200.869V107.251Z" fill="#E44A8A"/>
<path d="M93.3892 174.283C93.3892 174.283 93.298 177.521 96.6268 177.84L93.3892 180.12C93.3892 180.12 91.1092 178.934 90.9268 174.329H93.3892V174.283Z" fill="#E44A8A"/>
<path d="M56.7266 100.092L54.7202 102.6C54.7202 102.6 50.2058 100.913 49.2026 98.1768L50.3882 95.0304C50.3882 95.0304 53.5802 100.502 56.7266 100.092Z" fill="#8FD45D"/>
<path d="M195.989 192.797L193.983 195.305C193.983 195.305 189.469 193.618 188.465 190.882L189.651 187.735C189.651 187.781 192.843 193.207 195.989 192.797Z" fill="#8FD45D"/>
<path d="M63.8403 55.3584L66.3483 54.9024C66.3483 54.9024 68.2179 58.2768 67.3515 60.4656L64.9803 61.7424C64.9803 61.6968 65.9379 56.772 63.8403 55.3584Z" fill="#F9DD4D"/>
<path d="M180.804 159.874L183.312 159.418C183.312 159.418 185.182 162.792 184.315 164.981L181.944 166.258C181.99 166.212 182.902 161.242 180.804 159.874Z" fill="#F9DD4D"/>
<path d="M61.7427 180.074L64.2507 179.618C64.2507 179.618 66.1203 182.993 65.2539 185.182L62.8827 186.458C62.9283 186.413 63.8403 181.442 61.7427 180.074Z" fill="#F9DD4D"/>
<path d="M150.936 21.1584L149.705 27.36L146.832 26.8128L148.884 20.748L150.936 21.1584Z" fill="#FE7F2D"/>
<defs>
<clipPath id="clip0_125_563">
<rect width="132" height="132" fill="white" transform="translate(60 51)"/>
</clipPath>
</defs>
</svg>
