<svg width="119" height="119" viewBox="0 0 119 119" fill="none" xmlns="http://www.w3.org/2000/svg">
<mask id="mask0_138_1249" style="mask-type:alpha" maskUnits="userSpaceOnUse" x="0" y="0" width="119" height="119">
<path d="M59.2 118.4C91.8953 118.4 118.4 91.8953 118.4 59.2C118.4 26.5047 91.8953 0 59.2 0C26.5048 0 0 26.5047 0 59.2C0 91.8953 26.5048 118.4 59.2 118.4Z" fill="#EDED8E"/>
</mask>
<g mask="url(#mask0_138_1249)">
<path d="M29.7067 60.7916C29.8753 66.5237 28.7795 72.4243 28.5266 78.2407C28.358 84.1414 28.1051 90.2107 29.0324 96.0271C29.3695 98.2188 29.791 100.748 30.8868 102.518C32.9099 106.058 36.7875 105.3 40.5808 105.805C50.3591 107.07 60.1374 107.238 69.9999 107.238C73.7089 107.238 78.5981 107.491 82.1385 106.227C83.6558 105.637 82.9814 106.311 83.993 104.962C85.3417 103.192 85.5946 100.242 85.9318 98.1345C86.8591 91.8966 88.0392 85.6587 88.6292 79.3366C88.8821 76.6391 90.2309 69.0525 88.2921 66.9451C87.8706 66.5237 87.0276 66.8608 86.5219 66.7765C83.4029 66.1865 79.7782 66.5237 76.575 66.4394C66.1224 66.0179 56.1755 65.2592 45.8915 63.1518C40.6651 62.1403 35.6074 62.3932 29.7067 60.7916Z" fill="#44365B"/>
<path d="M54.4892 85.8274C53.7305 85.5745 49.6001 85.9117 49.0943 86.586C48.5885 87.1761 48.2514 87.7662 47.9142 89.1149C47.6613 90.0422 47.4927 91.4752 47.2398 92.3181C46.8183 94.0883 46.6497 95.7742 46.3126 97.5444C45.9754 99.1461 45.7225 100.832 45.6382 102.434C46.3968 102.518 47.2398 102.265 47.9142 102.096C48.5885 101.928 49.7687 101.844 50.2744 101.338C50.5273 101.169 50.5273 100.916 50.6959 100.579C51.0331 99.3989 51.286 98.1345 51.5389 96.8701C52.1289 94.1726 52.9719 91.5595 52.9719 88.6934C52.9719 88.3562 55.2479 85.9117 54.4892 85.8274Z" fill="#FFCEBB"/>
<path d="M62.9183 86.1645C63.677 85.8273 67.7232 85.9116 68.3133 86.5017C68.819 87.0917 69.2405 87.5975 69.662 88.9462C69.9992 89.7892 70.2521 91.2222 70.5892 92.0652C71.095 93.7511 71.5165 95.5213 71.938 97.2072C72.3594 98.8088 72.7809 100.41 73.0338 102.012C72.2751 102.096 71.4322 102.012 70.6735 101.928C69.9992 101.843 68.819 101.759 68.3133 101.422C68.0604 101.253 67.9761 101.085 67.8918 100.748C67.386 99.5675 67.1331 98.303 66.7116 97.1229C65.8687 94.4255 64.7729 91.8966 64.6886 89.1148C64.6886 88.6091 62.1597 86.3331 62.9183 86.1645Z" fill="#FFCEBB"/>
<path d="M54.4892 85.8273C56.5123 85.4058 62.7501 84.5629 64.6046 86.4174C66.0377 87.8504 68.988 93.4139 69.5781 95.1841C70.421 97.5444 80.115 123.676 80.7894 126.289C75.4788 128.481 72.0226 128.059 66.2906 128.397C61.8229 128.649 57.2709 128.481 52.8033 128.481C49.4315 128.481 46.3125 127.891 42.9407 127.554C40.9176 127.385 39.4003 126.626 37.5458 126.205C37.1243 124.519 38.3888 122.58 38.9788 120.979C39.9061 118.365 40.749 115.668 41.7606 112.97C42.7721 109.936 50.7802 87.7661 54.4892 85.8273Z" fill="#F44242"/>
<path d="M59.125 88.862C59.2093 89.2835 58.9564 89.7893 58.8721 90.1265C58.7035 90.9694 58.4506 91.8967 58.2821 92.7396C58.1135 93.9198 58.1135 95.1842 57.2705 96.28C56.9333 96.7015 56.849 96.6172 56.3433 96.4486C56.0061 96.3643 55.5003 96.1957 55.1631 96.1114C54.9102 96.0271 54.4888 96.1957 54.3202 95.9428C54.2359 95.7743 54.3202 95.3528 54.3202 95.1842C54.3202 94.7627 54.4888 94.3412 54.5731 93.8355C54.7416 92.7396 55.3317 91.2223 56.0061 90.2951C56.7647 89.1149 56.9333 88.862 57.5234 88.4406C58.0292 88.1034 57.5234 88.4405 58.1978 88.5248C58.282 88.5248 58.4507 88.6091 58.535 88.6091C58.7035 88.7777 58.8721 88.7777 59.125 88.862Z" fill="#EDBEBE"/>
<path d="M59.2089 88.862C59.1246 89.2835 59.3774 89.7893 59.4617 90.1265C59.6303 90.9694 59.8832 91.8967 60.0518 92.7396C60.2204 93.9198 60.2204 95.1842 61.0634 96.28C61.4006 96.7015 61.4848 96.6172 61.9906 96.4486C62.3278 96.3643 62.8336 96.1957 63.1708 96.1114C63.4236 96.0271 63.8451 96.1957 64.0137 95.9428C64.098 95.7743 64.0137 95.3528 64.0137 95.1842C64.0137 94.7627 63.8451 94.3412 63.7608 93.8355C63.5922 92.7396 63.0022 91.2223 62.3278 90.2951C61.5691 89.1149 61.4005 88.862 60.8105 88.4406C60.3047 88.1034 60.8105 88.4405 60.1361 88.5248C60.0518 88.5248 59.8832 88.6091 59.7989 88.6091C59.6303 88.7777 59.4617 88.7777 59.2089 88.862Z" fill="#EDBEBE"/>
<path d="M59.2094 86.7547C57.6078 85.5745 55.2475 85.7431 53.4773 85.8274C52.1286 85.8274 51.96 86.4175 51.7071 88.0191C51.5385 89.1992 51.7071 93.0768 53.1401 93.2454C54.0674 93.3297 55.4161 91.981 56.0062 91.3909C56.6805 90.8008 57.2706 90.0422 57.8607 89.4521C58.7879 88.5249 59.1251 88.1034 59.2094 86.7547Z" fill="#FFE1E1"/>
<path d="M59.4624 86.7547C61.064 85.5745 63.4243 85.7431 65.1945 85.8274C66.5432 85.8274 66.7118 86.4175 66.9647 88.0191C67.1333 89.1992 66.9647 93.0768 65.5317 93.2454C64.6044 93.3297 63.2557 91.981 62.6656 91.3909C61.9913 90.8008 61.4012 90.0422 60.8111 89.4521C59.7996 88.5249 59.5467 88.1034 59.4624 86.7547Z" fill="#FFE1E1"/>
<path d="M57.8604 86.5861C57.9446 85.996 59.1248 86.1646 59.462 86.1646C59.8834 86.1646 60.3049 85.996 60.3892 86.4175C60.4735 86.8389 60.4735 87.5976 60.4735 88.0191C60.4735 88.3563 60.4735 88.7778 60.4735 89.1149C60.052 89.1992 59.5463 89.1149 59.0405 89.1149C58.7876 89.1149 58.4504 89.1149 58.1975 89.1149C58.1975 88.6935 57.8604 88.272 57.8604 87.7662C57.9446 87.3447 57.9446 86.9233 57.8604 86.5861Z" fill="#F77272"/>
<path d="M61.9068 86.8389C61.8225 86.6703 61.6539 86.5018 61.4853 86.5018L60.2209 86.3332L59.6308 85.2373C59.5465 85.0687 59.3779 84.9001 59.125 84.9001C58.9565 84.9001 58.7036 85.0687 58.6193 85.2373L58.1135 86.4175L56.8491 86.6703C56.6805 86.6703 56.5119 86.8389 56.4276 87.0918C56.3433 87.2604 56.4276 87.5133 56.5962 87.6819L57.5234 88.5248L57.3548 89.7893C57.3548 89.9579 57.4391 90.2108 57.6077 90.2951C57.692 90.3793 57.7763 90.3794 57.8606 90.3794C57.9449 90.3794 58.1135 90.3793 58.1978 90.2951L59.2936 89.705L60.4738 90.2951C60.6424 90.3793 60.8953 90.3793 61.0639 90.2108C61.2324 90.0422 61.3167 89.8736 61.2324 89.705L60.9796 88.4406L61.9068 87.5133C61.9068 87.2604 61.9911 87.0075 61.9068 86.8389Z" fill="#FF9494"/>
<path d="M57.6079 81.6969C57.2707 83.1299 57.2707 85.2373 57.6079 86.0802C58.2822 87.6818 60.4739 87.1761 61.1483 85.743C61.1483 85.743 61.4012 83.2142 60.9797 81.7811C60.7268 80.7696 59.7153 80.601 58.5351 82.034" fill="#F4B5A2"/>
<path d="M37.5453 40.2235C32.0661 46.7985 34.8478 52.4463 33.1619 59.6958C32.4876 62.8147 31.2231 65.4278 31.0545 68.884C30.8859 73.183 30.6331 74.3632 32.8247 76.4706C37.0395 80.4324 50.1896 83.0456 55.7531 83.2985C63.6769 83.6357 78.0914 81.5283 82.5591 76.302C86.6053 71.5814 89.2184 66.0179 89.0498 57.757C88.9655 51.0133 83.6549 40.4764 79.6087 34.66C76.4055 30.108 69.999 29.9395 65.0256 28.7593C59.0406 27.4106 54.4887 25.4718 49.0938 28.5064C46.7335 29.8552 44.2889 31.4568 42.2658 33.4799C40.1584 35.5873 40.4113 37.5261 39.3155 39.9706" fill="#FFCEBB"/>
<path d="M86.2685 31.5411C88.123 34.1542 88.6288 37.8632 89.1346 40.9822C90.0618 46.2085 91.1577 51.4348 91.7477 56.7454C92.7593 65.175 93.4337 76.2177 92.675 84.6472C92.1692 91.0537 88.966 109.936 79.5249 111.2C80.705 107.07 81.9695 100.242 82.7281 95.6899C83.7397 89.7049 85.5099 84.1414 85.5099 77.9879C85.5099 72.6773 84.9198 67.4509 84.414 62.2246C83.9926 58.0098 83.2339 53.7108 82.3066 49.5803C81.9695 47.8944 80.8736 45.1969 80.8736 43.6796C80.7893 41.4036 83.1496 39.7177 84.1612 37.7789C85.0884 35.9244 85.8471 33.8171 86.2685 31.5411Z" fill="#584672"/>
<path d="M86.0994 54.4694C86.5209 53.3736 86.6895 52.6992 88.4597 52.2778C89.3869 52.1092 90.4827 52.0249 91.2414 52.6149C92.9273 53.7951 93.1802 57.1669 92.843 59.1057C92.6744 60.0329 92.6744 61.2131 92.0001 61.8874C91.1571 62.6461 89.8927 62.5618 88.7125 62.5618C87.0266 62.5618 87.2795 61.2974 86.7738 59.78C86.3523 58.5156 85.7622 57.2512 85.8465 55.9025C85.8465 55.3124 85.8465 54.8909 86.0994 54.4694Z" fill="#FFCEBB"/>
<path d="M86.6896 55.481C86.9425 54.7224 87.1111 54.3009 88.207 54.048C88.797 53.9637 89.4714 53.8794 89.9772 54.2166C91.073 54.9752 91.2416 57.1669 90.9887 58.4314C90.9044 59.0214 90.9044 59.7801 90.3986 60.2016C89.8086 60.7073 89.0499 60.623 88.2913 60.623C87.1954 60.623 87.364 59.7801 87.0268 58.8528C86.7739 58.0099 86.3524 57.2512 86.4367 56.324C86.521 55.9868 86.5211 55.7339 86.6896 55.481Z" fill="#F4B69D"/>
<path d="M57.6924 72.8459C57.7767 73.8574 59.7155 73.8574 60.3055 73.8574C61.0642 73.7731 61.9071 73.2673 62.4129 72.2558" stroke="#FC6142" stroke-width="0.5" stroke-miterlimit="10" stroke-linecap="round" stroke-linejoin="round"/>
<path d="M73.624 59.7801C74.2141 59.8644 74.2984 59.4429 74.2984 58.8528" stroke="#26130B" stroke-width="0.25" stroke-miterlimit="10" stroke-linecap="round" stroke-linejoin="round"/>
<path d="M74.2144 60.2859C74.8044 60.3702 74.8887 59.9487 74.8887 59.3586" stroke="#26130B" stroke-width="0.25" stroke-miterlimit="10" stroke-linecap="round" stroke-linejoin="round"/>
<path d="M72.6126 63.6577C73.823 63.6577 74.8043 62.6765 74.8043 61.466C74.8043 60.2556 73.823 59.2744 72.6126 59.2744C71.4022 59.2744 70.4209 60.2556 70.4209 61.466C70.4209 62.6765 71.4022 63.6577 72.6126 63.6577Z" fill="#26130B"/>
<path d="M73.1187 60.7074C73.1187 60.9603 73.2872 61.1289 73.5401 61.1289C73.793 61.1289 73.9616 60.9603 73.9616 60.7074C73.9616 60.4545 73.793 60.2859 73.5401 60.2859C73.2872 60.2859 73.1187 60.4545 73.1187 60.7074Z" fill="#FCF8F7"/>
<path d="M45.5537 59.7801C46.1438 59.8644 46.2281 59.4429 46.2281 58.8528" stroke="#26130B" stroke-width="0.25" stroke-miterlimit="10" stroke-linecap="round" stroke-linejoin="round"/>
<path d="M46.144 60.2859C46.7341 60.3702 46.8184 59.9487 46.8184 59.3586" stroke="#26130B" stroke-width="0.25" stroke-miterlimit="10" stroke-linecap="round" stroke-linejoin="round"/>
<path d="M44.5423 63.6577C45.7527 63.6577 46.734 62.6765 46.734 61.466C46.734 60.2556 45.7527 59.2744 44.5423 59.2744C43.3318 59.2744 42.3506 60.2556 42.3506 61.466C42.3506 62.6765 43.3318 63.6577 44.5423 63.6577Z" fill="#26130B"/>
<path d="M45.0483 60.7074C45.0483 60.9603 45.2169 61.1289 45.4698 61.1289C45.7227 61.1289 45.8913 60.9603 45.8913 60.7074C45.8913 60.4545 45.7227 60.2859 45.4698 60.2859C45.2169 60.2859 45.0483 60.4545 45.0483 60.7074Z" fill="#FCF8F7"/>
<path d="M77.4172 38.0319C79.6089 41.9095 81.2105 43.8483 81.632 48.2317C81.7163 49.5804 82.7278 65.3436 82.8121 67.5353C82.9807 72.3402 82.475 76.9764 81.632 81.697C80.7047 86.3332 79.0188 92.1496 76.5743 96.3644C74.7198 99.6519 71.6008 102.012 67.7232 101.001C66.7117 100.748 66.3745 100.748 66.3745 99.9048C66.3745 99.3147 66.796 98.7246 67.3861 98.6403C65.7002 98.556 66.0373 100.495 66.7117 101.422C67.7232 102.855 70.4207 104.457 72.1909 103.951C74.0454 103.445 76.7429 100.916 77.923 99.5676C83.9923 92.1496 84.9195 84.8159 85.5939 81.8655C86.6054 77.4822 87.4484 73.6046 87.617 69.1369C87.7856 66.1023 87.8698 59.9487 87.7013 57.0827C87.4484 54.048 86.8583 49.2432 86.4368 46.2086C85.8468 41.3194 83.6551 38.7063 81.1262 34.4915C79.6089 31.9626 76.1528 28.3379 72.9495 28.085C71.8537 28.0007 71.7694 28.2536 72.2752 29.0966C73.5396 31.4569 75.8156 33.1428 76.9114 35.6716C77.2486 36.5989 77.3329 37.4418 77.4172 38.0319Z" fill="#584672"/>
<path d="M41.4228 38.0319C39.2311 41.9095 37.6295 43.8483 37.208 48.2317C37.1237 49.5804 36.1122 65.3436 36.0279 67.5353C35.8593 72.3402 36.3651 76.9764 37.208 81.697C38.1353 86.3332 39.8212 92.1496 42.2658 96.3644C44.1203 99.6519 47.2392 102.012 51.1168 101.001C52.1283 100.748 52.4655 100.748 52.4655 99.9048C52.4655 99.3147 52.044 98.7246 51.454 98.6403C53.1399 98.556 52.8027 100.495 52.1283 101.422C51.1168 102.855 48.4193 104.457 46.6491 103.951C44.7946 103.445 42.0972 100.916 40.917 99.5676C34.8478 92.1496 33.9205 84.8159 33.2462 81.8655C32.2346 77.4822 31.3916 73.6046 31.2231 69.1369C31.0545 66.1023 30.9702 59.9487 31.1388 57.0827C31.3917 54.048 31.9817 49.2432 32.4032 46.2086C32.9933 41.3194 35.185 38.7063 37.7138 34.4915C39.2311 31.9626 42.6873 28.3379 45.8905 28.085C46.9863 28.0007 47.0706 28.2536 46.5648 29.0966C45.3004 31.4569 43.0244 33.1428 41.9286 35.6716C41.5914 36.5989 41.5071 37.4418 41.4228 38.0319Z" fill="#584672"/>
<path d="M87.2799 34.07C85.8469 28.5908 82.8966 26.5677 78.6818 22.943C74.8042 19.5712 67.9763 17.7167 65.4474 17.2109C60.2211 16.1993 53.5617 16.4522 47.661 18.0538C43.4463 19.234 39.4844 20.5827 36.2812 23.6173C33.668 26.0619 32.3193 28.1693 30.1276 31.0353C27.2616 34.9129 26.4186 41.5723 27.1773 46.1242C27.683 48.9903 28.526 53.7951 31.4763 55.1439C32.5722 53.3736 33.0779 51.3506 34.511 49.6646C35.6068 48.4845 36.2812 45.3656 36.7026 43.764C37.7985 40.2236 38.8943 39.0434 40.0745 38.8748C39.4844 40.8979 39.0629 43.9326 39.4001 45.197C39.3158 46.5457 39.3158 47.8944 39.4001 49.3275C39.4844 50.1704 39.653 51.0977 39.5687 51.9406C40.6645 52.1092 42.0976 51.772 43.1934 51.772C45.0479 51.772 46.9867 51.6877 48.8412 51.772C50.1899 51.8563 50.0213 51.772 50.1899 50.5076C50.3585 49.4961 50.5271 48.4002 51.1172 47.5573C51.4543 47.1358 51.9601 46.7986 52.213 46.2928C52.213 48.2316 53.1403 50.2547 52.9717 52.1935C55.1634 53.0365 58.1137 52.5307 60.3897 52.4464C60.3054 50.5076 60.2211 48.4002 60.3897 46.5457C61.064 47.8944 61.9913 49.2432 62.1599 50.7605C62.2442 51.3506 62.2442 51.9406 62.3285 52.5307C66.459 52.6993 70.758 52.7836 74.8042 52.2778C76.5744 52.1092 77.9231 51.4348 79.5247 50.7605C79.6933 46.3771 77.8388 41.9938 75.6471 38.2848C77.5016 39.4649 80.1991 41.9095 81.5478 48.1473C81.5478 48.5688 82.3065 49.0746 82.3065 49.4118C82.4751 48.2316 81.885 44.5226 81.885 43.2582C81.885 40.8136 82.8123 40.1393 83.9081 38.0319C84.751 36.7674 87.7014 35.5873 87.2799 34.07Z" fill="#584672"/>
<path d="M28.273 36.7674C26.6714 39.5491 26.5028 43.2581 26.3342 46.3771C25.9127 51.6877 25.3227 56.9983 25.2384 62.3089C25.0698 70.7385 25.4913 81.8655 27.0086 90.1264C28.1887 96.4486 32.5721 112.718 42.0975 113.139C40.5802 109.093 39.2314 104.625 38.0513 100.242C36.4497 94.3412 34.1737 89.0306 33.5836 82.877C33.0779 77.5664 33.1622 72.3401 33.1622 67.0295C33.1622 62.8147 33.4993 58.4313 34.0051 54.2166C34.258 52.5306 35.0167 49.7489 34.9324 48.2316C34.7638 45.9556 32.3192 44.4383 31.0548 42.6681C29.8746 41.0665 28.9474 39.0434 28.273 36.7674Z" fill="#584672"/>
<path d="M34.005 36.346C33.3306 32.5527 40.6643 28.085 43.2775 26.3148C48.3352 22.7744 56.5119 23.4488 62.3283 24.2074C66.3745 24.7975 72.1065 26.0619 75.3098 28.6751C77.3329 30.361 78.5973 32.8898 80.3675 34.8286C80.9576 31.1196 76.6585 27.6635 74.2139 25.5561C70.9264 22.8587 68.1447 21.7628 64.0142 20.9199C59.2936 19.9926 56.1747 20.1612 51.2856 20.2455C46.565 20.3298 39.8214 23.5331 36.7024 27.0735C34.6793 29.2651 32.1505 34.07 34.005 36.346Z" fill="#F44242"/>
<path d="M72.4437 20.0769C72.1908 19.6554 71.7694 19.3182 71.2636 19.3182L68.1447 19.4025L66.3745 16.8737C66.0373 16.4522 65.5315 16.1993 65.0257 16.2836C64.5199 16.3679 64.0985 16.7051 63.9299 17.2109L63.0026 20.1612L60.0523 21.0884C59.5465 21.257 59.2093 21.6785 59.125 22.1843C59.0407 22.6901 59.2936 23.1958 59.7151 23.533L62.244 25.3032V28.4222C62.244 28.9279 62.4969 29.4337 63.0026 29.6023C63.1712 29.6866 63.4241 29.7709 63.5927 29.7709C63.8456 29.7709 64.1828 29.6866 64.4357 29.518L66.9645 27.6635L69.9149 28.675C70.4206 28.8436 70.9264 28.675 71.2636 28.3379C71.6008 28.0007 71.7694 27.4106 71.6008 26.9891L70.5892 24.0388L72.4437 21.5099C72.6966 21.0884 72.6966 20.4984 72.4437 20.0769Z" fill="#FF9494"/>
<path d="M80.4516 29.3495C80.5359 29.0123 80.3673 28.7594 80.1144 28.5065L78.5128 27.3264L78.5971 25.3876C78.5971 25.0504 78.4285 24.7975 78.1756 24.6289C77.9228 24.4603 77.5856 24.4603 77.2484 24.7132L75.6468 25.8933L73.7923 25.219C73.4551 25.1347 73.1179 25.219 72.9493 25.3876C72.6964 25.6405 72.6121 25.9776 72.6964 26.2305L73.2865 28.085L72.1064 29.6023C71.9378 29.8552 71.8535 30.1924 72.0221 30.5296C72.1064 30.6139 72.1907 30.7825 72.275 30.8668C72.4435 30.9511 72.6121 31.0354 72.7807 31.0354H74.7195L75.8154 32.637C75.984 32.8899 76.3211 33.0585 76.6583 32.9742C76.9955 32.8899 77.2484 32.7213 77.3327 32.3841L77.9228 30.5296L79.7772 30.0238C80.1987 29.9395 80.3673 29.6866 80.4516 29.3495Z" fill="#FF7676"/>
<path d="M59.2939 21.8471C59.2096 21.5943 58.9568 21.51 58.7039 21.51H57.1866L56.3436 20.2455C56.175 20.0769 55.9221 19.9083 55.7535 19.9926C55.5006 19.9926 55.332 20.1612 55.2477 20.4141L54.742 21.8471L53.309 22.2686C53.0561 22.3529 52.8875 22.5215 52.8032 22.7744C52.7189 23.0273 52.8875 23.2802 53.0561 23.4487L54.2362 24.376L54.1519 25.8933C54.1519 26.1462 54.2362 26.3991 54.4891 26.4834C54.5734 26.5677 54.6577 26.5677 54.742 26.5677C54.9106 26.5677 54.9949 26.5677 55.1635 26.4834L56.4279 25.6404L57.8609 26.1462C58.1138 26.2305 58.3667 26.1462 58.5353 25.9776C58.7039 25.809 58.7882 25.5561 58.7039 25.3033L58.2824 23.8702L59.2096 22.6901C59.3782 22.3529 59.3782 22.1 59.2939 21.8471Z" fill="#FF7676"/>
</g>
</svg>
