<svg width="37" height="35" viewBox="0 0 37 35" fill="none" xmlns="http://www.w3.org/2000/svg">
<rect width="37" height="35" rx="11" fill="#EA4C76"/>
<path d="M14.2344 13H11.8906C10.7257 13 9.78125 12.0556 9.78125 10.8906C9.78125 9.72563 10.7257 8.78125 11.8906 8.78125H14.2344C13.0694 8.78125 12.125 9.72563 12.125 10.8906C12.125 12.0556 13.0694 13 14.2344 13ZM12.125 18C12.125 16.835 13.0694 15.8906 14.2344 15.8906H11.8906C10.7257 15.8906 9.78125 16.835 9.78125 18C9.78125 19.165 10.7257 20.1094 11.8906 20.1094H14.2344C13.0694 20.1094 12.125 19.165 12.125 18ZM12.125 25.1094C12.125 23.9444 13.0694 23 14.2344 23H11.8906C10.7257 23 9.78125 23.9444 9.78125 25.1094C9.78125 26.2743 10.7257 27.2188 11.8906 27.2188H14.2344C13.0694 27.2188 12.125 26.2743 12.125 25.1094Z" fill="white" fill-opacity="0.5"/>
<path d="M15.1479 13.7812H11.8906C10.2967 13.7812 9 12.4845 9 10.8906C9 9.29672 10.2967 8 11.8906 8H15.1719C15.6034 8 15.9531 8.34977 15.9531 8.78125C15.9531 9.21273 15.6034 9.5625 15.1719 9.5625H11.8906C11.1583 9.5625 10.5625 10.1583 10.5625 10.8906C10.5625 11.623 11.1583 12.2188 11.8906 12.2188H15.1479C15.5793 12.2188 15.9291 12.5685 15.9291 13C15.9291 13.4315 15.5793 13.7812 15.1479 13.7812ZM29 10.8906C29 9.29672 27.7033 8 26.1094 8H18.2969C17.8654 8 17.5156 8.34977 17.5156 8.78125C17.5156 9.21273 17.8654 9.5625 18.2969 9.5625H26.1094C26.8417 9.5625 27.4375 10.1583 27.4375 10.8906C27.4375 11.623 26.8417 12.2188 26.1094 12.2188H18.2729C17.8414 12.2188 17.4916 12.5685 17.4916 13C17.4916 13.4315 17.8414 13.7812 18.2729 13.7812H26.1094C27.7033 13.7812 29 12.4845 29 10.8906ZM22.6328 20.1094C22.6328 19.6779 22.283 19.3281 21.8516 19.3281H11.8906C11.1583 19.3281 10.5625 18.7323 10.5625 18C10.5625 17.2677 11.1583 16.6719 11.8906 16.6719H21.8516C22.283 16.6719 22.6328 16.3221 22.6328 15.8906C22.6328 15.4591 22.283 15.1094 21.8516 15.1094H11.8906C10.2967 15.1094 9 16.4061 9 18C9 19.5939 10.2967 20.8906 11.8906 20.8906H21.8516C22.283 20.8906 22.6328 20.5409 22.6328 20.1094ZM28.9609 25.1094C28.9609 23.5155 27.6642 22.2188 26.0703 22.2188H20.2109C19.7795 22.2188 19.4297 22.5685 19.4297 23C19.4297 23.4315 19.7795 23.7812 20.2109 23.7812H26.0703C26.8027 23.7812 27.3984 24.377 27.3984 25.1094C27.3984 25.8417 26.8027 26.4375 26.0703 26.4375H20.2109C19.7795 26.4375 19.4297 26.7873 19.4297 27.2188C19.4297 27.6502 19.7795 28 20.2109 28H26.0703C27.6642 28 28.9609 26.7033 28.9609 25.1094ZM17.8672 27.2188C17.8672 26.7873 17.5174 26.4375 17.0859 26.4375H11.8906C11.1583 26.4375 10.5625 25.8417 10.5625 25.1094C10.5625 24.377 11.1583 23.7812 11.8906 23.7812H17.0859C17.5174 23.7812 17.8672 23.4315 17.8672 23C17.8672 22.5685 17.5174 22.2188 17.0859 22.2188H11.8906C10.2967 22.2188 9 23.5155 9 25.1094C9 26.7033 10.2967 28 11.8906 28H17.0859C17.5174 28 17.8672 27.6502 17.8672 27.2188Z" fill="white"/>
<path opacity="0.5" d="M26.0703 20.8906H24.9766C24.5451 20.8906 24.1953 20.5409 24.1953 20.1094C24.1953 19.6779 24.5451 19.3281 24.9766 19.3281H26.0703C26.8027 19.3281 27.3984 18.7323 27.3984 18C27.3984 17.2677 26.8027 16.6719 26.0703 16.6719H24.9766C24.5451 16.6719 24.1953 16.3221 24.1953 15.8906C24.1953 15.4591 24.5451 15.1094 24.9766 15.1094H26.0703C27.6642 15.1094 28.9609 16.4061 28.9609 18C28.9609 19.5939 27.6642 20.8906 26.0703 20.8906Z" fill="white"/>
</svg>
