<svg width="30" height="30" viewBox="0 0 30 30" fill="none" xmlns="http://www.w3.org/2000/svg">
<path opacity="0.5" d="M6.51866 28.8009C3.52274 28.5412 1.17188 26.0274 1.17188 22.9641V13.1043C1.17188 11.2767 2.02466 9.55376 3.47785 8.44539L11.4467 2.36746C13.5453 0.766837 16.455 0.766837 18.5536 2.36746L19.0927 2.77861C17.6536 2.63658 16.173 3.02612 14.9624 3.9495L5.48512 11.1779C4.9825 11.5613 4.68753 12.1572 4.68753 12.7893V24.5461C4.68753 26.2218 5.39108 27.733 6.51866 28.8009Z" fill="#5FCFFF"/>
<path d="M18.5745 12.5343H11.6017C10.0469 12.4724 10.0481 10.2519 11.6017 10.1906H18.5745C20.1293 10.2524 20.1281 12.473 18.5745 12.5343Z" fill="#F9648B"/>
<path d="M22.969 29.9959H21.7971C20.1816 29.9959 18.8674 28.6817 18.8674 27.0662V21.031C18.6575 15.9771 11.4581 15.981 11.2501 21.031V27.0662C11.2501 28.6817 9.93584 29.9959 8.32039 29.9959H7.03132C3.15425 29.9959 0 26.8417 0 22.9646V13.1049C0 10.9258 1.03442 8.83572 2.76723 7.51412L10.7361 1.43619C13.2467 -0.47873 16.7536 -0.47873 19.2643 1.43619L27.2331 7.51412C28.9659 8.83572 30.0003 10.9257 30.0003 13.1049V22.9646C30.0003 26.8416 26.846 29.9959 22.969 29.9959ZM15.0587 14.8786C18.4512 14.8786 21.2111 17.6386 21.2111 21.031V27.0662C21.2111 27.3893 21.474 27.6522 21.7971 27.6522H22.969C25.5537 27.6522 27.6565 25.5493 27.6565 22.9646V13.1049C27.6565 11.6521 26.9669 10.2588 25.8117 9.37771L17.8429 3.29978C16.1692 2.02319 13.8311 2.02319 12.1574 3.29978L4.18861 9.37771C3.03343 10.2587 2.34377 11.6521 2.34377 13.1049V22.9646C2.34377 25.5493 4.44661 27.6522 7.03132 27.6522H8.32039C8.64348 27.6522 8.90634 27.3893 8.90634 27.0662V21.031C8.90634 17.6385 11.6663 14.8786 15.0587 14.8786Z" fill="#5FCFFF"/>
</svg>
