<svg width="375" height="326" viewBox="0 0 375 326" fill="none" xmlns="http://www.w3.org/2000/svg">
<path d="M0 326C187.2 262 320 312 375.5 326V0H0V326Z" fill="#F9648B"/>
<mask id="mask0_98_6" style="mask-type:alpha" maskUnits="userSpaceOnUse" x="0" y="0" width="376" height="326">
<path d="M0 326C187.2 262 320 312 375.5 326V0H0V326Z" fill="#C4C4C4"/>
</mask>
<g mask="url(#mask0_98_6)">
<path d="M-1.5 298V326.5V337H10L378 326.5V98C349.6 106.4 323.833 118.167 316 123C278 138.6 234.5 200.5 213 221.5C174.5 247 150.167 228.167 135.5 217.5C86.7 183.1 50.3333 225.5 40 250.5C31.6 268.9 9 289.5 -1.5 298Z" fill="#EF567E"/>
</g>
<rect x="315" y="23" width="37" height="35" rx="11" fill="#EA4C76"/>
<g clip-path="url(#clip0_98_6)">
<path d="M336.574 32.6541C336.583 32.5454 336.591 32.4334 336.605 32.3224C335.801 31.9729 334.918 31.7812 334 31.7812C331.085 31.7812 328.521 33.7094 327.713 36.51L326.755 43.3438H326.344C325.481 43.3438 324.781 44.0433 324.781 44.9062C324.781 45.7692 325.481 46.4688 326.344 46.4688H329.993L330.184 45.6723C329.388 45.6773 328.883 44.9062 329.039 44.1492L329.756 38.5018C329.856 37.7138 330.082 36.9451 330.445 36.2386C331.58 34.0302 333.564 33.0334 335.953 33.0334C336.145 33.0334 336.334 33.0468 336.523 33.0705C336.543 32.9323 336.562 32.7938 336.574 32.6541Z" fill="white" fill-opacity="0.5"/>
<path d="M329.43 42.4453C329.43 42.8768 329.779 43.2266 330.211 43.2266H337.75C338.181 43.2266 338.531 42.8768 338.531 42.4453C338.531 42.0138 338.181 41.6641 337.75 41.6641H330.211C329.779 41.6641 329.43 42.0138 329.43 42.4453Z" fill="white"/>
<path d="M341.927 42.578L341.668 40.7353C341.608 40.308 341.214 40.01 340.786 40.07C340.359 40.1299 340.061 40.5249 340.121 40.9522L340.471 43.4522C340.525 43.838 340.855 44.125 341.245 44.125H341.656C342.087 44.125 342.438 44.4755 342.438 44.9062C342.438 45.337 342.087 45.6875 341.656 45.6875H326.344C325.913 45.6875 325.562 45.337 325.562 44.9062C325.562 44.4755 325.913 44.125 326.344 44.125H326.755C327.145 44.125 327.475 43.838 327.529 43.4522L328.37 37.4519C328.596 35.8355 329.488 34.4033 330.815 33.5227C331.762 32.8945 332.867 32.5625 334.078 32.5625C334.839 32.5782 335.589 32.728 336.225 33.0052C336.62 33.1776 337.081 32.9968 337.253 32.6013C337.426 32.2057 337.245 31.7453 336.849 31.5729C336.025 31.2138 335.133 31 334.078 31C332.633 31 331.155 31.4221 329.951 32.2207C328.251 33.3484 327.111 35.1761 326.822 37.235L326.073 42.578C324.908 42.7125 324 43.7053 324 44.9062C324 46.1986 325.051 47.25 326.344 47.25H341.656C342.949 47.25 344 46.1986 344 44.9062C344 43.7053 343.092 42.7125 341.927 42.578Z" fill="white"/>
<path opacity="0.5" d="M334.039 51C332.848 51 331.848 50.1152 331.711 48.9418C331.662 48.5132 331.969 48.1254 332.397 48.0755C332.826 48.0255 333.214 48.3327 333.263 48.7613C333.308 49.1468 333.642 49.4375 334.039 49.4375C334.436 49.4375 334.77 49.1468 334.814 48.7613C334.864 48.3327 335.252 48.0258 335.681 48.0755C336.109 48.1254 336.416 48.5132 336.367 48.9418C336.23 50.1152 335.229 51 334.039 51ZM343.219 34.125H340.875V31.7812C340.875 31.3498 340.525 31 340.094 31C339.662 31 339.312 31.3498 339.312 31.7812V34.125H336.969C336.537 34.125 336.187 34.4748 336.187 34.9062C336.187 35.3377 336.537 35.6875 336.969 35.6875H339.312V38.0312C339.312 38.4627 339.662 38.8125 340.094 38.8125C340.525 38.8125 340.875 38.4627 340.875 38.0312V35.6875H343.219C343.65 35.6875 344 35.3377 344 34.9062C344 34.4748 343.65 34.125 343.219 34.125Z" fill="white"/>
</g>
<defs>
<clipPath id="clip0_98_6">
<rect width="20" height="20" fill="white" transform="translate(324 31)"/>
</clipPath>
</defs>
</svg>
