<svg width="142" height="24" viewBox="0 0 142 24" fill="none" xmlns="http://www.w3.org/2000/svg">
<path d="M30.495 15.425C30.495 15.265 30.55 15.11 30.66 14.96C30.78 14.81 30.91 14.735 31.05 14.735C31.14 14.735 31.255 14.8 31.395 14.93C31.535 15.05 31.68 15.19 31.83 15.35C31.98 15.5 32.215 15.64 32.535 15.77C32.855 15.89 33.215 15.95 33.615 15.95C34.265 15.95 34.775 15.795 35.145 15.485C35.515 15.165 35.7 14.7 35.7 14.09C35.7 13.54 35.53 13.095 35.19 12.755C34.85 12.405 34.44 12.14 33.96 11.96C33.48 11.78 32.995 11.59 32.505 11.39C32.025 11.18 31.615 10.865 31.275 10.445C30.935 10.015 30.765 9.465 30.765 8.795C30.765 8.275 30.865 7.825 31.065 7.445C31.265 7.055 31.53 6.765 31.86 6.575C32.2 6.375 32.55 6.23 32.91 6.14C33.27 6.05 33.655 6.005 34.065 6.005C34.685 6.005 35.275 6.095 35.835 6.275C36.405 6.445 36.69 6.685 36.69 6.995C36.69 7.135 36.64 7.285 36.54 7.445C36.44 7.605 36.31 7.685 36.15 7.685C36.11 7.685 35.88 7.59 35.46 7.4C35.04 7.21 34.575 7.115 34.065 7.115C33.455 7.115 32.96 7.24 32.58 7.49C32.21 7.74 32.025 8.135 32.025 8.675C32.025 9.135 32.195 9.51 32.535 9.8C32.875 10.08 33.285 10.305 33.765 10.475C34.255 10.645 34.74 10.84 35.22 11.06C35.7 11.28 36.11 11.635 36.45 12.125C36.79 12.605 36.96 13.22 36.96 13.97C36.96 15.01 36.66 15.795 36.06 16.325C35.46 16.855 34.665 17.12 33.675 17.12C32.785 17.12 32.03 16.93 31.41 16.55C30.8 16.17 30.495 15.795 30.495 15.425ZM38.4743 7.73C38.3243 7.58 38.2493 7.41 38.2493 7.22C38.2493 7.03 38.3243 6.865 38.4743 6.725C38.6243 6.585 38.8093 6.515 39.0293 6.515C39.2393 6.515 39.4193 6.585 39.5693 6.725C39.7193 6.865 39.7943 7.03 39.7943 7.22C39.7943 7.41 39.7193 7.58 39.5693 7.73C39.4193 7.87 39.2393 7.94 39.0293 7.94C38.8193 7.94 38.6343 7.87 38.4743 7.73ZM38.4143 16.55V10.325C38.4143 10.195 38.4743 10.09 38.5943 10.01C38.7143 9.93 38.8593 9.89 39.0293 9.89C39.2093 9.89 39.3593 9.93 39.4793 10.01C39.5993 10.09 39.6593 10.195 39.6593 10.325V16.55C39.6593 16.66 39.5943 16.765 39.4643 16.865C39.3443 16.955 39.1993 17 39.0293 17C38.8593 17 38.7143 16.955 38.5943 16.865C38.4743 16.775 38.4143 16.67 38.4143 16.55ZM40.8769 18.41C40.8769 17.68 41.2819 17.135 42.0919 16.775C41.5819 16.585 41.3269 16.25 41.3269 15.77C41.3269 15.31 41.5769 14.94 42.0769 14.66C41.5069 14.2 41.2219 13.57 41.2219 12.77V12.275C41.2219 11.545 41.4669 10.95 41.9569 10.49C42.4469 10.03 43.0919 9.8 43.8919 9.8C44.5719 9.8 45.1569 9.995 45.6469 10.385C45.9469 9.735 46.2869 9.41 46.6669 9.41C46.8269 9.41 46.9569 9.46 47.0569 9.56C47.1569 9.65 47.2069 9.755 47.2069 9.875C47.2069 10.025 47.1219 10.14 46.9519 10.22C46.6119 10.31 46.3419 10.52 46.1419 10.85C46.4519 11.22 46.6069 11.695 46.6069 12.275V12.77C46.6069 13.49 46.3519 14.085 45.8419 14.555C45.3319 15.025 44.6819 15.26 43.8919 15.26C43.4819 15.26 43.1119 15.185 42.7819 15.035C42.5319 15.185 42.4069 15.355 42.4069 15.545C42.4069 15.735 42.5219 15.885 42.7519 15.995C42.9819 16.095 43.2669 16.16 43.6069 16.19C43.9469 16.21 44.3169 16.255 44.7169 16.325C45.1169 16.395 45.4869 16.485 45.8269 16.595C46.1669 16.705 46.4519 16.9 46.6819 17.18C46.9119 17.46 47.0269 17.815 47.0269 18.245C47.0269 18.955 46.7419 19.495 46.1719 19.865C45.6119 20.245 44.8819 20.435 43.9819 20.435C43.0819 20.435 42.3369 20.25 41.7469 19.88C41.1669 19.52 40.8769 19.03 40.8769 18.41ZM42.0619 18.275C42.0619 18.665 42.2319 18.975 42.5719 19.205C42.9219 19.445 43.3869 19.565 43.9669 19.565C44.5269 19.565 44.9719 19.445 45.3019 19.205C45.6419 18.975 45.8119 18.665 45.8119 18.275C45.8119 18.115 45.7819 17.975 45.7219 17.855C45.6719 17.735 45.5869 17.635 45.4669 17.555C45.3469 17.475 45.2269 17.405 45.1069 17.345C44.9869 17.295 44.8319 17.25 44.6419 17.21C44.4519 17.18 44.2919 17.155 44.1619 17.135C44.0419 17.125 43.8769 17.11 43.6669 17.09C43.4669 17.07 43.3269 17.055 43.2469 17.045C42.4569 17.305 42.0619 17.715 42.0619 18.275ZM42.4369 12.755C42.4369 13.235 42.5669 13.63 42.8269 13.94C43.0969 14.25 43.4619 14.405 43.9219 14.405C44.3619 14.405 44.7169 14.255 44.9869 13.955C45.2569 13.645 45.3919 13.25 45.3919 12.77V12.275C45.3919 11.815 45.2569 11.43 44.9869 11.12C44.7169 10.81 44.3569 10.655 43.9069 10.655C43.4469 10.655 43.0869 10.81 42.8269 11.12C42.5669 11.42 42.4369 11.805 42.4369 12.275V12.755ZM48.2873 16.55V10.325C48.2873 10.195 48.3423 10.09 48.4523 10.01C48.5723 9.93 48.7223 9.89 48.9023 9.89C49.0523 9.89 49.1823 9.935 49.2923 10.025C49.4123 10.105 49.4723 10.205 49.4723 10.325V10.94C49.6323 10.62 49.8873 10.35 50.2373 10.13C50.5973 9.91 51.0123 9.8 51.4823 9.8C52.1923 9.8 52.8073 10.085 53.3273 10.655C53.8573 11.215 54.1223 11.89 54.1223 12.68V16.55C54.1223 16.69 54.0573 16.8 53.9273 16.88C53.8073 16.96 53.6623 17 53.4923 17C53.3323 17 53.1873 16.96 53.0573 16.88C52.9373 16.8 52.8773 16.69 52.8773 16.55V12.68C52.8773 12.23 52.7073 11.825 52.3673 11.465C52.0273 11.105 51.6273 10.925 51.1673 10.925C50.7373 10.925 50.3573 11.09 50.0273 11.42C49.6973 11.74 49.5323 12.16 49.5323 12.68V16.55C49.5323 16.66 49.4673 16.765 49.3373 16.865C49.2073 16.955 49.0623 17 48.9023 17C48.7323 17 48.5873 16.955 48.4673 16.865C48.3473 16.775 48.2873 16.67 48.2873 16.55ZM59.0142 16.55V6.47C59.0142 6.33 59.0742 6.225 59.1942 6.155C59.3242 6.075 59.4742 6.035 59.6442 6.035C59.8142 6.035 59.9592 6.075 60.0792 6.155C60.2092 6.225 60.2742 6.33 60.2742 6.47V16.55C60.2742 16.69 60.2092 16.8 60.0792 16.88C59.9592 16.96 59.8142 17 59.6442 17C59.4742 17 59.3242 16.96 59.1942 16.88C59.0742 16.8 59.0142 16.69 59.0142 16.55ZM62.1448 16.55V10.325C62.1448 10.195 62.1998 10.09 62.3098 10.01C62.4298 9.93 62.5798 9.89 62.7598 9.89C62.9098 9.89 63.0398 9.935 63.1498 10.025C63.2698 10.105 63.3298 10.205 63.3298 10.325V10.94C63.4898 10.62 63.7448 10.35 64.0948 10.13C64.4548 9.91 64.8698 9.8 65.3398 9.8C66.0498 9.8 66.6648 10.085 67.1848 10.655C67.7148 11.215 67.9798 11.89 67.9798 12.68V16.55C67.9798 16.69 67.9148 16.8 67.7848 16.88C67.6648 16.96 67.5198 17 67.3498 17C67.1898 17 67.0448 16.96 66.9148 16.88C66.7948 16.8 66.7348 16.69 66.7348 16.55V12.68C66.7348 12.23 66.5648 11.825 66.2248 11.465C65.8848 11.105 65.4848 10.925 65.0248 10.925C64.5948 10.925 64.2148 11.09 63.8848 11.42C63.5548 11.74 63.3898 12.16 63.3898 12.68V16.55C63.3898 16.66 63.3248 16.765 63.1948 16.865C63.0648 16.955 62.9198 17 62.7598 17C62.5898 17 62.4448 16.955 62.3248 16.865C62.2048 16.775 62.1448 16.67 62.1448 16.55ZM72.0616 6.545C72.0616 6.405 72.1416 6.285 72.3016 6.185C72.4716 6.085 72.6466 6.035 72.8266 6.035C73.0766 6.035 73.2316 6.13 73.2916 6.32L75.8266 15.23L77.2516 9.74C77.3216 9.48 77.5416 9.35 77.9116 9.35C78.2616 9.35 78.4716 9.48 78.5416 9.74L79.9816 15.23L82.5016 6.32C82.5616 6.13 82.7216 6.035 82.9816 6.035C83.1616 6.035 83.3316 6.085 83.4916 6.185C83.6516 6.285 83.7316 6.405 83.7316 6.545C83.7316 6.605 83.7266 6.65 83.7166 6.68L80.7616 16.655C80.6716 16.945 80.4116 17.09 79.9816 17.09C79.5316 17.09 79.2716 16.945 79.2016 16.655L77.9116 11.705L76.6066 16.655C76.5266 16.945 76.2716 17.09 75.8416 17.09C75.4116 17.09 75.1516 16.945 75.0616 16.655L72.0916 6.68C72.0716 6.62 72.0616 6.575 72.0616 6.545ZM84.9538 7.73C84.8038 7.58 84.7288 7.41 84.7288 7.22C84.7288 7.03 84.8038 6.865 84.9538 6.725C85.1038 6.585 85.2888 6.515 85.5088 6.515C85.7188 6.515 85.8988 6.585 86.0488 6.725C86.1988 6.865 86.2738 7.03 86.2738 7.22C86.2738 7.41 86.1988 7.58 86.0488 7.73C85.8988 7.87 85.7188 7.94 85.5088 7.94C85.2988 7.94 85.1138 7.87 84.9538 7.73ZM84.8938 16.55V10.325C84.8938 10.195 84.9538 10.09 85.0738 10.01C85.1938 9.93 85.3388 9.89 85.5088 9.89C85.6888 9.89 85.8388 9.93 85.9588 10.01C86.0788 10.09 86.1388 10.195 86.1388 10.325V16.55C86.1388 16.66 86.0738 16.765 85.9438 16.865C85.8238 16.955 85.6788 17 85.5088 17C85.3388 17 85.1938 16.955 85.0738 16.865C84.9538 16.775 84.8938 16.67 84.8938 16.55ZM87.8814 14.735V7.01C87.8814 6.89 87.9464 6.79 88.0764 6.71C88.2064 6.62 88.3464 6.575 88.4964 6.575C88.6564 6.575 88.8014 6.62 88.9314 6.71C89.0614 6.79 89.1264 6.89 89.1264 7.01V9.89H91.0164C91.1264 9.89 91.2164 9.94 91.2864 10.04C91.3564 10.14 91.3914 10.255 91.3914 10.385C91.3914 10.515 91.3564 10.63 91.2864 10.73C91.2164 10.82 91.1264 10.865 91.0164 10.865H89.1264V14.735C89.1264 15.165 89.2164 15.47 89.3964 15.65C89.5864 15.82 89.9114 15.905 90.3714 15.905H90.8364C91.0064 15.905 91.1364 15.96 91.2264 16.07C91.3264 16.17 91.3764 16.295 91.3764 16.445C91.3764 16.595 91.3264 16.725 91.2264 16.835C91.1264 16.945 90.9964 17 90.8364 17H90.3714C88.7114 17 87.8814 16.245 87.8814 14.735ZM92.5699 16.55V6.035C92.5699 5.905 92.6249 5.8 92.7349 5.72C92.8549 5.64 93.0049 5.6 93.1849 5.6C93.3649 5.6 93.5149 5.64 93.6349 5.72C93.7549 5.8 93.8149 5.905 93.8149 6.035V10.94C93.9849 10.62 94.2349 10.35 94.5649 10.13C94.9049 9.91 95.3049 9.8 95.7649 9.8C96.4749 9.8 97.0899 10.085 97.6099 10.655C98.1399 11.215 98.4049 11.89 98.4049 12.68V16.55C98.4049 16.69 98.3399 16.8 98.2099 16.88C98.0899 16.96 97.9449 17 97.7749 17C97.6149 17 97.4699 16.96 97.3399 16.88C97.2199 16.8 97.1599 16.69 97.1599 16.55V12.68C97.1599 12.23 96.9899 11.825 96.6499 11.465C96.3099 11.105 95.9099 10.925 95.4499 10.925C95.0199 10.925 94.6399 11.09 94.3099 11.42C93.9799 11.74 93.8149 12.16 93.8149 12.68V16.55C93.8149 16.66 93.7499 16.765 93.6199 16.865C93.4999 16.955 93.3549 17 93.1849 17C93.0149 17 92.8699 16.955 92.7499 16.865C92.6299 16.775 92.5699 16.67 92.5699 16.55ZM103.191 13.82V9.305C103.191 8.175 103.481 7.35 104.061 6.83C104.651 6.3 105.426 6.035 106.386 6.035C107.366 6.035 108.156 6.285 108.756 6.785C109.356 7.275 109.656 7.92 109.656 8.72C109.656 8.95 109.601 9.11 109.491 9.2C109.391 9.29 109.236 9.335 109.026 9.335C108.616 9.335 108.406 9.19 108.396 8.9C108.266 7.75 107.606 7.175 106.416 7.175C105.106 7.175 104.451 7.885 104.451 9.305V13.82C104.451 15.24 105.106 15.95 106.416 15.95C107.046 15.95 107.531 15.775 107.871 15.425C108.221 15.065 108.396 14.53 108.396 13.82V12.29H106.611C106.471 12.29 106.361 12.24 106.281 12.14C106.211 12.03 106.176 11.905 106.176 11.765C106.176 11.625 106.216 11.505 106.296 11.405C106.376 11.295 106.481 11.24 106.611 11.24H109.221C109.361 11.24 109.466 11.285 109.536 11.375C109.616 11.465 109.656 11.575 109.656 11.705V13.82C109.656 14.95 109.361 15.78 108.771 16.31C108.181 16.83 107.396 17.09 106.416 17.09C105.436 17.09 104.651 16.83 104.061 16.31C103.481 15.78 103.191 14.95 103.191 13.82ZM111.064 14.21V12.68C111.064 11.91 111.354 11.24 111.934 10.67C112.524 10.09 113.219 9.8 114.019 9.8C114.819 9.8 115.514 10.085 116.104 10.655C116.694 11.225 116.989 11.9 116.989 12.68V14.21C116.989 14.97 116.689 15.645 116.089 16.235C115.499 16.825 114.809 17.12 114.019 17.12C113.229 17.12 112.539 16.83 111.949 16.25C111.359 15.66 111.064 14.98 111.064 14.21ZM112.309 14.21C112.309 14.68 112.479 15.095 112.819 15.455C113.159 15.815 113.559 15.995 114.019 15.995C114.489 15.995 114.894 15.815 115.234 15.455C115.574 15.085 115.744 14.67 115.744 14.21V12.68C115.744 12.23 115.574 11.825 115.234 11.465C114.894 11.105 114.489 10.925 114.019 10.925C113.549 10.925 113.144 11.105 112.804 11.465C112.474 11.825 112.309 12.23 112.309 12.68V14.21ZM118.213 14.21V12.68C118.213 11.91 118.503 11.24 119.083 10.67C119.673 10.09 120.368 9.8 121.168 9.8C121.968 9.8 122.663 10.085 123.253 10.655C123.843 11.225 124.138 11.9 124.138 12.68V14.21C124.138 14.97 123.838 15.645 123.238 16.235C122.648 16.825 121.958 17.12 121.168 17.12C120.378 17.12 119.688 16.83 119.098 16.25C118.508 15.66 118.213 14.98 118.213 14.21ZM119.458 14.21C119.458 14.68 119.628 15.095 119.968 15.455C120.308 15.815 120.708 15.995 121.168 15.995C121.638 15.995 122.043 15.815 122.383 15.455C122.723 15.085 122.893 14.67 122.893 14.21V12.68C122.893 12.23 122.723 11.825 122.383 11.465C122.043 11.105 121.638 10.925 121.168 10.925C120.698 10.925 120.293 11.105 119.953 11.465C119.623 11.825 119.458 12.23 119.458 12.68V14.21ZM125.076 18.41C125.076 17.68 125.481 17.135 126.291 16.775C125.781 16.585 125.526 16.25 125.526 15.77C125.526 15.31 125.776 14.94 126.276 14.66C125.706 14.2 125.421 13.57 125.421 12.77V12.275C125.421 11.545 125.666 10.95 126.156 10.49C126.646 10.03 127.291 9.8 128.091 9.8C128.771 9.8 129.356 9.995 129.846 10.385C130.146 9.735 130.486 9.41 130.866 9.41C131.026 9.41 131.156 9.46 131.256 9.56C131.356 9.65 131.406 9.755 131.406 9.875C131.406 10.025 131.321 10.14 131.151 10.22C130.811 10.31 130.541 10.52 130.341 10.85C130.651 11.22 130.806 11.695 130.806 12.275V12.77C130.806 13.49 130.551 14.085 130.041 14.555C129.531 15.025 128.881 15.26 128.091 15.26C127.681 15.26 127.311 15.185 126.981 15.035C126.731 15.185 126.606 15.355 126.606 15.545C126.606 15.735 126.721 15.885 126.951 15.995C127.181 16.095 127.466 16.16 127.806 16.19C128.146 16.21 128.516 16.255 128.916 16.325C129.316 16.395 129.686 16.485 130.026 16.595C130.366 16.705 130.651 16.9 130.881 17.18C131.111 17.46 131.226 17.815 131.226 18.245C131.226 18.955 130.941 19.495 130.371 19.865C129.811 20.245 129.081 20.435 128.181 20.435C127.281 20.435 126.536 20.25 125.946 19.88C125.366 19.52 125.076 19.03 125.076 18.41ZM126.261 18.275C126.261 18.665 126.431 18.975 126.771 19.205C127.121 19.445 127.586 19.565 128.166 19.565C128.726 19.565 129.171 19.445 129.501 19.205C129.841 18.975 130.011 18.665 130.011 18.275C130.011 18.115 129.981 17.975 129.921 17.855C129.871 17.735 129.786 17.635 129.666 17.555C129.546 17.475 129.426 17.405 129.306 17.345C129.186 17.295 129.031 17.25 128.841 17.21C128.651 17.18 128.491 17.155 128.361 17.135C128.241 17.125 128.076 17.11 127.866 17.09C127.666 17.07 127.526 17.055 127.446 17.045C126.656 17.305 126.261 17.715 126.261 18.275ZM126.636 12.755C126.636 13.235 126.766 13.63 127.026 13.94C127.296 14.25 127.661 14.405 128.121 14.405C128.561 14.405 128.916 14.255 129.186 13.955C129.456 13.645 129.591 13.25 129.591 12.77V12.275C129.591 11.815 129.456 11.43 129.186 11.12C128.916 10.81 128.556 10.655 128.106 10.655C127.646 10.655 127.286 10.81 127.026 11.12C126.766 11.42 126.636 11.805 126.636 12.275V12.755ZM132.622 16.55V6.035C132.622 5.905 132.677 5.8 132.787 5.72C132.907 5.64 133.057 5.6 133.237 5.6C133.417 5.6 133.567 5.64 133.687 5.72C133.807 5.8 133.867 5.905 133.867 6.035V16.55C133.867 16.66 133.802 16.765 133.672 16.865C133.552 16.955 133.407 17 133.237 17C133.067 17 132.922 16.955 132.802 16.865C132.682 16.775 132.622 16.67 132.622 16.55ZM135.498 14.21V12.635C135.498 11.865 135.788 11.2 136.368 10.64C136.958 10.08 137.663 9.8 138.483 9.8C139.263 9.8 139.938 10.065 140.508 10.595C141.078 11.115 141.363 11.77 141.363 12.56C141.363 12.85 141.328 13.085 141.258 13.265C141.188 13.435 141.078 13.56 140.928 13.64C140.788 13.71 140.653 13.755 140.523 13.775C140.403 13.795 140.238 13.805 140.028 13.805H136.743V14.255C136.743 14.805 136.938 15.245 137.328 15.575C137.728 15.905 138.243 16.07 138.873 16.07C139.203 16.07 139.488 16.02 139.728 15.92C139.978 15.82 140.178 15.725 140.328 15.635C140.478 15.535 140.598 15.485 140.688 15.485C140.828 15.485 140.948 15.55 141.048 15.68C141.148 15.8 141.198 15.925 141.198 16.055C141.198 16.285 140.968 16.52 140.508 16.76C140.058 17 139.498 17.12 138.828 17.12C137.848 17.12 137.048 16.855 136.428 16.325C135.808 15.785 135.498 15.08 135.498 14.21ZM136.743 12.965H139.518C139.778 12.965 139.953 12.935 140.043 12.875C140.133 12.805 140.178 12.675 140.178 12.485C140.178 12.035 140.013 11.64 139.683 11.3C139.353 10.96 138.948 10.79 138.468 10.79C137.998 10.79 137.593 10.95 137.253 11.27C136.913 11.58 136.743 11.965 136.743 12.425V12.965Z" fill="#FF4E4E"/>
<path d="M11.749 12.4998V15.4979H16.7101C16.5094 16.7872 15.2111 19.2723 11.749 19.2723C8.76424 19.2723 6.32381 16.7962 6.32381 13.749C6.32381 10.6973 8.75978 8.22565 11.749 8.22565C13.4488 8.22565 14.5865 8.95288 15.2379 9.57749L17.6114 7.28874C16.0855 5.86553 14.1136 5 11.749 5C6.91272 5 3 8.91272 3 13.749C3 18.5852 6.91272 22.498 11.749 22.498C16.7994 22.498 20.1499 18.9466 20.1499 13.9497C20.1499 13.3742 20.0875 12.937 20.0116 12.4998H11.749Z" fill="#FF4E4E"/>
</svg>
