<svg width="214" height="25" viewBox="0 0 214 25" fill="none" xmlns="http://www.w3.org/2000/svg">
<path d="M97.18 15.66V9.84C97.18 8.30667 97.5867 7.18 98.4 6.46C99.2133 5.74 100.3 5.38 101.66 5.38C103.02 5.38 104.107 5.74 104.92 6.46C105.747 7.18 106.16 8.30667 106.16 9.84V15.66C106.16 17.1933 105.747 18.32 104.92 19.04C104.107 19.76 103.02 20.12 101.66 20.12C100.3 20.12 99.2133 19.76 98.4 19.04C97.5867 18.32 97.18 17.1933 97.18 15.66ZM99.3 15.66C99.3 17.38 100.087 18.24 101.66 18.24C102.42 18.24 103.007 18.0267 103.42 17.6C103.833 17.1733 104.04 16.5267 104.04 15.66V9.84C104.04 8.97333 103.833 8.32667 103.42 7.9C103.007 7.47333 102.42 7.26 101.66 7.26C100.087 7.26 99.3 8.12 99.3 9.84V15.66ZM108.648 19.3V6.06C108.648 5.87333 108.715 5.71333 108.848 5.58C108.981 5.44667 109.148 5.38 109.348 5.38H113.148C116.215 5.38 117.748 6.74 117.748 9.46C117.748 10.5933 117.495 11.4867 116.988 12.14C116.481 12.78 115.795 13.2067 114.928 13.42L117.728 18.68C117.781 18.7733 117.808 18.8733 117.808 18.98C117.808 19.2467 117.668 19.4933 117.388 19.72C117.121 19.9467 116.835 20.06 116.528 20.06C116.181 20.06 115.901 19.8533 115.688 19.44L112.768 13.72H110.748V19.3C110.748 19.5133 110.641 19.6867 110.428 19.82C110.228 19.94 109.981 20 109.688 20C109.408 20 109.161 19.94 108.948 19.82C108.748 19.6867 108.648 19.5133 108.648 19.3ZM110.748 12.02H113.148C114.801 12.02 115.628 11.2267 115.628 9.64C115.628 8.05333 114.801 7.26 113.148 7.26H110.748V12.02Z" fill="#FFB600"/>
<path d="M1.53439 13.2648C1.53062 13.2648 1.53062 13.2648 1.53439 13.2648C4.28725 13.5108 7.04763 13.6961 9.81178 13.8271C11.4838 13.9037 13.1521 13.9644 14.8279 13.9868C17.2381 14.0219 19.6445 13.9804 22.0547 13.9389C24.1334 13.9037 26.2122 13.8814 28.291 13.8526C29.9555 13.8303 31.6238 13.8047 33.2883 13.776C35.2089 13.744 37.1257 13.7248 39.0463 13.6769C43.4599 13.5683 47.8698 13.4629 52.2834 13.3671C54.0383 13.3287 55.7894 13.3096 57.5443 13.2936C58.8209 13.2808 60.0938 13.268 61.3704 13.2585C61.9466 13.2521 62.5228 13.2617 63.099 13.2712C64.5036 13.2872 65.9121 13.3064 67.3168 13.3223C67.9268 13.3287 68.5407 13.3319 69.1507 13.3575C71.1805 13.4437 73.2141 13.514 75.2477 13.6194C77.4696 13.7344 79.6952 13.8175 81.9171 13.875C83.8527 13.9261 85.7922 13.9644 87.7278 13.9517C89.1513 13.9421 90.5824 13.9101 91.9983 13.76C91.9983 13.76 92.0021 13.7568 91.9983 13.7568C91.0644 13.6386 90.1304 13.5108 89.1965 13.4054C89.2229 13.4086 89.2492 13.4118 89.2794 13.415C87.2232 13.1658 85.1557 12.9678 83.092 12.7985C81.484 12.6643 79.876 12.5429 78.2679 12.4343C78.8667 12.4119 79.4655 12.3896 80.0642 12.364C80.9116 12.3289 81.7589 12.2874 82.61 12.2522C83.6908 12.2107 84.7754 12.1468 85.8562 12.1021C87.8182 12.019 89.7765 11.9008 91.731 11.7411C91.7347 11.7411 91.7347 11.7379 91.731 11.7379C89.7501 11.5686 87.7542 11.5526 85.7658 11.5207C83.6569 11.4856 81.5442 11.4824 79.4316 11.4951C77.4244 11.5047 75.4134 11.5367 73.4062 11.5846C71.6099 11.6293 69.8135 11.6708 68.0134 11.6996C66.5598 11.7251 65.1062 11.7475 63.6488 11.7731C62.9408 11.7858 62.229 11.805 61.5211 11.8082C59.141 11.8178 56.7648 11.8274 54.3847 11.8337C53.7822 11.8369 53.1796 11.8433 52.5771 11.8401C51.5302 11.8306 50.4795 11.821 49.4326 11.8114C48.0317 11.7986 46.6308 11.7858 45.2336 11.7762C44.7252 11.7699 44.2169 11.7699 43.7085 11.7571C41.2117 11.706 38.7149 11.6549 36.2181 11.6037C34.2335 11.5622 32.2527 11.4887 30.2718 11.4312C26.5549 11.3194 22.8342 11.1981 19.1135 11.1054C17.1477 11.0543 15.1782 11.0192 13.2124 11.0064C12.704 11.0032 12.1994 11 11.691 11C10.7909 11 9.89464 11.0064 8.99459 11.016C8.30544 11.0224 7.62004 11.0447 6.93089 11.0415C4.6224 11.0415 2.31016 11.0894 0.00167372 11.099C0.00167372 11.099 -0.00209215 11.1022 0.00167372 11.1022C0.60798 11.1885 1.21429 11.2715 1.82436 11.3386C2.44196 11.4089 3.06333 11.4728 3.68093 11.5399C4.82576 11.6612 5.9706 11.7699 7.11542 11.8753C7.32631 11.8944 7.54096 11.904 7.75185 11.92C8.36192 11.9615 8.972 11.9999 9.58207 12.035C10.9265 12.1149 12.2709 12.1851 13.6191 12.2426C14.376 12.2746 15.1367 12.2969 15.8937 12.3129C12.1768 12.4247 8.4636 12.6515 4.76551 12.971C3.6847 13.0668 2.60766 13.1594 1.53439 13.2648Z" fill="#FFB600"/>
<path d="M123.534 13.2648C123.531 13.2648 123.531 13.2648 123.534 13.2648C126.287 13.5108 129.048 13.6961 131.812 13.8271C133.484 13.9037 135.152 13.9644 136.828 13.9868C139.238 14.0219 141.644 13.9804 144.055 13.9389C146.133 13.9037 148.212 13.8814 150.291 13.8526C151.955 13.8303 153.624 13.8047 155.288 13.776C157.209 13.744 159.126 13.7248 161.046 13.6769C165.46 13.5683 169.87 13.4629 174.283 13.3671C176.038 13.3287 177.789 13.3096 179.544 13.2936C180.821 13.2808 182.094 13.268 183.37 13.2585C183.947 13.2521 184.523 13.2617 185.099 13.2712C186.504 13.2872 187.912 13.3064 189.317 13.3223C189.927 13.3287 190.541 13.3319 191.151 13.3575C193.181 13.4437 195.214 13.514 197.248 13.6194C199.47 13.7344 201.695 13.8175 203.917 13.875C205.853 13.9261 207.792 13.9644 209.728 13.9517C211.151 13.9421 212.582 13.9101 213.998 13.76C213.998 13.76 214.002 13.7568 213.998 13.7568C213.064 13.6386 212.13 13.5108 211.197 13.4054C211.223 13.4086 211.249 13.4118 211.279 13.415C209.223 13.1658 207.156 12.9678 205.092 12.7985C203.484 12.6643 201.876 12.5429 200.268 12.4343C200.867 12.4119 201.465 12.3896 202.064 12.364C202.912 12.3289 203.759 12.2874 204.61 12.2522C205.691 12.2107 206.775 12.1468 207.856 12.1021C209.818 12.019 211.776 11.9008 213.731 11.7411C213.735 11.7411 213.735 11.7379 213.731 11.7379C211.75 11.5686 209.754 11.5526 207.766 11.5207C205.657 11.4856 203.544 11.4824 201.432 11.4951C199.424 11.5047 197.413 11.5367 195.406 11.5846C193.61 11.6293 191.814 11.6708 190.013 11.6996C188.56 11.7251 187.106 11.7475 185.649 11.7731C184.941 11.7858 184.229 11.805 183.521 11.8082C181.141 11.8178 178.765 11.8274 176.385 11.8337C175.782 11.8369 175.18 11.8433 174.577 11.8401C173.53 11.8306 172.48 11.821 171.433 11.8114C170.032 11.7986 168.631 11.7858 167.234 11.7762C166.725 11.7699 166.217 11.7699 165.708 11.7571C163.212 11.706 160.715 11.6549 158.218 11.6037C156.234 11.5622 154.253 11.4887 152.272 11.4312C148.555 11.3194 144.834 11.1981 141.114 11.1054C139.148 11.0543 137.178 11.0192 135.212 11.0064C134.704 11.0032 134.199 11 133.691 11C132.791 11 131.895 11.0064 130.995 11.016C130.305 11.0224 129.62 11.0447 128.931 11.0415C126.622 11.0415 124.31 11.0894 122.002 11.099C122.002 11.099 121.998 11.1022 122.002 11.1022C122.608 11.1885 123.214 11.2715 123.824 11.3386C124.442 11.4089 125.063 11.4728 125.681 11.5399C126.826 11.6612 127.971 11.7699 129.115 11.8753C129.326 11.8944 129.541 11.904 129.752 11.92C130.362 11.9615 130.972 11.9999 131.582 12.035C132.926 12.1149 134.271 12.1851 135.619 12.2426C136.376 12.2746 137.137 12.2969 137.894 12.3129C134.177 12.4247 130.464 12.6515 126.766 12.971C125.685 13.0668 124.608 13.1594 123.534 13.2648Z" fill="#FFB600"/>
</svg>
