<svg width="375" height="325" viewBox="0 0 375 325" fill="none" xmlns="http://www.w3.org/2000/svg">
<path opacity="0.1" d="M350.518 111.1C314.918 111.1 286.018 139.3 286.018 174C286.018 177.2 286.218 180.3 286.718 183.3C284.618 183 282.418 182.8 280.218 182.8C257.618 182.8 239.118 199.9 237.618 221.6C227.718 215.5 215.918 212 203.318 212C174.618 212 150.318 230.3 141.918 255.5C138.618 253.1 134.518 251.7 130.018 251.7C119.718 251.7 111.318 259.2 110.118 268.9C98.3179 254 79.9179 244.5 59.1179 244.5C23.5179 244.5 -5.38211 272.7 -5.38211 307.4C-5.58211 317 -2.88211 327.7 1.11789 338.1C11.6179 365.5 31.1179 391.1 31.1179 391.1H379.818V230V136.5V121C379.818 112.7 350.518 111.1 350.518 111.1Z" fill="white"/>
<path opacity="0.1" d="M384.918 0C338.718 0 301.218 36.5 301.218 81.6C301.218 85.7 301.518 89.7 302.118 93.7C299.418 93.3 296.618 93.1 293.718 93.1C264.418 93.1 240.418 115.3 238.418 143.4C225.518 135.5 210.218 130.9 193.918 130.9C156.718 130.9 125.218 154.6 114.318 187.3C110.018 184.2 104.618 182.3 98.8179 182.3C85.5179 182.3 74.5179 192.1 72.9179 204.7C57.6179 185.4 33.6179 173 6.71787 173C-39.4821 173 -76.9821 209.5 -76.9821 254.6C-77.2821 267.1 -73.7821 280.9 -68.5821 294.4C-54.9821 330 -29.6821 363.2 -29.6821 363.2H422.818V154.2V32.9V12.8C423.018 1.99999 384.918 0 384.918 0Z" fill="white"/>
<path opacity="0.1" d="M377.118 149C350.418 149 328.718 170.1 328.718 196.2C328.718 198.6 328.918 200.9 329.218 203.2C327.618 203 326.018 202.8 324.418 202.8C307.418 202.8 293.618 215.7 292.418 231.9C284.918 227.3 276.118 224.7 266.718 224.7C245.218 224.7 226.918 238.4 220.618 257.3C218.118 255.5 215.018 254.4 211.718 254.4C204.018 254.4 197.618 260.1 196.718 267.3C187.818 256.2 174.018 249 158.418 249C131.718 249 110.018 270.1 110.018 296.2C109.918 303.4 111.918 311.4 114.818 319.2C122.718 339.8 137.318 359 137.318 359H399.118V238.3V168.1V156.5C399.118 150.2 377.118 149 377.118 149Z" fill="white"/>
<path opacity="0.1" d="M371.118 214.4C353.818 214.4 339.818 228.1 339.818 244.9C339.818 246.4 339.918 247.9 340.118 249.4C339.118 249.2 338.018 249.2 337.018 249.2C326.018 249.2 317.018 257.5 316.318 268C311.518 265 305.818 263.3 299.618 263.3C285.718 263.3 273.918 272.2 269.818 284.4C268.218 283.2 266.218 282.5 264.018 282.5C259.018 282.5 254.918 286.2 254.318 290.9C248.618 283.7 239.618 279 229.518 279C212.218 279 198.218 292.7 198.218 309.5C198.118 314.2 199.418 319.4 201.318 324.4C206.418 337.7 215.918 350.2 215.918 350.2H385.218V272V226.6V219.1C385.318 215.1 371.118 214.4 371.118 214.4Z" fill="white"/>
</svg>
