<svg width="285" height="234" viewBox="0 0 285 234" fill="none" xmlns="http://www.w3.org/2000/svg">
<path opacity="0.2" d="M268.647 51.0959C267.632 51.0959 266.616 51.2206 265.601 51.3453C262.046 44.1109 254.43 38.9969 245.672 38.9969C234.121 38.9969 224.6 47.7281 223.585 58.954C222.95 58.8293 222.189 58.8292 221.554 58.8292C214.826 58.8292 209.495 64.1927 209.495 70.6788C209.495 77.2896 214.953 82.5283 221.554 82.5283C225.616 82.5283 264.712 82.5283 268.647 82.5283C277.533 82.5283 284.768 75.4186 284.768 66.6874C284.641 58.0809 277.533 51.0959 268.647 51.0959Z" fill="white"/>
<path opacity="0.2" d="M51.8749 70.1944C51.1494 70.1944 50.4239 70.2851 49.6984 70.3758C47.159 65.1158 41.7176 61.3975 35.46 61.3975C27.2071 61.3975 20.4053 67.7458 19.6798 75.9079C19.2264 75.8172 18.6822 75.8173 18.2288 75.8173C13.4222 75.8173 9.6132 79.7169 9.6132 84.4328C9.6132 89.2394 13.5129 93.0484 18.2288 93.0484C21.1309 93.0484 49.0635 93.0484 51.8749 93.0484C58.2233 93.0484 63.3926 87.8791 63.3926 81.5307C63.3926 75.3638 58.2233 70.1944 51.8749 70.1944Z" fill="white"/>
<path opacity="0.2" d="M161.925 12.099C160.92 12.099 159.915 12.2237 158.911 12.3485C155.393 5.11402 147.856 0 139.188 0C127.757 0 118.336 8.73123 117.331 19.9571C116.703 19.8324 115.949 19.8324 115.321 19.8324C108.663 19.8324 103.387 25.1958 103.387 31.6819C103.387 38.2927 108.789 43.5314 115.321 43.5314C119.341 43.5314 158.031 43.5314 161.925 43.5314C170.719 43.5314 177.753 36.4217 177.753 27.6905C177.753 19.2087 170.719 12.099 161.925 12.099Z" fill="white"/>
<path d="M158.346 112.184C145.105 73.6406 144.016 44.6197 165.329 17.5032C169.773 36.5482 175.758 72.5523 158.346 112.184Z" fill="url(#paint0_linear_83_200)"/>
<path d="M165.964 121.434C163.696 72.8244 172.13 39.2689 205.595 15.4174C204.326 38.7248 199.156 81.8935 165.964 121.434Z" fill="url(#paint1_linear_83_200)"/>
<path d="M204.235 58.2233C194.531 63.6647 185.462 72.371 179.476 83.8887C172.312 97.7643 169.41 115.721 175.033 137.215C183.83 114.451 187.004 92.9577 200.245 75.6358C203.781 71.0106 207.953 66.7482 213.123 62.7578C220.196 57.3164 222.736 53.326 222.645 50.5146C216.75 52.2377 210.493 54.777 204.235 58.2233Z" fill="url(#paint2_linear_83_200)"/>
<path d="M222.645 50.4239C216.75 52.2377 210.402 54.7771 204.144 58.2233C194.44 63.6647 185.371 72.371 179.386 83.8887C185.915 79.8076 192.899 77.5404 200.154 75.5452C206.865 73.7314 213.757 72.0989 220.831 69.5596C241.69 62.0323 248.31 45.708 248.31 45.708C248.31 45.708 236.883 45.9801 222.645 50.4239Z" fill="url(#paint3_linear_83_200)"/>
<path d="M116.537 93.7739C115.812 95.225 115.358 96.1319 115.268 96.3133L3.17416 161.429C3.26485 161.157 3.7183 160.341 4.44382 158.89C6.89247 154.083 24.3957 109.191 29.8372 97.2202C74.0034 71.5548 106.652 52.6005 141.931 32.1044C136.489 44.0756 118.986 88.9673 116.537 93.7739Z" fill="#FB7498"/>
<path d="M36.6389 104.838L148.732 39.7224C143.926 57.2257 131.41 96.676 130.776 98.7619L18.6822 163.878C19.3171 161.792 31.8323 122.341 36.6389 104.838Z" fill="#C7DFF2"/>
<path d="M36.6389 98.3085C40.1759 100.304 41.1735 104.566 41.4455 105.836C42.171 109.282 42.1711 109.463 42.2618 109.645C42.6245 111.459 42.7152 111.64 42.7152 111.821C48.4287 135.764 61.9416 178.932 66.2947 192.536C66.204 192.536 65.6599 192.264 64.5716 191.629C62.5764 190.45 58.8581 188.183 54.2329 184.464C53.598 181.653 41.3548 127.874 36.6389 104.838C31.8323 122.341 19.3171 161.792 18.6822 163.878C13.9663 162.245 10.3387 160.25 8.34351 159.162C7.25522 158.527 6.71108 158.164 6.62039 158.164C9.06903 153.358 14.5105 142.475 19.7705 131.048C19.7705 130.957 19.8612 130.957 19.8612 130.866C25.0306 119.621 29.8372 108.284 31.651 101.12C32.1044 99.3061 33.102 96.3133 36.6389 98.3085Z" fill="#E6F4FF"/>
<path d="M34.5531 94.9529C39.4504 97.7643 42.0804 103.569 42.8059 107.74C46.6149 128.327 68.4713 196.98 68.7434 197.615L65.4785 197.433C65.3878 197.07 64.9344 195.619 64.2088 193.352C59.9464 179.839 46.4335 136.58 40.9921 114.179C40.6293 112.456 40.5386 112.275 40.5386 112.093C40.1759 110.28 40.0852 110.098 40.0852 109.917C39.1783 105.382 38.1807 101.12 34.6437 99.1247C31.1068 97.1295 30.1092 100.122 29.8372 101.12C27.7513 109.101 22.9447 120.437 17.9567 131.32C12.4246 143.291 6.98317 154.083 4.53452 158.98C3.809 160.431 3.35555 161.338 3.26486 161.52L0 157.892C0.181381 157.439 22.4005 114.27 26.3002 98.1271C26.9351 94.8622 29.6558 92.1415 34.5531 94.9529Z" fill="#FE93AF"/>
<path d="M154.899 42.5338C154.174 38.4528 151.544 32.6486 146.646 29.8372C144.107 28.3861 142.203 28.3861 140.842 29.2023C103.478 50.8774 66.1133 72.6431 28.7489 94.3181C30.1092 93.5019 32.1044 93.5019 34.5531 94.9529C39.4504 97.7643 42.0804 103.569 42.8059 107.74C46.6149 128.327 68.4713 196.98 68.7434 197.615L180.837 132.499C180.565 131.773 158.708 63.1206 154.899 42.5338Z" fill="url(#paint4_linear_83_200)"/>
<path d="M43.4407 110.733L155.534 45.6174C155.443 44.9825 155.262 44.4384 155.171 43.8942L43.078 109.01C43.1687 109.554 43.35 110.189 43.4407 110.733Z" fill="#FB7498"/>
<path d="M160.885 111.368C156.35 96.6761 151.09 78.81 147.372 65.0251C146.556 62.3044 144.833 61.3068 142.747 62.3044L129.687 69.8317C127.692 71.1013 126.876 73.6407 127.511 76.4521C131.138 90.1463 136.489 108.012 141.024 122.795C142.021 125.697 143.926 126.876 145.921 125.878L158.98 118.351C161.429 116.809 161.52 113.635 160.885 111.368Z" fill="#E6F4FF"/>
<path d="M67.4737 193.624C66.7482 191.266 65.7506 188.001 64.4809 184.102L176.574 118.986C177.753 122.886 178.842 126.15 179.567 128.508L67.4737 193.624Z" fill="#E6F4FF"/>
<path opacity="0.8" d="M42.8059 107.74C46.6149 128.327 68.4713 196.98 68.7434 197.614L69.5596 197.161C67.0202 189.09 47.5218 127.42 43.9849 108.103C43.2593 104.022 40.6293 98.2178 35.732 95.3157C35.0972 94.9529 34.4624 94.6808 33.8275 94.4995C34.0996 94.5901 34.3717 94.7715 34.6437 94.9529C39.4503 97.7643 42.0804 103.569 42.8059 107.74Z" fill="white"/>
<path d="M85.8838 175.305C117.081 157.167 148.279 139.029 179.386 120.981C181.018 119.984 183.285 120.165 185.825 121.616L92.3229 175.94C89.7835 174.488 87.5163 174.307 85.8838 175.305Z" fill="#789908"/>
<path d="M185.734 140.298C182.469 138.394 179.839 133.859 179.839 130.141L84.5235 180.474C84.5235 184.192 86.428 191.901 92.2322 194.712L153.72 230.172L247.222 175.849L185.734 140.298Z" fill="#789908"/>
<path d="M153.72 230.172L247.222 175.758V179.386L153.63 233.8L153.72 230.172Z" fill="url(#paint5_linear_83_200)"/>
<path d="M152.632 211.49L242.234 159.434V174.67L152.541 226.635L152.632 211.49Z" fill="#C7DFF2"/>
<path d="M152.632 211.49V226.635L94.5901 193.171C91.3253 191.266 88.6953 186.732 88.6953 183.013V181.381C88.6953 177.663 91.3253 176.121 94.5901 178.025L152.632 211.49Z" fill="#E6F4FF"/>
<path d="M153.72 211.4L247.313 156.985L247.222 160.613L153.72 214.936V211.4Z" fill="url(#paint6_linear_83_200)"/>
<path opacity="0.4" d="M153.72 230.626L247.222 176.212V175.758L153.72 230.172L153.63 233.8H153.72V230.626Z" fill="white"/>
<path opacity="0.4" d="M153.72 211.853L247.313 157.439V156.985L153.72 211.4V214.936V211.853Z" fill="white"/>
<path d="M153.72 211.4V215.027L150.183 213.032L92.2322 179.567C88.9673 177.663 86.3373 179.204 86.3373 182.923V184.555C86.3373 188.273 88.9673 192.899 92.2322 194.712L153.72 230.172V233.8L92.2322 198.34C87.2442 195.438 83.2538 188.455 83.2538 182.741V181.109C83.2538 175.395 87.3349 173.037 92.3229 175.94L153.72 211.4Z" fill="url(#paint7_linear_83_200)"/>
<g opacity="0.5">
<path opacity="0.5" d="M83.2538 181.562C83.2538 175.849 87.3349 173.491 92.3229 176.393L153.72 211.853V211.4L92.3229 175.94C87.3349 173.037 83.2538 175.395 83.2538 181.109V182.741V181.562Z" fill="#789908"/>
<path opacity="0.5" d="M86.3373 184.555V185.009C86.3373 188.727 88.9673 193.352 92.2322 195.166L153.72 230.626V230.172L92.2322 194.712C88.9673 192.808 86.3373 188.273 86.3373 184.555Z" fill="#789908"/>
</g>
<path d="M92.3229 175.939L185.825 121.525L247.313 156.985L153.72 211.399L92.3229 175.939Z" fill="url(#paint8_linear_83_200)"/>
<path d="M83.7073 201.333C90.8718 198.612 90.6904 191.72 97.6736 188.092L107.74 193.987C100.757 197.615 100.938 204.598 93.7739 207.228L92.5043 201.696L83.7073 201.333Z" fill="url(#paint9_linear_83_200)"/>
<path d="M208.517 142.632C208.517 147.075 197.634 150.612 184.303 150.612C170.881 150.612 160.089 146.985 160.089 142.632C160.089 138.188 170.971 134.56 184.303 134.56C197.725 134.56 208.517 138.188 208.517 142.632Z" fill="#4A8F53"/>
<path d="M205.071 115.697C203.711 81.7783 147.301 82.5039 146.032 116.15C144.399 156.417 206.703 155.963 205.071 115.697C205.071 116.966 204.98 114.608 205.071 115.697Z" fill="url(#paint10_radial_83_200)"/>
<path d="M201.262 103C196.909 96.1981 189.382 92.2077 181.31 90.938C178.045 94.3843 176.05 98.9188 175.597 104.179C183.577 108.804 193.281 107.172 201.262 103Z" fill="#B8312C"/>
<path d="M175.506 104.179C171.516 88.3987 183.396 73.8883 208.336 75.0672C208.789 86.4035 193.191 107.444 175.506 104.179Z" fill="url(#paint11_linear_83_200)"/>
<path d="M175.506 104.179C193.191 107.444 208.88 86.4035 208.336 75.0672C184.575 83.9549 175.506 104.179 175.506 104.179Z" fill="url(#paint12_linear_83_200)"/>
<path d="M207.248 75.43C184.212 84.499 175.506 104.179 175.506 104.179" stroke="#529C5A" stroke-width="0.5" stroke-miterlimit="10" stroke-linecap="round"/>
<path d="M178.68 98.6468C178.68 98.6468 177.683 92.9333 178.227 88.308" stroke="#529C5A" stroke-width="0.5" stroke-miterlimit="10" stroke-linecap="round"/>
<path d="M185.028 90.666C185.028 90.666 184.756 84.9525 185.663 80.8714" stroke="#529C5A" stroke-width="0.5" stroke-miterlimit="10" stroke-linecap="round"/>
<path d="M192.284 83.9549C192.284 83.9549 192.556 80.2366 193.372 77.6973" stroke="#529C5A" stroke-width="0.5" stroke-miterlimit="10" stroke-linecap="round"/>
<path d="M198.36 79.8738C198.36 79.8738 199.358 77.8786 200.083 76.6996" stroke="#529C5A" stroke-width="0.5" stroke-miterlimit="10" stroke-linecap="round"/>
<path d="M196.637 80.9621C196.637 80.9621 202.985 80.8714 205.887 80.418" stroke="#529C5A" stroke-width="0.5" stroke-miterlimit="10" stroke-linecap="round"/>
<path d="M189.11 86.6756C189.11 86.6756 196.274 86.5849 201.262 85.9501" stroke="#529C5A" stroke-width="0.5" stroke-miterlimit="10" stroke-linecap="round"/>
<path d="M181.219 95.1098C181.219 95.1098 189.11 94.475 195.004 93.296" stroke="#529C5A" stroke-width="0.5" stroke-miterlimit="10" stroke-linecap="round"/>
<path d="M174.871 104.814C174.871 104.814 170.881 94.6563 165.893 90.8473C166.8 89.3963 168.523 88.1266 169.974 88.9429C171.606 90.7567 174.418 99.1909 176.05 104.814C175.869 105.539 175.052 105.176 174.871 104.814Z" fill="#573929"/>
<path d="M255.656 189.996C259.193 187.911 260.463 183.376 258.468 179.748C256.382 176.121 251.847 174.942 248.31 176.937L238.425 182.56L245.862 195.529L255.656 189.996Z" fill="#FA676A"/>
<path d="M190.541 216.841L185.099 213.667L182.288 217.566L185.009 224.55L190.541 227.814L193.352 223.915L190.541 216.841Z" fill="#186ED6"/>
<path d="M185.553 224.187L182.923 217.566L185.281 214.392L190.087 217.204L192.627 223.824L190.359 226.998L185.553 224.187Z" fill="#F6D1AA"/>
<path d="M187.82 219.108C188.545 219.562 189.18 220.65 189.18 221.466C189.18 222.373 188.545 222.736 187.82 222.282C187.094 221.829 186.46 220.741 186.46 219.924C186.46 219.017 187.004 218.655 187.82 219.108Z" fill="#41413F"/>
<path d="M193.352 223.915L247.041 192.717L244.229 196.617L190.541 227.814L193.352 223.915Z" fill="#1C83FF"/>
<path d="M190.541 216.841L244.229 185.643L247.041 192.717L193.352 223.915L190.541 216.841Z" fill="#29A2FF"/>
<path d="M185.099 213.667L238.788 182.469L244.229 185.643L190.541 216.841L185.099 213.667Z" fill="#52B4FF"/>
<path d="M246.225 193.08L252.301 189.634L249.58 193.533L243.504 196.98L246.225 193.08Z" fill="#86B0D1"/>
<path d="M243.504 186.006L249.58 182.469L252.301 189.634L246.225 193.08L243.504 186.006Z" fill="#ACCFEB"/>
<path d="M237.972 182.832L244.048 179.295L249.58 182.469L243.504 186.006L237.972 182.832Z" fill="#D9EEFF"/>
<path d="M178.479 222.373C179.204 223.371 179.839 224.55 180.383 225.91C180.927 227.18 181.29 228.54 181.472 229.991L171.133 232.44L178.479 222.373Z" fill="#41413F"/>
<path d="M190.541 227.724L181.381 229.9C181.2 228.54 180.837 227.18 180.293 225.819C179.748 224.55 179.114 223.371 178.388 222.282L185.008 213.576C185.915 213.304 187.639 213.123 188.999 213.667C190.359 214.211 190.994 215.39 190.994 215.39C190.994 215.39 191.992 215.39 192.627 216.206C193.171 217.022 193.171 218.473 192.899 218.655C194.259 219.29 195.438 221.375 194.531 223.008C194.803 224.005 193.352 225.366 192.989 225.547C193.08 226.091 192.445 226.726 190.541 227.724Z" fill="url(#paint13_linear_83_200)"/>
<path d="M136.002 146.449V158.238L132.737 156.425L132.828 144.635L136.002 146.449Z" fill="#29A2FF"/>
<path d="M145.796 152.071L145.706 163.861L130.47 172.749V160.959L145.796 152.071Z" fill="#1C83FF"/>
<path d="M129.563 161.503V173.293L112.966 182.906V171.116L129.563 161.503Z" fill="#1C83FF"/>
<path d="M130.742 162.138L129.563 161.503V173.293L130.742 173.928C132.828 175.107 133.916 176.286 133.916 177.374V165.584C133.916 164.496 132.828 163.408 130.742 162.138Z" fill="#186DD4"/>
<path d="M147.338 152.978L145.706 152.071V163.861L147.338 164.768C148.698 165.584 149.424 166.31 149.424 167.126V155.336C149.424 154.611 148.698 153.795 147.338 152.978Z" fill="#186DD4"/>
<path d="M157.586 161.322V173.112C157.586 174.563 156.498 175.923 154.321 177.102C149.787 179.732 144.345 179.732 137.997 177.102V165.312C144.345 167.942 149.787 167.942 154.321 165.312C156.498 164.133 157.586 162.773 157.586 161.322Z" fill="url(#paint14_linear_83_200)"/>
<path d="M139.267 176.195C135.639 178.281 131.83 179.006 127.658 178.19C123.486 177.465 118.861 175.651 113.692 172.658L99 164.224V176.014L113.692 184.448C118.771 187.441 123.486 189.254 127.658 189.98C131.83 190.706 135.73 190.071 139.267 187.985C141.534 186.715 142.622 185.173 142.622 183.541C142.622 179.641 142.622 175.651 142.622 171.751C142.713 173.384 141.534 174.835 139.267 176.195Z" fill="url(#paint15_linear_83_200)"/>
<path d="M137.997 165.312C143.71 169.665 144.164 173.293 139.267 176.104C135.639 178.19 131.83 178.916 127.658 178.1C123.486 177.374 118.861 175.56 113.692 172.567L99 164.133L99.9069 163.589L103.172 165.494L136.002 146.449L132.737 144.544L133.644 144L148.517 152.616C153.142 155.246 155.954 157.604 157.042 159.689C158.13 161.775 157.223 163.589 154.231 165.312C149.877 168.033 144.436 168.033 137.997 165.312ZM127.658 171.026L130.288 169.484C132.465 168.214 133.644 167.035 133.825 165.856C134.007 164.677 133.009 163.498 130.651 162.138L129.472 161.503L112.876 171.116L115.234 172.477C117.047 173.565 118.952 173.928 120.947 173.565C123.033 173.293 125.21 172.477 127.658 171.026ZM145.796 152.071L130.56 160.959L131.83 161.685C133.553 162.682 135.276 163.045 136.999 162.864C138.722 162.682 140.627 161.957 142.803 160.687L145.161 159.327C147.61 157.876 149.061 156.787 149.424 155.79C149.787 154.883 149.152 153.976 147.429 152.978L145.796 152.071Z" fill="#33B5FF"/>
<path d="M159 163.236L169.362 157.22L171.769 158.624L161.407 164.64L159 163.236Z" fill="#FFD03D"/>
<path d="M162.944 165.509L173.373 159.493L177.184 161.699L166.755 167.715L162.944 165.509Z" fill="#FFA10D"/>
<path d="M166.755 167.715L177.184 161.699V162.835L166.755 168.852V167.715Z" fill="#F06F0C"/>
<path d="M166.888 155.214L177.317 149.198L173.373 159.493L162.944 165.509L166.888 155.214Z" fill="#FF860D"/>
<path d="M177.05 173.665L187.412 167.649L191.022 169.721L180.66 175.738L177.05 173.665Z" fill="#FF860D"/>
<path d="M167.356 154.144L177.785 148.128L186.944 153.476L176.582 159.493L167.356 154.144Z" fill="#FFA10D"/>
<path d="M191.289 181.888L201.651 175.871L203.991 177.208L193.629 183.225L191.289 181.888Z" fill="#FFD03D"/>
<path d="M193.629 183.225L203.991 177.208V178.345L193.629 184.362V183.225Z" fill="#FFA10D"/>
<path d="M172.17 141.643L182.599 135.627L177.785 148.128L167.356 154.145L172.17 141.643Z" fill="#FF860D"/>
<path d="M174.443 132.017L184.805 126L189.016 128.407L178.654 134.423L174.443 132.017Z" fill="#FFD03D"/>
<path d="M191.289 181.888L193.629 183.225V184.361L177.05 174.802V173.665L180.66 175.738L176.983 161.03L166.955 155.214L163.011 165.576L166.822 167.782V168.919L159.067 164.44V163.303L161.473 164.707L174.51 132.083L178.654 134.49L191.289 181.888ZM167.356 154.144L176.515 159.426L172.17 141.576L167.356 154.144Z" fill="url(#paint16_linear_83_200)"/>
<path d="M178.654 134.423L189.016 128.407L201.651 175.871L191.289 181.888L178.654 134.423Z" fill="#FFA10D"/>
<defs>
<linearGradient id="paint0_linear_83_200" x1="172.906" y1="22.8346" x2="152.176" y2="23.7137" gradientUnits="userSpaceOnUse">
<stop stop-color="#7B9F00"/>
<stop offset="1" stop-color="#AFCE44"/>
</linearGradient>
<linearGradient id="paint1_linear_83_200" x1="210.99" y1="21.3871" x2="172.125" y2="24.1558" gradientUnits="userSpaceOnUse">
<stop stop-color="#7B9F00"/>
<stop offset="1" stop-color="#AFCE44"/>
</linearGradient>
<linearGradient id="paint2_linear_83_200" x1="196.13" y1="81.1782" x2="185.343" y2="113.341" gradientUnits="userSpaceOnUse">
<stop stop-color="#52A866"/>
<stop offset="1" stop-color="#86D166"/>
</linearGradient>
<linearGradient id="paint3_linear_83_200" x1="257.613" y1="47.8579" x2="197.282" y2="68.4343" gradientUnits="userSpaceOnUse">
<stop stop-color="#7B9F00"/>
<stop offset="1" stop-color="#AFCE44"/>
</linearGradient>
<linearGradient id="paint4_linear_83_200" x1="90.6238" y1="72.5708" x2="140.8" y2="183.412" gradientUnits="userSpaceOnUse">
<stop stop-color="#FE92AF"/>
<stop offset="1" stop-color="#F9648B"/>
</linearGradient>
<linearGradient id="paint5_linear_83_200" x1="259.853" y1="179.026" x2="176.168" y2="204.521" gradientUnits="userSpaceOnUse">
<stop stop-color="#7B9F00"/>
<stop offset="1" stop-color="#AFCE44"/>
</linearGradient>
<linearGradient id="paint6_linear_83_200" x1="259.944" y1="160.248" x2="176.281" y2="185.776" gradientUnits="userSpaceOnUse">
<stop stop-color="#7B9F00"/>
<stop offset="1" stop-color="#AFCE44"/>
</linearGradient>
<linearGradient id="paint7_linear_83_200" x1="163.23" y1="178.023" x2="97.7001" y2="192.784" gradientUnits="userSpaceOnUse">
<stop stop-color="#7B9F00"/>
<stop offset="1" stop-color="#AFCE44"/>
</linearGradient>
<linearGradient id="paint8_linear_83_200" x1="268.23" y1="126.586" x2="131.318" y2="171.193" gradientUnits="userSpaceOnUse">
<stop stop-color="#7B9F00"/>
<stop offset="1" stop-color="#AFCE44"/>
</linearGradient>
<linearGradient id="paint9_linear_83_200" x1="83.6642" y1="197.653" x2="107.721" y2="197.653" gradientUnits="userSpaceOnUse">
<stop stop-color="#FFD03D"/>
<stop offset="1" stop-color="#FFA51C"/>
</linearGradient>
<radialGradient id="paint10_radial_83_200" cx="0" cy="0" r="1" gradientUnits="userSpaceOnUse" gradientTransform="translate(157.341 107.286) scale(44.6614 44.6614)">
<stop stop-color="#ED5B2F"/>
<stop offset="1" stop-color="#D93A34"/>
</radialGradient>
<linearGradient id="paint11_linear_83_200" x1="212.88" y1="76.6622" x2="181.501" y2="83.4096" gradientUnits="userSpaceOnUse">
<stop stop-color="#7B9F00"/>
<stop offset="1" stop-color="#AFCE44"/>
</linearGradient>
<linearGradient id="paint12_linear_83_200" x1="212.782" y1="76.7256" x2="182.054" y2="83.1998" gradientUnits="userSpaceOnUse">
<stop stop-color="#7B9F00"/>
<stop offset="1" stop-color="#AFCE44"/>
</linearGradient>
<linearGradient id="paint13_linear_83_200" x1="184.637" y1="218.161" x2="189.739" y2="228.579" gradientUnits="userSpaceOnUse">
<stop stop-color="#F6E7C4"/>
<stop offset="1" stop-color="#F6B391"/>
</linearGradient>
<linearGradient id="paint14_linear_83_200" x1="137.638" y1="166.981" x2="156.516" y2="171.543" gradientUnits="userSpaceOnUse">
<stop stop-color="#29A2FF"/>
<stop offset="1" stop-color="#186DD4"/>
</linearGradient>
<linearGradient id="paint15_linear_83_200" x1="107.532" y1="176.446" x2="138.83" y2="180.042" gradientUnits="userSpaceOnUse">
<stop stop-color="#52B4FF"/>
<stop offset="1" stop-color="#186DD4"/>
</linearGradient>
<linearGradient id="paint16_linear_83_200" x1="169.418" y1="140.677" x2="177.812" y2="180.953" gradientUnits="userSpaceOnUse">
<stop stop-color="#FFD03D"/>
<stop offset="1" stop-color="#FFA51C"/>
</linearGradient>
</defs>
</svg>
