<svg width="271" height="171" viewBox="0 0 271 171" fill="none" xmlns="http://www.w3.org/2000/svg">
<path d="M87.5055 114.682C76.5684 109.02 62.6719 108.763 50.3194 106.833C38.8676 105.032 18.0228 97.0539 9.65912 88.3042C-4.75213 73.3783 -3.85143 40.6956 17.8941 30.2732C42.8564 18.3067 74.2524 29.2438 101.402 32.8467C143.22 38.3795 152.228 6.08292 192.888 0.550028C208.457 -1.63739 230.589 3.12347 238.18 18.9501C247.831 39.0229 234.964 62.1838 249.503 81.2273C254.908 88.3042 290.035 118.285 254.136 130.123C241.268 134.369 228.144 137.071 215.019 140.288C202.41 143.247 190.186 146.85 178.863 153.283C163.808 161.776 147.081 174.514 129.71 166.022C107.45 154.699 107.964 125.104 87.5055 114.682Z" fill="#FFE8BE"/>
<path d="M20.2102 170.397C19.9529 170.397 19.6955 170.268 19.5669 170.139C19.1808 169.753 19.1808 169.11 19.5669 168.724L58.8118 129.479C59.1978 129.093 59.8411 129.093 60.2272 129.479C60.6132 129.865 60.6132 130.509 60.2272 130.895L20.9823 170.139C20.7249 170.268 20.4676 170.397 20.2102 170.397Z" fill="white"/>
<path d="M199.707 51.3754C199.45 51.3754 199.193 51.2467 199.064 51.118C198.678 50.732 198.678 50.0887 199.064 49.7026C200.737 48.0299 239.724 7.88431 243.198 5.56821C243.713 5.31087 244.228 5.43954 244.614 5.82555C244.871 6.34024 244.742 6.85493 244.356 7.24095C241.654 9.04236 211.802 39.4089 200.608 50.9894C200.222 51.2467 199.965 51.3754 199.707 51.3754Z" fill="white"/>
<path d="M187.086 60.558L169.538 134.458L167.226 144.18L163.658 159.209C161.957 166.376 154.765 170.81 147.593 169.102L86.3245 154.555C79.1577 152.853 74.7235 145.662 76.4313 138.489L94.9246 60.6189L99.859 39.8323C100.048 39.0333 100.31 38.2587 100.634 37.5329C103.171 31.7507 109.557 28.4265 115.925 29.9392L177.193 44.4861C184.359 46.2001 188.788 53.3912 187.086 60.558Z" fill="#FAB505"/>
<g opacity="0.3">
<path d="M186.971 60.2164L169.429 134.116L167.123 143.839L163.549 158.874C161.847 166.04 154.656 170.468 147.483 168.767L86.2152 154.22C82.0006 153.213 78.7252 150.316 77.0967 146.638C77.3712 146.949 77.6517 147.254 77.9506 147.535C77.487 146.15 77.7066 144.973 77.7066 144.973C90.4543 141.899 97.865 129.286 97.865 129.286L104.477 140.118L148.398 150.377L103.171 143.534C98.7677 149.761 91.8937 151.359 87.673 151.725L145.349 165.418C152.521 167.12 159.713 162.692 161.414 155.525L164.988 140.49L167.294 130.768L184.836 56.8678C185.537 53.9157 185.202 50.9636 184.061 48.3897C186.781 51.5187 188.001 55.8675 186.971 60.2164Z" fill="#8C5C20"/>
</g>
<g opacity="0.55">
<path d="M185.878 50.8478C184.127 48.9143 181.803 47.4749 179.077 46.8223L117.797 32.2692C110.63 30.5675 103.439 35.0017 101.737 42.1684L78.3095 140.826C77.4922 144.278 78.096 147.742 79.7428 150.591C76.8944 147.443 75.5953 142.991 76.6504 138.551L100.078 39.8934C101.78 32.7266 108.971 28.2924 116.138 30.0002L177.412 44.5472C181.126 45.4316 184.103 47.786 185.878 50.8478Z" fill="white"/>
</g>
<path d="M150.679 170.542C149.581 170.542 148.465 170.414 147.349 170.151L86.0749 155.598C78.347 153.762 73.5529 145.98 75.3888 138.252L98.8164 39.5945C99.7069 35.8495 102 32.6778 105.276 30.6589C108.551 28.64 112.418 28.0179 116.163 28.9084L177.437 43.4615C181.182 44.352 184.354 46.6453 186.373 49.9207C188.392 53.1961 189.014 57.063 188.123 60.8081L164.696 159.459C163.122 166.077 157.199 170.542 150.679 170.542ZM147.843 168.071C154.424 169.633 161.054 165.552 162.622 158.965L186.049 60.3079C186.806 57.1179 186.275 53.8243 184.555 51.0369C182.835 48.2434 180.133 46.2916 176.943 45.5353L115.669 30.9822C112.479 30.2259 109.185 30.7565 106.398 32.4765C103.604 34.1965 101.653 36.8986 100.896 40.0885L77.4687 138.746C75.9072 145.327 79.9877 151.957 86.575 153.524L147.843 168.071Z" fill="#8C5C20"/>
<path d="M100.457 116.556C100.457 133.067 87.0753 146.443 70.5705 146.443C67.5513 146.443 64.6358 145.992 61.8911 145.156L42.55 150.578L47.8808 135.995C43.3917 130.774 40.6836 123.979 40.6836 116.55C40.6836 100.045 54.0656 86.6694 70.5644 86.6694C87.0631 86.6694 100.457 100.057 100.457 116.556Z" fill="#19AFF9"/>
<path d="M63.7403 130.461L50.8203 117.541L56.3027 112.058L63.7403 119.496L81.6969 101.539L87.1793 107.022L63.7403 130.461Z" fill="#FDDE8E"/>
<path d="M60.9569 127.677L50.8203 117.541L56.3027 112.058L63.7403 119.496L81.6969 101.539L84.3958 104.238L60.9569 127.677Z" fill="#FAB505"/>
<path d="M63.5637 131.458L63.7405 131.635L63.9173 131.458L88.1767 107.198L88.3535 107.022L88.1767 106.845L81.8738 100.542L81.697 100.365L81.5203 100.542L63.7405 118.322L56.4797 111.061L56.3029 110.884L56.1261 111.061L49.8232 117.364L49.6464 117.541L49.8232 117.717L63.5637 131.458ZM63.9173 120.493L81.6971 102.713L86.0055 107.022L63.7406 129.287L51.9946 117.541L56.3029 113.232L63.5637 120.493L63.7405 120.67L63.9173 120.493Z" fill="#8C5C20" stroke="#8C5C20" stroke-width="0.5"/>
<path d="M63.692 128.698L62.1074 127.114L62.928 126.293L63.692 127.057L66.8047 123.944L67.6251 124.765L63.692 128.698Z" fill="white"/>
<path d="M67.3924 123.357L68.2129 124.178L69.3872 123.004L68.5667 122.183L67.3924 123.357Z" fill="white"/>
<g opacity="0.65">
<path d="M83.3486 89.5422C80.3172 88.5053 77.0663 87.9441 73.6872 87.9441C57.1824 87.9441 43.8065 101.326 43.8065 117.825C43.8065 125.254 46.5146 132.049 51.0037 137.276L46.5512 149.462L42.55 150.585L47.8808 136.001C43.3917 130.78 40.6836 123.979 40.6836 116.55C40.6836 100.045 54.0595 86.6694 70.5705 86.6694C75.1389 86.6755 79.4755 87.7063 83.3486 89.5422Z" fill="white"/>
</g>
<g opacity="0.3">
<path d="M100.456 116.562C100.456 133.067 87.0744 146.449 70.5695 146.449C67.5503 146.449 64.6409 145.998 61.8901 145.162H61.884L42.543 150.591L44.5192 145.187L59.5968 140.234C62.3781 140.947 65.3058 141.265 68.325 141.137C84.8115 140.411 97.5958 126.455 96.87 109.963C96.6687 105.419 95.4671 101.155 93.4848 97.3798C97.8398 102.57 100.456 109.261 100.456 116.562Z" fill="#8C5C20"/>
</g>
<path d="M42.5488 151.652C42.256 151.652 41.9693 151.53 41.7681 151.31C41.4936 151.018 41.4143 150.597 41.5485 150.219L46.6659 136.221C42.1157 130.701 39.6211 123.741 39.6211 116.556C39.6211 99.4902 53.5032 85.6081 70.5692 85.6081C87.6353 85.6081 101.523 99.4902 101.523 116.556C101.523 133.622 87.6353 147.511 70.5692 147.511C67.6111 147.511 64.6895 147.096 61.8777 146.272L42.8355 151.615C42.7379 151.64 42.6403 151.652 42.5488 151.652ZM70.5692 87.7429C54.6804 87.7429 41.7559 100.667 41.7559 116.556C41.7559 123.442 44.22 130.103 48.6908 135.312C48.9409 135.605 49.0141 136.013 48.886 136.373L44.2688 148.999L61.6032 144.138C61.7984 144.083 62.0118 144.083 62.207 144.144C64.909 144.967 67.7208 145.382 70.5753 145.382C86.4642 145.382 99.3948 132.451 99.3948 116.562C99.3887 100.667 86.4581 87.7429 70.5692 87.7429Z" fill="#8C5C20"/>
<path d="M108.039 43.0649L90.4297 117.221L104.001 139.465L153.21 151.152C155.107 151.603 157.01 150.432 157.462 148.529L178.535 59.8077L108.039 43.0649Z" fill="white"/>
<path d="M154.033 151.402C153.747 151.402 153.46 151.371 153.173 151.298L103.903 139.6L90.2646 117.252L90.2769 117.191L107.922 42.8881L108.069 42.9247L178.711 59.698L178.675 59.8443L157.602 148.566C157.376 149.523 156.79 150.334 155.949 150.853C155.369 151.213 154.704 151.402 154.033 151.402ZM104.092 139.331L153.241 151.005C154.119 151.213 155.028 151.066 155.796 150.597C156.565 150.121 157.101 149.377 157.309 148.499L178.346 59.9236L108.148 43.2541L90.5879 117.197L104.092 139.331Z" fill="#8C5C20"/>
<path d="M154.033 152.347C153.673 152.347 153.314 152.305 152.954 152.219L103.744 140.533C103.457 140.466 103.213 140.289 103.061 140.039L89.4899 117.794C89.3374 117.544 89.2947 117.252 89.3618 116.971L106.971 42.815C107.038 42.5344 107.215 42.2843 107.465 42.1318C107.715 41.9793 108.014 41.9305 108.294 41.9976L178.785 58.7404C179.065 58.8075 179.315 58.9844 179.468 59.2344C179.62 59.4845 179.669 59.7834 179.602 60.0639L158.529 148.785C158.242 149.987 157.504 151.005 156.455 151.658C155.711 152.109 154.881 152.347 154.033 152.347ZM104.696 138.502L153.46 150.084C154.094 150.237 154.747 150.127 155.302 149.792C155.857 149.456 156.241 148.913 156.394 148.279L177.211 60.6251L108.855 44.3886L91.6003 117.032L104.696 138.502Z" fill="#8C5C20"/>
<path d="M103.994 140.533C103.628 140.533 103.28 140.344 103.085 140.02L89.5136 117.776C89.2879 117.41 89.3062 116.94 89.5624 116.593C89.8125 116.245 90.2516 116.08 90.6725 116.184L103.786 119.301C105.329 119.667 106.635 120.612 107.464 121.96C108.294 123.308 108.55 124.9 108.184 126.443L105.03 139.715C104.933 140.136 104.585 140.453 104.158 140.521C104.109 140.527 104.054 140.533 103.994 140.533ZM92.6731 118.85L103.56 136.69L106.116 125.937C106.348 124.949 106.189 123.93 105.653 123.07C105.122 122.21 104.286 121.6 103.298 121.369L92.6731 118.85Z" fill="#8C5C20"/>
<g opacity="0.3">
<path d="M90.2842 117.361L103.855 139.606L107.009 126.333C107.631 123.723 106.014 121.1 103.404 120.478L90.2842 117.361Z" fill="#262F6A"/>
<path d="M103.921 140.002L89.9658 117.13L103.439 120.332C104.745 120.643 105.849 121.442 106.55 122.582C107.251 123.723 107.471 125.071 107.16 126.37L103.921 140.002ZM90.6063 117.599L103.793 139.209L106.861 126.297C107.154 125.071 106.946 123.808 106.288 122.741C105.629 121.667 104.592 120.917 103.366 120.631L90.6063 117.599Z" fill="#8C5C20"/>
</g>
<g opacity="0.3">
<path d="M115.576 132.963L113.496 141.71L108.988 140.612L104.268 139.465L105.365 134.671L107.348 126.016L111.965 127.114C114.582 127.73 116.198 130.353 115.576 132.963Z" fill="#8C5C20"/>
</g>
<g opacity="0.3">
<path d="M105.79 52.5798L175.96 69.2479L177.616 62.2753L107.446 45.6073L105.79 52.5798Z" fill="#8C5C20"/>
</g>
<path d="M180.529 54.0561C179.017 51.592 176.559 49.7134 173.527 48.9937L166.422 47.3041C157.962 45.2974 154.918 41.278 155.656 32.1045C156.284 28.146 153.765 24.3095 149.801 23.3702C146.037 22.4736 142.268 24.4986 140.853 27.9692C140.847 27.9875 140.835 28.0058 140.829 28.0241C137.334 36.9718 132.802 39.3201 124.177 37.2707L117.181 35.6117C111.113 34.1722 105.025 37.9233 103.586 43.9861L181.908 62.5891C182.621 59.5577 182.042 56.5142 180.529 54.0561ZM146.666 36.74C144.641 36.2582 143.39 34.2332 143.872 32.2082C144.354 30.1832 146.379 28.9329 148.404 29.4147C150.429 29.8966 151.679 31.9215 151.198 33.9465C150.716 35.9715 148.691 37.2219 146.666 36.74Z" fill="#B5B4BF"/>
<path d="M182.011 62.7721L181.865 62.7355L103.396 44.1019L103.433 43.9555C104.891 37.8135 111.069 34.0075 117.212 35.4652L124.207 37.1243C132.814 39.1676 137.285 36.6912 140.682 27.9691L140.706 27.9081C142.182 24.2851 146.019 22.315 149.831 23.2177C153.82 24.1631 156.443 28.0789 155.796 32.1228C155.076 41.0584 157.961 45.1388 166.452 47.1516L173.557 48.8411C176.534 49.5487 179.053 51.3724 180.657 53.9768C182.261 56.5751 182.755 59.6492 182.048 62.6196L182.011 62.7721ZM103.762 43.8763L181.785 62.4061C182.42 59.5577 181.932 56.63 180.395 54.1415C178.833 51.6102 176.381 49.8353 173.484 49.1461L166.378 47.4566C157.711 45.395 154.759 41.2352 155.491 32.0923C156.113 28.1887 153.594 24.4315 149.758 23.5166C146.153 22.6627 142.384 24.5962 140.987 28.024L140.962 28.0789C137.492 36.9718 132.93 39.503 124.134 37.4109L117.138 35.7519C111.21 34.3491 105.245 37.9843 103.762 43.8763ZM147.538 36.9962C147.239 36.9962 146.934 36.9596 146.635 36.8925C145.616 36.6485 144.756 36.0264 144.207 35.1359C143.658 34.2454 143.488 33.1963 143.732 32.1777C144.232 30.0795 146.348 28.7742 148.446 29.2744C150.545 29.7745 151.85 31.891 151.35 33.9892C150.923 35.7824 149.306 36.9962 147.538 36.9962ZM147.538 29.4635C145.903 29.4635 144.421 30.5797 144.024 32.2387C143.799 33.178 143.957 34.1478 144.463 34.9651C144.97 35.7885 145.763 36.3618 146.702 36.5814C148.642 37.045 150.587 35.8373 151.051 33.9038C151.508 31.9642 150.307 30.0185 148.373 29.555C148.093 29.494 147.812 29.4635 147.538 29.4635Z" fill="#8C5C20"/>
<g opacity="0.55">
<path d="M151.002 31.6104C151.307 32.324 151.392 33.1353 151.197 33.9465C150.715 35.9715 148.69 37.2218 146.665 36.74C146.238 36.6363 145.842 36.4655 145.494 36.2398C145.946 37.3011 146.879 38.1489 148.093 38.4356C150.118 38.9175 152.143 37.6671 152.625 35.6421C153.003 34.0441 152.307 32.446 151.002 31.6104ZM149.794 23.3702C146.031 22.4736 142.256 24.4986 140.841 27.9691C140.834 27.9874 140.828 28.0057 140.816 28.024C137.321 36.9718 132.789 39.32 124.159 37.2706L117.163 35.6116C111.094 34.1721 105.013 37.9233 103.567 43.986L105.373 44.413C107.306 39.1004 112.954 35.9654 118.584 37.3072L125.58 38.9662C134.204 41.0156 138.742 38.6674 142.231 29.7196C142.237 29.7013 142.25 29.683 142.256 29.6647C143.671 26.1942 147.44 24.1753 151.203 25.0658C152.496 25.3708 153.637 25.9868 154.564 26.8163C153.539 25.1451 151.868 23.8642 149.794 23.3702Z" fill="white"/>
</g>
<path d="M180.528 54.0561C179.016 51.592 176.558 49.7134 173.526 48.9937L166.421 47.3041C157.961 45.2974 154.917 41.278 155.655 32.1045C156.283 28.146 153.764 24.3095 149.8 23.3702C146.037 22.4736 142.267 24.4986 140.852 27.9692C140.846 27.9875 140.834 28.0058 140.828 28.0241C137.333 36.9718 132.801 39.3201 124.176 37.2707L117.18 35.6117C111.112 34.1722 105.024 37.9233 103.585 43.9861L181.907 62.5891C182.62 59.5577 182.041 56.5142 180.528 54.0561ZM146.665 36.74C144.64 36.2582 143.389 34.2332 143.871 32.2082C144.353 30.1832 146.378 28.9329 148.403 29.4147C150.428 29.8966 151.678 31.9215 151.197 33.9465C150.715 35.9715 148.69 37.2219 146.665 36.74Z" stroke="#8C5C20" stroke-width="2.5" stroke-miterlimit="10" stroke-linecap="round" stroke-linejoin="round"/>
<g opacity="0.25">
<path d="M154.107 49.0118C153.832 50.1707 149.288 50.0914 143.964 48.8228C138.639 47.5602 134.546 45.5901 134.821 44.4312C135.095 43.2723 139.413 44.297 144.738 45.5596C150.069 46.8222 154.381 47.853 154.107 49.0118Z" fill="white"/>
</g>
<path d="M112.094 63.2905L149.111 72.0797" stroke="#8C5C20" stroke-width="2.5" stroke-miterlimit="10" stroke-linecap="round" stroke-linejoin="round"/>
<path d="M102.555 106.505L139.572 115.294" stroke="#8C5C20" stroke-width="2.5" stroke-miterlimit="10" stroke-linecap="round" stroke-linejoin="round"/>
<path d="M109.173 73.2874L157.419 85.0225" stroke="#8C5C20" stroke-width="2.5" stroke-miterlimit="10" stroke-linecap="round" stroke-linejoin="round"/>
<path d="M106.961 83.8759L155.207 95.611" stroke="#8C5C20" stroke-width="2.5" stroke-miterlimit="10" stroke-linecap="round" stroke-linejoin="round"/>
<g opacity="0.25">
<path d="M56.3159 119.935C56.8343 124.925 57.3344 129.255 54.1506 129.591C50.9667 129.926 47.9658 126.151 47.4413 121.161C46.9228 116.172 49.0759 111.86 52.2598 111.53C55.4436 111.195 55.7974 114.946 56.3159 119.935Z" fill="white"/>
</g>
<path d="M211.459 141.021L178.505 99.2584C178.084 98.7216 177.614 98.2337 177.108 97.7884C175.949 96.7637 174.583 95.9891 173.088 95.5194L164.36 92.7625L159.249 91.1462C157.779 90.6827 156.309 91.8415 156.419 93.3786L156.803 98.7277L157.456 107.858C157.559 109.28 157.932 110.664 158.541 111.933C158.889 112.665 159.322 113.354 159.828 113.994L192.649 155.592C196.723 160.758 204.403 161.789 209.544 157.684C212.088 155.653 213.576 152.792 213.93 149.785C214.29 146.76 213.491 143.601 211.459 141.021Z" fill="#FFBE06"/>
<path d="M211.46 141.021L208.447 137.203L189.776 151.939L192.655 155.592C196.73 160.758 204.409 161.789 209.55 157.684C212.094 155.653 213.582 152.793 213.936 149.786C214.29 146.76 213.491 143.601 211.46 141.021Z" fill="#FE4A27"/>
<path d="M202.26 160.368C201.785 160.368 201.309 160.343 200.833 160.289C197.57 159.917 194.545 158.239 192.538 155.69L189.562 151.92L208.476 137.001L211.58 140.935C213.575 143.46 214.465 146.608 214.087 149.81C213.715 152.975 212.135 155.818 209.647 157.806C207.542 159.477 204.962 160.368 202.26 160.368ZM189.988 151.963L192.776 155.494C194.734 157.977 197.686 159.612 200.87 159.978C204.005 160.337 207.054 159.477 209.458 157.556C211.885 155.616 213.422 152.847 213.788 149.761C214.154 146.644 213.288 143.576 211.342 141.112L208.427 137.416L189.988 151.963Z" fill="#8C5C20"/>
<path d="M177.107 97.7885C175.942 96.7638 174.582 95.9892 173.087 95.5196L164.359 92.7627L159.248 91.1463C157.778 90.6828 156.308 91.8417 156.418 93.3787L156.802 98.7278L157.455 107.859C157.558 109.28 157.931 110.664 158.54 111.933C160.962 113.36 165.024 112.97 165.28 108.792C170.038 110.719 173.118 107.895 172.38 103.186C175.838 104.437 178.467 101.021 177.107 97.7885Z" fill="#FFDC9C"/>
<path d="M161.291 112.848C160.327 112.848 159.327 112.586 158.461 112.073L158.394 112C157.766 110.701 157.394 109.31 157.29 107.871L156.253 93.3909C156.198 92.6163 156.527 91.8661 157.137 91.3842C157.747 90.9024 158.552 90.756 159.297 90.9877L173.136 95.3671C174.649 95.8428 176.021 96.6236 177.21 97.6726L177.253 97.7336C177.954 99.3927 177.656 101.253 176.503 102.467C175.503 103.522 174.051 103.876 172.575 103.437C172.868 105.699 172.27 107.596 170.928 108.664C169.568 109.743 167.622 109.871 165.42 109.036C165.231 110.988 164.225 111.921 163.395 112.36C162.785 112.683 162.047 112.848 161.291 112.848ZM158.668 111.811C160.114 112.647 161.95 112.75 163.249 112.055C164.371 111.457 165.018 110.323 165.115 108.773L165.128 108.542L165.341 108.627C167.512 109.505 169.421 109.42 170.727 108.383C172.026 107.352 172.569 105.462 172.215 103.199L172.172 102.924L172.435 103.022C173.868 103.54 175.301 103.241 176.265 102.223C177.32 101.113 177.595 99.4049 176.96 97.8739C175.826 96.8797 174.496 96.1295 173.032 95.666L159.193 91.2866C158.546 91.0853 157.869 91.2073 157.339 91.6282C156.808 92.049 156.527 92.6773 156.576 93.3543L157.613 107.834C157.717 109.231 158.071 110.567 158.668 111.811Z" fill="#390075"/>
<g opacity="0.3">
<path d="M211.459 141.021L178.505 99.2584C178.084 98.7216 177.614 98.2337 177.108 97.7884C175.949 96.7637 174.583 95.9891 173.088 95.5194L164.36 92.7625L159.249 91.1462C157.779 90.6827 156.309 91.8415 156.419 93.3786L156.492 94.4521L160.579 95.7451L169.307 98.502C170.795 98.9717 172.161 99.7463 173.326 100.771C173.833 101.21 174.302 101.704 174.723 102.241L207.678 144.003C209.715 146.583 210.508 149.743 210.154 152.762C209.886 155.019 208.977 157.196 207.464 159.002C208.19 158.642 208.892 158.203 209.55 157.672C212.094 155.641 213.582 152.78 213.936 149.773C214.29 146.76 213.491 143.601 211.459 141.021Z" fill="#8C5C20"/>
</g>
<g opacity="0.65">
<path d="M158.975 91.3597C158.969 91.2621 158.969 91.1707 158.975 91.0731C157.603 90.8291 156.322 91.9392 156.419 93.3725L156.804 98.7217L157.456 107.852C157.56 109.274 157.932 110.658 158.542 111.927C158.89 112.659 159.323 113.348 159.829 113.988L192.649 155.586C196.724 160.752 204.403 161.783 209.545 157.678C209.959 157.343 210.35 156.989 210.71 156.611C205.659 159.563 198.932 158.294 195.205 153.573L178.157 131.963C178.42 126.809 173.87 120.076 168.38 119.575L162.384 111.976C161.878 111.335 161.445 110.64 161.098 109.914C160.488 108.645 160.116 107.267 160.012 105.84L159.359 96.7089L158.975 91.3597Z" fill="white"/>
</g>
<path d="M202.261 161.313C201.748 161.313 201.236 161.283 200.724 161.222C197.21 160.819 193.959 159.014 191.794 156.269L158.974 114.672C157.443 112.732 156.54 110.402 156.363 107.932L155.326 93.4518C155.247 92.3661 155.71 91.3171 156.564 90.6461C157.418 89.9752 158.547 89.7678 159.583 90.0972L173.423 94.4765C175.783 95.2206 177.839 96.6418 179.37 98.5814L212.325 140.344C214.472 143.064 215.435 146.461 215.027 149.914C214.624 153.329 212.922 156.391 210.239 158.538C207.964 160.35 205.182 161.313 202.261 161.313ZM158.583 92.1405C158.345 92.1405 158.114 92.2198 157.918 92.3722C157.632 92.5979 157.485 92.9334 157.51 93.2994L158.547 107.779C158.693 109.804 159.431 111.719 160.694 113.317L193.514 154.915C195.32 157.202 198.04 158.709 200.974 159.044C203.859 159.374 206.658 158.587 208.86 156.824C211.093 155.043 212.508 152.494 212.843 149.657C213.179 146.791 212.38 143.967 210.592 141.704L177.638 99.9415C176.381 98.3496 174.692 97.1785 172.752 96.5686L158.913 92.1893C158.809 92.1527 158.693 92.1405 158.583 92.1405Z" fill="#8C5C20"/>
<path d="M202.61 131.134L185.19 144.876C184.379 145.516 184.245 146.687 184.879 147.498L187.758 151.152C188.398 151.963 189.569 152.097 190.38 151.463L207.8 137.721C208.611 137.081 208.746 135.909 208.111 135.098L205.232 131.445C204.592 130.634 203.415 130.493 202.61 131.134Z" fill="#B5B4BF"/>
<path d="M189.234 152.012C189.155 152.012 189.075 152.006 188.996 152C188.459 151.939 187.984 151.67 187.648 151.243L184.769 147.59C184.434 147.169 184.287 146.638 184.348 146.102C184.409 145.565 184.678 145.089 185.105 144.754L202.525 131.012C202.945 130.676 203.476 130.53 204.013 130.591C204.55 130.652 205.025 130.92 205.361 131.347L208.24 135.001C208.575 135.422 208.722 135.952 208.661 136.489C208.6 137.026 208.331 137.501 207.904 137.837L190.484 151.579C190.118 151.865 189.685 152.012 189.234 152.012ZM203.763 130.884C203.378 130.884 203.006 131.012 202.701 131.25L185.282 144.991C184.922 145.278 184.696 145.681 184.641 146.138C184.586 146.596 184.714 147.041 185.001 147.401L187.88 151.054C188.167 151.414 188.569 151.64 189.027 151.695C189.484 151.75 189.929 151.621 190.289 151.335L207.709 137.593C208.069 137.306 208.295 136.904 208.349 136.446C208.404 135.989 208.276 135.544 207.99 135.184L205.111 131.53C204.824 131.17 204.421 130.945 203.964 130.89C203.897 130.89 203.83 130.884 203.763 130.884Z" fill="#8C5C20"/>
<g opacity="0.3">
<path d="M208.111 135.092L205.226 131.439C204.585 130.627 203.414 130.493 202.603 131.128L198.053 134.714C198.864 134.074 200.035 134.214 200.675 135.025L203.56 138.679C204.201 139.49 204.061 140.661 203.249 141.301L207.8 137.715C208.611 137.075 208.751 135.903 208.111 135.092Z" fill="#8C5C20"/>
</g>
<g opacity="0.65">
<path d="M187.342 143.174L185.189 144.875C184.378 145.516 184.244 146.687 184.878 147.498L187.763 151.152C188.403 151.963 189.574 152.097 190.386 151.463L192.539 149.761C191.727 150.402 190.556 150.261 189.916 149.45L187.031 145.796C186.397 144.991 186.531 143.814 187.342 143.174Z" fill="white"/>
</g>
<path d="M189.232 152.957C189.116 152.957 188.994 152.951 188.878 152.939C188.092 152.847 187.39 152.451 186.896 151.829L184.017 148.175C183.529 147.553 183.31 146.779 183.401 145.992C183.493 145.205 183.889 144.504 184.511 144.009L201.931 130.268C202.553 129.78 203.328 129.554 204.115 129.652C204.901 129.743 205.603 130.14 206.097 130.762L208.976 134.415C209.464 135.037 209.683 135.812 209.592 136.599C209.5 137.386 209.104 138.087 208.482 138.581L191.062 152.323C190.537 152.738 189.897 152.957 189.232 152.957ZM203.761 131.829C203.59 131.829 203.425 131.884 203.285 131.994L185.871 145.736C185.713 145.864 185.609 146.047 185.585 146.248C185.56 146.449 185.615 146.657 185.743 146.815L188.622 150.469C188.75 150.627 188.933 150.731 189.135 150.755C189.336 150.78 189.543 150.725 189.702 150.597L207.122 136.855C207.28 136.727 207.384 136.544 207.408 136.343C207.433 136.141 207.378 135.934 207.25 135.775L204.371 132.122C204.243 131.963 204.06 131.86 203.858 131.835C203.822 131.829 203.791 131.829 203.761 131.829Z" fill="#8C5C20"/>
<path d="M161.292 113.775C160.163 113.775 158.992 113.47 157.986 112.878C157.876 112.811 157.772 112.726 157.693 112.622C157.309 112.152 157.382 111.457 157.852 111.079C158.23 110.768 158.754 110.756 159.145 111.012C160.31 111.683 161.81 111.774 162.817 111.238C163.652 110.792 164.116 109.951 164.189 108.725C164.213 108.371 164.402 108.054 164.701 107.865C165 107.676 165.372 107.645 165.702 107.773C167.544 108.523 169.129 108.481 170.16 107.663C171.191 106.846 171.612 105.272 171.307 103.357C171.246 102.973 171.392 102.589 171.691 102.339C171.99 102.095 172.399 102.021 172.765 102.156C173.856 102.552 174.893 102.345 175.607 101.588C176.412 100.741 176.607 99.4292 176.119 98.2337C175.924 97.7885 176.034 97.2517 176.43 96.9345C176.9 96.5503 177.589 96.6235 177.973 97.0931C178.041 97.1724 178.095 97.2639 178.132 97.3615C178.974 99.3621 178.608 101.613 177.199 103.101C176.241 104.107 174.96 104.608 173.6 104.54C173.594 106.596 172.874 108.316 171.526 109.383C170.13 110.493 168.257 110.78 166.159 110.231C165.787 111.543 164.994 112.567 163.853 113.171C163.091 113.574 162.207 113.775 161.292 113.775Z" fill="#8C5C20"/>
<path d="M156.798 99.8195C156.267 99.8195 155.797 99.4292 155.712 98.8863C155.621 98.2886 156.029 97.7275 156.627 97.636C159.89 97.1297 162.086 95.3975 163.336 92.3417C163.568 91.7806 164.208 91.5122 164.77 91.744C165.331 91.9758 165.599 92.6162 165.373 93.1773C163.83 96.9589 161 99.1852 156.962 99.8134C156.914 99.8195 156.859 99.8195 156.798 99.8195Z" fill="#8C5C20"/>
<path d="M164.36 92.7625L159.249 91.1462C157.785 90.6827 156.309 91.8415 156.419 93.3786L156.803 98.7277C160.444 98.1605 162.963 96.1721 164.36 92.7625Z" fill="#8C5C20"/>
</svg>
