<svg width="137" height="131" viewBox="0 0 137 131" fill="none" xmlns="http://www.w3.org/2000/svg">
<path d="M60.7788 0.91839C49.9048 2.01064 44.9772 8.76956 41.5809 15.8011C32.1306 35.3815 24.1017 34.6104 9.88032 45.7053C-6.97756 58.9639 0.8606 74.4468 12.99 81.6092C18.0517 84.5511 23.5429 87.3061 25.7004 93.154C27.3778 97.6657 26.2048 103.711 26.3095 108.535C26.7536 126.256 44.0923 139.152 67.8448 124.224C81.9244 115.342 85.5108 104.395 90.9408 89.4964C96.2829 75.4384 105.975 67.487 118.081 59.3071C147.049 39.6466 145.213 -3.93014 86.1764 8.66558C76.868 10.5632 69.5696 0.0477417 60.7788 0.91839Z" fill="#D4E698"/>
</svg>
