<svg width="22" height="22" viewBox="0 0 22 22" fill="none" xmlns="http://www.w3.org/2000/svg">
<g clip-path="url(#clip0_108_17)">
<path d="M3.91709 15.8657V0H2.86049C1.30381 0 0.0373535 1.26646 0.0373535 2.82313V16.7621C0.684076 16.2042 1.5251 15.8656 2.44425 15.8656H3.91709V15.8657Z" fill="white"/>
<path d="M17.1004 10.9549C17.2392 10.9549 17.3767 10.96 17.5132 10.9691V0H5.20361V15.8657H11.0794C11.6526 13.0667 14.1345 10.9549 17.1004 10.9549ZM9.10861 3.7886H13.4149V5.0753H9.10861V3.7886ZM7.65399 6.582H14.8696V7.86869H7.65399V6.582Z" fill="white"/>
<path d="M11.7952 20.1992H3.29789V18.9125H11.2276C11.0515 18.3428 10.9561 17.7381 10.955 17.1117H2.44415C1.09643 17.1117 0 18.2081 0 19.5558C0 20.9035 1.09643 21.9999 2.44415 21.9999H13.3951C12.7509 21.5116 12.2058 20.8995 11.7952 20.1992Z" fill="white"/>
<path d="M17.1005 12.201C14.3989 12.201 12.2009 14.3989 12.2009 17.1006C12.2009 19.8022 14.3989 22.0001 17.1005 22.0001C19.8021 22.0001 22 19.8021 22 17.1006C22 14.3989 19.8021 12.201 17.1005 12.201ZM17.1 14.1674C17.4613 14.1674 17.7289 14.4627 17.7445 14.8119C17.7601 15.16 17.4371 15.4564 17.1 15.4564C16.7387 15.4564 16.4711 15.1611 16.4555 14.8119C16.4399 14.4638 16.7629 14.1674 17.1 14.1674ZM17.746 19.6125H16.4569V16.3126H17.746V19.6125Z" fill="white" fill-opacity="0.6"/>
</g>
<defs>
<clipPath id="clip0_108_17">
<rect width="22" height="22" fill="white"/>
</clipPath>
</defs>
</svg>
