<svg width="16" height="23" viewBox="0 0 16 23" fill="none" xmlns="http://www.w3.org/2000/svg">
<path opacity="0.5" d="M6.61669 6.77692C7.31556 5.36077 7.61194 4.75827 7.7337 4.51169C7.76628 4.44568 7.86034 4.44586 7.89288 4.51191L9.00838 6.77692C9.06032 6.88168 9.16019 6.95447 9.27605 6.9709L11.7721 7.33387C11.8449 7.34448 11.8739 7.43392 11.8212 7.48528L10.0151 9.24584C9.93123 9.32752 9.89306 9.44515 9.91303 9.56012L10.3394 12.0466C10.3518 12.1192 10.2754 12.1743 10.2103 12.1401C7.77086 10.857 7.93314 10.9256 7.81254 10.9256C7.69029 10.9256 7.84858 10.8599 5.41481 12.1401C5.34969 12.1743 5.27325 12.1192 5.28568 12.0466L5.71204 9.56012C5.73202 9.44515 5.69384 9.32752 5.60995 9.24584L3.80384 7.48528C3.75115 7.43392 3.78022 7.34443 3.85302 7.33387L6.34903 6.9709C6.46488 6.95447 6.56476 6.88168 6.61669 6.77692Z" fill="white"/>
<path d="M1.06534 0H14.5597C15.1469 0 15.625 0.478072 15.625 1.06534V21.8448C15.625 22.5847 14.7682 22.9897 14.1961 22.5373L8.03267 17.6718C7.90305 17.5692 7.72195 17.5692 7.59233 17.6718L1.42889 22.5377C0.855247 22.9897 0 22.5836 0 21.8448V1.06534C0 0.478072 0.478072 0 1.06534 0ZM3.17916 7.86843L4.94704 9.59144C4.96795 9.61182 4.97754 9.64125 4.97257 9.67001L4.55522 12.1036C4.45566 12.6828 5.06574 13.1257 5.58594 12.8524L7.77117 11.7036C7.79705 11.69 7.82795 11.69 7.85378 11.7036L10.0391 12.8525C10.5611 13.1264 11.1693 12.6824 11.0698 12.1036L10.6524 9.67006C10.6475 9.64125 10.657 9.61186 10.678 9.59149L12.4458 7.86843C12.8664 7.45743 12.6355 6.74214 12.0521 6.65661L9.60898 6.30198C9.58003 6.29776 9.55504 6.27961 9.54213 6.25342L8.44949 4.03942C8.18905 3.5119 7.43608 3.51154 7.17552 4.03942L6.08288 6.25342C6.06996 6.27961 6.04492 6.29781 6.01602 6.30198L3.57289 6.65661C2.99099 6.74192 2.75737 7.45628 3.17916 7.86843Z" fill="white"/>
</svg>
