<svg width="22" height="23" viewBox="0 0 22 23" fill="none" xmlns="http://www.w3.org/2000/svg">
<g clip-path="url(#clip0_107_99)">
<path d="M6.3523 4.28876C6.28368 4.07852 6.11249 3.91738 5.89846 3.86329L4.56596 3.5234L3.83205 2.36213C3.59538 1.98826 2.97856 1.98826 2.74189 2.36213L2.00798 3.5234L0.633156 3.86329C0.419172 3.91743 0.247941 4.07856 0.17932 4.28876C0.111344 4.49901 0.155387 4.72936 0.29641 4.89931L1.17448 5.95672L1.08575 7.32824C1.07191 7.54854 1.17134 7.76128 1.35009 7.89096C1.52948 8.02124 1.80405 8.05145 2.01052 7.96839L3.28699 7.46046L4.56411 7.96839C4.77165 8.05106 5.00291 8.02047 5.18157 7.89096C5.36032 7.76128 5.46039 7.54854 5.44591 7.32824L5.35654 5.95672L6.23521 4.89931C6.37623 4.72936 6.42027 4.49901 6.3523 4.28876Z" fill="white"/>
<path d="M14.6998 2.80019C14.6255 2.57233 14.4322 2.40492 14.1962 2.36402L12.4288 2.05877L11.5917 0.499001C11.3676 0.0760166 10.6752 0.0760166 10.4511 0.499001L9.61403 2.05872L7.84724 2.36397C7.61121 2.40488 7.41798 2.57233 7.34369 2.79955C7.27004 3.02741 7.32796 3.27667 7.49477 3.4485L8.74482 4.73503L8.48928 6.51063C8.45529 6.7473 8.55537 6.98333 8.7486 7.12431C8.94239 7.26473 9.19706 7.28613 9.41199 7.18094L11.0214 6.38911L12.6315 7.18094C12.8449 7.28604 13.1017 7.26465 13.2949 7.12367C13.4881 6.98329 13.5882 6.74726 13.5542 6.51059L13.298 4.73499L14.5487 3.44846C14.7155 3.27663 14.7734 3.02741 14.6998 2.80019Z" fill="white"/>
<path d="M21.864 4.28876C21.7954 4.07852 21.6242 3.91738 21.4102 3.86329L20.0347 3.5234L19.3008 2.36213C19.0641 1.98826 18.4473 1.98826 18.2106 2.36213L17.4767 3.5234L16.1449 3.86329C15.9309 3.91743 15.7597 4.07856 15.691 4.28876C15.6231 4.49901 15.6671 4.72936 15.8081 4.89931L16.6862 5.95672L16.5975 7.32824C16.5836 7.54854 16.6831 7.76128 16.8618 7.89096C17.0412 8.02124 17.2728 8.05145 17.4793 7.96839L18.7557 7.46046L20.0329 7.96839C20.2404 8.05106 20.4717 8.02047 20.6503 7.89096C20.8291 7.76128 20.9721 7.54854 20.9576 7.32824L20.8253 5.95672L21.7469 4.89931C21.8879 4.72936 21.932 4.49901 21.864 4.28876Z" fill="white"/>
<g opacity="0.5">
<path d="M3.91016 13.0724V18.3146H7.77734V13.0724H3.91016ZM6.48828 16.381C6.48828 16.7372 6.2 17.0255 5.84375 17.0255C5.4875 17.0255 5.19922 16.7372 5.19922 16.381V15.006C5.19922 14.6497 5.4875 14.3615 5.84375 14.3615C6.2 14.3615 6.48828 14.6497 6.48828 15.006V16.381Z" fill="white"/>
</g>
<g opacity="0.5">
<path d="M14.2227 13.0724V18.3146H18.0898V13.0724H14.2227ZM16.8008 16.381C16.8008 16.7372 16.5125 17.0255 16.1562 17.0255C15.8 17.0255 15.5117 16.7372 15.5117 16.381V15.006C15.5117 14.6497 15.8 14.3615 16.1562 14.3615C16.5125 14.3615 16.8008 14.6497 16.8008 15.006V16.381Z" fill="white"/>
</g>
<g opacity="0.5">
<path d="M9.06641 13.0724V18.3146H12.9336V13.0724H9.06641ZM11.6445 16.381C11.6445 16.7372 11.3563 17.0255 11 17.0255C10.6437 17.0255 10.3555 16.7372 10.3555 16.381V15.006C10.3555 14.6497 10.6437 14.3615 11 14.3615C11.3563 14.3615 11.6445 14.6497 11.6445 15.006V16.381Z" fill="white"/>
</g>
<path d="M20.0234 9.2052H1.97656C0.910336 9.2052 0 10.0726 0 11.1388V20.2482C0 21.3144 0.910336 22.1818 1.97656 22.1818H20.0234C21.0897 22.1818 22 21.3144 22 20.2482V11.1388C22 10.0726 21.0897 9.2052 20.0234 9.2052ZM19.3789 18.9591C19.3789 19.3154 19.0906 19.6036 18.7344 19.6036H3.26562C2.90937 19.6036 2.62109 19.3154 2.62109 18.9591V12.4279C2.62109 12.0716 2.90937 11.7833 3.26562 11.7833H18.7344C19.0906 11.7833 19.3789 12.0716 19.3789 12.4279V18.9591Z" fill="white"/>
</g>
<defs>
<clipPath id="clip0_107_99">
<rect width="22" height="22" fill="white" transform="translate(0 0.181763)"/>
</clipPath>
</defs>
</svg>
