<svg width="24" height="24" viewBox="0 0 24 24" fill="none" xmlns="http://www.w3.org/2000/svg">
<path d="M15.7816 16.0663C15.8372 15.4813 15.8204 14.8985 15.7358 14.3295L17.0512 13.7432C16.9269 13.1061 16.7315 12.4775 16.4606 11.8693C16.1897 11.2615 15.8532 10.6959 15.4632 10.1769L14.147 10.7628C13.7808 10.3197 13.3589 9.91767 12.8869 9.56738L13.4029 8.22317C12.8641 7.8608 12.2817 7.55451 11.6601 7.31596C11.041 7.07826 10.4051 6.9139 9.75849 6.82288L9.24212 8.16838C8.65715 8.11273 8.07434 8.12956 7.50534 8.21411L6.92253 6.90527C5.62059 7.16109 4.40407 7.71327 3.35967 8.50228L3.9386 9.80249C3.4947 10.1687 3.09264 10.5911 2.74235 11.0626L1.40159 10.5484C1.03577 11.0859 0.729051 11.6687 0.49006 12.2899C0.253226 12.9111 0.0910235 13.5487 0 14.191L1.34421 14.707C1.28856 15.2919 1.30539 15.8748 1.38994 16.4438L0.0746306 17.0296C0.198871 17.6672 0.394291 18.2953 0.665205 18.9035C0.93655 19.5118 1.2726 20.0769 1.66301 20.5959L2.97832 20.0101C3.34457 20.4535 3.76647 20.8556 4.23885 21.2059L3.7229 22.551C4.26171 22.9138 4.84409 23.2196 5.46572 23.4582C6.08477 23.6959 6.72064 23.8602 7.36729 23.9513L7.88367 22.6057C8.46863 22.661 9.05144 22.6441 9.62045 22.5596L10.2033 23.868C11.5052 23.6122 12.7226 23.06 13.7665 22.271L13.1872 20.9708C13.6307 20.6045 14.0331 20.1826 14.3834 19.7107L15.7233 20.2249C16.0892 19.6874 16.3959 19.1046 16.6349 18.4838C16.8734 17.8626 17.0352 17.2246 17.1262 16.5818L15.7816 16.0663ZM12.2084 16.7854C11.4357 18.7991 9.17741 19.8043 7.16324 19.0317C5.15167 18.2595 4.14523 16.0016 4.91742 13.9883C5.69005 11.975 7.94838 10.9698 9.96125 11.7416C11.9745 12.5138 12.9806 14.7725 12.2084 16.7854Z" fill="white"/>
<path d="M23.0643 5.34711C23.0643 5.08655 23.0376 4.83159 22.9919 4.58398L24 4.0016C23.7559 3.07324 23.271 2.24195 22.6079 1.58538L21.5972 2.16905C21.2115 1.8386 20.7646 1.57977 20.2758 1.40721V0.241163C19.8306 0.11908 19.3643 0.0491943 18.8816 0.0491943C18.3989 0.0491943 17.933 0.119942 17.4873 0.241163V1.40764C16.9986 1.5802 16.5521 1.83947 16.166 2.16948L15.1548 1.58581C14.4926 2.24239 14.0073 3.07368 13.7627 4.00203L14.7713 4.58441C14.7256 4.83246 14.6984 5.08655 14.6984 5.34754C14.6984 5.60853 14.7256 5.86305 14.7713 6.11067L13.7627 6.69305C14.0073 7.6214 14.4926 8.45312 15.1548 9.10927L16.1655 8.52559C16.5516 8.85604 16.9981 9.11487 17.4869 9.28743V10.4539C17.9325 10.5756 18.3984 10.6459 18.8811 10.6459C19.3639 10.6459 19.8306 10.5751 20.2754 10.4539V9.28743C20.7642 9.11487 21.2111 8.85561 21.5968 8.52559L22.6075 9.10927C23.2705 8.45269 23.7554 7.6214 23.9996 6.69305L22.9914 6.11067C23.0376 5.86219 23.0643 5.6081 23.0643 5.34711ZM18.882 7.29958C17.8035 7.29958 16.9291 6.42558 16.9291 5.34754C16.9291 4.26949 17.8035 3.39506 18.882 3.39506C19.9592 3.39506 20.8336 4.26906 20.8336 5.34711C20.8336 6.42515 19.9592 7.29958 18.882 7.29958Z" fill="white" fill-opacity="0.6"/>
</svg>
