<svg width="30" height="30" viewBox="0 0 30 30" fill="none" xmlns="http://www.w3.org/2000/svg">
<g clip-path="url(#clip0_3_844)">
<path d="M25.0491 12.1371C25.1253 11.3686 25.0371 10.5927 24.7904 9.8609C24.5437 9.12911 24.144 8.4582 23.618 7.89274C23.092 7.32729 22.4517 6.88025 21.7397 6.58131C21.0276 6.28237 20.2601 6.13838 19.4881 6.15891C18.5154 6.18215 17.5669 6.46654 16.7419 6.98227C16.1212 5.8587 15.1237 4.99033 13.9254 4.53022C12.727 4.07012 11.4047 4.04784 10.1915 4.46729C8.97837 4.88675 7.95222 5.72102 7.29398 6.82303C6.63573 7.92505 6.38765 9.22407 6.59347 10.4911C6.5766 10.4911 6.56019 10.4911 6.54332 10.4911C5.48576 10.5171 4.4507 10.802 3.52878 11.3208C2.60686 11.8396 1.8262 12.5765 1.25516 13.4671C0.684124 14.3576 0.340124 15.3745 0.253285 16.4288C0.166447 17.4831 0.339418 18.5427 0.757054 19.5146C1.17469 20.4866 1.82425 21.3413 2.64885 22.004C3.47346 22.6666 4.44796 23.117 5.48701 23.3157C6.52606 23.5144 7.59798 23.4553 8.6089 23.1436C9.61982 22.8319 10.5389 22.2771 11.2857 21.5278C11.7859 22.2986 12.4729 22.9304 13.2828 23.3644C14.0927 23.7985 14.9992 24.0208 15.918 24.0106C16.8368 24.0004 17.7382 23.7581 18.5382 23.3062C19.3383 22.8543 20.0112 22.2075 20.4943 21.4259C21.11 22.0309 21.8605 22.481 22.6842 22.7392C23.5079 22.9973 24.3811 23.0562 25.232 22.9109C26.0829 22.7656 26.8871 22.4203 27.5784 21.9034C28.2697 21.3865 28.8284 20.7128 29.2084 19.9377C29.5885 19.1627 29.779 18.3085 29.7643 17.4454C29.7497 16.5823 29.5302 15.7351 29.1241 14.9734C28.7179 14.2117 28.1367 13.5574 27.4282 13.0643C26.7197 12.5712 25.9042 12.2534 25.0489 12.1371H25.0491Z" fill="#F0F5F9"/>
<path d="M24.4509 22.9882C23.7202 23.0072 22.9932 22.8787 22.3132 22.6105C21.6333 22.3422 21.0144 21.9396 20.4935 21.4268C20.0104 22.2082 19.3377 22.8548 18.5378 23.3066C17.7379 23.7584 16.8367 24.0006 15.9181 24.0108C14.9995 24.021 14.0932 23.7988 13.2835 23.3649C12.4738 22.931 11.7868 22.2995 11.2865 21.529C10.3222 22.4942 9.07755 23.13 7.73033 23.3456C6.3831 23.5612 5.0022 23.3456 3.7848 22.7296C2.5674 22.1136 1.57576 21.1287 0.951485 19.9155C0.327212 18.7024 0.102228 17.323 0.30866 15.9743C0.488041 17.1584 0.992636 18.2695 1.76624 19.1838C2.53983 20.0981 3.55206 20.7796 4.69017 21.1526C5.82827 21.5255 7.04756 21.5752 8.21222 21.296C9.37687 21.0168 10.4412 20.4198 11.2865 19.5715C11.7868 20.342 12.4738 20.9735 13.2835 21.4074C14.0932 21.8413 14.9995 22.0635 15.9181 22.0533C16.8367 22.0431 17.7379 21.8009 18.5378 21.3491C19.3377 20.8973 20.0104 20.2507 20.4935 19.4693C21.1997 20.1633 22.0816 20.6518 23.0445 20.8825C24.0074 21.1131 25.0149 21.0771 25.9589 20.7783C26.9029 20.4795 27.7476 19.9293 28.4025 19.1866C29.0573 18.444 29.4975 17.537 29.6758 16.5631C29.7277 16.84 29.7568 17.1207 29.7628 17.4024C29.7811 18.118 29.6581 18.8302 29.401 19.4983C29.1439 20.1664 28.7576 20.7772 28.2643 21.296C27.771 21.8147 27.1803 22.2312 26.526 22.5216C25.8717 22.8119 25.1666 22.9705 24.4509 22.9882Z" fill="#D9E2E9"/>
<path d="M8.27513 11.4738C8.23006 11.4738 8.18595 11.4608 8.14809 11.4363C7.64308 11.1056 7.08518 10.8638 6.49856 10.7213C6.43824 10.7087 6.38529 10.6729 6.35119 10.6215C6.31708 10.5702 6.30456 10.5075 6.31633 10.4471C6.3281 10.3866 6.36322 10.3332 6.41408 10.2984C6.46494 10.2636 6.52746 10.2502 6.58809 10.2612C7.23404 10.4134 7.84822 10.6778 8.40263 11.0426C8.44515 11.0701 8.47763 11.1106 8.49523 11.158C8.51282 11.2055 8.51457 11.2574 8.50021 11.3059C8.48586 11.3545 8.45618 11.3971 8.41561 11.4273C8.37503 11.4576 8.32575 11.4739 8.27513 11.4738Z" fill="#2F3A5A"/>
<path d="M22.1311 6.85803C22.1311 6.85803 25.4616 9.26811 22.7217 12.5489C22.7515 12.5741 22.7793 12.6015 22.8049 12.6309C23.5981 12.1141 23.8071 12.0698 24.9206 12.1364C24.9206 12.1364 25.6995 8.3203 22.1311 6.85803Z" fill="#D9E2E9"/>
<path d="M15.8543 24.2452C14.9546 24.2476 14.0673 24.035 13.2665 23.625C12.4656 23.2151 11.7742 22.6197 11.25 21.8885C10.4596 22.6173 9.5055 23.1453 8.46822 23.4279C7.43095 23.7106 6.3409 23.7397 5.29003 23.5127C4.23916 23.2858 3.25827 22.8094 2.43011 22.1239C1.60195 21.4383 0.950793 20.5636 0.531572 19.5736C0.112351 18.5836 -0.0626439 17.5073 0.021347 16.4355C0.105338 15.3637 0.445851 14.3278 1.01417 13.4152C1.58248 12.5026 2.36193 11.74 3.28678 11.1918C4.21162 10.6436 5.25473 10.3259 6.32813 10.2654C6.30868 10.0976 6.29696 9.93118 6.29274 9.76852C6.26218 8.51801 6.64486 7.29232 7.3815 6.28134C8.11814 5.27036 9.16761 4.53053 10.3673 4.17645C11.5671 3.82237 12.8501 3.87381 14.0176 4.32281C15.1851 4.77181 16.172 5.59329 16.8253 6.66001C17.6798 6.17624 18.6451 5.92205 19.627 5.92218C20.6089 5.92232 21.5741 6.17677 22.4284 6.66077C23.2828 7.14476 23.9973 7.84179 24.5022 8.68395C25.0071 9.52611 25.2853 10.4847 25.3097 11.4663C25.3137 11.6196 25.3097 11.7776 25.301 11.9386C26.1668 12.091 26.9854 12.442 27.6926 12.9641C28.3998 13.4863 28.9763 14.1652 29.3768 14.9478C29.7773 15.7303 29.9909 16.595 30.0009 17.474C30.0108 18.353 29.8168 19.2223 29.434 20.0137C29.0513 20.8051 28.4903 21.4969 27.7951 22.0349C27.0999 22.5729 26.2894 22.9423 25.4273 23.1142C24.5652 23.2861 23.675 23.2557 22.8266 23.0255C21.9782 22.7953 21.1948 22.3716 20.5378 21.7875C20.0297 22.5265 19.3535 23.1344 18.5648 23.5613C17.7761 23.9882 16.8974 24.2219 16.0008 24.2433C15.952 24.2445 15.9031 24.2452 15.8543 24.2452ZM11.3245 21.1573L11.4825 21.4001C11.9613 22.1376 12.6188 22.7422 13.3938 23.1575C14.1689 23.5729 15.0363 23.7856 15.9156 23.7758C16.7949 23.7661 17.6574 23.5343 18.4231 23.1019C19.1887 22.6695 19.8326 22.0505 20.295 21.3026L20.4492 21.0534L20.6585 21.2588C21.2477 21.8377 21.966 22.2684 22.7543 22.5155C23.5425 22.7625 24.3781 22.8188 25.1924 22.6798C26.0066 22.5407 26.7762 22.2103 27.4378 21.7157C28.0994 21.221 28.634 20.5764 28.9977 19.8347C29.3614 19.0931 29.5438 18.2756 29.5298 17.4497C29.5159 16.6238 29.3059 15.813 28.9173 15.0841C28.5287 14.3551 27.9726 13.7289 27.2947 13.257C26.6167 12.785 25.8364 12.4808 25.0179 12.3694L24.7943 12.3391L24.8159 12.1146C24.8364 11.9031 24.8442 11.6905 24.8393 11.4781C24.8163 10.5589 24.5508 9.66212 24.0696 8.87862C23.5884 8.09512 22.9087 7.45273 22.0993 7.01651C21.2899 6.5803 20.3796 6.36577 19.4606 6.39466C18.5415 6.42355 17.6465 6.69483 16.8661 7.18102L16.6568 7.3118L16.537 7.09618C15.9709 6.07534 15.0788 5.27386 14.0033 4.81995C12.9279 4.36604 11.7313 4.28593 10.6049 4.59242C9.47856 4.89892 8.48754 5.57432 7.79037 6.51057C7.09321 7.44683 6.73019 8.58986 6.75938 9.7568C6.76591 9.99041 6.78784 10.2233 6.82501 10.4541L6.86743 10.7201L6.56696 10.7255C5.54702 10.7478 4.54813 11.02 3.65786 11.5182C2.7676 12.0164 2.01317 12.7254 1.46071 13.583C0.908257 14.4407 0.574653 15.4208 0.489154 16.4374C0.403655 17.454 0.568872 18.476 0.970318 19.4139C1.37176 20.3518 1.99718 21.1768 2.79172 21.8167C3.58626 22.4566 4.52566 22.8918 5.52755 23.0842C6.52944 23.2765 7.56322 23.2201 8.53823 22.9199C9.51325 22.6197 10.3997 22.0849 11.1199 21.3623L11.3245 21.1573Z" fill="#2F3A5A"/>
<path d="M22.8047 12.7833C22.75 12.7834 22.6971 12.7644 22.6549 12.7296C22.6128 12.6948 22.5841 12.6464 22.5739 12.5927C22.5637 12.539 22.5726 12.4834 22.599 12.4356C22.6255 12.3878 22.6678 12.3507 22.7187 12.3307C23.4649 12.0455 24.2574 11.9005 25.0563 11.903C25.1185 11.905 25.1773 11.9316 25.2198 11.9769C25.2624 12.0223 25.2852 12.0827 25.2832 12.1449C25.2812 12.207 25.2546 12.2658 25.2092 12.3084C25.1639 12.3509 25.1035 12.3737 25.0413 12.3717C24.3063 12.373 23.5776 12.5069 22.8902 12.7671C22.863 12.7779 22.834 12.7834 22.8047 12.7833Z" fill="#2F3A5A"/>
<path d="M22.1759 25.8253H7.82324V16.3451L14.9993 11.2394L22.1759 16.3451V25.8253Z" fill="#FAB505"/>
<path d="M22.1759 26.0597H7.82324C7.76108 26.0597 7.70147 26.035 7.65751 25.9911C7.61356 25.9471 7.58887 25.8875 7.58887 25.8253V16.3451C7.58885 16.3077 7.59778 16.2709 7.6149 16.2376C7.63203 16.2044 7.65685 16.1758 7.6873 16.1541L14.8634 11.0485C14.9031 11.0202 14.9506 11.005 14.9993 11.005C15.0481 11.005 15.0956 11.0202 15.1353 11.0485L22.3125 16.1541C22.343 16.1758 22.3678 16.2044 22.3849 16.2376C22.4021 16.2709 22.411 16.3077 22.411 16.3451V25.8253C22.411 25.8562 22.4049 25.8867 22.3931 25.9152C22.3812 25.9437 22.3639 25.9695 22.3421 25.9913C22.3202 26.0131 22.2943 26.0303 22.2658 26.0421C22.2373 26.0538 22.2067 26.0598 22.1759 26.0597ZM8.05762 25.591H21.9415V16.466L15 11.527L8.05762 16.466V25.591Z" fill="#2F3A5A"/>
<path d="M9.49036 13.1201H20.509V24.8911H9.49036V13.1201Z" fill="#DBE2EB"/>
<path d="M20.5079 25.125H9.49036C9.4282 25.125 9.36858 25.1003 9.32463 25.0563C9.28067 25.0124 9.25598 24.9528 9.25598 24.8906V13.1201C9.25598 13.0579 9.28067 12.9983 9.32463 12.9543C9.36858 12.9104 9.4282 12.8857 9.49036 12.8857H20.5079C20.57 12.8857 20.6296 12.9104 20.6736 12.9543C20.7175 12.9983 20.7422 13.0579 20.7422 13.1201V24.8906C20.7422 24.9528 20.7175 25.0124 20.6736 25.0563C20.6296 25.1003 20.57 25.125 20.5079 25.125ZM9.72379 24.6562H20.2735V13.3544H9.72473L9.72379 24.6562Z" fill="#2F3A5A"/>
<path d="M7.82324 21.0262H22.1759V25.8251H7.82324V21.0262Z" fill="#FAB505"/>
<path d="M22.1759 26.0597H7.82324C7.76108 26.0597 7.70147 26.035 7.65751 25.991C7.61356 25.9471 7.58887 25.8875 7.58887 25.8253V21.0262C7.58887 20.9641 7.61356 20.9045 7.65751 20.8605C7.70147 20.8166 7.76108 20.7919 7.82324 20.7919H22.1759C22.2381 20.7919 22.2977 20.8166 22.3416 20.8605C22.3856 20.9045 22.4103 20.9641 22.4103 21.0262V25.8253C22.4103 25.8875 22.3856 25.9471 22.3416 25.991C22.2977 26.035 22.2381 26.0597 22.1759 26.0597ZM8.05762 25.5909H21.9415V21.2606H8.05762V25.5909Z" fill="#2F3A5A"/>
<path d="M14.9993 21.0851L22.1758 25.8253V16.3451L14.9993 21.0851Z" fill="#FAB505"/>
<path d="M22.1758 26.0597C22.1299 26.0596 22.085 26.0461 22.0467 26.0208L14.8701 21.2812C14.8378 21.2599 14.8112 21.2308 14.7929 21.1967C14.7745 21.1626 14.7649 21.1244 14.7649 21.0856C14.7649 21.0469 14.7745 21.0087 14.7929 20.9746C14.8112 20.9405 14.8378 20.9114 14.8701 20.8901L22.0467 16.1501C22.082 16.1267 22.123 16.1134 22.1653 16.1115C22.2075 16.1096 22.2496 16.1192 22.2868 16.1392C22.3241 16.1593 22.3553 16.189 22.377 16.2253C22.3987 16.2617 22.4102 16.3032 22.4102 16.3455V25.8258C22.4102 25.8879 22.3855 25.9475 22.3416 25.9915C22.2976 26.0355 22.238 26.0601 22.1758 26.0601V26.0597ZM15.4247 21.0851L21.9415 25.3896V16.7812L15.4247 21.0851Z" fill="#2F3A5A"/>
<path d="M14.9998 21.0851L7.82324 25.8253V16.3451L14.9998 21.0851Z" fill="#FAB505"/>
<path d="M7.82324 26.0597C7.76108 26.0597 7.70147 26.035 7.65751 25.9911C7.61356 25.9471 7.58887 25.8875 7.58887 25.8253V16.3451C7.58889 16.3028 7.60037 16.2612 7.62209 16.2249C7.64381 16.1886 7.67497 16.1588 7.71224 16.1388C7.74952 16.1187 7.79153 16.1092 7.83381 16.1111C7.87609 16.113 7.91706 16.1263 7.95238 16.1496L15.1289 20.8896C15.1613 20.911 15.1878 20.94 15.2062 20.9742C15.2246 21.0083 15.2342 21.0465 15.2342 21.0852C15.2342 21.124 15.2246 21.1621 15.2062 21.1963C15.1878 21.2304 15.1613 21.2594 15.1289 21.2808L7.95238 26.0208C7.91408 26.0462 7.86917 26.0597 7.82324 26.0597ZM8.05762 16.7808V25.3896L14.5746 21.0851L8.05762 16.7808Z" fill="#2F3A5A"/>
<path d="M18.1809 15.0813H11.8184C11.7562 15.0813 11.6966 15.0566 11.6526 15.0127C11.6087 14.9687 11.584 14.9091 11.584 14.8469C11.584 14.7848 11.6087 14.7251 11.6526 14.6812C11.6966 14.6372 11.7562 14.6125 11.8184 14.6125H18.1809C18.2431 14.6125 18.3027 14.6372 18.3467 14.6812C18.3906 14.7251 18.4153 14.7848 18.4153 14.8469C18.4153 14.9091 18.3906 14.9687 18.3467 15.0127C18.3027 15.0566 18.2431 15.0813 18.1809 15.0813Z" fill="#BAC2D3"/>
<path d="M18.1809 16.3373H11.8184C11.7562 16.3373 11.6966 16.3126 11.6526 16.2687C11.6087 16.2247 11.584 16.1651 11.584 16.103C11.584 16.0408 11.6087 15.9812 11.6526 15.9372C11.6966 15.8933 11.7562 15.8686 11.8184 15.8686H18.1809C18.2431 15.8686 18.3027 15.8933 18.3467 15.9372C18.3906 15.9812 18.4153 16.0408 18.4153 16.103C18.4153 16.1651 18.3906 16.2247 18.3467 16.2687C18.3027 16.3126 18.2431 16.3373 18.1809 16.3373Z" fill="#BAC2D3"/>
<path d="M18.1809 17.5933H11.8184C11.7562 17.5933 11.6966 17.5686 11.6526 17.5247C11.6087 17.4807 11.584 17.4211 11.584 17.3589C11.584 17.2968 11.6087 17.2372 11.6526 17.1932C11.6966 17.1493 11.7562 17.1246 11.8184 17.1246H18.1809C18.2431 17.1246 18.3027 17.1493 18.3467 17.1932C18.3906 17.2372 18.4153 17.2968 18.4153 17.3589C18.4153 17.4211 18.3906 17.4807 18.3467 17.5247C18.3027 17.5686 18.2431 17.5933 18.1809 17.5933Z" fill="#BAC2D3"/>
</g>
<defs>
<clipPath id="clip0_3_844">
<rect width="30" height="30" fill="white"/>
</clipPath>
</defs>
</svg>
