<svg width="74" height="82" viewBox="0 0 74 82" fill="none" xmlns="http://www.w3.org/2000/svg">
<g filter="url(#filter0_d_138_220)">
<path d="M54.9092 21.9204H50.798C50.798 14.5106 44.7746 8.4872 37.3648 8.4872C29.955 8.4872 23.9315 14.5106 23.9315 21.9204H19.8203C19.8203 12.2638 27.7082 4.37598 37.3648 4.37598C47.0214 4.37598 54.9092 12.2638 54.9092 21.9204Z" fill="#909090"/>
<path d="M51.0849 17.0922C49.7463 12.8375 45.1571 7.00531 37.4604 7.00531C30.1463 7.00531 25.6048 12.2639 23.597 16.0405C22.354 18.4307 21.1111 18.8132 20.3462 17.8092C20.0594 19.1 19.8682 20.4863 19.8682 21.8727H23.9794C23.9794 14.4629 30.0028 8.43946 37.4126 8.43946C44.8224 8.43946 50.8459 14.4629 50.8459 21.8727H54.9571C54.9571 20.9166 54.8615 20.0083 54.7181 19.1C53.762 20.2951 51.9932 20.0561 51.0849 17.0922Z" fill="#6B6B6A"/>
<path d="M51.2761 20.7253C44.44 20.7253 38.7512 25.4102 37.1258 31.7204C35.5005 25.4102 29.7638 20.7253 22.9755 20.7253C14.8965 20.7253 8.34717 27.2746 8.34717 35.3536C8.34717 58.8259 37.1736 68.9606 37.1736 68.9606C37.1736 68.9606 66.0001 56.2445 66.0001 35.3536C65.9045 27.2746 59.3552 20.7253 51.2761 20.7253Z" fill="#8DB600"/>
<path opacity="0.2" d="M21.0155 20.8688C13.8447 21.8249 8.29932 27.9439 8.29932 35.4015C8.29932 58.8738 37.1258 69.0085 37.1258 69.0085C37.1258 69.0085 58.5425 59.5431 64.4703 43.5762C38.3209 76.5617 13.9881 45.3928 21.0155 20.8688Z" fill="white"/>
<path d="M62.5582 31.9595C61.5065 33.7282 57.8255 33.537 54.3358 31.4814C50.846 29.4258 48.886 26.3185 49.9377 24.5497C50.9894 22.7809 54.6704 22.9721 58.1602 25.0277C61.6021 27.0833 63.61 30.1907 62.5582 31.9595Z" fill="#A4C533"/>
<path d="M41.7054 41.4248C41.7054 43.6513 39.8785 45.4782 37.652 45.4782C35.4255 45.4782 33.5986 43.6513 33.5986 41.4248C33.5986 39.1983 35.4255 37.3715 37.652 37.3715C39.8785 37.3715 41.7054 39.1983 41.7054 41.4248Z" fill="#80A504"/>
<path d="M40.7928 51.3584H34.7983L36.0543 43.7655H39.5368L40.7928 51.3584Z" fill="#80A504"/>
</g>
<defs>
<filter id="filter0_d_138_220" x="0.299316" y="0.375977" width="73.7007" height="80.6325" filterUnits="userSpaceOnUse" color-interpolation-filters="sRGB">
<feFlood flood-opacity="0" result="BackgroundImageFix"/>
<feColorMatrix in="SourceAlpha" type="matrix" values="0 0 0 0 0 0 0 0 0 0 0 0 0 0 0 0 0 0 127 0" result="hardAlpha"/>
<feOffset dy="4"/>
<feGaussianBlur stdDeviation="4"/>
<feColorMatrix type="matrix" values="0 0 0 0 0.552941 0 0 0 0 0.713726 0 0 0 0 0 0 0 0 0.3 0"/>
<feBlend mode="normal" in2="BackgroundImageFix" result="effect1_dropShadow_138_220"/>
<feBlend mode="normal" in="SourceGraphic" in2="effect1_dropShadow_138_220" result="shape"/>
</filter>
</defs>
</svg>
