<svg width="180" height="171" viewBox="0 0 180 171" fill="none" xmlns="http://www.w3.org/2000/svg">
<path d="M78.7788 30.9184C67.9048 32.0106 62.9772 38.7696 59.5809 45.8011C50.1306 65.3815 42.1017 64.6104 27.8803 75.7053C11.0224 88.9639 18.8606 104.447 30.99 111.609C36.0517 114.551 41.5429 117.306 43.7004 123.154C45.3778 127.666 44.2048 133.711 44.3095 138.535C44.7536 156.256 62.0923 169.152 85.8448 154.224C99.9244 145.342 103.511 134.395 108.941 119.496C114.283 105.438 123.975 97.487 136.081 89.3071C165.049 69.6466 163.213 26.0699 104.176 38.6656C94.868 40.5632 87.5696 30.0477 78.7788 30.9184Z" fill="#D4E698"/>
<path d="M141.531 134.869L92.0313 133.998C92.0145 133.998 91.981 133.998 91.9643 133.998C90.8755 133.947 90.0212 133.076 90.0882 132.071C90.1552 131.066 91.0765 130.279 92.1653 130.346L139.738 132.758C138.616 130.296 139.621 122.121 143.222 123.042C144.294 123.31 144.546 124.131 144.596 125.991C144.629 127.85 144.445 134.45 143.809 134.885C143.189 135.287 141.631 134.902 141.531 134.869Z" fill="#009307"/>
<path opacity="0.35" d="M143.222 123.026C143.206 123.026 143.189 123.026 143.172 123.009C144.345 126.275 144.144 134.014 142.67 134.014C140.76 134.014 106.219 133.595 105.382 132.691C104.779 132.038 106.069 131.468 107.761 131.133L94.6948 130.463C92.6512 130.966 91.0934 131.87 90.5908 133.394C90.9258 133.729 91.4116 133.964 91.9476 133.998C91.9644 133.998 91.9979 133.998 92.0147 133.998L141.514 134.869C141.614 134.902 143.172 135.287 143.775 134.869C144.412 134.433 144.596 127.833 144.563 125.974C144.546 124.131 144.295 123.31 143.222 123.026Z" fill="#001E7C"/>
<path d="M30.0692 134.869L79.5684 133.998C79.5852 133.998 79.6187 133.998 79.6354 133.998C80.7243 133.947 81.5785 133.076 81.5115 132.071C81.4445 131.066 80.5232 130.279 79.4344 130.346L31.8616 132.758C32.9839 130.296 31.9788 122.121 28.3773 123.042C27.3053 123.31 27.054 124.131 27.0038 125.991C26.9703 127.85 27.1545 134.45 27.7911 134.885C28.4109 135.287 29.9519 134.902 30.0692 134.869Z" fill="#007F03"/>
<path opacity="0.35" d="M79.6354 133.998C80.7243 133.947 81.5785 133.076 81.5115 132.071C81.4613 131.066 80.5232 130.279 79.4344 130.346L64.4423 131.1C66.0336 131.904 66.6869 132.842 64.459 133.277C61.3768 133.864 30.9235 134.601 29.6672 133.612C28.6286 132.791 28.4611 125.505 28.4276 123.026C28.4108 123.026 28.3941 123.026 28.3773 123.042C27.3053 123.31 27.054 124.131 27.0038 125.991C26.9703 127.85 27.1545 134.45 27.7911 134.885C28.4109 135.304 29.9519 134.902 30.0525 134.885L79.5517 134.014C79.5852 134.014 79.6019 133.998 79.6354 133.998Z" fill="#001E7C"/>
<path d="M83.2702 38.9355C83.0859 38.9355 82.9184 38.8183 82.8682 38.6508C82.7844 38.433 82.9017 38.1818 83.1362 38.098C85.0793 37.3945 85.7326 35.0158 85.2468 33.1397C85.1966 32.9387 85.0961 32.6037 84.8951 32.2519C84.8783 32.3189 84.8448 32.3859 84.8113 32.4529C84.0408 34.2788 81.7794 35.3843 79.8865 34.8818C78.7307 34.5803 77.9601 33.6757 78.0104 32.6707C78.0439 32.0341 78.4794 30.5098 81.8464 29.957C82.6504 29.823 83.354 29.9235 83.9235 30.158C83.6387 29.6555 83.1362 29.1697 82.4326 28.7509C78.3286 26.2718 73.4709 29.8565 73.4374 29.89C73.2531 30.0408 72.9683 29.9905 72.8343 29.8062C72.6836 29.622 72.7338 29.3372 72.9181 29.2032C73.1358 29.0357 78.2784 25.2332 82.8849 28.0139C84.2083 28.8179 84.9621 29.8565 85.0626 30.9788C85.5651 31.5316 85.9001 32.2184 86.0844 32.9052C86.6707 35.1666 85.8499 38.031 83.4377 38.9021C83.3707 38.9356 83.3204 38.9355 83.2702 38.9355ZM82.5331 30.7778C82.3489 30.7778 82.1646 30.7946 81.9636 30.8281C79.719 31.1966 78.8982 32.0509 78.8647 32.7377C78.8312 33.3072 79.3505 33.8767 80.0875 34.061C81.7291 34.4965 83.4712 33.391 84.0072 32.1179C84.1078 31.8666 84.1748 31.6154 84.1915 31.3641C83.8062 31.0291 83.2702 30.7778 82.5331 30.7778Z" fill="#009307"/>
<path d="M85.4146 134.684C112.438 134.684 134.344 112.778 134.344 85.7546C134.344 58.7315 112.438 36.825 85.4146 36.825C58.3914 36.825 36.4849 58.7315 36.4849 85.7546C36.4849 112.778 58.3914 134.684 85.4146 134.684Z" fill="#16D631"/>
<path d="M81.9468 36.9422C80.5229 40.3092 79.3001 44.5472 79.6016 49.1705C80.0874 56.6414 76.2012 56.6414 77.1727 63.5261C78.1443 70.4107 81.93 78.1664 81.3437 82.0527C80.7574 85.9389 77.558 92.4383 79.1158 100.295C80.6737 108.151 82.4158 107.765 82.7005 115.236C82.9853 122.707 84.8279 122.607 87.7426 128.419C88.7979 130.547 89.7025 132.641 90.4395 134.45C91.8969 134.299 93.3542 134.081 94.778 133.813C94.5938 131.837 94.577 129.642 94.9288 127.649C95.9003 122.322 97.944 118.821 96.7714 114.466C95.6156 110.094 96.2856 107.866 96.0008 104.968C95.7161 102.053 95.6156 98.3682 95.7161 95.1687C95.8166 91.9693 93.6725 89.7414 94.0745 86.7262C94.4598 83.7278 93.5887 81.6842 92.7177 76.7426C91.8466 71.8011 92.8181 67.9148 92.9187 64.0453C93.0192 60.1591 88.5466 55.7033 87.1061 51.1471C85.6487 46.5908 83.6219 46.0045 84.6772 42.8051C85.1629 41.3645 85.1797 39.0193 85.0792 36.8585L81.9468 36.9422Z" fill="#B8F754"/>
<path d="M80.674 134.467C77.843 134.199 75.0959 133.679 72.4325 132.959C71.4107 132.339 70.1878 131.585 68.697 130.597C63.1356 126.845 65.2128 121.937 64.0402 118.319C62.8844 114.7 60.288 115.856 59.3834 111.853C58.4789 107.849 60.5392 105.521 56.8038 99.8254C53.0515 94.1301 54.9947 84.18 58.0936 78.8699C61.1925 73.5599 57.9596 71.6335 63.0016 65.1676C68.0437 58.7017 59.5174 52.5039 65.7153 48.3496C71.4441 44.5304 72.935 40.2924 79.3171 37.2269C79.7527 37.1767 80.1882 37.1264 80.6405 37.0762C80.2719 37.562 79.5684 38.3827 78.2618 39.6893C75.7994 42.1517 72.7005 45.636 71.7959 49.0029C70.8914 52.3699 72.9685 57.5459 70.6401 59.087C68.3117 60.6448 67.7924 61.6667 68.5797 65.0336C69.3503 68.4006 67.4072 73.8279 67.9264 76.7928C68.4457 79.7745 70.3888 86.8769 68.697 89.2053C67.0219 91.5337 66.8879 94.7667 66.5026 100.847C66.1173 106.928 67.9264 108.352 69.2163 111.065C70.5061 113.779 69.8696 117.397 70.8914 120.513C71.9299 123.612 74.8949 126.208 76.4527 129.441C77.7928 132.205 77.7928 132.976 80.674 134.467Z" fill="#B8F754"/>
<path d="M73.1694 38.366C71.8293 38.9188 70.5395 39.5051 69.6014 40.0411C66.5025 41.8502 65.2127 43.0228 62.4822 44.4299C59.7686 45.8537 58.864 48.8186 57.9595 52.8389C57.0549 56.8424 55.4971 57.6297 54.3413 60.5946C53.1854 63.5763 47.8754 70.4275 48.6459 73.6604C49.4165 76.8933 46.1835 87.1115 46.4515 91.1149C46.7028 95.1184 43.9891 98.2341 45.413 100.814C46.8368 103.393 48.3946 105.605 49.9357 110.513C51.4936 115.421 54.0732 120.077 57.5742 125.002C58.0432 125.656 58.5458 126.326 59.065 126.979C57.3899 125.907 55.7986 124.751 54.2743 123.478C51.5941 120.412 47.7246 116.493 45.0277 113.092C41.0242 108.05 43.9891 106.241 40.1196 101.45C36.2334 96.6595 39.0811 89.4231 40.1196 85.8049C41.1582 82.1867 41.6775 80.2435 42.314 73.9117C42.9673 67.5798 47.1048 58.7855 49.6845 55.0333C52.2641 51.2811 50.723 51.147 54.3413 48.7014C56.0499 47.5288 56.6026 46.7248 57.0549 45.8537C61.8625 42.4533 67.3065 39.8736 73.1694 38.366Z" fill="#B8F754"/>
<path d="M114.31 114.734C112.853 118.52 110.909 122.791 110.239 127.733C110.223 127.8 110.223 127.883 110.206 127.95C108.682 128.855 107.107 129.676 105.465 130.396C105.951 128.336 106.537 126.242 107.124 124.717C108.765 120.546 109.653 112.69 108.095 108.905C106.537 105.119 109.553 100.663 109.352 96.492C109.151 92.321 106.638 85.1516 105.767 80.8801C104.896 76.6086 105.566 69.4391 103.438 66.0387C101.311 62.6382 102.182 57.3114 100.926 54.2962C99.6695 51.281 92.9691 47.7968 92.5838 43.8268C92.3325 41.1969 90.5402 38.5168 89.0996 36.9589C89.4681 36.9924 89.8366 37.0259 90.2052 37.0594C92.0645 38.1315 94.4097 39.6391 95.6827 41.1299C98.0111 43.8436 99.8537 45.6862 102.383 48.0146C104.896 50.343 106.454 55.2845 108.782 58.2997C111.11 61.2981 111.78 66.4407 112.853 69.5564C113.925 72.6553 115.566 80.6121 114.494 84.1968C113.422 87.7815 113.807 94.4819 114.879 100.395C115.968 106.291 115.767 110.948 114.31 114.734Z" fill="#B8F754"/>
<path d="M130.977 101.97C128.381 105.169 128.85 107.045 128.247 109.441L114.628 125.019C114.109 125.404 113.59 125.773 113.07 126.141C113.221 125.924 113.372 125.723 113.523 125.522C117.007 120.613 119.603 115.957 121.161 111.032C122.719 106.124 124.26 103.913 125.684 101.333C127.108 98.7534 124.394 95.6377 124.645 91.6343C124.897 87.6308 121.664 77.4126 122.451 74.1797C123.221 70.9467 117.928 64.0956 116.756 61.1139C115.6 58.1322 114.042 57.3617 113.137 53.3582C112.233 49.3547 111.328 46.373 108.615 44.9492C105.901 43.5253 104.611 42.3695 101.495 40.5604C99.8873 39.6224 97.2742 38.5838 95.1133 37.7965C101.964 39.1701 108.28 41.9675 113.774 45.8872C114.31 46.9593 114.712 47.8471 116.756 49.2374C120.374 51.6998 118.833 51.8171 121.412 55.5693C123.992 59.3216 128.13 68.1158 128.783 74.4477C129.436 80.7796 129.939 82.7227 130.977 86.3409C132.016 89.9424 134.847 97.1956 130.977 101.97Z" fill="#B8F754"/>
<path opacity="0.15" d="M119.804 120.58C110.96 129.307 98.832 134.684 85.4312 134.684C58.4118 134.684 36.5015 112.774 36.5015 85.7546C36.5015 81.2988 37.1045 76.9771 38.2101 72.8731C37.5233 89.3729 43.6709 108.435 59.5844 119.826C78.2282 133.193 103.673 130.43 119.804 120.58Z" fill="#0724A0"/>
<path opacity="0.15" d="M47.2893 55.0835C40.5219 63.4758 36.4849 74.1461 36.4849 85.7546C36.4849 112.774 58.3952 134.684 85.4146 134.684C105.231 134.684 122.3 122.892 129.989 105.956C117.828 123.344 88.078 130.044 64.9448 115.705C41.5604 101.233 41.8284 71.4325 47.2893 55.0835Z" fill="#0724A0"/>
<path opacity="0.15" d="M134.361 85.7546C134.361 85.2353 134.344 84.7328 134.328 84.2135C132.518 101.333 124.629 117.95 100.893 117.95C55.4638 117.95 46.1837 74.4812 50.4887 51.4821C41.8284 60.3098 36.4849 72.4041 36.4849 85.7379C36.4849 112.757 58.3952 134.668 85.4146 134.668C112.451 134.684 134.361 112.774 134.361 85.7546Z" fill="#0724A0"/>
<path opacity="0.2" d="M67.2566 46.44C75.0961 43.5086 97.4084 39.3208 112.752 49.9912C128.113 60.6616 132.418 80.6958 128.482 88.1835C124.545 95.6712 110.508 102.79 85.4147 85.7546C60.3384 68.7189 51.7116 52.2359 67.2566 46.44Z" fill="white"/>
<path opacity="0.2" d="M86.9054 45.6527C92.2993 45.9542 107.258 48.2993 116.303 54.6982C125.349 61.0971 126.304 68.9198 123.037 70.8965C119.771 72.8731 109.938 72.9736 95.1302 62.655C80.3223 52.3363 76.2183 45.0329 86.9054 45.6527Z" fill="white"/>
<path d="M76.6875 66.3067C75.5317 66.0722 74.1749 66.7087 73.3373 67.5965C73.1028 67.831 72.4998 68.5011 72.617 68.9031C72.7845 69.5229 73.153 69.1208 73.4211 68.9031C74.2586 68.2163 74.8784 67.563 76.0342 67.6133C76.4195 67.63 76.7713 67.8645 77.0728 67.4625C77.3743 67.0605 77.1398 66.4072 76.6875 66.3067Z" fill="#007F03"/>
<path opacity="0.35" d="M78.0106 85.1683C81.9332 85.1683 85.1131 81.5235 85.1131 77.0273C85.1131 72.5312 81.9332 68.8864 78.0106 68.8864C74.0881 68.8864 70.9082 72.5312 70.9082 77.0273C70.9082 81.5235 74.0881 85.1683 78.0106 85.1683Z" fill="#0724A0"/>
<path d="M78.7309 85.2353C81.8116 85.2353 84.309 81.9505 84.309 77.8984C84.309 73.8463 81.8116 70.5615 78.7309 70.5615C75.6502 70.5615 73.1528 73.8463 73.1528 77.8984C73.1528 81.9505 75.6502 85.2353 78.7309 85.2353Z" fill="#FFFBE9"/>
<path d="M78.7309 71.4493C75.766 71.4493 73.3371 74.4979 73.1696 78.3507C73.1696 78.1999 73.1528 78.0491 73.1528 77.9151C73.1528 73.8614 75.6487 70.5782 78.7309 70.5782C81.8131 70.5782 84.309 73.8614 84.309 77.9151C84.309 78.0659 84.309 78.2167 84.2922 78.3507C84.108 74.4979 81.6958 71.4493 78.7309 71.4493Z" fill="#EAE6D6"/>
<path d="M79.374 83.1234C80.5006 82.8242 81.1714 81.6683 80.8721 80.5417C80.5729 79.4151 79.417 78.7443 78.2904 79.0435C77.1638 79.3428 76.4931 80.4986 76.7923 81.6253C77.0915 82.7519 78.2474 83.4226 79.374 83.1234Z" fill="black"/>
<path d="M76.5869 79.6405C76.5869 80.0593 76.9219 80.3943 77.3407 80.3943C77.7595 80.3943 78.0945 80.0593 78.0945 79.6405C78.0945 79.2217 77.7595 78.8867 77.3407 78.8867C76.9219 78.8867 76.5869 79.2217 76.5869 79.6405Z" fill="white"/>
<path opacity="0.95" d="M72.3322 87.3795C74.3675 87.3795 76.0174 86.7345 76.0174 85.9389C76.0174 85.1433 74.3675 84.4983 72.3322 84.4983C70.2969 84.4983 68.647 85.1433 68.647 85.9389C68.647 86.7345 70.2969 87.3795 72.3322 87.3795Z" fill="#FFA1A1"/>
<path d="M94.1588 66.3067C95.3146 66.0722 96.6714 66.7087 97.509 67.5965C97.7435 67.831 98.3465 68.5011 98.2293 68.9031C98.0618 69.5229 97.6932 69.1208 97.4252 68.9031C96.5877 68.2163 95.9679 67.563 94.8121 67.6133C94.4268 67.63 94.075 67.8645 93.7735 67.4625C93.472 67.0605 93.6897 66.4072 94.1588 66.3067Z" fill="#007F03"/>
<path opacity="0.35" d="M92.8353 85.1683C96.7579 85.1683 99.9378 81.5235 99.9378 77.0273C99.9378 72.5312 96.7579 68.8864 92.8353 68.8864C88.9128 68.8864 85.7329 72.5312 85.7329 77.0273C85.7329 81.5235 88.9128 85.1683 92.8353 85.1683Z" fill="#0724A0"/>
<path d="M92.1147 85.2353C95.1954 85.2353 97.6928 81.9505 97.6928 77.8984C97.6928 73.8463 95.1954 70.5615 92.1147 70.5615C89.034 70.5615 86.5366 73.8463 86.5366 77.8984C86.5366 81.9505 89.034 85.2353 92.1147 85.2353Z" fill="#FFFBE9"/>
<path d="M92.1147 71.4493C95.0796 71.4493 97.5085 74.4979 97.676 78.3507C97.676 78.1999 97.6928 78.0491 97.6928 77.9151C97.6928 73.8614 95.1969 70.5782 92.1147 70.5782C89.0325 70.5782 86.5366 73.8614 86.5366 77.9151C86.5366 78.0659 86.5366 78.2167 86.5534 78.3507C86.7209 74.4979 89.1498 71.4493 92.1147 71.4493Z" fill="#EAE6D6"/>
<path d="M94.1094 81.4181C94.2962 80.2675 93.5148 79.1833 92.3642 78.9966C91.2135 78.8098 90.1294 79.5912 89.9426 80.7418C89.7559 81.8925 90.5373 82.9766 91.6879 83.1634C92.8385 83.3501 93.9227 82.5687 94.1094 81.4181Z" fill="black"/>
<path d="M93.4887 80.3943C93.905 80.3943 94.2425 80.0568 94.2425 79.6405C94.2425 79.2242 93.905 78.8867 93.4887 78.8867C93.0723 78.8867 92.7349 79.2242 92.7349 79.6405C92.7349 80.0568 93.0723 80.3943 93.4887 80.3943Z" fill="white"/>
<path opacity="0.95" d="M98.4972 87.3795C100.533 87.3795 102.182 86.7345 102.182 85.9389C102.182 85.1433 100.533 84.4983 98.4972 84.4983C96.4619 84.4983 94.812 85.1433 94.812 85.9389C94.812 86.7345 96.4619 87.3795 98.4972 87.3795Z" fill="#FFA1A1"/>
<path d="M79.6021 87.145C79.6356 87.2288 80.6741 89.7917 82.902 91.316C83.9406 92.0363 85.2471 92.5388 86.8385 92.4383C88.3461 92.3378 89.4014 91.8185 90.1217 91.1317C91.8135 89.5236 91.7968 87.0445 91.7968 87.0445C91.7968 87.0445 90.574 87.949 88.2623 88.3176C87.7095 88.4013 87.0898 88.4683 86.403 88.4683C86.3695 88.4683 86.3192 88.4683 86.2857 88.4683C86.2187 88.4683 86.1517 88.4683 86.0847 88.4683C85.4984 88.4516 84.9456 88.4181 84.4263 88.3678C81.6122 88.0496 79.6691 87.1617 79.6021 87.145Z" fill="#007F03"/>
<path d="M82.9019 91.3159C83.9404 92.0362 85.247 92.5388 86.8383 92.4383C88.3459 92.3377 89.4012 91.8185 90.1215 91.1317C89.7865 90.7632 89.2505 90.5119 88.6139 90.4449C87.7764 90.3611 87.0059 90.6291 86.5703 91.0814C86.2353 90.7632 85.716 90.5286 85.1297 90.4616C84.1749 90.3444 83.2704 90.7129 82.9019 91.3159Z" fill="#FF5252"/>
<path d="M86.4194 88.4683L86.4529 89.3059C86.4529 89.4901 86.6874 89.6576 86.9722 89.6576H87.8433C88.128 89.6576 88.3291 89.5069 88.3291 89.3226L88.2788 88.3176C87.7093 88.4013 87.1062 88.4516 86.4194 88.4683Z" fill="white"/>
<path d="M84.4263 88.351V89.2388C84.4263 89.4231 84.644 89.5906 84.9288 89.5906L85.7998 89.6073C86.0846 89.6073 86.3024 89.4566 86.3024 89.2723V88.4515C86.2354 88.4515 86.1684 88.4515 86.1014 88.4515C85.5151 88.4515 84.9456 88.418 84.4263 88.351Z" fill="white"/>
<path d="M85.8668 92.5723C81.4445 92.187 79.4679 87.3962 79.3842 87.1784C79.3674 87.1114 79.4009 87.0612 79.4679 87.0277C79.5349 86.9942 79.6354 86.9942 79.7192 87.0277C79.7527 87.0445 82.4663 88.2673 86.0678 88.3175C89.6358 88.3845 91.5956 86.9607 91.6291 86.9439C91.6961 86.8937 91.7799 86.8769 91.8804 86.9104C91.9642 86.9272 92.0312 86.9942 92.0312 87.0612C92.0312 87.1114 91.9977 92.2875 86.8718 92.6058C86.5201 92.6058 86.1851 92.6058 85.8668 92.5723ZM79.9872 87.4632C80.5735 88.6693 82.7846 92.5388 86.8048 92.2875C90.7748 92.0362 91.4449 88.552 91.5621 87.3962C90.7916 87.8317 88.9322 88.6525 86.0846 88.6023C83.2201 88.5688 80.9587 87.8317 79.9872 87.4632Z" fill="#006B00"/>
<path d="M54.8607 105.772C52.7166 107.799 52.214 111.317 52.08 114.114C51.946 117.364 52.415 120.63 53.3531 123.746C55.1455 129.642 58.7972 135.12 64.2748 138.135C64.9448 138.504 67.2564 139.04 67.2732 140.028C67.3067 141.72 64.4925 140.095 63.8895 139.81C61.0753 138.453 58.5794 136.477 56.5525 134.115C52.3313 129.24 49.9191 122.808 49.4334 116.409C49.1653 112.875 49.4166 109.005 51.075 105.806C51.611 104.75 52.6496 102.841 54.0734 103.109C55.313 103.36 55.7652 104.935 54.8607 105.772Z" fill="#05C941"/>
<path opacity="0.35" d="M64.2748 138.152C58.7972 135.12 55.1288 129.642 53.3532 123.763C52.4151 120.664 51.9461 117.381 52.0801 114.131C52.1973 111.333 52.6999 107.816 54.8608 105.789C55.7653 104.935 55.3298 103.36 54.0902 103.142C53.8389 103.092 53.6044 103.109 53.3867 103.176C54.3247 103.628 54.5927 104.951 53.7719 105.705C51.6278 107.732 51.1253 111.25 50.9913 114.047C50.8573 117.297 51.3263 120.563 52.2643 123.679C54.0567 129.575 57.7084 135.053 63.186 138.068C63.856 138.437 66.1677 138.973 66.1844 139.961C66.2012 140.363 66.0337 140.581 65.7824 140.664C66.5697 140.899 67.2732 140.899 67.2565 140.045C67.2565 139.04 64.9616 138.52 64.2748 138.152Z" fill="#001E7C"/>
<path d="M66.5192 139.643C66.8039 139.492 67.1055 139.391 67.4237 139.341C69.8861 138.989 71.377 138.688 72.9348 139.693C74.5932 140.782 75.0119 141.686 74.8444 142.356C74.6769 143.026 71.31 144.902 68.278 143.897C65.2461 142.892 65.2461 140.313 65.2461 140.313L66.5192 139.643Z" fill="#05C941"/>
<path opacity="0.35" d="M72.9348 139.71C71.3435 138.671 69.8359 139.006 67.3065 139.375C67.072 139.408 66.8374 139.492 66.6197 139.592L65.2461 140.329C65.2461 140.581 65.7486 140.329 66.3182 140.195C66.6699 140.078 67.1222 139.994 67.7252 139.911C69.9364 139.592 71.3435 139.375 72.8176 140.329C74.1409 141.184 74.6769 141.938 74.7607 142.557C74.8109 142.49 74.8444 142.423 74.8612 142.373C75.0119 141.703 74.6099 140.782 72.9348 139.71Z" fill="#001E7C"/>
<path d="M112.618 105.772C114.763 107.799 115.265 111.317 115.399 114.114C115.533 117.364 115.064 120.63 114.126 123.746C112.334 129.642 108.682 135.12 103.204 138.135C102.534 138.504 100.223 139.04 100.206 140.028C100.172 141.72 102.987 140.095 103.59 139.81C106.404 138.453 108.9 136.477 110.927 134.115C115.148 129.24 117.56 122.808 118.046 116.409C118.314 112.875 118.062 109.005 116.404 105.806C115.868 104.75 114.83 102.841 113.406 103.109C112.149 103.36 111.714 104.935 112.618 105.772Z" fill="#05C941"/>
<path opacity="0.35" d="M103.188 138.152C108.665 135.12 112.334 129.642 114.109 123.763C115.047 120.664 115.516 117.381 115.382 114.131C115.265 111.333 114.762 107.816 112.602 105.789C111.697 104.935 112.133 103.36 113.372 103.142C113.623 103.092 113.858 103.109 114.076 103.176C113.138 103.628 112.87 104.951 113.69 105.705C115.835 107.732 116.337 111.25 116.471 114.047C116.605 117.297 116.136 120.563 115.198 123.679C113.406 129.575 109.754 135.053 104.276 138.068C103.606 138.437 101.295 138.973 101.278 139.961C101.261 140.363 101.429 140.581 101.68 140.664C100.893 140.899 100.189 140.899 100.206 140.045C100.206 139.04 102.518 138.52 103.188 138.152Z" fill="#001E7C"/>
<path d="M100.96 139.643C100.675 139.492 100.373 139.391 100.055 139.341C97.5926 138.989 96.1017 138.688 94.5439 139.693C92.8856 140.782 92.4668 141.686 92.6343 142.356C92.8018 143.026 96.1687 144.902 99.2007 143.897C102.233 142.892 102.233 140.313 102.233 140.313L100.96 139.643Z" fill="#05C941"/>
<path opacity="0.35" d="M94.5272 139.71C96.1185 138.671 97.6261 139.006 100.156 139.375C100.39 139.408 100.625 139.492 100.842 139.592L102.216 140.329C102.216 140.581 101.713 140.329 101.144 140.195C100.792 140.078 100.34 139.994 99.7367 139.911C97.5256 139.592 96.1185 139.375 94.6444 140.329C93.3211 141.184 92.7851 141.938 92.7013 142.557C92.651 142.49 92.6176 142.423 92.6008 142.373C92.45 141.703 92.8688 140.782 94.5272 139.71Z" fill="#001E7C"/>
</svg>
