<svg width="180" height="171" viewBox="0 0 180 171" fill="none" xmlns="http://www.w3.org/2000/svg">
<path d="M78.7788 30.9184C67.9048 32.0106 62.9772 38.7696 59.5809 45.8011C50.1306 65.3815 42.1017 64.6104 27.8803 75.7053C11.0224 88.9639 18.8606 104.447 30.99 111.609C36.0517 114.551 41.5429 117.306 43.7004 123.154C45.3778 127.666 44.2048 133.711 44.3095 138.535C44.7536 156.256 62.0923 169.152 85.8448 154.224C99.9244 145.342 103.511 134.395 108.941 119.496C114.283 105.438 123.975 97.487 136.081 89.3071C165.049 69.6466 163.213 26.0699 104.176 38.6656C94.868 40.5632 87.5696 30.0477 78.7788 30.9184Z" fill="#FFB4C8"/>
<path d="M93.9679 118.243C92.2641 114.731 91.0123 110.802 90.004 107.012C89.4128 104.821 88.7522 102.422 88.787 100.092C88.926 93.9379 95.5674 100.092 97.8275 101.344C103.808 104.682 109.198 108.09 113.822 113.236C116.048 115.705 121.542 122.729 120.603 126.484C120.081 128.57 116.708 129.127 114.796 129.579C110.45 130.552 102.661 132.534 99.4965 128.431C97.3059 125.615 95.5326 121.477 93.9679 118.243Z" fill="#CE1F4A"/>
<path d="M89.3435 78.6734C91.3255 74.5356 93.2379 70.1196 95.6024 66.1557C100.47 58.0192 109.476 52.7339 118.586 49.8131C125.332 47.6225 131.73 47.5182 137.119 52.1776C142.196 56.5935 144.248 63.7216 141.188 69.7719C139.693 72.7274 137.606 75.3701 136.25 78.3952C135.068 81.0378 134.72 83.8891 134.094 86.636C132.773 92.7558 131.417 98.7712 129.331 104.682C126.549 112.68 120.186 116.053 111.284 113.48C105.338 111.776 100.227 107.221 96.576 102.596C93.829 99.0842 90.4214 95.8156 88.6133 91.7474C86.7357 87.5053 87.2225 82.985 89.2044 78.8472C89.274 78.8124 89.3088 78.7429 89.3435 78.6734Z" fill="#F05689"/>
<path d="M100.783 76.8305C98.4884 77.4564 91.4298 81.2465 89.4478 78.882C87.3615 76.448 92.9945 72.1364 94.594 70.9542C98.6623 67.9638 102.418 65.1473 107.042 62.9915C111.284 61.0443 116.813 57.7758 121.333 60.0012C125.61 62.0875 124.567 65.4255 120.846 67.79C114.727 71.7191 107.807 74.8833 100.783 76.8305Z" fill="#F285B1"/>
<path d="M109.163 77.9085C111.875 78.0476 118.864 79.7514 116.952 83.5415C115.317 86.8448 109.371 86.2537 106.381 86.2537C102.695 86.2537 98.6271 85.9059 95.2891 84.2717C91.4294 82.3593 94.2112 80.1687 96.8885 79.508C100.957 78.5692 104.99 77.6999 109.163 77.9085Z" fill="#F285B1"/>
<path d="M106.416 93.3122C108.155 95.3637 111.667 101.657 107.598 102.874C104.052 103.917 100.435 99.1538 98.4187 96.9979C95.9152 94.2858 93.4116 91.0868 92.3337 87.5401C91.1167 83.4023 94.5939 83.9587 96.9235 85.4886C100.331 87.7487 103.739 90.148 106.416 93.3122Z" fill="#F285B1"/>
<path d="M69.1412 114.488C71.7143 111.532 73.9049 108.055 75.8521 104.648C76.9996 102.666 78.2513 100.51 78.7729 98.2845C80.1985 92.3038 72.2359 96.5459 69.7323 97.1718C63.1258 98.8756 57.006 100.753 51.234 104.578C48.4523 106.421 41.3589 111.776 41.2893 115.67C41.2546 117.826 44.384 119.252 46.1226 120.121C50.0517 122.172 57.1103 126.067 61.2134 122.937C64.0298 120.747 66.7768 117.2 69.1412 114.488Z" fill="#CE1F4A"/>
<path d="M40.1767 43.5544C37.1516 46.3709 38.4729 53.7076 39.2379 57.2891C40.4549 62.9916 42.8194 69.2504 40.8374 75.0225C38.6468 81.3856 35.5174 87.3663 34.8219 94.1815C34.1265 101.344 38.4034 105.447 44.9404 107.325C54.7807 110.176 64.7253 102.353 73.4182 98.9104C77.2778 97.3805 81.5895 96.546 84.9275 94.0077C88.1265 91.5737 88.6481 88.2356 88.7524 84.4108C88.8567 80.7598 88.6481 77.0392 87.744 73.4925C86.979 70.4674 85.1362 68.2768 83.6758 65.5299C80.6159 59.6883 77.4865 53.5685 71.6101 50.0914C66.3944 47.0315 60.5875 44.0759 54.7112 42.8589C50.2257 41.9201 44.0711 39.9729 40.1767 43.5544Z" fill="#F05689"/>
<path d="M93.0637 110.489C92.6812 113.897 91.8467 117.443 90.282 120.434C88.6825 123.459 86.3876 125.962 83.1191 127.145C76.582 129.544 69.3496 124.119 68.9323 117.374C68.8976 117.061 68.8976 116.713 68.9323 116.4C69.0366 113.306 70.4275 110.315 72.027 107.499C73.2092 105.447 74.4958 103.465 75.5041 101.588C76.0605 100.544 76.6168 99.5013 77.2079 98.4582C78.6335 95.8503 80.0592 93.2425 81.2414 90.5303C81.9021 89.0004 82.5279 87.4704 83.0147 85.871C83.9188 82.9502 86.7701 79.2296 90.2472 81.6288C91.6728 82.6024 90.9774 82.4634 91.1165 84.0628C91.2903 86.1491 91.3947 88.2702 91.6033 90.3217C91.6381 90.5999 91.6728 90.878 91.7076 91.1562C92.0205 93.8336 92.403 96.511 92.7507 99.1536C92.9594 100.892 93.1332 102.631 93.2375 104.404C93.3418 106.247 93.3071 108.368 93.0637 110.489Z" fill="black"/>
<path d="M92.7508 99.1535C89.3432 99.8837 85.6575 99.849 82.2499 99.3622C80.9633 99.1883 79.0509 98.9449 77.208 98.4581C78.6336 95.8502 80.0593 93.2424 81.2415 90.5302C82.4585 90.9127 83.5712 91.1561 84.0232 91.2256C86.6658 91.5734 89.2041 91.5038 91.7077 91.1213C92.0206 93.8335 92.4031 96.4761 92.7508 99.1535Z" fill="#353535"/>
<path d="M93.0641 110.489C92.6816 113.897 91.8471 117.443 90.2824 120.434C87.5006 120.99 83.954 120.781 82.1806 120.816C77.2431 120.99 72.7923 119.321 68.8979 116.4C69.0023 113.306 70.3931 110.315 71.9926 107.499C74.218 108.611 76.8258 109.237 79.0164 109.689C83.5019 110.663 88.6133 111.88 93.0641 110.489Z" fill="#353535"/>
<path d="M67.5069 67.9638C69.315 69.1808 73.6614 73.2838 75.9911 71.8234C79.1205 69.8414 73.6266 64.3476 72.3749 62.6785C69.4541 58.8189 62.7084 54.3334 57.7013 54.7159C54.7806 54.9245 51.4425 57.1151 53.042 60.5575C54.3633 63.4087 58.5011 63.4087 61.0394 64.3128C63.5082 65.1473 65.3163 66.4686 67.5069 67.9638Z" fill="#F285B1"/>
<path d="M73.8353 80.8292C75.1219 80.8988 77.5211 80.9335 77.9731 79.0906C78.7033 76.2046 73.3138 74.7442 71.7143 74.2922C67.9242 73.2143 56.5887 67.5118 54.2938 74.6747C52.8682 79.0211 57.3537 79.2297 59.8225 79.7513C64.3427 80.7597 69.2455 80.551 73.8353 80.8292Z" fill="#F285B1"/>
<path d="M78.3905 82.4287C74.6352 82.9503 51.6165 88.0964 55.5457 94.8769C57.4929 98.1801 66.2205 93.5903 68.8284 92.6863C72.3751 91.4345 77.3126 88.8266 80.1986 86.3579C81.1374 85.5581 81.6938 84.4802 82.1806 83.4023C81.1722 82.6373 79.3989 82.1505 78.3905 82.6721" fill="#F285B1"/>
<path d="M91.1163 56.6979C99.218 58.9928 101.235 68.7983 100.435 76.8305C99.6353 85.0018 89.2386 86.949 81.9367 85.6972C78.1118 85.0366 73.8001 83.5761 71.0184 80.4467C67.6804 76.6566 67.6108 71.0584 69.4885 66.4686C73.0352 57.8105 83.0493 54.403 91.1163 56.6979Z" fill="#BA202C"/>
<path d="M69.7322 70.363C70.4276 75.0224 76.1649 76.6914 79.9898 74.6399C84.371 72.2407 83.2235 65.043 79.0162 63.1653C75.852 61.7397 72.2358 62.8524 70.6015 65.9818C69.767 67.5813 69.5236 69.0765 69.7322 70.363Z" fill="white"/>
<path d="M79.7812 70.0501C82.4586 67.79 80.7548 63.5826 77.2777 63.826C74.1483 64.0694 72.7574 68.242 75.4696 70.0501C76.8257 70.9194 78.4251 71.1628 79.7812 70.0501Z" fill="black"/>
<path d="M79.0856 67.0945C80.2331 66.9902 80.6155 65.3212 79.5724 64.73C78.7379 64.278 77.6252 64.6605 77.66 65.6341C77.6947 66.4339 78.1815 67.1641 79.0856 67.0945Z" fill="white"/>
<path d="M85.1012 68.1028C85.8314 73.1099 92.0207 74.918 96.1585 72.6926C100.887 70.1196 99.6357 62.3655 95.1154 60.314C91.7078 58.7841 87.8134 59.9663 86.0748 63.3391C85.136 65.1125 84.8926 66.712 85.1012 68.1028Z" fill="white"/>
<path d="M95.9146 67.7551C98.8007 65.3558 96.9925 60.766 93.2025 61.0442C89.8296 61.2876 88.3345 65.8079 91.2553 67.7551C92.7504 68.7287 94.489 68.9721 95.9146 67.7551Z" fill="black"/>
<path d="M95.1846 64.591C96.4364 64.4519 96.8537 62.6786 95.7062 62.0527C94.8022 61.5659 93.5852 61.9831 93.6547 63.0263C93.6895 63.8955 94.211 64.6953 95.1846 64.591Z" fill="white"/>
<path d="M80.7197 77.5606C83.5362 77.8388 85.8311 77.4563 88.1608 75.4744C88.5781 79.8903 83.7101 80.8292 81.137 78.1518" fill="#F15D5E"/>
<path d="M87.0831 57.2195C87.6395 52.8383 87.6047 48.3875 88.8912 44.1454C89.378 42.5112 90.0735 40.8769 91.1514 39.5208C92.0554 38.4081 93.1681 37.4693 94.4199 36.8087C95.463 36.2871 96.7148 36.0089 97.8275 36.4957C99.0792 37.0868 99.879 38.4777 100.122 39.799C100.54 41.9548 99.0097 43.902 97.132 44.7713C96.7843 44.9452 96.228 45.0843 95.776 45.1538C95.8803 45.1538 95.7064 45.1538 95.7064 45.1538C95.6369 45.1538 95.6021 45.1538 95.5326 45.1538C95.4282 45.1538 95.3239 45.1538 95.2196 45.1538C94.9415 45.1538 94.9414 45.1538 94.6285 45.0842C94.246 44.9799 94.0026 44.8408 93.7245 44.5627C93.6897 44.5279 93.6549 44.4931 93.6201 44.4584C93.6897 44.5627 93.5854 44.4236 93.5854 44.3888C93.5158 44.2845 93.481 44.215 93.4115 44.1107C93.342 43.9716 93.2724 43.6934 93.2029 43.45C93.0986 42.9284 93.1333 42.2678 93.2724 41.7114C93.342 41.4333 93.3767 41.3637 93.5158 41.1203C93.5506 41.0855 93.5854 41.016 93.5854 40.9812C93.6897 40.8421 93.5158 41.0508 93.6201 40.9465C93.6549 40.9117 93.8635 40.7031 93.794 40.7726C93.8635 40.7031 93.9331 40.6683 94.0374 40.6335C94.0722 40.6335 94.2113 40.564 94.0722 40.6335C94.1069 40.6335 94.1417 40.5988 94.2113 40.5988C94.2808 40.564 94.3851 40.564 94.4546 40.5292C94.3156 40.564 94.5937 40.5292 94.6633 40.5292C94.7676 40.5292 94.8371 40.5292 94.9415 40.5292C94.8024 40.5292 95.0458 40.564 95.1153 40.564C95.2196 40.5987 95.2892 40.5987 95.3935 40.6335C95.463 40.6335 95.7064 40.7378 95.6021 40.7031C95.7412 40.7726 95.8803 40.8421 95.9846 40.9117C96.0541 40.9465 96.1237 40.9812 96.1585 41.016C96.1932 41.016 96.2975 41.1203 96.1932 41.016C96.228 41.0508 96.2628 41.0508 96.2975 41.0855C96.3323 41.1203 96.4018 41.1899 96.4366 41.2246C96.4714 41.2594 96.6105 41.4333 96.5062 41.2942C96.5409 41.3289 96.5757 41.3985 96.6105 41.4333C96.6105 41.468 96.6453 41.5028 96.6453 41.5028C96.7148 41.6071 96.6105 41.3637 96.6453 41.468C96.6453 41.5028 96.68 41.5723 96.68 41.6071C96.6453 41.3637 96.6453 41.781 96.68 41.5376C96.6453 41.6767 96.7148 41.5028 96.68 41.5723C96.6105 41.7114 96.7496 41.5376 96.6453 41.6419C96.5409 41.7462 96.7148 41.6071 96.6105 41.6767C96.5757 41.7114 96.3671 41.8157 96.4714 41.7462C96.2975 41.8157 96.0889 41.8505 95.8803 41.8853C95.1501 42.0244 95.463 43.1023 96.1932 42.9632C97.0625 42.8241 97.897 42.3373 97.7579 41.3289C97.6536 40.5987 96.9234 40.0424 96.3323 39.7295C95.5673 39.347 94.6633 39.1383 93.8288 39.4165C92.8204 39.7295 92.2641 40.7031 92.125 41.7114C91.9511 42.9284 92.0902 44.215 92.8552 45.1886C93.4811 45.9535 94.4894 46.2317 95.4283 46.2317C97.6188 46.1969 99.7747 44.7018 100.748 42.7893C102 40.3206 101.061 36.913 98.6272 35.5221C96.0541 34.0617 92.9595 35.9394 91.1514 37.7823C88.9608 39.9729 87.9176 42.9632 87.257 45.9535C86.492 49.6045 86.4225 53.3946 85.9704 57.0804C85.9357 57.3933 86.2486 57.6367 86.5268 57.6367C86.8745 57.7758 87.0483 57.5324 87.0831 57.2195Z" fill="#F15D5E"/>
<path d="M82.3543 57.1152C82.25 53.1164 81.2764 49.1177 79.955 45.3624C78.8424 42.233 77.4863 39.0688 74.8089 36.9825C72.8617 35.4873 70.1495 34.479 67.9937 36.1828C66.7767 37.1216 66.1508 38.6515 65.7683 40.1119C65.4554 41.2942 65.3858 42.6503 65.8031 43.8325C66.429 45.6058 68.2371 46.4751 70.0452 46.2665C71.7142 46.0579 73.4528 45.0843 73.9396 43.3805C74.2178 42.4069 73.9048 41.4333 73.418 40.5987C72.8964 39.6599 71.9229 38.8949 70.8102 39.2079C69.1759 39.6947 68.0632 42.5807 70.0452 43.3457C70.532 43.5543 71.0883 43.5195 71.6099 43.4152C71.9229 43.3805 72.0619 42.998 71.9924 42.7198C71.8881 42.4069 71.6099 42.2678 71.297 42.3373C71.1926 42.3721 71.0536 42.3721 70.9492 42.3721C70.8797 42.3721 70.8102 42.3721 70.7406 42.3721C70.7406 42.3721 70.532 42.3373 70.6711 42.3721C70.5668 42.3721 70.4625 42.3373 70.3581 42.3025C70.4972 42.3373 70.1147 42.1287 70.2538 42.2678C70.219 42.233 70.1843 42.1982 70.1495 42.1982C70.0452 42.0939 70.219 42.3025 70.1495 42.1982C70.1147 42.1635 70.1147 42.1287 70.08 42.0939C70.0104 41.9896 70.1147 42.1982 70.08 42.0939C70.08 42.0591 70.0104 41.8157 70.0452 41.9548C70.0452 41.8505 70.0452 41.7462 70.0452 41.6767C70.0452 41.5376 70.0104 41.8157 70.0452 41.6419C70.0452 41.6071 70.08 41.5723 70.08 41.5028C70.1147 41.3985 70.1147 41.3289 70.1495 41.2594C70.1147 41.3637 70.2191 41.1551 70.2191 41.0855C70.2886 40.9812 70.3234 40.9117 70.3929 40.8074C70.3234 40.9117 70.4972 40.7031 70.532 40.6683C70.6015 40.5988 70.6711 40.5292 70.7406 40.4944C70.6363 40.564 70.8449 40.4249 70.8797 40.4249C70.9145 40.3901 70.9493 40.3901 70.984 40.3553C70.8449 40.4249 71.0188 40.3554 71.0536 40.3206C71.0883 40.3206 71.1231 40.2858 71.1926 40.2858C71.0536 40.3206 71.1926 40.2858 71.2274 40.2858C71.2622 40.2858 71.3317 40.2858 71.3665 40.2858C71.5056 40.2858 71.2622 40.251 71.4013 40.2858C71.436 40.2858 71.6794 40.3901 71.5751 40.3206C71.6099 40.3554 71.6794 40.3553 71.7142 40.3901C71.749 40.3901 71.8881 40.5292 71.8185 40.4597C72.0272 40.6335 72.1663 40.8074 72.3053 41.016C72.4097 41.1551 72.4792 41.3289 72.5487 41.468C72.5835 41.5376 72.6183 41.6071 72.653 41.6419C72.7226 41.7462 72.6878 41.6767 72.6878 41.7462C72.7574 41.9201 72.8269 42.1287 72.8617 42.3373C72.8269 42.1982 72.8617 42.4764 72.8617 42.5112C72.8617 42.6155 72.8617 42.7198 72.8617 42.8241C72.8617 42.9632 72.8964 42.685 72.8617 42.8589C72.8617 42.8937 72.8617 42.9284 72.8269 42.998C72.7921 43.0675 72.7921 43.1718 72.7574 43.2414C72.7574 43.2761 72.7226 43.3109 72.7226 43.3805C72.7921 43.2414 72.7226 43.3805 72.7226 43.4152C72.6878 43.5195 72.6183 43.5891 72.5835 43.6934C72.4444 43.902 72.514 43.8325 72.3053 44.0411C72.2358 44.1106 72.1662 44.1802 72.0967 44.2497C72.0619 44.2845 71.8533 44.4584 71.9228 44.3888C71.7838 44.4931 71.6099 44.5975 71.4361 44.7018C71.3665 44.7365 71.2622 44.8061 71.1926 44.8409C71.1579 44.8756 71.1231 44.8756 71.0536 44.9104C70.984 44.9452 71.1231 44.8756 70.9492 44.9452C70.7754 45.0147 70.5668 45.0843 70.3929 45.119C70.2886 45.1538 70.2191 45.1538 70.1147 45.1886C70.08 45.1886 70.0104 45.1886 69.9756 45.2233C69.9409 45.2233 69.9061 45.2233 69.8713 45.2233C69.9409 45.2233 69.9409 45.2233 69.8713 45.2233C69.6627 45.2581 69.4888 45.2581 69.2802 45.2581C69.1759 45.2581 69.1064 45.2581 69.0021 45.2581C68.7934 45.2581 68.9673 45.2581 68.7934 45.2233C68.6196 45.1886 68.4109 45.1538 68.2371 45.0842C68.2023 45.0842 68.1328 45.0495 68.098 45.0495C68.2371 45.0843 68.098 45.0495 68.0632 45.0147C67.9589 44.9799 67.8546 44.9104 67.7851 44.8756C67.5069 44.7018 67.2287 44.4236 67.0549 44.1802C66.8115 43.7977 66.7071 43.4848 66.6028 42.9632C66.5333 42.5112 66.5333 41.8505 66.6028 41.3289C66.8115 39.9033 67.3678 38.3386 68.4457 37.3302C69.2107 36.6 70.2538 36.4262 71.2274 36.6C72.4096 36.8434 73.4876 37.5041 74.3916 38.2691C75.4348 39.1731 76.3736 40.2858 76.9995 41.5028C78.2512 43.9716 79.1901 46.6142 79.9203 49.2916C80.6157 51.8995 81.1025 54.5768 81.2068 57.289C81.2416 57.8454 82.389 57.8454 82.3543 57.1152Z" fill="#F15D5E"/>
<path d="M108.398 125.545C110.206 124.085 110.067 120.99 109.372 119.043C108.12 115.496 102.452 113.653 100.157 117.339C97.8623 121.06 104.26 128.883 108.398 125.545Z" fill="#F05689"/>
<path d="M53.3899 119.634C54.9546 120.608 57.2843 119.704 58.5709 118.661C60.9353 116.783 60.831 111.984 57.4234 111.22C54.0158 110.455 49.7737 117.374 53.3899 119.634Z" fill="#F05689"/>
<path d="M131.973 67.4769C136.389 67.4769 139.24 63.2348 137.815 59.2013C136.285 54.994 129.748 55.5503 127.175 58.5754C124.115 62.1221 127.801 67.4769 131.973 67.4769Z" fill="#F285B1"/>
<path d="M47.2005 56.072C50.6429 56.072 52.8335 52.7687 51.7208 49.6741C50.5385 46.4056 45.4619 46.8576 43.48 49.1873C41.1155 51.9342 43.9668 56.1068 47.2005 56.072Z" fill="#F285B1"/>
<path d="M125.088 87.714C128.913 87.714 131.382 84.063 130.13 80.5859C128.809 76.9349 123.176 77.4564 120.951 80.0295C118.308 83.1242 121.507 87.7488 125.088 87.714Z" fill="#F285B1"/>
<path d="M47.2352 80.864C49.9821 80.864 51.7555 78.2214 50.8514 75.7526C49.9126 73.1447 45.8443 73.4925 44.2448 75.3701C42.3672 77.5607 44.6273 80.864 47.2352 80.864Z" fill="#F285B1"/>
<path d="M116.326 109.62C119.525 109.62 121.576 106.56 120.533 103.674C119.455 100.649 114.726 101.066 112.884 103.222C110.658 105.76 113.301 109.62 116.326 109.62Z" fill="#F285B1"/>
<path d="M45.5315 103.257C48.7305 103.257 50.782 100.197 49.7388 97.311C48.6609 94.2859 43.932 94.7031 42.0891 96.859C39.8985 99.3973 42.5412 103.257 45.5315 103.257Z" fill="#F285B1"/>
</svg>
