<svg width="37" height="35" viewBox="0 0 37 35" fill="none" xmlns="http://www.w3.org/2000/svg">
<rect width="37" height="35" rx="11" fill="#EA4C76"/>
<g clip-path="url(#clip0_3048_2)">
<path d="M15.0937 25.6561V11.9062C15.0937 10.1803 16.4928 8.78125 18.2187 8.78125H15.875C14.1491 8.78125 12.75 10.1803 12.75 11.9062V25.6561C12.75 26.519 13.4496 27.2186 14.3125 27.2186C15.0547 27.2186 15.4017 26.7579 15.4918 26.6977C15.2444 26.4212 15.0937 26.0563 15.0937 25.6561Z" fill="#F4A5BA"/>
<path d="M20.4731 19.6571L18.9999 18.8825L17.5266 19.6571C16.9545 19.9579 16.2837 19.4708 16.393 18.8335L16.6744 17.193L15.4825 16.0312C15.0197 15.5801 15.2756 14.7916 15.9155 14.6986L17.5626 14.4593L18.2993 12.9667C18.5853 12.3872 19.4143 12.3869 19.7004 12.9667L20.437 14.4593L22.0842 14.6986C22.7238 14.7916 22.9803 15.5799 22.5172 16.0312L21.3252 17.193L21.6066 18.8335C21.7164 19.4732 21.0432 19.9568 20.4731 19.6571ZM17.7067 16.0173L18.0592 16.3608C18.2433 16.5403 18.3273 16.7989 18.2838 17.0523L18.2006 17.5375L18.6363 17.3084C18.8639 17.1887 19.1358 17.1887 19.3634 17.3084L19.7991 17.5375L19.7159 17.0523C19.6724 16.7989 19.7565 16.5403 19.9406 16.3608L20.293 16.0172L19.8059 15.9464C19.5515 15.9095 19.3315 15.7497 19.2177 15.5191L18.9998 15.0777L18.782 15.5191C18.6682 15.7497 18.4482 15.9095 18.1937 15.9464L17.7067 16.0173Z" fill="white"/>
<path d="M22.1252 27.4034L19.5204 25.0734C19.2246 24.8089 18.7756 24.8085 18.4795 25.0734L15.8746 27.4034C15.4446 27.788 14.8899 27.9998 14.3125 27.9998C13.0201 27.9998 11.9688 26.9484 11.9688 25.6561V11.9062C11.9688 9.75233 13.7211 8 15.875 8H22.1249C24.2788 8 26.0311 9.75233 26.0311 11.9062V25.6561C26.0311 27.6734 23.6273 28.7469 22.1252 27.4034ZM20.562 23.9089L23.1669 26.2388C23.6658 26.6851 24.4686 26.331 24.4686 25.6561V11.9062C24.4686 10.6139 23.4172 9.56249 22.1249 9.56249H15.8749C14.5826 9.56249 13.5312 10.6139 13.5312 11.9062V25.6561C13.5312 26.0869 13.8817 26.4374 14.3124 26.4374C14.8336 26.4374 14.8209 26.1649 17.4378 23.9089C18.3262 23.1142 19.6723 23.113 20.562 23.9089Z" fill="white"/>
</g>
<defs>
<clipPath id="clip0_3048_2">
<rect width="20" height="20" fill="white" transform="translate(9 8)"/>
</clipPath>
</defs>
</svg>
