<svg width="329" height="50" viewBox="0 0 329 50" fill="none" xmlns="http://www.w3.org/2000/svg">
<rect x="0.75" y="0.75" width="327.5" height="48.5" rx="24.25" fill="#5FCFFF" stroke="#1D7BD4" stroke-width="1.5"/>
<path d="M135.5 30.975V14.75C135.5 14.4333 135.642 14.1833 135.925 14C136.208 13.8167 136.542 13.725 136.925 13.725H145.65C145.983 13.725 146.233 13.8667 146.4 14.15C146.567 14.4167 146.65 14.7417 146.65 15.125C146.65 15.525 146.558 15.8667 146.375 16.15C146.208 16.4333 145.967 16.575 145.65 16.575H138.75V21.575H142.575C142.892 21.575 143.133 21.7 143.3 21.95C143.483 22.2 143.575 22.5083 143.575 22.875C143.575 23.2083 143.483 23.5 143.3 23.75C143.133 24 142.892 24.125 142.575 24.125H138.75V30.975C138.75 31.2917 138.583 31.5417 138.25 31.725C137.933 31.9083 137.558 32 137.125 32C136.675 32 136.292 31.9083 135.975 31.725C135.658 31.5417 135.5 31.2917 135.5 30.975ZM147.77 15.9C147.77 15.4667 147.937 15.1 148.27 14.8C148.62 14.4833 149.045 14.325 149.545 14.325C150.029 14.325 150.437 14.4833 150.77 14.8C151.12 15.1 151.295 15.4667 151.295 15.9C151.295 16.3167 151.12 16.6833 150.77 17C150.437 17.3167 150.029 17.475 149.545 17.475C149.045 17.475 148.62 17.3167 148.27 17C147.937 16.6833 147.77 16.3167 147.77 15.9ZM147.945 30.975V21.125C147.945 20.825 148.095 20.5833 148.395 20.4C148.695 20.2167 149.079 20.125 149.545 20.125C150.012 20.125 150.395 20.2167 150.695 20.4C151.012 20.5833 151.17 20.825 151.17 21.125V30.975C151.17 31.225 151.004 31.4583 150.67 31.675C150.354 31.8917 149.979 32 149.545 32C149.095 32 148.712 31.9 148.395 31.7C148.095 31.4833 147.945 31.2417 147.945 30.975ZM153.658 30.975V21.125C153.658 20.825 153.8 20.5833 154.083 20.4C154.383 20.2167 154.775 20.125 155.258 20.125C155.658 20.125 155.992 20.2167 156.258 20.4C156.542 20.5833 156.683 20.825 156.683 21.125V21.875C156.95 21.3417 157.375 20.8917 157.958 20.525C158.558 20.1583 159.25 19.975 160.033 19.975C161.183 19.975 162.183 20.475 163.033 21.475C163.9 22.475 164.333 23.6667 164.333 25.05V30.975C164.333 31.2917 164.167 31.5417 163.833 31.725C163.517 31.9083 163.142 32 162.708 32C162.292 32 161.917 31.9083 161.583 31.725C161.267 31.5417 161.108 31.2917 161.108 30.975V25.05C161.108 24.4667 160.892 23.95 160.458 23.5C160.025 23.0333 159.517 22.8 158.933 22.8C158.383 22.8 157.9 23.0083 157.483 23.425C157.083 23.8417 156.883 24.3833 156.883 25.05V30.975C156.883 31.225 156.717 31.4583 156.383 31.675C156.067 31.8917 155.692 32 155.258 32C154.808 32 154.425 31.9 154.108 31.7C153.808 31.4833 153.658 31.2417 153.658 30.975ZM166.569 15.9C166.569 15.4667 166.736 15.1 167.069 14.8C167.419 14.4833 167.844 14.325 168.344 14.325C168.827 14.325 169.236 14.4833 169.569 14.8C169.919 15.1 170.094 15.4667 170.094 15.9C170.094 16.3167 169.919 16.6833 169.569 17C169.236 17.3167 168.827 17.475 168.344 17.475C167.844 17.475 167.419 17.3167 167.069 17C166.736 16.6833 166.569 16.3167 166.569 15.9ZM166.744 30.975V21.125C166.744 20.825 166.894 20.5833 167.194 20.4C167.494 20.2167 167.877 20.125 168.344 20.125C168.811 20.125 169.194 20.2167 169.494 20.4C169.811 20.5833 169.969 20.825 169.969 21.125V30.975C169.969 31.225 169.802 31.4583 169.469 31.675C169.152 31.8917 168.777 32 168.344 32C167.894 32 167.511 31.9 167.194 31.7C166.894 31.4833 166.744 31.2417 166.744 30.975ZM171.782 30.075C171.782 29.775 171.89 29.4667 172.107 29.15C172.324 28.8167 172.574 28.65 172.857 28.65C173.04 28.65 173.265 28.7417 173.532 28.925C173.815 29.1083 174.182 29.3 174.632 29.5C175.082 29.6833 175.615 29.775 176.232 29.775C177.449 29.775 178.057 29.4167 178.057 28.7C178.057 28.3 177.849 27.9833 177.432 27.75C177.032 27.5167 176.54 27.325 175.957 27.175C175.39 27.025 174.815 26.85 174.232 26.65C173.649 26.4333 173.149 26.0833 172.732 25.6C172.332 25.1 172.132 24.4667 172.132 23.7C172.132 22.6833 172.49 21.8083 173.207 21.075C173.924 20.3417 175.057 19.975 176.607 19.975C177.64 19.975 178.557 20.1333 179.357 20.45C180.174 20.7667 180.582 21.15 180.582 21.6C180.582 21.8833 180.465 22.2167 180.232 22.6C180.015 22.9667 179.74 23.15 179.407 23.15C179.274 23.15 178.907 23.0333 178.307 22.8C177.724 22.55 177.174 22.425 176.657 22.425C176.09 22.425 175.657 22.5417 175.357 22.775C175.057 23.0083 174.907 23.2667 174.907 23.55C174.907 23.8333 175.057 24.0667 175.357 24.25C175.657 24.4333 176.024 24.575 176.457 24.675C176.907 24.775 177.39 24.9167 177.907 25.1C178.424 25.2667 178.899 25.4667 179.332 25.7C179.782 25.9333 180.157 26.3 180.457 26.8C180.757 27.2833 180.907 27.875 180.907 28.575C180.907 29.7083 180.499 30.6 179.682 31.25C178.882 31.9 177.757 32.225 176.307 32.225C175.057 32.225 173.99 32.0083 173.107 31.575C172.224 31.1417 171.782 30.6417 171.782 30.075ZM182.834 30.975V14.2C182.834 13.9 182.975 13.6583 183.259 13.475C183.559 13.2917 183.95 13.2 184.434 13.2C184.884 13.2 185.267 13.2917 185.584 13.475C185.9 13.6583 186.059 13.9 186.059 14.2V21.875C186.309 21.3417 186.709 20.8917 187.259 20.525C187.809 20.1583 188.459 19.975 189.209 19.975C190.359 19.975 191.359 20.475 192.209 21.475C193.075 22.475 193.509 23.6667 193.509 25.05V30.975C193.509 31.2917 193.342 31.5417 193.009 31.725C192.692 31.9083 192.317 32 191.884 32C191.467 32 191.092 31.9083 190.759 31.725C190.442 31.5417 190.284 31.2917 190.284 30.975V25.05C190.284 24.4833 190.067 23.9667 189.634 23.5C189.2 23.0333 188.692 22.8 188.109 22.8C187.559 22.8 187.075 23.0083 186.659 23.425C186.259 23.8417 186.059 24.3833 186.059 25.05V30.975C186.059 31.225 185.892 31.4583 185.559 31.675C185.242 31.8917 184.867 32 184.434 32C183.984 32 183.6 31.9 183.284 31.7C182.984 31.4833 182.834 31.2417 182.834 30.975Z" fill="white"/>
</svg>
