<svg width="24" height="24" viewBox="0 0 24 24" fill="none" xmlns="http://www.w3.org/2000/svg">
<g clip-path="url(#clip0_138_1277)">
<path d="M22.594 1.40653C21.6871 0.4995 20.4812 0 19.1986 0C17.9159 0 16.71 0.4995 15.803 1.40648L2.38295 14.8266C2.26876 14.9408 2.18602 15.0825 2.14271 15.2381L0.0348358 22.8111C-0.0560548 23.1377 0.0364295 23.488 0.276851 23.7271C0.454976 23.9043 0.693664 24 0.93807 24C1.02348 24 1.10963 23.9883 1.19415 23.9643L8.76713 21.8131C9.08663 21.7224 9.33432 21.4693 9.41813 21.1479C9.50195 20.8265 9.40941 20.4847 9.1749 20.2494L4.40059 15.4606L15.5247 4.33645L19.6618 8.47355L11.1459 16.9663C10.7792 17.3319 10.7784 17.9255 11.1441 18.2921C11.5096 18.6588 12.1033 18.6595 12.4699 18.294L22.5939 8.19745C23.501 7.29047 24.0005 6.08461 24.0005 4.80197C24.0005 3.51933 23.501 2.31347 22.594 1.40653ZM6.72212 20.4449L2.28924 21.7041L3.53073 17.2438L6.72212 20.4449ZM21.2691 6.8707L20.9895 7.14956L16.8506 3.01064L17.1289 2.7323C17.6817 2.17945 18.4167 1.875 19.1986 1.875C19.9804 1.875 20.7153 2.17945 21.2682 2.73234C21.821 3.28514 22.1255 4.02014 22.1255 4.80197C22.1255 5.5838 21.821 6.3188 21.2691 6.8707Z" fill="white"/>
</g>
<defs>
<clipPath id="clip0_138_1277">
<rect width="24" height="24" fill="white"/>
</clipPath>
</defs>
</svg>
