<svg width="26" height="26" viewBox="0 0 26 26" fill="none" xmlns="http://www.w3.org/2000/svg">
<g opacity="0.5">
<path d="M18.5236 22.9359C21.0235 22.9359 23.0501 20.9093 23.0501 18.4094C23.0501 15.9094 21.0235 13.8828 18.5236 13.8828C16.0237 13.8828 13.9971 15.9094 13.9971 18.4094C13.9971 20.9093 16.0237 22.9359 18.5236 22.9359Z" fill="white"/>
</g>
<path d="M10.3535 12.1392L6.06706 12.1392C4.33354 12.1392 2.92822 10.7339 2.92822 9.00034L2.92822 6.18102C2.92822 4.4475 4.33354 3.04218 6.06706 3.04218L8.88639 3.04218C10.6199 3.04218 12.0252 4.4475 12.0252 6.18102L12.0252 10.4674C12.0252 11.3907 11.2768 12.1392 10.3535 12.1392Z" fill="white"/>
<path d="M19.9335 12.1392L15.6471 12.1392C14.7238 12.1392 13.9753 11.3907 13.9753 10.4674L13.9753 6.18102C13.9753 4.4475 15.3807 3.04218 17.1142 3.04218L19.9335 3.04218C21.667 3.04218 23.0723 4.4475 23.0723 6.18102L23.0723 9.00034C23.0723 10.7339 21.6671 12.1392 19.9335 12.1392Z" fill="white"/>
<path d="M8.88639 22.9578L6.06706 22.9578C4.33354 22.9578 2.92822 21.5525 2.92822 19.819L2.92822 16.9997C2.92822 15.2662 4.33354 13.8608 6.06706 13.8608L10.3535 13.8608C11.2768 13.8608 12.0252 14.6093 12.0252 15.5326L12.0252 19.819C12.0252 21.5525 10.6199 22.9578 8.88639 22.9578Z" fill="white"/>
</svg>
