<svg width="180" height="171" viewBox="0 0 180 171" fill="none" xmlns="http://www.w3.org/2000/svg">
<g filter="url(#filter0_d_125_835)">
<path d="M78.7788 30.9184C67.9048 32.0106 62.9772 38.7696 59.5809 45.8011C50.1306 65.3815 42.1017 64.6104 27.8803 75.7053C11.0224 88.9639 18.8606 104.447 30.99 111.609C36.0517 114.551 41.5429 117.306 43.7004 123.154C45.3778 127.666 44.2048 133.711 44.3095 138.535C44.7536 156.256 62.0923 169.152 85.8448 154.224C99.9244 145.342 103.511 134.395 108.941 119.496C114.283 105.438 123.975 97.487 136.081 89.3071C165.049 69.6466 163.213 26.0699 104.176 38.6656C94.868 40.5632 87.5696 30.0477 78.7788 30.9184Z" fill="#FFDDA0"/>
<path d="M51.0148 79.381C51.0148 79.381 50.5107 85.3047 57.3166 82.4058L57.8208 84.6745C57.8208 84.6745 51.519 89.0857 47.6119 82.2798C47.6119 82.2798 47.4858 78.3727 51.0148 79.381Z" fill="#A54B16"/>
<path d="M47.3599 82.4059V82.2799C47.3599 82.2799 47.3599 82.2798 47.3599 82.1538C47.3599 81.9017 47.3599 81.1455 47.738 80.3893C48.1161 79.6331 48.7463 78.8769 50.0066 78.8769C50.3847 78.8769 50.7628 78.8769 51.1409 79.0029L51.0149 79.381L51.1409 79.0029L51.393 79.129V79.381C51.393 79.381 51.393 79.5071 51.393 79.6331C51.393 80.0112 51.393 80.8935 51.7711 81.6497C52.1492 82.4059 52.7794 82.91 54.1658 82.91C54.922 82.91 55.9303 82.658 57.3167 82.1538L57.6948 82.0278L58.325 84.8006L58.1989 84.9266C58.1989 84.9266 56.1823 86.439 53.5356 86.439C51.393 86.439 49.1244 85.4307 47.3599 82.4059ZM53.4096 85.6828C54.5439 85.6828 55.6782 85.3047 56.4344 85.0526C56.9386 84.8006 57.3167 84.6745 57.4427 84.5485L57.0646 82.91C55.8042 83.4142 54.922 83.5402 54.0397 83.5402C52.5273 83.5402 51.519 82.784 51.1409 81.9017C50.6368 81.0195 50.6368 80.1372 50.6368 79.6331C50.3847 79.6331 50.1326 79.5071 50.0066 79.5071C48.9983 79.5071 48.6202 80.0112 48.3681 80.6414C48.1161 81.2716 48.1161 81.9017 48.1161 82.1538C49.6285 84.9266 51.6451 85.6828 53.4096 85.6828Z" fill="#832F0A"/>
<path d="M121.595 84.2964C121.595 84.2964 120.208 90.0941 114.537 85.1787L113.402 87.0692C113.402 87.0692 117.94 93.245 123.863 88.0775C123.737 88.0775 125.124 84.5485 121.595 84.2964Z" fill="#A54B16"/>
<path d="M118.948 90.4722C115.293 90.4722 113.024 87.3213 113.024 87.3213L112.898 87.1953L114.411 84.6746L114.663 84.9266C116.301 86.313 117.562 86.8172 118.444 86.8172C119.452 86.8172 120.082 86.187 120.587 85.5568C120.965 84.9266 121.217 84.2964 121.217 84.2964L121.343 84.0444H121.595C123.737 84.1704 124.494 85.5568 124.368 86.6911C124.368 87.5734 124.116 88.2035 124.116 88.2035V88.3296C122.225 89.968 120.461 90.4722 118.948 90.4722ZM115.041 88.3296C116.049 89.0858 117.31 89.842 118.948 89.842C120.209 89.842 121.721 89.3379 123.485 87.9515C123.485 87.8254 123.737 87.3213 123.737 86.6911C123.737 85.8089 123.485 84.9266 121.847 84.6746C121.595 85.4308 120.713 87.4473 118.57 87.4473C117.562 87.4473 116.301 86.9432 114.663 85.6828L113.781 87.0692C113.907 87.3213 114.411 87.8254 115.041 88.3296ZM121.469 84.6746V84.2964V84.6746Z" fill="#832F0A"/>
<path d="M50.1326 76.1041C48.8722 76.2301 47.99 76.8603 47.99 76.8603C47.99 76.8603 48.8722 76.2301 50.1326 76.1041C50.1326 76.1041 51.0148 74.4657 50.7627 72.4491C50.5107 70.4325 52.1491 67.4077 51.1409 66.1473C50.1326 64.887 47.99 65.6432 47.2337 67.7858C47.2337 67.7858 46.7296 69.8023 46.9817 71.0627C46.9817 71.0627 42.9485 71.5668 44.461 76.7343C43.0746 71.5668 46.9817 71.0627 46.9817 71.0627C46.6036 69.8023 47.2337 67.7858 47.2337 67.7858C47.2337 67.7858 45.9734 64.6349 45.0911 63.3745C43.9568 61.7361 41.9403 61.8621 42.1923 64.6349C42.1923 64.6349 42.5704 66.5254 42.9485 68.2899C42.9485 68.2899 39.6716 65.2651 38.5373 65.5171C37.0249 65.7692 37.0249 68.668 40.8059 71.0627C40.8059 71.0627 35.7645 69.4242 35.1343 70.6846C34.6302 71.9449 36.7728 73.4574 39.4196 74.3396C39.4196 74.3396 34.7562 73.4574 34.5042 74.7177C34.2521 75.9781 35.2604 76.7343 39.6716 77.4905C39.6716 77.4905 40.8059 77.4905 40.932 78.7509C41.058 80.0112 42.5704 81.9017 45.0911 81.2716C45.0911 81.2716 44.8391 84.1704 47.7379 83.4142C47.7379 83.4142 47.2337 80.0112 51.0148 80.7674C51.0148 80.7674 52.5272 79.8852 52.0231 77.8686C51.8971 77.4905 51.771 76.1041 50.1326 76.1041Z" fill="#DBD1AF"/>
<path d="M44.9651 82.5319C44.713 82.1538 44.713 81.6497 44.713 81.3976C44.4609 81.3976 44.2089 81.3976 44.0828 81.3976C41.9402 81.3976 40.6799 79.7592 40.5538 78.4988C40.5538 77.9947 40.3018 77.7426 40.0497 77.7426C39.7976 77.4905 39.5456 77.4905 39.5456 77.4905C37.529 77.2385 36.1426 76.8603 35.2604 76.4822C34.3781 76.1041 34 75.474 34 74.8438C34 74.7177 34 74.5917 34 74.4657C34.2521 73.5834 35.2604 73.5834 36.1426 73.5834C36.3947 73.5834 36.6467 73.5834 36.7728 73.5834C36.3947 73.4574 36.1426 73.2053 35.8905 72.9532C35.0083 72.3231 34.5041 71.6929 34.3781 70.9367C34.3781 70.8106 34.3781 70.5586 34.5041 70.4325C34.7562 69.8024 35.5124 69.8024 36.1426 69.8024C37.0249 69.8024 38.0331 69.9284 38.9154 70.1805C37.529 68.9201 37.0249 67.7858 37.0249 66.7775C37.0249 65.8953 37.529 65.2651 38.2852 65.139C38.4112 65.139 38.4112 65.139 38.4112 65.139C39.2935 65.139 40.3018 65.8953 41.3101 66.6515C41.6882 66.9035 41.9402 67.1556 42.1923 67.4077C41.8142 66.0213 41.6882 64.7609 41.6882 64.7609C41.6882 64.6349 41.6882 64.5089 41.6882 64.3828C41.6882 63.6266 41.8142 63.1225 42.1923 62.7444C42.4444 62.3663 42.9485 62.1142 43.3266 62.1142C44.0828 62.1142 44.713 62.6183 45.2172 63.2485C45.8473 64.2568 46.7296 66.0213 47.1077 67.0296C47.7379 66.0213 48.7462 65.3911 49.7544 65.3911C50.3846 65.3911 50.8888 65.6432 51.2669 66.1473C51.645 66.5254 51.645 67.0296 51.645 67.5337C51.645 68.9201 50.8888 70.8106 50.8888 72.197C50.8888 72.3231 50.8888 72.4491 50.8888 72.5751C50.8888 72.8272 50.8888 73.0793 50.8888 73.3313C50.8888 74.4657 50.5107 75.474 50.3846 75.9781C51.0148 76.1041 51.5189 76.4822 51.645 76.8603C51.897 77.2385 51.897 77.6166 52.0231 77.7426C52.0231 77.9947 52.1491 78.2467 52.1491 78.4988C52.1491 80.1373 50.8888 80.8935 50.8888 81.0195C50.7627 81.0195 50.7627 81.1456 50.6367 81.0195C50.2586 80.8935 50.0065 80.8935 49.6284 80.8935C47.8639 80.8935 47.7379 82.2799 47.7379 82.9101C47.7379 83.0361 47.7379 83.1621 47.7379 83.1621C47.7379 83.2882 47.6118 83.5402 47.4858 83.5402C47.1077 83.6663 46.8556 83.6663 46.4775 83.6663C45.8473 83.5402 45.2172 83.0361 44.9651 82.5319ZM45.2172 80.6414C45.3432 80.7674 45.3432 80.7674 45.3432 80.8935C45.3432 80.8935 45.3432 80.8935 45.3432 81.0195C45.3432 81.2716 45.3432 81.7757 45.5953 82.1538C45.8473 82.5319 46.0994 82.784 46.7296 82.784C46.8556 82.784 47.1077 82.784 47.2337 82.784C47.2337 82.784 47.2337 82.784 47.2337 82.658C47.2337 82.2799 47.2337 81.6497 47.6118 81.0195C47.9899 80.3893 48.7462 79.8852 49.7544 79.8852C50.0065 79.8852 50.3846 79.8852 50.7627 80.0112C50.8888 79.8852 51.0148 79.8852 51.1408 79.6331C51.3929 79.255 51.645 78.8769 51.645 78.1207C51.645 77.8686 51.645 77.7426 51.5189 77.4905C51.5189 77.4905 51.5189 77.4905 51.5189 77.3645C51.5189 77.2385 51.3929 77.1124 51.3929 76.9864C51.1408 76.7343 50.8888 76.3562 50.1325 76.3562C49.5024 76.3562 49.1243 76.6083 48.7462 76.7343C48.368 76.8603 48.242 77.1124 48.242 77.1124C48.116 77.1124 48.116 77.2385 47.9899 77.2385C47.8639 77.2385 47.8639 77.2384 47.7379 77.1124C47.7379 77.1124 47.6118 76.9864 47.6118 76.8603C47.6118 76.7343 47.6118 76.7343 47.7379 76.6083C47.7379 76.6083 48.6201 75.8521 49.8805 75.726C49.8805 75.6 50.0065 75.3479 50.1325 75.0958C50.2586 74.5917 50.5107 73.8355 50.5107 73.0793C50.5107 72.8272 50.5107 72.7012 50.5107 72.4491C50.5107 72.3231 50.5107 72.197 50.5107 71.945C50.5107 70.4325 51.2669 68.542 51.2669 67.2817C51.2669 66.7775 51.1408 66.5254 51.0148 66.2734C50.7627 65.8953 50.3846 65.7692 50.0065 65.7692C49.1243 65.7692 48.116 66.5254 47.6118 67.6598C47.6118 67.6598 47.3598 68.7941 47.3598 69.8024C47.3598 70.1805 47.3598 70.4325 47.4858 70.6846C47.4858 70.8106 47.4858 70.9367 47.4858 70.9367C47.4858 71.0627 47.3598 71.0627 47.2337 71.0627C47.2337 71.0627 47.1077 71.0627 46.8556 71.1887C46.6036 71.3148 46.2254 71.4408 45.9734 71.5669C45.3432 72.071 44.713 72.8272 44.713 74.3396C44.713 74.8438 44.8391 75.6 44.9651 76.3562V76.4822V76.6083C44.9651 76.7343 44.8391 76.7343 44.713 76.7343C44.587 76.7343 44.587 76.7343 44.4609 76.7343C44.3349 76.7343 44.3349 76.6083 44.3349 76.4822C44.0828 75.726 43.9568 74.9698 43.9568 74.3396C43.9568 71.5669 45.9734 70.6846 46.7296 70.4325V70.3065C46.7296 70.0544 46.7296 69.9284 46.7296 69.6763C46.7296 68.668 46.9817 67.7858 46.9817 67.4077C46.7296 66.9035 45.7213 64.2568 44.9651 63.1225C44.587 62.4923 43.9568 62.2402 43.5787 62.2402C43.0746 62.2402 42.6965 62.6183 42.5704 63.7527C42.5704 63.8787 42.5704 64.0047 42.5704 64.1308C42.5704 64.1308 42.9485 66.0213 43.3266 67.7858C43.3266 67.9118 43.3266 68.0379 43.2006 68.1639C43.0746 68.2899 42.9485 68.2899 42.8225 68.1639C42.8225 68.1639 42.0663 67.4077 41.184 66.7775C40.3018 66.0213 39.1675 65.3911 38.7894 65.3911C38.4112 65.5172 38.1592 65.7692 38.1592 66.3994C38.1592 67.2816 38.9154 68.9201 41.184 70.3065C41.3101 70.4325 41.4361 70.5586 41.3101 70.6846C40.8059 71.1887 40.6799 71.1887 40.5538 71.1887C40.5538 71.1887 39.9237 70.9367 39.0414 70.8106C38.1592 70.5586 37.1509 70.4325 36.3947 70.4325C35.7645 70.4325 35.3864 70.5586 35.3864 70.6846C35.3864 70.8106 35.3864 70.8106 35.3864 70.9367C35.3864 71.3148 35.7645 71.8189 36.5207 72.4491C37.2769 72.9532 38.4112 73.4574 39.5456 73.8355C39.6716 73.8355 39.7976 74.0876 39.7976 74.2136C39.7976 74.3396 39.5456 74.4657 39.4195 74.4657C39.4195 74.4657 39.0414 74.3396 38.4112 74.3396C37.7811 74.2136 37.1509 74.2136 36.3947 74.2136C35.8905 74.2136 35.5124 74.2136 35.2604 74.3396C35.0083 74.4657 34.8822 74.5917 34.8822 74.5917C34.8822 74.7177 34.8822 74.7177 34.8822 74.8438C34.8822 75.2219 35.0083 75.6 35.7645 75.9781C36.5207 76.3562 37.7811 76.7343 39.7976 76.9864C39.9237 76.9864 40.1757 76.9864 40.5538 77.2385C40.932 77.3645 41.3101 77.8686 41.4361 78.6248C41.5621 79.5071 42.5704 81.0195 44.2089 80.8935C44.4609 80.8935 44.8391 80.8935 45.0911 80.7674C45.0911 80.7674 45.0911 80.7674 45.2172 80.7674C45.0911 80.6414 45.2172 80.6414 45.2172 80.6414Z" fill="#C3B48C"/>
<path d="M43.8307 69.0461L42.4443 67.7858L43.8307 69.0461Z" fill="#D4C89F"/>
<path d="M43.5786 69.2982L42.1922 68.0378C42.0661 67.9118 42.0661 67.6597 42.1922 67.5337C42.3182 67.4076 42.5703 67.4076 42.6963 67.5337L44.0827 68.794C44.2088 68.9201 44.2088 69.1721 44.0827 69.2982C43.9567 69.4242 43.9567 69.4242 43.8306 69.4242C43.7046 69.4242 43.7046 69.4242 43.5786 69.2982Z" fill="#C3B48C"/>
<path d="M40.0498 70.6846L41.6883 71.5668L40.0498 70.6846Z" fill="#D4C89F"/>
<path d="M41.6883 71.8189L40.0498 70.9367C39.9238 70.8106 39.7978 70.6846 39.9238 70.4325C40.0498 70.3065 40.1759 70.1804 40.4279 70.3065L42.0664 71.1887C42.1924 71.3148 42.3185 71.4408 42.1924 71.6929C42.1924 71.8189 42.0664 71.9449 41.9404 71.9449C41.6883 71.8189 41.6883 71.8189 41.6883 71.8189Z" fill="#C3B48C"/>
<path d="M38.916 73.9615L40.4284 74.3397L38.916 73.9615Z" fill="#D4C89F"/>
<path d="M40.3021 74.7178L38.7897 74.3397C38.6636 74.3397 38.5376 74.0876 38.5376 73.9615C38.5376 73.8355 38.7897 73.7095 38.9157 73.7095L40.4281 74.0876C40.5542 74.0876 40.6802 74.3396 40.6802 74.4657C40.6802 74.7178 40.5542 74.7178 40.3021 74.7178C40.4281 74.7178 40.4281 74.7178 40.3021 74.7178Z" fill="#C3B48C"/>
<g opacity="0.38">
<path opacity="0.38" d="M45.2174 76.2301C45.2174 76.2301 44.3351 72.8272 46.7298 71.8189C49.1245 70.8106 47.9902 78.4988 45.2174 76.2301Z" fill="#E7E4BF"/>
<path opacity="0.38" d="M47.9899 69.5503C47.9899 69.5503 47.8638 67.0295 49.3763 66.5254C50.8887 66.0213 49.3763 71.4408 47.9899 69.5503Z" fill="#E7E4BF"/>
<path opacity="0.38" d="M44.2087 67.5337C44.2087 67.5337 42.3182 63.7526 43.2004 63.3745C44.2087 62.8704 46.3513 69.0461 44.2087 67.5337Z" fill="#E7E4BF"/>
<path opacity="0.38" d="M42.0662 69.0461C42.0662 69.0461 39.2935 66.3994 38.7893 66.5254C38.2852 66.6515 38.9154 69.0461 41.5621 69.8023C41.5621 69.8023 42.9485 70.1804 42.0662 69.0461Z" fill="#E7E4BF"/>
<path opacity="0.38" d="M39.4196 71.6929C39.4196 71.6929 36.6468 70.5585 36.1427 70.8106C35.6385 71.0627 36.7728 72.4491 39.0415 72.8272C41.3101 73.2053 40.5539 72.071 39.4196 71.6929Z" fill="#E7E4BF"/>
<path opacity="0.38" d="M38.4112 75.0958C38.4112 75.0958 36.3947 74.5916 35.8905 74.9697C35.3864 75.3478 36.8988 75.7259 38.1592 75.852C39.5456 75.978 39.6716 75.2218 38.4112 75.0958Z" fill="#E7E4BF"/>
<path opacity="0.38" d="M41.8145 78.1207C41.8145 78.1207 42.3186 80.0112 43.579 79.8852C44.8393 79.6331 42.5707 77.1124 41.8145 78.1207Z" fill="#E7E4BF"/>
<path opacity="0.38" d="M49.6283 77.1123C49.6283 77.1123 47.1076 77.3644 46.0993 80.2632C46.0993 80.2632 45.4691 81.9017 46.4774 82.1538C47.4857 82.5319 45.3431 81.0194 48.8721 79.507C50.6366 78.8768 50.1324 76.9863 49.6283 77.1123Z" fill="#E7E4BF"/>
</g>
<path d="M122.855 80.3893C124.116 80.7674 124.746 81.5236 124.746 81.5236C124.746 81.5236 124.116 80.7674 122.855 80.3893C122.855 80.3893 122.225 78.6248 122.855 76.7343C123.485 74.7177 122.351 71.4408 123.611 70.4325C124.872 69.4242 126.762 70.5585 127.266 72.7011C127.266 72.7011 127.519 74.7177 126.888 75.9781C126.888 75.9781 130.795 77.1124 128.401 82.0278C130.669 77.1124 126.888 75.9781 126.888 75.9781C127.392 74.8437 127.266 72.7011 127.266 72.7011C127.266 72.7011 129.031 69.8023 130.165 68.668C131.552 67.2816 133.568 67.7858 132.812 70.4325C132.812 70.4325 132.182 72.323 131.426 73.8355C131.426 73.8355 135.207 71.4408 136.341 71.8189C137.853 72.323 137.349 75.2218 133.19 76.8603C133.19 76.8603 138.484 76.1041 138.862 77.4905C139.24 78.7508 136.719 79.8852 134.072 80.3893C134.072 80.3893 138.736 80.2633 138.862 81.5236C138.862 82.784 137.727 83.4142 133.316 83.2881C133.316 83.2881 132.182 83.0361 131.93 84.2964C131.552 85.5568 129.661 87.0692 127.392 86.0609C127.392 86.0609 127.14 88.9597 124.494 87.6994C124.494 87.6994 125.502 84.4224 121.721 84.5485C121.721 84.5485 120.461 83.4142 121.217 81.5236C120.839 81.5236 121.217 80.1372 122.855 80.3893Z" fill="#DBD1AF"/>
<path d="M125.25 88.4556C124.872 88.4556 124.368 88.3296 123.864 88.0775C123.738 87.9514 123.612 87.8254 123.738 87.6994C123.738 87.6994 123.864 87.3213 123.864 86.9432C123.864 86.0609 123.612 85.0526 121.469 85.0526C121.343 85.0526 121.343 85.0526 121.217 85.0526C121.091 85.0526 121.091 85.0526 120.965 84.9266C120.965 84.9266 120.083 84.1704 120.083 82.784C120.083 82.4059 120.209 81.9017 120.335 81.5236C120.335 81.3976 120.839 80.1372 122.225 80.1372C122.099 79.7591 122.099 79.255 122.099 78.4988C122.099 77.9946 122.099 77.3645 122.351 76.7343C122.477 76.2301 122.477 75.726 122.477 75.0958C122.477 74.3396 122.351 73.4574 122.351 72.7011C122.351 71.6929 122.477 70.8106 123.107 70.1804C123.485 69.8023 123.99 69.6763 124.368 69.6763C125.502 69.6763 126.51 70.5585 127.014 71.8189C127.645 70.9367 128.653 69.2982 129.535 68.4159C130.039 67.9118 130.796 67.5337 131.3 67.5337C131.678 67.5337 132.182 67.6597 132.434 68.0378C132.686 68.4159 132.938 68.794 132.938 69.4242C132.938 69.8023 132.938 70.0544 132.812 70.5585C132.812 70.5585 132.434 71.6929 131.804 73.0793C132.812 72.4491 134.577 71.5668 135.711 71.5668C135.837 71.5668 135.963 71.5668 136.089 71.5668C136.719 71.8189 137.097 72.323 137.097 73.0793C137.097 74.0875 136.341 75.4739 134.577 76.4822C134.955 76.4822 135.333 76.4822 135.711 76.4822C136.341 76.4822 137.097 76.4822 137.601 76.6083C138.106 76.7343 138.61 76.9864 138.862 77.4905C138.862 77.6165 138.862 77.7426 138.862 77.8686C138.862 78.7509 138.106 79.255 137.223 79.7591C136.845 79.8852 136.467 80.1372 136.089 80.2633C136.215 80.2633 136.467 80.2633 136.593 80.3893C137.601 80.6414 138.61 80.7674 138.736 81.6497C138.736 82.2799 138.358 82.91 137.601 83.2881C136.845 83.6662 135.585 83.7923 133.694 83.7923C133.442 83.7923 133.064 83.7923 132.812 83.7923C132.812 83.7923 132.812 83.7923 132.686 83.7923C132.434 83.7923 131.93 83.7923 131.804 84.5485C131.552 85.6828 130.291 86.9432 128.527 86.9432C128.149 86.9432 127.645 86.8171 127.267 86.6911C127.267 86.9432 127.141 87.0692 127.014 87.3213C126.762 87.8254 126.258 88.4556 125.25 88.4556C125.376 88.4556 125.25 88.4556 125.25 88.4556ZM125.25 87.6994C125.88 87.6994 126.132 87.3213 126.384 86.9432C126.636 86.5651 126.636 86.0609 126.636 86.0609C126.636 85.9349 126.762 85.8088 126.762 85.8088C126.888 85.8088 127.014 85.8088 127.014 85.8088C127.519 86.0609 128.023 86.187 128.401 86.187C129.787 86.187 130.922 85.0526 131.048 84.2964C131.3 83.1621 132.308 83.0361 132.686 83.0361C132.812 83.0361 132.812 83.0361 132.938 83.0361C133.19 83.0361 133.568 83.0361 133.82 83.0361C135.585 83.0361 136.845 82.91 137.475 82.658C138.106 82.4059 138.232 82.1538 138.232 81.6497C138.232 81.5236 138.232 81.3976 137.854 81.2716C137.601 81.1455 137.097 81.0195 136.593 80.8935C135.585 80.7674 134.577 80.7674 134.072 80.7674C133.946 80.7674 133.82 80.7674 133.82 80.7674C133.694 80.7674 133.442 80.6414 133.442 80.5154C133.442 80.3893 133.568 80.1372 133.694 80.1372C134.955 79.8852 136.089 79.6331 136.971 79.129C137.854 78.7509 138.232 78.2467 138.232 77.8686V77.7426C138.232 77.6165 137.98 77.4905 137.475 77.3645C136.971 77.2384 136.341 77.2384 135.711 77.2384C134.325 77.2384 132.938 77.3645 132.938 77.3645C132.812 77.3645 132.56 77.2384 132.56 77.1124C132.56 76.9864 132.56 76.7343 132.812 76.7343C135.459 75.6 136.467 73.9615 136.467 73.0793C136.467 72.5751 136.341 72.4491 135.963 72.323H135.837C135.333 72.323 134.198 72.8272 133.19 73.3313C132.182 73.8355 131.426 74.3396 131.426 74.3396C131.3 74.4656 131.174 74.4656 131.048 74.3396C130.922 74.2136 130.922 74.0875 130.922 73.9615C131.678 72.4491 132.308 70.5585 132.308 70.5585C132.434 70.1804 132.434 69.9284 132.434 69.6763C132.434 68.7941 132.056 68.542 131.552 68.542C131.174 68.542 130.67 68.7941 130.165 69.1722C129.157 70.1804 127.771 72.4491 127.393 72.9532C127.393 73.0793 127.393 73.3313 127.393 73.5834V73.7094C127.393 74.3396 127.393 75.2219 127.141 75.852C127.771 76.2301 129.283 77.1124 129.283 79.255C129.283 80.1372 129.031 81.0195 128.527 82.1538C128.527 82.2798 128.401 82.2799 128.275 82.2799C128.149 82.2799 128.149 82.2799 128.023 82.2799C127.897 82.2799 127.897 82.1538 127.897 82.0278V81.9017V81.7757C128.275 81.1455 128.401 80.5154 128.527 80.0112C128.527 79.7591 128.653 79.381 128.653 79.129C128.653 78.6248 128.527 78.1207 128.401 77.8686C128.149 77.4905 127.897 77.1124 127.645 76.8603C127.141 76.3562 126.636 76.2301 126.636 76.2301C126.51 76.2301 126.51 76.1041 126.384 76.1041V75.9781V75.852C126.636 75.2219 126.762 74.3396 126.762 73.7094C126.762 73.3313 126.762 72.9532 126.762 72.9532C126.51 71.4408 125.376 70.5585 124.494 70.5585C124.242 70.5585 123.864 70.6846 123.612 70.8106C123.233 71.0627 123.107 71.8189 123.107 72.8272C123.107 73.5834 123.233 74.3396 123.233 75.2219C123.233 75.852 123.233 76.4822 122.981 76.9864C122.855 77.6165 122.729 78.1207 122.729 78.6248C122.729 79.381 122.855 80.0112 122.981 80.2633C124.242 80.6414 124.872 81.5236 124.872 81.5236C124.872 81.5236 124.998 81.6497 124.998 81.7757C124.998 81.9017 124.998 81.9017 124.872 82.0278C124.746 82.0278 124.746 82.1538 124.62 82.1538C124.494 82.1538 124.494 82.1538 124.368 82.0278C124.368 82.0278 124.242 81.9017 123.864 81.6497C123.612 81.3976 123.107 81.1455 122.603 81.0195C122.477 81.0195 122.351 81.0195 122.225 81.0195C121.721 81.0195 121.343 81.2716 121.217 81.5236C120.965 81.7757 120.965 82.0278 120.965 82.0278C120.839 82.4059 120.713 82.784 120.713 83.1621C120.713 83.6662 120.839 84.0443 121.091 84.2964C121.217 84.4225 121.217 84.5485 121.343 84.6745H121.469C122.603 84.6745 123.485 85.0526 123.864 85.5568C124.368 86.0609 124.494 86.6911 124.494 87.1952C124.494 87.4473 124.494 87.6994 124.368 87.9515C124.872 87.6994 125.124 87.6994 125.25 87.6994Z" fill="#C3B48C"/>
<path d="M130.166 74.5917L131.678 73.5834L130.166 74.5917Z" fill="#D4C89F"/>
<path d="M129.914 74.8437C129.787 74.7177 129.914 74.4656 130.04 74.3396L131.552 73.3313C131.678 73.2053 131.93 73.3313 132.056 73.4574C132.182 73.5834 132.056 73.8355 131.93 73.9615L130.418 74.9698H130.292C130.166 74.9698 130.04 74.8437 129.914 74.8437Z" fill="#C3B48C"/>
<path d="M133.569 76.8604L131.804 77.3645L133.569 76.8604Z" fill="#D4C89F"/>
<path d="M131.426 77.4905C131.426 77.3645 131.426 77.1124 131.678 77.1124L133.442 76.6083C133.568 76.6083 133.82 76.6083 133.82 76.8603C133.82 76.9864 133.82 77.2385 133.568 77.2385L131.804 77.7426H131.678C131.678 77.7426 131.552 77.6166 131.426 77.4905Z" fill="#C3B48C"/>
<path d="M134.199 80.2633L132.56 80.3893L134.199 80.2633Z" fill="#D4C89F"/>
<path d="M132.308 80.5154C132.308 80.3893 132.434 80.1373 132.56 80.1373L134.199 80.0112C134.325 80.0112 134.577 80.1373 134.577 80.2633C134.577 80.3893 134.451 80.6414 134.325 80.6414L132.686 80.7674C132.434 80.7674 132.308 80.6414 132.308 80.5154Z" fill="#C3B48C"/>
<g opacity="0.38">
<path opacity="0.38" d="M127.645 81.3976C127.645 81.3976 129.157 78.2467 126.888 76.8603C124.746 75.474 124.494 83.1621 127.645 81.3976Z" fill="#E7E4BF"/>
<path opacity="0.38" d="M126.132 74.3396C126.132 74.3396 126.762 71.8189 125.25 71.1887C123.864 70.4325 124.368 75.9781 126.132 74.3396Z" fill="#E7E4BF"/>
<path opacity="0.38" d="M130.165 73.0793C130.165 73.0793 132.686 69.6763 131.804 69.0462C130.921 68.416 127.77 74.2136 130.165 73.0793Z" fill="#E7E4BF"/>
<path opacity="0.38" d="M131.93 74.9698C131.93 74.9698 135.081 72.8272 135.585 73.0793C136.089 73.3313 135.081 75.4739 132.308 75.852C132.434 75.726 130.796 75.8521 131.93 74.9698Z" fill="#E7E4BF"/>
<path opacity="0.38" d="M134.072 77.8686C134.072 77.8686 136.971 77.2384 137.475 77.6165C137.979 77.9946 136.593 79.0029 134.198 79.129C132.056 79.129 132.938 78.1207 134.072 77.8686Z" fill="#E7E4BF"/>
<path opacity="0.38" d="M134.45 81.3976C134.45 81.3976 136.593 81.1455 136.971 81.6497C137.349 82.1538 135.837 82.1538 134.576 82.1538C133.19 82.1538 133.316 81.3976 134.45 81.3976Z" fill="#E7E4BF"/>
<path opacity="0.38" d="M130.67 83.7923C130.67 83.7923 129.787 85.5568 128.653 85.1787C127.519 84.9266 130.165 82.784 130.67 83.7923Z" fill="#E7E4BF"/>
<path opacity="0.38" d="M123.107 81.5236C123.107 81.5236 125.502 82.2798 126.132 85.1787C126.132 85.1787 126.51 86.8171 125.376 87.0692C124.368 87.1952 126.636 86.0609 123.359 84.0443C121.847 83.036 122.603 81.2716 123.107 81.5236Z" fill="#E7E4BF"/>
</g>
<path d="M117.31 121.351C117.057 117.066 116.427 112.907 116.175 108.621C115.293 97.1521 114.537 85.8089 113.907 74.3397C113.528 66.1474 113.907 57.9551 113.024 49.7628C112.52 45.2255 111.512 40.4361 108.613 36.7811C107.479 35.3947 106.344 34.5125 104.958 34.0083C101.933 32.874 98.5303 33.7563 95.2533 35.2687C92.1025 36.7811 89.0776 39.3018 86.4309 41.5705C74.0794 52.7876 23.161 129.165 39.2936 136.853C47.4859 140.76 51.1409 132.19 54.0397 126.266C58.8291 116.31 63.2403 102.194 76.4741 101.311C82.3977 100.933 88.3214 103.076 92.4806 107.235C96.6397 111.394 98.4042 117.066 99.5386 122.737C100.547 127.905 101.303 133.576 105.462 137.357C106.975 138.744 108.865 139.248 110.882 138.996C118.444 137.862 117.688 127.149 117.31 121.351ZM93.2368 85.1787C89.9599 89.9681 79.877 88.3296 75.5918 85.6829C70.6764 82.532 73.3232 75.6 75.5918 71.5669C78.4906 66.2734 81.1374 60.8539 85.4226 56.5687C85.8007 56.1906 86.3048 55.8125 86.809 55.4344C90.0859 53.1657 93.867 53.7959 95.6315 57.577C98.6563 64.1308 97.396 78.6249 93.2368 85.1787Z" fill="#FDB73B"/>
<path d="M104.958 137.609C100.673 133.702 100.043 128.031 98.9084 122.863C97.7741 117.192 96.0096 111.646 91.9765 107.487C88.1954 103.706 82.9019 101.563 77.6084 101.563C77.1043 101.563 76.7262 101.563 76.222 101.563C63.3664 102.446 58.9552 116.183 54.1658 126.266C51.7712 131.182 48.8723 137.988 43.0747 137.988C41.8144 137.988 40.554 137.609 39.0416 136.979C36.7729 135.845 35.7646 133.45 35.7646 130.173C35.8907 109.378 75.3398 51.0231 86.1788 41.1923C88.8256 38.7976 91.7244 36.403 95.0013 34.7645C97.27 33.6302 99.6646 33 101.933 33C102.942 33 104.076 33.126 105.084 33.5041C106.471 34.0083 107.731 35.0166 108.865 36.403C111.764 40.184 112.898 44.9734 113.403 49.6367C114.285 57.829 113.907 66.0213 114.285 74.2136C114.789 85.6828 115.671 97.026 116.553 108.495C116.932 112.78 117.436 116.94 117.688 121.225H117.31H116.932C116.679 116.94 116.049 112.78 115.797 108.495C114.915 97.026 114.159 85.6828 113.529 74.2136C113.15 66.0213 113.529 57.829 112.646 49.6367C112.142 45.0994 111.134 40.4361 108.361 36.7811C107.353 35.3947 106.092 34.6385 104.832 34.1343C103.95 33.7562 102.942 33.6302 101.933 33.6302C99.7907 33.6302 97.522 34.3864 95.3794 35.3947C92.2286 36.9071 89.3297 39.3018 86.683 41.6964C76.096 51.2751 36.3948 109.882 36.5209 130.173C36.5209 133.324 37.4031 135.341 39.4197 136.349C40.8061 136.979 42.0664 137.231 43.2007 137.231C48.3682 137.231 51.393 130.804 53.7877 125.888C58.5771 115.931 62.9883 101.689 76.4741 100.807C76.9783 100.807 77.3564 100.807 77.8605 100.807C83.4061 100.807 88.8256 103.076 92.7327 106.983C97.0179 111.268 98.6564 117.066 99.7907 122.737C100.799 127.905 101.555 133.45 105.588 137.105C106.849 138.24 108.235 138.744 109.747 138.744C110.126 138.744 110.378 138.744 110.756 138.618C113.529 138.24 115.041 136.601 116.049 134.333C117.058 132.064 117.31 129.165 117.31 126.392C117.31 124.502 117.184 122.737 117.058 121.225H117.436H117.814C117.94 122.737 118.066 124.502 118.066 126.392C118.066 129.165 117.814 132.19 116.805 134.585C115.797 136.979 114.033 138.87 111.008 139.374C110.63 139.374 110.252 139.5 109.874 139.5C107.857 139.5 106.345 138.87 104.958 137.609ZM75.4658 85.9349C73.3232 84.5485 72.441 82.4059 72.441 80.2633C72.441 77.1124 73.9534 73.7095 75.2138 71.3148C78.1126 66.0213 80.7593 60.6018 85.0445 56.1905C85.4226 55.8124 85.9268 55.3083 86.4309 55.0562C87.6913 54.174 89.0777 53.6698 90.4641 53.6698C92.6067 53.6698 94.6232 54.9302 95.7575 57.3249C96.8919 59.9716 97.522 63.6266 97.522 67.5337C97.522 73.9615 96.0096 81.1456 93.3629 85.1787C91.7244 87.5734 88.6996 88.4556 85.4226 88.4556C81.7676 88.5816 77.7345 87.4473 75.4658 85.9349ZM86.9351 55.6864C86.4309 56.0645 86.0528 56.4426 85.6747 56.8207C81.5155 60.9799 78.7428 66.5254 75.97 71.6929C74.7096 74.0876 73.1972 77.3645 73.1972 80.2633C73.1972 82.2799 73.8274 84.1704 75.8439 85.3047C77.9865 86.6911 81.8936 87.8254 85.5487 87.8254C88.6996 87.8254 91.5984 86.9432 92.9848 84.8006C95.6315 80.8935 97.0179 73.8355 97.0179 67.4077C97.0179 63.5006 96.5138 59.9716 95.3794 57.4509C94.3712 55.1822 92.6067 54.174 90.7161 54.174C89.4558 54.426 88.0694 54.8041 86.9351 55.6864Z" fill="#EA6620"/>
<path opacity="0.8" d="M72.8188 73.7095C72.8188 73.7095 82.5236 49.1325 93.2366 49.8887C103.95 50.771 99.1603 79.129 99.1603 79.129C99.1603 79.129 96.8916 87.0692 91.9762 88.3296C91.9762 88.3296 97.0177 85.0526 97.7739 78.8769C98.4041 72.5751 101.177 51.9053 90.4638 53.2917C79.7508 54.5521 75.7177 70.9367 72.8188 73.7095Z" fill="#FDB73B"/>
<path opacity="0.58" d="M99.5386 35.6467C99.5386 35.6467 106.344 32.3698 109.873 41.6965C113.402 51.0231 112.772 79.3811 113.781 92.1107C114.789 104.84 116.175 121.603 116.175 124.754C116.175 127.779 116.553 137.357 110.882 136.979C105.336 136.601 104.832 133.702 106.092 134.459C107.479 135.089 113.402 136.097 112.898 127.022C112.394 117.822 108.109 53.6698 108.109 53.6698C108.109 53.6698 108.865 34.7645 99.5386 35.6467Z" fill="#FDB73B"/>
<path d="M72.9447 65.3911C72.9447 69.4242 69.5417 72.8272 65.2565 72.8272C60.9713 72.8272 57.5684 69.5503 57.5684 65.3911C57.5684 61.358 60.9713 57.955 65.2565 57.955C69.4157 57.955 72.9447 61.358 72.9447 65.3911Z" fill="#F0ECBF"/>
<path d="M65.7609 72.197C69.4501 72.197 72.4408 69.3192 72.4408 65.7692C72.4408 62.2192 69.4501 59.3414 65.7609 59.3414C62.0717 59.3414 59.0811 62.2192 59.0811 65.7692C59.0811 69.3192 62.0717 72.197 65.7609 72.197Z" fill="#FAF9E9"/>
<path d="M72.5669 66.6515C72.5669 68.7941 70.6763 70.6846 68.4077 70.6846C66.1391 70.6846 64.2485 68.9201 64.2485 66.6515C64.2485 64.3829 66.1391 62.6183 68.4077 62.6183C70.6763 62.7444 72.5669 64.5089 72.5669 66.6515Z" fill="#737C28"/>
<path opacity="0.56" d="M71.685 66.7775C71.685 68.416 70.2986 69.6764 68.6601 69.6764C67.0216 69.6764 65.6353 68.416 65.6353 66.7775C65.6353 65.1391 67.0216 63.8787 68.6601 63.8787C70.2986 63.8787 71.685 65.1391 71.685 66.7775Z" fill="#E0DC0D"/>
<path d="M71.6847 67.4077C71.6847 68.542 70.6764 69.5503 69.4161 69.5503C68.1557 69.5503 67.1475 68.668 67.1475 67.4077C67.1475 66.2734 68.1557 65.2651 69.4161 65.2651C70.6764 65.3911 71.6847 66.2734 71.6847 67.4077Z" fill="#737C28"/>
<path d="M57.0645 65.3911C57.0645 61.1059 60.7195 57.7029 65.1307 57.7029C69.542 57.7029 73.197 61.1059 73.197 65.3911C73.197 69.6763 69.542 73.0793 65.1307 73.0793C60.7195 73.0793 57.1905 69.6763 57.0645 65.3911ZM57.6946 65.3911C57.6946 69.2982 60.9716 72.4491 65.1307 72.4491C69.2899 72.4491 72.5668 69.2982 72.5668 65.3911C72.5668 61.484 69.2899 58.3331 65.1307 58.3331C61.0976 58.3331 57.6946 61.484 57.6946 65.3911Z" fill="#C6C062"/>
<path d="M68.0296 65.3911C68.0296 66.1473 67.3994 66.6514 66.6432 66.6514C65.887 66.6514 65.2568 66.0213 65.2568 65.3911C65.2568 64.6349 65.887 64.1307 66.6432 64.1307C67.3994 64.1307 68.0296 64.6349 68.0296 65.3911Z" fill="white"/>
<path d="M118.318 68.9202C118.318 72.9533 114.915 76.3563 110.63 76.3563C106.344 76.3563 102.941 73.0793 102.941 68.9202C102.941 64.887 106.344 61.4841 110.63 61.4841C114.789 61.4841 118.318 64.761 118.318 68.9202Z" fill="#F0ECBF"/>
<path d="M117.814 69.2982C117.814 72.8272 114.789 75.726 111.134 75.726C107.479 75.726 104.454 72.8272 104.454 69.2982C104.454 65.7692 107.479 62.8704 111.134 62.8704C114.789 62.8704 117.814 65.7692 117.814 69.2982Z" fill="#FAF9E9"/>
<path d="M117.94 70.1805C117.94 72.4492 116.049 74.2137 113.781 74.2137C111.512 74.2137 109.622 72.4492 109.622 70.1805C109.622 68.0379 111.512 66.1474 113.781 66.1474C116.049 66.1474 117.94 68.0379 117.94 70.1805Z" fill="#737C28"/>
<path opacity="0.56" d="M117.058 70.3066C117.058 71.945 115.672 73.2054 114.033 73.2054C112.269 73.2054 111.008 71.945 111.008 70.3066C111.008 68.6681 112.395 67.4078 114.033 67.4078C115.672 67.2817 117.058 68.6681 117.058 70.3066Z" fill="#E0DC0D"/>
<path d="M117.058 70.9367C117.058 72.0711 116.049 73.0793 114.789 73.0793C113.529 73.0793 112.521 72.1971 112.521 70.9367C112.521 69.6764 113.529 68.7941 114.789 68.7941C116.049 68.9202 117.058 69.8024 117.058 70.9367Z" fill="#737C28"/>
<path d="M102.438 68.9202C102.438 64.635 106.093 61.232 110.504 61.232C114.915 61.232 118.57 64.635 118.57 68.9202C118.57 73.2054 114.915 76.6083 110.504 76.6083C106.093 76.6083 102.438 73.0793 102.438 68.9202ZM103.068 68.9202C103.068 72.8273 106.345 75.9782 110.504 75.9782C114.663 75.9782 117.94 72.8273 117.94 68.9202C117.94 65.0131 114.663 61.8622 110.504 61.8622C106.471 61.8622 103.068 65.0131 103.068 68.9202Z" fill="#C6C062"/>
<path d="M113.403 68.9202C113.403 69.6764 112.772 70.1805 112.016 70.1805C111.26 70.1805 110.63 69.5503 110.63 68.9202C110.63 68.164 111.26 67.6598 112.016 67.6598C112.772 67.5338 113.403 68.164 113.403 68.9202Z" fill="white"/>
<path d="M77.8604 52.4095C76.474 49.6367 75.2137 49.1325 74.2054 49.1325C72.945 49.1325 71.4326 50.1408 70.8024 50.645C70.5503 50.771 70.5503 50.897 70.5503 50.897C70.1722 51.2751 69.5421 51.2751 69.164 50.897C68.7858 50.5189 68.7858 49.8887 69.164 49.5106C69.29 49.5106 71.3066 47.116 74.3314 47.116C76.348 47.116 78.3645 48.3763 79.877 51.5272C80.129 52.0314 79.877 52.6615 79.3728 52.9136C79.2468 53.0396 79.1208 53.0396 78.9947 53.0396C78.3645 53.0396 77.9864 52.7876 77.8604 52.4095Z" fill="#832F0A"/>
<path d="M108.739 54.3C111.008 52.2835 112.394 52.4095 113.403 52.7876C114.663 53.2917 115.545 54.8042 115.797 55.5604C115.923 55.8125 115.923 55.9385 115.923 55.9385C116.049 56.4426 116.679 56.6947 117.184 56.5687C117.688 56.3166 117.94 55.8125 117.814 55.3083C117.688 55.1823 116.806 52.2835 114.159 51.0231C112.394 50.2669 109.874 50.519 107.353 52.7876C106.975 53.1657 106.849 53.7959 107.227 54.174C107.353 54.3 107.479 54.4261 107.605 54.4261C107.983 54.6781 108.487 54.5521 108.739 54.3Z" fill="#832F0A"/>
<path opacity="0.65" d="M85.2964 94.6314C84.1621 94.6314 82.9018 94.5053 81.6414 94.3793C76.0958 93.6231 72.9449 91.6065 71.3065 89.5899C69.668 87.6994 69.542 85.9349 69.542 85.8089C69.542 85.3047 69.9201 84.8006 70.5503 84.6746C71.0544 84.6746 71.5586 85.0527 71.6846 85.6828V85.8089C71.6846 85.9349 71.8106 86.187 71.8106 86.313C71.9367 86.8172 72.3148 87.4473 72.9449 88.2036C74.2053 89.716 76.726 91.4805 82.0195 92.2367C83.2799 92.3627 84.4142 92.4888 85.4225 92.4888C92.3544 92.4888 95.2532 89.0858 95.8834 88.4556C96.0094 88.3296 96.0094 88.3296 96.0094 88.3296C96.2615 87.8254 96.8917 87.6994 97.3958 88.0775C97.9 88.3296 98.026 88.9598 97.6479 89.4639C97.5219 89.716 94.1189 94.6314 85.2964 94.6314C85.4225 94.6314 85.4225 94.6314 85.2964 94.6314Z" fill="#FDB73B"/>
<path d="M85.2966 94.0012C84.1622 94.0012 83.0279 93.8752 81.7676 93.7491C70.8025 92.2367 70.2983 85.9349 70.2983 85.8089H70.9285C70.9285 85.8089 70.9285 86.187 71.1806 86.6912C71.4327 87.1953 71.6847 88.0775 72.4409 88.8338C73.8273 90.4722 76.4741 92.3627 81.8936 93.119C83.154 93.245 84.2883 93.371 85.2966 93.371C91.4723 93.371 94.6232 90.8503 95.8835 89.59C96.2616 89.2119 96.5137 88.9598 96.5137 88.9598L97.0179 89.3379C97.0179 89.2119 93.867 94.0012 85.2966 94.0012C85.4226 94.0012 85.2966 94.0012 85.2966 94.0012Z" fill="#F09D1F"/>
<g opacity="0.65">
<path opacity="0.65" d="M43.5787 131.182C40.3018 130.677 38.4112 128.787 37.4029 127.022C37.1509 126.518 36.8988 126.014 36.6467 125.51C36.2686 127.148 36.1426 128.535 36.1426 129.921C37.655 131.686 39.9236 133.324 43.2006 133.828C44.2089 133.954 45.2171 134.08 46.0994 134.08C47.3597 134.08 48.6201 133.954 49.7544 133.702C50.5106 132.694 51.2668 131.56 51.897 130.299C50.3846 130.804 48.368 131.308 46.0994 131.308C45.3432 131.308 44.4609 131.308 43.5787 131.182Z" fill="#EA6620"/>
<path opacity="0.65" d="M55.0478 122.107C54.7957 122.233 51.7709 124.502 47.7377 124.502C46.9815 124.502 46.3514 124.376 45.5951 124.25C43.2005 123.746 41.8141 122.233 40.9318 120.469C40.5537 119.586 40.3017 118.83 40.0496 118.2C39.9235 117.948 39.9235 117.696 39.9235 117.444C39.9235 117.318 39.9235 117.318 39.9235 117.318C39.9235 116.94 39.6715 116.562 39.5454 116.309C38.6632 118.578 38.033 120.595 37.4028 122.611C38.5372 124.88 40.9318 127.653 44.8389 128.409C45.8472 128.661 46.8555 128.661 47.7377 128.661C49.8803 128.661 51.7709 128.283 53.2833 127.653C53.5354 127.149 53.6614 126.77 53.9135 126.266C54.5437 124.754 55.2999 123.241 56.0561 121.729C55.678 121.729 55.4259 121.855 55.0478 122.107Z" fill="#EA6620"/>
</g>
<path opacity="0.5" d="M102.438 76.1041C101.681 81.1455 100.547 85.0526 99.5389 85.8089C96.514 88.0775 102.312 84.1704 102.06 92.6148C101.934 101.059 101.051 126.392 105.967 129.417C110.882 132.442 108.235 116.562 107.857 109.882C107.731 106.857 107.731 93.8751 107.227 79.6331C105.715 79.129 103.95 78.1207 102.438 76.1041Z" fill="#FFEC67"/>
<path opacity="0.5" d="M63.3666 76.1042C50.3849 97.7823 38.4115 121.603 39.4198 125.51C40.6802 130.173 47.7381 118.452 50.889 110.26C52.7796 105.218 60.7198 89.0858 67.9038 75.6C66.5174 76.1042 64.879 76.2302 63.3666 76.1042Z" fill="#FFEC67"/>
<path opacity="0.5" d="M102.059 39.0497C100.169 35.6468 96.1357 37.4113 94.6233 38.0414C94.6233 38.0414 87.5653 39.5539 73.1973 60.7278C73.8274 61.6101 74.3316 62.7444 74.4576 64.2568C76.4742 60.9799 78.2387 58.3332 79.499 56.9468C79.499 56.9468 97.018 34.1343 101.429 45.7296C103.068 50.0148 103.698 56.3166 103.572 62.6184C104.328 61.8621 105.21 61.358 106.219 60.8539C105.336 50.8971 104.076 42.5787 102.059 39.0497Z" fill="#FFEC67"/>
<path opacity="0.58" d="M38.9153 131.182C38.9153 131.182 38.5372 135.971 42.9485 135.971C47.3597 135.971 50.3846 128.913 55.552 118.956C60.5934 108.999 66.7692 98.4124 79.8769 99.7988C92.9846 101.185 98.4041 113.915 98.6562 112.654C99.0343 111.394 97.6479 104.966 97.6479 98.4124C97.6479 91.8586 98.5301 91.8586 94.1189 96.5219C89.0775 101.815 74.9615 98.6645 70.6763 94.3793C66.013 89.716 67.7775 90.4722 63.7443 98.9166C59.5851 107.361 45.8473 141.643 38.9153 131.182Z" fill="#FDB73B"/>
</g>
<defs>
<filter id="filter0_d_125_835" x="14.1929" y="30.8671" width="144.175" height="137.904" filterUnits="userSpaceOnUse" color-interpolation-filters="sRGB">
<feFlood flood-opacity="0" result="BackgroundImageFix"/>
<feColorMatrix in="SourceAlpha" type="matrix" values="0 0 0 0 0 0 0 0 0 0 0 0 0 0 0 0 0 0 127 0" result="hardAlpha"/>
<feOffset dy="4"/>
<feGaussianBlur stdDeviation="2"/>
<feComposite in2="hardAlpha" operator="out"/>
<feColorMatrix type="matrix" values="0 0 0 0 0 0 0 0 0 0 0 0 0 0 0 0 0 0 0.25 0"/>
<feBlend mode="normal" in2="BackgroundImageFix" result="effect1_dropShadow_125_835"/>
<feBlend mode="normal" in="SourceGraphic" in2="effect1_dropShadow_125_835" result="shape"/>
</filter>
</defs>
</svg>
