<svg width="180" height="171" viewBox="0 0 180 171" fill="none" xmlns="http://www.w3.org/2000/svg">
<path d="M78.7788 30.9184C67.9048 32.0106 62.9772 38.7696 59.5809 45.8011C50.1306 65.3815 42.1017 64.6104 27.8803 75.7053C11.0224 88.9639 18.8606 104.447 30.99 111.609C36.0517 114.551 41.5429 117.306 43.7004 123.154C45.3778 127.666 44.2048 133.711 44.3095 138.535C44.7536 156.256 62.0923 169.152 85.8448 154.224C99.9244 145.342 103.511 134.395 108.941 119.496C114.283 105.438 123.975 97.487 136.081 89.3071C165.049 69.6466 163.213 26.0699 104.176 38.6656C94.868 40.5632 87.5696 30.0477 78.7788 30.9184Z" fill="#FFDDA0"/>
<path d="M118.922 107.498C122.596 110.596 120.542 118.053 113.96 116.749C111.23 117.044 114.529 119.879 114.529 119.879C121.561 120.915 125.611 113.001 120.858 107.492" fill="#FCA01A"/>
<path d="M93.8177 61.0657C92.3909 66.4885 85.4551 83.6482 83.2934 89.8603C81.1316 96.0724 88.8023 101.329 88.9579 100.169C89.1134 99.0093 88.8559 96.3086 88.3142 95.2133C88.4644 94.6871 88.8077 92.3945 88.3142 91.0576C88.7058 90.1986 91.6077 85.7529 91.1679 83.4603C91.8062 82.9341 93.5281 80.067 93.4315 77.8227C93.63 77.7744 95.7917 74.1449 96.0868 71.1328C96.2369 69.608 95.84 67.3583 95.84 67.3583C95.84 67.3583 96.6822 68.8402 96.6285 69.9409C97.6048 69.0818 99.1872 64.1583 98.447 61.9892C99.1872 60.2979 99.5788 57.565 98.8117 54.4402C98.8117 54.4402 99.5788 55.1758 99.6753 56.11C100.56 54.5583 100.952 46.7624 97.9535 43.804C95.8883 41.9409 94.5204 45.855 94.558 45.9892" fill="#8E2100"/>
<path d="M93.4264 38.0322C98.8871 41.2483 97.3047 59.7718 92.1873 74.2201C87.0753 88.6684 85.2247 93.4093 87.9443 98.8214C89.9988 102.907 71.3209 112.174 70.7684 101.372C70.0871 87.9865 85.6002 71.4872 84.4201 55.7234C83.24 39.9651 87.8746 34.7624 93.4264 38.0322Z" fill="#FCA01A"/>
<path d="M94.7728 56.0994C94.6172 60.647 89.2746 64.1584 85.0798 64.9638C84.522 67.2081 81.5127 70.9504 81.5127 70.9504C83.1005 67.3477 84.0231 62.8591 84.4254 60.6577" fill="#E27105"/>
<path d="M91.0555 152.615C88.8884 152.958 86.4101 156.845 88.3359 158.252C88.9206 158.429 90.224 156.84 90.224 156.84C90.224 156.84 89.1298 158.762 89.4784 158.972C91.2701 160.04 99.9439 158.059 97.9002 152.207" fill="#60150C"/>
<path d="M96.1248 128.513C95.7225 130.376 100.872 134.848 100.143 137.194C99.413 139.541 92.4665 151.149 90.8733 152.529C89.2748 153.908 96.039 154.934 98.1739 153.098C100.314 151.261 98.9034 150.773 99.9441 148.351C100.985 145.925 104.75 139.589 106.585 138.349C108.419 137.114 109.111 134.413 107.379 132.024C105.641 129.629 106.424 124.432 106.424 124.432" fill="#FCA01A"/>
<path d="M96.4248 128.443C97.09 130.977 100.308 130.59 102.379 131.24C104.444 131.884 106.788 132.684 108.398 134.075C109.315 129.232 107.25 125.581 104.594 125.076" fill="#E27105"/>
<path d="M104.927 137.108C103.441 133.275 100.598 137.785 101.274 139.879C101.95 141.973 105.694 139.074 104.927 137.108Z" fill="#E25D03"/>
<path d="M102.819 143.058C102.615 141.946 98.71 143.412 100.684 146.725C101.8 144.931 102.819 143.058 102.819 143.058Z" fill="#E25D03"/>
<path d="M99.8367 131.756C98.5868 132.013 100.019 135.412 101.494 134.982C102.969 134.553 102.824 131.143 99.8367 131.756Z" fill="#E25D03"/>
<path d="M102.701 129.141C101.559 130.139 103.887 135.197 106.74 134.864C109.599 134.531 108.891 132.717 107.754 130.435C106.622 128.153 104.166 127.863 102.701 129.141Z" fill="#E25D03"/>
<path d="M99.3536 140.969C101.21 141.13 99.1337 146.998 94.9282 153.667C93.3404 153.747 91.7365 153.479 91.522 152.765C93.9788 149.597 98.3666 140.888 99.3536 140.969Z" fill="#FFD44A"/>
<path d="M91.4575 154.451C93.3403 154.939 93.41 157.715 92.6108 158.451C91.2 159.036 90.1701 158.563 89.9341 158.284C89.5586 157.839 90.5939 156.169 90.5939 156.169C90.5939 156.169 88.8988 157.812 88.4429 157.758C87.9923 157.527 87.7616 156.657 87.944 156.051C88.1264 155.449 89.1992 153.865 91.4575 154.451Z" fill="#842D1C"/>
<path d="M79.7855 31.5732C78.6966 29.9571 77.0122 28.6524 77.0122 28.6524C79.4422 28.094 81.9097 29.0014 83.1381 30.9719C83.004 28.8779 81.915 28.3249 81.915 28.3249C84.2645 27.9759 87.5152 28.6202 89.5482 31.9061L89.3766 30.5746C91.8977 31.1544 95.1108 34.9128 96.1247 41.4631C93.9093 36.9048 86.2922 31.9276 78.4659 33.0497" fill="#8E2100"/>
<path d="M92.4234 35.949C92.5629 34.1557 92.0694 32.1047 90.9858 31.3262C93.0081 32.6148 94.5529 36.4483 93.7054 36.6309" fill="#AA4315"/>
<path d="M83.374 28.3249C85.2568 28.2014 87.5849 29.9195 88.7435 32.1101C89.0332 31.0309 88.4163 30.4135 88.4163 30.4135C89.9022 31.702 90.68 33.5759 90.7175 34.3651C89.65 33.3987 87.2147 32.4376 87.2147 32.4376C86.732 30.8591 84.6292 28.5182 83.374 28.3249Z" fill="#AA4315"/>
<path d="M72.3077 42.2631C58.6453 43.0738 58.5649 29.3396 59.1978 29.0658C59.8308 28.7866 61.0055 29.2483 62.3412 29.1356C67.8609 28.9584 73.2787 31.5732 73.8365 37.7852C73.976 39.3584 73.7936 42.1772 72.3077 42.2631Z" fill="#FFD44A"/>
<path d="M69.4222 39.7396C68.6873 34.3758 64.7983 32.1799 60.6089 31.3047C61.2258 35.8631 63.8381 42.1181 69.4222 39.7396Z" fill="#F96464"/>
<path d="M62.25 29.6994C67.0026 28.6685 72.576 32.384 70.4893 38.1396C68.4456 33.5759 62.25 29.6994 62.25 29.6994Z" fill="#FFEB76"/>
<path d="M60.9845 32.1316C60.9684 33.1302 62.7225 39.7396 66.7187 38.7088C67.1318 36.2282 64.8574 32.2014 60.9845 32.1316Z" fill="#FF8585"/>
<path d="M65.8869 59.9919C66.7827 59.2402 67.2762 58.1664 66.4179 55.2724C64.0685 47.3852 63.4784 37.7315 75.4029 33.3557C82.1509 30.4671 92.1711 33.1248 95.8777 41.1517C99.5951 49.1946 95.8724 58.451 89.8806 61.6402C83.7065 64.9261 76.9102 64.5557 74.2764 65.6832C71.1384 67.0254 70.3713 65.4093 68.4885 64.1315C67.9521 63.7664 64.7658 60.9261 65.8869 59.9919Z" fill="#FCA01A"/>
<path d="M80.2894 33.5812C89.5211 34.349 95.207 45.7799 90.5081 54.5906C86.2168 62.6335 71.9267 64.0241 68.6385 61.1194C65.3557 58.2147 68.4937 60.4 65.9028 52.3087C63.1993 43.8577 69.6202 32.6953 80.2894 33.5812Z" fill="#FFD44A"/>
<path d="M80.9495 42.9558C82.7089 42.7195 84.0768 45.4202 82.1832 45.9947C80.2897 46.5692 75.5156 43.6913 80.9495 42.9558Z" fill="#EF7320"/>
<path d="M93.2329 42.8752C90.7011 42.6067 87.0428 47.3584 88.1907 50.3812C89.344 53.404 95.2337 50.5261 95.8989 48.8993C96.5587 47.2725 94.8261 43.0416 93.2329 42.8752Z" fill="#E25D03"/>
<path d="M65.9298 44.1047C67.9575 38.5798 77.3018 38.1718 76.8673 47.3476C76.4382 56.5288 67.9897 55.9811 66.5735 53.3073C65.1574 50.6281 65.093 46.3919 65.9298 44.1047Z" fill="#FFEB76"/>
<path d="M74.3677 41.5705C77.0015 39.847 81.8775 40.7652 82.9503 42.0323C80.1502 38.6014 76.9532 38.6927 74.3677 41.5705Z" fill="#592400"/>
<path d="M76.0898 56.3195C74.899 55.4766 74.2392 48.8994 77.4577 47.4766C83.1704 44.9531 84.5007 48.7867 83.9911 51.5947C83.4118 54.8323 77.0071 56.9692 76.0898 56.3195Z" fill="#FFB8B8"/>
<path d="M76.3363 55.9813C75.285 55.235 75.2152 50.231 77.8061 48.7706C81.5825 46.6444 84.2431 49.7907 83.3634 52.2444C82.371 55.0041 77.1463 56.5558 76.3363 55.9813Z" fill="white"/>
<path d="M78.8791 47.4551C76.2668 49.0014 77.6615 55.3424 80.6332 54.9987C83.5138 54.6659 85.6701 49.839 82.8593 47.2457C81.808 46.2847 79.7589 46.9343 78.8791 47.4551Z" fill="#08A9BF"/>
<path d="M81.3896 47.0524C78.139 47.1598 78.729 54.4457 81.9421 53.6833C84.1951 53.1464 84.9353 46.9343 81.3896 47.0524Z" fill="#004254"/>
<path d="M83.1007 47.7289C83.4011 49.0014 84.8172 53.839 79.48 55.7289C84.9621 54.1235 84.8011 50.1557 84.0394 47.4604" fill="#87400F"/>
<path d="M75.1939 52.5236C75.741 48.3357 78.4767 45.9249 83.24 47.89C85.8846 47.2511 85.8416 44.631 85.8416 44.631C85.1121 46.58 83.3151 46.3813 83.3151 46.3813C79.8124 44.7974 74.9364 46.4994 75.1939 52.5236Z" fill="#592400"/>
<path d="M79.0885 50.2578C79.3674 49.5813 80.4886 49.9088 80.0487 50.741C79.6142 51.5732 78.8739 50.7732 79.0885 50.2578Z" fill="white"/>
<path d="M77.2752 54.2632C77.8384 54.9773 79.9466 53.2055 79.3887 52.5558C78.8254 51.9115 76.7066 53.5491 77.2752 54.2632Z" fill="white"/>
<path d="M74.0781 65.753C76.1487 60.8993 71.3371 57.6993 66.858 57.9839C63.6396 59.9704 67.3301 62.4241 67.3837 65.0335C67.2067 67.5194 70.0389 68.3946 71.7072 67.1973C72.6352 66.5261 73.4559 66.0053 74.0781 65.753Z" fill="#F4691C"/>
<path d="M64.6587 59.5677C63.8809 58.7516 62.1859 60.3302 63.7415 61.5006L64.6587 59.5677Z" fill="#F4691C"/>
<path d="M67.8662 64.5879C70.0333 64.3839 71.0043 63.3691 72.7047 62.043C71.1652 63.5517 71.7338 67.4496 69.1858 66.8751C67.9038 66.5852 67.8662 64.5879 67.8662 64.5879Z" fill="#FF8D8D"/>
<path d="M72.2002 62.6764C72.7152 62.2254 73.4232 62.757 73.5037 62.1503C73.5251 61.9784 73.3696 61.667 73.0316 61.7261C72.6937 61.7798 72.4362 62.1019 72.1305 62.3972C71.5672 62.9395 70.1672 64.2335 68.4507 64.5073C69.5986 64.4859 70.5427 64.1315 72.2002 62.6764Z" fill="#AA2D0F"/>
<path d="M69.3465 65.7423C69.7435 64.7491 70.7197 64.4376 70.8109 65.0068C70.9075 65.5759 70.3228 66.6014 69.3412 66.5531C68.4936 66.5101 67.85 65.2001 68.3595 64.792C68.8745 64.3786 69.4538 65.2269 69.3465 65.7423Z" fill="#FFA6A6"/>
<path d="M66.8577 57.9839C64.0845 58.9879 62.9097 61.4255 63.9933 63.1973C65.286 65.3181 71.0149 64.9315 71.5299 62.0376C72.0448 59.149 66.8577 57.9839 66.8577 57.9839Z" fill="#F4691C"/>
<path d="M70.709 59.8309C71.4922 61.3718 68.204 64.6685 65.2215 62.9611C62.6414 61.4846 64.6583 58.8269 66.5035 58.3222C67.7373 57.9893 69.9205 58.2899 70.709 59.8309Z" fill="#FF8345"/>
<path d="M89.7092 44.8671C105.324 50.9074 110.844 34.9128 110.216 34.3598C109.589 33.8014 108.033 33.9034 106.526 33.2698C100.153 31.0041 92.8043 32.0349 89.6985 39.0739C88.91 40.8564 88.0142 44.2121 89.7092 44.8671Z" fill="#FFD44A"/>
<path d="M92.4233 42.1557C95.3682 36.1584 101.376 35.3584 107.314 36.255C104.814 41.3557 99.0319 47.5409 92.4233 42.1557Z" fill="#F96464"/>
<path d="M106.408 33.9571C101.269 30.9826 92.5951 32.2336 93.4319 38.0269C98.989 33.9142 106.408 33.9571 106.408 33.9571Z" fill="#FFEB76"/>
<path d="M106.509 37.0551C106.166 38.2416 101.397 45.243 96.4194 42.1826C96.7735 39.0685 101.295 35.353 106.509 37.0551Z" fill="#FF8585"/>
<path d="M78.1655 33.7692C76.5348 32.1638 75.6926 27.3745 75.7087 25.8658C77.0229 24.2712 76.0466 22.3276 75.3064 22.0806C73.9278 21.6188 70.8113 23.2296 70.4894 24.6631C70.2051 25.9571 71.4389 26.9987 72.2703 27.3531C73.4719 29.141 73.901 34.3544 73.901 34.3544" fill="#FFD44A"/>
<path d="M74.8557 22.5531C75.553 22.8001 75.1775 23.9545 73.3537 24.98C71.5352 26.0055 70.3283 25.2538 71.251 24.1585C72.1843 23.0632 74.1583 22.3061 74.8557 22.5531Z" fill="#914816"/>
<path d="M85.348 36.0134C85.348 36.0134 86.3029 29.8712 88.5343 28.4376C89.4087 27.8738 91.1038 27.0846 91.3022 25.2806C91.5061 23.4712 87.9604 22.4242 86.2599 22.7249C84.5595 23.0255 84.8545 25.5007 85.1764 26.3275C85.4553 27.0416 83.0468 32.8242 80.751 34.4618" fill="#FFD44A"/>
<path d="M87.4666 23.1812C86.0772 22.9826 85.0956 24.0994 86.1792 25.3504C87.2627 26.6014 88.8129 26.9128 89.8697 26.3651C90.921 25.8175 91.1839 23.7128 87.4666 23.1812Z" fill="#914816"/>
<path d="M76.0999 36.0188C74.0884 37.0443 69.8508 40.7168 69.5665 42.6711C68.6599 41.4416 68.5151 37.7315 70.1082 35.6537C70.1082 35.6537 68.6331 35.2134 67.7212 37.1409C68.0323 34.4295 69.6362 31.702 72.6562 31.8685C72.6562 31.8685 70.3174 30.8698 69.0729 31.5839C71.1328 29.1839 79.1253 26.8913 81.3192 33.1732C81.7752 34.4779 78.0471 35.0255 76.0999 36.0188Z" fill="#8E2100"/>
<path d="M80.4825 31.9705C80.0373 28.255 73.5521 27.6 70.6823 29.7154C73.2302 28.7168 76.2502 31.7289 76.2502 31.7289C72.6616 31.0738 71.4762 33.7369 70.4087 38.0161C72.8386 34.3651 76.1429 34.2309 77.8809 34.3544C79.399 34.4617 80.6381 33.2805 80.4825 31.9705Z" fill="#AA4315"/>
<path d="M70.1084 61.4952C69.5934 60.91 68.3757 62.5905 68.8048 62.8912C69.3359 63.2616 70.8111 62.2898 70.1084 61.4952Z" fill="#A83F16"/>
<path d="M63.9129 59.4819C63.3014 59.6698 63.1351 60.4161 63.6447 60.298C64.1596 60.1745 64.6424 59.2564 63.9129 59.4819Z" fill="#FF8345"/>
<path d="M70.9775 60.6792C70.0978 59.5839 68.6817 60.6416 68.3384 61.506C69.0089 60.4376 70.6503 60.545 70.8381 60.9906" fill="#F4691C"/>
<path d="M62.411 156.899C60.3834 156.931 57.9963 160.593 59.7719 162.343C60.319 162.607 61.5635 161.157 61.5635 161.157C61.5635 161.157 60.3834 162.972 60.8286 163.251C62.9099 164.577 70.6181 163.831 68.8104 157.468" fill="#60150C"/>
<path d="M84.4682 124.985C85.0582 127.417 79.0504 138.435 76.7975 140.894C74.9039 142.966 76.3898 143.976 74.7752 145.538C73.166 147.1 70.7038 154.569 70.8755 155.986C71.0471 157.404 66.6325 161.774 62.4216 158.075C61.5473 157.313 63.001 156.362 65.2432 152.346C67.4854 148.33 69.159 145.484 69.1912 143.793C69.2234 142.102 69.8885 141.098 71.0257 139.809C72.1629 138.521 70.4303 132.142 75.2043 121.339" fill="#FCA01A"/>
<path d="M75.0706 124.072C73.3326 124.953 71.9594 135.621 71.541 140.357C71.8736 142.875 72.5709 143.181 73.6974 141.205C75.0384 138.848 79.3028 131.718 78.45 129.211C75.4514 126.376 75.0706 124.072 75.0706 124.072Z" fill="#FFD44A"/>
<path d="M72.6992 139.858C74.6625 140.642 73.6433 144.346 71.7927 143.868C69.9474 143.396 70.0869 138.821 72.6992 139.858Z" fill="#FFD44A"/>
<path d="M70.6398 144.856C72.2705 144.953 68.8857 155.025 66.8795 158.644C64.7714 159.251 63.1997 157.372 63.1997 157.372C64.5515 154.811 69.7279 144.802 70.6398 144.856Z" fill="#FFD44A"/>
<path d="M62.8242 159.031C64.5139 159.933 64.3154 162.811 63.5054 163.401C62.1483 163.707 61.2471 163.004 61.0594 162.666C60.7536 162.129 61.8694 160.625 61.8694 160.625C61.8694 160.625 60.1529 161.968 59.7398 161.812C59.3482 161.479 59.2195 160.534 59.4394 159.943C59.6647 159.353 60.8073 157.951 62.8242 159.031Z" fill="#842D1C"/>
<path d="M75.7461 121.334C75.8641 124.164 80.1929 127.895 81.2711 128.851C82.3547 129.807 81.2765 134.118 79.5653 136.813C82.4566 132.394 85.5571 124.55 85.38 122.349" fill="#E27105"/>
<path d="M86.7103 92.4912C86.485 99.6482 93.6246 108.443 102.883 108.69C112.142 108.937 116.599 114.064 116.771 120.958C116.948 127.852 104.085 131.235 87.354 128.464C74.3889 126.317 61.6276 112.641 73.8632 94.1127" fill="#FCA01A"/>
<path d="M85.3745 164.55C83.6741 165.334 83.0894 169.307 85.2726 170.129C85.8358 170.155 86.3186 168.459 86.3186 168.459C86.3186 168.459 85.9109 170.419 86.5224 170.504C89.5639 170.934 95.0192 167.374 91.0015 162.666" fill="#60150C"/>
<path d="M94.1875 127.756C95.4642 129.71 93.1952 142.139 92.0204 144.443C90.8403 146.735 92.8411 147.573 91.9185 149.415C90.9959 151.256 91.4733 159.525 92.1706 160.658C92.8733 161.785 90.8511 167.106 85.8464 165.543C84.8057 165.216 85.664 163.874 85.9858 159.654C86.3077 155.433 86.9782 151.015 86.4793 149.527C85.9858 148.046 86.2487 146.961 86.8387 145.501C87.4288 144.04 81.7643 131.825 84.7682 125.882" fill="#FCA01A"/>
<path d="M92.2242 121.672C94.7937 125.076 92.1491 136.727 91.4357 140.024C90.7276 143.315 88.9038 148.931 87.8417 146.091C85.7068 139.986 84.473 125.882 86.5436 122.472C88.362 119.487 91.2801 120.427 92.2242 121.672Z" fill="#FFD44A"/>
<path d="M88.3997 145.549C90.3576 145.71 90.5775 149.028 88.8073 149.119C87.0372 149.211 85.7712 145.339 88.3997 145.549Z" fill="#FFD44A"/>
<path d="M88.2441 151.503C89.7086 151.138 89.671 160.953 88.9629 164.701C87.2786 165.817 85.8678 164.292 85.8678 164.292C85.7391 161.914 87.4234 151.707 88.2441 151.503Z" fill="#FFD44A"/>
<path d="M86.7102 166.15C88.4804 166.381 89.3011 168.926 88.8076 169.705C87.7455 170.413 86.7209 170.097 86.4366 169.866C85.9914 169.495 86.4312 167.836 86.4312 167.836C86.4312 167.836 85.412 169.554 85.0044 169.554C84.5484 169.393 84.1139 168.62 84.1032 168.04C84.0925 167.46 84.5913 165.876 86.7102 166.15Z" fill="#842D1C"/>
<path d="M120.005 157.474C118.305 158.413 118.021 162.574 120.343 163.262C120.933 163.24 121.298 161.458 121.298 161.458C121.298 161.458 121.132 163.46 121.663 163.557C123.331 163.858 130.219 159.686 125.691 155.106" fill="#60150C"/>
<path d="M103.178 122.741C106.155 136.545 109.84 135.176 114.298 138.44C117.795 141.001 119.517 152.491 119.517 158.295C120.612 159.471 124.275 157.882 124.973 156.776C125.67 155.675 126.405 154.075 124.79 152.115C123.176 150.161 120.563 138.837 120.982 136.169C121.411 133.506 119.233 133.066 117.168 131.074C115.789 129.742 118.155 122.934 116.079 117.382" fill="#FCA01A"/>
<path d="M104.965 126.537C105.721 129.726 107.926 134.263 112.63 136.389C115.468 137.672 116.675 135.729 115.242 134.8C112.228 132.846 118.67 116.185 110.586 111.831C105.71 109.2 103.162 118.929 104.965 126.537Z" fill="#FFD44A"/>
<path d="M117.479 141.291C118.965 140.448 122.296 149.656 123.921 156.625C123.041 157.849 120.402 158.521 119.898 157.855C120.102 151.052 116.685 141.742 117.479 141.291Z" fill="#FFD44A"/>
<path d="M121.502 159.004C123.358 159.036 124.517 161.57 124.104 162.429C123.09 163.283 121.996 163.079 121.679 162.87C121.17 162.542 121.422 160.781 121.422 160.781C121.422 160.781 120.58 162.671 120.156 162.719C119.668 162.607 119.121 161.86 119.04 161.264C118.96 160.663 119.282 158.966 121.502 159.004Z" fill="#842D1C"/>
<path d="M79.8498 34.0967C79.1096 32.7598 76.7494 32.2336 75.521 32.8779C76.9479 31.8954 80.1019 31.5196 80.8368 32.8779" fill="#8E2100"/>
<path d="M78.7393 28.6953C80.5362 28.2658 82.521 29.6027 82.9072 31.1812C82.3064 31.8041 81.3569 31.1812 81.3569 31.1812C80.8205 29.345 78.7393 28.6953 78.7393 28.6953Z" fill="#AA4315"/>
<path d="M99.2193 47.2832C100.63 48.9745 101.435 52.7436 100.458 55.1114C100.593 52.2657 96.8377 48.4859 99.2193 47.2832Z" fill="#AA4315"/>
<path d="M97.964 55.0148C99.2353 56.2121 99.7074 61.0013 98.5916 62.655C98.6131 60.9906 97.6422 59.004 97.6422 59.004C98.2805 62.1611 98.4522 66.3114 97.3579 67.7235C97.9104 64.3463 96.6016 60.3087 96.6016 60.3087C97.5725 57.9356 97.964 55.0148 97.964 55.0148Z" fill="#AA4315"/>
<path d="M95.4968 68.8456C96.1673 72.459 95.765 75.5677 94.4884 77.5436C95.2608 75.0684 94.188 72.0402 94.188 72.0402L95.4968 68.8456Z" fill="#AA4315"/>
<path d="M92.6807 77.5436C93.7535 79.8899 92.3213 83.0791 91.6133 83.9919C92.5466 81.8765 91.8118 80.1798 91.8118 80.1798L92.6807 77.5436Z" fill="#AA4315"/>
<path d="M96.1887 64.212C96.8753 67.1275 96.7358 71.9328 95.561 74.2523C96.6071 71.5731 95.561 66.2953 95.561 66.2953L96.1887 64.212Z" fill="#AA4315"/>
<path d="M84.3554 93.7476C84.3554 102.505 92.2245 108.019 98.8814 109.162C105.538 110.311 112.951 108.4 114.475 117.382C115.998 126.365 98.5649 128.083 85.9914 123.246C74.008 118.633 70.4569 103.047 75.172 94.2523C78.9912 87.1328 84.3554 87.8308 84.3554 93.7476Z" fill="#FFD44A"/>
<path d="M95.2289 58.2201C92.1928 74.7946 83.798 86.9986 85.3697 97.4845C87.526 111.868 75.5479 104.744 74.6843 101.05C72.5977 92.1046 83.0148 75.8254 85.9007 67.1275C92.107 66.0053 95.2289 58.2201 95.2289 58.2201Z" fill="#FFD44A"/>
<path d="M89.3226 103.976C86.3616 103.858 84.3017 109.366 88.3034 111.976C92.3104 114.585 97.342 111.568 96.8378 109.828C96.3389 108.083 92.8146 104.115 89.3226 103.976Z" fill="#E25D03"/>
<path d="M104.337 109.79C101.998 110.182 101.703 115.933 103.575 117.023C105.447 118.113 111.128 113.323 111.133 111.739C111.138 110.15 108.472 109.098 104.337 109.79Z" fill="#E25D03"/>
<path d="M99.7558 111.75C98.1305 111.02 93.2064 113.603 94.3489 116.582C95.4915 119.562 101 118.037 101.633 117.286C102.261 116.534 101.279 112.437 99.7558 111.75Z" fill="#E25D03"/>
<path d="M88.9365 101.769C89.5802 100.207 85.8951 94.8268 84.2536 95.1436C82.6122 95.4603 80.0642 101.452 81.6252 102.886C83.1862 104.325 88.2821 103.364 88.9365 101.769Z" fill="#E25D03"/>
<path d="M87.4238 88.604C87.4506 86.0054 85.3908 83.3906 83.5027 83.992C81.6145 84.5933 79.3026 91.004 81.4429 92.0027C83.5885 93.0013 86.866 90.9396 86.866 90.9396L87.4238 88.604Z" fill="#E25D03"/>
<path d="M83.1003 77.0228C85.9164 75.6537 85.6536 81.2644 83.6152 81.9409C81.5822 82.6121 78.5408 79.2349 83.1003 77.0228Z" fill="#EF7320"/>
<path d="M80.6385 94.612C80.9764 92.6308 76.0361 91.0469 75.3709 94.612C74.7058 98.1771 76.1434 99.498 77.3932 99.0308C78.6377 98.5691 80.3703 96.1691 80.6385 94.612Z" fill="#EF7320"/>
<path d="M83.8463 105.082C84.8065 105.898 84.0179 110.016 81.7596 110.37C79.5013 110.719 76.2668 107.568 77.4576 106.134C78.6484 104.695 82.7198 104.121 83.8463 105.082Z" fill="#E25D03"/>
<path d="M83.1325 111.514C81.432 112.083 80.0212 115.025 81.5393 116.029C83.0574 117.033 86.7157 116.244 86.8766 114.166C87.0376 112.088 85.2781 110.794 83.1325 111.514Z" fill="#E25D03"/>
<path d="M90.1809 115.568C88.7594 115.471 84.8651 118.515 86.8123 120.212C88.7594 121.909 91.1626 121.533 92.1603 120.529C93.1473 119.519 92.0584 115.691 90.1809 115.568Z" fill="#E25D03"/>
<path d="M113.681 114.601C112.115 112.668 107.781 115.004 111.005 117.672C114.234 120.335 116.857 118.526 113.681 114.601Z" fill="#E25D03"/>
<path d="M107.244 117.672C108.564 117.898 111.46 120.341 109.846 121.823C108.231 123.305 104.39 123.374 103.505 121.334C102.62 119.294 104.492 117.195 107.244 117.672Z" fill="#E25D03"/>
<path d="M99.3966 119.439C97.4601 118.123 94.7673 122.07 97.7659 123.235C100.764 124.4 102.347 121.441 99.3966 119.439Z" fill="#E25D03"/>
<path d="M112.485 121.334C110.972 121.828 108.709 126.037 109.846 127.922C110.983 129.807 114.438 131.095 115.607 130.617C116.782 130.139 116.712 129.071 116.712 129.071L116.98 123.498C116.299 122.306 113.982 120.845 112.485 121.334Z" fill="#E25D03"/>
<path d="M110.838 130.719C109.776 131.358 111.589 135.138 113.987 135.208C116.095 135.267 116.878 133.393 116.396 132.437C115.913 131.476 111.868 130.096 110.838 130.719Z" fill="#EF7320"/>
<path d="M119.442 134.773C118.439 133.844 116.39 137.592 118.949 138.644C121.513 139.696 121.609 136.781 119.442 134.773Z" fill="#E25D03"/>
<path d="M119.399 141.237C118.418 141.721 118.032 143.9 119.035 144.953C120.038 146.005 121.931 146.617 122.484 145.855L121.878 143.321C121.266 142.327 120.376 140.754 119.399 141.237Z" fill="#E25D03"/>
<path d="M120.638 148.776C119.598 148.11 118.97 151.283 120.139 151.439C121.314 151.594 122.129 149.731 120.638 148.776Z" fill="#EF7320"/>
<path d="M122.478 155.729C123.921 155.745 122.629 154.263 121.851 154.091C120.526 153.796 120.595 155.707 122.478 155.729Z" fill="#EF7320"/>
<path d="M90.4655 122.913C88.234 123.09 88.3949 126.854 89.693 128.072C90.9911 129.291 94.1935 128.228 94.2847 126.306C94.3759 124.389 92.2624 122.773 90.4655 122.913Z" fill="#E25D03"/>
<path d="M85.9702 127.509C87.9335 126.993 89.2477 130.129 89.3121 132.008C89.3818 133.887 87.6224 135.229 85.8093 134.714C83.9909 134.193 83.6637 128.11 85.9702 127.509Z" fill="#EF7320"/>
<path d="M88.0677 135.203C87.3542 137.071 89.5965 140.153 90.4708 140.056C91.3452 139.96 92.182 137.409 92.0854 135.96C91.9835 134.515 88.4432 134.22 88.0677 135.203Z" fill="#E25D03"/>
<path d="M87.6492 141.076C89.1779 140.368 89.6446 143.299 88.4162 143.686C87.1825 144.067 85.8468 141.914 87.6492 141.076Z" fill="#EF7320"/>
<path d="M89.9343 146.558C89.3925 146.499 88.1427 147.143 88.4055 148.362C88.663 149.581 89.5213 149.887 89.9343 149.78C90.3473 149.667 90.9964 146.671 89.9343 146.558Z" fill="#E25D03"/>
<path d="M87.6865 152.475C88.298 152.233 88.872 153.13 88.2605 154.075C87.649 155.02 86.3079 153.017 87.6865 152.475Z" fill="#EF7320"/>
<path d="M72.9301 100.33C74.3999 100.276 75.4298 104.131 74.9149 104.942C74.3999 105.758 71.2351 106.317 70.5538 105.833C69.8726 105.35 71.0098 100.4 72.9301 100.33Z" fill="#EF7320"/>
<path d="M73.3429 110.553C72.1145 110.531 71.4816 114.139 73.3429 114.408C75.2042 114.671 78.0794 110.639 73.3429 110.553Z" fill="#EF7320"/>
<path d="M80.5686 118.182C78.4015 116.518 77.4896 120.486 79.1578 121.672C80.8315 122.854 83.6316 120.534 80.5686 118.182Z" fill="#EF7320"/>
<path d="M82.9072 124.072C84.3824 122.896 86.0774 124.802 84.3448 125.978C82.6122 127.154 81.7325 125.007 82.9072 124.072Z" fill="#EF7320"/>
<path d="M74.4267 117.382C72.9087 117.248 73.0374 118.913 74.4267 119.482C75.8161 120.056 76.5778 117.576 74.4267 117.382Z" fill="#EF7320"/>
<path d="M73.4663 126.322C75.2311 125.35 77.3607 128.169 76.5507 130.564C75.7407 132.958 73.1659 134.102 71.9805 132.883C72.4901 129.49 73.4663 126.322 73.4663 126.322Z" fill="#EF7320"/>
<path d="M75.923 134.075C76.5721 133.817 78.3208 135.331 77.9507 136.819C77.5805 138.306 75.5851 139.986 74.3514 139.557C73.123 139.122 73.8203 134.896 75.923 134.075Z" fill="#EF7320"/>
<path d="M71.5406 139.707C72.5008 139.439 72.9997 140.99 72.1575 142.134C71.3153 143.283 69.8402 142.703 69.985 141.812C70.1299 140.915 70.736 139.933 71.5406 139.707Z" fill="#EF7320"/>
<path d="M71.5405 145.86C72.27 145.651 73.1605 146.816 71.9804 147.331C70.8002 147.847 70.8109 146.07 71.5405 145.86Z" fill="#EF7320"/>
<path d="M68.0646 149.984C68.0324 149.221 66.3481 150.746 67.1313 151.331C67.9198 151.917 68.1022 150.88 68.0646 149.984Z" fill="#EF7320"/>
<path d="M91.066 77.4201C91.0124 75.5731 89.0438 75.1866 87.7188 75.6215C86.3885 76.051 85.1011 81.8228 86.1954 82.7409C87.2843 83.6537 89.0116 83.3261 89.0116 83.3261L91.066 77.4201Z" fill="#E25D03"/>
<path d="M87.7996 68.8456C88.6632 68.8134 90.4602 71.7127 89.1084 73.012C87.7567 74.3113 85.8202 73.9462 85.434 72.808C85.0424 71.6697 85.0854 68.9369 87.7996 68.8456Z" fill="#EF7320"/>
<path d="M94.7672 65.3825C94.837 64.0778 91.4522 63.6 90.5188 64.2121C89.5855 64.8241 89.9878 70.7946 91.066 71.557C92.1442 72.3194 93.0614 71.761 93.0614 71.761C93.0614 71.761 94.6868 66.9503 94.7672 65.3825Z" fill="#E25D03"/>
<path d="M78.8734 85.9194C77.9776 84.459 74.609 89.0926 76.2021 90.3006C77.7899 91.514 80.0964 87.9275 78.8734 85.9194Z" fill="#EF7320"/>
<path d="M94.8531 51.5517C93.0722 51.6752 89.9718 54.6927 90.181 57.694C90.3955 60.6954 95.2501 61.4094 95.6363 60.8349C96.5911 57.4578 97.4386 51.3692 94.8531 51.5517Z" fill="#E25D03"/>
<path d="M84.8114 58.6604C82.5853 58.3758 81.5983 62.8536 85.2298 62.1986C88.8613 61.5489 89.0491 59.1973 84.8114 58.6604Z" fill="#E25D03"/>
<path d="M87.8156 33.5866C86.26 32.996 83.1917 37.2376 85.509 39.0094C87.8263 40.7812 93.405 35.7074 87.8156 33.5866Z" fill="#E25D03"/>
<path d="M79.1469 35.2296C76.6741 35.4336 77.6718 37.9302 79.4419 38.5155C81.2121 39.1007 82.6389 34.945 79.1469 35.2296Z" fill="#E25D03"/>
<path d="M73.3807 39.4175C71.986 38.9665 70.0335 42.4296 71.9055 42.8108C73.7723 43.1973 76.0359 40.2766 73.3807 39.4175Z" fill="#EF7320"/>
<path d="M74.2441 46.3114C73.2518 45.4738 71.2081 48.8778 73.4073 49.2053C74.4962 49.3664 75.6173 47.4657 74.2441 46.3114Z" fill="#EF7320"/>
<path d="M90.1702 85.6402C89.2583 85.2268 89.5909 89.1087 89.5909 89.1087C90.2024 89.0227 91.2484 86.1288 90.1702 85.6402Z" fill="#AA4315"/>
<path d="M85.2567 28.3034C86.1686 26.9987 86.7801 27.7343 85.7931 30.494C84.8061 33.2537 84.2643 33.7692 83.2559 33.3665C82.2474 32.9638 84.023 30.0645 85.2567 28.3034Z" fill="#FFEB76"/>
<path d="M111.428 99.0469C116.9 98.0321 124.603 102.193 120.767 108.346C117.474 110.456 112.313 108.046 112.136 101.85C113.788 102.617 114.282 104.352 114.282 104.352C113.896 102.064 112.818 100.679 111.428 99.0469Z" fill="#8E2100"/>
<path d="M112.876 99.3583C118.605 98.6495 121.797 101.71 121.116 106.139C121.116 103.863 118.31 102.429 118.31 102.429C119.49 103.96 120.279 106.585 119.936 107.111C116.776 106.574 115.95 102.65 112.876 99.3583Z" fill="#AA4315"/>
<path d="M112.641 102.182C113.735 103.976 114.915 109.227 119.12 107.262C115.843 106.88 114.078 103.664 112.641 102.182Z" fill="#AA4315"/>
<path d="M115.119 99.9435C117.892 99.8898 119.603 101.2 119.753 102.403C117.608 101.962 115.119 99.9435 115.119 99.9435Z" fill="#CC5425"/>
<path d="M115.414 100.754C117.275 101.135 118.187 103.632 118.133 104.609C116.513 103.858 115.521 101.517 115.414 100.754Z" fill="#CC5425"/>
<path d="M121.207 109.404C122.253 112.507 120.182 116.432 117.329 116.905C122.226 118.472 123.492 112.013 121.207 109.404Z" fill="#FFD44A"/>
</svg>
