<svg width="180" height="171" viewBox="0 0 180 171" fill="none" xmlns="http://www.w3.org/2000/svg">
<path d="M78.7788 30.9184C67.9048 32.0106 62.9772 38.7696 59.5809 45.8011C50.1306 65.3815 42.1017 64.6104 27.8803 75.7053C11.0224 88.9639 18.8606 104.447 30.99 111.609C36.0517 114.551 41.5429 117.306 43.7004 123.154C45.3778 127.666 44.2048 133.711 44.3095 138.535C44.7536 156.256 62.0923 169.152 85.8448 154.224C99.9244 145.342 103.511 134.395 108.941 119.496C114.283 105.438 123.975 97.487 136.081 89.3071C165.049 69.6466 163.213 26.0699 104.176 38.6656C94.868 40.5632 87.5696 30.0477 78.7788 30.9184Z" fill="#D4E698"/>
<path d="M74.1094 144.163C73.9012 145.701 73.7571 147.511 74.9263 148.52C75.4388 148.968 76.1115 149.16 76.7682 149.336C78.0976 149.689 79.443 150.009 80.7884 150.297C81.5892 150.474 82.6303 150.522 83.0147 149.785C83.367 149.096 82.7744 148.279 82.0857 147.927C81.397 147.575 80.5961 147.479 79.9555 147.062C78.7382 146.261 78.53 144.596 78.466 143.138C78.2417 138.461 78.3378 133.768 78.7222 129.108C78.8664 127.394 79.0105 125.52 78.0495 124.094C77.1366 122.733 75.0384 122.557 74.7661 124.399C74.6861 124.991 75.1345 125.776 75.2146 126.369C75.3748 127.522 75.2466 128.755 75.2306 129.924C75.1345 134.665 74.7661 139.438 74.1094 144.163Z" fill="#5BB234"/>
<path d="M100.216 143.314C100.633 144.804 101.001 146.582 99.9919 147.751C99.5435 148.263 98.9028 148.536 98.2621 148.808C96.9808 149.336 95.6995 149.833 94.4022 150.281C93.6334 150.554 92.6083 150.746 92.1278 150.073C91.6953 149.433 92.1598 148.536 92.8005 148.103C93.4412 147.671 94.226 147.462 94.8026 146.966C95.8917 146.005 95.8917 144.323 95.7636 142.882C95.3631 138.221 94.6584 133.576 93.6654 129.011C93.297 127.33 92.9126 125.488 93.6654 123.95C94.3861 122.493 96.4523 122.028 96.9648 123.822C97.125 124.399 96.7726 125.232 96.7726 125.824C96.7726 126.993 97.0449 128.195 97.221 129.348C97.9418 134.041 98.9348 138.701 100.216 143.314Z" fill="#5BB234"/>
<path d="M67.6385 83.3804C70.8258 89.3065 71.8989 96.1295 72.3954 102.84C72.7959 108.174 72.8439 113.604 71.6907 118.825C71.0981 121.564 70.2492 124.719 71.947 126.961C72.5876 127.81 73.5166 128.387 74.4616 128.883C81.621 132.679 90.5422 132.968 97.9258 129.636C98.8228 129.236 99.7197 128.755 100.296 127.97C101.321 126.609 101.113 124.719 100.889 123.021C99.6876 114.308 98.8868 105.387 100.729 96.7862C102.571 88.1853 107.424 79.8727 115.144 75.6764C113.814 73.5622 112.277 71.6082 110.547 69.8144C110.275 69.5421 109.97 69.2538 109.586 69.2218C109.266 69.2057 108.961 69.3819 108.689 69.5581C102.763 73.354 97.9418 78.8637 94.9628 85.2383C96.3722 78.2711 97.7496 70.9675 95.7155 64.1605C95.6194 63.8722 95.5233 63.5519 95.2831 63.3757C94.9948 63.1515 94.5944 63.1675 94.242 63.1995C92.2239 63.3597 90.2379 63.7121 88.2838 64.2406C87.7072 64.4008 87.0826 64.593 86.6982 65.0575C86.2017 65.6501 86.2177 66.4829 86.2498 67.2517C86.4419 71.8645 86.6342 76.4772 86.8264 81.106C86.8584 81.9229 86.522 83.0921 85.7212 82.9159C85.4169 82.8518 85.2087 82.5795 85.0325 82.3073C82.9183 79.0719 83.3668 74.7635 81.7171 71.2719C80.5158 68.7573 78.1935 66.7872 75.5027 66.0345C72.8119 65.2817 69.8168 65.7301 67.4784 67.2677C70.1692 70.1027 70.7618 70.2148 72.2994 73.8185C69.7367 73.0497 69.6566 73.8505 67.6225 72.1047C64.8677 69.7343 61.328 68.517 57.8524 67.508C56.6031 67.1556 55.3218 66.8032 54.0405 66.9474C52.7592 67.0915 51.4458 67.8123 50.9974 69.0295C50.1485 71.2879 52.0385 71.6242 53.56 71.8805C55.5461 72.2168 57.5321 73.1778 59.2299 74.2349C62.7855 76.4292 65.6525 79.6966 67.6385 83.3804Z" fill="#80CC37"/>
<path d="M91.6799 75.7404C93.4096 76.5412 95.0914 77.6784 96.1645 79.232C96.9493 74.2028 97.2216 69.1095 95.7801 64.2886C95.684 64.0003 95.5879 63.6799 95.3476 63.5038C95.0593 63.2795 94.6589 63.2955 94.3066 63.3276C92.2885 63.4877 90.3024 63.8401 88.3484 64.3687C87.7718 64.5288 87.1471 64.721 86.7628 65.1855C86.2662 65.7781 86.2823 66.611 86.3143 67.3798C86.4264 69.9905 86.5385 72.6011 86.6506 75.2118C86.8108 75.1318 86.987 75.0677 87.1632 75.0197C88.6367 74.5872 90.2544 75.0837 91.6799 75.7404Z" fill="#5BB234"/>
<path d="M109.651 69.3498C109.33 69.3338 109.026 69.5099 108.754 69.6861C104.333 72.521 100.537 76.301 97.6543 80.6895C99.9767 81.2981 101.482 83.9729 101.53 86.4554C101.578 89.2103 100.377 91.8049 99.4962 94.4317C96.8535 102.328 97.2379 111.153 100.377 118.857C99.5282 111.521 99.2239 104.106 100.778 96.9303C102.619 88.3294 107.472 80.0168 115.192 75.8205C113.863 73.7063 112.325 71.7523 110.596 69.9584C110.339 69.6541 110.019 69.3658 109.651 69.3498Z" fill="#5BB234"/>
<path d="M79.8275 77.5502C81.0447 77.422 82.262 77.6463 83.4472 78.0146C82.9827 75.7723 82.7425 73.4339 81.7654 71.3838C80.5642 68.8692 78.2418 66.8992 75.551 66.1464C72.8602 65.3936 69.8652 65.8421 67.5268 67.3797C70.2175 70.2146 70.8101 70.3267 72.3477 73.9304C69.7851 73.1616 69.705 73.9625 67.6709 72.2167C64.916 69.8462 61.3764 68.629 57.9008 67.6199C56.6515 67.2676 55.3702 66.9152 54.0889 67.0593C52.8075 67.2035 51.4942 67.9242 51.0457 69.1415C50.1968 71.3998 52.0868 71.7362 53.6084 71.9924C55.5944 72.3288 57.5805 73.2898 59.2782 74.3469C62.0971 76.0927 64.4836 78.5112 66.3415 81.266C67.0623 80.0327 68.5358 79.1839 69.9933 79.0237C71.9633 78.7995 73.9173 79.5202 75.7272 80.3531C76.3679 78.7194 78.0977 77.7264 79.8275 77.5502Z" fill="#5BB234"/>
<path d="M40.1061 50.6425C41.0511 48.8647 43.0051 47.231 44.9111 47.8877C43.4856 46.1258 44.4146 43.4991 45.6639 41.6252C50.8692 33.8732 61.3761 30.1574 70.2973 32.8962C79.2185 35.635 85.8333 44.6043 85.8013 53.9419C85.8013 54.5506 85.8173 55.2713 86.3139 55.6237C87.1627 56.2163 88.1717 55.1592 88.6522 54.2462C90.6223 50.3863 92.1919 46.302 94.6104 42.6983C97.0289 39.0946 100.504 35.9554 104.749 35.1065C108.993 34.2576 113.99 36.3878 115.352 40.504C119.356 38.3578 124.657 39.2067 128.021 42.2338C131.4 45.277 132.794 50.2261 131.865 54.6627C130.936 59.0993 127.797 62.9592 123.809 65.1215C121.374 66.4348 118.619 67.1716 115.864 67.1235C111.636 67.0434 107.664 65.1695 103.66 63.7921C96.0359 61.1654 87.8354 60.2364 79.8272 61.1173C71.9951 61.9822 64.4353 64.5128 56.6032 65.3617C52.0705 65.8582 46.0322 66.9954 42.6367 63.4237C39.3854 60.0442 37.7677 55.0311 40.1061 50.6425Z" fill="#80CC37"/>
<path d="M99.7675 88.3774C99.6393 88.8579 99.4311 89.3384 99.0947 89.6907C98.7584 90.0431 98.2619 90.2994 97.7494 90.2673C98.4381 89.4825 98.8385 88.4575 98.8705 87.4164C98.7103 88.2332 98.0217 88.9059 97.2048 89.0341C97.6693 88.4414 97.9576 87.7047 98.0056 86.9519C97.7494 87.6726 96.9806 88.1692 96.2278 88.1211C96.0676 88.1051 95.8915 88.0891 95.7633 88.1852C95.6352 88.2973 95.6352 88.5055 95.6672 88.6817C95.8274 89.6427 96.6923 91.3404 97.8455 91.3404C99.0787 91.3565 99.7675 89.3544 99.7675 88.3774Z" fill="#474747"/>
<path d="M97.9738 92.4617C97.7175 94.7841 95.5553 96.8342 93.2169 96.69C91.1348 96.5619 89.3409 94.736 89.1007 92.6699C88.8444 90.4916 90.6703 87 93.1208 86.7758C96.0198 86.5035 98.2621 89.835 97.9738 92.4617Z" fill="white"/>
<path d="M96.4203 88.2974C96.8367 88.6498 97.173 89.5787 97.3012 90.1073C97.3813 90.4436 97.3653 90.796 97.2852 91.1323C97.0609 92.1414 96.2761 93.0063 95.2991 93.3266C94.3221 93.6629 93.1849 93.4387 92.3841 92.782C91.5993 92.1254 91.1829 91.0362 91.343 90.0112C91.4551 89.2424 91.9196 88.1372 92.6564 87.8489C93.9537 87.3684 95.2991 87.3364 96.4203 88.2974Z" fill="#474747"/>
<path d="M94.6425 88.8259C94.8667 89.1622 94.8507 89.6107 94.6745 89.9631C94.4984 90.3154 94.178 90.5877 93.8096 90.7639C93.5694 90.876 93.2971 90.9561 93.0248 90.9401C92.7525 90.9241 92.4803 90.812 92.3041 90.6037C92.1119 90.3795 92.0478 90.0592 92.0959 89.7549C92.24 88.7458 93.9538 87.7688 94.6425 88.8259Z" fill="white"/>
<path d="M95.6353 89.1783C95.7474 89.0021 96.2119 88.89 96.5322 89.2744C96.6283 89.4026 96.6764 89.5787 96.5803 89.7229C96.5322 89.819 96.4201 89.867 96.324 89.8991C96.1158 89.9471 95.8916 89.9151 95.7314 89.7709C95.5712 89.6108 95.5232 89.3545 95.6353 89.1783Z" fill="white"/>
<path d="M71.2744 88.8261C71.4506 89.2906 71.7069 89.7391 72.0913 90.0754C72.4757 90.3958 72.9882 90.588 73.4847 90.5079C72.7159 89.8031 72.2194 88.8101 72.0752 87.7851C72.3155 88.5699 73.0843 89.1785 73.9011 89.2266C73.3726 88.682 73.0202 87.9773 72.8921 87.2245C73.2284 87.9132 74.0293 88.3296 74.7821 88.2015C74.9422 88.1695 75.1184 88.1374 75.2465 88.2175C75.3907 88.3136 75.4067 88.5218 75.3907 88.698C75.3266 89.675 74.6379 91.4369 73.4847 91.565C72.2674 91.7251 71.3865 89.8031 71.2744 88.8261Z" fill="#474747"/>
<path d="M73.4849 92.7181C73.9814 95.0085 76.3358 96.8184 78.6582 96.45C80.7084 96.1136 82.326 94.1115 82.358 92.0294C82.3901 89.8351 82.0057 86.1353 77.7613 86.5678C74.8463 86.8721 72.9243 90.1394 73.4849 92.7181Z" fill="white"/>
<path d="M76.6721 87.9293C76.2877 88.3297 76.0475 89.2746 75.9834 89.8192C75.9354 90.1556 75.9994 90.5079 76.1115 90.8443C76.4479 91.8213 77.2968 92.6061 78.3058 92.8303C79.3149 93.0545 80.42 92.7342 81.1407 91.9975C81.8615 91.2607 82.1658 90.1395 81.9095 89.1305C81.7174 88.3777 81.1408 87.3206 80.388 87.1124C79.0266 86.76 77.6972 86.8561 76.6721 87.9293Z" fill="#474747"/>
<path d="M78.4821 88.2816C78.3059 88.634 78.354 89.0824 78.5622 89.4188C78.7704 89.7551 79.1228 89.9954 79.5072 90.1235C79.7634 90.2196 80.0357 90.2517 80.308 90.2196C80.5803 90.1716 80.8365 90.0434 80.9807 89.8192C81.1569 89.579 81.1729 89.2426 81.1088 88.9543C80.8846 87.9613 79.0587 87.1444 78.4821 88.2816Z" fill="white"/>
<path d="M77.5368 88.73C77.4086 88.5699 76.9281 88.5058 76.6559 88.9222C76.5758 89.0504 76.5437 89.2426 76.6398 89.3707C76.7039 89.4508 76.816 89.4988 76.9121 89.5149C77.1203 89.5469 77.3446 89.4828 77.4887 89.3227C77.6489 89.1465 77.6649 88.8902 77.5368 88.73Z" fill="white"/>
<path d="M118.571 52.0999C115.112 49.5052 110.499 47.295 106.623 49.2169C105.71 45.8054 103.115 42.8904 99.8319 41.577C96.5485 40.2637 92.6565 40.6161 89.6614 42.458C89.4532 42.5861 89.2449 42.7142 89.0047 42.7302C88.4281 42.7623 88.0597 42.1376 87.7874 41.6251C86.0737 38.4698 82.4219 36.8842 78.8983 36.1795C70.7298 34.5618 61.5684 36.8362 56.0427 43.0666C53.3839 46.0617 51.6061 50.3061 52.8874 54.102C48.8672 54.2942 44.9112 56.3123 42.6208 59.6277C40.3465 62.9431 39.914 67.5238 41.788 71.0955C43.774 74.8594 50.2126 78.6874 54.6172 77.7104C55.6262 77.7264 56.7794 77.5021 58.2209 76.9416C60.7195 75.9485 62.8817 74.0906 63.9548 71.6401C65.1721 74.3469 68.936 75.5321 71.899 75.4681C74.798 75.404 77.6009 74.3149 79.3947 72.1046C80.7562 70.8072 82.4059 69.9263 84.2318 69.3657C84.6482 69.8142 85.1287 70.1986 85.6572 70.5029C87.6433 71.6241 90.3981 71.3678 91.9037 69.6701C91.6794 71.7682 91.8556 75.0676 100.408 80.0648C108.289 84.6776 113.67 82.6755 114.743 82.2591C115.048 82.1309 115.32 81.9547 115.576 81.7465C119.516 79.5683 122.816 76.2689 124.994 72.3288C126.147 70.2306 126.996 67.9243 127.028 65.5218C127.076 60.0121 122.96 55.3833 118.571 52.0999Z" fill="#88DD3E"/>
<path d="M82.7578 52.1642C82.8859 51.8279 83.0141 51.4755 83.1102 51.1392C82.9661 51.4755 82.8539 51.8119 82.7578 52.1642Z" fill="#80CC37"/>
<path d="M120.541 53.7979C122.943 56.6969 124.113 60.6049 123.008 64.1766C122.463 65.9384 121.342 67.5881 119.676 68.3569C118.01 69.1257 115.784 68.8054 114.695 67.3318C113.958 71.9766 108.865 75.4202 104.284 74.3631C99.7035 73.306 96.6123 68.0045 97.9737 63.5039C96.7564 64.9934 94.3219 65.2977 92.7843 64.1285C91.2467 62.9593 90.8623 60.5408 91.9835 58.9552C89.7412 60.3326 86.6179 60.0764 84.6479 58.3306C82.9502 56.825 82.2294 54.3424 82.774 52.1642C81.9571 54.2303 80.5317 56.0722 78.5136 56.9371C76.1591 57.9461 73.0039 57.1934 71.8507 54.919C73.9649 58.795 72.5554 64.1926 68.8076 66.531C66.7414 67.8284 63.4901 67.8924 62.3689 65.7302C61.0716 67.0115 59.55 68.1967 57.7562 68.5171C55.9623 68.8374 53.8641 68.0366 53.2074 66.3388C52.8551 69.2698 50.6128 71.8805 47.7779 72.6814C46 73.1939 44.03 72.9536 42.3643 72.1368C44.8148 75.5804 50.5807 78.7356 54.6169 77.8227C55.6259 77.8387 56.7791 77.6144 58.2206 77.0539C60.7192 76.0608 62.8814 74.2029 63.9546 71.7524C65.1718 74.4592 68.9357 75.6444 71.8988 75.5804C74.7978 75.5163 77.6006 74.4272 79.3945 72.2169C80.7559 70.9195 82.4056 70.0386 84.2315 69.4781C84.6479 69.9265 85.1284 70.3109 85.657 70.6152C87.643 71.7364 90.3979 71.4801 91.9034 69.7824C91.6792 71.8805 91.8554 75.1799 100.408 80.1771C108.288 84.7899 113.67 82.7878 114.743 82.3714C115.047 82.2432 115.32 82.067 115.576 81.8588C119.516 79.6806 122.815 76.3812 124.994 72.4411C126.147 70.343 126.996 68.0366 127.028 65.6341C127.076 60.9573 124.113 56.9211 120.541 53.7979Z" fill="#80CC37"/>
<path d="M64.7719 39.6393C63.3464 40.344 62.1612 41.4332 61.1682 42.6664C60.095 43.9958 59.2462 45.5494 58.9579 47.2312C58.6696 48.9129 59.0059 50.7548 60.079 52.0681C57.9168 52.4045 56.139 54.3905 56.0429 56.5848C55.9628 58.7631 57.5965 60.8933 59.7267 61.3898C58.6055 60.0284 58.7977 57.8821 59.9028 56.5207C61.024 55.1593 62.8819 54.5667 64.6277 54.6788C64.5156 53.846 63.8269 53.2374 63.4105 52.5006C62.7538 51.3314 62.8659 49.8739 63.1702 48.5765C63.6507 46.5104 64.6437 44.4603 66.3255 43.1629C68.0072 41.8656 70.4898 41.4652 72.2996 42.6024C72.2356 42.5703 71.8512 40.7124 71.643 40.4401C71.1785 39.7995 70.5538 39.351 69.8171 39.0947C68.2154 38.5662 66.2774 38.9025 64.7719 39.6393Z" fill="#A3F251"/>
<path d="M47.2335 57.6257C45.792 58.5867 44.895 60.4767 45.4556 62.1104C43.918 63.2155 43.2133 65.3617 43.8219 67.1716C44.4306 68.9815 46.2725 70.2628 48.1784 70.2147C46.753 69.8784 45.84 68.2287 46.1603 66.7872C46.4967 65.3617 47.9061 64.3046 49.3636 64.2245C48.6589 63.68 47.9221 63.0713 47.6819 62.2225C47.3135 60.9732 48.2265 59.5798 49.4597 59.1473C50.693 58.7149 52.1025 59.0993 53.1596 59.868C53.1436 59.868 52.9674 58.0422 52.8232 57.7699C52.583 57.2894 52.3267 56.937 51.8302 56.7448C50.5329 56.2323 48.3386 56.889 47.2335 57.6257Z" fill="#A3F251"/>
<path d="M80.4034 43.403C82.0211 43.2108 83.7509 43.1948 85.2084 43.9315C87.0343 44.8285 88.1714 46.7184 88.8121 48.6564C90.5419 47.0388 93.3287 47.0387 95.491 47.9837C97.1086 48.6884 98.5822 49.9538 99.0306 51.6515C99.383 52.9809 99.0467 54.4384 98.3419 55.6076C97.6372 56.7928 96.5801 57.7218 95.443 58.5066C96.9485 57.6898 97.6853 55.7517 97.1887 54.1181C96.7083 52.4844 95.1066 51.2831 93.4088 51.155C91.7111 51.0269 89.9973 51.9398 89.0523 53.3493C89.1484 51.3312 88.1394 49.3131 86.4897 48.1599C85.2564 47.295 83.7349 46.9427 82.2293 46.7985C80.7398 46.6704 79.1701 46.7504 77.8888 47.5032C76.6075 48.256 75.6946 49.8096 76.095 51.2511C75.5985 49.4252 74.205 47.5833 75.5504 45.6774C76.6075 44.1718 78.6576 43.6112 80.4034 43.403Z" fill="#A3F251"/>
<path d="M103.9 53.8619C104.829 53.1892 106.014 52.917 107.168 52.8689C107.792 52.8369 108.449 52.8689 108.993 53.1732C109.538 53.4775 109.954 54.0862 109.842 54.7108C111.108 53.926 112.87 54.6307 113.702 55.864C114.631 57.2254 114.647 59.1474 113.734 60.5408C112.821 61.9343 111.06 62.687 109.442 62.3827C110.323 62.1905 111.14 61.5819 111.444 60.733C111.764 59.8842 111.508 58.8271 110.771 58.2985C110.035 57.77 108.865 57.9461 108.385 58.6989C109.058 57.77 108.657 56.2804 107.648 55.7199C106.639 55.1593 105.262 55.5116 104.541 56.4246C103.836 57.3375 103.788 58.6669 104.317 59.692C104.14 59.3396 103.372 59.0353 103.115 58.6188C102.795 58.1223 102.635 57.5137 102.539 56.9531C102.331 55.7198 102.843 54.6147 103.9 53.8619Z" fill="#A3F251"/>
<path d="M85.353 98.0514C85.1608 98.3717 85.0807 98.7401 85.0327 99.1085C84.9686 99.621 84.9686 100.134 85.0167 100.646C85.0487 100.998 85.1288 101.351 85.305 101.671C85.4812 101.975 85.7855 102.232 86.1539 102.264C86.6504 102.312 87.0828 101.927 87.3711 101.527C87.9797 100.678 88.204 99.573 87.9958 98.5479C87.9157 98.1635 87.7715 97.7791 87.4672 97.5229C86.8265 96.9783 85.7534 97.4268 85.353 98.0514Z" fill="#474747"/>
<path d="M107.84 52.2602C105.646 52.4044 103.468 52.6766 101.305 53.0771C99.3834 53.4294 97.3012 53.99 96.2281 55.6077C95.171 57.1933 95.4273 59.3395 96.1641 61.0853C96.9489 62.9913 98.2782 64.7211 100.104 65.6821C101.93 66.6431 104.268 66.7071 105.998 65.602C107.376 64.7051 108.241 63.1835 108.849 61.6459C109.458 60.1083 109.89 58.4907 110.691 57.0652C110.05 59.756 109.698 62.5108 109.65 65.2656C109.634 66.0344 109.65 66.8353 110.034 67.508C110.467 68.2607 111.3 68.7092 112.133 68.9655C113.366 69.3338 114.727 69.3659 115.912 68.8854C117.098 68.4049 118.075 67.3318 118.315 66.0825C118.491 65.1215 118.267 64.1445 118.011 63.2155C117.61 61.726 117.146 60.2525 116.441 58.875C115.512 57.0652 114.199 55.4795 112.725 54.0861C112.133 53.5255 111.332 52.5325 110.531 52.2922C109.746 52.052 108.625 52.2122 107.84 52.2602Z" fill="#FFFACF"/>
<path d="M111.508 48.7046C111.716 46.5263 112.052 44.3481 112.501 42.2019C112.901 40.2959 113.526 38.2298 115.176 37.2047C116.793 36.1957 118.923 36.516 120.653 37.3008C122.527 38.1337 124.225 39.5271 125.138 41.369C126.051 43.2109 126.051 45.5653 124.882 47.2631C123.953 48.6245 122.399 49.4253 120.845 49.9859C119.292 50.5465 117.674 50.9309 116.201 51.6997C118.907 51.1391 121.662 50.8668 124.417 50.8989C125.186 50.8989 125.987 50.9469 126.643 51.3473C127.396 51.7958 127.813 52.6447 128.053 53.4775C128.389 54.7108 128.389 56.0722 127.861 57.2574C127.332 58.4266 126.259 59.3876 124.978 59.5798C124.017 59.74 123.056 59.4677 122.127 59.1954C120.653 58.7469 119.18 58.2344 117.834 57.4977C116.056 56.5207 114.503 55.1592 113.157 53.6537C112.613 53.0451 111.636 52.2122 111.428 51.4114C111.251 50.5945 111.428 49.4734 111.508 48.7046Z" fill="#FFFACF"/>
<path d="M108.497 51.8917C108.737 52.5484 109.329 53.0289 109.89 53.4614C111.636 54.8228 113.398 56.1842 115.24 57.4174C115.88 57.8499 116.553 58.2823 117.322 58.3784C117.45 58.3944 117.594 58.4105 117.722 58.3304C118.026 58.1702 117.946 57.7057 117.818 57.3854C117.21 55.9279 116.329 54.5985 115.448 53.2852C114.471 51.8117 113.43 50.2741 111.828 49.5373C110.355 48.8486 107.776 49.9057 108.497 51.8917Z" fill="#474747"/>
<path d="M107.296 50.3381C106.815 50.1619 106.287 50.1459 105.774 50.1619C104.813 50.194 103.852 50.3221 102.923 50.5784C102.971 50.3381 103.244 50.226 103.484 50.1779C104.557 49.9377 105.678 49.8256 106.783 49.8256C107.472 49.8256 108.161 49.8576 108.801 50.1139C109.138 50.242 109.538 50.4822 109.65 50.8506C109.746 51.1389 109.634 51.7155 109.25 51.7155C108.962 51.7315 108.689 51.2671 108.513 51.0909C108.145 50.7705 107.728 50.4823 107.296 50.3381Z" fill="#474747"/>
<path d="M110.195 48.3041C110.099 47.7916 110.147 47.2791 110.243 46.7666C110.403 45.8216 110.691 44.8926 111.076 44.0117C110.835 44.0277 110.691 44.284 110.595 44.5082C110.195 45.5333 109.922 46.6224 109.762 47.7115C109.65 48.3842 109.586 49.0889 109.746 49.7456C109.826 50.098 110.002 50.5144 110.339 50.6906C110.611 50.8187 111.188 50.8027 111.252 50.4183C111.3 50.13 110.899 49.7937 110.755 49.5855C110.499 49.2011 110.291 48.7686 110.195 48.3041Z" fill="#474747"/>
<path d="M97.2692 57.7379C97.3012 58.0582 97.3973 58.3945 97.6056 58.6508C97.8138 58.9071 98.1661 59.0512 98.4704 58.9711C98.8869 58.859 99.0951 58.3945 99.2072 57.9781C99.3514 57.5136 99.4474 57.0331 99.3353 56.5687C99.1591 55.912 98.4864 55.4795 97.8938 55.928C97.3653 56.3124 97.2051 57.0812 97.2692 57.7379Z" fill="#474747"/>
<path d="M115.464 38.9985C115.464 39.2067 115.592 39.3829 115.768 39.495C115.928 39.6071 116.137 39.6552 116.329 39.7032C117.114 39.8794 117.963 39.8794 118.731 39.6231C119.1 39.495 119.5 39.2548 119.564 38.8543C119.676 38.0055 118.107 37.6371 117.466 37.557C116.713 37.4609 115.448 38.1336 115.464 38.9985Z" fill="#474747"/>
<path opacity="0.69" d="M111.492 65.2657C111.588 65.6821 111.716 66.0985 111.989 66.4189C112.261 66.7392 112.725 66.9474 113.126 66.8033C113.35 66.7232 113.542 66.547 113.686 66.3548C113.943 65.9704 114.055 65.4899 113.991 65.0254C113.911 64.4969 113.606 64.0484 113.35 63.5839C112.773 62.5589 112.405 61.4377 112.229 60.2685C112.149 59.74 112.389 57.7539 111.572 58.3786C110.899 58.8911 111.14 60.8131 111.124 61.5338C111.124 62.7991 111.204 64.0484 111.492 65.2657Z" fill="white"/>
<path opacity="0.69" d="M98.6629 62.9112C99.752 64.0965 101.226 65.1375 102.843 65.0575C103.244 65.0414 103.708 64.9133 103.9 64.5609C104.092 64.2086 103.964 63.7601 103.692 63.4718C103.42 63.1835 103.035 63.0234 102.667 62.8952C102.299 62.7671 101.914 62.6389 101.594 62.3987C101.177 62.0784 100.921 61.5979 100.729 61.1014C100.345 60.1404 99.1914 59.6599 98.3105 60.4287C97.4617 61.1334 98.0703 62.2706 98.6629 62.9112Z" fill="white"/>
<path d="M100.345 98.7562C100.825 100.886 101.85 102.856 102.106 105.051C102.347 107.021 102.042 109.135 100.713 110.689C97.9902 113.86 93.1853 113.443 89.5976 112.338C88.4123 111.97 87.9158 113.812 89.085 114.196C93.4735 115.59 98.727 115.542 101.834 111.65C104.845 107.87 103.356 102.168 100.681 98.6441C100.553 98.4679 100.297 98.548 100.345 98.7562Z" fill="#474747"/>
<path d="M92.8165 112.466C92.4641 111.954 92.1918 111.377 91.7434 110.961C91.6633 110.881 91.5672 110.817 91.4551 110.785C91.0867 110.721 90.9105 111.201 90.8624 111.569C90.2698 110.705 89.469 109.984 88.5401 109.487C88.3318 109.375 88.1076 109.279 87.8834 109.327C87.6591 109.375 87.4669 109.615 87.563 109.824C87.499 109.551 87.0345 109.615 86.9384 109.872C86.8423 110.128 86.9544 110.416 87.0825 110.673C86.9704 110.512 86.6821 110.576 86.586 110.753C86.4899 110.929 86.522 111.137 86.586 111.329C87.0345 112.883 88.4279 114.052 89.9815 114.516C91.5351 114.981 93.2169 114.805 94.7705 114.356C94.8506 114.34 94.9146 114.308 94.9627 114.244C95.0588 114.116 93.0087 112.755 92.8165 112.466Z" fill="#474747"/>
<path opacity="0.24" d="M75.2625 105.083C75.5188 109.84 74.8781 114.629 73.3565 119.145C72.7479 120.955 72.0111 123.005 72.9241 124.671C73.2765 125.312 73.837 125.808 74.4457 126.209C75.6949 127.009 77.2165 127.41 78.7061 127.314C79.0905 127.282 79.4909 127.234 79.8272 127.041C80.3878 126.737 80.7241 126.144 80.9003 125.536C81.573 123.39 80.7242 121.099 80.1476 118.921C78.9143 114.34 78.8502 109.567 78.1134 104.891C77.9212 103.705 77.8091 99.8453 76.0633 99.7812C74.3015 99.7172 75.1985 103.946 75.2625 105.083Z" fill="white"/>
<path d="M72.5713 99.685C71.6423 100.166 71.0817 101.207 70.6012 102.087C70.0567 103.081 69.6402 104.138 69.384 105.243C68.9035 107.325 69.0637 109.567 70.0567 111.473C72.331 115.83 77.7766 116.358 81.989 114.901C83.0781 114.532 82.5976 112.787 81.5085 113.171C77.9849 114.42 73.3721 114.244 71.4181 110.528C70.5692 108.911 70.409 106.973 70.7774 105.211C70.9856 104.25 71.306 103.321 71.7384 102.44C72.1388 101.623 72.7314 100.822 72.8916 99.9253C72.9076 99.7331 72.7474 99.5889 72.5713 99.685Z" fill="#474747"/>
<path d="M78.7537 113.155C79.106 112.642 79.3783 112.066 79.8268 111.649C79.9069 111.569 80.0029 111.505 80.1151 111.473C80.4834 111.409 80.6597 111.89 80.7077 112.258C81.3003 111.393 82.1011 110.672 83.0301 110.176C83.2383 110.064 83.4625 109.968 83.6868 110.016C83.911 110.064 84.1032 110.304 84.0071 110.512C84.0712 110.24 84.5357 110.304 84.6318 110.56C84.7439 110.817 84.6157 111.105 84.4876 111.361C84.5997 111.201 84.888 111.265 84.9841 111.441C85.0802 111.617 85.0482 111.826 84.9841 112.018C84.5357 113.571 83.1422 114.741 81.5886 115.205C80.035 115.67 78.3533 115.493 76.7997 115.045C76.7196 115.029 76.6555 114.997 76.6075 114.933C76.4953 114.805 78.5454 113.443 78.7537 113.155Z" fill="#474747"/>
<path d="M75.2783 99.2527C75.038 99.6371 74.8939 100.166 75.1661 100.518C75.3263 100.726 75.5826 100.838 75.8388 100.854C76.0951 100.87 76.3514 100.822 76.6076 100.758C77.5686 100.534 78.5937 100.15 79.0742 99.2847C79.2023 99.0605 79.2824 98.8042 79.2343 98.548C79.1863 98.2917 79.0101 98.0835 78.8019 97.9554C77.6647 97.2666 75.8869 98.2917 75.2783 99.2527Z" fill="#FFB8B8"/>
<path d="M97.6374 98.9645C97.8937 99.3328 98.0698 99.8454 97.8136 100.23C97.6694 100.438 97.4132 100.566 97.1569 100.598C96.9007 100.63 96.6444 100.582 96.3881 100.534C95.4111 100.358 94.37 100.022 93.8415 99.1887C93.7134 98.9805 93.6172 98.7242 93.6493 98.4679C93.6813 98.2117 93.8415 97.9874 94.0497 97.8433C95.1548 97.0905 96.9807 98.0355 97.6374 98.9645Z" fill="#FFB8B8"/>
</svg>
