<svg width="93" height="93" viewBox="0 0 93 93" fill="none" xmlns="http://www.w3.org/2000/svg">
<path d="M46.5 88.1563C35.4559 88.1439 24.8676 83.7512 17.0582 75.9418C9.24878 68.1324 4.85606 57.5442 4.84375 46.5C4.84375 45.7292 5.14994 44.99 5.69497 44.445C6.24 43.8999 6.97921 43.5938 7.75 43.5938C8.52079 43.5938 9.26 43.8999 9.80503 44.445C10.3501 44.99 10.6563 45.7292 10.6563 46.5C10.6563 53.5892 12.7584 60.5192 16.697 66.4137C20.6356 72.3082 26.2336 76.9024 32.7832 79.6153C39.3328 82.3282 46.5398 83.0381 53.4928 81.655C60.4458 80.272 66.8325 76.8582 71.8454 71.8454C76.8582 66.8325 80.272 60.4458 81.655 53.4928C83.0381 46.5398 82.3282 39.3328 79.6153 32.7832C76.9024 26.2336 72.3082 20.6356 66.4137 16.697C60.5192 12.7584 53.5892 10.6563 46.5 10.6563C45.7292 10.6563 44.99 10.3501 44.445 9.80503C43.8999 9.26 43.5938 8.52079 43.5938 7.75C43.5938 6.97921 43.8999 6.24 44.445 5.69497C44.99 5.14994 45.7292 4.84375 46.5 4.84375C57.5479 4.84375 68.1434 9.23252 75.9554 17.0446C83.7675 24.8566 88.1563 35.4521 88.1563 46.5C88.1563 57.5479 83.7675 68.1434 75.9554 75.9554C68.1434 83.7675 57.5479 88.1563 46.5 88.1563Z" fill="#08993A"/>
<path d="M46.5 88.1562C42.3282 88.1602 38.1795 87.5371 34.193 86.3079C33.4642 86.074 32.8572 85.562 32.5037 84.8832C32.1501 84.2044 32.0786 83.4136 32.3046 82.6823C32.5307 81.9511 33.036 81.3386 33.711 80.9778C34.3859 80.6169 35.176 80.5369 35.9096 80.755C39.3403 81.8115 42.9102 82.3471 46.5 82.3438C47.2707 82.3438 48.01 82.6499 48.555 83.195C49.1 83.74 49.4062 84.4792 49.4062 85.25C49.4062 86.0208 49.1 86.76 48.555 87.305C48.01 87.8501 47.2707 88.1562 46.5 88.1562ZM21.545 79.05C20.8598 79.0529 20.196 78.8111 19.6733 78.368C15.4093 74.7838 11.9082 70.38 9.37746 65.4178C9.02701 64.7312 8.96363 63.9336 9.20127 63.2004C9.4389 62.4671 9.95808 61.8583 10.6446 61.5079C11.3311 61.1574 12.1287 61.094 12.862 61.3317C13.5952 61.5693 14.204 62.0885 14.5545 62.775C16.7318 67.0473 19.7455 70.8385 23.4166 73.9234C23.8736 74.3065 24.2015 74.8211 24.3557 75.3971C24.5099 75.9732 24.4829 76.5828 24.2784 77.143C24.0739 77.7032 23.7018 78.1868 23.2127 78.528C22.7236 78.8692 22.1413 79.0515 21.545 79.05ZM8.30796 56.017C7.6235 56.0152 6.96158 55.7721 6.43856 55.3306C5.91553 54.8891 5.56487 54.2773 5.44821 53.6029C4.50693 48.1147 4.66631 42.4942 5.91709 37.0683C6.11456 36.3449 6.58393 35.7259 7.22711 35.3406C7.87029 34.9553 8.6375 34.8334 9.36842 35.0005C10.0993 35.1676 10.7374 35.6107 11.1493 36.2373C11.5611 36.8638 11.7149 37.6252 11.5785 38.3625C10.509 43.0371 10.3773 47.8773 11.191 52.6031C11.3213 53.3626 11.1447 54.1427 10.7 54.772C10.2553 55.4013 9.57886 55.8282 8.81946 55.9589C8.65087 55.9924 8.47978 56.0118 8.30796 56.017ZM15.1473 26.629C14.6099 26.6321 14.0822 26.486 13.623 26.2068C13.1638 25.9277 12.7911 25.5265 12.5464 25.048C12.3018 24.5696 12.1947 24.0325 12.2373 23.4968C12.2799 22.9611 12.4703 22.4477 12.7875 22.0139C15.2467 18.6488 18.1945 15.6697 21.5333 13.175C21.8387 12.946 22.1861 12.7794 22.5558 12.6847C22.9255 12.59 23.3103 12.569 23.6881 12.623C24.0659 12.6769 24.4294 12.8048 24.7578 12.9992C25.0862 13.1937 25.3731 13.4509 25.6021 13.7563C25.8311 14.0616 25.9977 14.409 26.0924 14.7787C26.1871 15.1484 26.2081 15.5332 26.1541 15.911C26.1002 16.2888 25.9723 16.6523 25.7778 16.9807C25.5834 17.3091 25.3262 17.596 25.0208 17.825C22.1493 19.9722 19.6142 22.536 17.4995 25.4316C17.2297 25.8027 16.876 26.1046 16.4672 26.3127C16.0584 26.5208 15.6061 26.6292 15.1473 26.629ZM37.2 11.7839C36.4902 11.7836 35.8052 11.5236 35.2739 11.0529C34.7427 10.5823 34.4021 9.93349 34.3163 9.22897C34.2305 8.52445 34.4054 7.81289 34.8082 7.22849C35.2109 6.64409 35.8136 6.22727 36.5025 6.05663C39.7737 5.24981 43.1307 4.84255 46.5 4.84375C47.2707 4.84375 48.01 5.14995 48.555 5.69497C49.1 6.24 49.4062 6.97922 49.4062 7.75C49.4062 8.52079 49.1 9.26 48.555 9.80503C48.01 10.3501 47.2707 10.6563 46.5 10.6563C43.5955 10.6547 40.7017 11.0061 37.882 11.7025C37.6583 11.7548 37.4296 11.7821 37.2 11.7839Z" fill="#08993A"/>
<g clip-path="url(#clip0_2833_2034)">
<path d="M67.0241 32.8648C65.7246 31.5635 63.6144 31.5644 62.3132 32.8648L41.111 54.0678L31.6876 44.6444C30.3864 43.3432 28.2771 43.3432 26.9759 44.6444C25.6747 45.9456 25.6747 48.0549 26.9759 49.3561L38.7547 61.1349C39.4049 61.7851 40.2575 62.111 41.1101 62.111C41.9628 62.111 42.8162 61.7859 43.4664 61.1349L67.0241 37.5764C68.3253 36.2761 68.3253 34.1659 67.0241 32.8648Z" fill="#08993A"/>
</g>
<defs>
<clipPath id="clip0_2833_2034">
<rect width="42" height="42" fill="white" transform="translate(26 26)"/>
</clipPath>
</defs>
</svg>
