<svg width="102" height="79" viewBox="0 0 102 79" fill="none" xmlns="http://www.w3.org/2000/svg">
<path d="M20.5237 22.6237C20.5237 22.6237 23.5262 -1.45049 48.2228 0.0690196C72.9561 1.58853 72.9561 29.965 72.9561 29.965C72.9561 29.965 81.9267 29.7087 86.1191 38.3131C86.1191 38.3131 100.234 35.6769 101.863 50.4692C103.749 67.7331 84.3982 67.3853 84.3982 67.3853C84.3982 67.3853 71.5464 89.7386 54.7952 70.4792C54.7952 70.4792 46.0259 79.5963 35.0598 72.5113C35.0781 72.4564 31.2702 81.1158 21.494 77.0699C11.7179 73.0057 11.7179 66.6713 11.7179 66.6713C11.7179 66.6713 -13.528 72.31 -18.4527 53.5815C-22.7366 37.1964 -0.657902 28.9215 5.52999 33.48C5.56661 33.5166 6.97628 17.5526 20.5237 22.6237Z" fill="white"/>
</svg>
