<svg width="30" height="30" viewBox="0 0 30 30" fill="none" xmlns="http://www.w3.org/2000/svg">
<g clip-path="url(#clip0_4_0)">
<path d="M4.31091 9.00117C4.29802 8.8432 4.28982 8.68406 4.28982 8.52281C4.28962 7.34931 4.64338 6.20303 5.30489 5.23375C5.9664 4.26447 6.9049 3.51726 7.99776 3.08975C9.09061 2.66223 10.287 2.5743 11.4306 2.83743C12.5742 3.10057 13.6119 3.70254 14.408 4.56469C15.5841 3.83548 16.9989 3.59597 18.3495 3.89747C19.7 4.19898 20.8786 5.01752 21.6329 6.17766C22.4241 5.77344 23.3206 5.62255 24.2006 5.74547C25.0805 5.86839 25.9014 6.25918 26.5515 6.86475C27.2017 7.47032 27.6498 8.26133 27.8349 9.13036C28.0199 9.99939 27.933 10.9043 27.586 11.7223C28.5847 12.2874 29.3179 13.2262 29.6244 14.3319C29.931 15.4377 29.7857 16.62 29.2205 17.6187C28.6554 18.6173 27.7166 19.3506 26.6108 19.6571C25.5051 19.9637 24.3228 19.8184 23.3241 19.2532C22.6243 20.1391 21.6058 20.7163 20.4862 20.8614C19.3666 21.0066 18.2346 20.7081 17.3321 20.0299C16.8935 20.7571 16.2647 21.3507 15.5136 21.7468C14.7624 22.1429 13.9173 22.3263 13.0696 22.2774C12.2218 22.2285 11.4034 21.9491 10.7028 21.4692C10.0022 20.9894 9.44584 20.3274 9.09381 19.5546C8.38833 19.9824 7.60014 20.2557 6.78127 20.3565C5.9624 20.4573 5.13145 20.3833 4.34329 20.1394C3.55512 19.8954 2.82765 19.4871 2.20888 18.9414C1.59011 18.3956 1.09412 17.7249 0.753646 16.9733C0.413167 16.2218 0.235941 15.4066 0.233665 14.5816C0.231388 13.7565 0.404113 12.9404 0.74044 12.187C1.07677 11.4336 1.56905 10.7601 2.18479 10.2109C2.80054 9.66178 3.52575 9.24945 4.31256 9.00117H4.31091Z" fill="#F0F5F9"/>
<path d="M0.234375 14.5655C0.235397 15.5999 0.511216 16.6154 1.03361 17.5082C1.556 18.401 2.3062 19.139 3.20746 19.6466C4.10871 20.1542 5.12865 20.4133 6.16292 20.3973C7.19718 20.3813 8.20862 20.0908 9.09375 19.5556C9.44549 20.3288 10.0018 20.9912 10.7026 21.4712C11.4033 21.9513 12.2219 22.2308 13.07 22.2795C13.918 22.3283 14.7632 22.1444 15.5144 21.7478C16.2655 21.3511 16.894 20.7568 17.332 20.029C18.2342 20.7079 19.3662 21.0069 20.486 20.8619C21.6057 20.7169 22.6243 20.1395 23.3238 19.2532C24.0579 19.6639 24.8958 19.8517 25.735 19.7938C26.5742 19.7359 27.3783 19.4347 28.049 18.927C28.7197 18.4194 29.2279 17.7273 29.5116 16.9353C29.7952 16.1434 29.842 15.286 29.6461 14.468C29.4904 15.1184 29.1861 15.7238 28.757 16.2367C28.3279 16.7497 27.7858 17.1562 27.1732 17.4243C26.5606 17.6925 25.8941 17.815 25.2262 17.7822C24.5583 17.7495 23.907 17.5623 23.3236 17.2355C22.624 18.1216 21.6054 18.6989 20.4857 18.8439C19.366 18.9888 18.234 18.69 17.3318 18.0113C16.917 18.7001 16.331 19.2698 15.6308 19.6651C14.9306 20.0604 14.14 20.2678 13.3359 20.2671C11.4513 20.2671 10.5759 19.7621 10.6385 18.0739C9.75609 18.6094 7.4932 19.0742 6.38672 19.0742C3.50742 19.0742 0.798281 16.2931 0.3225 13.5518C0.264081 13.8866 0.234597 14.2257 0.234375 14.5655Z" fill="#D9E2E9"/>
<path d="M13.3373 22.5211C12.4414 22.5195 11.563 22.2729 10.7973 21.8079C10.0315 21.3429 9.40754 20.6774 8.99291 19.8832C8.25708 20.2896 7.44485 20.5388 6.60769 20.615C5.77052 20.6911 4.92667 20.5926 4.12959 20.3255C3.33251 20.0585 2.59958 19.6288 1.97723 19.0637C1.35488 18.4986 0.856682 17.8105 0.514198 17.0428C0.171714 16.2751 -0.00758945 15.4446 -0.0123537 14.604C-0.0171179 13.7634 0.152761 12.931 0.486522 12.1594C0.820282 11.3879 1.31065 10.6941 1.92655 10.122C2.54245 9.54992 3.27047 9.11197 4.06447 8.83593C4.05814 8.72647 4.05533 8.62288 4.05533 8.5228C4.05512 7.31841 4.41337 6.1412 5.08445 5.14109C5.75553 4.14098 6.70908 3.36323 7.82367 2.90687C8.93826 2.45052 10.1635 2.33622 11.3432 2.57852C12.523 2.82083 13.604 3.40877 14.4485 4.26749C15.6424 3.5834 17.0487 3.3694 18.3921 3.66737C19.7355 3.96534 20.9194 4.75383 21.7122 5.87858C22.3049 5.60684 22.9495 5.46697 23.6015 5.46866C24.3379 5.46893 25.0632 5.64739 25.7157 5.98882C26.3681 6.33024 26.9282 6.82449 27.3482 7.42935C27.7682 8.03421 28.0355 8.73173 28.1274 9.46234C28.2194 10.1929 28.1331 10.9349 27.876 11.625C28.8649 12.2518 29.5748 13.2349 29.8588 14.3707C30.1428 15.5065 29.9791 16.708 29.4017 17.7265C28.8243 18.7449 27.8773 19.5023 26.7568 19.8418C25.6363 20.1813 24.4282 20.0769 23.3826 19.5502C22.6559 20.3926 21.6462 20.9404 20.5438 21.0902C19.4413 21.24 18.3221 20.9816 17.3969 20.3637C16.9509 21.0304 16.3467 21.5764 15.6384 21.9528C14.93 22.3293 14.1395 22.5245 13.3373 22.5211ZM9.09369 19.3202C9.13865 19.3202 9.18266 19.3331 9.22047 19.3575C9.25829 19.3818 9.28831 19.4164 9.30697 19.4573C9.64127 20.1914 10.1697 20.8203 10.8351 21.2761C11.5006 21.7319 12.2779 21.9974 13.0832 22.0438C13.8885 22.0903 14.6912 21.916 15.4046 21.5397C16.1181 21.1635 16.7153 20.5995 17.1318 19.9087C17.1488 19.8807 17.1714 19.8565 17.1983 19.8377C17.2252 19.819 17.2557 19.8061 17.2879 19.7999C17.3201 19.7936 17.3532 19.7942 17.3851 19.8016C17.4171 19.809 17.4471 19.823 17.4733 19.8427C18.3269 20.4841 19.3976 20.7663 20.4565 20.629C21.5154 20.4917 22.4786 19.9458 23.1405 19.1079C23.1751 19.0641 23.2242 19.0341 23.2789 19.0233C23.3336 19.0125 23.3904 19.0215 23.4391 19.0488C24.383 19.5732 25.496 19.7033 26.5354 19.4106C27.5749 19.118 28.4565 18.4263 28.9882 17.4865C29.5198 16.5466 29.6585 15.4346 29.3739 14.393C29.0892 13.3513 28.4044 12.4644 27.4687 11.9255C27.4189 11.8969 27.3813 11.8511 27.3631 11.7968C27.3448 11.7424 27.3471 11.6832 27.3695 11.6304C27.6984 10.8567 27.781 10.0006 27.6061 9.17839C27.4313 8.35616 27.0075 7.60772 26.3923 7.03481C25.7771 6.46191 25.0005 6.09233 24.1679 5.97633C23.3353 5.86034 22.4872 6.00354 21.7389 6.38647C21.6873 6.41289 21.6278 6.41924 21.5717 6.40431C21.5157 6.38937 21.4672 6.35421 21.4356 6.30561C20.7149 5.19683 19.5886 4.41451 18.2979 4.12632C17.0073 3.83812 15.6551 4.067 14.5312 4.76389C14.4849 4.79262 14.4301 4.80434 14.3761 4.79703C14.3221 4.78971 14.2724 4.76383 14.2354 4.72381C13.4713 3.89617 12.4753 3.31827 11.3776 3.06562C10.2799 2.81297 9.13146 2.89732 8.08244 3.30766C7.03341 3.718 6.13256 4.43524 5.4976 5.36565C4.86265 6.29607 4.52312 7.39638 4.52338 8.5228C4.52338 8.66343 4.52994 8.81436 4.54377 8.98194C4.54803 9.035 4.53411 9.08792 4.50429 9.13201C4.47447 9.1761 4.43053 9.20872 4.37971 9.22452C3.62509 9.46336 2.92968 9.85945 2.33932 10.3867C1.74897 10.9139 1.27707 11.5603 0.954763 12.2832C0.632452 13.0061 0.467045 13.7891 0.469446 14.5806C0.471848 15.3721 0.642006 16.1541 0.968698 16.8751C1.29539 17.596 1.7712 18.2395 2.36474 18.7632C2.95829 19.2868 3.65609 19.6786 4.41214 19.9129C5.16819 20.1472 5.96531 20.2185 6.75094 20.1222C7.53656 20.0259 8.29286 19.7641 8.96994 19.3542C9.00723 19.3316 9.05008 19.3198 9.09369 19.3202Z" fill="#2F3A5A"/>
<path d="M6.07031 20.633C4.46113 20.6317 2.9182 19.992 1.78014 18.8543C0.642076 17.7166 0.00186188 16.1739 0 14.5648C0 14.5026 0.024693 14.443 0.0686468 14.399C0.112601 14.3551 0.172215 14.3304 0.234375 14.3304C0.296535 14.3304 0.356149 14.3551 0.400103 14.399C0.444057 14.443 0.46875 14.5026 0.46875 14.5648C0.469032 15.8093 0.883835 17.0182 1.64766 18.0008C2.41149 18.9833 3.48083 19.6834 4.68684 19.9906C5.89285 20.2978 7.16682 20.1945 8.3076 19.6971C9.44838 19.1996 10.391 18.3364 10.9866 17.2437C11.0163 17.1891 11.0666 17.1486 11.1262 17.131C11.1859 17.1135 11.25 17.1204 11.3046 17.1502C11.3592 17.1799 11.3997 17.2302 11.4172 17.2898C11.4348 17.3495 11.4279 17.4136 11.3981 17.4682C10.8762 18.4256 10.106 19.2248 9.16848 19.7816C8.23096 20.3385 7.16075 20.6326 6.07031 20.633Z" fill="#2F3A5A"/>
<path d="M22.4889 9.29807C22.4268 9.29807 22.3672 9.27338 22.3232 9.22942C22.2792 9.18547 22.2545 9.12586 22.2545 9.0637C22.2547 7.99066 21.9136 6.94538 21.2807 6.07893C20.6477 5.21247 19.7556 4.56973 18.7333 4.2436C17.711 3.91747 16.6115 3.92485 15.5937 4.26467C14.5759 4.60449 13.6926 5.25914 13.0713 6.13401C13.0534 6.1591 13.0308 6.18042 13.0048 6.19677C12.9787 6.21312 12.9496 6.22417 12.9193 6.2293C12.8889 6.23442 12.8579 6.23352 12.8279 6.22664C12.7979 6.21976 12.7695 6.20704 12.7444 6.18921C12.7193 6.17137 12.698 6.14877 12.6817 6.12269C12.6653 6.09661 12.6543 6.06757 12.6491 6.03722C12.644 6.00687 12.6449 5.97581 12.6518 5.94581C12.6587 5.91581 12.6714 5.88746 12.6892 5.86237C13.3681 4.90649 14.3334 4.19123 15.4455 3.81997C16.5576 3.44871 17.7589 3.44068 18.8759 3.79704C19.9929 4.1534 20.9676 4.8557 21.6592 5.80242C22.3508 6.74915 22.7234 7.89126 22.7233 9.0637C22.7233 9.12586 22.6986 9.18547 22.6547 9.22942C22.6107 9.27338 22.5511 9.29807 22.4889 9.29807Z" fill="#2F3A5A"/>
<path d="M26.5866 13.3969C26.5397 13.3969 26.494 13.3828 26.4552 13.3566C26.4164 13.3303 26.3863 13.2931 26.3689 13.2496C26.3515 13.2061 26.3475 13.1584 26.3575 13.1126C26.3675 13.0668 26.3909 13.0251 26.4248 12.9928C27.0168 12.4286 27.4261 11.7 27.6 10.901C27.7739 10.102 27.7045 9.26918 27.4007 8.50999C27.0968 7.7508 26.5726 7.10004 25.8954 6.64163C25.2182 6.18322 24.4193 5.93818 23.6016 5.93811C23.5394 5.93811 23.4798 5.91342 23.4358 5.86946C23.3919 5.82551 23.3672 5.7659 23.3672 5.70374C23.3672 5.64158 23.3919 5.58196 23.4358 5.53801C23.4798 5.49405 23.5394 5.46936 23.6016 5.46936C24.5131 5.46924 25.4038 5.74227 26.1587 6.25321C26.9135 6.76415 27.498 7.48956 27.8367 8.33586C28.1753 9.18217 28.2526 10.1105 28.0586 11.0012C27.8645 11.8918 27.4081 12.7039 26.7481 13.3326C26.7045 13.3741 26.6467 13.3971 26.5866 13.3969Z" fill="#2F3A5A"/>
<path d="M15.0001 9.14978C13.7051 9.14978 12.4633 9.66418 11.5476 10.5798C10.632 11.4955 10.1176 12.7374 10.1176 14.0323V18.5557H11.5004V14.0323C11.4966 13.5704 11.5843 13.1123 11.7585 12.6844C11.9326 12.2566 12.1897 11.8674 12.515 11.5395C12.8403 11.2115 13.2274 10.9512 13.6538 10.7735C14.0802 10.5959 14.5375 10.5044 14.9995 10.5044C15.4614 10.5044 15.9188 10.5959 16.3452 10.7735C16.7716 10.9512 17.1586 11.2115 17.4839 11.5395C17.8092 11.8674 18.0663 12.2566 18.2405 12.6844C18.4146 13.1123 18.5023 13.5704 18.4986 14.0323V18.5557H19.8814V14.0323C19.8814 12.7376 19.3671 11.4959 18.4517 10.5802C17.5364 9.66463 16.2948 9.15009 15.0001 9.14978Z" fill="#84879C"/>
<path d="M19.8822 18.7903H18.4994C18.4373 18.7903 18.3777 18.7656 18.3337 18.7217C18.2897 18.6777 18.2651 18.6181 18.2651 18.5559V14.0325C18.2687 13.6014 18.187 13.1739 18.0245 12.7746C17.8621 12.3753 17.6222 12.0121 17.3187 11.706C17.0152 11.3999 16.654 11.157 16.2561 10.9912C15.8582 10.8253 15.4314 10.74 15.0003 10.74C14.5692 10.74 14.1424 10.8253 13.7445 10.9912C13.3466 11.157 12.9855 11.3999 12.682 11.706C12.3784 12.0121 12.1385 12.3753 11.9761 12.7746C11.8137 13.1739 11.7319 13.6014 11.7356 14.0325V18.5559C11.7356 18.6181 11.7109 18.6777 11.6669 18.7217C11.623 18.7656 11.5634 18.7903 11.5012 18.7903H10.1184C10.0562 18.7903 9.99663 18.7656 9.95268 18.7217C9.90872 18.6777 9.88403 18.6181 9.88403 18.5559V14.0325C9.87946 13.3576 10.0084 12.6885 10.2635 12.0637C10.5186 11.4389 10.8948 10.8708 11.3704 10.3919C11.846 9.91313 12.4116 9.53312 13.0347 9.2738C13.6577 9.01448 14.3259 8.88098 15.0008 8.88098C15.6757 8.88098 16.3439 9.01448 16.9669 9.2738C17.59 9.53312 18.1556 9.91313 18.6312 10.3919C19.1068 10.8708 19.483 11.4389 19.7381 12.0637C19.9931 12.6885 20.1221 13.3576 20.1176 14.0325V18.5559C20.1176 18.5868 20.1115 18.6173 20.0996 18.6458C20.0878 18.6743 20.0704 18.7002 20.0486 18.722C20.0267 18.7438 20.0008 18.761 19.9722 18.7727C19.9437 18.7845 19.9131 18.7904 19.8822 18.7903ZM18.7338 18.3215H19.6479V14.0325C19.6522 13.4193 19.5352 12.8114 19.3036 12.2436C19.0719 11.6759 18.7303 11.1596 18.2982 10.7245C17.8662 10.2893 17.3523 9.944 16.7862 9.70834C16.2202 9.47268 15.613 9.35136 14.9999 9.35136C14.3867 9.35136 13.7796 9.47268 13.2135 9.70834C12.6474 9.944 12.1335 10.2893 11.7015 10.7245C11.2694 11.1596 10.9278 11.6759 10.6961 12.2436C10.4645 12.8114 10.3475 13.4193 10.3518 14.0325V18.3215H11.2659V14.0325C11.262 13.5397 11.3557 13.051 11.5416 12.5946C11.7274 12.1383 12.0018 11.7232 12.3489 11.3733C12.696 11.0235 13.1089 10.7458 13.5638 10.5564C14.0187 10.3669 14.5066 10.2693 14.9994 10.2693C15.4922 10.2693 15.9801 10.3669 16.435 10.5564C16.8899 10.7458 17.3028 11.0235 17.6499 11.3733C17.9969 11.7232 18.2713 12.1383 18.4572 12.5946C18.6431 13.051 18.7368 13.5397 18.7329 14.0325L18.7338 18.3215Z" fill="#2F3A5A"/>
<path d="M19.3772 17.0939H10.6226C9.57112 17.0939 8.71875 17.9463 8.71875 18.9978V25.4072C8.71875 26.4587 9.57112 27.311 10.6226 27.311H19.3772C20.4286 27.311 21.281 26.4587 21.281 25.4072V18.9978C21.281 17.9463 20.4286 17.0939 19.3772 17.0939Z" fill="#FAB505"/>
<path d="M21.2812 18.9968V25.4079C21.2808 25.9129 21.0798 26.397 20.7225 26.7539C20.3652 27.1107 19.8808 27.311 19.3758 27.3108H10.6223C10.3191 27.3112 10.0201 27.2389 9.75052 27.0999C9.48096 26.961 9.24866 26.7594 9.07312 26.512C9.26747 26.5783 9.47153 26.6117 9.67687 26.6107H18.4312C18.9365 26.6104 19.4209 26.4096 19.7782 26.0523C20.1355 25.6951 20.3363 25.2107 20.3367 24.7055V18.2967C20.3363 17.9001 20.2128 17.5133 19.983 17.19C20.361 17.318 20.6894 17.561 20.9222 17.885C21.155 18.209 21.2805 18.5978 21.2812 18.9968Z" fill="#E5AE5C"/>
<path d="M19.3772 27.5454H10.6226C10.0555 27.5447 9.51188 27.3191 9.11099 26.9181C8.71011 26.517 8.48475 25.9733 8.48438 25.4062V18.9979C8.485 18.431 8.71047 17.8875 9.11133 17.4867C9.51218 17.0858 10.0557 16.8604 10.6226 16.8597H19.3772C19.9441 16.8603 20.4877 17.0857 20.8886 17.4866C21.2895 17.8875 21.515 18.431 21.5156 18.9979V25.4062C21.5153 25.9733 21.2899 26.5171 20.8889 26.9182C20.488 27.3192 19.9443 27.5448 19.3772 27.5454ZM10.6226 17.3285C10.18 17.329 9.75562 17.505 9.44264 17.818C9.12967 18.131 8.95362 18.5553 8.95312 18.9979V25.4062C8.95362 25.8488 9.12967 26.2732 9.44264 26.5862C9.75562 26.8991 10.18 27.0752 10.6226 27.0757H19.3772C19.8198 27.0752 20.2442 26.8992 20.5573 26.5862C20.8703 26.2733 21.0464 25.8489 21.0469 25.4062V18.9979C21.0464 18.5553 20.8703 18.131 20.5574 17.818C20.2444 17.505 19.82 17.329 19.3774 17.3285H10.6226Z" fill="#2F3A5A"/>
<path d="M16.2422 21.2812C16.2426 21.0588 16.1833 20.8402 16.0704 20.6485C15.9575 20.4568 15.7952 20.299 15.6004 20.1914C15.4056 20.0839 15.1856 20.0306 14.9632 20.0372C14.7408 20.0438 14.5243 20.11 14.3362 20.2289C14.1482 20.3478 13.9955 20.515 13.8942 20.7131C13.7928 20.9111 13.7465 21.1328 13.7601 21.3548C13.7737 21.5769 13.8467 21.7912 13.9715 21.9755C14.0963 22.1597 14.2682 22.307 14.4694 22.402V24.3673H15.5285V22.4018C15.7415 22.3019 15.9216 22.1435 16.048 21.9451C16.1744 21.7467 16.2417 21.5165 16.2422 21.2812Z" fill="#84879C"/>
<path d="M15.5294 24.6014H14.4703C14.4081 24.6014 14.3485 24.5767 14.3046 24.5327C14.2606 24.4888 14.2359 24.4292 14.2359 24.367V22.5415C13.96 22.3746 13.7462 22.122 13.6273 21.8222C13.5084 21.5225 13.491 21.192 13.5776 20.8814C13.6642 20.5707 13.8501 20.297 14.1069 20.1019C14.3638 19.9069 14.6774 19.8013 14.9999 19.8013C15.3224 19.8013 15.636 19.9069 15.8928 20.1019C16.1497 20.297 16.3356 20.5707 16.4222 20.8814C16.5088 21.192 16.4913 21.5225 16.3724 21.8222C16.2536 22.122 16.0398 22.3746 15.7638 22.5415V24.367C15.7638 24.4292 15.7391 24.4888 15.6952 24.5327C15.6512 24.5767 15.5916 24.6014 15.5294 24.6014ZM14.7047 24.1326H15.2951V22.4018C15.2952 22.3576 15.3079 22.3143 15.3316 22.277C15.3554 22.2396 15.3892 22.2098 15.4291 22.1908C15.6025 22.1104 15.7491 21.982 15.8516 21.8208C15.9542 21.6595 16.0084 21.4723 16.0078 21.2812C16.0078 21.0137 15.9015 20.7571 15.7123 20.5679C15.5231 20.3787 15.2665 20.2724 14.9989 20.2724C14.7314 20.2724 14.4748 20.3787 14.2856 20.5679C14.0964 20.7571 13.9901 21.0137 13.9901 21.2812C13.9897 21.4723 14.0441 21.6594 14.1468 21.8205C14.2495 21.9816 14.3963 22.1099 14.5697 22.1901C14.6097 22.2091 14.6435 22.2389 14.6672 22.2762C14.6909 22.3136 14.7036 22.3569 14.7037 22.4011L14.7047 24.1326Z" fill="#2F3A5A"/>
</g>
<defs>
<clipPath id="clip0_4_0">
<rect width="30" height="30" fill="white"/>
</clipPath>
</defs>
</svg>
