<svg width="34" height="34" viewBox="0 0 34 34" fill="none" xmlns="http://www.w3.org/2000/svg">
<g clip-path="url(#clip0_145_815)">
<path opacity="0.5" d="M1.69995 13.5999V19.5499L4.24995 22.0999H6.79995L9.34995 23.7999L13.6 28.0499L17 32.2999L19.55 30.5999V29.7499C17.51 30.4299 12.75 23.2332 10.2 19.5499L6.79995 11.8999H3.39995L1.69995 13.5999Z" fill="white"/>
<path d="M19.6004 0.323615C18.0929 -0.312026 16.4287 0.00267341 15.2573 1.14486C15.2298 1.17176 15.2034 1.19978 15.1783 1.22893L7.65648 9.96122H5.31672C2.38861 9.96122 0.00634766 12.3435 0.00634766 15.2716V18.7233C0.00634766 21.6514 2.38861 24.0337 5.31672 24.0337H7.65655L15.1784 32.766C15.2035 32.7951 15.2298 32.8232 15.2574 32.8501C16.0316 33.6049 17.0193 34 18.0349 34C18.5616 34 19.096 33.8936 19.6116 33.6762C21.1121 33.0436 22.0443 31.6379 22.0443 30.0078C22.0443 29.2745 21.4499 28.6802 20.7167 28.6802C19.9834 28.6802 19.3891 29.2745 19.3891 30.0078C19.3891 30.825 18.7698 31.1496 18.58 31.2296C18.3905 31.3095 17.7356 31.5233 17.1467 30.9829L9.27102 21.8398C9.01887 21.547 8.65158 21.3786 8.26516 21.3786H5.31672C3.85266 21.3786 2.66154 20.1875 2.66154 18.7235V15.2717C2.66154 13.8077 3.85266 12.6165 5.31672 12.6165H8.26516C8.65158 12.6165 9.0188 12.4481 9.27102 12.1554L17.1467 3.01227C17.7292 2.47803 18.3802 2.69086 18.5688 2.77029C18.7612 2.85137 19.3891 3.18041 19.3891 4.00644V23.37C19.3891 24.1032 19.9834 24.6976 20.7167 24.6976C21.4499 24.6976 22.0443 24.1032 22.0443 23.37V4.00644C22.0444 2.37039 21.1079 0.959256 19.6004 0.323615Z" fill="white"/>
<path opacity="0.5" d="M27.6588 20.8175L27.6893 20.7616C28.0364 20.1247 28.6827 18.9394 28.6827 16.998C28.6827 14.984 27.9834 13.7503 27.6474 13.1574C27.2858 12.5195 26.4758 12.2954 25.8378 12.657C25.2 13.0186 24.9759 13.8287 25.3374 14.4666C25.6122 14.9514 26.0275 15.6841 26.0275 16.998C26.0275 18.2626 25.6246 19.0016 25.3581 19.4906L25.3255 19.5502C24.9756 20.1945 25.2142 21.0006 25.8585 21.3505C26.0599 21.4599 26.2769 21.5118 26.491 21.5118C26.9618 21.5118 27.4181 21.2605 27.6588 20.8175Z" fill="white"/>
<path opacity="0.5" d="M29.6174 6.53038C29.0964 6.0144 28.2558 6.01839 27.7399 6.53934C27.2239 7.0603 27.2279 7.90087 27.7488 8.41685C30.0635 10.7096 31.3383 13.7552 31.3383 16.9925C31.3383 20.2364 30.0635 23.2857 27.7488 25.5784C27.2279 26.0944 27.2239 26.935 27.7399 27.4559C27.9994 27.718 28.3412 27.8492 28.6831 27.8492C29.0207 27.8492 29.3585 27.7212 29.6173 27.4648C32.4393 24.6696 33.9933 20.9504 33.9933 16.9924C33.9934 13.041 32.4394 9.32555 29.6174 6.53038Z" fill="white"/>
</g>
<defs>
<clipPath id="clip0_145_815">
<rect width="34" height="34" fill="white"/>
</clipPath>
</defs>
</svg>
