<svg width="26" height="27" viewBox="0 0 26 27" fill="none" xmlns="http://www.w3.org/2000/svg">
<g clip-path="url(#clip0_107_41)">
<path d="M9.19141 1.15564V1.91736H7.66797V1.15564C7.66797 0.729026 8.00307 0.393921 8.42969 0.393921C8.8563 0.393921 9.19141 0.729026 9.19141 1.15564Z" fill="white"/>
<path d="M12.2383 1.15564V1.91736H10.7148V1.15564C10.7148 0.729026 11.0499 0.393921 11.4766 0.393921C11.9032 0.393921 12.2383 0.729026 12.2383 1.15564Z" fill="white"/>
<path d="M15.2852 1.15564V1.91736H13.7617V1.15564C13.7617 0.729026 14.0968 0.393921 14.5234 0.393921C14.9501 0.393921 15.2852 0.729026 15.2852 1.15564Z" fill="white"/>
<path d="M18.332 1.15564V1.91736H16.8086V1.15564C16.8086 0.729026 17.1437 0.393921 17.5703 0.393921C17.9969 0.393921 18.332 0.729026 18.332 1.15564Z" fill="white"/>
<path d="M15.2852 21.0619V18.015C15.2852 17.594 15.6258 17.2533 16.0469 17.2533H21.3789V8.11267H4.62109V22.5853C4.62109 23.0119 4.9562 23.347 5.38281 23.347H13C14.2601 23.347 15.2852 22.322 15.2852 21.0619ZM11.4766 12.683C11.0555 12.683 10.7148 12.3423 10.7148 11.9213C10.7148 10.6612 11.7399 9.63611 13 9.63611C14.2601 9.63611 15.2852 10.6612 15.2852 11.9213C15.2852 12.8831 14.6767 13.7482 13.7714 14.0733C13.7714 14.4935 13.4254 14.9012 13.0052 14.9012C12.5842 14.9012 12.2382 14.6274 12.2382 14.2064C12.2382 13.438 12.6481 12.8571 13.2573 12.6391C13.5586 12.5305 13.7617 12.2426 13.7617 11.9213C13.7617 11.501 13.4203 11.1595 13 11.1595C12.5797 11.1595 12.2383 11.501 12.2383 11.9213C12.2383 12.3423 11.8976 12.683 11.4766 12.683ZM12.2383 16.4916C12.2383 16.0709 12.5793 15.7299 13 15.7299C13.4207 15.7299 13.7617 16.0709 13.7617 16.4916C13.7617 16.9122 13.4207 17.2533 13 17.2533C12.5793 17.2533 12.2383 16.9122 12.2383 16.4916Z" fill="white"/>
<path d="M21.3789 6.58923V2.67908C21.3789 2.25246 21.0438 1.91736 20.6172 1.91736H18.332V4.20251C18.332 4.62913 17.9969 4.96423 17.5703 4.96423C17.1437 4.96423 16.8086 4.62913 16.8086 4.20251V1.91736H15.2852V4.20251C15.2852 4.62913 14.9501 4.96423 14.5234 4.96423C14.0968 4.96423 13.7617 4.62913 13.7617 4.20251V1.91736H12.2383V4.20251C12.2383 4.62913 11.9032 4.96423 11.4766 4.96423C11.0499 4.96423 10.7148 4.62913 10.7148 4.20251V1.91736H9.19141V4.20251C9.19141 4.62913 8.8563 4.96423 8.42969 4.96423C8.00307 4.96423 7.66797 4.62913 7.66797 4.20251V1.91736H5.38281C4.9562 1.91736 4.62109 2.25246 4.62109 2.67908V6.58923H21.3789Z" fill="white"/>
<path d="M16.8085 18.7767V21.0619C16.8085 21.5703 16.7043 22.054 16.5227 22.4977C17.3299 22.1057 18.0883 21.6101 18.728 20.9705L20.9216 18.7767H16.8085Z" fill="white"/>
<path opacity="0.5" d="M19.8108 22.0528C18.0203 23.8433 15.538 24.8705 13 24.8705H5.38281C5.11448 24.8705 4.86053 24.8156 4.62109 24.7302V25.6322C4.62109 26.0533 4.96179 26.3939 5.38281 26.3939H20.6172C21.0382 26.3939 21.3789 26.0533 21.3789 25.6322V20.4847L19.8108 22.0528Z" fill="white"/>
</g>
<defs>
<clipPath id="clip0_107_41">
<rect width="26" height="26" fill="white" transform="translate(0 0.393921)"/>
</clipPath>
</defs>
</svg>
