<svg width="30" height="31" viewBox="0 0 30 31" fill="none" xmlns="http://www.w3.org/2000/svg">
<g clip-path="url(#clip0_139_60)">
<path d="M25.0491 12.1371C25.1253 11.3686 25.0371 10.5927 24.7904 9.8609C24.5437 9.12911 24.144 8.4582 23.618 7.89274C23.092 7.32729 22.4517 6.88025 21.7397 6.58131C21.0276 6.28237 20.2601 6.13838 19.4881 6.15891C18.5154 6.18215 17.5669 6.46654 16.7419 6.98227C16.1212 5.8587 15.1237 4.99033 13.9254 4.53022C12.727 4.07012 11.4047 4.04784 10.1915 4.46729C8.97837 4.88675 7.95222 5.72102 7.29398 6.82303C6.63573 7.92505 6.38765 9.22407 6.59347 10.4911C6.5766 10.4911 6.56019 10.4911 6.54332 10.4911C5.48576 10.5171 4.4507 10.802 3.52878 11.3208C2.60686 11.8396 1.8262 12.5765 1.25516 13.4671C0.684124 14.3576 0.340124 15.3745 0.253285 16.4288C0.166447 17.4831 0.339418 18.5427 0.757054 19.5146C1.17469 20.4866 1.82425 21.3413 2.64885 22.004C3.47346 22.6666 4.44796 23.117 5.48701 23.3157C6.52606 23.5144 7.59798 23.4553 8.6089 23.1436C9.61982 22.8319 10.5389 22.2771 11.2857 21.5278C11.7859 22.2986 12.4729 22.9304 13.2828 23.3644C14.0927 23.7985 14.9992 24.0208 15.918 24.0106C16.8368 24.0004 17.7382 23.7581 18.5382 23.3062C19.3383 22.8543 20.0112 22.2075 20.4943 21.4259C21.11 22.0309 21.8605 22.481 22.6842 22.7392C23.5079 22.9973 24.3811 23.0562 25.232 22.9109C26.0829 22.7656 26.8871 22.4203 27.5784 21.9034C28.2697 21.3865 28.8284 20.7128 29.2084 19.9377C29.5885 19.1627 29.779 18.3085 29.7643 17.4454C29.7497 16.5823 29.5302 15.7351 29.1241 14.9734C28.7179 14.2117 28.1367 13.5574 27.4282 13.0643C26.7197 12.5712 25.9042 12.2534 25.0489 12.1371H25.0491Z" fill="#F0F5F9"/>
<path d="M24.4512 22.9882C23.7204 23.0072 22.9934 22.8787 22.3135 22.6105C21.6335 22.3422 21.0146 21.9396 20.4937 21.4268C20.0107 22.2082 19.3379 22.8548 18.538 23.3066C17.7381 23.7584 16.837 24.0006 15.9184 24.0108C14.9998 24.021 14.0935 23.7988 13.2837 23.3649C12.474 22.931 11.7871 22.2995 11.2868 21.529C10.3224 22.4942 9.0778 23.13 7.73057 23.3456C6.38335 23.5612 5.00244 23.3456 3.78504 22.7296C2.56764 22.1136 1.576 21.1287 0.95173 19.9155C0.327457 18.7024 0.102472 17.323 0.308904 15.9743C0.488286 17.1584 0.99288 18.2695 1.76648 19.1838C2.54008 20.0981 3.55231 20.7796 4.69041 21.1526C5.82851 21.5255 7.0478 21.5752 8.21246 21.296C9.37712 21.0168 10.4414 20.4198 11.2868 19.5715C11.7871 20.342 12.474 20.9735 13.2837 21.4074C14.0935 21.8413 14.9998 22.0635 15.9184 22.0533C16.837 22.0431 17.7381 21.8009 18.538 21.3491C19.3379 20.8973 20.0107 20.2507 20.4937 19.4693C21.1999 20.1633 22.0818 20.6518 23.0447 20.8825C24.0076 21.1131 25.0152 21.0771 25.9591 20.7783C26.9031 20.4795 27.7479 19.9293 28.4027 19.1866C29.0576 18.444 29.4978 17.537 29.6761 16.5631C29.7279 16.84 29.757 17.1207 29.763 17.4024C29.7813 18.118 29.6584 18.8302 29.4013 19.4983C29.1441 20.1664 28.7579 20.7772 28.2646 21.296C27.7713 21.8147 27.1806 22.2312 26.5263 22.5216C25.8719 22.8119 25.1668 22.9705 24.4512 22.9882Z" fill="#D9E2E9"/>
<path d="M8.27513 11.4738C8.23006 11.4738 8.18595 11.4608 8.14809 11.4363C7.64308 11.1056 7.08518 10.8638 6.49856 10.7213C6.43824 10.7087 6.38529 10.6729 6.35119 10.6215C6.31708 10.5702 6.30456 10.5075 6.31633 10.4471C6.3281 10.3866 6.36322 10.3332 6.41408 10.2984C6.46494 10.2636 6.52746 10.2502 6.58809 10.2612C7.23404 10.4134 7.84822 10.6778 8.40263 11.0426C8.44515 11.0701 8.47763 11.1106 8.49523 11.158C8.51282 11.2055 8.51457 11.2574 8.50021 11.3059C8.48586 11.3545 8.45618 11.3971 8.41561 11.4273C8.37503 11.4576 8.32575 11.4739 8.27513 11.4738Z" fill="#2F3A5A"/>
<path d="M22.1309 6.85803C22.1309 6.85803 25.4613 9.26811 22.7215 12.5489C22.7513 12.5741 22.7791 12.6015 22.8047 12.6309C23.5978 12.1141 23.8069 12.0698 24.9204 12.1364C24.9204 12.1364 25.6992 8.3203 22.1309 6.85803Z" fill="#D9E2E9"/>
<path d="M15.8544 24.2452C14.9547 24.2476 14.0675 24.035 13.2666 23.625C12.4657 23.2151 11.7743 22.6197 11.2501 21.8885C10.4597 22.6173 9.50562 23.1453 8.46835 23.4279C7.43107 23.7106 6.34103 23.7397 5.29015 23.5127C4.23928 23.2858 3.25839 22.8094 2.43023 22.1239C1.60207 21.4383 0.950915 20.5636 0.531694 19.5736C0.112473 18.5836 -0.0625219 17.5073 0.0214691 16.4355C0.10546 15.3637 0.445973 14.3278 1.01429 13.4152C1.58261 12.5026 2.36206 11.74 3.2869 11.1918C4.21174 10.6436 5.25485 10.3259 6.32825 10.2654C6.3088 10.0976 6.29708 9.93118 6.29286 9.76852C6.2623 8.51801 6.64498 7.29232 7.38162 6.28134C8.11826 5.27036 9.16773 4.53053 10.3675 4.17645C11.5672 3.82237 12.8502 3.87381 14.0177 4.32281C15.1852 4.77181 16.1721 5.59329 16.8254 6.66001C17.6799 6.17624 18.6452 5.92205 19.6271 5.92218C20.609 5.92232 21.5742 6.17677 22.4286 6.66077C23.2829 7.14476 23.9974 7.84179 24.5023 8.68395C25.0072 9.52611 25.2854 10.4847 25.3098 11.4663C25.3138 11.6196 25.3098 11.7776 25.3011 11.9386C26.1669 12.091 26.9855 12.442 27.6927 12.9641C28.3999 13.4863 28.9764 14.1652 29.3769 14.9478C29.7774 15.7303 29.991 16.595 30.001 17.474C30.0109 18.353 29.8169 19.2223 29.4342 20.0137C29.0514 20.8051 28.4904 21.4969 27.7952 22.0349C27.1 22.5729 26.2895 22.9423 25.4274 23.1142C24.5653 23.2861 23.6751 23.2557 22.8267 23.0255C21.9784 22.7953 21.1949 22.3716 20.5379 21.7875C20.0298 22.5265 19.3536 23.1344 18.5649 23.5613C17.7762 23.9882 16.8975 24.2219 16.0009 24.2433C15.9522 24.2445 15.9032 24.2452 15.8544 24.2452ZM11.3247 21.1573L11.4826 21.4001C11.9614 22.1376 12.6189 22.7422 13.3939 23.1575C14.169 23.5729 15.0364 23.7856 15.9157 23.7758C16.795 23.7661 17.6575 23.5343 18.4232 23.1019C19.1888 22.6695 19.8328 22.0505 20.2951 21.3026L20.4493 21.0534L20.6586 21.2588C21.2479 21.8377 21.9662 22.2684 22.7544 22.5155C23.5426 22.7625 24.3782 22.8188 25.1925 22.6798C26.0068 22.5407 26.7763 22.2103 27.4379 21.7157C28.0995 21.221 28.6341 20.5764 28.9979 19.8347C29.3616 19.0931 29.5439 18.2756 29.53 17.4497C29.516 16.6238 29.3061 15.813 28.9175 15.0841C28.5289 14.3551 27.9727 13.7289 27.2948 13.257C26.6168 12.785 25.8365 12.4808 25.018 12.3694L24.7944 12.3391L24.816 12.1146C24.8365 11.9031 24.8443 11.6905 24.8394 11.4781C24.8164 10.5589 24.5509 9.66212 24.0697 8.87862C23.5885 8.09512 22.9088 7.45273 22.0994 7.01651C21.29 6.5803 20.3797 6.36577 19.4607 6.39466C18.5417 6.42355 17.6466 6.69483 16.8662 7.18102L16.6569 7.3118L16.5372 7.09618C15.971 6.07534 15.0789 5.27386 14.0034 4.81995C12.928 4.36604 11.7314 4.28593 10.605 4.59242C9.47868 4.89892 8.48766 5.57432 7.79049 6.51057C7.09333 7.44683 6.73031 8.58986 6.7595 9.7568C6.76604 9.99041 6.78796 10.2233 6.82513 10.4541L6.86755 10.7201L6.56708 10.7255C5.54714 10.7478 4.54825 11.02 3.65799 11.5182C2.76773 12.0164 2.01329 12.7254 1.46083 13.583C0.908379 14.4407 0.574775 15.4208 0.489276 16.4374C0.403777 17.454 0.568994 18.476 0.97044 19.4139C1.37189 20.3518 1.9973 21.1768 2.79184 21.8167C3.58638 22.4566 4.52578 22.8918 5.52767 23.0842C6.52956 23.2765 7.56334 23.2201 8.53836 22.9199C9.51337 22.6197 10.3998 22.0849 11.1201 21.3623L11.3247 21.1573Z" fill="#2F3A5A"/>
<path d="M22.8047 12.7833C22.75 12.7834 22.6971 12.7644 22.6549 12.7296C22.6128 12.6948 22.5841 12.6464 22.5739 12.5927C22.5637 12.539 22.5726 12.4834 22.599 12.4356C22.6255 12.3878 22.6678 12.3507 22.7187 12.3307C23.4649 12.0455 24.2574 11.9005 25.0563 11.903C25.1185 11.905 25.1773 11.9316 25.2198 11.9769C25.2624 12.0223 25.2852 12.0827 25.2832 12.1449C25.2812 12.207 25.2546 12.2658 25.2092 12.3084C25.1639 12.3509 25.1035 12.3737 25.0413 12.3717C24.3063 12.373 23.5776 12.5069 22.8902 12.7671C22.863 12.7779 22.834 12.7834 22.8047 12.7833Z" fill="#2F3A5A"/>
</g>
<g clip-path="url(#clip1_139_60)">
<path d="M21.8693 23.9231H8.13027C7.74355 23.9231 7.43066 24.236 7.43066 24.6227V30.2758H22.5689V24.6227C22.5689 24.236 22.2561 23.9231 21.8693 23.9231Z" fill="#FAB505"/>
<path d="M20.9166 23.9231H9.08301V20.1016C9.08301 19.7149 9.3959 19.402 9.78262 19.402H20.2135C20.6002 19.402 20.9131 19.7149 20.9131 20.1016L20.9166 23.9231Z" fill="#FAB505"/>
<path d="M21.8693 23.9231H8.13027C7.74355 23.9231 7.43066 24.236 7.43066 24.6227V26.1661C8.69277 26.1661 8.69277 27.0063 9.95488 27.0063C11.217 27.0063 11.217 26.1661 12.4791 26.1661C13.7412 26.1661 13.7412 27.0063 15.0033 27.0063C16.2654 27.0063 16.2654 26.1661 17.5275 26.1661C18.7896 26.1661 18.7896 27.0063 20.0518 27.0063C21.3139 27.0063 21.3139 26.1661 22.576 26.1661V24.6227C22.5689 24.236 22.2561 23.9231 21.8693 23.9231Z" fill="#E5AE5C"/>
<path d="M20.917 20.1016C20.917 19.7149 20.6041 19.402 20.2174 19.402H9.78652C9.3998 19.402 9.08691 19.7149 9.08691 20.1016V21.441C9.3084 21.55 9.57559 21.6274 9.95527 21.6274C11.2174 21.6274 11.2174 20.7871 12.4795 20.7871C13.7416 20.7871 13.7416 21.6274 15.0037 21.6274C16.2658 21.6274 16.2658 20.7871 17.5279 20.7871C18.79 20.7871 18.79 21.6274 20.0521 21.6274C20.4354 21.6274 20.7025 21.55 20.924 21.441V20.1016H20.917Z" fill="#E5AE5C"/>
<path d="M12.2328 24.2711C12.2117 24.2711 12.1871 24.2676 12.166 24.2641C12.1449 24.2606 12.1203 24.2535 12.0992 24.243C12.0781 24.2324 12.057 24.2219 12.0395 24.2113C12.0184 24.1973 12.0008 24.1832 11.9867 24.1656C11.9727 24.1481 11.9551 24.1305 11.9445 24.1129C11.9305 24.0953 11.9199 24.0742 11.9129 24.0531C11.9023 24.032 11.8988 24.0109 11.8918 23.9863C11.8883 23.9652 11.8848 23.9406 11.8848 23.916C11.8848 23.8914 11.8883 23.8703 11.8918 23.8457C11.8953 23.8246 11.9023 23.8 11.9129 23.7789C11.9234 23.7578 11.934 23.7367 11.9445 23.7191C11.9586 23.7016 11.9727 23.6805 11.9867 23.6664C12.0008 23.6523 12.0219 23.6348 12.0395 23.6242C12.057 23.6102 12.0781 23.5996 12.0992 23.5926C12.1203 23.582 12.1414 23.5785 12.166 23.5715C12.282 23.5469 12.4016 23.5856 12.4824 23.6664C12.5 23.684 12.5141 23.7016 12.5281 23.7191C12.5422 23.7367 12.5527 23.7578 12.5598 23.7789C12.5703 23.8 12.5738 23.8211 12.5809 23.8457C12.5844 23.8668 12.5879 23.8914 12.5879 23.916C12.5879 23.9406 12.5844 23.9617 12.5809 23.9863C12.5773 24.0074 12.5703 24.032 12.5598 24.0531C12.5492 24.0742 12.5387 24.0953 12.5281 24.1129C12.5141 24.1305 12.5 24.1516 12.4824 24.1656C12.4156 24.2359 12.3242 24.2711 12.2328 24.2711Z" fill="#2F3A5A"/>
<path d="M11.9767 17.4051C11.5548 17.827 10.8763 17.827 10.4544 17.4051C10.1275 17.0781 10.0466 16.5824 10.2505 16.1676L11.2138 14.2129L12.1771 16.1676C12.3845 16.5824 12.3036 17.0816 11.9767 17.4051Z" fill="#84879C"/>
<path d="M15.7599 16.9164C15.338 17.3383 14.6595 17.3383 14.2376 16.9164C13.9107 16.5895 13.8298 16.0938 14.0337 15.6789L15.0005 13.7242L15.9638 15.6789C16.1677 16.0938 16.0868 16.5895 15.7599 16.9164Z" fill="#84879C"/>
<path d="M19.546 17.4051C19.1241 17.827 18.4456 17.827 18.0238 17.4051C17.6968 17.0781 17.6159 16.5824 17.8198 16.1676L18.7831 14.2129L19.7464 16.1676C19.9538 16.5824 19.873 17.0816 19.546 17.4051Z" fill="#84879C"/>
<path d="M6.35156 30.4868C6.23555 30.4868 6.14062 30.3918 6.14062 30.2758C6.14062 30.1598 6.23555 30.0649 6.35156 30.0649H7.21992V24.6227C7.21992 24.12 7.62773 23.7122 8.13047 23.7122H8.87227V20.1016C8.87227 19.5989 9.28008 19.1911 9.78281 19.1911H11.0027V17.9219L10.8973 17.8938C10.6758 17.8375 10.4684 17.7215 10.3031 17.5563C9.91289 17.1661 9.81445 16.5719 10.0605 16.0762L11.0273 14.1215C11.0625 14.0477 11.1363 14.0055 11.2172 14.0055C11.298 14.0055 11.3719 14.0512 11.407 14.1215L12.3703 16.0762C12.6129 16.5719 12.518 17.1661 12.1277 17.5563C11.9625 17.7215 11.7586 17.8375 11.5336 17.8938L11.4281 17.9219V19.1911H14.7891V17.4297L14.6836 17.4016C14.4586 17.3454 14.2547 17.2293 14.0895 17.0641C13.6992 16.6739 13.6008 16.0797 13.8469 15.584L14.8102 13.6329C14.8453 13.559 14.9191 13.5168 15 13.5168C15.0809 13.5168 15.1547 13.5625 15.1898 13.6329L16.1531 15.5875C16.3957 16.0833 16.3008 16.6774 15.9105 17.0676C15.7453 17.2329 15.5414 17.3489 15.3164 17.4051L15.2109 17.4333V19.1946H18.5719V17.9254L18.4664 17.8973C18.2414 17.8411 18.0375 17.725 17.8723 17.5598C17.482 17.1696 17.3836 16.5754 17.6297 16.0797L18.593 14.125C18.6281 14.0512 18.702 14.009 18.7828 14.009C18.8637 14.009 18.9375 14.0547 18.9727 14.125L19.9359 16.0797C20.1785 16.5754 20.0836 17.1696 19.6934 17.5598C19.5281 17.725 19.3242 17.8411 19.0992 17.8973L18.9938 17.9254V19.1946H20.2137C20.7164 19.1946 21.1242 19.6024 21.1242 20.1051V23.7122H21.866C22.3687 23.7122 22.7766 24.12 22.7766 24.6227V30.0649H23.6484C23.7645 30.0649 23.8594 30.1598 23.8594 30.2758C23.8594 30.3918 23.7645 30.4868 23.6484 30.4868H6.35156ZM7.6418 30.0649H22.3582V26.377L22.193 26.4086C21.866 26.4684 21.6516 26.6125 21.4266 26.7637C21.0891 26.9887 20.741 27.2208 20.0484 27.2208C19.3523 27.2208 19.0078 26.9887 18.6703 26.7637C18.3609 26.5563 18.0938 26.377 17.5242 26.377C16.9582 26.377 16.691 26.5563 16.3781 26.7637C16.0406 26.9887 15.6926 27.2208 15 27.2208C14.3039 27.2208 13.9594 26.9887 13.6219 26.7637C13.3125 26.5563 13.0453 26.377 12.4758 26.377C11.9098 26.377 11.6426 26.5563 11.3297 26.7637C10.9922 26.9887 10.6441 27.2208 9.95156 27.2208C9.25547 27.2208 8.91094 26.9887 8.57344 26.7637C8.34844 26.6125 8.13398 26.4719 7.80703 26.4122L7.6418 26.3805V30.0649ZM17.5242 25.9516C18.2203 25.9516 18.5648 26.1836 18.9023 26.4086C19.2117 26.6161 19.4789 26.7954 20.0484 26.7954C20.6145 26.7954 20.8816 26.6161 21.1945 26.4086C21.4688 26.2258 21.757 26.036 22.2387 25.9727L22.3617 25.9586V24.6227C22.3617 24.352 22.1402 24.134 21.873 24.134H13.6324C13.5164 24.134 13.4215 24.0391 13.4215 23.9231C13.4215 23.8071 13.5164 23.7122 13.6324 23.7122H20.7023V21.761L20.5336 21.7961C20.3789 21.8278 20.2207 21.8418 20.0414 21.8418C19.3453 21.8418 19.0008 21.6098 18.6633 21.3848C18.3539 21.1774 18.0867 20.9981 17.5172 20.9981C16.9512 20.9981 16.684 21.1774 16.3711 21.3848C16.0336 21.6098 15.6855 21.8418 14.993 21.8418C14.2969 21.8418 13.9523 21.6098 13.6148 21.3848C13.3055 21.1774 13.0383 20.9981 12.4688 20.9981C11.9027 20.9981 11.6355 21.1774 11.3262 21.3848C10.9887 21.6098 10.6406 21.8418 9.94805 21.8418C9.77227 21.8418 9.61055 21.8278 9.45938 21.7961L9.29062 21.761V23.7122H10.827C10.943 23.7122 11.0379 23.8071 11.0379 23.9231C11.0379 24.0391 10.943 24.134 10.827 24.134H8.13047C7.85977 24.134 7.6418 24.3555 7.6418 24.6227V25.9586L7.76484 25.9727C8.24648 26.036 8.53477 26.2258 8.80898 26.4086C9.11836 26.6161 9.38555 26.7954 9.95508 26.7954C10.5211 26.7954 10.7883 26.6161 11.0977 26.4086C11.4352 26.1836 11.7832 25.9516 12.4758 25.9516C13.1719 25.9516 13.5164 26.1836 13.8539 26.4086C14.1633 26.6161 14.4305 26.7954 15 26.7954C15.566 26.7954 15.8332 26.6161 16.1461 26.4086C16.4801 26.1836 16.8281 25.9516 17.5242 25.9516ZM17.5242 20.5762C18.2203 20.5762 18.5648 20.8083 18.9023 21.0333C19.2117 21.2407 19.4789 21.42 20.0484 21.42C20.2629 21.42 20.4422 21.3954 20.6109 21.3426L20.7094 21.311V20.1016C20.7094 19.8309 20.4879 19.6129 20.2207 19.6129H9.78633C9.51562 19.6129 9.29766 19.8344 9.29766 20.1016V21.3075L9.39609 21.3391C9.56484 21.3918 9.74414 21.4165 9.95508 21.4165C10.5211 21.4165 10.7883 21.2372 11.0977 21.0297C11.4352 20.8047 11.7832 20.5727 12.4758 20.5727C13.1719 20.5727 13.5164 20.8047 13.8539 21.0297C14.1633 21.2372 14.4305 21.4165 15 21.4165C15.566 21.4165 15.8332 21.2372 16.1461 21.0297C16.4801 20.8083 16.8281 20.5762 17.5242 20.5762ZM18.0094 16.2625C17.8441 16.5965 17.9109 16.9938 18.1746 17.2575C18.2309 17.3137 18.2941 17.3629 18.368 17.4016C18.4945 17.4719 18.6422 17.5106 18.7863 17.5106C18.934 17.5106 19.0781 17.4719 19.2047 17.4016C19.275 17.3629 19.3418 17.3137 19.398 17.2575C19.6617 16.9938 19.725 16.5965 19.5633 16.2625L18.7863 14.6911L18.0094 16.2625ZM10.4402 16.2625C10.275 16.5965 10.3418 16.9938 10.6055 17.2575C10.6617 17.3137 10.725 17.3629 10.7988 17.4016C10.9254 17.4719 11.073 17.5106 11.2172 17.5106C11.3648 17.5106 11.509 17.4719 11.6355 17.4016C11.7059 17.3629 11.7727 17.3137 11.8289 17.2575C12.0926 16.9938 12.1559 16.5965 11.9941 16.2625L11.2172 14.6911L10.4402 16.2625ZM14.223 15.7739C14.0578 16.1079 14.1246 16.5051 14.3883 16.7688C14.4445 16.825 14.5078 16.8743 14.5816 16.9129C14.7082 16.9833 14.8559 17.0219 15 17.0219C15.1441 17.0219 15.2918 16.9833 15.4184 16.9129C15.4887 16.8743 15.5555 16.825 15.6117 16.7688C15.8754 16.5051 15.9387 16.1079 15.777 15.7739L15 14.2024L14.223 15.7739Z" fill="#2F3A5A"/>
<path d="M9.08301 29.4707C8.9916 29.4707 8.9002 29.432 8.8334 29.3688C8.81582 29.3512 8.80176 29.3336 8.79121 29.316C8.77715 29.2984 8.7666 29.2773 8.75957 29.2563C8.75254 29.2352 8.74551 29.2141 8.73848 29.1895C8.73496 29.1684 8.73145 29.1438 8.73145 29.1191C8.73145 29.0945 8.73496 29.0734 8.73848 29.0488C8.74199 29.0277 8.74902 29.0031 8.75957 28.982C8.77012 28.9609 8.78066 28.9398 8.79121 28.9223C8.80527 28.9047 8.81934 28.8871 8.8334 28.8695C8.91426 28.7887 9.0373 28.75 9.1498 28.7746C9.1709 28.7781 9.19551 28.7852 9.2166 28.7957C9.2377 28.8063 9.25879 28.8168 9.27637 28.8273C9.29746 28.8414 9.31504 28.8555 9.3291 28.8695C9.34668 28.8871 9.36074 28.9047 9.3748 28.9223C9.38887 28.9398 9.39941 28.9609 9.40645 28.982C9.41348 29.0031 9.42051 29.0242 9.42754 29.0488C9.43105 29.0699 9.43457 29.0945 9.43457 29.1191C9.43457 29.1402 9.43105 29.1648 9.42754 29.1895C9.42402 29.2106 9.41699 29.2352 9.40645 29.2563C9.3959 29.2773 9.38535 29.2984 9.3748 29.316C9.36074 29.3336 9.34668 29.3512 9.3291 29.3688C9.31152 29.3863 9.29395 29.4004 9.27637 29.4109C9.25879 29.425 9.2377 29.4356 9.2166 29.4426C9.19551 29.4496 9.17441 29.4566 9.1498 29.4637C9.12871 29.4672 9.10762 29.4707 9.08301 29.4707Z" fill="#2F3A5A"/>
<path d="M12.8627 28.4196C12.8416 28.4196 12.817 28.4161 12.7959 28.4125C12.7748 28.409 12.7502 28.402 12.7291 28.3915C12.708 28.3809 12.6869 28.3704 12.6693 28.3598C12.6482 28.3457 12.6307 28.3317 12.6166 28.3176C12.6025 28.3036 12.585 28.2825 12.5744 28.2649C12.5604 28.2473 12.5498 28.2262 12.5428 28.2051C12.5357 28.184 12.5287 28.1629 12.5217 28.1383C12.5182 28.1172 12.5146 28.0926 12.5146 28.068C12.5146 28.0469 12.5182 28.0223 12.5217 27.9977C12.5252 27.9766 12.5322 27.952 12.5428 27.9309C12.5533 27.9098 12.5639 27.8887 12.5744 27.8711C12.5885 27.8536 12.6025 27.8325 12.6166 27.8184C12.6307 27.8043 12.6518 27.7868 12.6693 27.7762C12.6869 27.7622 12.708 27.7516 12.7291 27.7446C12.7502 27.734 12.7713 27.7305 12.7959 27.7235C12.8416 27.7129 12.8873 27.7129 12.933 27.7235C12.9541 27.727 12.9787 27.734 12.9998 27.7446C13.0209 27.7551 13.042 27.7657 13.0596 27.7762C13.0807 27.7903 13.0982 27.8043 13.1123 27.8184C13.1264 27.8325 13.1439 27.8536 13.158 27.8711C13.1721 27.8887 13.1826 27.9098 13.1896 27.9309C13.1967 27.952 13.2037 27.9731 13.2107 27.9977C13.2143 28.0188 13.2178 28.0434 13.2178 28.068C13.2178 28.0926 13.2143 28.1137 13.2107 28.1383C13.2072 28.1594 13.2002 28.184 13.1896 28.2051C13.1791 28.2262 13.1686 28.2473 13.158 28.2649C13.1439 28.2825 13.1299 28.3036 13.1123 28.3176C13.0947 28.3317 13.0771 28.3493 13.0596 28.3598C13.042 28.3739 13.0209 28.3844 12.9998 28.3915C12.9787 28.402 12.9576 28.4055 12.933 28.4125C12.9084 28.4161 12.8873 28.4196 12.8627 28.4196Z" fill="#2F3A5A"/>
<path d="M16.9264 29.4707C16.9053 29.4707 16.8807 29.4672 16.8561 29.4637C16.835 29.4602 16.8104 29.4531 16.7893 29.4426C16.7682 29.4321 16.7471 29.4215 16.7295 29.411C16.7119 29.3969 16.6908 29.3828 16.6768 29.3688C16.6627 29.3547 16.6451 29.3336 16.6311 29.316C16.617 29.2985 16.6064 29.2774 16.5994 29.2563C16.5924 29.2352 16.5854 29.2141 16.5783 29.1895C16.5748 29.1684 16.5713 29.1438 16.5713 29.1192C16.5713 29.0946 16.5748 29.0735 16.5783 29.0489C16.5818 29.0278 16.5889 29.0031 16.5994 28.9821C16.61 28.961 16.6205 28.9399 16.6311 28.9223C16.6451 28.9047 16.6592 28.8871 16.6768 28.8696C16.6943 28.852 16.7119 28.8379 16.7295 28.8274C16.7471 28.8133 16.7682 28.8028 16.7893 28.7957C16.8104 28.7852 16.8314 28.7817 16.8561 28.7746C16.9018 28.7641 16.9475 28.7641 16.9932 28.7746C17.0143 28.7781 17.0389 28.7852 17.06 28.7957C17.0811 28.8063 17.1021 28.8168 17.1197 28.8274C17.1373 28.8414 17.1584 28.8555 17.1725 28.8696C17.19 28.8871 17.2041 28.9047 17.2146 28.9223C17.2287 28.9399 17.2393 28.961 17.2463 28.9821C17.2533 29.0031 17.2604 29.0242 17.2674 29.0489C17.2709 29.0699 17.2744 29.0946 17.2744 29.1192C17.2744 29.1403 17.2709 29.1649 17.2674 29.1895C17.2639 29.2106 17.2568 29.2352 17.2463 29.2563C17.2357 29.2774 17.2252 29.2985 17.2146 29.316C17.2006 29.3336 17.1865 29.3547 17.1725 29.3688C17.1092 29.4321 17.0213 29.4707 16.9264 29.4707Z" fill="#2F3A5A"/>
<path d="M20.917 28.6305C20.8924 28.6305 20.8713 28.627 20.8467 28.6235C20.8256 28.6199 20.801 28.6129 20.7799 28.6024C20.7588 28.5918 20.7377 28.5813 20.7201 28.5707C20.7025 28.5567 20.685 28.5426 20.6674 28.5285C20.6498 28.511 20.6357 28.4934 20.6252 28.4758C20.6111 28.4582 20.6006 28.4371 20.5936 28.416C20.5865 28.3949 20.5795 28.3739 20.5725 28.3492C20.5689 28.3281 20.5654 28.3035 20.5654 28.2789C20.5654 28.2578 20.5689 28.2332 20.5725 28.2086C20.576 28.184 20.583 28.1629 20.5936 28.1418C20.6041 28.1207 20.6146 28.0996 20.6252 28.0821C20.6393 28.0645 20.6533 28.0434 20.6674 28.0293C20.7342 27.9625 20.8221 27.9274 20.917 27.9274C21.0084 27.9274 21.0998 27.966 21.1666 28.0293C21.1842 28.0469 21.1982 28.0645 21.2088 28.0821C21.2193 28.0996 21.2334 28.1207 21.2404 28.1418C21.2475 28.1629 21.2545 28.184 21.2615 28.2086C21.265 28.2297 21.2686 28.2543 21.2686 28.2789C21.2686 28.3035 21.265 28.3246 21.2615 28.3492C21.258 28.3703 21.251 28.3949 21.2404 28.416C21.2299 28.4371 21.2193 28.4582 21.2088 28.4758C21.1947 28.4934 21.1807 28.5145 21.1666 28.5285C21.0998 28.5918 21.0084 28.6305 20.917 28.6305Z" fill="#2F3A5A"/>
<path d="M17.4189 22.8824C17.3979 22.8824 17.3732 22.8789 17.3486 22.8754C17.324 22.8719 17.3029 22.8649 17.2818 22.8543C17.2607 22.8438 17.2396 22.8332 17.2221 22.8227C17.2045 22.8086 17.1834 22.7946 17.1693 22.7805C17.1553 22.7664 17.1377 22.7453 17.1271 22.7278C17.1131 22.7102 17.1025 22.6891 17.0955 22.668C17.0885 22.6469 17.0814 22.6258 17.0744 22.6012C17.0674 22.5766 17.0674 22.5555 17.0674 22.5309C17.0674 22.5098 17.0709 22.4852 17.0744 22.4606C17.0779 22.4395 17.085 22.4149 17.0955 22.3938C17.1061 22.3727 17.1166 22.3516 17.1271 22.334C17.1412 22.3164 17.1553 22.2953 17.1693 22.2813C17.1869 22.2637 17.2045 22.2496 17.2221 22.2356C17.2396 22.2215 17.2607 22.211 17.2818 22.2039C17.3029 22.1934 17.324 22.1899 17.3486 22.1828C17.3943 22.1723 17.44 22.1723 17.4857 22.1828C17.5068 22.1864 17.5314 22.1934 17.5525 22.2039C17.5736 22.2145 17.5947 22.225 17.6123 22.2356C17.6299 22.2496 17.651 22.2637 17.665 22.2813C17.6826 22.2989 17.6967 22.3164 17.7107 22.334C17.7248 22.3516 17.7354 22.3727 17.7424 22.3938C17.7529 22.4149 17.7564 22.436 17.7635 22.4606C17.767 22.4817 17.7705 22.5063 17.7705 22.5309C17.7705 22.5555 17.767 22.5766 17.7635 22.6012C17.76 22.6258 17.7529 22.6469 17.7424 22.668C17.7318 22.6891 17.7213 22.7102 17.7107 22.7278C17.6967 22.7453 17.6826 22.7664 17.665 22.7805C17.6475 22.7946 17.6299 22.8121 17.6123 22.8227C17.5947 22.8367 17.5736 22.8473 17.5525 22.8543C17.5314 22.8649 17.5104 22.8684 17.4857 22.8754C17.4646 22.8789 17.44 22.8824 17.4189 22.8824Z" fill="#2F3A5A"/>
<path d="M12.8271 22.4043C12.8025 22.4043 12.7814 22.4008 12.7568 22.3973C12.7357 22.3938 12.7111 22.3867 12.69 22.3762C12.6689 22.3657 12.6479 22.3551 12.6303 22.3446C12.6127 22.3305 12.5916 22.3164 12.5775 22.3024C12.56 22.2848 12.5459 22.2672 12.5354 22.2496C12.5213 22.2321 12.5107 22.211 12.5037 22.1899C12.4967 22.1688 12.4896 22.1477 12.4826 22.1231C12.4791 22.102 12.4756 22.0774 12.4756 22.0528C12.4756 22.0282 12.4791 22.0071 12.4826 21.9824C12.4861 21.9614 12.4932 21.9367 12.5037 21.9157C12.5143 21.8946 12.5248 21.8735 12.5354 21.8559C12.5494 21.8383 12.5635 21.8172 12.5775 21.8031C12.5951 21.7856 12.6127 21.7715 12.6303 21.761C12.6514 21.7469 12.6689 21.7364 12.69 21.7293C12.7111 21.7223 12.7322 21.7153 12.7568 21.7082C12.8025 21.6977 12.8482 21.6977 12.8939 21.7082C12.915 21.7117 12.9396 21.7188 12.9607 21.7293C12.9818 21.7399 13.0029 21.7504 13.0205 21.761C13.0381 21.775 13.0592 21.7891 13.0732 21.8031C13.0873 21.8172 13.1049 21.8383 13.1154 21.8559C13.1295 21.877 13.14 21.8946 13.1471 21.9157C13.1541 21.9367 13.1611 21.9578 13.1682 21.9824C13.1717 22.0071 13.1752 22.0282 13.1752 22.0528C13.1752 22.0739 13.1717 22.0985 13.1682 22.1231C13.1646 22.1442 13.1576 22.1688 13.1471 22.1899C13.1365 22.211 13.126 22.2321 13.1154 22.2496C13.1014 22.2672 13.0873 22.2848 13.0732 22.3024C13.0557 22.3199 13.0381 22.334 13.0205 22.3446C12.9994 22.3586 12.9818 22.3692 12.9607 22.3762C12.9396 22.3832 12.9186 22.3903 12.8939 22.3973C12.8693 22.4043 12.8518 22.4043 12.8271 22.4043Z" fill="#2F3A5A"/>
</g>
<defs>
<clipPath id="clip0_139_60">
<rect width="30" height="30" fill="white"/>
</clipPath>
<clipPath id="clip1_139_60">
<rect width="18" height="18" fill="white" transform="translate(6 13)"/>
</clipPath>
</defs>
</svg>
