<svg width="34" height="34" viewBox="0 0 34 34" fill="none" xmlns="http://www.w3.org/2000/svg">
<circle cx="17" cy="17" r="17" fill="#F9648B"/>
<path d="M24.7283 12.5435H22.7457L21.6511 10.8913C21.238 10.2718 20.5152 9.90002 19.7717 9.90002H15.2283C14.4848 9.90002 13.762 10.2718 13.3489 10.8913L12.2543 12.5435H10.2717C9.01196 12.5435 8 13.5555 8 14.8152V22.8283C8 24.0881 9.01196 25.1 10.2717 25.1H24.7283C25.988 25.1 27 24.0881 27 22.8283V14.8152C27 13.5555 25.988 12.5435 24.7283 12.5435ZM17.5 23.2413C14.6707 23.2413 12.3783 20.9489 12.3783 18.1196C12.3783 15.2902 14.6707 13.0185 17.5 13.0185C20.3293 13.0185 22.6217 15.3109 22.6217 18.1402C22.6217 20.9489 20.3293 23.2413 17.5 23.2413ZM24.4391 15.7446C24.4185 15.7446 24.3978 15.7446 24.3565 15.7446H23.5304C23.1587 15.7239 22.8696 15.4142 22.8902 15.0424C22.9109 14.6913 23.1793 14.4229 23.5304 14.4022H24.3565C24.7283 14.3815 25.038 14.6707 25.0587 15.0424C25.0793 15.4142 24.8109 15.7239 24.4391 15.7446Z" fill="white"/>
<path d="M17.5004 15.2902C15.9308 15.2902 14.6504 16.5707 14.6504 18.1402C14.6504 19.7098 15.9308 20.9696 17.5004 20.9696C19.0699 20.9696 20.3504 19.6891 20.3504 18.1196C20.3504 16.55 19.0699 15.2902 17.5004 15.2902Z" fill="white"/>
</svg>
