<svg width="28" height="28" viewBox="0 0 28 28" fill="none" xmlns="http://www.w3.org/2000/svg">
<path opacity="0.5" d="M10.896 7.38281C10.896 4.58702 12.7205 2.2178 15.2437 1.39962C14.6321 1.20138 13.9798 1.09375 13.3022 1.09375C9.82888 1.09375 7.01318 3.90945 7.01318 7.38281C7.01318 10.8562 9.82888 13.6719 13.3022 13.6719C13.9798 13.6719 14.6321 13.5642 15.2437 13.366C12.7205 12.5478 10.896 10.1786 10.896 7.38281Z" fill="#5FCFFF"/>
<path d="M23.6797 28C23.0756 28 22.5859 27.5103 22.5859 26.9062C22.5859 22.6243 19.1023 19.1406 14.8203 19.1406H13.1797C8.89771 19.1406 5.41406 22.6243 5.41406 26.9062C5.41406 27.5103 4.92439 28 4.32031 28C3.71623 28 3.22656 27.5103 3.22656 26.9062C3.22656 21.4181 7.69152 16.9531 13.1797 16.9531H14.8203C20.3085 16.9531 24.7734 21.4181 24.7734 26.9062C24.7734 27.5103 24.2838 28 23.6797 28ZM21.2734 7.38281C21.2734 3.31193 17.9615 0 13.8906 0C9.81974 0 6.50781 3.31193 6.50781 7.38281C6.50781 11.4537 9.81974 14.7656 13.8906 14.7656C17.9615 14.7656 21.2734 11.4537 21.2734 7.38281ZM19.0859 7.38281C19.0859 10.2475 16.7553 12.5781 13.8906 12.5781C11.0259 12.5781 8.69531 10.2475 8.69531 7.38281C8.69531 4.51812 11.0259 2.1875 13.8906 2.1875C16.7553 2.1875 19.0859 4.51812 19.0859 7.38281Z" fill="#5FCFFF"/>
<path d="M13.9453 28C13.7556 28 13.566 27.9507 13.3964 27.8523L8.96672 25.282C8.71193 25.1342 8.52758 24.8898 8.45528 24.6042C8.38304 24.3187 8.42903 24.0161 8.58282 23.7648L10.2234 21.0852C10.5388 20.57 11.2122 20.4081 11.7273 20.7235C12.2425 21.0389 12.4044 21.7122 12.089 22.2274L11.0331 23.952L13.9519 25.6456L16.946 23.9502L15.8647 22.2411C15.5418 21.7306 15.6938 21.055 16.2043 20.732C16.7147 20.4091 17.3904 20.5611 17.7133 21.0715L19.4086 23.7512C19.5687 24.0042 19.618 24.3117 19.5452 24.6021C19.4724 24.8924 19.2838 25.1402 19.0233 25.2877L14.4842 27.858C14.317 27.9527 14.1311 28 13.9453 28Z" fill="#F9648B"/>
</svg>
