<svg width="196" height="148" viewBox="0 0 196 148" fill="none" xmlns="http://www.w3.org/2000/svg">
<g clip-path="url(#clip0_96_130)">
<path d="M156.344 61.1663C155.523 59.1038 154.117 57.2522 152.266 55.8928L108.133 23.4084C105.133 21.2053 101.031 21.2053 98.0547 23.4084L53.9219 55.8928C52.0937 57.2288 50.7813 59.1741 49.9375 61.2131C49.375 62.6194 48.9766 64.0959 48.9766 65.6428V87.9084H157.211C157.211 85.0256 157.211 68.5959 157.211 65.6428C157.211 64.0959 156.906 62.5725 156.344 61.1663Z" fill="#FAB505"/>
<path d="M157.211 79.7288C157.211 74.0803 157.211 67.4241 157.211 65.6663C157.211 64.0959 156.906 62.5725 156.344 61.1663C155.523 59.1038 154.117 57.2522 152.266 55.8928L108.133 23.4084C105.133 21.2053 101.031 21.2053 98.0547 23.4084L97.4688 23.8303L148.117 61.5647C148.891 62.1272 149.477 62.9006 149.828 63.7913C150.062 64.4006 150.203 65.0334 150.203 65.6663V79.7288H157.211Z" fill="#E8A804"/>
<path d="M135.578 52.0022H70.6328C67.6328 52.0022 65.2188 54.4163 65.2188 57.4163V91.9163L86.875 114.393H119.359L141.016 91.9163V58.3772C140.992 55.3772 138.555 52.0022 135.578 52.0022Z" fill="#FEF4EF"/>
<path d="M119.336 108.51H86.8516L48.9766 68.4319V130.096C48.9766 134.573 52.6094 138.205 57.0859 138.205H149.102C153.578 138.205 157.211 134.573 157.211 130.096V68.4553L119.336 108.51Z" fill="#FAB505"/>
<path d="M116.523 107.174H89.6641C87.8594 107.174 86.1484 107.877 84.8828 109.166L51.3672 135.862C52.8438 137.338 54.8594 138.229 57.1094 138.229H149.125C151.375 138.229 153.391 137.315 154.867 135.862L121.352 109.166C120.039 107.877 118.328 107.174 116.523 107.174Z" fill="#FAB505"/>
<path d="M147.859 130.283C147.016 130.846 146.008 131.198 144.906 131.198H73.0234C68.2422 131.198 63.625 132.815 59.875 135.791L57.0156 138.065L57.0625 138.229H149.078C151.328 138.229 153.344 137.315 154.82 135.862L147.859 130.283Z" fill="#E8A804"/>
<path d="M154.023 79.4944C151.563 82.0959 150.18 85.5647 150.18 89.1506V125.924C150.18 127.752 149.266 129.346 147.859 130.283L154.844 135.838C156.32 134.362 157.211 132.346 157.211 130.096V76.1194L154.023 79.4944Z" fill="#E8A804"/>
<path d="M57.0859 139.049C54.7656 139.049 52.5625 138.158 50.875 136.541L50.8281 136.518L50.8047 136.494C50.7578 136.471 50.7344 136.424 50.6875 136.377L50.6641 136.33C49.0234 134.643 48.1328 132.44 48.1328 130.119V65.6663C48.1328 61.5647 50.1016 57.6741 53.4063 55.2366L97.5625 22.7288C99.1797 21.5334 101.078 20.9241 103.094 20.9241C105.109 20.9241 107.008 21.5569 108.625 22.7288L152.758 55.2366C156.063 57.6741 158.031 61.5647 158.031 65.6663V130.119C158.031 132.44 157.141 134.666 155.5 136.33L155.477 136.377C155.43 136.424 155.406 136.448 155.359 136.494L155.336 136.518C153.648 138.158 151.445 139.049 149.102 139.049H57.0859ZM85.4922 109.471C84.625 110.174 65.125 125.854 53.6641 135.041L52.5156 135.979L53.8047 136.635C54.8359 137.151 55.9375 137.408 57.0859 137.408H149.102C150.25 137.408 151.352 137.151 152.383 136.635L153.695 135.979L152.547 135.065C152.289 134.854 121.82 110.385 120.719 109.471C119.594 108.369 118.117 107.76 116.547 107.76H89.6641C88.0938 107.76 86.6172 108.369 85.4922 109.471ZM103.094 22.5647C101.453 22.5647 99.8828 23.0803 98.5469 24.0647L54.4141 56.5491C51.5313 58.6819 49.7969 62.0803 49.7969 65.6663V130.119C49.7969 131.432 50.1484 132.721 50.8281 133.869L51.3906 134.783L84.3438 108.299L84.3906 108.252L85.0703 107.619L55.5859 76.0256C55.4453 75.8616 55.3516 75.6506 55.375 75.4397C55.375 75.2288 55.4688 75.0178 55.6328 74.8772C55.7969 74.7366 55.9844 74.6663 56.1953 74.6663C56.4297 74.6663 56.6406 74.76 56.8047 74.9241L64.4219 83.0803V57.4163C64.4219 53.9709 67.2109 51.1819 70.6563 51.1819H135.578C139.023 51.1819 141.813 53.9709 141.813 57.4163V83.0803L149.43 74.9241C149.594 74.76 149.805 74.6663 150.039 74.6663C150.25 74.6663 150.438 74.7366 150.602 74.8772C150.93 75.1819 150.953 75.6975 150.648 76.0256L121.141 107.596L121.773 108.229L121.844 108.299L154.797 134.783L155.359 133.869C156.039 132.744 156.391 131.455 156.391 130.119V65.6663C156.391 62.0803 154.656 58.6819 151.773 56.5491L107.664 24.0647C106.328 23.0803 104.734 22.5647 103.094 22.5647ZM116.523 106.119C117.414 106.119 118.258 106.26 119.078 106.565L119.664 106.776L140.195 84.7913L140.172 84.3694C140.172 84.346 140.172 84.3225 140.172 84.2991V57.4163C140.172 54.885 138.109 52.8225 135.578 52.8225H70.6328C68.1016 52.8225 66.0391 54.885 66.0391 57.4163V84.3225C66.0391 84.3459 66.0391 84.346 66.0391 84.3694L66.0156 84.7913L86.5469 106.776L87.1328 106.565C87.9531 106.26 88.8203 106.119 89.6875 106.119H116.523Z" fill="#2F3A5A"/>
<g clip-path="url(#clip1_96_130)">
<path d="M77 72.8502L73.3664 72.6113L71.998 69.1735L70.6296 72.6113L67 72.8502L69.7839 75.214L68.8704 78.7997L71.998 76.8227L75.1257 78.7997L74.2122 75.214L77 72.8502Z" fill="#FAB505"/>
</g>
<g clip-path="url(#clip2_96_130)">
<path d="M90 72.8502L86.0031 72.6113L84.4978 69.1735L82.9925 72.6113L79 72.8502L82.0623 75.214L81.0574 78.7997L84.4978 76.8227L87.9383 78.7997L86.9334 75.214L90 72.8502Z" fill="#FAB505"/>
</g>
<g clip-path="url(#clip3_96_130)">
<path d="M102 72.8502L98.3664 72.6113L96.998 69.1735L95.6296 72.6113L92 72.8502L94.7839 75.214L93.8704 78.7997L96.998 76.8227L100.126 78.7997L99.2122 75.214L102 72.8502Z" fill="#FAB505"/>
</g>
<g clip-path="url(#clip4_96_130)">
<path d="M114 72.8502L110.366 72.6113L108.998 69.1735L107.63 72.6113L104 72.8502L106.784 75.214L105.87 78.7997L108.998 76.8227L112.126 78.7997L111.212 75.214L114 72.8502Z" fill="#FAB505"/>
</g>
<g clip-path="url(#clip5_96_130)">
<path d="M127 72.8502L123.003 72.6113L121.498 69.1735L119.993 72.6113L116 72.8502L119.062 75.214L118.057 78.7997L121.498 76.8227L124.938 78.7997L123.933 75.214L127 72.8502Z" fill="#FAB505"/>
</g>
<g clip-path="url(#clip6_96_130)">
<path d="M139 72.8502L135.366 72.6113L133.998 69.1735L132.63 72.6113L129 72.8502L131.784 75.214L130.87 78.7997L133.998 76.8227L137.126 78.7997L136.212 75.214L139 72.8502Z" fill="#FAB505"/>
</g>
</g>
<path d="M158.686 27.8518C158.9 27.7111 159.158 27.6755 159.376 27.868C159.57 28.0334 159.764 28.1988 159.931 28.3882C161.692 30.057 163.761 30.5407 166.074 30.0405C166.281 30.0018 166.465 29.9361 166.672 29.8974C167.217 29.8023 167.503 30.127 167.34 30.6549C167.306 30.7809 167.221 30.9038 167.16 31.0538C166.291 33.3574 166.508 35.5218 167.939 37.5291C168.079 37.7425 168.246 37.9318 168.385 38.1452C168.549 38.3856 168.532 38.6407 168.287 38.8563C168.07 39.0481 167.815 39.0326 167.57 38.8641C167.447 38.7799 167.352 38.6716 167.256 38.5634C165.431 36.7115 163.188 36.1404 160.665 36.7303C160.508 36.7721 160.324 36.8378 160.144 36.8525C159.681 36.8757 159.443 36.6052 159.524 36.1491C159.558 36.0231 159.619 35.8731 159.704 35.7502C160.688 33.2487 160.352 30.9491 158.697 28.8513C158.445 28.4007 158.414 28.0915 158.686 27.8518ZM161.163 35.3775C161.265 35.3837 161.313 35.4378 161.391 35.417C161.442 35.42 161.493 35.4231 161.571 35.4022C162.939 35.2545 164.263 35.3858 165.559 35.9253C165.76 35.9887 165.961 36.0521 165.882 35.6887C165.51 34.3345 165.522 32.9779 165.895 31.5919C165.966 31.2889 165.84 31.2556 165.582 31.2912C164.187 31.4629 162.84 31.3045 161.519 30.738C161.271 30.6205 161.186 30.7434 161.274 30.9537C161.67 32.335 161.655 33.7426 161.282 35.1286C161.173 35.2245 161.194 35.3026 161.163 35.3775Z" fill="#8DB600"/>
<path d="M188.575 33.4252C189.604 34.5375 189.493 36.2211 188.402 37.2307C187.311 38.2403 185.573 38.1863 184.568 37.1011C183.515 35.9618 183.602 34.2511 184.72 33.2175C185.886 32.238 187.547 32.3129 188.575 33.4252ZM185.562 34.0624C184.909 34.6375 184.815 35.6818 185.363 36.3041C185.888 36.8993 186.959 36.9641 187.581 36.4639C188.258 35.9158 188.301 34.8684 187.729 34.2191C187.184 33.5459 186.187 33.5112 185.562 34.0624Z" fill="#8DB600"/>
<path d="M175.565 16.5803C174.564 15.4441 174.647 13.7844 175.766 12.7509C176.884 11.7173 178.643 11.8494 179.644 12.9856C180.622 14.0948 180.508 15.8294 179.369 16.7849C178.251 17.8185 176.567 17.7165 175.565 16.5803ZM178.63 15.9462C179.283 15.3711 179.326 14.3237 178.726 13.6984C178.151 13.1001 177.181 13.0414 176.529 13.6166C175.903 14.1677 175.812 15.1611 176.334 15.8072C176.906 16.4565 178.001 16.5484 178.63 15.9462Z" fill="#8DB600"/>
<path d="M161.906 7.277C162.383 7.81806 162.326 8.68537 161.759 9.1376C161.218 9.56587 160.402 9.51644 159.976 8.97847C159.523 8.46446 159.549 7.67214 160.069 7.16579C160.613 6.68651 161.43 6.73593 161.906 7.277ZM161.009 8.06782C160.982 8.09179 160.904 8.11267 160.876 8.13663C160.846 8.21161 160.87 8.23867 160.948 8.21779C160.975 8.19383 161.026 8.19691 161.002 8.16986C161.006 8.11884 161.009 8.06782 161.009 8.06782Z" fill="#8DB600"/>
<path d="M19.7896 104.205C20.2553 104.275 20.4241 104.644 20.6568 104.975C21.8342 106.878 23.354 108.415 25.3898 109.445C26.645 110.077 27.9825 110.408 29.384 110.407C29.4662 110.402 29.5483 110.397 29.6488 110.424C30.3107 110.467 30.5115 110.817 30.1826 111.428C29.8219 112.058 29.5432 112.683 29.3331 113.353C28.6067 115.715 28.8162 118.004 29.6329 120.241C29.8656 120.868 30.1302 121.477 30.477 122.082C30.5135 122.145 30.5318 122.177 30.5683 122.241C30.7736 122.672 30.7096 123.005 30.4037 123.138C30.0339 123.308 29.8103 123.141 29.5958 122.841C29.1485 122.21 28.747 121.511 28.2358 120.916C26.1912 118.539 23.6853 117.06 20.4853 117.037C19.7092 117.018 19.5084 116.668 19.9148 115.97C21.7142 112.738 21.4684 109.498 20.0037 106.28C19.7574 105.703 19.301 105.204 19.3605 104.493C19.47 104.388 19.6298 104.296 19.7896 104.205ZM27.8985 118.7C27.894 118.618 27.9031 118.486 27.8803 118.372C27.4791 116.193 27.6576 114.061 28.5482 111.986C28.7081 111.598 28.5255 111.576 28.2425 111.527C26.1335 111.258 24.2392 110.401 22.6143 109.051C22.4591 108.929 22.3177 108.756 22.1031 108.753C22.1305 108.948 22.1258 109.162 22.1532 109.358C22.4632 111.378 22.3075 113.328 21.5402 115.248C21.2935 115.855 21.3118 115.886 21.96 115.979C23.9731 116.303 25.767 117.134 27.3553 118.42C27.4603 118.529 27.579 118.588 27.684 118.696C27.7342 118.71 27.7889 118.805 27.8985 118.7Z" fill="#8DB600"/>
<path d="M34.6641 142.099C34.2843 142.259 34.0517 142.104 33.8211 141.816C33.5705 141.498 33.3507 141.16 33.0692 140.862C31.5508 139.269 29.6721 138.61 27.5059 138.793C27.3733 138.791 27.2097 138.81 27.0661 138.86C26.7899 138.908 26.5555 138.886 26.3757 138.609C26.2159 138.363 26.2706 138.109 26.427 137.876C26.7706 137.39 26.9926 136.853 27.1946 136.284C27.8133 134.396 27.6452 132.581 26.6902 130.841C26.5703 130.656 26.4305 130.441 26.3415 130.237C26.2435 129.95 26.3491 129.707 26.6163 129.577C26.8525 129.467 27.087 129.49 27.2686 129.634C27.3994 129.768 27.5192 129.952 27.6391 130.137C29.2118 132.219 31.2921 133.054 33.8562 132.874C34.0198 132.856 34.1325 132.826 34.296 132.807C34.8884 132.772 35.1481 133.172 34.8953 133.73C34.8425 133.851 34.7389 133.962 34.6552 134.104C33.3985 136.363 33.3865 138.645 34.6302 140.897C34.75 141.082 34.8499 141.235 34.9388 141.44C35.0368 141.726 34.9114 141.939 34.6641 142.099ZM32.5977 138.851C32.6086 138.8 32.6505 138.729 32.6105 138.668C32.4477 137.2 32.6519 135.755 33.2431 134.366C33.3486 134.122 33.1451 134.08 32.9616 134.068C31.5333 134.034 30.1815 133.644 28.957 132.909C28.7445 132.785 28.6318 132.815 28.6789 133.09C28.8527 134.507 28.6594 135.901 28.0791 137.24C27.9736 137.483 28.0535 137.606 28.3388 137.64C29.7671 137.673 31.1189 138.063 32.3742 138.778C32.4251 138.788 32.4959 138.83 32.5977 138.851Z" fill="#8DB600"/>
<path d="M21.893 75.1289C20.6151 76.0029 18.9562 75.6817 18.0863 74.4105C17.2165 73.1393 17.568 71.3807 18.8659 70.5374C20.1329 69.7143 21.8427 70.0462 22.6617 71.3067C23.4807 72.5672 23.14 74.275 21.893 75.1289ZM21.6928 71.9799C21.2134 71.242 20.165 71.0488 19.4433 71.5614C18.7017 72.0432 18.5449 73.0195 19.0043 73.7266C19.4837 74.4645 20.4504 74.6671 21.1811 74.2361C21.9118 73.8051 22.1522 72.687 21.6928 71.9799Z" fill="#8DB600"/>
<path d="M17.1879 129.895C15.91 130.769 14.2511 130.447 13.3812 129.176C12.5114 127.905 12.863 126.146 14.1608 125.303C15.4278 124.48 17.1377 124.812 17.9566 126.072C18.7756 127.333 18.4349 129.041 17.1879 129.895ZM16.9877 126.746C16.5083 126.008 15.4599 125.814 14.7382 126.327C13.9966 126.809 13.8398 127.785 14.2993 128.492C14.7786 129.23 15.7453 129.433 16.476 129.002C17.2067 128.571 17.4471 127.453 16.9877 126.746Z" fill="#8DB600"/>
<path d="M19.1835 86.9892C19.583 87.604 19.3664 88.4881 18.7283 88.8589C18.0903 89.2297 17.3581 89.0496 16.9586 88.4347C16.5391 87.7891 16.7339 87.0067 17.4029 86.6158C17.99 86.2344 18.804 86.405 19.1835 86.9892ZM18.1329 87.6718C18.0929 87.6103 18.0311 87.6505 18.0202 87.7013C17.9893 87.7214 18.0093 87.7521 17.9784 87.7722C18.0292 87.7828 18.0801 87.7935 18.0801 87.7935C18.1419 87.7534 18.102 87.6919 18.1329 87.6718Z" fill="#8DB600"/>
<path d="M43.9875 116.911C44.6365 116.489 45.3797 116.619 45.8191 117.295C46.1986 117.879 46.0238 118.692 45.4366 119.074C44.8495 119.455 44.0554 119.315 43.6559 118.7C43.2056 118.075 43.3386 117.333 43.9875 116.911ZM44.8193 117.988C44.7993 117.958 44.7285 117.916 44.7085 117.885C44.6976 117.936 44.6358 117.976 44.6248 118.027C44.583 118.098 44.6539 118.139 44.7157 118.099C44.7775 118.059 44.7884 118.008 44.8193 117.988Z" fill="#8DB600"/>
<defs>
<clipPath id="clip0_96_130">
<rect width="120" height="120" fill="white" transform="translate(43 19.9866)"/>
</clipPath>
<clipPath id="clip1_96_130">
<rect width="10" height="10" fill="white" transform="translate(67 68.9866)"/>
</clipPath>
<clipPath id="clip2_96_130">
<rect width="11" height="10" fill="white" transform="translate(79 68.9866)"/>
</clipPath>
<clipPath id="clip3_96_130">
<rect width="10" height="10" fill="white" transform="translate(92 68.9866)"/>
</clipPath>
<clipPath id="clip4_96_130">
<rect width="10" height="10" fill="white" transform="translate(104 68.9866)"/>
</clipPath>
<clipPath id="clip5_96_130">
<rect width="11" height="10" fill="white" transform="translate(116 68.9866)"/>
</clipPath>
<clipPath id="clip6_96_130">
<rect width="10" height="10" fill="white" transform="translate(129 68.9866)"/>
</clipPath>
</defs>
</svg>
