<svg width="30" height="30" viewBox="0 0 30 30" fill="none" xmlns="http://www.w3.org/2000/svg">
<g clip-path="url(#clip0_104_1513)">
<path d="M6.97266 28.8281C3.73658 28.8281 1.11328 26.2048 1.11328 22.9688V7.03125C1.11328 3.79518 3.73658 1.17188 6.97266 1.17188C6.97266 1.17188 7.25068 2.17107 7.24934 2.18203C5.70316 3.23578 4.6875 5.01334 4.6875 7.02879V22.9712C4.6875 24.9094 5.62699 26.6275 7.07408 27.6935C7.0701 28.0714 6.97266 28.8281 6.97266 28.8281ZM23.2487 26.0319C22.2289 25.0121 21.5712 23.6907 21.2886 22.2766L20.4113 17.4973C20.3009 17.4697 16.7578 16.7578 16.7578 16.7578L17.4214 20.078C17.7041 21.4921 18.3991 22.7909 19.4188 23.8106L23.5267 27.9185L24.3237 27.1069L23.2487 26.0319Z" fill="#5FCFFF" fill-opacity="0.5"/>
<path d="M24.2578 15.3516C23.6106 15.3516 23.0859 14.8269 23.0859 14.1797V7.03125C23.0859 4.44656 20.9831 2.34375 18.3984 2.34375H12.8906C12.2434 2.34375 11.7188 1.8191 11.7188 1.17188C11.7188 0.524648 12.2434 0 12.8906 0H18.3984C22.2755 0 25.4297 3.15422 25.4297 7.03125V14.1797C25.4297 14.8269 24.905 15.3516 24.2578 15.3516ZM18.9844 28.8281C18.9844 28.1809 18.4597 27.6562 17.8125 27.6562H12.8906C12.2434 27.6562 11.7188 28.1809 11.7188 28.8281C11.7188 29.4754 12.2434 30 12.8906 30H17.8125C18.4597 30 18.9844 29.4754 18.9844 28.8281ZM9.375 28.8281V1.17188C9.375 0.524648 8.85035 0 8.20312 0H7.03125C3.15422 0 0 3.15422 0 7.03125V22.9688C0 26.8458 3.15422 30 7.03125 30H8.20312C8.85035 30 9.375 29.4754 9.375 28.8281ZM7.03125 27.6562C4.44656 27.6562 2.34375 25.5534 2.34375 22.9688V7.03125C2.34375 4.44656 4.44656 2.34375 7.03125 2.34375V27.6562Z" fill="#5FCFFF"/>
<path d="M25.7227 30C24.5801 30 23.506 29.555 22.6981 28.7471L18.5902 24.6392C17.4029 23.4519 16.6014 21.9541 16.2723 20.3076L15.6087 16.9875C15.5319 16.6033 15.6522 16.2062 15.9292 15.9291C16.2062 15.6521 16.6034 15.5317 16.9875 15.6086L20.3077 16.2722C21.9541 16.6013 23.452 17.4028 24.6393 18.5901L28.7472 22.698C29.5551 23.506 30 24.5801 30 25.7226C30 26.8651 29.5551 27.9392 28.7472 28.7471C27.9393 29.555 26.8652 30 25.7227 30ZM18.2514 18.2514L18.5706 19.8483C18.8087 21.0394 19.3885 22.1229 20.2474 22.9819L24.3554 27.0898C24.7206 27.4551 25.2062 27.6562 25.7227 27.6562C26.2391 27.6562 26.7247 27.4551 27.0899 27.0899C27.4551 26.7247 27.6563 26.2391 27.6563 25.7226C27.6563 25.2062 27.4551 24.7206 27.0899 24.3554L22.9819 20.2475C22.123 19.3885 21.0394 18.8086 19.8483 18.5706L18.2514 18.2514Z" fill="#5FCFFF"/>
<path d="M19.5703 9.08203H12.8906C12.2434 9.08203 11.7188 8.55738 11.7188 7.91016C11.7188 7.26293 12.2434 6.73828 12.8906 6.73828H19.5703C20.2175 6.73828 20.7422 7.26293 20.7422 7.91016C20.7422 8.55738 20.2175 9.08203 19.5703 9.08203ZM20.7422 12.0117C20.7422 11.3645 20.2175 10.8398 19.5703 10.8398H12.8906C12.2434 10.8398 11.7188 11.3645 11.7188 12.0117C11.7188 12.6589 12.2434 13.1836 12.8906 13.1836H19.5703C20.2175 13.1836 20.7422 12.6589 20.7422 12.0117Z" fill="#F9648B"/>
</g>
<defs>
<clipPath id="clip0_104_1513">
<rect width="30" height="30" fill="white"/>
</clipPath>
</defs>
</svg>
