<svg width="180" height="171" viewBox="0 0 180 171" fill="none" xmlns="http://www.w3.org/2000/svg">
<path d="M78.7788 30.9184C67.9048 32.0106 62.9772 38.7696 59.5809 45.8011C50.1306 65.3815 42.1017 64.6104 27.8803 75.7053C11.0224 88.9639 18.8606 104.447 30.99 111.609C36.0517 114.551 41.5429 117.306 43.7004 123.154C45.3778 127.666 44.2048 133.711 44.3095 138.535C44.7536 156.256 62.0923 169.152 85.8448 154.224C99.9244 145.342 103.511 134.395 108.941 119.496C114.283 105.438 123.975 97.487 136.081 89.3071C165.049 69.6466 163.213 26.0699 104.176 38.6656C94.868 40.5632 87.5696 30.0477 78.7788 30.9184Z" fill="#B8E1F2"/>
<path d="M115.193 33.2902C115.193 33.2902 112.546 33.996 111.428 35.6428C110.311 37.2897 111.311 40.5835 111.311 40.5835C111.311 40.5835 108.605 44.289 108.076 46.6417C107.605 48.9943 109.664 55.0525 109.664 59.9931C109.664 64.9338 106.488 71.8742 106.488 71.8742C102.606 90.7545 85.6666 96.2833 85.6666 96.2833L84.7843 97.1655C83.3139 98.5771 81.1377 99.0477 79.2555 98.2831C79.1967 98.2831 79.1967 98.2831 79.1967 98.2831C78.3733 99.6947 76.4911 100.518 76.4911 100.518C75.1972 104.4 68.3744 113.281 68.3744 113.281C68.3744 113.281 67.7862 115.752 66.9039 119.163C65.3747 125.339 63.1396 134.75 62.4338 138.867C61.3163 145.278 59.0225 153.806 59.0225 153.806V151.748L57.6108 153.806C55.3758 144.16 65.0218 108.047 65.0218 108.047C64.7277 106.694 64.6689 105.106 64.7277 103.518C64.9042 100.342 65.61 97.4008 65.61 97.4008C65.1982 97.7537 64.6101 98.2831 63.8455 98.9301C60.7281 101.753 55.317 106.635 55.317 106.635C55.9051 103.812 60.8458 96.7538 60.8458 96.7538L52.082 103.635C52.9643 100.4 57.4932 96.3421 57.4932 96.3421C60.1988 87.696 73.0209 72.2859 73.0209 72.2859C76.4911 63.6398 85.843 57.8757 85.843 57.8757C89.3721 56.2877 90.0191 52.2293 90.3131 48.1709C90.372 47.171 90.4308 46.1123 90.5484 45.1712C90.7249 43.0538 91.313 40.7011 92.4894 38.5249C93.9598 35.7017 96.3713 33.1725 99.8415 31.8786C106.017 29.5259 113.075 32.6432 113.075 32.6432L115.193 33.2902Z" fill="#5FCFFF"/>
<path opacity="0.7" d="M106.488 71.8154C103.841 84.5787 95.1948 91.2839 89.9013 94.2247C87.3721 95.6364 85.6076 96.2245 85.6076 96.2245L85.3723 96.401L84.6665 97.048C84.0784 97.6361 83.4314 98.0479 82.6667 98.2831L81.9609 97.989C80.5493 98.2831 78.4319 97.4009 78.4319 97.4009C77.6085 98.8125 75.7263 99.6359 75.7263 99.6359C75.7263 99.6359 76.1969 99.8124 77.0203 100.048C76.6674 100.283 76.3733 100.401 76.3733 100.401C75.0793 104.282 68.2566 113.164 68.2566 113.164C68.2566 113.164 67.6684 115.634 66.7861 119.046C66.8449 118.516 68.6095 107.106 68.6095 99.4595C68.6095 99.4595 71.3739 102.047 71.021 104.929L75.844 98.1655C75.844 98.1655 77.7849 97.2244 78.9613 94.9894C78.9613 94.9894 80.4317 97.048 82.255 96.8127C82.902 96.6951 83.4902 96.3422 83.9607 95.9304C84.2548 95.6952 84.4901 95.4011 84.6665 95.1658C85.0194 94.6953 85.1959 94.2836 85.1959 94.2836C85.1959 94.2836 85.49 94.1659 86.0193 93.8718C86.137 93.813 86.2546 93.7542 86.3722 93.6366C90.4306 91.578 102.547 83.9906 106.488 71.8154Z" fill="#5FCFFF"/>
<path opacity="0.7" d="M101.371 68.1099C98.9004 76.5208 87.9016 87.7548 80.0201 90.6957C73.0797 93.2836 68.6096 97.8714 64.6689 103.459C64.8453 100.283 65.5511 97.342 65.5511 97.342C65.1394 97.6949 64.5512 98.2243 63.7866 98.8713C64.4924 96.7538 65.1394 95.0481 65.1394 95.0481C65.1394 95.0481 99.7239 75.0503 97.3124 57.2288C97.3712 57.2288 103.841 59.6991 101.371 68.1099Z" fill="#5FCFFF"/>
<path opacity="0.7" d="M104.606 58.6404C103.841 54.9349 99.8419 54.2879 95.1365 52.9351C93.0191 52.2881 91.0781 50.3472 90.4312 48.1709C90.49 47.171 90.5488 46.1123 90.6664 45.1712C90.8429 43.0538 91.431 40.7011 92.6074 38.5249C96.4893 37.6427 102.371 48.7003 103.841 50.9353C105.841 53.6997 104.606 58.6404 104.606 58.6404Z" fill="#5FCFFF"/>
<path d="M100.43 64.7572C99.1946 76.0501 79.8437 86.4607 74.9031 89.6957C69.9625 92.9306 65.6688 97.3419 65.6688 97.3419C63.5514 99.1652 55.4346 106.576 55.4346 106.576C56.0228 103.753 60.9635 96.6949 60.9635 96.6949L52.1997 103.576C53.082 100.342 57.6109 96.2832 57.6109 96.2832C60.3165 87.6371 73.1386 72.227 73.1386 72.227C76.6088 63.5809 85.9607 57.8168 85.9607 57.8168C86.5489 57.5815 87.0194 57.2286 87.49 56.8757C87.49 56.8757 93.5481 55.1112 97.3712 57.2286C99.0769 58.1697 100.312 59.8166 100.489 62.7574C100.489 63.3456 100.489 64.0514 100.43 64.7572Z" fill="#202A43"/>
<path d="M115.193 33.2902C115.193 33.2902 112.547 33.996 111.429 35.6428C110.311 37.2897 111.311 40.5835 111.311 40.5835C111.311 40.5835 108.606 44.289 108.076 46.6417C107.606 48.9943 109.665 55.0525 109.665 59.9931C109.665 62.8752 108.606 66.3454 107.724 68.8157C108.959 62.3458 105.606 54.4055 105.606 54.4055C105.488 55.3466 104.959 56.2288 104.959 56.2288C104.018 52.6998 98.7833 52.0528 94.5485 49.2884C90.3725 46.524 91.9606 40.0541 92.0194 39.8777C93.431 36.5251 95.9601 33.4078 99.9597 31.8786C106.135 29.5259 113.194 32.6432 113.194 32.6432L115.193 33.2902Z" fill="#202A43"/>
<path d="M106.664 37.8779C107.841 37.8779 108.782 36.9368 108.782 35.7605C108.782 34.5841 107.841 33.6431 106.664 33.6431C105.488 33.6431 104.547 34.5841 104.547 35.7605C104.606 36.9368 105.547 37.8779 106.664 37.8779Z" fill="#8C81A6"/>
<path d="M106.664 37.4073C107.574 37.4073 108.311 36.67 108.311 35.7604C108.311 34.8509 107.574 34.1135 106.664 34.1135C105.755 34.1135 105.018 34.8509 105.018 35.7604C105.018 36.67 105.755 37.4073 106.664 37.4073Z" fill="white"/>
<path d="M105.783 35.7604C105.783 36.2897 106.194 36.7014 106.724 36.7014C107.253 36.7014 107.665 36.2897 107.665 35.7604C107.665 35.231 107.253 34.8193 106.724 34.8193C106.194 34.8193 105.783 35.231 105.783 35.7604Z" fill="#202A43"/>
<path d="M105.371 35.7604C105.371 35.9368 105.606 36.0545 105.959 36.0545C106.312 36.0545 106.547 35.9368 106.547 35.7604C106.547 35.5839 106.312 35.4663 105.959 35.4663C105.606 35.4663 105.371 35.6428 105.371 35.7604Z" fill="#3F526E"/>
<path d="M69.1388 107.929C68.433 112.458 68.2566 113.458 68.1978 113.634C68.1978 113.693 68.1978 113.693 68.1978 113.693C67.4332 116.752 63.3748 132.985 62.3749 138.808C61.2574 145.219 58.9635 153.748 58.9635 153.748V151.689L57.5519 153.748C55.3168 144.16 64.8452 108.458 64.9628 107.988C64.9628 107.988 64.9628 106.282 66.5509 104.929C68.139 103.518 68.6683 99.577 68.6683 99.577C68.6683 99.577 70.0211 102.694 69.1388 107.929Z" fill="#202A43"/>
<path d="M115.193 33.2901C115.193 33.2901 121.78 32.5843 126.015 34.8194C126.015 34.8194 116.428 37.1133 111.311 40.5835C111.311 40.5835 110.429 38.172 111.193 36.1134C111.899 34.2312 115.193 33.2901 115.193 33.2901Z" fill="#8C81A6"/>
<path d="M125.957 34.8194C125.957 34.8194 116.369 37.1133 111.252 40.5835C111.252 40.5835 111.017 39.9953 110.899 39.1131C111.076 38.9955 118.84 33.996 125.957 34.8194Z" fill="#665E8D"/>
<path opacity="0.5" d="M99.7243 33.1725C99.7243 33.1725 92.9604 35.8193 93.2544 43.1126C93.2544 43.1126 94.6661 38.3485 97.1364 37.0545C97.1364 37.0545 96.4894 37.0545 95.7248 37.4074C95.7248 37.4074 96.9599 34.8782 99.7243 33.1725Z" fill="#665E8D"/>
<path d="M100.489 62.7576C98.0772 68.0511 91.4309 69.051 91.1956 69.1098C93.019 67.4041 93.3131 65.8749 93.3719 65.3455C93.3719 65.2279 93.3719 65.1691 93.3719 65.1691C93.3131 65.2279 90.9016 67.1689 87.0784 69.6392C83.1965 72.1095 79.0205 70.8155 79.0205 70.8155C83.4906 70.345 90.6075 63.581 92.6073 61.346C94.9011 58.8756 97.3126 57.2288 97.3126 57.2288C99.0771 58.1698 100.371 59.8167 100.489 62.7576Z" fill="#47B1DF"/>
<path d="M91.1953 69.1098C93.0186 67.4041 93.3127 65.8749 93.3715 65.3455V65.1691C93.4304 65.0514 94.3714 62.934 94.3126 61.3459C94.3714 61.3459 96.0183 67.11 91.1953 69.1098Z" fill="#5FCFFF"/>
<path d="M80.9036 78.9323C79.7861 79.8734 77.4922 81.8143 74.5514 84.167C70.493 87.4608 63.2585 94.8129 63.082 95.0482C63.1997 94.8717 65.023 91.5191 66.964 88.8135C68.9637 86.0491 70.9047 81.4026 70.9047 81.4026C69.7284 82.4025 67.4345 86.0491 67.4345 86.0491C68.2579 82.2849 73.8456 77.1089 73.8456 77.1089C74.3161 76.6384 75.6101 76.2855 76.3159 77.1089C76.6688 77.5207 77.0805 77.5207 77.4334 77.403C77.7863 77.2854 78.0804 77.3442 78.3745 77.4619C78.4921 77.5207 78.6686 77.6383 78.7274 77.7559C78.845 77.8736 78.9627 78.05 79.0215 78.2265C79.2567 78.6382 80.0214 78.6382 80.6683 78.5206C80.9624 78.5206 81.0801 78.7558 80.9036 78.9323Z" fill="#47B1DF"/>
<path d="M80.9036 78.9323C79.7861 79.8734 77.4922 81.8143 74.5514 84.167C70.493 87.4608 63.2585 94.8129 63.082 95.0482C66.0229 90.8721 77.0217 80.1086 77.1981 79.9322C77.0805 79.991 73.7279 82.226 74.4925 80.8732C75.0807 79.8733 77.257 78.2853 78.3745 77.4619C78.4921 77.5207 78.6686 77.6383 78.7274 77.7559C78.845 77.8736 78.9627 78.05 79.0215 78.2265C79.2567 78.6382 80.0214 78.6382 80.6683 78.5206C80.9624 78.5206 81.0801 78.7558 80.9036 78.9323Z" fill="#5FCFFF"/>
<path d="M143.719 104.106C143.896 104.988 143.896 105.87 143.719 106.812C143.602 107.459 143.308 108.106 142.955 108.811C142.955 108.811 117.546 107.635 111.664 108.694C105.782 109.752 99.3124 110.635 93.6071 111.046C87.9018 111.458 75.7855 112.576 72.1977 113.752C68.6098 114.869 57.9639 118.987 53.1998 121.339C48.4356 123.692 40.4364 126.927 40.4364 126.927C40.4364 126.927 39.7895 126.751 39.1425 126.045C38.7307 125.574 38.319 124.81 38.1426 123.692C38.1426 123.692 52.9057 117.105 56.4935 115.105C60.0814 113.105 69.0804 110.87 69.7862 110.752C70.492 110.635 86.5491 107.164 90.6663 106.635C94.7834 106.047 104.547 105.576 109.605 104.047C114.664 102.518 138.014 105.223 143.719 104.106Z" fill="#6B3910"/>
<path d="M143.719 106.812C143.601 107.459 143.307 108.106 142.954 108.811C142.954 108.811 117.545 107.635 111.664 108.694C105.782 109.752 99.312 110.635 93.6067 111.046C87.9015 111.458 75.7851 112.576 72.1973 113.752C68.6095 114.869 57.9636 118.987 53.1994 121.339C48.4352 123.692 40.4361 126.927 40.4361 126.927C40.4361 126.927 39.7891 126.751 39.1421 126.045C43.9651 123.751 55.9638 118.046 60.728 115.987C66.7273 113.399 69.08 112.987 76.9615 111.105C84.843 109.223 90.4894 109.282 97.7827 108.694C105.135 108.047 111.075 106.753 114.487 106.223C117.486 105.694 137.661 106.517 143.719 106.812Z" fill="#3D1809"/>
<path d="M47.0248 120.457L36.4966 111.223L38.1435 110.105L50.3186 118.81C50.3186 118.81 50.6127 121.163 47.0248 120.457Z" fill="#6B3910"/>
<path d="M46.7308 109.164C46.7308 109.164 47.0249 109.105 47.613 108.576C47.613 108.576 47.6718 114.752 42.9665 114.811C42.9665 114.811 41.4372 110.576 42.9077 107.811L43.3782 108.576C43.3782 108.576 43.3782 105.694 46.7308 103.459C46.672 103.459 47.7895 107.694 46.7308 109.164Z" fill="#00865B"/>
<path opacity="0.5" d="M46.7301 109.164C46.7301 109.164 47.0242 109.105 47.6124 108.576C47.6124 108.576 47.6712 114.752 42.9658 114.811L46.6713 103.459C46.6713 103.459 47.7888 107.694 46.7301 109.164Z" fill="#00865B"/>
<path d="M123.428 105.517L133.839 96.1068L132.192 95.048L120.134 103.929C120.134 103.871 119.899 106.223 123.428 105.517Z" fill="#6B3910"/>
<path d="M123.546 94.1657C123.546 94.1657 123.252 94.1069 122.664 93.5776C122.664 93.5776 122.664 99.7533 127.369 99.6945C127.369 99.6945 128.839 95.4597 127.369 92.6953L126.898 93.4599C126.898 93.4599 126.898 90.5779 123.487 88.3428C123.546 88.4605 122.487 92.7541 123.546 94.1657Z" fill="#00865B"/>
<path opacity="0.5" d="M123.545 94.1665C123.545 94.1665 123.251 94.1077 122.663 93.5783C122.663 93.5783 122.663 99.7541 127.368 99.6953L123.487 88.4024C123.545 88.4612 122.487 92.7549 123.545 94.1665Z" fill="#00865B"/>
<path d="M76.7861 113.281L86.1969 120.045L86.7262 118.634L78.7859 112.046C78.7271 112.046 77.0214 111.752 76.7861 113.281Z" fill="#3D1809"/>
<path d="M80.1386 121.28C80.1386 121.28 80.2563 121.516 80.2563 122.045C80.2563 122.045 83.7265 118.869 81.2562 116.222C81.2562 116.222 78.08 117.575 77.3154 119.81L78.0212 119.692C78.0212 119.692 76.3743 121.222 76.9037 124.221C76.9037 124.221 79.8446 122.574 80.1386 121.28Z" fill="#00865B"/>
<path opacity="0.5" d="M80.1387 121.28C80.1387 121.28 80.2564 121.516 80.2564 122.045C80.2564 122.045 83.7266 118.869 81.2563 116.222L76.9038 124.221C76.9038 124.221 79.8447 122.574 80.1387 121.28Z" fill="#00865B"/>
<path d="M104.017 112.399C104.017 112.399 103.606 110.693 102.723 110.047C101.547 109.105 96.5476 107.4 96.4887 107.4C96.5476 107.459 98.0768 110.223 98.3121 111.752C98.5473 113.223 97.2534 114.987 97.1945 115.105C97.1945 114.987 97.6651 113.517 97.1945 112.399C96.724 111.282 94.4301 108.341 94.4301 108.341C92.4304 108.458 89.2542 112.282 89.1366 112.399C89.7836 110.988 92.3127 107.106 92.3127 107.106C92.3127 107.106 92.4892 105.518 89.1366 104.224C87.1956 103.459 83.0784 102.047 79.9023 100.989C78.7848 100.636 77.8437 100.283 77.0791 100.048C77.6673 99.6947 78.6083 99.0477 79.1377 98.1655C79.1377 98.1655 79.1377 98.1655 79.1965 98.1655C80.3729 98.636 81.608 98.636 82.7255 98.2831L84.4312 99.0477L93.1362 102.93C96.8417 103.4 97.9004 105.224 97.9004 105.224C97.9004 105.224 98.0768 105.341 98.4297 105.518C98.665 105.635 99.0179 105.871 99.4296 106.106C100.371 106.694 101.547 107.459 102.606 108.458C104.723 110.399 104.017 112.399 104.017 112.399Z" fill="#8C81A6"/>
<path d="M84.431 99.1064C83.7252 99.577 82.6077 99.9887 81.1373 99.7534C81.1373 99.7534 80.8432 100.459 79.9609 101.047C78.8434 100.695 77.9023 100.342 77.1377 100.106C77.7259 99.7534 78.6669 99.1064 79.1963 98.2242C79.1963 98.2242 79.1963 98.2242 79.2551 98.2242C80.4315 98.6947 81.6666 98.6947 82.7841 98.3418L84.431 99.1064Z" fill="#665E8D"/>
<path d="M111.84 108.636C111.84 108.636 111.428 106.93 110.546 106.283C109.369 105.342 106.135 104.93 106.076 104.872C106.135 104.93 106.429 106.165 106.723 107.695C106.958 109.224 106.782 110.459 106.782 110.459C106.782 110.459 105.899 108.871 105.429 107.812C104.958 106.695 101.959 105.519 101.959 105.519C101.135 105.577 100.253 105.871 99.4882 106.165C98.3707 106.636 97.4884 107.224 97.4296 107.342C97.6649 106.871 98.0766 106.224 98.4883 105.577C99.3118 104.46 100.194 103.401 100.194 103.401C100.194 103.401 100.37 101.813 97.0179 100.519C95.0769 99.7544 90.9597 98.3428 87.7836 97.2841C86.9014 96.99 86.1367 96.6959 85.4897 96.5195L85.725 96.343C85.725 96.343 87.4895 95.7549 90.0187 94.3433L92.3713 95.402L101.488 100.049C105.017 101.107 105.958 102.519 105.958 102.519C105.958 102.519 108.428 102.872 110.546 104.813C112.546 106.577 111.84 108.636 111.84 108.636Z" fill="#8C81A6"/>
<path d="M92.2547 95.2834C91.5489 95.7539 90.4314 96.1656 88.9609 95.9304C88.9609 95.9304 88.6668 96.6362 87.7846 97.2244C86.9023 96.9303 86.1377 96.6362 85.4907 96.4597L85.726 96.2833C85.726 96.2833 87.4905 95.6951 90.0196 94.2835L92.2547 95.2834Z" fill="#665E8D"/>
</svg>
