<svg width="34" height="34" viewBox="0 0 34 34" fill="none" xmlns="http://www.w3.org/2000/svg">
<path d="M31.1221 14.122H9.8264L13.336 10.6123C14.458 9.49026 14.4581 7.66435 13.336 6.54209C12.7924 5.99849 12.0697 5.69913 11.3009 5.69913C10.5322 5.69913 9.8094 5.99849 9.2658 6.54209L0.84316 14.9647C0.299426 15.5083 0 16.231 0 17C0 17.769 0.299426 18.4918 0.843027 19.0352L9.2658 27.4581C9.8094 28.0016 10.5321 28.301 11.3009 28.301C12.0697 28.301 12.7925 28.0016 13.336 27.458C13.8791 26.915 14.1782 26.1923 14.1782 25.4228C14.1782 24.6534 13.8791 23.9307 13.336 23.3877L9.8264 19.8781H31.122C32.7089 19.8781 34 18.587 34 17C34 15.413 32.7089 14.1219 31.1221 14.122ZM31.1219 18.5235H8.19114C7.91715 18.5235 7.67025 18.6886 7.56546 18.9416C7.46061 19.1947 7.51858 19.486 7.71222 19.6797L12.3782 24.3456C12.6653 24.6327 12.8235 25.0154 12.8235 25.4228C12.8235 25.8303 12.6653 26.2129 12.3782 26.5001H12.3781C12.0904 26.7878 11.7079 26.9463 11.3009 26.9463C10.8939 26.9463 10.5114 26.7878 10.2236 26.5001L1.8008 18.0772C1.51307 17.7895 1.35462 17.407 1.35462 17C1.35462 16.593 1.51313 16.2105 1.80094 15.9228L10.2237 7.49993C10.5115 7.21213 10.8939 7.05368 11.3009 7.05368C11.7078 7.05368 12.0905 7.21219 12.3782 7.4998C12.9722 8.09394 12.9722 9.06041 12.3782 9.65442L7.71229 14.3203C7.51865 14.514 7.46068 14.8053 7.56553 15.0584C7.67032 15.3114 7.91722 15.4765 8.19121 15.4765H31.122C31.962 15.4765 32.6454 16.1599 32.6454 17C32.6454 17.8401 31.962 18.5236 31.1219 18.5235Z" fill="white"/>
<path d="M8.26614 21.7039L8.13187 21.5695C7.86724 21.3051 7.43852 21.3051 7.17396 21.5695C6.90946 21.8341 6.90946 22.2629 7.17396 22.5274L7.3083 22.6618C7.44058 22.794 7.61383 22.8601 7.78722 22.8601C7.96054 22.8601 8.13386 22.794 8.26621 22.6618C8.53064 22.3972 8.53064 21.9683 8.26614 21.7039Z" fill="white"/>
<path d="M6.82061 20.2582L3.28275 16.7204C3.01812 16.456 2.5894 16.456 2.32484 16.7204C2.06034 16.985 2.06034 17.4139 2.32484 17.6784L5.8627 21.2162C5.99498 21.3484 6.16823 21.4145 6.34162 21.4145C6.51494 21.4145 6.68826 21.3484 6.82061 21.2162C7.0851 20.9515 7.0851 20.5227 6.82061 20.2582Z" fill="white"/>
</svg>
