<svg width="237" height="226" viewBox="0 0 237 226" fill="none" xmlns="http://www.w3.org/2000/svg">
<path d="M103.669 41.4391C89.3591 42.8764 82.8746 51.7708 78.4053 61.024C65.9692 86.7908 55.4036 85.776 36.689 100.376C14.5049 117.824 24.8195 138.199 40.7812 147.624C47.4421 151.495 54.6683 155.121 57.5074 162.816C59.7148 168.753 58.1711 176.708 58.309 183.057C58.8933 206.377 81.7102 223.347 112.967 203.703C131.495 192.014 136.215 177.608 143.36 158.003C150.39 139.503 163.145 129.04 179.076 118.275C217.196 92.4033 214.78 35.0587 137.091 51.634C124.841 54.1311 115.237 40.2934 103.669 41.4391Z" fill="#B8E1F2"/>
</svg>
