<svg width="375" height="395" viewBox="0 0 375 395" fill="none" xmlns="http://www.w3.org/2000/svg">
<path opacity="0.1" d="M403.567 251.463C370.447 235.513 330.926 248.799 315.379 281.082C313.945 284.059 312.742 287.033 311.863 290.048C310.044 288.828 308.087 287.656 306.04 286.67C285.014 276.545 260.142 284.165 249.024 303.681C242.547 293.57 233.137 285.027 221.415 279.382C194.714 266.523 163.908 272.66 144.802 292.341C142.807 288.63 139.62 285.491 135.434 283.474C125.851 278.86 114.676 282.073 109.214 290.56C104.912 271.411 92.0501 254.329 72.6991 245.01C39.5793 229.06 0.0578554 242.347 -15.4892 274.629C-19.9765 283.471 -22.2586 294.635 -23.1969 306.103C-25.7048 336.298 -23.1969 402 -23.1969 402L305.374 525.084L377.554 375.207L419.446 288.221L426.39 273.801C430.109 266.079 403.567 251.463 403.567 251.463Z" fill="white"/>
<path opacity="0.1" d="M429.967 192.122C392.402 174.806 348.231 190.43 331.328 227.1C329.792 230.434 328.536 233.799 327.525 237.276C325.48 235.939 323.278 234.727 320.92 233.64C297.096 222.659 269.262 231.714 257.104 253.813C249.576 242.555 238.86 233.08 225.606 226.971C195.359 213.029 160.864 220.493 139.746 242.996C137.411 238.864 133.733 235.295 129.017 233.122C118.203 228.137 105.586 231.983 99.5625 241.628C94.3556 220.201 79.4887 201.124 57.6165 191.042C20.0515 173.727 -24.1193 189.35 -41.0222 226.02C-45.951 236.072 -48.2773 248.604 -49.1088 261.53C-51.3932 295.573 -73.1627 432.064 -73.1627 432.064L324.66 501.642L402.991 331.705L448.453 233.077L455.986 216.734C460.196 208.027 429.967 192.122 429.967 192.122Z" fill="white"/>
<path opacity="0.1" d="M393.862 280.68C370.765 274.518 347.124 287.764 341.101 310.342C340.547 312.418 340.189 314.454 339.918 316.513C338.58 315.97 337.242 315.428 335.858 315.059C321.152 311.136 306.237 319.111 301.461 332.848C296.034 327.138 289.022 322.858 280.89 320.689C262.291 315.728 243.299 323.356 233.488 338.252C231.74 336.118 229.313 334.451 226.458 333.69C219.797 331.913 212.945 335.367 210.505 341.388C205.367 329.732 195.091 320.319 181.596 316.719C158.499 310.558 134.858 323.803 128.835 346.381C127.087 352.587 126.971 359.969 127.68 367.385C129.76 387.029 137.96 407.007 137.96 407.007L364.434 467.42L392.286 363.007L408.486 302.279L411.163 292.244C412.616 286.794 393.862 280.68 393.862 280.68Z" fill="white"/>
<path opacity="0.1" d="M389.912 327.9C374.946 323.907 359.674 332.528 355.797 347.061C355.451 348.359 355.191 349.68 355.018 351.023C354.199 350.62 353.248 350.366 352.382 350.135C342.867 347.597 333.166 352.7 330.137 361.621C326.677 357.919 322.139 355.133 316.775 353.702C304.751 350.494 292.489 355.471 286.127 365.078C285.02 363.671 283.452 362.604 281.548 362.096C277.223 360.942 272.823 363.197 271.219 367.124C267.95 359.581 261.248 353.438 252.511 351.107C237.546 347.115 222.273 355.736 218.397 370.269C217.226 374.312 217.15 379.11 217.64 383.874C218.983 396.556 224.316 409.562 224.316 409.562L370.772 448.629L388.817 380.981L399.294 341.707L401.024 335.219C402.034 331.782 389.912 327.9 389.912 327.9Z" fill="white"/>
</svg>
