<svg width="24" height="24" viewBox="0 0 24 24" fill="none" xmlns="http://www.w3.org/2000/svg">
<path d="M16.4531 0.411865V4.68747H20.7287L16.4531 0.411865Z" fill="white"/>
<path d="M13.4473 9H10.5527C10.0049 9.95639 9.07973 10.6087 8.01562 10.8095V14.1843C8.01562 16.7275 9.60802 18.9367 12 19.7465C14.392 18.9367 15.9844 16.7275 15.9844 14.1843V10.8095C14.9203 10.6087 13.9951 9.95634 13.4473 9ZM14.4859 13.562L11.8343 16.2136C11.697 16.3509 11.517 16.4196 11.3371 16.4196C11.1572 16.4196 10.9772 16.3509 10.84 16.2136L9.51417 14.8878C9.23958 14.6132 9.23958 14.168 9.51417 13.8934C9.78872 13.6188 10.2339 13.6188 10.5085 13.8934L11.3372 14.722L13.4917 12.5676C13.7662 12.293 14.2114 12.293 14.486 12.5676C14.7605 12.8422 14.7605 13.2874 14.4859 13.562Z" fill="white" fill-opacity="0.6"/>
<path d="M15.75 6.09375C15.3617 6.09375 15.0469 5.77894 15.0469 5.39062V0H5.4375C4.01592 0 2.85938 1.15655 2.85938 2.57812V21.4219C2.85938 22.8435 4.01592 24 5.4375 24H18.5625C19.9841 24 21.1406 22.8435 21.1406 21.4219V6.09375H15.75ZM17.3906 14.1842C17.3906 15.7618 16.8929 17.2646 15.9512 18.5303C15.0095 19.7959 13.713 20.7045 12.202 21.1578C12.1361 21.1776 12.0681 21.1875 12 21.1875C11.9319 21.1875 11.8639 21.1776 11.798 21.1578C10.287 20.7045 8.99048 19.7959 8.04881 18.5303C7.10714 17.2646 6.60938 15.7618 6.60938 14.1842V10.1719C6.60938 9.78356 6.92419 9.46875 7.3125 9.46875C8.20102 9.46875 8.99981 8.97506 9.39713 8.18039L9.49608 7.98248C9.61519 7.74422 9.85866 7.59375 10.125 7.59375H13.875C14.1413 7.59375 14.3848 7.74422 14.5039 7.98244L14.6029 8.18039C15.0002 8.97506 15.799 9.46875 16.6875 9.46875C17.0758 9.46875 17.3906 9.78356 17.3906 10.1719V14.1842Z" fill="white"/>
</svg>
