<svg width="22" height="22" viewBox="0 0 22 22" fill="none" xmlns="http://www.w3.org/2000/svg">
<g clip-path="url(#clip0_106_16)">
<path d="M21.7986 10.1683L13.2486 1.61786C12.0085 0.378195 9.99151 0.378195 8.75142 1.61786L0.201418 10.1683C-0.0671393 10.4368 -0.0671393 10.8721 0.201418 11.1407C0.469546 11.4092 0.905253 11.4092 1.17338 11.1407L1.71866 10.5954V19.3353C1.71866 20.427 2.60361 21.3119 3.69524 21.3119H7.13277C7.37009 21.3119 7.56247 21.1195 7.56247 20.8822V14.5228C7.56247 13.3362 8.52437 12.3743 9.71092 12.3743H12.2891C13.4756 12.3743 14.4375 13.3362 14.4375 14.5228V20.8822C14.4375 21.1195 14.6299 21.3119 14.8672 21.3119H18.3048C19.3964 21.3119 20.2813 20.427 20.2813 19.3353V10.5954L20.8266 11.1407C20.9607 11.2747 21.1369 11.3422 21.3126 11.3422C21.4883 11.3422 21.6645 11.2747 21.7986 11.1407C22.0671 10.8721 22.0671 10.4368 21.7986 10.1683Z" fill="white"/>
<path opacity="0.5" d="M8.5 15C8.5 14.4477 8.94772 14 9.5 14H12.5C13.0523 14 13.5 14.4477 13.5 15V21H8.5V15Z" fill="white"/>
</g>
<defs>
<clipPath id="clip0_106_16">
<rect width="22" height="22" fill="white"/>
</clipPath>
</defs>
</svg>
