<svg width="145" height="146" viewBox="0 0 145 146" fill="none" xmlns="http://www.w3.org/2000/svg">
<path d="M12.5488 56.3215C12.9832 56.4904 13.0669 56.8823 13.2202 57.2526C13.947 59.3442 15.0834 61.1565 16.8276 62.5898C17.9036 63.471 19.1239 64.0794 20.4777 64.3803C20.5581 64.3933 20.6385 64.4063 20.7297 64.4539C21.3598 64.6379 21.4783 65.019 21.0289 65.5387C20.5446 66.0692 20.1408 66.6128 19.7933 67.2147C18.5827 69.339 18.2914 71.5952 18.5978 73.9316C18.6873 74.5877 18.8116 75.2329 19.0163 75.8911C19.0378 75.9604 19.0486 75.9951 19.0701 76.0644C19.1754 76.5256 19.0418 76.8331 18.7177 76.8959C18.3238 76.9803 18.144 76.7703 18.0014 76.4347C17.7055 75.7288 17.4685 74.9667 17.103 74.2824C15.6409 71.5456 13.5395 69.5774 10.4538 68.8652C9.70855 68.6791 9.59003 68.298 10.1331 67.7111C12.5676 64.9784 13.029 61.7954 12.3081 58.3721C12.1946 57.7615 11.8614 57.1812 12.0721 56.5078C12.2006 56.4298 12.3747 56.3757 12.5488 56.3215ZM17.255 72.0695C17.2683 71.9894 17.3056 71.8638 17.3081 71.749C17.3904 69.5577 18.0224 67.5375 19.3301 65.725C19.5681 65.3851 19.3965 65.3244 19.1337 65.2162C17.1548 64.5018 15.5101 63.2655 14.2319 61.6113C14.1084 61.4597 14.009 61.2627 13.8025 61.2129C13.7868 61.4077 13.7362 61.6134 13.7204 61.8083C13.5842 63.8264 13.0135 65.6756 11.8585 67.3646C11.4895 67.8973 11.5002 67.9319 12.1062 68.1614C13.9806 68.9083 15.5341 70.097 16.7908 71.6819C16.8687 71.8097 16.9707 71.8919 17.0486 72.0197C17.0942 72.0435 17.1265 72.1474 17.255 72.0695Z" fill="#8DB600"/>
<path d="M119.1 21.0688C119.355 21.1051 119.574 21.2502 119.61 21.5405C119.647 21.7945 119.683 22.0484 119.683 22.3024C119.902 24.7332 121.142 26.4747 123.22 27.6357C123.403 27.7445 123.585 27.8171 123.767 27.9259C124.241 28.2161 124.241 28.6515 123.767 28.9418C123.658 29.0143 123.512 29.0506 123.366 29.1232C121.178 30.2842 119.902 32.0619 119.647 34.529C119.61 34.783 119.61 35.0369 119.574 35.2909C119.537 35.5811 119.355 35.7625 119.027 35.7625C118.735 35.7625 118.553 35.5811 118.48 35.2909C118.443 35.1458 118.443 35.0006 118.443 34.8555C118.297 32.2433 116.985 30.3204 114.687 29.0869C114.541 29.0143 114.359 28.9418 114.213 28.8329C113.849 28.5427 113.849 28.1799 114.213 27.8896C114.323 27.8171 114.468 27.7445 114.614 27.7082C117.021 26.4747 118.297 24.5155 118.443 21.8307C118.553 21.3228 118.735 21.0688 119.1 21.0688ZM115.964 28.3976C116.037 28.4701 116.037 28.5427 116.109 28.579C116.146 28.6152 116.182 28.6515 116.255 28.6878C117.386 29.486 118.297 30.4655 118.917 31.7354C119.027 31.9168 119.136 32.0982 119.319 31.7717C119.938 30.5018 120.85 29.486 122.054 28.6878C122.309 28.5064 122.236 28.3975 122.017 28.2524C120.85 27.4542 119.938 26.4384 119.319 25.1323C119.209 24.8783 119.063 24.9146 118.99 25.1323C118.37 26.4384 117.422 27.4905 116.219 28.2887C116.073 28.2887 116.037 28.3613 115.964 28.3976Z" fill="#8DB600"/>
<path d="M18.7442 96.1269C18.343 96.1989 18.1518 95.9991 17.991 95.6718C17.8176 95.3106 17.6782 94.9366 17.4706 94.588C16.3476 92.7221 14.6754 91.6802 12.5438 91.39C12.416 91.3602 12.2539 91.3431 12.1046 91.3601C11.8274 91.3472 11.6059 91.2748 11.4919 90.9688C11.3906 90.6968 11.4981 90.4632 11.6994 90.2721C12.136 89.8772 12.4663 89.4057 12.7839 88.9003C13.7887 87.2097 14.0175 85.421 13.4704 83.5342C13.3944 83.3302 13.3058 83.0922 13.264 82.8755C13.231 82.578 13.3854 82.3657 13.6715 82.2979C13.9233 82.2428 14.1449 82.3151 14.2892 82.4936C14.3867 82.6509 14.4626 82.8549 14.5386 83.0589C15.6085 85.4092 17.4378 86.6637 19.9529 87.0432C20.1149 87.0603 20.2301 87.0561 20.3921 87.0732C20.9718 87.167 21.1365 87.609 20.772 88.0932C20.6948 88.1994 20.5708 88.2843 20.4594 88.4032C18.7585 90.3143 18.2551 92.515 18.9706 94.9585C19.0466 95.1625 19.1099 95.3325 19.1517 95.5492C19.1847 95.8467 19.0176 96.025 18.7442 96.1269ZM17.4488 92.5443C17.4703 92.4975 17.526 92.4381 17.5007 92.3701C17.6599 90.917 18.1685 89.5661 19.0392 88.3514C19.1936 88.139 19.0063 88.054 18.8316 88.0029C17.4594 87.6622 16.2379 86.9944 15.2137 86.0208C15.0352 85.855 14.92 85.8592 14.9062 86.1354C14.7684 87.5417 14.2813 88.8459 13.4321 90.0139C13.2778 90.2262 13.3284 90.3622 13.5968 90.4559C14.9689 90.7965 16.1905 91.4643 17.2488 92.4252C17.2956 92.4464 17.3551 92.5017 17.4488 92.5443Z" fill="#8DB600"/>
<path d="M20.8492 28.694C19.4265 29.2625 17.8936 28.5946 17.3276 27.1794C16.7616 25.7641 17.4803 24.1414 18.9156 23.6068C20.3167 23.085 21.8965 23.7742 22.4156 25.1682C22.9348 26.5621 22.2376 28.1381 20.8492 28.694ZM21.3347 25.6095C21.0308 24.7935 20.0599 24.3808 19.2524 24.7203C18.4323 25.0257 18.0704 25.9348 18.3616 26.7168C18.6655 27.5328 19.5554 27.9369 20.3541 27.6782C21.1527 27.4194 21.626 26.3914 21.3347 25.6095Z" fill="#8DB600"/>
<path d="M4.49735 80.5717C3.07472 81.1403 1.54178 80.4723 0.975772 79.0571C0.409761 77.6419 1.12847 76.0192 2.56376 75.4846C3.96488 74.9627 5.54465 75.652 6.06383 77.0459C6.583 78.4399 5.88581 80.0159 4.49735 80.5717ZM4.98293 77.4872C4.67902 76.6712 3.70812 76.2586 2.90062 76.598C2.08045 76.9035 1.71859 77.8126 2.00983 78.5945C2.31374 79.4105 3.20362 79.8147 4.00228 79.5559C4.80093 79.2972 5.27417 78.2692 4.98293 77.4872Z" fill="#8DB600"/>
<path d="M137.953 45.1591C137.99 46.6828 136.786 47.8801 135.291 47.9164C133.796 47.9527 132.519 46.7554 132.483 45.2679C132.447 43.7078 133.65 42.4743 135.182 42.438C136.713 42.4743 137.917 43.6353 137.953 45.1591ZM135.254 43.6353C134.379 43.6353 133.613 44.3609 133.613 45.1953C133.613 45.9935 134.379 46.7554 135.182 46.7917C136.057 46.828 136.786 46.0661 136.786 45.1953C136.823 44.3246 136.093 43.6353 135.254 43.6353Z" fill="#8DB600"/>
<path d="M139.339 23.7898C139.339 22.266 140.506 21.0688 142.037 21.0325C143.569 20.9962 144.809 22.266 144.809 23.7898C144.809 25.2773 143.569 26.5109 142.074 26.4746C140.542 26.5109 139.339 25.3136 139.339 23.7898ZM142.074 25.3499C142.949 25.3499 143.678 24.588 143.642 23.7173C143.605 22.8828 142.913 22.1935 142.037 22.1935C141.199 22.1935 140.469 22.8828 140.433 23.7173C140.433 24.588 141.199 25.3862 142.074 25.3499Z" fill="#8DB600"/>
<path d="M135.218 7.68123C135.218 8.40684 134.598 9.02361 133.868 8.98733C133.176 8.95105 132.592 8.37056 132.629 7.68123C132.629 6.9919 133.176 6.4114 133.905 6.37512C134.634 6.37512 135.218 6.95561 135.218 7.68123ZM134.014 7.68123C133.978 7.68123 133.905 7.64494 133.868 7.64494C133.795 7.68123 133.795 7.71751 133.868 7.75379C133.905 7.75379 133.941 7.79007 133.941 7.75379C133.978 7.71751 134.014 7.68123 134.014 7.68123Z" fill="#8DB600"/>
<path d="M15.6751 39.5642C15.9283 40.2442 15.5284 41.0513 14.8323 41.2718C14.1362 41.4924 13.4678 41.1606 13.2145 40.4806C12.9486 39.7666 13.3055 39.053 14.0358 38.8197C14.6851 38.5779 15.4345 38.9182 15.6751 39.5642ZM14.5131 39.997C14.4878 39.929 14.4195 39.9544 14.398 40.0011C14.3638 40.0139 14.3765 40.0479 14.3423 40.0606C14.3891 40.0819 14.436 40.1031 14.436 40.1031C14.5043 40.0777 14.479 40.0097 14.5131 39.997Z" fill="#8DB600"/>
<path d="M33.1795 73.8103C33.8971 73.543 34.587 73.828 34.8656 74.576C35.1062 75.222 34.762 75.9696 34.1127 76.2115C33.4634 76.4533 32.7267 76.147 32.4734 75.467C32.1734 74.7657 32.4618 74.0776 33.1795 73.8103ZM33.7506 75.0301C33.7379 74.9961 33.6784 74.9408 33.6657 74.9068C33.6442 74.9535 33.5759 74.979 33.5544 75.0257C33.4987 75.0851 33.5582 75.1404 33.6265 75.115C33.6949 75.0895 33.7164 75.0428 33.7506 75.0301Z" fill="#8DB600"/>
<path d="M84.1744 76.5578C79.5152 76.2249 75.0006 74.4976 70.9501 71.3944C70.7658 71.2563 70.5213 71.0509 70.337 70.9127C69.9119 70.5056 69.5926 70.4871 69.304 71.0443C68.517 72.4654 67.73 73.8864 66.9429 75.3074C66.5905 75.8609 66.5685 76.2422 67.1852 76.6604C68.1705 77.3549 68.818 78.3487 69.2027 79.4549C70.025 81.8615 69.1227 84.1686 66.7572 85.1796C65.8372 85.5728 65.7513 85.9504 65.8916 86.8511C66.2264 89.931 64.2529 91.9211 61.1832 91.8076C60.4806 91.767 59.7104 91.7863 59.09 91.4316C58.3419 91.0696 58.0042 91.3689 57.6481 91.986C55.5006 95.8788 53.3568 99.7082 51.1454 103.597C44.8564 114.839 38.5674 126.08 32.3385 137.388C31.8363 138.316 31.2358 138.727 30.2028 138.859C26.5817 139.415 23.0246 139.974 19.4675 140.534C18.0439 140.771 17.9837 140.703 17.4183 139.396C15.9448 136.059 14.5388 132.662 13.0689 129.261C12.7297 128.477 12.6423 127.77 13.1372 126.97C13.9169 125.676 14.6364 124.315 15.4198 122.957C15.9183 122.094 16.245 121.985 17.1811 122.422C17.9292 122.784 18.6774 123.146 19.3543 123.631C19.971 124.049 20.3653 123.881 20.6575 123.26C20.7999 123.013 20.946 122.703 21.0885 122.456C21.3733 121.962 21.3278 121.641 20.7676 121.353C20.0232 120.928 19.2111 120.562 18.4703 120.073C17.6055 119.513 17.4961 119.188 17.9307 118.32C18.579 117.083 19.2236 115.908 19.9321 114.738C20.4306 113.874 20.7573 113.765 21.6897 114.266C22.4379 114.628 23.1185 115.049 23.8629 115.475C24.4231 115.762 24.8027 115.848 25.0986 115.164C25.1023 115.1 25.1661 115.104 25.1698 115.04C26.0846 113.627 26.0846 113.627 24.5957 112.776C24.0355 112.488 23.4151 112.134 22.8586 111.783C22.2382 111.428 22.0796 110.845 22.4356 110.228C23.1515 108.93 23.8673 107.633 24.5831 106.335C24.9429 105.654 25.5214 105.624 26.1418 105.979C26.9502 106.408 27.7585 106.837 28.5632 107.33C28.9957 107.61 29.3187 107.565 29.5397 107.068C29.5434 107.004 29.6072 107.008 29.6109 106.944C30.6608 105.411 30.6608 105.411 28.9839 104.485C28.5478 104.269 28.1756 104.056 27.807 103.78C26.6301 103.074 26.5207 102.749 27.1653 101.575C28.8106 98.6091 30.4522 95.7072 32.0975 92.7417C34.1701 89.0358 36.2464 85.2663 38.3829 81.5641C38.7427 80.8835 38.8961 80.446 38.0988 79.8261C35.4131 77.5031 36.1553 73.5291 39.4445 72.0613C40.1692 71.7206 40.4393 71.4811 40.2954 70.6439C39.7345 67.0409 42.7777 64.2837 46.318 65.1258C47.1373 65.3644 47.4677 65.1922 47.8274 64.5116C48.5506 63.0869 49.334 61.7294 50.1174 60.3719C50.331 60.0017 50.2855 59.6803 49.8457 59.5273C49.5939 59.449 49.3421 59.3707 49.0902 59.2924C39.6963 55.498 34.2015 48.5495 33.3051 38.551C32.0921 25.155 42.1718 13.7502 55.1207 12.5853C58.9862 12.2347 62.7365 12.7702 66.3715 14.1916C67.6871 14.7139 67.4279 14.7627 68.0726 13.5885C70.9506 8.14376 75.4284 4.95932 81.4458 3.96792C91.9932 2.21801 101.837 10.4379 102.189 20.9788C102.299 24.6195 101.466 27.9507 99.6216 31.0322C99.0518 32.0195 99.0518 32.0195 99.913 32.6431C105.629 36.8627 108.955 42.5381 109.896 49.5424C111.54 62.1345 102.581 74.1141 89.9671 76.1273C88.2733 76.6033 86.4738 76.6906 84.1744 76.5578Z" fill="#2F3A5A"/>
<path d="M59.8092 14.6414C59.4259 14.6192 58.9788 14.5934 58.5956 14.5713C52.5767 14.4787 47.2178 16.2732 42.6886 20.3473C34.1742 27.9531 32.8505 40.8839 39.6969 49.9508C42.7306 54.0154 46.743 56.6701 51.5952 58.0981C53.1701 58.5716 53.3433 58.9004 52.5526 60.385C52.0504 61.3124 51.5519 62.1763 51.0534 63.0401C50.3413 64.2742 49.693 65.512 48.9808 66.7461C48.1937 68.1671 47.9985 68.2196 46.5624 67.5628C46.5022 67.4955 46.3781 67.4246 46.3142 67.4209C44.942 66.7678 43.5111 67.1315 42.6712 68.3582C41.8988 69.525 42.0097 70.9342 43.1044 71.9538C43.3489 72.1592 43.597 72.3011 43.8415 72.5065C44.1425 72.8427 44.2482 73.2313 44.0346 73.6016C43.8209 73.9718 43.4869 74.2075 42.9796 74.1145C42.6639 74.0325 42.4157 73.8906 42.1 73.8086C40.9649 73.488 39.9848 73.814 39.1669 74.6594C37.9966 76.0583 38.352 77.6728 40.0854 78.7294C41.6309 79.7113 41.6272 79.7748 40.7653 81.3828C38.6927 85.0888 36.5525 88.8545 34.4799 92.5605C32.8346 95.526 31.2569 98.4316 29.5477 101.393C29.1879 102.074 29.2973 102.399 29.9213 102.69C30.6695 103.052 31.3538 103.411 32.0946 103.9C32.8992 104.392 33.0688 104.785 32.5703 105.649C31.9896 106.827 31.345 108.001 30.6401 109.108C30.0704 110.095 29.6835 110.136 28.6233 109.629C28.0029 109.274 27.315 108.979 26.7622 108.565C26.0816 108.143 25.6344 108.117 25.3312 108.929C25.2527 109.179 25.1102 109.426 24.9715 109.609C24.4876 110.219 24.7211 110.615 25.3452 110.906C26.0933 111.268 26.7776 111.626 27.5184 112.115C28.3833 112.676 28.4288 112.997 27.9941 113.865C27.3495 115.039 26.7688 116.217 26.064 117.324C25.4979 118.247 25.1073 118.352 24.1749 117.852C23.4906 117.494 22.8064 117.135 22.1896 116.717C21.509 116.295 21.1221 116.337 20.7587 117.081C20.6126 117.391 20.4629 117.765 20.2565 118.008C19.9754 118.438 20.1559 118.64 20.4643 118.849C21.2088 119.275 22.0208 119.641 22.7616 120.13C23.7542 120.697 23.8599 121.086 23.3504 122.14C22.777 123.191 22.2073 124.178 21.6339 125.229C20.9181 126.527 20.595 126.572 19.3506 125.926C18.4784 125.493 17.579 124.421 16.6627 124.751C15.8103 125.084 15.6693 126.415 15.0431 127.271C14.6907 127.825 14.7288 128.273 14.9513 128.86C16.195 131.737 17.4424 134.551 18.6223 137.425C18.9578 138.273 19.3976 138.426 20.239 138.283C23.2176 137.754 26.1925 137.288 29.1638 136.886C29.8738 136.799 30.3429 136.444 30.699 135.827C33.0601 131.564 35.4176 127.364 37.7751 123.165C43.9929 112.047 50.1468 100.925 56.3647 89.8077C57.0805 88.51 57.3433 88.3977 58.7758 89.118C59.5239 89.4801 60.2757 89.7785 61.1097 89.7629C62.2029 89.6986 63.1155 89.4325 63.5649 88.3107C64.0142 87.189 63.686 86.2136 62.8997 85.4031C62.6589 85.1341 62.3505 84.925 62.106 84.7196C61.805 84.3834 61.827 84.0021 62.0443 83.5684C62.258 83.1981 62.5847 83.0895 62.9643 83.1752C63.2198 83.1899 63.4679 83.3318 63.7234 83.3465C65.0464 83.7418 66.1544 83.4232 66.8518 82.4433C67.6132 81.4671 67.3525 80.4319 66.8327 79.4455C66.3731 78.5263 65.5684 78.0335 64.7035 77.4734C63.7748 76.9097 63.6654 76.5845 64.1712 75.5936C64.531 74.913 64.8907 74.2324 65.2468 73.6154C66.1763 71.9475 67.1095 70.2161 68.1028 68.552C68.8113 67.3814 69.2621 67.3437 70.2401 68.1653C70.4243 68.3035 70.5447 68.438 70.6651 68.5725C75.7883 73.0766 81.6971 75.0757 88.4737 74.2556C97.7032 73.131 105.272 66.3632 107.315 57.6185C109.448 48.4326 105.764 38.9745 97.9842 33.8706C97.612 33.6578 97.3037 33.4487 96.9314 33.2359C96.2508 32.814 96.2839 32.2421 96.6399 31.6251C96.7824 31.3782 96.9211 31.195 97.1238 31.0154C99.4974 27.6457 100.484 23.877 100.016 19.7693C98.8116 9.56174 87.9749 3.00604 78.3357 6.785C74.0062 8.5115 70.8845 11.5192 69.0945 15.8791C68.5703 17.1878 68.2436 17.2964 66.9955 16.7142C64.8751 15.6991 62.417 14.9833 59.8092 14.6414Z" fill="#FAB505"/>
<path d="M86.6693 43.3551C91.7154 43.6466 95.5009 48.0097 95.2072 53.0936C94.9172 58.1139 90.5304 61.9412 85.4844 61.6498C80.3744 61.3546 76.5287 56.9242 76.8862 51.844C77.1799 46.7601 81.5593 43.0599 86.6693 43.3551Z" fill="#2F3A5A"/>
<path d="M93.1677 52.9119C93.399 48.9083 90.449 45.6136 86.361 45.3775C82.4008 45.1487 79.0875 48.1454 78.8599 52.0854C78.636 55.9619 81.6425 59.3874 85.5388 59.6124C89.5629 59.8449 92.9365 56.9155 93.1677 52.9119Z" fill="#FEF4EF"/>
<path d="M48.4958 36.3043C48.7895 31.2204 53.0485 27.3857 58.0946 27.6772C63.1408 27.9686 67.0577 32.2756 66.8316 37.2996C66.6055 42.3236 62.1475 46.2743 57.0375 45.9792C51.995 45.6241 48.2661 41.3918 48.4958 36.3043Z" fill="#2F3A5A"/>
<path d="M64.8444 37.3123C65.072 33.3723 62.0655 29.9468 58.1053 29.7181C54.209 29.493 50.8317 32.486 50.5439 36.3588C50.2525 40.2951 53.3192 43.7878 57.2794 44.0165C61.1155 44.1744 64.5603 41.1216 64.8444 37.3123Z" fill="#FEF4EF"/>
<path d="M84.0462 28.8573C80.0221 28.6249 77.0082 25.3265 77.2394 21.3229C77.4105 17.2521 80.8517 14.2628 84.9396 14.499C88.8999 14.7277 91.9702 18.1569 91.7427 22.0969C91.5151 26.0369 88.0703 29.0898 84.0462 28.8573Z" fill="#2F3A5A"/>
<path d="M84.8225 16.5327C81.9482 16.3666 79.3852 18.5777 79.22 21.4374C79.0585 24.2336 81.286 26.7214 84.0964 26.8837C86.9708 27.0497 89.4625 24.962 89.6916 22.106C89.9207 19.25 87.7607 16.7024 84.8225 16.5327Z" fill="#FEF4EF"/>
</svg>
