<svg width="294" height="206" viewBox="0 0 294 206" fill="none" xmlns="http://www.w3.org/2000/svg">
<path opacity="0.2" d="M69.1534 59.4527C67.9662 59.4527 66.779 59.6017 65.5919 59.7507C61.4367 51.1089 52.5329 45 42.2934 45C28.7892 45 17.6593 55.4298 16.4721 68.8395C15.7302 68.6905 14.8398 68.6905 14.0978 68.6905C6.23272 68.6905 0 75.0974 0 82.8453C0 90.7421 6.38111 97 14.0978 97C18.8465 97 64.5531 97 69.1534 97C79.5413 97 88 88.5072 88 78.0774C87.8516 67.7966 79.5413 59.4527 69.1534 59.4527Z" fill="white"/>
<path opacity="0.2" d="M282.863 91.3381C282.162 91.3381 281.46 91.4241 280.759 91.51C278.304 86.5244 273.042 83 266.992 83C259.012 83 252.435 89.0172 251.734 96.7536C251.295 96.6676 250.769 96.6676 250.331 96.6676C245.683 96.6676 242 100.364 242 104.834C242 109.39 245.771 113 250.331 113C253.137 113 280.145 113 282.863 113C289.002 113 294 108.1 294 102.083C293.912 96.1519 289.002 91.3381 282.863 91.3381Z" fill="white"/>
<path opacity="0.2" d="M222.868 38.0086C221.6 38.0086 220.332 38.1633 219.064 38.318C214.626 29.3438 205.115 23 194.177 23C179.752 23 167.863 33.8309 166.595 47.7565C165.803 47.6017 164.852 47.6017 164.059 47.6017C155.658 47.6017 149 54.255 149 62.3009C149 70.5014 155.816 77 164.059 77C169.132 77 217.954 77 222.868 77C233.965 77 243 68.1805 243 57.3496C242.841 46.6734 233.965 38.0086 222.868 38.0086Z" fill="white"/>
<path d="M226.49 156.319L164.894 61.5789L168.055 63.1116L229.651 157.852L226.49 156.319Z" fill="#33B5FF"/>
<path d="M83.5651 192.529L21.9696 97.7889C24.3645 98.1721 79.9249 107.273 82.7987 107.847C85.0978 108.326 91.037 107.752 94.1982 106.889C97.3594 106.123 103.203 103.728 105.502 102.1C108.28 100.088 162.595 63.1116 164.894 61.5789L226.49 156.319C224.191 157.852 169.971 194.828 167.097 196.84C164.798 198.468 158.955 200.863 155.794 201.63C152.632 202.396 146.693 203.066 144.394 202.587C141.52 202.108 85.9599 192.912 83.5651 192.529Z" fill="#5CC4FF"/>
<path d="M80.5955 195.69L19 100.95L21.9696 97.7889L83.5651 192.529L80.5955 195.69Z" fill="#8AD5FF"/>
<path d="M226.49 156.319L229.651 157.852C229.076 158.235 173.132 196.361 170.45 198.373C167.097 200.767 160.104 203.545 155.985 204.599C151.77 205.653 144.777 206.419 141.329 205.749C138.551 205.174 81.1702 195.786 80.5955 195.69L83.5651 192.625C85.9599 193.008 141.52 202.109 144.394 202.683C146.693 203.162 152.632 202.588 155.794 201.725C158.955 200.959 164.798 198.564 167.097 196.936C169.971 194.828 224.191 157.852 226.49 156.319Z" fill="#1378D6"/>
<path d="M154.357 195.882L96.5931 106.794L96.9763 106.41L154.74 195.403L154.357 195.882Z" fill="#8D9198"/>
<path d="M153.782 195.786L96.0183 106.794C96.4015 106.698 96.4973 106.794 96.5931 106.794L154.357 195.786C154.165 195.786 154.069 195.69 153.782 195.786Z" fill="#BACEE0"/>
<path d="M153.782 195.786L96.0184 106.794C96.0184 106.794 96.0184 106.794 96.1142 106.794L153.782 195.786Z" fill="#BACEE0"/>
<path d="M153.782 195.786L96.0184 106.794H96.1142L153.878 195.786C153.878 195.786 153.878 195.786 153.782 195.786Z" fill="#BACEE0"/>
<path d="M153.974 195.786L96.2099 106.794C96.3057 106.794 96.4015 106.794 96.4015 106.794L154.165 195.786C154.069 195.786 154.069 195.786 153.974 195.786Z" fill="#BACEE0"/>
<path d="M154.165 195.786L96.4016 106.794C96.4016 106.794 96.4016 106.794 96.4974 106.794L154.165 195.786Z" fill="#BACEE0"/>
<path d="M154.165 195.786L96.4016 106.794L154.165 195.786C154.261 195.786 154.261 195.786 154.165 195.786Z" fill="#BACEE0"/>
<path d="M154.261 195.786L96.4973 106.794C96.4973 106.794 96.4972 106.794 96.593 106.794L154.261 195.786Z" fill="#BACEE0"/>
<path d="M154.261 195.882L96.4973 106.889L154.261 195.882C154.357 195.882 154.357 195.882 154.261 195.882Z" fill="#BACEE0"/>
<path d="M205.128 154.595L147.364 65.6022C159.625 62.8242 163.745 66.177 164.032 66.3685L221.796 155.361C221.508 155.169 217.389 151.817 205.128 154.595Z" fill="#D5E5F2"/>
<path d="M96.6888 106.219C114.123 92.2329 145.735 66.8475 147.364 65.6022L205.128 154.595C203.499 155.936 171.887 181.321 154.453 195.307C135.964 166.856 115.177 134.67 96.6888 106.219Z" fill="url(#paint0_linear_84_442)"/>
<path d="M105.023 99.6091C103.49 100.854 101.958 102.004 100.521 103.249C110.1 125.186 153.303 150.476 164.032 187.644C165.756 186.303 167.481 184.866 169.205 183.429C157.901 146.548 114.315 121.45 105.023 99.6091Z" fill="#D5E5F2"/>
<path d="M100.712 181.034L42.9485 92.0413C44.6728 92.5203 78.2006 101.908 95.9225 106.794L153.686 195.786C136.06 190.901 102.532 181.609 100.712 181.034Z" fill="#D5E5F2"/>
<path d="M110.1 172.796L52.3362 83.7072L52.7194 83.2283L110.387 172.317L110.1 172.796Z" fill="#FAFDFF"/>
<path d="M110.387 172.317L52.6237 83.324C52.8152 83.4198 75.231 93.6698 96.6889 106.315C96.7846 106.41 96.8804 106.41 96.9762 106.506L154.74 195.499C154.644 195.403 154.548 195.403 154.453 195.307C132.995 182.662 110.675 172.412 110.387 172.317Z" fill="url(#paint1_linear_84_442)"/>
<path d="M110.387 172.317C110.579 172.412 132.995 182.662 154.453 195.307C154.548 195.403 154.644 195.403 154.74 195.499L154.357 195.978C154.261 195.882 154.069 195.882 153.974 195.786C132.612 183.237 110.292 172.987 110.1 172.891L110.387 172.317Z" fill="#FAFDFF"/>
<path d="M205.128 154.595C217.389 151.817 221.508 155.17 221.796 155.361C219.497 156.894 167.96 192.05 165.182 194.062C162.882 195.69 157.039 198.085 153.878 198.852C150.717 199.618 144.777 200.288 142.478 199.809C139.605 199.235 86.8221 190.613 84.4272 190.23C84.6188 189.943 88.5464 184.482 100.808 181.13C102.532 181.609 136.06 190.996 153.782 195.882C154.165 195.786 154.261 195.786 154.357 195.882C154.357 195.882 154.453 195.499 154.453 195.307C171.887 181.321 203.499 155.936 205.128 154.595Z" fill="#BACEE0"/>
<path d="M169.205 183.429C167.481 184.866 165.661 186.207 164.032 187.644C164.607 189.655 165.086 191.763 165.469 193.87C166.331 193.296 168.247 191.954 170.929 190.134C170.45 187.835 169.875 185.632 169.205 183.429Z" fill="#D5E5F2"/>
<path d="M84.4273 190.23L26.6636 101.238C26.8552 100.95 30.7827 95.4899 43.0443 92.1371L100.808 181.13C88.4506 184.482 84.6189 189.943 84.4273 190.23Z" fill="#E6F4FF"/>
<path d="M177.922 200.959C178.401 151.242 116.614 124.324 104.736 98.9385L100.425 102.579C112.303 127.964 173.132 154.882 172.653 204.599L174.761 198.468L177.922 200.959Z" fill="url(#paint2_linear_84_442)"/>
<path d="M139.619 36.8824C139.619 37.074 139.715 37.1698 139.715 37.1698L122.568 40.0436L114.713 36.1161C106.091 53.2632 101.589 72.3262 101.301 90.7186L112.414 80.6603C112.414 80.6603 117.491 85.1626 122.376 89.4733C122.663 79.5107 124.484 69.2608 127.741 59.394C132.53 66.4827 139.715 75.1042 150.827 84.971L152.36 72.0388C152.36 72.0388 157.437 71.1766 165.867 70.2187C142.972 50.2936 139.619 36.9782 139.619 36.8824Z" fill="#5FCFFF"/>
<path d="M148.049 51.6347C141.056 42.4385 139.715 36.9782 139.619 36.8824C139.619 37.074 139.715 37.1698 139.715 37.1698L122.568 40.0436L114.713 36.1161C111.647 42.1511 109.157 48.4735 107.145 54.8917C108.007 55.658 108.773 56.4244 109.636 57.1907C113.946 61.1183 119.981 63.2258 126.687 62.7468C126.974 61.693 127.357 60.5435 127.741 59.4898C128.315 60.4477 128.986 61.3099 129.752 62.3636C136.841 61.0225 143.259 56.9992 148.049 51.6347Z" fill="#04AFF9"/>
<path d="M151.114 82.5761L151.306 80.756C136.937 67.9196 130.806 57.9571 128.315 52.7842C129.848 48.7609 131.572 44.7375 133.488 40.81L132.147 40.1394C130.423 43.588 128.794 47.1323 127.453 50.7725C126.974 49.623 126.783 48.9524 126.783 48.9524L125.25 49.3356C125.25 49.3356 125.537 50.5809 126.591 52.88C122.568 63.8005 119.981 75.2 119.023 86.6952C119.502 87.0784 119.981 87.5574 120.46 87.9406C121.322 76.7327 123.717 65.5248 127.549 54.7959C130.519 60.4477 137.128 70.2187 151.114 82.5761Z" fill="white"/>
<path d="M138.757 39.0857L137.224 39.4689C137.224 39.5647 140.29 52.0179 160.981 70.8893C161.652 70.7935 162.322 70.6977 162.993 70.6019C142.014 51.7305 138.757 39.2773 138.757 39.0857Z" fill="white"/>
<path d="M117.299 37.4572L115.958 36.7866C107.815 53.2632 103.217 71.464 102.738 89.5691L104.271 88.1321C105.037 70.6977 109.54 53.2632 117.299 37.4572Z" fill="white"/>
<path d="M125.058 62.8426C125.825 60.1604 126.687 57.4781 127.645 54.7959C128.603 56.7118 130.04 59.1066 131.955 61.8847C132.434 61.7889 133.009 61.5973 133.488 61.4057C130.902 57.8613 129.273 54.8917 128.315 52.88C129.848 48.8567 131.572 44.8333 133.488 40.9058L132.147 40.2352C130.423 43.6838 128.794 47.2282 127.453 50.8684C126.974 49.7188 126.783 49.0483 126.783 49.0483L125.25 49.4314C125.25 49.4314 125.537 50.6768 126.591 52.9758C125.346 56.2328 124.292 59.5856 123.334 62.8426C123.909 62.8426 124.484 62.8426 125.058 62.8426Z" fill="#BDDAFF"/>
<path d="M138.757 39.0857L137.224 39.4689C137.224 39.5647 138.565 45.0249 145.462 54.2211C145.846 53.838 146.229 53.5506 146.612 53.1674C140.098 44.3544 138.757 39.1815 138.757 39.0857Z" fill="#BDDAFF"/>
<path d="M109.54 57.095C111.551 50.3894 114.138 43.7796 117.299 37.4572L117.203 37.3614L115.958 36.6909C112.893 42.9175 110.306 49.3357 108.294 55.8496C108.773 56.3286 109.157 56.7118 109.54 57.095Z" fill="#BDDAFF"/>
<path d="M148.145 22.6092C148.145 17.7237 146.899 13.4129 144.696 9.86857C140.768 3.64197 133.871 -0.0939951 125.729 0.00179876C124.388 0.00179876 123.047 0.193395 121.61 0.384983C120.173 0.576571 118.832 0.959738 117.491 1.43871C109.348 4.12094 102.355 10.2518 98.3318 17.8195C96.0327 22.1302 94.6916 26.9199 94.6916 31.7096C94.5958 46.4618 106.378 56.4244 121.131 53.838C135.979 51.4431 148.049 37.3614 148.145 22.6092Z" fill="url(#paint3_linear_84_442)"/>
<g opacity="0.4">
<path opacity="0.4" d="M148.145 22.6091C148.145 19.1606 147.57 16.0952 146.42 13.3171L106.953 52.2095C109.827 53.5506 113.084 54.3169 116.628 54.3169L148.145 23.1839C148.145 22.9923 148.145 22.8007 148.145 22.6091Z" fill="url(#paint4_linear_84_442)"/>
<path opacity="0.4" d="M125.825 0.0975837C125.537 0.0975837 125.25 0.0975837 124.963 0.0975837L94.7875 29.7937C94.6917 30.4642 94.6917 31.1348 94.6917 31.7096C94.6917 36.4993 95.937 40.81 98.1403 44.3544L139.14 3.92934C135.5 1.4387 130.902 0.00178978 125.825 0.0975837Z" fill="url(#paint5_linear_84_442)"/>
</g>
<path d="M153.605 27.5904C153.605 22.7049 152.36 18.3942 150.156 14.8498C149.198 13.3171 147.953 11.8802 146.708 10.6349L141.343 5.65363C142.684 6.89895 143.834 8.33585 144.792 9.86855C146.995 13.4129 148.24 17.7237 148.24 22.6091C148.145 37.3614 135.979 51.3473 121.227 53.9337C113.467 55.2749 106.474 53.1674 101.685 48.6651C102.547 49.5272 103.505 50.2936 104.367 51.1557C105.229 52.0179 106.187 52.7842 107.049 53.6464C111.839 58.0529 118.832 60.2561 126.591 58.915C141.343 56.3286 153.413 42.3427 153.605 27.5904Z" fill="url(#paint6_linear_84_442)"/>
<path d="M153.605 27.5904C153.605 22.705 152.36 18.3942 150.156 14.8499C149.39 13.5087 148.432 12.3592 147.283 11.3055C148.145 12.2634 149.007 13.3172 149.677 14.4667C151.881 18.0111 153.126 22.3218 153.126 27.2073C153.03 41.9595 140.864 55.9454 126.112 58.5319C118.353 59.873 111.36 57.7655 106.57 53.2632C105.708 52.4011 104.75 51.6347 103.888 50.7726C103.313 50.2936 102.834 49.8146 102.259 49.3357C102.068 49.1441 101.78 48.9525 101.589 48.7609C102.451 49.623 103.409 50.3894 104.271 51.2515C105.133 52.1137 106.091 52.88 106.953 53.7422C111.743 58.1487 118.736 60.352 126.495 59.0108C141.343 56.3286 153.413 42.3427 153.605 27.5904Z" fill="#DE6921"/>
<path opacity="0.7" d="M121.514 54.4127C136.266 51.9221 148.336 37.8404 148.528 23.0881C148.528 18.2026 147.283 13.8919 145.079 10.3475C144.792 9.86855 144.505 9.38958 144.121 9.00641C144.313 9.29379 144.505 9.58117 144.696 9.96435C146.899 13.5087 148.145 17.8195 148.145 22.7049C148.049 37.4572 135.883 51.4431 121.131 54.0295C113.372 55.3707 106.379 53.2632 101.589 48.7609C102.259 49.3356 102.834 49.9104 103.505 50.581C108.294 54.0295 114.617 55.5622 121.514 54.4127Z" fill="#FFE8A6"/>
<path d="M134.35 23.6629L129.369 29.8895L130.135 37.074C130.231 38.1278 129.752 38.7983 128.89 38.9899C128.603 38.9899 128.315 38.9899 128.028 38.8941L121.418 36.9782L114.713 41.0974C114.425 41.289 114.138 41.3847 113.85 41.4805C113.084 41.5763 112.509 41.0974 112.701 39.9478L113.563 32.5717L108.678 27.9736C107.72 27.1115 108.103 25.9619 109.444 25.3872L116.628 22.7049L120.269 15.712C120.652 15.0414 121.131 14.6583 121.514 14.5625C121.993 14.4667 122.472 14.754 122.759 15.233L126.304 20.9806L133.488 21.268C134.925 21.3638 135.308 22.4176 134.35 23.6629ZM121.227 50.581C108.294 52.7842 97.9487 44.067 98.0445 31.2306C98.1403 18.2984 108.773 6.03679 121.61 3.83353C134.542 1.63027 144.888 10.3475 144.792 23.2797C144.696 36.1161 134.159 48.3777 121.227 50.581ZM143.547 23.4713C143.642 11.3055 133.871 3.06719 121.706 5.17466C109.54 7.28212 99.5772 18.8732 99.4814 31.039C99.3856 43.2048 109.157 51.4431 121.322 49.3356C133.392 47.2282 143.451 35.6371 143.547 23.4713Z" fill="url(#paint7_linear_84_442)"/>
<path d="M121.706 5.17466C126.974 4.31252 131.764 5.27045 135.5 7.6653L136.554 6.61157C132.53 3.92934 127.357 2.77981 121.706 3.83354C121.514 3.83354 121.322 3.92934 121.131 3.92934L119.406 5.65363C120.077 5.46204 120.843 5.27046 121.706 5.17466Z" fill="#FF7E14"/>
<path d="M101.876 40.81C100.248 38.032 99.3856 34.6792 99.4814 30.9432C99.4814 28.6442 99.8646 26.4409 100.535 24.2377L98.8109 25.962C98.4277 27.6863 98.2361 29.4105 98.2361 31.1348C98.2361 35.1582 99.194 38.7983 100.918 41.768L101.876 40.81Z" fill="#FF7E14"/>
<path d="M128.028 38.8941C128.315 38.9899 128.603 38.9899 128.89 38.9899C129.656 38.8941 130.231 38.1278 130.135 37.0741L129.465 30.1769L122.28 37.2656L128.028 38.8941Z" fill="#FF7E14"/>
<path d="M144.505 26.8241C144.696 25.6745 144.792 24.4292 144.792 23.2797C144.792 20.6933 144.409 18.2984 143.642 16.0952L142.493 17.1489C143.068 19.0648 143.451 21.1722 143.451 23.4713C143.451 25.0998 143.259 26.8241 142.876 28.4526L144.505 26.8241Z" fill="#FF7E14"/>
<path d="M122.855 15.3288C122.472 14.7541 122.089 14.5625 121.61 14.6583C121.131 14.7541 120.652 15.1373 120.364 15.8078L116.724 22.8008L109.54 25.483C108.199 25.962 107.815 27.1115 108.773 28.0694L111.935 31.0391L124.771 18.2985L122.855 15.3288Z" fill="#FF7E14"/>
<path d="M120.269 50.7725L121.897 49.144C121.706 49.144 121.514 49.2398 121.322 49.2398C117.586 49.9104 114.042 49.5272 110.881 48.3777L109.731 49.4314C112.893 50.7725 116.437 51.2515 120.269 50.7725Z" fill="#FF7E14"/>
<path opacity="0.8" d="M119.885 48.3777C119.215 48.3777 118.544 47.803 118.449 47.1324C118.353 46.2703 118.832 45.5039 119.694 45.3123C123.047 44.7376 126.495 43.2049 129.465 40.9058C130.135 40.4268 131.093 40.5226 131.572 41.1932C132.051 41.8637 131.956 42.8217 131.285 43.3007C127.836 45.8871 124.005 47.6114 120.173 48.2819C120.173 48.3777 120.077 48.3777 119.885 48.3777ZM136.266 38.7983C136.362 38.7025 136.458 38.511 136.554 38.4152C137.128 37.7446 136.937 36.7867 136.362 36.2119C135.691 35.6371 134.734 35.8287 134.159 36.4035C134.063 36.4993 133.967 36.6909 133.871 36.7867C133.297 37.4572 133.392 38.4152 134.063 38.9899C134.35 39.1815 134.638 39.3731 135.021 39.3731C135.404 39.3731 135.883 39.1815 136.266 38.7983ZM119.311 10.0602C119.598 9.96436 119.981 9.86858 120.269 9.67699C121.035 9.38961 121.514 8.52746 121.227 7.76111C120.939 6.99476 120.077 6.51579 119.311 6.80317C118.928 6.89896 118.544 7.09055 118.257 7.18634C117.491 7.47372 117.107 8.33587 117.395 9.19802C117.586 9.77278 118.161 10.156 118.736 10.156C118.928 10.2518 119.119 10.156 119.311 10.0602ZM106.091 21.9386C107.624 19.1606 109.731 16.4783 112.222 14.3709C112.893 13.7961 112.988 12.8382 112.414 12.1676C111.839 11.4971 110.881 11.4013 110.21 11.976C107.432 14.3709 105.037 17.2447 103.409 20.4059C103.026 21.1723 103.313 22.1302 104.079 22.5134C104.271 22.6092 104.463 22.705 104.75 22.705C105.229 22.8008 105.804 22.5134 106.091 21.9386Z" fill="white"/>
<path d="M156.862 27.6862L163.951 29.0274C165.292 29.3147 166.154 30.5601 165.867 31.8054C165.579 33.1465 164.334 34.0086 163.089 33.7213C162.801 33.6255 162.61 33.5297 162.322 33.4339L156 29.8895C155.425 29.6021 155.233 28.8358 155.521 28.261C155.808 27.782 156.287 27.5904 156.862 27.6862Z" fill="#FFC933"/>
<path d="M151.976 12.5508L156.096 6.61162C156.862 5.55789 158.395 5.2705 159.448 6.03685C160.502 6.8032 160.789 8.33591 160.023 9.38964C159.831 9.58123 159.64 9.77282 159.448 9.96441L153.605 14.1793C153.03 14.5625 152.264 14.4667 151.881 13.8919C151.689 13.5088 151.689 12.934 151.976 12.5508Z" fill="#FFC933"/>
<path d="M156.575 19.448L163.28 16.7657C164.525 16.2868 165.867 16.8615 166.441 18.1069C166.92 19.3522 166.346 20.6933 165.1 21.2681C164.813 21.3639 164.621 21.4597 164.334 21.4597L157.149 21.9386C156.479 21.9386 155.904 21.4597 155.904 20.7891C155.808 20.1185 156.096 19.6396 156.575 19.448Z" fill="#FFC933"/>
<path d="M93.4464 36.7866L87.6987 41.0974C86.645 41.8637 85.1123 41.6721 84.346 40.6184C83.5796 39.5647 83.7712 38.032 84.8249 37.2656C85.0165 37.074 85.3039 36.9782 85.4955 36.8824L92.3927 34.6792C93.0632 34.4876 93.7338 34.8707 93.9253 35.4455C94.0211 35.9245 93.8296 36.4993 93.4464 36.7866Z" fill="#FFC933"/>
<path d="M93.7337 20.8849L87.4113 17.4363C86.2618 16.7657 85.7828 15.3288 86.4534 14.1793C87.124 13.0298 88.5609 12.5508 89.7104 13.2213C89.902 13.3171 90.1894 13.5087 90.2852 13.7003L95.1707 19.0648C95.6496 19.5437 95.5538 20.3101 95.0749 20.7891C94.6917 21.0765 94.1169 21.0764 93.7337 20.8849Z" fill="#FFC933"/>
<path d="M91.2431 28.7399L84.0586 29.2189C82.7174 29.3147 81.5679 28.261 81.4721 27.0156C81.3763 25.6745 82.4301 24.525 83.6754 24.4292C83.9628 24.4292 84.2502 24.4292 84.4417 24.525L91.4347 26.3451C92.1053 26.5367 92.4884 27.2072 92.2968 27.782C92.201 28.3567 91.7221 28.7399 91.2431 28.7399Z" fill="#FFC933"/>
<path d="M63.6399 85.8147C61.3409 82.1745 62.3946 77.4806 66.0348 75.1815C69.5791 72.8825 74.3688 73.9362 76.6679 77.5764L82.9903 87.4432L69.9623 95.6814L63.6399 85.8147Z" fill="#FA676A"/>
<path d="M104.161 146.644L104.831 151.529L111.441 151.242L117.285 146.165L116.614 141.279L110.1 141.471L104.161 146.644Z" fill="#186ED6"/>
<path d="M111.154 150.667L116.614 145.877L116.135 141.854L110.292 142.141L104.831 146.931L105.406 150.954L111.154 150.667Z" fill="#F6D1AA"/>
<path d="M111.537 144.919C110.675 144.919 109.525 145.59 109.142 146.452C108.759 147.219 109.142 147.889 110.004 147.793C110.962 147.793 112.016 147.123 112.399 146.261C112.782 145.494 112.399 144.919 111.537 144.919Z" fill="#41413F"/>
<path d="M104.161 146.644L70.2497 92.4244L70.9203 97.3099L104.831 151.529L104.161 146.644Z" fill="url(#paint8_linear_84_442)"/>
<path d="M76.0931 87.2515L70.2497 92.4244L104.161 146.644L110.1 141.471L76.0931 87.2515Z" fill="url(#paint9_linear_84_442)"/>
<path d="M116.614 141.279L82.7029 86.9642L76.0931 87.2516L110.1 141.471L116.614 141.279Z" fill="#FFC933"/>
<path d="M70.7286 93.1908L66.8011 86.9642L67.4716 91.9455L71.3992 98.0763L70.7286 93.1908Z" fill="#86B0D1"/>
<path d="M76.5721 88.0179L72.7403 81.8871L66.8011 86.9642L70.7286 93.1908L76.5721 88.0179Z" fill="#ACCFEB"/>
<path d="M83.1819 87.7305L79.3501 81.5997L72.7404 81.8871L76.5721 88.0179L83.1819 87.7305Z" fill="#D9EEFF"/>
<path d="M118.434 152.391C117.284 152.966 116.135 153.732 115.081 154.69C114.028 155.648 112.974 156.702 112.112 157.852L120.35 165.036L118.434 152.391Z" fill="#41413F"/>
<path d="M104.831 151.529L112.112 157.852C112.974 156.702 113.932 155.648 115.081 154.69C116.135 153.733 117.285 152.966 118.434 152.391L116.614 141.279C115.943 140.609 114.411 139.651 112.974 139.459C111.441 139.268 110.292 140.13 110.292 140.13C110.292 140.13 109.334 139.651 108.471 140.13C107.609 140.609 106.939 141.95 107.035 142.237C105.502 142.141 103.394 143.578 103.394 145.398C102.724 146.165 103.394 148.081 103.586 148.464C103.394 148.751 103.586 149.613 104.831 151.529Z" fill="url(#paint10_linear_84_442)"/>
<path d="M22.8318 41.1746C22.736 40.3124 22.6402 39.4503 22.6402 38.5881C22.5444 38.0134 22.8318 37.4386 23.4066 36.8638C25.3225 35.0438 29.8248 33.99 33.6565 34.5648C36.243 34.948 37.7757 36.0017 37.8715 37.1512C37.9673 38.0134 38.063 38.8755 38.063 39.7377C37.9673 38.5881 36.4345 37.5344 33.8481 37.1512C30.0164 36.5765 25.514 37.6302 23.5982 39.4503C23.0234 40.025 22.8318 40.5998 22.8318 41.1746Z" fill="url(#paint11_linear_84_442)"/>
<path d="M33.8481 37.1512C30.0163 36.5764 25.514 37.6302 23.5981 39.4503C23.0233 40.025 22.736 40.5998 22.8318 41.1745C22.9275 42.1325 23.9813 43.0904 25.8972 43.5694C25.993 43.6652 26.2803 43.761 26.4719 44.1441C26.6635 44.3357 26.6635 44.5273 26.7593 44.6231C26.7593 44.7189 26.7593 44.7189 26.7593 44.8147C26.7593 45.0063 26.8551 45.3895 26.8551 45.5811C26.8551 45.8684 26.9509 46.1558 26.9509 46.539C26.9509 46.9222 27.0467 47.3054 27.0467 47.6885C27.0467 48.0717 27.1425 48.4549 27.1425 48.8381C27.1425 49.2212 27.2383 49.6044 27.2383 49.9876C27.2383 50.3708 27.3341 50.7539 27.3341 51.1371C27.3341 51.4245 27.4299 51.8077 27.4299 52.1908C27.4299 52.4782 27.5257 52.7656 27.5257 53.053C27.5257 53.3404 27.6214 53.6278 27.6214 53.9151C27.6214 53.6278 27.7172 53.3404 28.0046 52.9572C28.9626 51.9993 31.4532 51.4245 33.4649 51.7119C34.806 51.9035 35.6681 52.4782 35.7639 53.1488C35.7639 53.053 35.7639 52.9572 35.7639 52.8614C35.7639 52.6698 35.7639 52.4782 35.6681 52.2866C35.6681 51.9992 35.6681 51.8077 35.5723 51.4245C35.5723 51.1371 35.4766 50.7539 35.4766 50.3708C35.4766 49.9876 35.3808 49.6044 35.3808 49.2212C35.3808 48.8381 35.285 48.4549 35.285 48.0717C35.285 47.6885 35.1892 47.3054 35.1892 46.9222C35.1892 46.539 35.0934 46.1558 35.0934 45.7727C35.0934 45.3895 34.9976 45.1021 34.9976 44.8147C34.9976 44.5273 34.9018 44.24 34.9018 44.0484C34.9018 43.9526 34.9018 43.8568 34.9018 43.8568C34.9018 43.5694 34.9976 43.1862 35.4766 42.803L35.5723 42.7072C36.2429 42.3241 36.9135 42.0367 37.2966 41.5577C37.8714 40.983 38.1588 40.4082 38.063 39.8334C38.063 38.4923 36.5303 37.5344 33.8481 37.1512Z" fill="url(#paint12_linear_84_442)"/>
<path opacity="0.7" d="M38.1588 39.7377C38.1588 39.5461 38.1588 39.3545 38.063 39.163C37.7756 38.1092 36.2429 37.1513 33.8481 36.8639C30.0163 36.2892 25.514 37.3429 23.5981 39.163C23.0234 39.7377 22.8318 40.2167 22.8318 40.7915C22.9276 40.4083 23.1192 39.9293 23.5981 39.5461C25.514 37.7261 30.0163 36.6723 33.8481 37.2471C36.5303 37.5345 38.063 38.4924 38.1588 39.7377Z" fill="#FFE8A6"/>
<path d="M41.9906 61.5787C39.4042 64.1651 32.8902 65.602 27.6215 64.8357C22.257 64.0693 20.1496 61.3871 22.736 58.8007C25.3225 56.2142 31.8364 54.7773 37.1051 55.5437C42.3738 56.31 44.577 59.088 41.9906 61.5787Z" fill="url(#paint13_linear_84_442)"/>
<path d="M22.736 58.9922C25.4182 56.4058 31.8364 54.9689 37.1051 55.7353C40.9369 56.31 43.1401 57.8427 43.0443 59.6628C43.3317 57.7469 41.1284 56.1184 37.1051 55.5437C31.7406 54.7773 25.3224 56.2142 22.736 58.8007C21.9697 59.4712 21.6823 60.2376 21.5865 60.9081C21.6823 60.3334 22.0655 59.6628 22.736 58.9922Z" fill="#DE6921"/>
<path d="M35.1892 59.9502C35.1892 59.4712 34.6145 59.088 33.5607 58.9922C32.1238 58.8007 30.3995 59.1838 29.729 59.8544C29.5374 60.046 29.4416 60.3334 29.4416 60.525L30.6869 74.1277C30.6869 74.1277 30.6869 74.1277 30.6869 74.0319C30.6869 74.1277 30.6869 74.3193 30.7827 74.4151C31.3575 75.0856 31.8364 75.7562 32.4112 76.5225C32.986 77.1931 33.4649 77.8636 34.0397 78.63C34.8061 77.0973 35.5724 75.5646 36.4345 73.9361C36.5303 73.8403 36.5303 73.6487 36.5303 73.5529L35.1892 59.9502Z" fill="#D5E5F2"/>
<path d="M35.1892 59.9502C35.1892 59.4712 34.6145 59.088 33.5607 58.9922C32.1238 58.8007 30.3995 59.1838 29.729 59.8544C29.5374 60.046 29.4416 60.3334 29.4416 60.525L29.5374 62.0577C30.5911 62.1535 32.7944 62.6324 35.5724 64.4525L35.1892 59.9502Z" fill="#D5E5F2"/>
<path d="M40.841 52.5741C39.0209 50.8498 36.3387 50.4666 35.4766 50.3708C34.4228 50.275 31.3574 49.8919 27.7172 50.9456C24.3645 51.9993 23.1191 53.532 22.5444 54.2026C22.1612 54.6815 21.6822 55.5437 21.4906 56.1185C21.2033 57.1722 21.2033 57.747 21.2991 58.6091C21.3948 59.4712 21.4906 60.3334 21.5864 61.2913C21.4906 60.525 21.8738 59.6628 22.736 58.8965C25.3224 56.3101 31.8364 54.8731 37.105 55.6395C40.7452 56.2142 42.9485 57.6512 43.0443 59.2797L42.7569 56.5974C42.7569 55.9269 42.5653 54.1068 40.841 52.5741Z" fill="url(#paint14_linear_84_442)"/>
<g opacity="0.7">
<path opacity="0.7" d="M22.3528 54.49C22.9275 53.8194 24.2687 52.2867 27.6214 51.233C31.3574 50.0834 34.5186 50.4666 35.5723 50.5624C36.3387 50.6582 39.1167 51.1372 41.0326 52.8615C41.4158 53.2446 41.7989 53.6278 42.0863 54.1068C41.7989 53.6278 41.4158 53.0531 40.9368 52.5741C39.1167 50.8498 36.4345 50.4666 35.5723 50.3708C34.5186 50.275 31.4532 49.8919 27.813 50.9456C24.4603 51.9993 23.2149 53.532 22.6402 54.2026C22.4486 54.3942 22.257 54.6815 22.1612 54.9689C22.1612 54.7773 22.257 54.5858 22.3528 54.49Z" fill="#FFE8A6"/>
<path opacity="0.7" d="M21.7781 60.2376C21.6823 60.3334 21.5865 60.525 21.5865 60.6208C21.5865 60.8124 21.5865 61.004 21.6823 61.1955C21.5865 60.9082 21.5865 60.525 21.7781 60.2376Z" fill="#FFE8A6"/>
<path opacity="0.7" d="M42.9485 58.7049C43.0443 58.8965 43.0443 58.9923 43.0443 59.1839V58.8007C43.0443 58.8007 42.9485 58.8007 42.9485 58.7049Z" fill="#FFE8A6"/>
</g>
<path d="M213.701 168.785L223.761 190.716L250.483 116.882L212.477 163.417L213.701 168.785Z" fill="#FFB3C7"/>
<path d="M226.843 169.935L223.761 190.716L250.483 116.882L226.843 169.935Z" fill="#FF517F"/>
<path d="M250.483 116.882L188.968 161.087L213.701 168.785L250.483 116.882Z" fill="url(#paint15_linear_84_442)"/>
<path d="M250.483 116.882L226.843 169.935L259.142 184.669L250.483 116.882Z" fill="url(#paint16_linear_84_442)"/>
<defs>
<linearGradient id="paint0_linear_84_442" x1="166.983" y1="119.391" x2="117.847" y2="153.064" gradientUnits="userSpaceOnUse">
<stop stop-color="#F0F8FF"/>
<stop offset="1" stop-color="#D5E5F2"/>
</linearGradient>
<linearGradient id="paint1_linear_84_442" x1="114.407" y1="134.536" x2="71.4933" y2="153.765" gradientUnits="userSpaceOnUse">
<stop stop-color="#F0F8FF"/>
<stop offset="1" stop-color="#D5E5F2"/>
</linearGradient>
<linearGradient id="paint2_linear_84_442" x1="102.875" y1="114.315" x2="168.875" y2="182.533" gradientUnits="userSpaceOnUse">
<stop stop-color="#FF7A7D"/>
<stop offset="1" stop-color="#FA6164"/>
</linearGradient>
<linearGradient id="paint3_linear_84_442" x1="127.291" y1="16.2019" x2="104.24" y2="59.6509" gradientUnits="userSpaceOnUse">
<stop stop-color="#FFC933"/>
<stop offset="1" stop-color="#FFA733"/>
</linearGradient>
<linearGradient id="paint4_linear_84_442" x1="132.568" y1="10.5361" x2="124.217" y2="55.919" gradientUnits="userSpaceOnUse">
<stop stop-color="white"/>
<stop offset="1" stop-color="white" stop-opacity="0"/>
</linearGradient>
<linearGradient id="paint5_linear_84_442" x1="118.638" y1="7.97308" x2="110.291" y2="53.3298" gradientUnits="userSpaceOnUse">
<stop stop-color="white"/>
<stop offset="1" stop-color="white" stop-opacity="0"/>
</linearGradient>
<linearGradient id="paint6_linear_84_442" x1="145.934" y1="7.88729" x2="122.554" y2="51.0642" gradientUnits="userSpaceOnUse">
<stop stop-color="#FFAC26"/>
<stop offset="1" stop-color="#FF860D"/>
</linearGradient>
<linearGradient id="paint7_linear_84_442" x1="137.464" y1="-2.15204" x2="108.469" y2="51.0174" gradientUnits="userSpaceOnUse">
<stop stop-color="#FFAC26"/>
<stop offset="1" stop-color="#FF860D"/>
</linearGradient>
<linearGradient id="paint8_linear_84_442" x1="78.8156" y1="75.7451" x2="88.5998" y2="127.584" gradientUnits="userSpaceOnUse">
<stop stop-color="#FFAC26"/>
<stop offset="1" stop-color="#FF860D"/>
</linearGradient>
<linearGradient id="paint9_linear_84_442" x1="77.6486" y1="77.8239" x2="92.9999" y2="125.836" gradientUnits="userSpaceOnUse">
<stop stop-color="#FFC933"/>
<stop offset="1" stop-color="#FFA733"/>
</linearGradient>
<linearGradient id="paint10_linear_84_442" x1="114.863" y1="145.607" x2="105.201" y2="152.656" gradientUnits="userSpaceOnUse">
<stop stop-color="#F6E7C4"/>
<stop offset="1" stop-color="#F6B391"/>
</linearGradient>
<linearGradient id="paint11_linear_84_442" x1="22.65" y1="37.5424" x2="38.2149" y2="38.2935" gradientUnits="userSpaceOnUse">
<stop stop-color="#FFC933"/>
<stop offset="1" stop-color="#FFA733"/>
</linearGradient>
<linearGradient id="paint12_linear_84_442" x1="28.6885" y1="41.8917" x2="36.9177" y2="50.9553" gradientUnits="userSpaceOnUse">
<stop stop-color="#FFAC26"/>
<stop offset="1" stop-color="#FF860D"/>
</linearGradient>
<linearGradient id="paint13_linear_84_442" x1="25.4094" y1="59.5966" x2="41.4195" y2="60.9973" gradientUnits="userSpaceOnUse">
<stop stop-color="#FFAC26"/>
<stop offset="1" stop-color="#FF860D"/>
</linearGradient>
<linearGradient id="paint14_linear_84_442" x1="26.8999" y1="55.4735" x2="42.7932" y2="57.999" gradientUnits="userSpaceOnUse">
<stop stop-color="#FFC933"/>
<stop offset="1" stop-color="#FFA733"/>
</linearGradient>
<linearGradient id="paint15_linear_84_442" x1="211.425" y1="141.22" x2="228.307" y2="150.328" gradientUnits="userSpaceOnUse">
<stop stop-color="#FE92AF"/>
<stop offset="1" stop-color="#F9648B"/>
</linearGradient>
<linearGradient id="paint16_linear_84_442" x1="240.443" y1="151.271" x2="274.039" y2="161.912" gradientUnits="userSpaceOnUse">
<stop stop-color="#FE92AF"/>
<stop offset="1" stop-color="#F9648B"/>
</linearGradient>
</defs>
</svg>
